<?xml version="1.0" encoding="UTF-8"?>
<svg id="Camada_1" xmlns="http://www.w3.org/2000/svg" version="1.1" viewBox="0 0 550 230">
  <!-- Generator: Adobe Illustrator 30.3.0, SVG Export Plug-In . SVG Version: 2.1.3 Build 182)  -->
  <defs>
    <style>
      .st0 {
        fill: #fff;
      }
    </style>
  </defs>
  <g>
    <g>
      <path class="st0" d="M131.61,55.79v-.22c0-16.28,12.59-29.96,29.85-29.96,9.01,0,15.2,2.93,20.08,7.16.87.76,2.06,2.39,2.06,4.56,0,3.36-2.72,5.97-6.08,5.97-1.63,0-3.04-.65-3.91-1.3-3.36-2.82-7.05-4.88-12.27-4.88-9.55,0-16.61,8.25-16.61,18.24v.22c0,10.2,7.06,18.35,17.15,18.35,5.21,0,9.23-2.06,12.81-5.1.76-.65,2.06-1.41,3.58-1.41,3.15,0,5.65,2.61,5.65,5.75,0,1.74-.65,3.15-1.85,4.12-5.1,4.88-11.29,8.14-20.84,8.14-17.04,0-29.64-13.35-29.64-29.63Z"/>
      <path class="st0" d="M193.59,55.79v-.22c0-16.39,13.03-29.96,30.61-29.96s30.5,13.35,30.5,29.74v.22c0,16.28-13.03,29.85-30.72,29.85s-30.4-13.35-30.4-29.63ZM241.57,55.79v-.22c0-10.1-7.27-18.45-17.58-18.45s-17.26,8.25-17.26,18.24v.22c0,9.99,7.27,18.35,17.48,18.35s17.37-8.25,17.37-18.13Z"/>
      <path class="st0" d="M268.05,32.78c0-3.69,2.82-6.62,6.51-6.62s6.62,2.93,6.62,6.62v2.82c3.69-5.32,9.01-9.99,17.91-9.99,12.92,0,20.41,8.68,20.41,21.93v30.61c0,3.69-2.82,6.51-6.51,6.51s-6.62-2.82-6.62-6.51v-26.59c0-8.9-4.45-14-12.27-14s-12.92,5.32-12.92,14.22v26.38c0,3.69-2.93,6.51-6.62,6.51s-6.51-2.82-6.51-6.51v-45.37Z"/>
      <path class="st0" d="M338.05,68.28v-30.18h-2.17c-3.15,0-5.65-2.5-5.65-5.65s2.5-5.65,5.65-5.65h2.17v-9.77c0-3.58,2.93-6.51,6.62-6.51s6.51,2.93,6.51,6.51v9.77h10.31c3.15,0,5.75,2.5,5.75,5.65s-2.6,5.65-5.75,5.65h-10.31v28.12c0,5.1,2.6,7.16,7.05,7.16,1.52,0,2.82-.33,3.26-.33,2.93,0,5.54,2.39,5.54,5.43,0,2.39-1.63,4.34-3.47,5.1-2.82.98-5.54,1.52-9.01,1.52-9.66,0-16.5-4.23-16.5-16.82Z"/>
      <path class="st0" d="M406.22,85.43c-16.61,0-29.42-12.05-29.42-29.74v-.22c0-16.39,11.62-29.85,28.01-29.85,18.24,0,27.25,14.98,27.25,28.22,0,3.69-2.82,6.3-6.19,6.3h-35.93c1.41,9.34,8.03,14.55,16.5,14.55,5.54,0,9.88-1.95,13.57-4.99.98-.76,1.85-1.19,3.36-1.19,2.93,0,5.21,2.28,5.21,5.32,0,1.63-.76,3.04-1.74,4.02-5.21,4.67-11.72,7.6-20.62,7.6ZM419.25,51.45c-.87-8.47-5.86-15.09-14.55-15.09-8.03,0-13.68,6.19-14.87,15.09h29.42Z"/>
      <path class="st0" d="M445.51,32.78c0-3.69,2.82-6.62,6.51-6.62s6.62,2.93,6.62,6.62v2.82c3.69-5.32,9.01-9.99,17.91-9.99,12.92,0,20.41,8.68,20.41,21.93v30.61c0,3.69-2.82,6.51-6.51,6.51s-6.62-2.82-6.62-6.51v-26.59c0-8.9-4.45-14-12.27-14s-12.92,5.32-12.92,14.22v26.38c0,3.69-2.93,6.51-6.62,6.51s-6.51-2.82-6.51-6.51v-45.37Z"/>
      <path class="st0" d="M515.52,68.28v-30.18h-2.17c-3.15,0-5.65-2.5-5.65-5.65s2.5-5.65,5.65-5.65h2.17v-9.77c0-3.58,2.93-6.51,6.62-6.51s6.51,2.93,6.51,6.51v9.77h10.31c3.15,0,5.75,2.5,5.75,5.65s-2.6,5.65-5.75,5.65h-10.31v28.12c0,5.1,2.6,7.16,7.05,7.16,1.52,0,2.82-.33,3.26-.33,2.93,0,5.54,2.39,5.54,5.43,0,2.39-1.63,4.34-3.47,5.1-2.82.98-5.54,1.52-9.01,1.52-9.66,0-16.5-4.23-16.5-16.82Z"/>
      <path class="st0" d="M134.76,97.68c0-3.69,2.82-6.51,6.51-6.51s6.62,2.82,6.62,6.51v25.51c4.23-5.97,10.2-10.75,19.54-10.75,13.46,0,26.6,10.64,26.6,29.74v.22c0,19-13.03,29.74-26.6,29.74-9.55,0-15.52-4.78-19.54-10.1v2.93c0,3.58-2.93,6.51-6.62,6.51s-6.51-2.93-6.51-6.51v-67.3ZM180.68,142.41v-.22c0-11.07-7.49-18.35-16.39-18.35s-16.72,7.38-16.72,18.35v.22c0,10.96,7.82,18.35,16.72,18.35s16.39-7.06,16.39-18.35Z"/>
      <path class="st0" d="M208.35,97.68c0-3.58,2.82-6.51,6.51-6.51s6.62,2.93,6.62,6.51v67.3c0,3.69-2.93,6.51-6.62,6.51s-6.51-2.82-6.51-6.51v-67.3Z"/>
      <path class="st0" d="M289.54,164.99c0,3.58-2.93,6.51-6.62,6.51s-6.62-2.82-6.62-6.51v-2.93c-3.69,5.43-9.01,10.1-17.91,10.1-12.92,0-20.41-8.68-20.41-22.04v-30.5c0-3.69,2.93-6.62,6.51-6.62s6.62,2.93,6.62,6.62v26.59c0,8.9,4.45,13.89,12.27,13.89s12.92-5.21,12.92-14.11v-26.38c0-3.69,2.93-6.62,6.62-6.62s6.62,2.93,6.62,6.62v45.37Z"/>
      <path class="st0" d="M332.2,172.26c-16.61,0-29.42-12.05-29.42-29.74v-.22c0-16.39,11.62-29.85,28.01-29.85,18.24,0,27.25,14.98,27.25,28.22,0,3.69-2.82,6.3-6.19,6.3h-35.93c1.41,9.34,8.03,14.55,16.5,14.55,5.54,0,9.88-1.95,13.57-4.99.98-.76,1.85-1.19,3.36-1.19,2.93,0,5.21,2.28,5.21,5.32,0,1.63-.76,3.04-1.74,4.02-5.21,4.67-11.72,7.6-20.62,7.6ZM345.22,138.28c-.87-8.47-5.86-15.09-14.55-15.09-8.03,0-13.68,6.19-14.87,15.09h29.42Z"/>
    </g>
    <g>
      <path class="st0" d="M136.41,209.15v-.09c0-9.37,7.06-17.04,17.19-17.04,4.94,0,8.29,1.32,11.02,3.34.75.56,1.41,1.6,1.41,2.87,0,1.98-1.6,3.53-3.58,3.53-.99,0-1.65-.38-2.17-.71-2.03-1.51-4.14-2.35-6.73-2.35-5.56,0-9.56,4.61-9.56,10.27v.09c0,5.65,3.91,10.36,9.56,10.36,3.06,0,5.08-.94,7.16-2.59.56-.47,1.32-.8,2.17-.8,1.84,0,3.39,1.51,3.39,3.34,0,1.13-.56,2.02-1.22,2.59-2.97,2.59-6.45,4.14-11.72,4.14-9.7,0-16.9-7.49-16.9-16.95Z"/>
      <path class="st0" d="M196.16,196.2c0-2.02,1.6-3.63,3.63-3.63h11.44c4.19,0,7.44,1.18,9.6,3.34,1.84,1.84,2.83,4.43,2.83,7.53v.09c0,5.18-2.59,8.38-6.59,10.03l5.04,6.12c.71.89,1.18,1.65,1.18,2.78,0,2.02-1.7,3.34-3.44,3.34-1.65,0-2.73-.8-3.58-1.88l-7.06-8.95h-5.79v7.2c0,2.02-1.6,3.63-3.63,3.63s-3.63-1.6-3.63-3.63v-25.99ZM210.75,208.59c3.53,0,5.56-1.88,5.56-4.66v-.09c0-3.11-2.17-4.71-5.7-4.71h-7.2v9.46h7.35Z"/>
      <path class="st0" d="M253.74,221.91v-25.71c0-2.02,1.6-3.63,3.63-3.63h18.27c1.79,0,3.25,1.46,3.25,3.25s-1.46,3.2-3.25,3.2h-14.69v6.69h12.57c1.79,0,3.25,1.46,3.25,3.25s-1.46,3.2-3.25,3.2h-12.57v6.92h14.93c1.79,0,3.25,1.46,3.25,3.25s-1.46,3.2-3.25,3.2h-18.5c-2.02,0-3.63-1.6-3.63-3.63Z"/>
      <path class="st0" d="M306.98,220.88l11.49-25.94c.8-1.79,2.26-2.87,4.24-2.87h.42c1.98,0,3.39,1.08,4.19,2.87l11.49,25.94c.23.52.38.99.38,1.46,0,1.93-1.51,3.48-3.44,3.48-1.69,0-2.82-.99-3.48-2.5l-2.21-5.18h-14.5l-2.31,5.41c-.61,1.41-1.84,2.26-3.34,2.26-1.88,0-3.34-1.51-3.34-3.39,0-.52.19-1.04.42-1.56ZM327.37,211.74l-4.57-10.88-4.57,10.88h9.13Z"/>
      <path class="st0" d="M376.1,199.26h-6.97c-1.84,0-3.34-1.51-3.34-3.34s1.51-3.34,3.34-3.34h21.19c1.84,0,3.34,1.51,3.34,3.34s-1.51,3.34-3.34,3.34h-6.97v22.93c0,2.02-1.6,3.63-3.63,3.63s-3.63-1.6-3.63-3.63v-22.93Z"/>
      <path class="st0" d="M422.8,195.92c0-2.02,1.6-3.63,3.63-3.63s3.63,1.6,3.63,3.63v26.27c0,2.02-1.6,3.63-3.63,3.63s-3.63-1.6-3.63-3.63v-26.27Z"/>
      <path class="st0" d="M470.63,223.18l-10.69-25.57c-.23-.56-.42-1.13-.42-1.74,0-2.02,1.6-3.58,3.63-3.58,1.88,0,3.11,1.08,3.67,2.54l8.24,21.33,8.33-21.56c.47-1.18,1.74-2.31,3.48-2.31,1.98,0,3.58,1.51,3.58,3.48,0,.57-.19,1.18-.38,1.6l-10.78,25.8c-.75,1.79-2.12,2.87-4.1,2.87h-.47c-1.98,0-3.34-1.08-4.1-2.87Z"/>
      <path class="st0" d="M519.55,221.91v-25.71c0-2.02,1.6-3.63,3.63-3.63h18.27c1.79,0,3.25,1.46,3.25,3.25s-1.46,3.2-3.25,3.2h-14.69v6.69h12.57c1.79,0,3.25,1.46,3.25,3.25s-1.46,3.2-3.25,3.2h-12.57v6.92h14.93c1.79,0,3.25,1.46,3.25,3.25s-1.46,3.2-3.25,3.2h-18.5c-2.02,0-3.63-1.6-3.63-3.63Z"/>
    </g>
  </g>
  <g>
    <g>
      <g>
        <path class="st0" d="M11.19,87.54c4.09,0,7.12,3.03,7.12,6.96v.16c0,3.93-3.03,6.96-7.12,6.96s-7.12-3.03-7.12-6.96v-.16c0-3.93,3.03-6.96,7.12-6.96Z"/>
        <path class="st0" d="M83.72,87.54c4.09,0,7.12,3.03,7.12,6.96v.16c0,3.93-3.03,6.96-7.12,6.96s-7.12-3.03-7.12-6.96v-.16c0-3.93,3.03-6.96,7.12-6.96Z"/>
      </g>
      <path class="st0" d="M47.59,166.06h-.16c-16.12,0-29.63-11.94-29.63-28.83s13.34-28.67,29.47-28.67h.16c16.13,0,29.63,11.94,29.63,28.83s-13.34,28.67-29.47,28.67ZM47.59,118.69h-.16c-11.13,0-20.38,7.78-20.38,18.69s9.09,18.54,20.22,18.54h.16c11.13,0,20.3-7.78,20.3-18.69s-9-18.54-20.14-18.54Z"/>
    </g>
    <g>
      <path class="st0" d="M23.81,74.01c-2.09,0-3.79-1.7-3.79-3.79v-29.4c0-2.09,1.7-3.79,3.79-3.79s3.79,1.7,3.79,3.79v29.4c0,2.09-1.7,3.79-3.79,3.79Z"/>
      <path class="st0" d="M71.55,74.01c-2.09,0-3.79-1.7-3.79-3.79v-29.4c0-2.09,1.7-3.79,3.79-3.79s3.79,1.7,3.79,3.79v29.4c0,2.09-1.7,3.79-3.79,3.79Z"/>
      <path class="st0" d="M53.62,72.5c-1.26,0-2.27-1.02-2.27-2.27v-17.05c0-1.26,1.02-2.27,2.27-2.27s2.27,1.02,2.27,2.27v17.05c0,1.26-1.02,2.27-2.27,2.27Z"/>
      <path class="st0" d="M39.15,63.82c-1.26,0-2.27-1.02-2.27-2.27v-16.73c0-1.26,1.02-2.27,2.27-2.27s2.27,1.02,2.27,2.27v16.73c0,1.26-1.02,2.27-2.27,2.27Z"/>
      <path class="st0" d="M15.09,51.27c-2.58,0-6.31-.53-9.33-3.06-2.08-1.74-4.53-5.11-4.44-11.24.12-7.76,6.17-11.3,11.37-12.58-.31-6.07,1.96-14.15,12.06-17.26,7.29-2.24,12.8.46,16.1,3.05,3.27-3.39,9.46-7.42,19.75-5.99,13.28,1.84,17.82,10.52,18.72,17.06,3.01.39,7.16,1.47,10.27,4.39,2.56,2.41,3.95,5.69,4.02,9.48.19,10.8-7.19,15.89-14.59,16.15-2.02.06-3.85-1.56-3.92-3.65-.07-2.09,1.56-3.85,3.65-3.92,2.77-.1,7.4-1.32,7.27-8.45-.03-1.77-.54-3.06-1.61-4.07-2.39-2.27-7.04-2.61-8.6-2.55-1.11.04-2.15-.39-2.9-1.18-.75-.79-1.13-1.87-1.03-2.95.08-1.1.47-11.01-12.32-12.79-10.97-1.52-14.75,5.6-14.9,5.9-.6,1.18-1.79,1.98-3.11,2.07-1.32.11-2.61-.48-3.37-1.56-.16-.22-4.39-5.83-11.19-3.74-8.47,2.61-6.75,10.6-6.32,12.18.31,1.12.08,2.33-.61,3.26-.69.93-1.77,1.51-2.93,1.55-.32.01-8.15.38-8.23,5.72-.04,2.52.54,4.3,1.71,5.3,1.81,1.54,5.03,1.38,6.12,1.18,2.05-.37,4.02.99,4.4,3.04.38,2.05-.95,4.02-3,4.41-.29.06-1.45.26-3.04.26Z"/>
      <path class="st0" d="M60.26,49.78c-5.4,0-8.96-3.72-10.71-6.17-2.44,1.29-6.75,3.2-10.96,3.2-7.07,0-10.86-9-11.02-9.38-.48-1.16.08-2.49,1.24-2.97,1.17-.48,2.49.08,2.97,1.24.76,1.83,3.47,6.57,6.81,6.57,4.06,0,8.95-2.61,10.48-3.62.55-.36,1.22-.46,1.85-.29.63.17,1.15.61,1.44,1.19.03.05,3.12,6.1,8.52,5.66,1.24-.11,2.35.82,2.46,2.08.1,1.25-.83,2.35-2.08,2.46-.34.03-.68.04-1,.04Z"/>
    </g>
  </g>
</svg>