<?xml version="1.0" encoding="UTF-8"?>
<svg id="Camada_1" xmlns="http://www.w3.org/2000/svg" xmlns:xlink="http://www.w3.org/1999/xlink" version="1.1" viewBox="0 0 800 570">
  <!-- Generator: Adobe Illustrator 30.3.0, SVG Export Plug-In . SVG Version: 2.1.3 Build 182)  -->
  <defs>
    <style>
      .st0 {
        fill: url(#Gradiente_sem_nome_6);
      }

      .st1 {
        fill: #1a418c;
      }
    </style>
    <linearGradient id="Gradiente_sem_nome_6" data-name="Gradiente sem nome 6" x1="12.73" y1="285" x2="787.27" y2="285" gradientUnits="userSpaceOnUse">
      <stop offset="0" stop-color="#26a7dd"/>
      <stop offset="1" stop-color="#18427f"/>
    </linearGradient>
  </defs>
  <path class="st0" d="M74.16,270.28c-5.45,8.43-10.46,17.01-14.91,25.74-3.97-5.66-7.76-11.4-11.33-17.3,5.1-9.38,10.75-18.52,16.8-27.39,3.02,6.17,6.31,12.28,9.84,18.33-.13.2-.26.41-.4.61ZM772.96,337.76c-.17-.43-.36-.86-.54-1.29-2.38,1.45-4.88,2.75-7.46,3.9,50.57,144.73-85.13,204.89-208.54,195.89-179.35-12.87-362.92-101.02-469.55-247.14-5.1,8.73-9.55,17.44-13.31,26.04,117.68,139.24,299.93,224.91,481.93,235.04,130.47,8.07,278.95-59.73,217.49-212.42ZM54.86,228.47C2.35,88.11,133.23,30.19,252.78,34.85c157.58,4.28,314.89,71.89,427.13,180.88.67-.67,10.18-4.23,10.88-4.86C558.57,90.01,364.92,6.15,182.04,20.84,110.18,27.7,28.61,66.56,14.99,143.88c-7.19,39.03,3.49,78.82,21.13,113.75,5.81-9.48,12.19-18.76,19.15-28.08-.15-.36-.28-.73-.41-1.08Z"/>
  <g>
    <path class="st1" d="M259.83,316.29l-31.61-75.62c-.7-1.67-1.25-3.34-1.25-5.15,0-5.99,4.74-10.59,10.72-10.59,5.57,0,9.19,3.2,10.86,7.52l24.37,63.08,24.65-63.78c1.39-3.48,5.15-6.82,10.31-6.82,5.85,0,10.58,4.46,10.58,10.31,0,1.67-.56,3.48-1.11,4.74l-31.89,76.31c-2.23,5.29-6.27,8.5-12.12,8.5h-1.39c-5.85,0-9.89-3.2-12.12-8.5Z"/>
    <path class="st1" d="M348.82,312.53v-76.04c0-5.99,4.73-10.72,10.72-10.72h54.03c5.29,0,9.61,4.32,9.61,9.61s-4.32,9.47-9.61,9.47h-43.45v19.78h37.18c5.29,0,9.61,4.32,9.61,9.61s-4.32,9.47-9.61,9.47h-37.18v20.47h44.14c5.29,0,9.61,4.32,9.61,9.61s-4.32,9.47-9.61,9.47h-54.73c-5.99,0-10.72-4.74-10.72-10.72Z"/>
    <path class="st1" d="M456.05,236.49c0-5.99,4.73-10.72,10.72-10.72h33.84c12.39,0,22,3.48,28.41,9.89,5.43,5.43,8.36,13.09,8.36,22.28v.28c0,15.32-7.66,24.79-19.5,29.66l14.9,18.1c2.09,2.65,3.48,4.87,3.48,8.22,0,5.99-5.01,9.89-10.17,9.89-4.87,0-8.08-2.37-10.58-5.57l-20.89-26.46h-17.13v21.31c0,5.99-4.73,10.72-10.72,10.72s-10.72-4.73-10.72-10.72v-76.87ZM499.22,273.12c10.44,0,16.43-5.57,16.43-13.79v-.28c0-9.19-6.41-13.93-16.85-13.93h-21.31v27.99h21.72Z"/>
    <path class="st1" d="M570.66,236.49c0-5.99,4.73-10.72,10.72-10.72h34.54c11.14,0,19.91,3.06,25.48,8.63,4.46,4.46,6.68,9.89,6.68,16.57v.28c0,11-5.85,17.13-12.81,21.03,11.28,4.32,18.24,10.86,18.24,23.95v.28c0,17.83-14.48,26.74-36.49,26.74h-35.65c-5.99,0-10.72-4.74-10.72-10.72v-76.04ZM611.32,265.18c9.47,0,15.46-3.06,15.46-10.31v-.28c0-6.41-5.01-10.03-14.06-10.03h-21.17v20.61h19.77ZM617.03,304.45c9.47,0,15.18-3.34,15.18-10.58v-.28c0-6.55-4.87-10.58-15.88-10.58h-24.79v21.45h25.48Z"/>
    <path class="st1" d="M680.82,274.79v-.28c0-27.71,21.86-50.41,51.94-50.41s51.66,22.42,51.66,50.13v.28c0,27.71-21.86,50.41-51.94,50.41s-51.67-22.42-51.67-50.13ZM762,274.79v-.28c0-16.71-12.25-30.64-29.52-30.64s-29.24,13.65-29.24,30.36v.28c0,16.71,12.25,30.64,29.52,30.64s29.24-13.65,29.24-30.36Z"/>
  </g>
</svg>