<?xml version="1.0" encoding="UTF-8"?>
<svg id="Camada_1" xmlns="http://www.w3.org/2000/svg" xmlns:xlink="http://www.w3.org/1999/xlink" version="1.1" viewBox="0 0 800 570">
  <!-- Generator: Adobe Illustrator 30.3.0, SVG Export Plug-In . SVG Version: 2.1.3 Build 182)  -->
  <defs>
    <style>
      .st0 {
        fill: url(#Gradiente_sem_nome_6);
      }

      .st1 {
        fill: #1a418c;
      }
    </style>
    <linearGradient id="Gradiente_sem_nome_6" data-name="Gradiente sem nome 6" x1="12.73" y1="285.3" x2="787.27" y2="285.3" gradientUnits="userSpaceOnUse">
      <stop offset="0" stop-color="#26a7dd"/>
      <stop offset="1" stop-color="#18427f"/>
    </linearGradient>
  </defs>
  <path class="st0" d="M74.16,270.59c-5.45,8.43-10.46,17.01-14.91,25.74-3.97-5.66-7.76-11.4-11.33-17.3,5.1-9.38,10.75-18.52,16.8-27.39,3.02,6.17,6.31,12.28,9.84,18.33-.13.2-.26.41-.4.61ZM772.96,338.06c-.17-.43-.36-.86-.54-1.29-2.38,1.45-4.88,2.75-7.46,3.9,50.57,144.73-85.13,204.89-208.54,195.89-179.35-12.87-362.92-101.02-469.55-247.14-5.1,8.73-9.55,17.44-13.31,26.04,117.68,139.24,299.93,224.91,481.93,235.04,130.47,8.07,278.95-59.73,217.49-212.42ZM54.86,228.77C2.35,88.41,133.23,30.5,252.78,35.15c157.58,4.28,314.89,71.89,427.13,180.88.67-.67,10.18-4.23,10.88-4.86C558.57,90.31,364.92,6.45,182.04,21.15,110.18,28,28.61,66.87,14.99,144.19c-7.19,39.03,3.49,78.82,21.13,113.75,5.81-9.48,12.19-18.76,19.15-28.08-.15-.36-.28-.73-.41-1.08Z"/>
  <path class="st1" d="M732.76,224.4c-30.07,0-51.94,22.7-51.94,50.41v.28c0,27.71,21.58,50.13,51.66,50.13s51.95-22.7,51.95-50.41v-.28c0-27.71-21.58-50.13-51.67-50.13Z"/>
</svg>