<?xml version="1.0" encoding="UTF-8"?>
<svg id="Camada_1" xmlns="http://www.w3.org/2000/svg" version="1.1" viewBox="0 0 800 570">
  <!-- Generator: Adobe Illustrator 30.3.0, SVG Export Plug-In . SVG Version: 2.1.3 Build 182)  -->
  <defs>
    <style>
      .st0 {
        fill: #fff;
      }
    </style>
  </defs>
  <g>
    <path class="st0" d="M351.93,370.76v-.09c0-4.97,3.88-7.41,9.5-7.41,2.57,0,4.4.39,6.19.96v-.57c0-3.27-2-5.01-5.71-5.01-2,0-3.66.35-5.1.92-.31.09-.57.13-.83.13-1.22,0-2.22-.96-2.22-2.18,0-.96.65-1.79,1.44-2.09,2.18-.83,4.4-1.35,7.41-1.35,3.44,0,6.02.92,7.63,2.57,1.7,1.66,2.48,4.1,2.48,7.1v11.33c0,1.44-1.13,2.53-2.57,2.53-1.53,0-2.57-1.05-2.57-2.22v-.87c-1.57,1.87-3.97,3.36-7.5,3.36-4.31,0-8.15-2.48-8.15-7.1ZM367.71,369.11v-1.57c-1.35-.52-3.14-.92-5.23-.92-3.4,0-5.4,1.44-5.4,3.83v.09c0,2.22,1.96,3.49,4.49,3.49,3.49,0,6.15-2,6.15-4.92Z"/>
    <path class="st0" d="M390.21,377.87l-2.27,5.23c-.35.83-.78,1.26-1.7,1.26-1.05,0-3.05-1-3.05-1.92,0-.35.13-.7.35-1l2.66-3.92c-5.23-1.26-8.85-5.97-8.85-11.51v-.09c0-6.54,5.06-12.03,11.99-12.03,3.62,0,6.1,1.18,8.06,2.88.35.31.83.96.83,1.83,0,1.35-1.09,2.4-2.44,2.4-.65,0-1.22-.26-1.57-.52-1.35-1.13-2.83-1.96-4.92-1.96-3.84,0-6.67,3.31-6.67,7.32v.09c0,4.1,2.83,7.37,6.89,7.37,2.09,0,3.7-.83,5.14-2.05.31-.26.83-.57,1.44-.57,1.26,0,2.27,1.05,2.27,2.31,0,.7-.26,1.26-.74,1.66-1.87,1.79-4.1,3.05-7.41,3.23Z"/>
    <path class="st0" d="M401.54,370.76v-.09c0-4.97,3.88-7.41,9.5-7.41,2.57,0,4.4.39,6.19.96v-.57c0-3.27-2-5.01-5.71-5.01-2,0-3.66.35-5.1.92-.31.09-.57.13-.83.13-1.22,0-2.22-.96-2.22-2.18,0-.96.65-1.79,1.44-2.09,2.18-.83,4.4-1.35,7.41-1.35,3.44,0,6.02.92,7.63,2.57,1.7,1.66,2.48,4.1,2.48,7.1v11.33c0,1.44-1.13,2.53-2.57,2.53-1.53,0-2.57-1.05-2.57-2.22v-.87c-1.57,1.87-3.97,3.36-7.5,3.36-4.31,0-8.15-2.48-8.15-7.1ZM406.42,351.98c-.87,0-1.61-.7-1.61-1.44,0-.26.09-.7.17-1,.92-2.53,2.14-3.97,4.44-3.97s4.71,1.74,6.28,1.74c1,0,1.48-.44,2-1.39.31-.48.78-.87,1.44-.87.87,0,1.61.7,1.61,1.44,0,.26-.09.7-.17,1-.92,2.53-2.14,3.97-4.44,3.97s-4.71-1.74-6.28-1.74c-1,0-1.48.44-2,1.39-.31.48-.74.87-1.44.87ZM417.32,369.11v-1.57c-1.35-.52-3.14-.92-5.23-.92-3.4,0-5.4,1.44-5.4,3.83v.09c0,2.22,1.96,3.49,4.49,3.49,3.49,0,6.15-2,6.15-4.92Z"/>
    <path class="st0" d="M426.96,366.01v-.09c0-6.58,5.23-12.03,12.29-12.03s12.25,5.36,12.25,11.94v.09c0,6.54-5.23,11.99-12.34,11.99s-12.2-5.36-12.2-11.9ZM446.22,366.01v-.09c0-4.05-2.92-7.41-7.06-7.41s-6.93,3.31-6.93,7.32v.09c0,4.01,2.92,7.37,7.02,7.37s6.97-3.31,6.97-7.28Z"/>
    <path class="st0" d="M491.69,381.97c0,1.48-1.18,2.61-2.62,2.61s-2.66-1.13-2.66-2.61v-8.41c-1.7,2.4-4.1,4.31-7.85,4.31-5.4,0-10.68-4.31-10.68-11.94v-.09c0-7.63,5.19-11.94,10.68-11.94,3.79,0,6.19,1.87,7.85,4.05v-1.22c0-1.44,1.18-2.62,2.61-2.62s2.66,1.18,2.66,2.66v25.19ZM473.21,365.84v.09c0,4.45,3.05,7.37,6.63,7.37s6.67-2.96,6.67-7.37v-.09c0-4.45-3.14-7.37-6.67-7.37s-6.63,2.79-6.63,7.37Z"/>
    <path class="st0" d="M518.33,374.99c0,1.44-1.18,2.61-2.66,2.61s-2.66-1.13-2.66-2.61v-1.18c-1.48,2.18-3.62,4.05-7.19,4.05-5.19,0-8.19-3.49-8.19-8.85v-12.25c0-1.48,1.18-2.66,2.61-2.66s2.66,1.18,2.66,2.66v10.68c0,3.57,1.79,5.58,4.92,5.58s5.19-2.09,5.19-5.67v-10.59c0-1.48,1.18-2.66,2.66-2.66s2.66,1.18,2.66,2.66v18.22Z"/>
    <path class="st0" d="M535.03,377.91c-6.67,0-11.81-4.84-11.81-11.94v-.09c0-6.58,4.66-11.99,11.25-11.99,7.32,0,10.94,6.02,10.94,11.33,0,1.48-1.13,2.53-2.48,2.53h-14.43c.57,3.75,3.22,5.84,6.62,5.84,2.22,0,3.97-.78,5.45-2,.39-.31.74-.48,1.35-.48,1.18,0,2.09.92,2.09,2.14,0,.65-.31,1.22-.7,1.61-2.09,1.87-4.71,3.05-8.28,3.05ZM540.26,364.27c-.35-3.4-2.35-6.06-5.84-6.06-3.22,0-5.49,2.48-5.97,6.06h11.81Z"/>
    <path class="st0" d="M561.75,366.01v-.09c0-6.54,5.06-12.03,11.99-12.03,3.62,0,6.1,1.18,8.06,2.88.35.31.83.96.83,1.83,0,1.35-1.09,2.4-2.44,2.4-.65,0-1.22-.26-1.57-.52-1.35-1.13-2.83-1.96-4.93-1.96-3.83,0-6.67,3.31-6.67,7.32v.09c0,4.1,2.83,7.37,6.89,7.37,2.09,0,3.71-.83,5.14-2.05.31-.26.83-.57,1.44-.57,1.26,0,2.27,1.05,2.27,2.31,0,.7-.26,1.26-.74,1.66-2.05,1.96-4.53,3.27-8.37,3.27-6.84,0-11.9-5.36-11.9-11.9Z"/>
    <path class="st0" d="M585.55,366.01v-.09c0-6.58,5.23-12.03,12.29-12.03s12.25,5.36,12.25,11.94v.09c0,6.54-5.23,11.99-12.34,11.99s-12.2-5.36-12.2-11.9ZM604.82,366.01v-.09c0-4.05-2.92-7.41-7.06-7.41s-6.93,3.31-6.93,7.32v.09c0,4.01,2.92,7.37,7.02,7.37s6.97-3.31,6.97-7.28Z"/>
    <path class="st0" d="M615.02,356.77c0-1.48,1.13-2.66,2.62-2.66s2.66,1.18,2.66,2.66v1.13c1.48-2.14,3.62-4.01,7.19-4.01,5.19,0,8.19,3.49,8.19,8.81v12.29c0,1.48-1.13,2.61-2.61,2.61s-2.66-1.13-2.66-2.61v-10.68c0-3.57-1.79-5.62-4.93-5.62s-5.19,2.14-5.19,5.71v10.59c0,1.48-1.18,2.61-2.66,2.61s-2.62-1.13-2.62-2.61v-18.22Z"/>
    <path class="st0" d="M652.16,377.91c-6.67,0-11.81-4.84-11.81-11.94v-.09c0-6.58,4.66-11.99,11.25-11.99,7.32,0,10.94,6.02,10.94,11.33,0,1.48-1.13,2.53-2.48,2.53h-14.43c.57,3.75,3.23,5.84,6.63,5.84,2.22,0,3.97-.78,5.45-2,.39-.31.74-.48,1.35-.48,1.18,0,2.09.92,2.09,2.14,0,.65-.31,1.22-.7,1.61-2.09,1.87-4.71,3.05-8.28,3.05ZM657.39,364.27c-.35-3.4-2.35-6.06-5.84-6.06-3.23,0-5.49,2.48-5.97,6.06h11.81Z"/>
    <path class="st0" d="M666.25,366.01v-.09c0-6.54,5.06-12.03,11.99-12.03,3.62,0,6.1,1.18,8.06,2.88.35.31.83.96.83,1.83,0,1.35-1.09,2.4-2.44,2.4-.65,0-1.22-.26-1.57-.52-1.35-1.13-2.83-1.96-4.92-1.96-3.84,0-6.67,3.31-6.67,7.32v.09c0,4.1,2.83,7.37,6.89,7.37,2.09,0,3.7-.83,5.14-2.05.31-.26.83-.57,1.44-.57,1.26,0,2.27,1.05,2.27,2.31,0,.7-.26,1.26-.74,1.66-2.05,1.96-4.53,3.27-8.37,3.27-6.84,0-11.9-5.36-11.9-11.9Z"/>
    <path class="st0" d="M693.06,371.03v-12.12h-.87c-1.26,0-2.27-1-2.27-2.27s1-2.27,2.27-2.27h.87v-3.92c0-1.44,1.18-2.62,2.66-2.62s2.61,1.18,2.61,2.62v3.92h4.14c1.26,0,2.31,1,2.31,2.27s-1.05,2.27-2.31,2.27h-4.14v11.29c0,2.05,1.05,2.88,2.83,2.88.61,0,1.13-.13,1.31-.13,1.18,0,2.22.96,2.22,2.18,0,.96-.65,1.74-1.39,2.05-1.13.39-2.22.61-3.62.61-3.88,0-6.63-1.7-6.63-6.76Z"/>
    <path class="st0" d="M707.92,370.76v-.09c0-4.97,3.88-7.41,9.5-7.41,2.57,0,4.4.39,6.19.96v-.57c0-3.27-2-5.01-5.71-5.01-2,0-3.66.35-5.1.92-.31.09-.57.13-.83.13-1.22,0-2.22-.96-2.22-2.18,0-.96.65-1.79,1.44-2.09,2.18-.83,4.4-1.35,7.41-1.35,3.44,0,6.02.92,7.63,2.57,1.7,1.66,2.48,4.1,2.48,7.1v11.33c0,1.44-1.13,2.53-2.57,2.53-1.53,0-2.57-1.05-2.57-2.22v-.87c-1.57,1.87-3.97,3.36-7.5,3.36-4.31,0-8.15-2.48-8.15-7.1ZM723.7,369.11v-1.57c-1.35-.52-3.14-.92-5.23-.92-3.4,0-5.4,1.44-5.4,3.83v.09c0,2.22,1.96,3.49,4.49,3.49,3.49,0,6.15-2,6.15-4.92Z"/>
  </g>
  <g>
    <path class="st0" d="M74.16,270.59c-5.45,8.43-10.46,17.01-14.91,25.74-3.97-5.66-7.76-11.4-11.33-17.3,5.1-9.38,10.75-18.52,16.8-27.39,3.02,6.17,6.31,12.28,9.84,18.33-.13.2-.26.41-.4.61ZM772.96,338.06c-.17-.43-.36-.86-.54-1.29-2.38,1.45-4.88,2.75-7.46,3.9,50.57,144.73-85.13,204.89-208.54,195.89-179.35-12.87-362.92-101.02-469.55-247.14-5.1,8.73-9.55,17.44-13.31,26.04,117.68,139.24,299.93,224.91,481.93,235.04,130.47,8.07,278.95-59.73,217.49-212.42ZM54.86,228.77C2.35,88.41,133.23,30.5,252.78,35.15c157.58,4.28,314.89,71.89,427.13,180.88.67-.67,10.18-4.23,10.88-4.86C558.57,90.31,364.92,6.45,182.04,21.15,110.18,28,28.61,66.87,14.99,144.19c-7.19,39.03,3.49,78.82,21.13,113.75,5.81-9.48,12.19-18.76,19.15-28.08-.15-.36-.28-.73-.41-1.08Z"/>
    <g>
      <path class="st0" d="M259.83,316.59l-31.61-75.62c-.7-1.67-1.25-3.34-1.25-5.15,0-5.99,4.74-10.59,10.72-10.59,5.57,0,9.19,3.2,10.86,7.52l24.37,63.08,24.65-63.78c1.39-3.48,5.15-6.82,10.31-6.82,5.85,0,10.58,4.46,10.58,10.31,0,1.67-.56,3.48-1.11,4.74l-31.89,76.31c-2.23,5.29-6.27,8.5-12.12,8.5h-1.39c-5.85,0-9.89-3.2-12.12-8.5Z"/>
      <path class="st0" d="M348.82,312.83v-76.04c0-5.99,4.73-10.72,10.72-10.72h54.03c5.29,0,9.61,4.32,9.61,9.61s-4.32,9.47-9.61,9.47h-43.45v19.78h37.18c5.29,0,9.61,4.32,9.61,9.61s-4.32,9.47-9.61,9.47h-37.18v20.47h44.14c5.29,0,9.61,4.32,9.61,9.61s-4.32,9.47-9.61,9.47h-54.73c-5.99,0-10.72-4.74-10.72-10.72Z"/>
      <path class="st0" d="M456.05,236.79c0-5.99,4.73-10.72,10.72-10.72h33.84c12.39,0,22,3.48,28.41,9.89,5.43,5.43,8.36,13.09,8.36,22.28v.28c0,15.32-7.66,24.79-19.5,29.66l14.9,18.1c2.09,2.65,3.48,4.87,3.48,8.22,0,5.99-5.01,9.89-10.17,9.89-4.87,0-8.08-2.37-10.58-5.57l-20.89-26.46h-17.13v21.31c0,5.99-4.73,10.72-10.72,10.72s-10.72-4.73-10.72-10.72v-76.87ZM499.22,273.42c10.44,0,16.43-5.57,16.43-13.79v-.28c0-9.19-6.41-13.93-16.85-13.93h-21.31v27.99h21.72Z"/>
      <path class="st0" d="M570.66,236.79c0-5.99,4.73-10.72,10.72-10.72h34.54c11.14,0,19.91,3.06,25.48,8.63,4.46,4.46,6.68,9.89,6.68,16.57v.28c0,11-5.85,17.13-12.81,21.03,11.28,4.32,18.24,10.86,18.24,23.95v.28c0,17.83-14.48,26.74-36.49,26.74h-35.65c-5.99,0-10.72-4.74-10.72-10.72v-76.04ZM611.32,265.48c9.47,0,15.46-3.06,15.46-10.31v-.28c0-6.41-5.01-10.03-14.06-10.03h-21.17v20.61h19.77ZM617.03,304.75c9.47,0,15.18-3.34,15.18-10.58v-.28c0-6.55-4.87-10.58-15.88-10.58h-24.79v21.45h25.48Z"/>
      <path class="st0" d="M680.82,275.09v-.28c0-27.71,21.86-50.41,51.94-50.41s51.66,22.42,51.66,50.13v.28c0,27.71-21.86,50.41-51.94,50.41s-51.67-22.42-51.67-50.13ZM762,275.09v-.28c0-16.71-12.25-30.64-29.52-30.64s-29.24,13.65-29.24,30.36v.28c0,16.71,12.25,30.64,29.52,30.64s29.24-13.65,29.24-30.36Z"/>
    </g>
  </g>
</svg>