<?xml version="1.0" encoding="UTF-8"?>
<svg id="Camada_1" xmlns="http://www.w3.org/2000/svg" version="1.1" viewBox="0 0 734 204">
  <!-- Generator: Adobe Illustrator 30.3.0, SVG Export Plug-In . SVG Version: 2.1.3 Build 182)  -->
  <defs>
    <style>
      .st0 {
        fill: #fadf3c;
      }

      .st0, .st1, .st2 {
        fill-rule: evenodd;
      }

      .st1 {
        fill: #295ca7;
      }

      .st2 {
        fill: #2f9c5c;
      }
    </style>
  </defs>
  <path class="st2" d="M283.37,164.57c.14,8.58-.14,17.16-1,25.16h24.87c2.43-35.45-5.57-82.63-10.29-100.5h-18.73c-14.15,17.87-47.18,65.05-63.62,100.5h25.3c3.43-8,7.72-16.58,12.29-25.16h31.17ZM258.21,153.28c11.29-19.58,21.87-35.59,21.87-35.59,0,0,2.15,16.02,2.86,35.59h-24.73ZM388.58,189.73h15.87l26.45-100.49h-22.44l-15.73,59.46-28.74-59.46h-15.87l-26.59,100.49h22.3l15.87-59.32,28.87,59.32h0ZM485.65,164.57c.28,8.58-.14,17.16-.86,25.16h24.73c2.28-35.45-5.72-82.63-10.29-100.5h-18.73c-14.01,17.87-47.03,65.05-63.47,100.5h25.16c3.43-8,7.86-16.58,12.44-25.16h31.02ZM460.49,153.28c11.29-19.58,22.02-35.59,22.02-35.59,0,0,1.99,16.02,2.85,35.59h-24.87ZM553.27,189.73l23.73-89.35h25.16l2.86-11.15h-74.77l-2.86,11.15h25.31l-23.45,89.35h24.01,0ZM618.32,178.73l9.14-34.74h29.3l3.01-11.29h-29.17l8.44-32.31h34.3l2.85-11.15h-58.46l-26.46,100.49h60.05l2.85-11h-35.87ZM693.79,178.73l23.45-89.49h-24.02l-26.58,100.49h59.32l2.86-11h-35.03Z"/>
  <path class="st1" d="M55.93,88.09c28.02,0,50.89,22.88,50.89,50.89s-22.88,50.75-50.89,50.75S5.18,167,5.18,138.98s22.73-50.89,50.75-50.89h0Z"/>
  <path class="st0" d="M200.31,189.31c29.02-67.91,22.59-135.67-19.58-163.11C140.7.18,80.52,18.19,31.77,65.94c31.88-24.59,68.05-31.31,90.2-13.44,28.16,22.58,22.02,76.77-13.72,120.94-4.66,5.65-9.62,11.05-14.87,16.16l106.93-.29Z"/>
</svg>