<?xml version="1.0" encoding="UTF-8"?>
<svg id="Camada_1" xmlns="http://www.w3.org/2000/svg" version="1.1" viewBox="0 0 2048 2048">
  <!-- Generator: Adobe Illustrator 30.3.0, SVG Export Plug-In . SVG Version: 2.1.3 Build 182)  -->
  <defs>
    <style>
      .st0 {
        fill: #1d1d1b;
      }

      .st0, .st1, .st2, .st3 {
        fill-rule: evenodd;
      }

      .st1 {
        fill: #00773a;
      }

      .st2 {
        fill: #f9b20b;
      }

      .st3 {
        fill: #004c9b;
      }
    </style>
  </defs>
  <path class="st0" d="M324.63,1249.82l33.75,76.08h-20.37l-6.26-15.04h-34.03l-5.66,15.04h-20.08l30.64-76.08h22.01ZM326.14,1297.59l-12.26-29.57-11.16,29.57h23.42ZM441.09,1255.09v16.62c-9.69-4.69-19.17-7.03-28.42-7.03-8.91,0-15.82,2.25-20.63,6.75-4.83,4.49-7.25,10.24-7.25,17.21,0,6.67,2.42,12.08,7.25,16.23,4.81,4.14,11.17,6.21,19.05,6.21,4.18,0,8.37-.91,12.58-2.71v-8.89s-11,0-11,0v-13.94h30v31.1c-3.01,3.01-7.59,5.46-13.75,7.38-6.16,1.89-12.25,2.86-18.27,2.86-13.25-.01-24.14-3.66-32.65-10.99-8.51-7.31-12.77-16.62-12.77-27.9s4.26-20.97,12.77-28.23c8.51-7.29,19.55-10.93,33.08-10.93,11.19,0,21.19,2.1,30,6.26h0ZM521.24,1311.95v13.94h-56.07v-76.08h55.31v13.94h-36.37v15.96h34.7v13.93h-34.7v18.3h37.13ZM499.46,1223.77l11.05,19.55h-9.92l-8.71-9.73-8.94,9.73h-9.79l11.05-19.55h15.25ZM618.57,1249.82v76.08h-15.96l-42.04-48.74v48.74h-18.95v-76.08h17.36l40.64,46.5v-46.5h18.96ZM712.3,1302.7v16.6c-9.5,5.05-19.47,7.59-29.9,7.59-13.49-.01-24.25-3.74-32.27-11.2-7.99-7.47-12.01-16.65-12.01-27.57s4.22-20.21,12.66-27.83c8.46-7.62,19.48-11.44,33.08-11.44,10.86,0,20.04,2.25,27.57,6.71v16.93c-9.22-5.18-17.95-7.79-26.21-7.79-8.08,0-14.7,2.17-19.83,6.51-5.15,4.35-7.72,9.87-7.72,16.58,0,6.74,2.53,12.32,7.61,16.73,5.06,4.38,11.54,6.58,19.46,6.58,3.93,0,7.69-.52,11.32-1.55,3.65-1.04,9.05-3.32,16.23-6.84h0ZM752.76,1249.82v76.08h-18.96v-76.08h18.96ZM820.55,1249.82l33.76,76.08h-20.37l-6.27-15.04h-34.04l-5.65,15.04h-20.1l30.66-76.08h22.01ZM822.08,1297.59l-12.27-29.57-11.16,29.57h23.43ZM976.94,1249.82v76.08h-15.97l-42.04-48.74v48.74h-18.94v-76.08h17.36l40.63,46.5v-46.5h18.96ZM1044.29,1249.82l33.75,76.08h-20.37l-6.27-15.04h-34.03l-5.66,15.04h-20.08l30.65-76.08h22.01ZM1045.82,1297.59l-12.27-29.57-11.15,29.57h23.42ZM1159.06,1302.7v16.6c-9.5,5.05-19.46,7.59-29.89,7.59-13.49-.01-24.25-3.74-32.27-11.2-7.99-7.47-12.01-16.65-12.01-27.57,0-10.94,4.22-20.21,12.65-27.83,8.46-7.62,19.48-11.44,33.08-11.44,10.87,0,20.04,2.25,27.57,6.71v16.93c-9.21-5.18-17.96-7.79-26.21-7.79-8.08,0-14.7,2.17-19.83,6.51-5.14,4.35-7.71,9.87-7.71,16.58s2.53,12.32,7.6,16.73c5.06,4.38,11.54,6.58,19.46,6.58,3.93,0,7.7-.52,11.33-1.55,3.64-1.04,9.04-3.32,16.22-6.84h0ZM1199.53,1249.82v76.08h-18.96v-76.08h18.96ZM1263.18,1248.84c12.95,0,23.45,3.92,31.46,11.75,8.03,7.81,12.04,16.91,12.04,27.3,0,10.52-4.07,19.66-12.2,27.4-8.14,7.72-18.59,11.6-31.32,11.6-12.88-.01-23.38-3.85-31.47-11.54-8.1-7.71-12.15-16.86-12.15-27.46,0-10.41,4.03-19.53,12.06-27.34,8.06-7.81,18.57-11.71,31.57-11.71h0ZM1263.18,1311.08c7.19,0,12.97-2.13,17.37-6.39,4.38-4.28,6.58-9.87,6.58-16.8s-2.2-12.58-6.58-16.82c-4.41-4.25-10.19-6.38-17.38-6.38-7.23,0-13.05,2.12-17.46,6.38-4.4,4.24-6.62,9.85-6.62,16.82,0,6.93,2.21,12.53,6.62,16.8,4.41,4.25,10.22,6.39,17.46,6.39h0ZM1403.23,1249.82v76.08h-15.97l-42.04-48.74v48.74h-18.94v-76.08h17.36l40.63,46.5v-46.5h18.96ZM1470.57,1249.82l33.75,76.08h-20.37l-6.27-15.04h-34.02l-5.66,15.04h-20.08l30.65-76.08h22.01ZM1472.09,1297.59l-12.26-29.57-11.16,29.57h23.42ZM1576.91,1311.95v13.94h-58v-76.08h18.96v62.14h39.03ZM1624.15,1249.82h33.55c12.95,0,23.19,3.55,30.74,10.65,7.54,7.1,11.3,16.27,11.3,27.53,0,11.81-3.82,21.06-11.47,27.81-7.63,6.73-18.55,10.09-32.69,10.09h-31.43v-76.09h0ZM1643.12,1263.76v48.19h12.37c8,0,14.14-2.2,18.39-6.61,4.24-4.41,6.38-10.22,6.38-17.45s-2.16-13.37-6.45-17.68c-4.3-4.29-10.48-6.45-18.55-6.45h-12.13ZM1775.75,1311.95v13.94h-56.07v-76.08h55.31v13.94h-36.38v15.96h34.71v13.93h-34.71v18.3h37.14Z"/>
  <path class="st0" d="M239.93,1382.76v13.94h-27.54v62.15h-18.96v-62.15h-27.54v-13.94h74.05ZM257.24,1382.76h33.98c7.38,0,13.36,2.15,17.97,6.4,4.62,4.27,6.91,9.44,6.91,15.5,0,8.38-4.35,14.59-13.07,18.63,3.85,1.7,7.49,6.37,10.91,13.99,3.44,7.62,6.75,14.81,9.94,21.56h-20.85c-1.24-2.52-3.39-7.29-6.46-14.33-3.07-7.03-5.71-11.57-7.9-13.56-2.19-1.99-4.55-2.99-7.04-2.99h-5.44v30.88h-18.95v-76.09h0ZM276.19,1396.7v17.33h10.02c3.19,0,5.72-.76,7.59-2.27,1.88-1.51,2.81-3.65,2.81-6.45,0-5.73-3.61-8.61-10.84-8.61h-9.57ZM382.98,1382.76l33.75,76.09h-20.36l-6.27-15.04h-34.03l-5.66,15.04h-20.09l30.66-76.09h22.01ZM384.51,1430.53l-12.27-29.58-11.15,29.58h23.42ZM508.4,1382.76v76.09h-15.98l-42.05-48.73v48.73h-18.95v-76.09h17.37l40.62,46.51v-46.51h18.97ZM582.85,1387.67v14.87c-10.1-4.53-18.13-6.82-24.12-6.82-3.41,0-6.13.58-8.14,1.74-2.02,1.13-3.03,2.65-3.03,4.53,0,1.46.72,2.84,2.17,4.14,1.46,1.3,5,2.99,10.62,5.08,5.63,2.06,10.13,3.98,13.51,5.76,3.38,1.78,6.28,4.3,8.73,7.51,2.47,3.23,3.68,7.33,3.68,12.26,0,7.02-2.67,12.64-8.03,16.83-5.35,4.16-12.41,6.26-21.15,6.26-9.44,0-18.59-2.46-27.46-7.36v-16.4c5.1,3.42,9.59,5.91,13.52,7.47,3.92,1.56,8.07,2.35,12.47,2.35,7.43,0,11.15-2.35,11.15-7.03,0-1.61-.74-3.1-2.23-4.52-1.49-1.43-5.08-3.14-10.77-5.19-5.66-2.03-10.17-3.92-13.49-5.65-3.32-1.75-6.18-4.24-8.6-7.47-2.42-3.24-3.63-7.36-3.63-12.41,0-6.52,2.64-11.81,7.9-15.82,5.27-4.02,12.31-6.03,21.14-6.03,8.13,0,16.71,1.97,25.75,5.89h0ZM605.12,1382.76h33.91c7.71,0,13.82,2.24,18.37,6.72,4.53,4.46,6.8,9.74,6.8,15.84,0,6.32-2.25,11.72-6.73,16.22-4.48,4.49-10.6,6.75-18.33,6.75h-15.07s0,30.56,0,30.56h-18.96v-76.09h0ZM624.08,1396.7v17.64h8.81c7.88,0,11.81-2.93,11.81-8.8,0-3.31-1.06-5.6-3.16-6.89-2.09-1.29-5.71-1.94-10.78-1.94h-6.69ZM723.61,1381.77c12.96,0,23.45,3.92,31.47,11.75,8.03,7.83,12.04,16.91,12.04,27.3s-4.07,19.67-12.19,27.4c-8.14,7.73-18.59,11.6-31.32,11.6-12.88,0-23.38-3.85-31.47-11.55-8.1-7.69-12.15-16.86-12.15-27.45,0-10.41,4.03-19.53,12.06-27.34,8.05-7.82,18.57-11.71,31.57-11.72h0ZM723.61,1444.03c7.19,0,12.97-2.14,17.38-6.4,4.4-4.28,6.58-9.87,6.58-16.8,0-6.97-2.2-12.58-6.58-16.82-4.4-4.26-10.19-6.37-17.38-6.37-7.24,0-13.05,2.11-17.46,6.37-4.4,4.23-6.62,9.85-6.62,16.82s2.21,12.53,6.62,16.8c4.41,4.26,10.22,6.4,17.46,6.4h0ZM786.6,1382.76h33.98c7.38,0,13.36,2.15,17.97,6.4,4.61,4.27,6.92,9.44,6.92,15.5,0,8.38-4.35,14.59-13.07,18.63,3.85,1.7,7.49,6.37,10.91,13.99,3.44,7.62,6.75,14.81,9.95,21.56h-20.84c-1.23-2.52-3.39-7.29-6.46-14.33-3.06-7.03-5.71-11.57-7.9-13.56-2.2-1.99-4.56-2.99-7.05-2.99h-5.44v30.88h-18.96v-76.09h0ZM805.56,1396.7v17.33h10.02c3.19,0,5.72-.76,7.58-2.27,1.88-1.51,2.81-3.65,2.81-6.45,0-5.73-3.61-8.61-10.84-8.61h-9.57ZM929.81,1382.76v13.94h-27.54v62.15h-18.96v-62.15h-27.54v-13.94h74.04ZM1003.42,1444.9v13.94h-56.07v-76.09h55.31v13.94h-36.37v15.97h34.7v13.94h-34.7v18.29h37.13ZM1075.31,1387.67v14.87c-10.09-4.53-18.13-6.82-24.11-6.82-3.42,0-6.13.58-8.14,1.74-2.03,1.13-3.03,2.65-3.03,4.53.01,1.46.73,2.84,2.17,4.14,1.46,1.3,5,2.99,10.62,5.08,5.64,2.06,10.13,3.98,13.51,5.76,3.39,1.78,6.29,4.3,8.74,7.51,2.46,3.23,3.68,7.33,3.68,12.26,0,7.02-2.68,12.64-8.03,16.83-5.35,4.16-12.42,6.26-21.15,6.26-9.43,0-18.59-2.46-27.46-7.36v-16.4c5.1,3.42,9.59,5.91,13.51,7.47,3.93,1.56,8.07,2.35,12.48,2.35,7.44,0,11.15-2.35,11.15-7.03,0-1.61-.74-3.1-2.23-4.52-1.48-1.43-5.07-3.14-10.76-5.19-5.66-2.03-10.17-3.92-13.49-5.65-3.33-1.75-6.19-4.24-8.6-7.47-2.41-3.24-3.63-7.36-3.63-12.41,0-6.52,2.64-11.81,7.9-15.82,5.26-4.02,12.3-6.03,21.14-6.03,8.13,0,16.71,1.97,25.75,5.89h0ZM1179.75,1382.76v13.94h-27.56v62.15h-18.95v-62.15h-27.54v-13.94h74.05ZM1253.35,1444.9v13.94h-56.08v-76.09h55.32v13.94h-36.38v15.97h34.7v13.94h-34.7v18.29h37.14ZM1273.61,1382.76h33.97c7.38,0,13.36,2.15,17.97,6.4,4.62,4.27,6.92,9.44,6.92,15.5,0,8.38-4.35,14.59-13.07,18.63,3.85,1.7,7.49,6.37,10.91,13.99,3.45,7.62,6.75,14.81,9.95,21.56h-20.86c-1.23-2.52-3.38-7.29-6.45-14.33-3.07-7.03-5.71-11.57-7.9-13.56-2.18-1.99-4.56-2.99-7.04-2.99h-5.44v30.88h-18.96v-76.09h0ZM1292.57,1396.7v17.33h10.02c3.2,0,5.72-.76,7.57-2.27,1.88-1.51,2.81-3.65,2.81-6.45,0-5.73-3.61-8.61-10.84-8.61h-9.57ZM1354.85,1382.76h33.97c7.38,0,13.37,2.15,17.97,6.4,4.61,4.27,6.92,9.44,6.92,15.5,0,8.38-4.35,14.59-13.07,18.63,3.86,1.7,7.49,6.37,10.91,13.99,3.45,7.62,6.75,14.81,9.95,21.56h-20.85c-1.22-2.52-3.39-7.29-6.45-14.33-3.06-7.03-5.71-11.57-7.9-13.56-2.2-1.99-4.56-2.99-7.04-2.99h-5.45v30.88h-18.96v-76.09h0ZM1373.81,1396.7v17.33h10.02c3.2,0,5.73-.76,7.58-2.27,1.88-1.51,2.81-3.65,2.81-6.45,0-5.73-3.61-8.61-10.84-8.61h-9.57ZM1492.4,1444.9v13.94h-56.07v-76.09h55.31v13.94h-36.37v15.97h34.71v13.94h-34.71v18.29h37.14ZM1564.28,1387.67v14.87c-10.09-4.53-18.13-6.82-24.12-6.82-3.42,0-6.14.58-8.14,1.74-2.02,1.13-3.03,2.65-3.03,4.53,0,1.46.73,2.84,2.18,4.14,1.45,1.3,5,2.99,10.61,5.08,5.63,2.06,10.13,3.98,13.51,5.76,3.39,1.78,6.29,4.3,8.74,7.51,2.46,3.23,3.68,7.33,3.68,12.26,0,7.02-2.68,12.64-8.03,16.83-5.35,4.16-12.41,6.26-21.15,6.26-9.43,0-18.59-2.46-27.45-7.36v-16.4c5.1,3.42,9.59,5.91,13.51,7.47,3.92,1.56,8.07,2.35,12.47,2.35,7.44,0,11.15-2.35,11.15-7.03,0-1.61-.74-3.1-2.23-4.52-1.48-1.43-5.07-3.14-10.76-5.19-5.66-2.03-10.17-3.92-13.49-5.65-3.33-1.75-6.19-4.24-8.6-7.47-2.41-3.24-3.63-7.36-3.63-12.41,0-6.52,2.64-11.81,7.9-15.82,5.27-4.02,12.31-6.03,21.14-6.03,8.13,0,16.71,1.97,25.75,5.89h0ZM1654.44,1382.76v13.94h-27.55v62.15h-18.96v-62.15h-27.55v-13.94h74.05ZM1671.75,1382.76h33.98c7.38,0,13.36,2.15,17.97,6.4,4.61,4.27,6.91,9.44,6.91,15.5,0,8.38-4.35,14.59-13.06,18.63,3.85,1.7,7.48,6.37,10.91,13.99,3.44,7.62,6.75,14.81,9.94,21.56h-20.84c-1.24-2.52-3.39-7.29-6.46-14.33-3.06-7.03-5.71-11.57-7.9-13.56-2.19-1.99-4.56-2.99-7.04-2.99h-5.45v30.88h-18.95v-76.09h0ZM1690.7,1396.7v17.33h10.02c3.2,0,5.72-.76,7.58-2.27,1.88-1.51,2.81-3.65,2.81-6.45,0-5.73-3.6-8.61-10.84-8.61h-9.57ZM1809.29,1444.9v13.94h-56.08v-76.09h55.31v13.94h-36.38v15.97h34.7v13.94h-34.7v18.29h37.14ZM1881.17,1387.67v14.87c-10.09-4.53-18.13-6.82-24.11-6.82-3.42,0-6.13.58-8.14,1.74-2.03,1.13-3.03,2.65-3.03,4.53,0,1.46.72,2.84,2.17,4.14,1.45,1.3,5,2.99,10.62,5.08,5.63,2.06,10.13,3.98,13.52,5.76,3.38,1.78,6.28,4.3,8.73,7.51,2.46,3.23,3.68,7.33,3.68,12.26,0,7.02-2.68,12.64-8.03,16.83-5.35,4.16-12.41,6.26-21.15,6.26-9.44,0-18.59-2.46-27.45-7.36v-16.4c5.1,3.42,9.59,5.91,13.52,7.47,3.92,1.56,8.06,2.35,12.47,2.35,7.43,0,11.15-2.35,11.15-7.03,0-1.61-.74-3.1-2.23-4.52-1.49-1.43-5.08-3.14-10.76-5.19-5.66-2.03-10.16-3.92-13.49-5.65-3.32-1.75-6.19-4.24-8.61-7.47-2.42-3.24-3.62-7.36-3.62-12.41,0-6.52,2.64-11.81,7.9-15.82,5.27-4.02,12.3-6.03,21.13-6.03,8.12,0,16.71,1.97,25.75,5.89Z"/>
  <path class="st1" d="M1089.85,1099.58l22.63,56.36h85.99v-155.11l144.42,155.11h74.89v-250.42s22.95,39.76,22.95,39.76h73.14v210.66h83.94v-210.66h101.99v210.66h83.94v-210.66h102.04l-39.2-67.89h-181.54l-16.23,28.13-16.24-28.13h-298.73v154.31l-144.01-154.31h-74.47v89.73l-39.49-89.73h-92.98l-165.07,278.55h91.33l31.43-56.36h149.27ZM969.33,1051.04l60.46-101.62,40.72,101.62h-101.18Z"/>
  <path class="st2" d="M486.42,1136.26c.5-1.13,1.08-2.23,1.74-3.32l.09-.14,215.25-289.45-357.41,42.97h-.09c-1.34.1-2.64.06-3.9-.13l144.32,250.06Z"/>
  <path class="st3" d="M490.03,588.17l-161.08,281.98c2.11,5.11,6.12,10.43,11.35,10.07l297.68-35.8-147.95-256.25Z"/>
  <path class="st3" d="M669.94,899.8l147.89,256.14h-323.87c-3.04-5.26-7.33-8.84-3.21-15v-.09s179.19-241.05,179.19-241.05Z"/>
  <polygon class="st1" points="326.87 873.3 162.22 1155.95 490.03 1155.95 326.87 873.3"/>
</svg>