<?xml version="1.0" encoding="UTF-8"?>
<svg id="Camada_1" xmlns="http://www.w3.org/2000/svg" version="1.1" viewBox="0 0 2048 2048">
  <!-- Generator: Adobe Illustrator 30.3.0, SVG Export Plug-In . SVG Version: 2.1.3 Build 182)  -->
  <defs>
    <style>
      .st0 {
        fill: #002b25;
      }

      .st1 {
        fill: #59af31;
      }
    </style>
  </defs>
  <path class="st0" d="M579.35,959.08c-4.21-2.05-7.71-5.33-10.02-9.41h-1.81v10.84h-15.76v-105.29h17.4v27.34c0,3.87-.06,7.9-.17,12.09h1.85c2.5-3.92,5.98-7.1,10.11-9.24,4.48-2.33,9.46-3.51,14.5-3.45,6.62,0,12.45,1.58,17.49,4.75,5.05,3.16,8.97,7.75,11.75,13.77,2.81,6.01,4.21,13.25,4.2,21.72,0,8.47-1.52,15.56-4.58,21.62-3.05,6.08-7.23,10.69-12.52,13.83-5.41,3.19-11.6,4.83-17.88,4.75-5.41,0-10.27-1.1-14.6-3.28l.04-.03ZM605.55,941.3c3.57-4.29,5.36-10.65,5.36-19.09s-1.71-14.32-5.14-18.8c-3.42-4.47-8.44-6.72-15.06-6.73-6.02,0-11.11,1.88-15.28,5.65-4.18,3.78-6.26,8.82-6.26,15.13v10.4c0,6.01,1.86,10.82,5.57,14.43,3.71,3.61,8.73,5.43,15.06,5.43,6.91,0,12.16-2.14,15.75-6.43M701.04,948.32v-1.69c2.25-1.72,3.8-4.17,4.66-7.33.86-3.16,1.29-6.63,1.3-10.41v-19.56c0-8.67-3.03-15.4-9.1-20.18-6.07-4.79-14.95-7.18-26.64-7.17-9.68,0-18.65,1.68-26.9,5.05v14.07c4.17-1.68,8.49-2.94,12.91-3.76,4.64-.86,9.1-1.29,13.38-1.3,6.82,0,11.74,1.27,14.77,3.81,3,2.55,4.49,6.16,4.49,10.84v3.06c-4.8-.77-9.65-1.17-14.51-1.2-12.12,0-21.24,2.18-27.36,6.56-6.1,4.39-9.16,10.65-9.17,18.8,0,7.53,2.4,13.49,7.17,17.88,4.8,4.38,11.26,6.57,19.4,6.56,5.7,0,10.57-1.22,14.59-3.67,4.03-2.45,7.31-6.06,9.85-10.84h1.21v2.46c0,4.29,1.22,7.37,3.67,9.25,2.45,1.87,5.96,2.81,10.55,2.81,3.55,0,6.81-.66,9.79-1.98v-13.44c-4.62,1.04-9.34,1.5-14.07,1.37h.02ZM684,943.35c-3.91,3.51-8.78,5.27-14.6,5.27-4.28,0-7.53-1.05-9.76-3.15-2.24-2.11-3.47-5.09-3.38-8.16,0-4.08,1.69-7.23,5.06-9.46,3.35-2.24,8.74-3.37,16.18-3.38,3.98,0,8.12.42,12.39,1.16v3.87c0,5.71-1.96,10.32-5.88,13.82l-.03.03ZM726.59,883.81h15.58v12.53h1.82c2.84-4.79,6.46-8.39,10.84-10.79,4.39-2.4,9.38-3.6,14.98-3.59,9.07,0,15.95,2.42,20.63,7.26,4.69,4.83,7.04,11.58,7.04,20.25v51.05h-17.44v-49.08c0-9.88-5.19-14.82-15.58-14.82-6.01,0-10.92,1.79-14.74,5.36-3.83,3.56-5.75,8.29-5.74,14.21v44.31h-17.4v-76.73.03ZM821.93,952.44c-7.33-6.62-11-16.51-11-29.66,0-8.87,1.88-16.36,5.65-22.47,3.6-5.98,8.89-10.76,15.2-13.73,6.36-3.06,13.52-4.59,21.47-4.59s14.81,1.5,20.94,4.45v14.21c-6.31-2.79-13.14-4.2-20.03-4.15-7.54.01-13.62,2.1-18.26,6.27-4.64,4.18-6.96,10.65-6.96,19.41s2.13,15.61,6.35,19.64c4.22,4.02,10.31,6.03,18.26,6.03s15.37-1.37,22.02-4.13v14.21c-6.62,2.95-14.27,4.43-22.93,4.44-13.13,0-23.4-3.31-30.7-9.93M894.67,952.21c-6.93-6.78-10.4-16.79-10.4-30.02,0-8.67,1.65-16.01,4.96-22.02,3.31-6.01,7.84-10.55,13.61-13.61,5.75-3.06,12.29-4.58,19.64-4.58,11.73,0,20.99,3.4,27.89,10.16,6.88,6.78,10.32,16.79,10.33,30.02,0,8.67-1.66,16.03-4.97,22.08-3.07,5.8-7.81,10.54-13.61,13.61-5.76,3-12.31,4.5-19.64,4.49-11.61,0-20.88-3.39-27.8-10.16v.03ZM937.44,941.81c3.56-4.02,5.34-10.57,5.35-19.65,0-9.07-1.81-15.37-5.43-19.48-3.62-4.11-8.59-6.17-14.89-6.18-6.33,0-11.39,2.01-14.9,6.04-3.51,4.02-5.27,10.57-5.27,19.65,0,9.07,1.79,15.37,5.36,19.47,3.57,4.13,8.51,6.2,14.82,6.18,6.32,0,11.39-2,14.98-6.03M1013.93,957.65c-4.94-3.16-8.84-7.74-11.71-13.74-2.84-6.01-4.26-13.24-4.27-21.71,0-8.47,1.49-15.57,4.5-21.63,3-6.08,7.12-10.68,12.38-13.82,5.38-3.2,11.54-4.84,17.79-4.75,5.18,0,9.81.99,13.9,2.97,4.08,1.99,7.23,4.77,9.46,8.33h1.82c-.11-4.09-.17-8-.17-11.75v-26.26h17.44v105.28h-15.76v-12.08h-1.81c-2.65,4.39-6.32,7.8-11.01,10.23-4.81,2.5-10.16,3.76-15.58,3.67-6.43,0-12.09-1.57-17.06-4.75h.06ZM1051.59,942.45c4.08-3.51,6.11-8.27,6.1-14.29v-11.46c0-6.01-1.86-10.85-5.58-14.51-3.73-3.66-8.75-5.49-15.06-5.49-6.84,0-12.06,2.16-15.66,6.48-3.62,4.34-5.43,10.69-5.43,19.04s1.68,14.43,5.04,18.88c3.38,4.43,8.44,6.65,15.28,6.65,6.12,0,11.21-1.76,15.28-5.27l.03-.02ZM1151.69,948.32v-1.69c2.25-1.72,3.8-4.17,4.66-7.33.89-3.4,1.32-6.9,1.3-10.41v-19.56c0-8.67-3.03-15.4-9.1-20.18-6.08-4.79-14.96-7.18-26.66-7.17-9.21-.08-18.35,1.63-26.9,5.05v14.07c4.17-1.68,8.49-2.94,12.91-3.76,4.41-.84,8.89-1.27,13.39-1.3,6.82,0,11.74,1.27,14.76,3.81,3,2.55,4.5,6.16,4.49,10.84v3.06c-4.8-.77-9.65-1.17-14.5-1.2-12.12,0-21.24,2.18-27.37,6.56-6.1,4.39-9.16,10.65-9.16,18.8,0,7.53,2.4,13.49,7.17,17.88,4.8,4.38,11.26,6.57,19.4,6.56,5.7,0,10.56-1.22,14.59-3.67,4.03-2.45,7.31-6.06,9.85-10.84h1.21v2.46c0,4.29,1.22,7.37,3.67,9.25,2.45,1.87,5.96,2.81,10.54,2.81,3.55,0,6.81-.66,9.79-1.98v-13.44c-4.62,1.04-9.34,1.5-14.07,1.37h.03ZM1134.64,943.35c-3.94,3.51-8.8,5.27-14.6,5.27-4.28,0-7.53-1.05-9.77-3.15-2.26-2.1-3.49-5.08-3.36-8.16,0-4.08,1.68-7.23,5.05-9.46,3.35-2.24,8.75-3.37,16.19-3.38,3.98,0,8.11.42,12.38,1.16v3.87c0,5.71-1.96,10.32-5.88,13.82l-.02.03ZM674.81,1162.22v-3.64c4.87-3.76,8.24-9.06,10.13-15.93,1.95-7.36,2.9-14.96,2.82-22.57v-42.46c-.01-18.79-6.59-33.38-19.73-43.79-13.17-10.41-32.46-15.6-57.88-15.59-21.02,0-40.48,3.65-58.38,10.95v30.52c9.05-3.65,18.44-6.38,28.04-8.13,10.06-1.88,19.73-2.82,29.02-2.82,14.82,0,25.48,2.76,32,8.3,6.52,5.54,9.78,13.4,9.79,23.56v6.62c-10.41-1.71-20.94-2.6-31.5-2.65-26.31,0-46.11,4.75-59.38,14.26-13.26,9.52-19.89,23.13-19.88,40.82,0,16.35,5.19,29.29,15.58,38.82,10.4,9.51,24.44,14.26,42.13,14.26,12.38,0,22.93-2.66,31.67-7.97,8.75-5.3,15.87-13.16,21.38-23.56h2.65v5.3c0,9.3,2.66,15.98,7.97,20.06,5.3,4.08,12.93,6.12,22.89,6.12,7.74,0,14.82-1.43,21.25-4.29v-29.2c-9.73,2.21-19.9,3.2-30.52,2.99l-.05.02ZM637.82,1151.43c-8.52,7.64-19.07,11.46-31.68,11.46-9.28,0-16.36-2.26-21.24-6.79-4.85-4.52-7.28-10.43-7.28-17.73,0-8.86,3.65-15.72,10.95-20.57,7.3-4.87,19.03-7.3,35.18-7.31,8.61,0,17.6.89,26.87,2.54v8.42c0,12.4-4.25,22.4-12.76,30.02l-.03-.03ZM973.85,1033.99c-9.63-10.5-23.73-15.75-42.3-15.75-12.38,0-23.38,2.71-32.98,8.13-9.62,5.43-17.2,13.45-22.73,24.06h-3.69c-3.15-9.1-8.31-16.44-15.54-21.91-9.06-6.85-20.9-10.28-35.51-10.28-11.51,0-21.85,2.59-31.01,7.81-9.18,5.19-16.53,12.99-22.05,23.4h-3.97v-27.21h-33.83v166.56h37.83v-96.21c0-12.4,3.92-22.57,11.78-30.52,7.83-7.97,17.73-11.95,29.68-11.95,20.57,0,30.85,10.73,30.84,32.17v106.5h37.82v-96.21c0-12.83,3.87-23.12,11.62-30.85,7.73-7.75,17.68-11.62,29.85-11.61,20.55,0,30.83,10.73,30.83,32.17v106.5h37.83v-110.81c0-18.78-4.81-33.43-14.43-43.95l-.05-.03ZM1152.81,1162.22v-3.64c4.85-3.76,8.23-9.06,10.13-15.93,1.95-7.36,2.9-14.96,2.82-22.57v-42.46c0-18.79-6.58-33.38-19.73-43.79-13.17-10.41-32.46-15.6-57.88-15.59-21.02,0-40.48,3.65-58.37,10.95v30.52c9.04-3.65,18.43-6.37,28.03-8.13,10.06-1.88,19.74-2.82,29.02-2.82,14.82,0,25.49,2.76,32,8.3,6.52,5.54,9.79,13.4,9.8,23.56v6.62c-10.42-1.71-20.95-2.6-31.51-2.65-26.31,0-46.1,4.75-59.37,14.26-13.26,9.52-19.89,23.13-19.89,40.82,0,16.35,5.2,29.29,15.59,38.82,10.4,9.51,24.44,14.26,42.12,14.26,12.38,0,22.94-2.66,31.68-7.97,8.74-5.3,15.87-13.16,21.38-23.56h2.65v5.3c0,9.3,2.66,15.98,7.97,20.06,5.3,4.08,12.93,6.12,22.89,6.12,7.3.08,14.53-1.38,21.22-4.29v-29.2c-9.73,2.21-19.9,3.2-30.52,2.99l-.03.02ZM1115.85,1151.43c-8.52,7.64-19.07,11.46-31.68,11.46-9.28,0-16.35-2.26-21.2-6.79-4.86-4.52-7.29-10.43-7.29-17.73,0-8.86,3.65-15.72,10.95-20.57,7.3-4.87,19.02-7.3,35.17-7.31,8.62,0,17.6.89,26.88,2.54v8.42c0,12.4-4.26,22.4-12.77,30.02l-.05-.03ZM1245.15,1158.55l99.75-105.48v-30.19h-141.3v30.19h95.74l-98.74,105.48v30.22h144.65v-30.22h-100.09ZM1387.32,1170.67c-15.03-14.72-22.56-36.45-22.56-65.21,0-18.78,3.59-34.7,10.78-47.76,7.17-13.04,17.01-22.89,29.52-29.52,12.49-6.63,26.69-9.95,42.61-9.96,25.44,0,45.61,7.37,60.54,22.08,14.92,14.71,22.39,36.44,22.39,65.2,0,18.79-3.59,34.8-10.78,47.93-7.19,13.16-17.04,23.01-29.52,29.52-12.49,6.52-26.7,9.78-42.63,9.79-25.21.01-45.33-7.34-60.36-22.07M1480.2,1148.11c7.75-8.75,11.62-22.96,11.61-42.63,0-19.67-3.91-33.33-11.78-42.3-7.85-8.97-18.62-13.45-32.33-13.44-13.71,0-24.71,4.36-32.33,13.1-7.64,8.75-11.45,22.97-11.44,42.64,0,19.67,3.86,33.33,11.61,42.3,7.74,8.97,18.46,13.45,32.16,13.44,13.71,0,24.78-4.36,32.5-13.11M1561.49,1022.21h33.85v27.21h3.97c6.19-10.39,14.04-18.2,23.56-23.41,9.49-5.2,20.33-7.8,32.5-7.81,19.67.01,34.59,5.27,44.78,15.76,10.18,10.51,15.26,25.16,15.25,43.95v110.81h-37.83v-106.5c0-21.45-11.28-32.17-33.85-32.17-13.05,0-23.72,3.87-32,11.61-8.3,7.74-12.44,18.03-12.44,30.85v96.21h-37.83v-166.56l.03.03ZM1758.07,989.46c3.81,3.2,9.03,4.8,15.64,4.8,6.62,0,11.48-1.59,15.18-4.8,3.72-3.21,5.58-8.22,5.57-15.03,0-13.43-7.03-20.15-21.08-20.15-6.62,0-11.79,1.65-15.51,4.96-3.72,3.31-5.58,8.38-5.57,15.19,0,6.82,1.91,11.83,5.74,15.03h.02ZM1780.37,1162v-3.48c3.98-3.13,6.91-7.59,8.8-13.38,2.32-7.18,3.48-15.31,3.48-24.39v-98.55h-37.83v136.39c0,12.18,3.21,20.92,9.63,26.21,6.4,5.31,15.47,7.97,27.2,7.97,9.51,0,18.13-1.55,25.87-4.64v-29.19c-12.21,2.54-24.69,3.59-37.16,3.12v-.07ZM1969.14,1162.22v-3.64c4.85-3.76,8.23-9.06,10.13-15.93,1.95-7.36,2.9-14.96,2.82-22.57v-42.46c-.01-18.79-6.59-33.38-19.73-43.79-13.18-10.41-32.47-15.6-57.88-15.59-21.02,0-40.48,3.65-58.38,10.95v30.52c9.05-3.65,18.44-6.38,28.04-8.13,9.57-1.83,19.28-2.77,29.02-2.82,14.82,0,25.48,2.76,32,8.3,6.52,5.54,9.78,13.4,9.79,23.56v6.62c-10.41-1.71-20.94-2.6-31.5-2.65-26.32,0-46.11,4.75-59.38,14.26-13.26,9.52-19.89,23.13-19.88,40.82,0,16.35,5.19,29.29,15.58,38.82,10.4,9.51,24.44,14.26,42.13,14.26,12.38,0,22.93-2.66,31.67-7.97,8.73-5.3,15.87-13.16,21.41-23.56h2.65v5.3c0,9.3,2.66,15.98,7.97,20.06,5.3,4.08,12.93,6.12,22.9,6.12,7.74,0,14.81-1.43,21.21-4.29v-29.2c-9.73,2.21-19.9,3.2-30.52,2.99l-.05.02ZM1932.15,1151.43c-8.51,7.64-19.07,11.46-31.68,11.46-9.29,0-16.36-2.26-21.21-6.79-4.87-4.52-7.3-10.43-7.31-17.73,0-8.86,3.65-15.72,10.95-20.57,7.31-4.85,19.01-7.31,35.18-7.31,8.61,0,17.6.89,26.87,2.54v8.42c0,12.4-4.25,22.4-12.77,30.02l-.02-.03ZM1447.87,981.71l-30.7,23.56-12.42-14.89,38.15-36.1h9.57l38.15,36.1-12.42,14.89-30.35-23.56ZM330.92,855.26c-26.79,0-51.92,12.98-67.44,34.81l-215.18,302.68h129.32l236.17-332.19-88.39,332.18h98.65v-337.48h-93.12Z"/>
  <path class="st1" d="M223.76,1127.84l-46.13,64.89c117.93-115.64,258.99-36.7,288.28-252.28-70.57,65.31-136.3,39.41-242.15,187.39"/>
</svg>