<?xml version="1.0" encoding="UTF-8"?>
<svg id="Camada_1" xmlns="http://www.w3.org/2000/svg" xmlns:xlink="http://www.w3.org/1999/xlink" version="1.1" viewBox="0 0 2048 2048">
  <!-- Generator: Adobe Illustrator 30.3.0, SVG Export Plug-In . SVG Version: 2.1.3 Build 182)  -->
  <defs>
    <style>
      .st0 {
        fill: #835609;
      }

      .st1 {
        fill: url(#Gradiente_sem_nome_13);
      }

      .st2 {
        fill: #fbd603;
      }

      .st3 {
        fill: #c48708;
      }

      .st4 {
        fill: #00b3fd;
      }

      .st5 {
        fill: #fdfdf5;
      }

      .st6 {
        fill: #fdd108;
      }

      .st7 {
        fill: #fefefc;
      }

      .st8 {
        fill: #f2d711;
      }

      .st9 {
        fill: #fa1625;
      }

      .st10 {
        fill: #05125f;
      }

      .st11 {
        fill: #000a4f;
      }

      .st12 {
        fill: #00b1ec;
      }

      .st13 {
        fill: #e30e0f;
      }
    </style>
    <linearGradient id="Gradiente_sem_nome_13" data-name="Gradiente sem nome 13" x1="979.8" y1="927.81" x2="1012.36" y2="900.7" gradientTransform="translate(0 2048) scale(1 -1)" gradientUnits="userSpaceOnUse">
      <stop offset="0" stop-color="#00afda"/>
      <stop offset="1" stop-color="#00a6f6"/>
    </linearGradient>
  </defs>
  <path class="st6" d="M492.88,287.62l601.55-.17,312.96.19c48.81,0,100.26,1.03,148.77,0-1.54,25.26-.37,58.33-.55,84.64l-.27,551.37.16,188.11c.16,83.96,3.38,159.29-18.59,241.26-46.46,173.27-164.87,309.44-332.2,374.37l-6.79,2.52c-93.03,33.65-193.81,39.73-290.22,17.49-113.33-26.56-214.86-89.44-289.14-179.06-8.92-10.89-22.7-27.98-30.07-39.8-5.41-7.45-9.48-14.02-14.28-21.81-.19-.18-.38-.35-.57-.53-39.11-65.73-64.94-135.66-75.99-211.43-7.3-50.09-5.95-100-5.23-150.53-.65-40.19.12-81.49.16-121.71l-.07-206.46.37-528.45Z"/>
  <path class="st2" d="M492.88,287.62l601.55-.17,312.96.19c48.81,0,100.26,1.03,148.77,0-1.54,25.26-.37,58.33-.55,84.64-3.31-11.05-.86-69.7-5.62-74.11-30.33-8.47-77.32-.53-109.56-3.62-5.62-.54-18.15,1.17-25.57.96-62.11-1.78-123.93-1.29-186.02-.68-13.52.05-27.03-.02-40.55-.21-5.99-.06-18.28-.51-23.7.37l-.17,1.16,3.39,2.87-.44,1.15-1.64.03c-1.45-1.7-2.55-3.01-3.86-4.82-3.6-.13-3.49-.3-6.82.45-5.84,1.31-16.58-1.2-22.14-.08,1.9.69,3.79,1.37,5.7,2.05l.38,1.23c-2.48,2.14-3.36.73-5.75,1.29-3.57.84,3.06,1.58-3.09,2.65l-.8-.94,1.28-3.15c-1.84-4.04-7.76-5.36-11.85-5.22-33.08,1.14-65.87-.76-98.9-.48-5.6.05-9.54,1.75-14.85,2.19-13.21,1.08-34.66-7.82-43.99,3.25-2.83.77-2.62.73-5.4-.24-1.35-1.98-2.84-5.03-5.07-4.82-10.4.98-68.09-.56-74.05,2.04,1.82,2.63,1.06,1.5,4.7,3.14-2.48.76-2.29.77-4.76-.01-.8-1.78-1.23-3.88-2.49-4-6.37-.62-15.53.41-22.04.37l-151.79.18c-15.45.06-30.74-.84-46.76-.69l-.57,3.41-1.16-.61-.56-2.72c-14.78-3.3-52.69-.41-70.28-2-19.78-1.78-67.18,4.78-85.41-1.93-.15,20.74,3.37,42.48,4.39,63.34.08,1.7,1.84,4.98,2.75,6.46-1.54,5.74-2.13-.58-2.8,3.15-1.31,7.27,2.14,21.7-.68,28.08l-.66-2.66c-1.36,24.53,2.64,48.51-1.05,73.15-.92,6.14.85,28.88,1.5,35.43l.07-.4c.49,6.32-.74,22.04-.95,29.46-.39,16.54-.42,33.08-.11,49.62.08,6.1.05,18.17,1.4,23.75l.26-3.69c.36,3.99,1.71,15.76,1.25,19.02l-1.69.25c-.55-4.3.35-8.51-1.09-11.48-.07.6-.11,29.98-.21,29.52,3.1,1.77,2.25.32,5.36,1.61l-4.67.48c-1.11,1.66-2.4,3.92-2.35,5.96.65,23.44,2.13,45.21,1.24,68.79l2.01-1.21.73.22c-3.49,17.91-2.66,35.54-2.21,53.71.15,6.02-.6,26.07.78,30.53l2.17,1.32c.58,2.67.95,1.83.07,3.59l-2.19-2.28c-3.02,5.35.91,118.69.1,139.63-2.14,55.13-5.86,119.69-5.43,175.77.06,8.02.96,25.89-.97,32.37-.65-40.19.12-81.49.16-121.71l-.07-206.46.37-528.45Z"/>
  <path class="st2" d="M574.22,1506.73c7.17,2.31,12.53-3.88,12.52,8.67,0,4.97,1.97,9.22,1.76,13.14-5.41-7.45-9.48-14.02-14.28-21.81Z"/>
  <path class="st2" d="M1197.92,1729.91c-3.87-2.7-7.63-.84-11.42-6.94l.58-1.35c3.48-.34,11.5.69,14.79,1.88l.13,2.78,2.71,1.11-6.79,2.52Z"/>
  <path class="st4" d="M530.09,656.42c17.59-.91,37.87-.48,55.63-.51,29.44-.19,58.88-.15,88.31.13l159.99.05,520.6-.07c36.65-.23,73.31-.28,109.96-.14,15.81.03,37.72-.7,52.84.02,1.6,36.25.54,79.56.52,116.12l-.15,204.29-.09,177.3c-.06,33.52,1.35,71.55-2.05,104.46-11.44,112.16-58.3,217.76-133.79,301.49-250.85,273.34-673.52,185.51-813.4-150.95-4.53-10.91-13.9-33.11-15.9-44.22-10.16-1.57-4.75-2.66-12.13-10.42l-.99,3.5-.63-.35c-1.1-5.5,2.49-7.78,2.04-10.03-2.15-10.72-1.09-19.44-1.03-29.99.03-2.31-1.41-9.48-1.87-12.14-2.29-8.42-3.95-23.84-4.89-32.77-5.21-49.21-3.57-101.94-3.15-151.61l.13-120.34.06-343.82Z"/>
  <path class="st12" d="M530.09,656.42c17.59-.91,37.87-.48,55.63-.51,29.44-.19,58.88-.15,88.31.13l159.99.05,520.6-.07c-4.41,2.49-93.51,2.84-106.13,3.14-21.62.5-49.92.48-72.36,3.08-20.65,2.82-28.54-1.01-47.7-1.34l-145.53-1.87c-75.89-1.31-148.2-.52-224.06,1.03l-114.38,1.23c-14.51.27-96.42-1.81-104.94,1.15l.16,2.19c2.25.85,2.19.88,4.58,1.04l-5.96.61c-1.05,5.17,1.75,13.52,1.65,19.05-.08,4.28-3.6,7.97-3.61,12.3,4.28,1.3,1.18-2.25,4.55.25l-.43.98-2.63.49c-2.52,6.5,3.28,6.44-2.66,15.25,1.54,3.02,1.91,2.28,1.6,4.62-2.19,16.56.62,35.08-.23,52.14-.27,5.39,5.36,9.54,3.7,15.21l-1.23.82-1.35-7.2-.45.03c-.17,6.39-.13,13.34-1.39,19.55-.7,3.44.49,3.72.36,6.34-.74,15.17.34,30.45,1.27,45.59.42,6.78,3.26,9.73,2.56,16.55-1.2-2.34-.92-2.64-2.98-4.21-.39,21.42.34,43.16-.54,64.6-.08,1.99,1.63,5.35,2.57,7.17-.05,2.56-.47,2.88-1.85,5.07-5.17,8.21,1.99,18.9-.78,28.28l3,.92c1.38,3.1.79,2.57-.07,6.69l-1.07-.78.5-3.79-2.42-1.33c.35,7.59,2.68,11.78-.57,17.84.28,6.95,4.59,13.81,3.82,19-1.62-1.51-1.92-2.31-3.52-3.77,1.06,13.29,1.18,32.09.74,45.31l2.68,1.89c-2.05.06-1.65.06-3.65-.29-.23,11.12.15,23.87-.04,35.21-.12,7.48,3.14,29.07,2.65,34.97l-.98-2.94-.55-.23c-1.61,5.63,1.84,30.52-.84,38.8-.57,1.77.59,17.52.79,20.54-1.92,1.86-.92.98-3,2.64,0,12.52,3.36,15.09,1.54,29.49,2.15,1.25,1.36.95,3.72,1.41l-.5.93-1.95.48c-1.23,16.99-.32,35.46.36,52.53.57,14.07,2.34,25.79.83,40.27-2.29-8.42-3.95-23.84-4.89-32.77-5.21-49.21-3.57-101.94-3.15-151.61l.13-120.34.06-343.82Z"/>
  <path class="st2" d="M539.81,1317.1c4.15,16.01,7.67,31.52,12.75,47.29-10.16-1.57-4.75-2.66-12.13-10.42l-.99,3.5-.63-.35c-1.1-5.5,2.49-7.78,2.04-10.03-2.15-10.72-1.09-19.44-1.03-29.99Z"/>
  <path class="st6" d="M993.8,1050.71c-.02-9.14-4-30.77-1.65-36.84,8.86-3.19,73.82-1.84,86.65-1.5-.19,10.16-4.17,30.5-.76,36.28,5.64,4.63,23.13,5.5,31.14,6.46,5.11-13.05,7.72-24.34,11.98-37.54,16.52,3.14,36.55,5.89,52.3,10.04-5.03,12.18-13.87,29.05-19.77,41.16l-4.86,12.59c-3.66,9.18-10.78,23.89-10.02,33.9.1,1.25,2.78,2.01,3.93,2.31,6.55.36,32.21,2.16,36.53,5.57.54,4.4-1.06,8.88-2.2,13.3.34,9.1.9,23.58.47,32.56,1.79-1.52,2.21-2.02,3.74-3.82,7.32,7.5,7.18,4.67,16.71,3.73,1.45-1.09,6.87-7.97,8.37-9.8l5.27-6.48c3.36-3.37,2.36-3.4,6.26-4.25,6.73,1.93,11.5,7,17.07,11.64,8.09,5.44,12.53,9.1,19.96,15.51-4.84,6.69-9.89,12.75-15.13,19.11-28.02,34.08-39.1,77.88-32.14,121.19,4.75,28.76,17.12,55.71,35.82,78.07,18.24,21.44,42.91,33.67,19.24,63.62-35.58,45.13-101.22,65.68-156.08,74.06-72.23,11.02-148.32,6.77-216.96-19.72-31.73-12.25-81.7-35.35-90.42-73.33-3.63-15.8,20.58-32.64,28.55-44.22,44.33-56.85,52.61-130.27,10.28-190.81-4.46-6.37-21.7-22.61-21.56-28.89l1.42-1.48c5.02-3.68,10.02-7.39,15-11.12,7.3-5.59,13.74-10.29,21.34-15.45,6.3,9.48,28.78,36.64,37.31,44.08,4.47-1.17,6.83-1.32,9.92-4.54,3.55-7.16-7.57-52.73-9.69-64.35,10.05-2.61,35.76-3.14,40.14-7.61,2.13-9.66-14.13-45.07-18.79-55.27-3.23-7.06-12.26-22.34-13.34-29.38,5.63-4.02,40.58-9.62,50.32-11.69,2.96,12.16,6.21,26.47,10.41,38.07,11.2-.75,22.17-3.11,33.22-5.16Z"/>
  <path class="st12" d="M1177.07,1136.44c.34,9.1.9,23.58.47,32.56,1.79-1.52,2.21-2.02,3.74-3.82,7.32,7.5,7.18,4.67,16.71,3.73-5.63,7.8-18.11,25.82-28.28,18.71-5.32-9.19,2.79-31.99,5.06-44.39l2.3-6.79Z"/>
  <path class="st2" d="M1142.74,1117.57c6.55.36,32.21,2.16,36.53,5.57.54,4.4-1.06,8.88-2.2,13.3l-2.3,6.79c-.37-5.12-.31-11.81-.33-17l-1.16-.71c-1.61,2.19-2.12,2.87-4.03,4.78l-1.99-.16c-8.39-11.7-11.8-5.6-23.71-10.01l-.81-2.56Z"/>
  <path class="st2" d="M1148.83,1081.36c-4.29-1.08-4-1.14-5.19-5.09.66-4.5,5.24-13.36,7.95-16.85l1.74-.06.36,9.41-4.86,12.59Z"/>
  <path class="st2" d="M817.95,1173.13c5.02-3.68,10.02-7.39,15-11.12.25,4.7,2.52,8.04,2.03,11.4l-1.58.93-2.29-.74-.81-2.48c-5.24,1.24-6.82,2.26-12.35,2.01Z"/>
  <path class="st4" d="M1018.55,1271.15c5.35-15.97,22.28-16.01,32.46-3.09,1.04,14.82,2.54,141.23-1.11,146.94-6.05,2.91-22.54,2.89-28.63,1.14-1.59-2-1.73-1.93-2.48-4.33-2.12-.39-1.03-.04-3.23-1.19.12-4.21-1.5-5.3-2.65-8.98-1.41-4.48.29-12.85.19-17.92-.44-22.58-5.27-91.01,2.03-109.99.77-1.98,1.57-1.76,3.42-2.58Z"/>
  <path class="st2" d="M1018.79,1411.81c-2.12-.39-1.03-.04-3.23-1.19.12-4.21-1.5-5.3-2.65-8.98-1.41-4.48.29-12.85.19-17.92-.44-22.58-5.27-91.01,2.03-109.99.77-1.98,1.57-1.76,3.42-2.58-1.12,44.59-.41,96.08.24,140.66Z"/>
  <path class="st12" d="M1064.12,1107.09c8.59-.93,18.81-.61,27.41-.23.53,12.81.06,41.23-.98,53.74-9.59.46-18.15.11-27.72-.2-.53-8.71-1.44-46.27,1.29-53.31Z"/>
  <path class="st4" d="M1083.51,1143.81c1.14,2.59.36,1.43,2.86,3.14,1.6,3.4,1.58,3.14,1.53,6.88l-1.53,1.42c-3.92.42-3.82.48-7.64-.32l.67-1.6,2.82.22c1.22-2.41,1.6-4.32.02-6.49l-3.08-.05.39-.46.94-.3c1.47-1.95.79-1.33,3.02-2.44Z"/>
  <path class="st1" d="M982.87,1107.28c9.43-.12,18.68-2.66,26.81.65,2.47,3.41,1.67,2.59,1.86,7.63.16,14.04.82,31.62.22,45.39-9.85.25-18.34-.06-28.14-.46-.21-5.15-.56-10.73-.51-15.85-.48-12.19-.25-25.1-.24-37.36Z"/>
  <path class="st4" d="M983.1,1144.64c1.92-1.47,3.94-1.6,6.24-1.41.36,3.82-.05,5.84-.53,9.69.47.61,1.18,1.66,1.84,1.92,29.77,11.41,13.56-29.34,20.88-39.28.16,14.04.82,31.62.22,45.39-9.85.25-18.34-.06-28.14-.46-.21-5.15-.56-10.73-.51-15.85Z"/>
  <path class="st2" d="M757.75,934.38c14.44-15.25,39.31-34.96,55.46-48.99l98.41-86.72,78.99-70.14c11.65-10.42,36.06-33.43,47.63-40.73,9.96,4.55,80.37,68.83,93.16,80.39l23.67,20.92c19.16,17,55.41,46.28,72.14,63.61,10.45,8.37,19.13,16.91,29.16,25.44,12.09,10.32,53.1,45.86,62.02,56.15-20.81.28-41.46-.25-62.24-.19l-249.6.28c-56.27.35-112.53.36-168.79.02-25.73-.04-54.77.96-80.01-.04Z"/>
  <path class="st4" d="M1096.7,879.89c18.22-15.79,39.76-36.07,57.99-50.46,3.12-.27,2.45.16,5.74,2.74,14.07-.51,21.43,4.33,20.99,18.76,2.21,1.93,4.9,4.43,7.13,6.23,3.19,3,6.53,6.25,9.84,9.09,10.56,9.04,33.83,28.03,42.13,37.58-9.88,1.18-16.08,1.49-26.05,1.6-43.68.3-101.23,1.85-144.17-.9,8.13-8.37,17.72-16.74,26.4-24.65Z"/>
  <path class="st6" d="M1160.43,832.17c14.07-.51,21.43,4.33,20.99,18.76-7.9-6.62-13.68-11.48-20.99-18.76Z"/>
  <path class="st4" d="M920.55,830.37c1.74.29,4.03.58,5.67,1.07l25.9,23.47c7.23,6.06,14.38,12.21,21.46,18.44,9.46,7.57,21.17,17.64,29.8,26.23,2.16,1.81,4.34,3.55,6.36,5.52-33.85,1.55-70.22.26-104.31.44-9.25.05-57.7.55-64.04-.74l-.89-.48.02-1.68c7.26-8.27,19.16-17.74,27.61-25.33,17.4-15.6,35.46-30.84,52.4-46.94Z"/>
  <path class="st4" d="M944.53,808.72c19.52-15.45,39.45-35.42,58.73-51.6,6.91-5.81,15.39-14.24,22.54-19.24.56,29.04.1,59.06.13,88.18.01,13.93.67,40.09-.62,53.37l-1.74.2c-1.82-1.46-3.64-2.93-5.44-4.4-3.15-3.22-7.66-7.04-11.08-10.12-5.33-4.58-10.63-9.21-15.9-13.87-5.71-5.33-9.82-9.12-16.03-13.78-7.75-8.66-20.97-18.4-30.23-28.34l-.37-.39Z"/>
  <path class="st4" d="M1054.04,739.78c8.74,6.89,17.74,14.95,26.14,22.32,8.61,7.07,16.48,14.77,24.91,22.06,1.31,1.14,5.15,4.3,6.14,5.4,4.9,4.01,18.61,14.22,20.18,19.48l-1.35,3.12c-3.92,2.5-10.1,8.81-13.74,12.3-11.06,9.29-21.94,18.8-32.64,28.5-9.77,9.12-17.56,17.02-29.23,23.75-1.25-24.39-.6-52.35-.78-77-.13-17.74-.94-42.99.37-59.92Z"/>
  <path class="st12" d="M1111.23,789.56c4.9,4.01,18.61,14.22,20.18,19.48l-1.35,3.12c-3.92,2.5-10.1,8.81-13.74,12.3v-1.84c0-6.05-.42-6.1,3.02-9.53l-.4-1.51-2.56-.73c-1.87-2.68,1.22-3.99.37-6.1-4.3-10.61-4.85-3.56-5.52-15.18Z"/>
  <path class="st6" d="M991.15,851.23c5.27,4.66,10.57,9.28,15.9,13.87,3.42,3.09,7.93,6.91,11.08,10.12-4.27,1.12-3.61.27-6.1,3.04.17,6.63,6.07,5.64,1.82,12.03-2.81.88-4.31.32-7.21-.21-4.57,2.23-3.48,4.66-3.25,9.49-8.63-8.59-20.35-18.66-29.8-26.23,2.97-.02,3.99.21,6.77-.83,3.21-.61,4.4-.49,6.58-2.9.37-3.62.38-2.34-1.82-6.09.14-3.65,1.23-5.83,1.09-11.23l4.95-1.07Z"/>
  <path class="st8" d="M991.15,851.23c5.27,4.66,10.57,9.28,15.9,13.87-5.39.17-11.54-1.53-16.44-.11-2.69.78-2.05.35-5.51-1.46.14-3.65,1.23-5.83,1.09-11.23l4.95-1.07Z"/>
  <path class="st6" d="M1188.55,857.16h5.19c5.17-5.32-2.45-2.75,3.23-6.52,4.2-.03,3.42-.69,6.02,1.37.04,3.42-1.38,6.83-4.3,8.76-.42,2.53-.39,2.89-.3,5.48-3.31-2.84-6.65-6.09-9.84-9.09Z"/>
  <path class="st6" d="M914.95,808.31c.79,4.05,1.27,3.34.1,6.69l-3.01,1.41c-1.74-5.53-1-5.04,2.91-8.11Z"/>
  <path class="st10" d="M529.28,324.37c31.31-.81,64.09.04,95.62-.09l268.67.09,624.83-.17c.58,38.8,1.15,84.05.03,122.86-21.04-.08-42.09-.25-63.14-.24-13.03,0-36.28,1.71-48.17.22-13.05-.14-99.23,1.65-104.03-1.21-4.8,8.74-8.16,24.32-6.52,34.23,12.84,1.7,52.97.67,67.65.68,51.33-.2,102.66-.03,153.99.51l-.07,140.46-156.92.1c-25.98-.05-56.51.8-81.88-.27-15.9.83-39.06.14-55.74.15l-108.99.04-303.14-.07-282.15.31.23-140.85c30.7-.09,66.28.86,96.33,0,1.96-.39,6.37-2.95,8.4-4.02-14.89-9.36-20.56-14.93-28.91-30.3l-.98,1.47c-11.32-3.18-61.27-1.39-75.41-1.35.24-26.88.32-53.77.23-80.65,0-12.88-.5-29.29.07-41.92Z"/>
  <path class="st9" d="M529.28,324.37c31.31-.81,64.09.04,95.62-.09l268.67.09,624.83-.17c.58,38.8,1.15,84.05.03,122.86-21.04-.08-42.09-.25-63.14-.24-13.03,0-36.28,1.71-48.17.22l.8-.51.42-2.18,1.76-.3c6.98.85,23.27.14,30.95.01-.03-4.61-.01-9.22.05-13.83-.12-15.73.13-32.22-.3-47.83-9.78-.45-17-.54-26.79.16-.31,5.4-.75,10.89-.57,16.28-14.14-15.11-31.81-21.02-52.26-21.58-26.75-.9-52.72,9.11-71.95,27.73-8.22,8.01-13.82,17.92-19.64,27.66l-1.34-2.21c-2.91-.64-3.66-.74-6.64-.92-4.5,4.87,2.58,12.93-8.36,12.82-7.9-.08-16.04-.83-23.88-1.56,4.27-2.82,6.97.3,11.23-3.72l.27-.93c-4.51-.54-12.86-.51-16.3-1.47,4.17-.51,10.83-.33,15.22-.34l-.14-13.48c.02-6.94,1.36-36.67-1.65-40.41-41.01.74-82.59.23-123.71.52-7.5-.02-14.26-.08-21.74-.53-1.76.86-2.23.6-2.46,2.17-1.11,7.41-.61,17.67-.49,25.15,5.76.12,16.03.07,21.34.86.15,5.92.24,10.59-.05,16.53-.97,7.16-.77,14.03-.76,21.25-8.92-.3-45.75,1.1-50.11-1.58l-.7-1.93c5.93-24.46-1.75-38.61-20.39-53.69-1.28-.19-4.47-1.65-5.84-2.22-20.84-9.2-82.22-5.89-108.38-5.64-.02,7.91.28,19.07-.47,26.69l21.86.45.09,38.63c-34.6-2.9-76.39,1.49-108.61-1.21l-1.23-2.01c-12.96,18.51-34.14,28.81-56.77,25.23-18.32-2.9-27.11-13.64-36.98-27.62-.79,2.24-.52,3.32-2.96,4.09-4.89,1.55-16.34,2.55-20.1-1.33l.42-8.14c.04-4.88.1-7.35-.6-12.22-1.21-11.44-5.31-17.34-12.05-26.12-18.85-16.03-40.86-21.83-64.85-13.99-17.13,6.09-25.4,13.27-34.93,28.88-4.04,11.25-5.7,22.4-2.15,34.19l-.98,1.47c-11.32-3.18-61.27-1.39-75.41-1.35.24-26.88.32-53.77.23-80.65,0-12.88-.5-29.29.07-41.92Z"/>
  <path class="st5" d="M738.72,426.62c.92-11.38,3.56-19.96,11.01-28.94,8.99-10.91,22.03-17.71,36.12-18.84,17.55-1.58,30.14,3.61,43.27,14.88,12.77,16.93,14.97,29.98,7.22,50.14-12.96,18.51-34.14,28.81-56.77,25.23-18.32-2.9-27.11-13.64-36.98-27.62-1.8-4.69-2.76-9.92-3.87-14.86Z"/>
  <path class="st9" d="M774.49,402.02c11.61-7.93,27.3-5.99,36.63,4.53,9.32,10.52,9.36,26.34.09,36.91-9.27,10.57-24.96,12.58-36.61,4.7-7.65-5.18-12.24-13.8-12.26-23.04-.02-9.24,4.53-17.89,12.16-23.1Z"/>
  <path class="st13" d="M774.6,448.16c-7.65-5.18-12.24-13.8-12.26-23.04-.02-9.24,4.53-17.89,12.16-23.1,1.87,2.82,1.9,2.61,2.47,5.9-2.71,4.88-10.07,10.04-8.86,16.68,1.09,6.03,10.86,17.48,6.49,23.56Z"/>
  <path class="st13" d="M529.28,324.37c31.31-.81,64.09.04,95.62-.09l268.67.09,624.83-.17c.58,38.8,1.15,84.05.03,122.86-21.04-.08-42.09-.25-63.14-.24-13.03,0-36.28,1.71-48.17.22l.8-.51.42-2.18,1.76-.3c6.98.85,23.27.14,30.95.01-.03-4.61-.01-9.22.05-13.83,2.06-7.24.43-35.23,1.58-46.8h.06c2.26,5.07,1.66,51.07,1.67,59.62,19.61,1.48,50.24.8,70.04.04,1.11-24.4,1.59-48.35,1.31-72.77-.15-13.34.48-28.83-1.31-41.91-35.3-1.62-73.14-.16-108.6-.16-61.06-.6-122.12-.7-183.18-.31l-455.41-.26-165.43.31c-16.95,0-54.98,1.38-69.77.02.36,36.58.94,79.1.07,115.6,17.98-1.19,48.07.65,67.77.51-.08-7.76-.63-26.66,5.46-31.7l2.17.21c-4.04,11.25-5.7,22.4-2.15,34.19l-.98,1.47c-11.32-3.18-61.27-1.39-75.41-1.35.24-26.88.32-53.77.23-80.65,0-12.88-.5-29.29.07-41.92Z"/>
  <path class="st13" d="M707.3,397.76c1.68-3.11.56-1.75,3.9-3.84,7.87,2.03,7.37,13.78,11.01,15,5.78,1.93,9.21-2.35,14.8,4.15.92,3.96.69,3.88-.57,7.9.71,2.59.65,3.78,2.29,5.66,1.11,4.93,2.07,10.17,3.87,14.86-.79,2.24-.52,3.32-2.96,4.09-4.89,1.55-16.34,2.55-20.1-1.33l.42-8.14c.04-4.88.1-7.35-.6-12.22-1.21-11.44-5.31-17.34-12.05-26.12Z"/>
  <path class="st9" d="M729.77,429.24c3.7,3.73,3.2,7.88-.16,11.56-3.1-5.44-3.71-6.61.16-11.56Z"/>
  <path class="st13" d="M943.03,411.89c-7.06-.12-14.41.94-19.45-3.57-2.66-5.03-2.66-21.11-.91-26.18,1.53,10.02.51,18.18,1.56,25.86l21.86.45.09,38.63c-34.6-2.9-76.39,1.49-108.61-1.21l-1.23-2.01c7.75-20.16,5.55-33.21-7.22-50.14,17.83,4.1,15.09,36.15,12.06,49.83,33.86-.22,67.72.04,101.57.78.68-11.15.45-21.31.28-32.46Z"/>
  <path class="st13" d="M1092.54,380.41l-3.03-1.59c1.88-1.42,137.45-2.93,148.36-.8l.75,1.48-.63.93c-41.01.74-82.59.23-123.71.52-7.5-.02-14.26-.08-21.74-.53Z"/>
  <path class="st13" d="M1038.92,389.17c12.54-2.3,21.73,20.63,23.83,30.44,1.41,6.58.41,17.57,2.22,23.31,8.23,2.7,32.4.86,42.42.53l.03-32.27c-6.06-.23-11.3-.23-17.28-1.38,7.49-1.53,13.23-.86,20.79-1.22.15,5.92.24,10.59-.05,16.53-.97,7.16-.77,14.03-.76,21.25-8.92-.3-45.75,1.1-50.11-1.58l-.7-1.93c5.93-24.46-1.75-38.61-20.39-53.69Z"/>
  <path class="st7" d="M924.71,381.31c26.16-.25,87.54-3.57,108.38,5.64,1.37.57,4.56,2.03,5.84,2.22,18.64,15.08,26.32,29.23,20.39,53.69-6.75,13.54-14.41,20.4-28.88,25.26-2.25.75-4.51,1.48-6.78,2.17,11.99,3.73,17.63,5.6,28.34,11.96,12.56,10.71,17.53,17.22,19.21,34.42,3.08,31.44-21.87,57.89-53.09,58.08-5.97,1.06-26.95.76-33.78.76-20.42-.11-40.83-.02-61.25.27l.24-12.55c-.02-4.94-.14-9.96-.22-14.9l.67-.46,13.41.15c3.58.05,5.07-.09,8.59.89l-.18-6.75c.39-16.22-.04-32.3.49-48.84-.38-3.4-.04-9.91.04-13.55l-.18-4.02c.6-8.84.27-19.67.24-28.67l-.09-38.63-21.86-.45c.75-7.62.45-18.78.47-26.69Z"/>
  <path class="st5" d="M924.71,381.31c26.16-.25,87.54-3.57,108.38,5.64l-1.24.04c-6.3.17-11.04-1.25-16.68-1.24-25.7.05-51.31.67-76.99-.9-2.47-.15-5.84.64-8.2,1.47-1.14,3.46-.06,4.29-.58,6.56,8.07,8.97,9.89,9.12,20.29,14.75,1.3,17.86,4.57,64.96-.19,81.43l.36-5.2c-1.14,2.9-2.42,5.76-3.03,8.79l-.76.67c-.38-3.4-.04-9.91.04-13.55l-.18-4.02c.6-8.84.27-19.67.24-28.67l-.09-38.63-21.86-.45c.75-7.62.45-18.78.47-26.69Z"/>
  <path class="st5" d="M923.78,547.88l13.41.15c3.58.05,5.07-.09,8.59.89-4.93,2.44-9.65.41-13.36,2.85l1.14,3.89c-3,4.89-5.35,12.83-1.11,17.72,8.03,1.57,15.07.48,22.71.87,17.86.92,46.06-1.62,62.97.5-5.97,1.06-26.95.76-33.78.76-20.42-.11-40.83-.02-61.25.27l.24-12.55c-.02-4.94-.14-9.96-.22-14.9l.67-.46Z"/>
  <path class="st7" d="M923.78,547.88l13.41.15-5.41,1.84c-.83,2.34-.64,1.48-.65,3.99l-1.92,2.67c-1.86-.32-2.14-.33-4.1-.05-1.43,2.78-1.34,3.68-1.78,6.76-.02-4.94-.14-9.96-.22-14.9l.67-.46Z"/>
  <path class="st11" d="M980.45,484.85c11.02-.23,20.38-.51,31.21,1.58,12.9-1.39,24.38,5.39,26.02,18.8.02.14-1.95,11.63-2.06,12.15l-.58,3.78c-4.6,31.06-29.7,27.25-54.24,27.7.6-19,.33-45.06-.36-64.01Z"/>
  <path class="st5" d="M1011.66,486.43c12.9-1.39,24.38,5.39,26.02,18.8.02.14-1.95,11.63-2.06,12.15-3-17.76-6.91-24.18-23.96-30.94Z"/>
  <path class="st10" d="M988.38,488.58c12.04,1.85,23.15.63,33.95,9.33,9.6,7.74,8.39,15.5,6.81,26.46-1.27,8.86-2.41,9.1-7.98,16.05-6.29,2.96-36.36,11.36-36.96.86-.64-11.11-1.76-44.3,4.18-52.7Z"/>
  <path class="st13" d="M992.19,407.19c3.57-2.2,21.15-.84,26.35-.26,19.41,14.64,19.83,38.71.66,54.21-4.39-.07-9.19-.02-13.52-.36-9.18.41-16.45.52-25.62.25.19-9.6.52-19.2,1.01-28.78-.15-8.76-2.42-16.03,1.06-23.07,3.82-2.49,5.06-1.74,10.07-1.98Z"/>
  <path class="st6" d="M981.07,432.25c.61,5.3.47,9.61.4,14.9,14.27-.55,28.56-.58,42.84-.07-6.14,9.27-7.93,10.01-18.63,13.71-9.18.41-16.45.52-25.62.25.19-9.6.52-19.2,1.01-28.78Z"/>
  <path class="st5" d="M992.19,407.19c3.57-2.2,21.15-.84,26.35-.26,19.41,14.64,19.83,38.71.66,54.21-4.39-.07-9.19-.02-13.52-.36,10.7-3.7,12.49-4.44,18.63-13.71,6.94-29.43-3.99-38.17-32.12-39.89Z"/>
  <path class="st7" d="M1237.99,380.43c3.01,3.75,1.67,33.47,1.65,40.41l.14,13.48c-4.39.02-11.05-.17-15.22.34,3.44.96,11.79.93,16.3,1.47l-.27.93c-4.26,4.03-6.96.9-11.23,3.72,7.84.74,15.98,1.48,23.88,1.56,10.94.11,3.86-7.95,8.36-12.82,2.98.18,3.73.28,6.64.92l1.34,2.21c-.95,2.51-3.43,9.68-4.45,11.73-2.18,12.63-4,23.34-5.12,36.18-15.69,1.19-47.44.34-64.01.41l-.06,2.69c-.75,1.88-.48,2.43-1.86,2.78-8.7,2.25-41.99-2.66-47.88.83-.45,2.32-.77,3.88-1.02,6.25,1.96,9.07.73,42.86.47,54.01,9.15-.02,23.92-.46,32.58.22,10.48,3.57,21.48-1.3,29.16,2.99l1.54.88c.77-.18,1.54-.37,2.31-.55,2.86-7.28.88-23.43,5.78-29.82,5.74-.92,11.04,4.28,17.12,1.98,2.11-.8,2.41-.04,3.68.66.99,2.94,1.59,4.21,2.89,6.96.44,14.13.09,30.22.12,44.51-50.21-.24-100.44-.14-150.65.31.13-9.13-.2-18.55-.4-27.7l21.5-.14c.16-14.2-.39-29.25-.7-43.51l.68-2.12c-.54-3.15-.41-9.91-.44-13.37l.08-8.68c.49-6.5.61-9.52.23-16.04.13-12.99.04-25.99-.25-38.98.29-5.94.2-10.61.05-16.53-5.31-.79-15.58-.74-21.34-.86-.12-7.48-.62-17.74.49-25.15.23-1.57.7-1.31,2.46-2.17,7.48.45,14.24.51,21.74.53,41.12-.28,82.7.22,123.71-.52Z"/>
  <path class="st9" d="M1145.83,407.98c20.59-.08,43.38-.57,63.78.37.18,8.2-.1,16.83-.25,25.06,4.75.25,9.5.63,14.23,1.14l.97.11c3.44.96,11.79.93,16.3,1.47l-.27.93c-4.26,4.03-6.96.9-11.23,3.72,7.84.74,15.98,1.48,23.88,1.56,10.94.11,3.86-7.95,8.36-12.82,2.98.18,3.73.28,6.64.92l1.34,2.21c-.95,2.51-3.43,9.68-4.45,11.73-2.18,12.63-4,23.34-5.12,36.18-15.69,1.19-47.44.34-64.01.41-.61-4.2-.47-16.64-.53-21.49-16.74.53-33.49.77-50.25.72l.67-15.61-.06-36.63Z"/>
  <path class="st2" d="M1145.89,444.6h.79s1.21,2.26,1.21,2.26c12.96,2.25,93.38-3.05,112.32,1.55.16.04,1.76,2.86,1.81,2.95,1.06-2.61,1.84-4.42,3.11-6.98-2.18,12.63-4,23.34-5.12,36.18-15.69,1.19-47.44.34-64.01.41-.61-4.2-.47-16.64-.53-21.49-16.74.53-33.49.77-50.25.72l.67-15.61Z"/>
  <path class="st13" d="M1224.56,434.66c3.44.96,11.79.93,16.3,1.47l-.27.93c-4.26,4.03-6.96.9-11.23,3.72,7.84.74,15.98,1.48,23.88,1.56,10.94.11,3.86-7.95,8.36-12.82,2.98.18,3.73.28,6.64.92l1.34,2.21c-.95,2.51-3.43,9.68-4.45,11.73-1.27,2.57-2.05,4.37-3.11,6.98-.05-.09-1.65-2.91-1.81-2.95-18.94-4.6-99.36.69-112.32-1.55l-1.21-2.26c.77-3.25.63-10.24.68-13.86,3.34,1.27-.56,6.33,5.57,12.01,5.75,1.71,66.41-.11,74.08-1l-.24-1.36c-5.74-2.86-13.02-2.42-17.16-4.58,4.65-.51,9.31-.93,13.98-1.27l.97.11Z"/>
  <path class="st5" d="M1237.99,380.43c3.01,3.75,1.67,33.47,1.65,40.41-5.53-9.35.73-22.83-3.7-35.49-6.37-1.07-13.98.27-20.46-.11-16.46-1.12-33.33-.99-49.74-1.94-15.55-.9-36.74,1.96-51.46-2.36,41.12-.28,82.7.22,123.71-.52Z"/>
  <path class="st5" d="M1145.18,493.53c-2.96-3.93-2.98-6.43-.22-10.06,9.24-4.53,40.01-.68,50.98.19-.75,1.88-.48,2.43-1.86,2.78-8.7,2.25-41.99-2.66-47.88.83-.45,2.32-.77,3.88-1.02,6.25Z"/>
  <path class="st5" d="M1110.82,488.83c4.12,2.1,3.02.59,4.62,3.84-.93,2.66-.72,2.97-2.8,4.73-.28.99-1.04,4.03-1.38,4.8-.54-3.15-.41-9.91-.44-13.37Z"/>
  <path class="st7" d="M642.44,383.77c24-7.84,46.01-2.03,64.85,13.99,6.74,8.78,10.83,14.68,12.05,26.12.7,4.87.64,7.34.6,12.22-2.77,12-14.13,33.71-27.13,36.31l-2.94,2.23c1.4,3.7,9.47,8.14,13.18,9.63,11.79,9.62,19.5,17.75,21.43,33.82,1.71,14.04-2.42,28.17-11.42,39.08-28.57,34.74-94.21,30.37-111.01-15.43.13-10.15,6.39-36.94,4.97-43.22,3.58-7.24,12.36-12.83,18.85-17.36,1.96-.39,6.37-2.95,8.4-4.02-14.89-9.36-20.56-14.93-28.91-30.3-3.56-11.78-1.89-22.93,2.15-34.19,9.53-15.61,17.8-22.79,34.93-28.88Z"/>
  <path class="st5" d="M642.44,383.77c24-7.84,46.01-2.03,64.85,13.99,6.74,8.78,10.83,14.68,12.05,26.12-2.25-1.32-5.69-4.48-8.48-6.3-2.34-8.33-.36-11.67-9.18-17.48-5.16-3.4-10.68-7.14-15.9-10.55-1.3.8-.81.8-1.52,3.01-7.49-10.81-28.09-8.11-41.81-8.8Z"/>
  <path class="st11" d="M654.86,492.96c15.68-3.87,31.52,5.79,35.26,21.51,3.74,15.72-6.05,31.47-21.79,35.08-15.56,3.57-31.09-6.08-34.79-21.62-3.7-15.53,5.83-31.14,21.33-34.97Z"/>
  <path class="st10" d="M652.86,496.03c9.23-1.2,14.12-1.31,22.16,4.44,17.55,15.55,13.66,37.29-7.45,47.05-9.4-.9-17.73-2.65-24.3-10.21-4.44-5.15-6.63-11.87-6.07-18.65.99-11.61,7.42-15.92,15.65-22.63Z"/>
  <path class="st9" d="M637.07,449.7c-2.55-5.27-3.29-13.5-2.36-19.21,1.2-6.94,5.15-13.11,10.96-17.11,6.29-4.42,14.09-6.12,21.65-4.71,20.72,3.84,24.7,20.97,20.88,39.08-6.11,14.59-20.12,22.81-35.49,16.69-6.86-2.8-12.43-8.06-15.62-14.75Z"/>
  <path class="st6" d="M688.19,447.76c-6.11,14.59-20.12,22.81-35.49,16.69-6.86-2.8-12.43-8.06-15.62-14.75,10.85-6.69,42.53.38,51.12-1.95Z"/>
  <path class="st7" d="M1269.58,432.65c5.82-9.74,11.42-19.65,19.64-27.66,19.23-18.62,45.2-28.62,71.95-27.73,20.45.55,38.12,6.47,52.26,21.58-.18-5.39.26-10.89.57-16.28,9.79-.7,17.01-.6,26.79-.16.43,15.61.18,32.1.3,47.83-.06,4.61-.08,9.22-.05,13.83-7.68.13-23.97.83-30.95-.01l-1.76.3-.42,2.18-.8.51c-13.05-.14-99.23,1.65-104.03-1.21-4.8,8.74-8.16,24.32-6.52,34.23,2.1,23.81,7.21,38.11,26.21,54.08l4.4,3.63c13.97,7.34,14.99,7.13,29.92,9.82,27.87-.57,45.83-8.34,55.56-36.5,13.15.03,26.3,0,39.45-.12-16.19,42.35-41.28,68.03-89.22,69.15-57.9,1.35-102.52-41.25-102.87-99.57,1.12-12.84,2.94-23.55,5.12-36.18,1.02-2.05,3.5-9.22,4.45-11.73Z"/>
  <path class="st9" d="M1303.08,445.84c2.42-4.98,5.3-10.15,8.82-14.45,10.46-12.8,25.62-20.86,42.07-22.38,22.2-2.11,54.22,10.28,56.12,35.04l-1.76.3-.42,2.18-.8.51c-13.05-.14-99.23,1.65-104.03-1.21Z"/>
  <path class="st5" d="M1327.17,537.78c13.97,7.34,14.99,7.13,29.92,9.82-10.82.33-28.78,6.51-29.92-9.82Z"/>
  <path class="st11" d="M1110.12,446.37c-.01-7.22-.21-14.09.76-21.25.29,12.99.38,25.99.25,38.98.38,6.52.26,9.54-.23,16.04l-.08,8.68c.03,3.46-.1,10.21.44,13.37l-.68,2.12c.31,14.27.86,29.32.7,43.51l-21.5.14c.2,9.15.53,18.57.4,27.7,50.21-.45,100.44-.55,150.65-.31-.03-14.29.32-30.38-.12-44.51-1.3-2.75-1.9-4.02-2.89-6.96-1.27-.7-1.57-1.46-3.68-.66-6.08,2.3-11.38-2.9-17.12-1.98-4.9,6.39-2.92,22.54-5.78,29.82-.77.18-1.54.37-2.31.55l-1.54-.88c-7.68-4.29-18.68.58-29.16-2.99-8.66-.68-23.43-.23-32.58-.22.26-11.15,1.49-44.93-.47-54.01.25-2.37.57-3.93,1.02-6.25,5.89-3.49,39.18,1.42,47.88-.83,1.38-.36,1.11-.9,1.86-2.78l.06-2.69c16.57-.07,48.32.78,64.01-.41.35,58.32,44.97,100.92,102.87,99.57,47.94-1.12,73.03-26.81,89.22-69.15-13.15.11-26.3.15-39.45.12-9.73,28.16-27.69,35.93-55.56,36.5-14.93-2.69-15.95-2.48-29.92-9.82l-4.4-3.63c-19-15.97-24.11-30.27-26.21-54.08,12.84,1.7,52.97.67,67.65.68,51.33-.2,102.66-.03,153.99.51l-.07,140.46-156.92.1c-25.98-.05-56.51.8-81.88-.27,6.23-6.01,222.42,2.06,232.51-5.4-.42-2.87-1.13-5.09-1.92-7.86,2.99-10.2,1.04-58.26,2.05-75.66l.18,3.08c.81-5.38-.83-33.89-1.86-40.81-.35-2.36.47-3.18,1.41-5.85-5.74-3.07-53.88-1.78-63.79-1.64-5.34.07-21.97-1.97-26.48-1.28l-.56,1.66,2.45,3.22-2.64.11c-1.81-2.8-1.09-1.33-1.32-5.07-5.14-3.06-15.82,3.41-25.05-.06-4.65-1.75-25.44.51-31.26.64-1.37.03-1.72,1.64-2.34,2.86-2.44,1.31-1.19,1.07-3.88.44-.83-2.5-.46-1.87-1.88-4.04-2-.21-40.26.57-40.77.68l1.37-.04c-7.94,2.07-10.44,9.36-8.02,16.98,1.69,5.32,8.21,16.38,13.02,19.02.99.54,2.29.66,2.75,1.93,4.94,9.3,8.85,8.86,18.41,12.47.84,1.13,3.39,4.69,4.59,5.02,14.93,4.11,31.86.33,44.82-7.76,4.01-2.5,9.52-5.53,11.31-9.56,3.42-7.72,1.78-18.29,13.75-18.06,8.79.17,31.36-2.93,38.33,3.1,3.13,11.23-17.74,47.87-29.44,53.43-5.52,2.62-10.24,9.14-15.97,11.63-22.34,9.77-50.75,12-74.83,9.79-9.03-.83-32.82-15.19-41-20.39-5.27-3.35-8.07-9.88-12.62-12.51-1.67,1.37-1.18.92-2.42,2.08l-.79.74-1.24-1.68c1.22-2.31,1.41-2.66,2.16-5.14-1.98-3.9-9.14-4.76-10.51-8.06-2.97-7.18-3.02-12.61-8.1-18.95-1.38,1.18-.66.6-2.17,1.74,1.34-12.25-4.74-15.15-6.06-26.16-.29-2.39.29-2.44-1.31-4.52-1.68-.1-3.2-.23-4.87-.4l2.42-.59c.17-2.29-.84-2.66-2.61-5.1-10.73-2.89-33.55-3.27-43.97-.4-.61.68-1.24,1.36-1.87,2.02-.74.76-2.79,2.89-3.71,2.97-10.92.93-25.64.6-36.37.91-12.05,8.85-7.83,12.21-8.06,25.32-.06,2.98-3.23,13.88-.64,17.09,7.54,9.34,20.13,11.23,31.72,9.5,4.3-.62,10.03,1.02,13.79.7,16.31-1.41,5.77-20.44,12.94-27.9,8.06-3.67,14.56-1.21,22.38-.73,2.37.15,5.84-2.45,10.93-1.74,3.5,6.23,1.23,40.69,2.67,49.76.48,3.07-.34,12.56-2.7,14.57-.58.44-5.73,3.92-6.09,3.91-23.6-.6-50.15.19-73.46-.1-12.08-.15-16.48,1.52-25.36.93-16.52-1.1-31.68-2.41-47.54-3.42-5.44-4.72-4.82-30.19-1.5-35.9,5.34-3.72,9.36-.08,12.75-2.91-1.84-1.93-1.22-.85-1.62-3.4l.44,1.75,1.22.56c2.26-3.7,3.35-9.19,4.5-13.52-1.4-2.89-.38-1.66-3.61-3.39.94-.72,1.89-.81,3.02-1.09,1.08-8.3-3.16-15.33-1.68-22.76.51-2.6,3.09-6,.32-8.57-2.43,2.43-2.35,3.8-2.94,7.02-2.3-.44-.51-8.95-9.87-8.67-5.07,5.34-11.05,2.84-18.48,2.41l-.64,1.26c5.63,5.22,4.01,5.91,3.87,13.44l1.14.52,3.51-3.29c.81,2.27,1.17,2.26,2.92,3.97l-2.2,2.15.35,1.15.54,1.93c2.3,7.89,3.15,12.46,2.17,20.95-1.51-3.45-1.81-4.2-3.98-7.22l-1.75-.04c-7.2,7.79-2.84,22.51-8.98,31.48-8.21,3.82-12.91,12.64-20.38,17.21-6.57,4.02-19.01,2.91-24.06,8.72l-.65.76c-1.98-.71-2.67-1.01-4.46-2.02l-1.55-.89c-2.89.96-4.43,2.07-6.99,3.65l-.14,1.24c1.81.22,3.31.34,5.12.45-2.92,3.28-8.18-2.38-11.55,3.7-7.75-5.37-41.92-9.36-47.26-5.01,1.94,1.67,1.07.76,2.64,2.7-6.27-1.5-7.75-3.15-15.25-3.56-5.37-.41-13.15.6-18.14-1.04-9.84-3.24-8.73-27.58-5.72-34.09l2.18-.28c.08,4.95.2,9.96.22,14.9l-.24,12.55c20.41-.29,40.83-.38,61.25-.27,6.83,0,27.81.29,33.78-.76,31.22-.19,56.17-26.64,53.09-58.08-1.68-17.21-6.65-23.71-19.21-34.42-10.71-6.36-16.35-8.23-28.34-11.96,2.27-.7,4.53-1.42,6.78-2.17,14.47-4.86,22.13-11.72,28.88-25.26l.7,1.93c4.36,2.68,41.19,1.28,50.11,1.58Z"/>
  <path class="st6" d="M1110.12,446.37c-.01-7.22-.21-14.09.76-21.25.29,12.99.38,25.99.25,38.98.38,6.52.26,9.54-.23,16.04l-.08,8.68c.03,3.46-.1,10.21.44,13.37l-.68,2.12c-.44-2.8-.28-19.19-.31-22.98-14.36.61-45.53-1.35-58.28.91-10.71-6.36-16.35-8.23-28.34-11.96,2.27-.7,4.53-1.42,6.78-2.17,14.47-4.86,22.13-11.72,28.88-25.26l.7,1.93c4.36,2.68,41.19,1.28,50.11,1.58Z"/>
  <path class="st3" d="M1110.12,446.37c-.01-7.22-.21-14.09.76-21.25.29,12.99.38,25.99.25,38.98l-1.52.6c-1.62-3.96-.8-12.35-.57-16.98-15.98-.27-31.96-.33-47.94-.17-7.59,12.37-11.04,14.74-23.44,22.15,4.99,3.2,10.04,6.37,14.88,9.78,19.45-.1,38.64.78,58.36.66l-.08,8.68c.03,3.46-.1,10.21.44,13.37l-.68,2.12c-.44-2.8-.28-19.19-.31-22.98-14.36.61-45.53-1.35-58.28.91-10.71-6.36-16.35-8.23-28.34-11.96,2.27-.7,4.53-1.42,6.78-2.17,14.47-4.86,22.13-11.72,28.88-25.26l.7,1.93c4.36,2.68,41.19,1.28,50.11,1.58Z"/>
  <path class="st5" d="M1209.44,518.42c10.32-.18,20.63-.22,30.95-.11.34,3.54.26,8.86.32,12.55-1.3-2.75-1.9-4.02-2.89-6.96-1.27-.7-1.57-1.46-3.68-.66-6.08,2.3-11.38-2.9-17.12-1.98-4.9,6.39-2.92,22.54-5.78,29.82-.77.18-1.54.37-2.31.55l-1.54-.88c-7.68-4.29-18.68.58-29.16-2.99,9.39-.49,21.74-.29,31.35-.39l-.14-28.95Z"/>
  <path class="st6" d="M692.81,472.41c13-2.6,24.36-24.31,27.13-36.31l-.42,8.14c3.76,3.88,15.21,2.88,20.1,1.33,2.45-.78,2.17-1.85,2.96-4.09,9.87,13.98,18.67,24.72,36.98,27.62,22.63,3.58,43.81-6.72,56.77-25.23l1.23,2.01c32.22,2.7,74.01-1.69,108.61,1.21.03,9,.36,19.83-.24,28.67l.18,4.02c-6.21,1.1-21.25.74-28.34.75l-56.15-.2-91.47.1c-14.48.02-63.46,1.8-74.37-4.07l-2.98-3.94Z"/>
  <path class="st3" d="M692.81,472.41c13-2.6,24.36-24.31,27.13-36.31l-.42,8.14c3.76,3.88,15.21,2.88,20.1,1.33,2.45-.78,2.17-1.85,2.96-4.09,9.87,13.98,18.67,24.72,36.98,27.62,22.63,3.58,43.81-6.72,56.77-25.23l1.23,2.01c32.22,2.7,74.01-1.69,108.61,1.21.03,9,.36,19.83-.24,28.67-6.23-7.1,1.24-21.09-4.73-26.81-9.43-1.73-28.81-1.24-38.99-1.26l-63.01-.04c-30.32,34.13-66.27,34.76-96.81.44l-21.95-.05c-5.35,8.9-7.49,12.45-15.38,19.45-2.59,2.29-7.53,6.41-9.31,8.87l-2.98-3.94Z"/>
  <path class="st11" d="M703.06,484.26c-3.71-1.49-11.78-5.93-13.18-9.63l2.94-2.23,2.98,3.94c10.91,5.87,59.9,4.09,74.37,4.07l91.47-.1,56.15.2c7.09,0,22.13.36,28.34-.75-.08,3.65-.42,10.15-.04,13.55-.53,16.54-.1,32.62-.49,48.84l.18,6.75c-3.52-.98-5.01-.84-8.59-.89l-13.41-.15-.11-2.54c6.08-1.43,10.62.22,16.3-2.29,1.32-4.36.91-48.64.43-55.3l-1.36-1.32c-10.57,1.04-7.7,2.95-20.67-.11-3.75-.89-20.75,2.59-25.92,1.76-17.63-2.84-30.49-3.49-47.55,1.6-.27.08-12.68-5.18-14.9-3.6-30.92.2-69.86-4.42-99.62,3.49-1.08.29-2.02,3.19-2.37,4.14l-.18-.62c-1.39,8.27.72,14.99,1.6,23.1.87,7.96-.49,15.2-1.87,23.06-2.74,15.55-10.39,25-22.79,33.99-13.83,10.35-30.57,13.05-47.46,12.58-5.31-.15-12.43-1.62-17.62-.86-7.73,1.13-8.72-2.63-14.77-5.47l-2.09,2.82c-1.22-1.92-.65-1.07.05-4.51-7.22-1.18-7.53-1.03-10.77-7.62-4.57-1.68-5.04,1.69-8.12-.08.07-2.93.25-3.32.98-6.21-24.96-45.09-.37-60.94-4.42-73.29-5.51-5.32-34.96-3.17-43.32-3.82-7.36-.58-13.23,6.42-19.21,2.05l-2.27.64c-2.05,3.87-1.59,30.85-.94,36.48l3.41.48c.07,4.18-3.93,6.46.58,13.71,3.52,5.65.11,12.68-2,17.8-.22-5.56-.48-11.12-.78-16.67l-.52-.25c-4.86,15.17,5.76,54.75,2.5,63.11l-1.56-.11c0-.08,0-.17,0-.26-.13-.65-.26-1.3-.39-1.94-.66-3.6-.52-7.65-.5-11.34-1.4,7.45-3.55,13.98,1.08,20.21,1.67,2.25,2.36,3.45,2.82,6.23,9.34,4.23,130.57,1.49,148.86,1.43,25.06.02,50.12.24,75.17.65,12.75.19,37.11-1.27,47.98,2.67l-282.15.31.23-140.85c30.7-.09,66.28.86,96.33,0-6.49,4.53-15.27,10.12-18.85,17.36,1.42,6.28-4.84,33.07-4.97,43.22,16.8,45.8,82.44,50.17,111.01,15.43,9-10.91,13.13-25.04,11.42-39.08-1.93-16.06-9.65-24.2-21.43-33.82Z"/>
  <path class="st0" d="M703.06,484.26c-3.71-1.49-11.78-5.93-13.18-9.63l2.94-2.23,2.98,3.94c10.91,5.87,59.9,4.09,74.37,4.07l91.47-.1,56.15.2c7.09,0,22.13.36,28.34-.75-.08,3.65-.42,10.15-.04,13.55-.53,16.54-.1,32.62-.49,48.84-1.47-9.9-.55-48.15-.57-60.35l-161.2-.09h-53.19c-6.93.03-20.98-.26-27.26.61l-.32,1.92Z"/>
  <path class="st5" d="M602.06,541.73c-.24-.75-.46-1.5-.67-2.26-3.93-14.41-1.77-28.14,5.64-40.96,1.42,6.28-4.84,33.07-4.97,43.22Z"/>
  <path class="st10" d="M781.52,488.48c2.8-.53,2.63.17,5.87,2.02-2.66.31-3.59.66-6.13-.11l.26-1.9Z"/>
</svg>