<?xml version="1.0" encoding="UTF-8"?>
<svg id="Camada_1" xmlns="http://www.w3.org/2000/svg" version="1.1" viewBox="0 0 2048 2048">
  <!-- Generator: Adobe Illustrator 30.3.0, SVG Export Plug-In . SVG Version: 2.1.3 Build 182)  -->
  <defs>
    <style>
      .st0 {
        fill: #037d42;
      }

      .st1 {
        fill: #f1b303;
      }
    </style>
  </defs>
  <path class="st1" d="M1755.04,493.18c4.59.65,5.32-.09,7.95,2.51.5,6.69.46,12.98.3,19.68-1.11,47.78-.75,95.55-.8,143.34l-.06,139.97c.02,25.73,1.1,60.3-.81,85.05-19.12,249.89-315.44,159.23-478.18,176.28-111.54,11.68-188.15,97.12-257.43,175.86-6.68,7.58-14.64,18.32-22.04,24.81-4.23.61-2.69.61-7.2-2.12,3.91-11.78,13.99-26.37,19.49-38.01,61.78-130.38,33.13-284.23,62.18-421.64,22.79-107.77,93.63-217.94,213.21-223.53,103.45-4.84,211.74,22.6,315.97,15.52,37.32-2.54,75.63-7.22,107.67-28.23,28.14-18.17,33.48-38.64,39.75-69.49Z"/>
  <path class="st0" d="M1267.47,776.6c25.34-2,47.59,16.74,49.91,42.06,2.33,25.32-16.12,47.8-41.41,50.46-16.65,1.75-32.96-5.6-42.68-19.22-9.72-13.63-11.35-31.43-4.29-46.61,7.08-15.17,21.76-25.37,38.46-26.69Z"/>
  <path class="st0" d="M298.82,502.28c1.25.11,6.5.51,6.87,1.64,4.61,14.1,6.75,29.54,14.78,42.19,20.22,31.85,59.59,45.62,95.37,50.11,79.56,9.99,161.06-5.27,240.12-13.45,34.57-3.58,79.05-8.77,113.46-4.63,29.12,3.4,57.06,13.47,81.66,29.42,38.64,24.78,66.75,56.68,89.55,96.56,21.83,38.17,36.15,84.63,40.12,128.5,2.31,25.51-.4,55.53-2.27,81.16-5.78,79.22-21.12,166.23-3.7,244.44,1.25,5.1,4.67,13.92-.38,17.34-4.92-1.72-8.96-7.5-11.65-11.85-41.85-66.9-125.3-95.7-201.62-103.58-133.07-13.73-302.52,61.43-412.18-50.33-51.02-51.99-51.01-131.06-50.7-199.26l.07-88.4-.03-141.52c.03-24.99-.57-53.6.55-78.34Z"/>
  <path class="st0" d="M518.73,1382.31c-85.71,17.55-72.45,185.47,20.26,171.02,82.73-20.85,71.46-179.69-20.26-171.02ZM552.54,1527.03c-6.16,4.83-11.37,6.4-18.65,8.37-31.22.54-47.91-19.39-52.25-48.97-4.94-33.65,2.16-79.85,43.13-85.73,59.07-1.6,65.04,97.08,27.78,126.32Z"/>
  <path class="st0" d="M703.17,1393.16c-16.16-12.17-63.54-8.79-85.26-8.68l-.15,166.94c30.19-.11,72.2,5.31,93.88-16.34.97-.97,1.91-1.98,2.83-3,25.18-37.38,28.47-109-11.3-138.92ZM700.74,1519.22c-14.85,16.07-44.2,12.65-64.62,12.78l.07-128.4c14.84.06,44.68-1.8,56.45,6.38,29.45,20.46,26.07,82.72,8.09,109.24Z"/>
  <path class="st0" d="M363.1,1461.92c9.71-7.2,17.53-15.85,18.64-28.44,5.38-60.59-59.18-49.3-97.13-49.1.52,55.63.58,111.27.18,166.92,31.97-.11,82.15,8.55,98.97-23.82,10.88-28.07,6.33-50.28-20.66-65.56ZM354.28,1408.29c14.03,9.11,10.84,27.76,3.15,39.54-2.45,1.96-6.03,4.25-8.7,6.08-13.72,1.25-31.03,1.17-45.09,1.42l-.29-51.8c14.51.05,39.33-2.78,50.93,4.76ZM363.33,1523.43c-12.88,12.29-41.1,8.59-59.88,8.56.1-19.27.08-38.55-.06-57.83,20.55.73,59.61-6.27,65.74,19.38,2.78,11.61.44,20.11-5.8,29.88Z"/>
  <path class="st0" d="M1137.11,1474.38c43.43-7.4,53.88-57.07,22.12-82.63-13.88-11.18-70.73-7.42-92.93-7.3l-.22,165.96,18.31.33.02-74.08c13.88-.21,32.67-2.82,41.67,7.56,12.93,14.92,25.31,41.09,34.9,58.94l5.01,8.02c7.38,0,15.03-.1,22.38.03-12.48-23.18-30.13-63.85-51.25-76.83ZM1084.43,1457.77l-.07-55.15c16.41.14,51.84-2.29,63.97,5.93,5.01,3.33,8.3,8.68,9.03,14.64,1.5,11.68.14,17.77-6.83,26.72-13.57,10.69-47.57,7.87-66.11,7.86Z"/>
  <path class="st0" d="M1547.76,1383.96l-19.66.32c-14.45,52.12-35.93,115.07-52.78,166.77l19.84-.41c4.94-16.96,10.03-33.87,15.28-50.73h43.49s14.19.09,14.19.09c5.12,16.36,11.42,34.97,15.83,51.34l21.17-.47c-19.98-54.69-37.75-111.62-57.35-166.92ZM1543.25,1482.27l-27.65.24c8.06-26.12,16.1-52.28,22.06-78.97,2.06,2.71,22.29,71.14,24.69,78.78l-19.1-.05Z"/>
  <path class="st0" d="M939.92,1384.35l99.04-.26-.13,19.71-80.54-.54.16,52.21c25.1-.23,50.2-.32,75.31-.25l.19,19.41c-11.07-.01-68.44-.77-74.94.83l-.74,2.41.11,53.92,83.7-.29v19.84h-102.3s.15-167,.15-167Z"/>
  <path class="st0" d="M1243.67,1382.27c37.16-2.25,56.35,11.24,61.26,48.84-5.74,1.04-11.62,1.3-17.45,1.74-3.16-21.96-15.41-33.94-38.54-32.19-15.75,1.19-28.11,12.02-26.21,28.74,1.75,15.46,22.63,20.17,34.9,24,28.92,8.02,54.66,21.17,51.07,55.97-1.28,12.36-3.16,17.69-11.23,27.73-10.93,13.6-24.76,16.01-40.87,17.72-38.27-3.04-53.05-20.77-57.46-57.77,5.75-.82,11.53-1.56,17.31-2.21,1.64,11.05,5.42,25.49,15.13,32,13.79,11.21,47.71,11.62,56.03-7.3,24.16-54.88-69.81-32.33-81.44-80.23-3.05-12.32-1.12-25.34,5.4-36.23,8.12-13.36,17.72-17.43,32.1-20.82Z"/>
  <path class="st0" d="M1657.16,1382.38c36.33-2.37,56.49,11.95,60.24,49.26-5.67.46-11.78.62-17.5.88-1.76-9.45-3.17-15.99-10.33-22.93-9.42-11.36-40.55-12.83-48.64.18-17.54,28.18,8.04,38.52,30.37,43.97,13.31,3.24,27.35,9.61,36.54,16.88,20.33,16.08,16.4,51.29.61,68.85-10.06,11.32-26.98,14.64-41.83,15.31-37.12-4.23-51.06-22.05-54.39-57.83,5.59-1.03,11.03-1.58,16.67-2.22,2.74,13.15,4.65,23.65,16.32,32.3,21.58,18.59,67.23,3.27,58.02-27.91-9.32-31.6-79.61-20.19-84.51-62.54-3.32-28.6,9.8-49.54,38.42-54.21Z"/>
  <path class="st0" d="M796.33,1384.42l19.32-.18c11.12,33.33,20.73,70.11,31.49,103.76,4.22,13.22,8.21,32.12,12.9,44.19,11.38-47.17,29.71-100.46,43.65-147.87l18.96.06-4.73,14.77c-5.12,13.22-11.16,34.07-15.66,47.99-11.1,34.81-22.39,69.55-33.86,104.24l-17.81.22c-5.44-14.69-10.86-34.17-15.87-49.5l-38.37-117.68Z"/>
  <path class="st0" d="M1376.99,1384.44h108.32c.21,6.38.03,12.96-.03,19.35-14.92.15-30.13-.05-45.09-.1-.09,33.76-.02,67.5.23,101.26l.18,45.65-18.83.25-.13-146.99-44.94-.15c-.02-6.3.18-12.94.29-19.27Z"/>
  <path class="st0" d="M760.82,1384.58l18.07-.18c.3,55.47.28,110.95-.05,166.43l-18.26.18c.69-55.11.13-111.22.25-166.43Z"/>
  <path class="st0" d="M1336.23,1384.68l18.5-.17c.29,54.13,1.13,111.96-.05,165.8l-18.39.23c.53-55.28.5-110.57-.07-165.85Z"/>
  <path class="st0" d="M416.07,1384.44l18.12-.05c.87,51.74,1.52,114.5.42,166.13l-18.31.54c.26-55.54.18-111.08-.23-166.62Z"/>
</svg>