<svg width="300" height="75" viewBox="0 0 300 75" fill="none" xmlns="http://www.w3.org/2000/svg">
<g clip-path="url(#clip0_1_95)">
<path d="M102.003 28.5995H89.5551C84.6924 28.6454 80.7684 32.5651 80.7684 37.384C80.7684 42.2314 84.7224 46.18 89.6305 46.18L101.664 46.1634C106.566 46.1634 110.531 42.2259 110.531 37.3785C110.531 32.6399 106.742 28.7709 102.003 28.5995Z" fill="url(#paint0_linear_1_95)"/>
<path d="M220.919 65.9225C220.908 70.7699 216.954 74.6798 212.057 74.6798C207.16 74.6798 203.211 70.7699 203.2 65.9225V8.8122C203.217 3.94823 207.165 0.0272755 212.057 0.0272755C216.949 0.0272755 220.908 3.94823 220.919 8.78463L220.93 65.9225H220.919Z" fill="#0F6C58"/>
<path d="M244.412 28.5935C243.094 31.235 242.355 34.2074 242.355 37.3508C242.355 48.2754 251.278 57.1376 262.296 57.1376C270.132 57.1376 276.904 52.6651 280.164 46.1523H262.318C257.432 46.1523 253.45 42.2203 253.45 37.3563C253.45 32.4924 257.432 28.5824 262.318 28.5824C281.52 28.5824 291.121 28.5769 291.121 28.5659C296.029 28.5824 299.994 32.5089 299.994 37.3563C299.994 57.9924 283.125 74.7129 262.312 74.7129C241.5 74.7129 224.642 57.9924 224.642 37.3563C224.642 16.7203 241.517 -0.000297995 262.318 -0.000297995C269.129 -0.000297995 275.515 1.79198 281.046 4.92985L281.035 4.94088C283.737 6.44639 285.568 9.31404 285.568 12.6174C285.568 17.4703 281.603 21.4078 276.711 21.4078C274.996 21.4078 273.392 20.928 272.035 20.0898C269.14 18.485 265.825 17.5861 262.29 17.5861C254.443 17.5861 247.66 22.0696 244.401 28.599" fill="#0F6C58"/>
<path d="M57.5184 5.60816C60.1324 7.13573 61.8033 9.95926 61.8033 13.1743C61.8033 18.0383 57.8272 21.9703 52.9301 21.9703C51.1654 21.9703 49.5441 21.4078 48.1489 20.5199C45.0882 18.6615 41.5147 17.5861 37.6765 17.5861C26.6526 17.5861 17.7298 26.4372 17.7298 37.3563C17.7298 48.2754 26.6526 57.1431 37.6765 57.1431C46.7151 57.1431 54.2978 51.3085 56.7629 43.1468L67.9577 6.84897C69.0938 3.30301 72.4963 0.733158 76.4338 0.733158H110.437C115.324 0.733158 119.294 4.66514 119.294 9.52912C119.294 14.3931 115.324 18.314 110.437 18.314H85.6875C84.0717 18.314 82.682 19.3508 82.1857 20.7901L73.7426 48.1651C69.0717 63.5236 54.6838 74.7019 37.6765 74.7019C16.8585 74.7074 0 57.9868 0 37.3508C0 16.7148 16.8585 0.00521671 37.671 0.00521671C44.9504 0.00521671 51.739 2.04566 57.5129 5.60264" fill="#0F6C58"/>
<path d="M109.147 53.8177L109.158 53.7846L123.767 6.35816C124.842 2.70191 128.239 0.0272755 132.276 0.0272755C132.551 0.0272755 132.767 0.00521671 133.081 0.00521671C133.5 -0.0113274 133.787 0.00521671 134.145 0.00521671C138.116 0.00521671 141.474 2.60816 142.599 6.18169L152.675 38.8839L162.656 6.46845C163.71 2.76808 167.134 0.0272755 171.204 0.0272755C171.474 0.0272755 171.695 0.0162461 172.015 0.0162461C172.417 0.0162461 172.704 0.0272755 173.062 0.0272755C177.044 0.0272755 180.403 2.6247 181.544 6.20375L199.075 63.1651C199.362 64.0254 199.517 64.9464 199.517 65.9004C199.517 70.7589 195.551 74.6854 190.649 74.6854C186.678 74.6854 183.303 72.0935 182.178 68.5089L172.131 35.8949L162.044 68.6357C160.831 72.0383 157.483 74.6909 153.612 74.6909H152.542C152.228 74.6743 152.007 74.6688 151.732 74.6688C147.761 74.6688 144.414 72.0824 143.278 68.5144L133.219 35.8618L123.436 67.6045C122.36 71.2607 118.958 73.9298 114.943 73.9298H80.9448C76.0533 73.9298 72.0882 70.0475 72.0882 65.1835C72.0882 60.3196 76.0533 56.3986 80.9559 56.3986H105.629C107.278 56.3986 108.689 55.3232 109.153 53.8288" fill="#0F6C58"/>
</g>
<defs>
<linearGradient id="paint0_linear_1_95" x1="81.6701" y1="38.0584" x2="111.433" y2="38.0584" gradientUnits="userSpaceOnUse">
<stop stop-color="#1FFF8C"/>
<stop offset="0.1" stop-color="#1FFF8C"/>
<stop offset="0.23" stop-color="#43FF7B"/>
<stop offset="0.46" stop-color="#7AFF61"/>
<stop offset="0.65" stop-color="#A2FF4F"/>
<stop offset="0.81" stop-color="#BAFF44"/>
<stop offset="0.9" stop-color="#C4FF40"/>
<stop offset="1" stop-color="#C4FF40"/>
</linearGradient>
<clipPath id="clip0_1_95">
<rect width="300" height="74.7077" fill="white"/>
</clipPath>
</defs>
</svg>
