<?xml version="1.0" encoding="UTF-8"?>
<svg id="Camada_1" xmlns="http://www.w3.org/2000/svg" xmlns:xlink="http://www.w3.org/1999/xlink" version="1.1" viewBox="0 0 2048 2048">
  <!-- Generator: Adobe Illustrator 30.3.0, SVG Export Plug-In . SVG Version: 2.1.3 Build 182)  -->
  <defs>
    <style>
      .st0 {
        fill: #1a85b4;
      }

      .st1 {
        fill: #234c99;
      }

      .st2 {
        fill: url(#Gradiente_sem_nome_10);
      }

      .st3 {
        fill: #2bacc4;
      }

      .st4 {
        fill: #000108;
      }

      .st5 {
        fill: #010201;
      }

      .st6 {
        fill: #77cadb;
      }

      .st7 {
        fill: #24498a;
      }

      .st8 {
        fill: #097738;
      }

      .st9 {
        fill: #189640;
      }

      .st10 {
        fill: #255199;
      }
    </style>
    <linearGradient id="Gradiente_sem_nome_10" data-name="Gradiente sem nome 10" x1="829.82" y1="1689.21" x2="880.72" y2="945.21" gradientTransform="translate(0 2048) scale(1 -1)" gradientUnits="userSpaceOnUse">
      <stop offset="0" stop-color="#46b430"/>
      <stop offset="1" stop-color="#0e9244"/>
    </linearGradient>
  </defs>
  <path class="st2" d="M950.69,349.44c19.66-3.61,44.25-7.14,64.32-5.11-15.02,6.18-24.43,10.21-38.34,19.03-12.11,8.58-24.53,16.89-35.09,27.38-7.61,7.56-15.06,17.91-22.43,25.2-7.72,10.65-12.51,17.95-18.82,29.49-7.19,14.43-10.41,22.98-15.11,38.41-1.26,4.79-2.63,9.56-4.09,14.29-10.24,62-.81,95.07,26.12,150.53,5.07,7.12,10.62,16.49,15.35,24.01.5.88,1.58,2.55,1.8,3.42,8.45,9.95,16.03,20.8,24.31,30.92,21.09,26.81,45.83,50,69.95,73.98,33.52,33.32,69.68,64.04,103.9,96.48l16.56,16.07c8.62,7.61,51.73,49.42,57.34,57.45l12.69,14.33c19.22,24.02,45.35,68.42,49.02,99.2,6.14,30.03,6.16,50.38,2.7,81.03-1.88,15.42-7.25,32.8-12.67,47.31-50.43,135.17-219.55,181.28-346.96,205.94-14.62-12.87-27.7-27.24-40.86-41.58-60.8-66.21-111.43-141.1-150.23-222.19-9.59-19.87-19.19-45.22-28.09-65.94-5.26-19.08-15.1-40.12-20.98-61.47-17.22-62.52-30.75-166.88-18.28-229.81.07-1.39.78-5.11,1.03-6.68,2.99-33.7,25.12-106.38,36.31-138.71l-1.3-1.72c-9.11,9.55-21.51,32.56-28.22,44.49-38.06,69.94-47.01,119.21-55.86,195.94-1.15-7.23,1.62-20.96-2.46-25.16-9.12.26-14.74-4.65-23.45-6.13-21.26-3.61-73.07-4.64-87.74,12.5,7.19-77.49,16.21-123.32,49.56-195.08,45.89-96.7,119.04-177.88,210.46-233.56,14.63-8.94,38.87-23.29,54.67-29.1,32.58-18.35,104.6-38.75,141.8-43.19,5.13-1.31,7.73-1.52,13.04-1.98Z"/>
  <path class="st8" d="M682.08,1069.1c.22-2.35.1-7.52,2.63-8.36,82.3-27.11,177.37-30.77,261.88-11.1,24.38,5.68,39.13,12.67,62.15,19.55,52.93,14.66,108.02,22.44,162.91,17.11,15.08-1.46,27.09-3.22,41.96-6.41,10.15-2.17,32.14-9.36,40.94-9.79,1.14-3.41.91-3.31,3.64-5.58,6.14,30.03,6.16,50.38,2.7,81.03-1.88,15.42-7.25,32.8-12.67,47.31-50.43,135.17-219.55,181.28-346.96,205.94-14.62-12.87-27.7-27.24-40.86-41.58-60.8-66.21-111.43-141.1-150.23-222.19-9.59-19.87-19.19-45.22-28.09-65.94Z"/>
  <path class="st9" d="M1122.57,877.47l16.56,16.07c-.56,2.43-.01,1.33-1.66,3.3-3.82-.71-5.68-4-8.85-7.4-1.86-.05-.98.02-3.15-.27l-1.66-.23.04,1.29c2.49,2.92,3.75,2.92,7.28,3.84l.86,2.65-.77,1.14c-2.33-1.94-1.38-1.45-4.17-2.49-.6,1.47-.98,2.81-1.47,4.33l-1.68-1.03c-1.64-12.24.65,6.01-.1-3.37-.51-6.6-5.15-5.37-5.91-13.44,2.4-3.81.83-2.47,4.66-4.39Z"/>
  <path class="st9" d="M643.86,771.14c3.12,2.29,3.9,4.24,6.68,6.78l-.32,1.71-2.64-.86c-1.82,7.51.98,7.68-.81,14.35,4.49,2.53,2.39-1.44,5.02,1.7-2.2.79-2.59.87-4.84,1.38l-1.19,3.11-1.63-.72-.89.68c.21-6.54.29-14.97-.41-21.46.07-1.39.78-5.11,1.03-6.68Z"/>
  <path class="st9" d="M1196.47,950.99l12.69,14.33c-5.51.02-6.6.58-11.7,2.37l-1.19-.61c2-8.98,1.18-7.6.21-16.1Z"/>
  <path class="st9" d="M670.02,963.32c3.45,7.28,2.91,5.55.34,13.33-3.41-3.12-3.14-1.9-3.7-5.55,1.54-3.05,2.16-4.65,3.36-7.77Z"/>
  <path class="st3" d="M1032.97,391.07c47.28-21.13,106.31-24.95,156.9-15.05,50.41,8.16,119.42,41.8,159.28,73.97,3.35,2.71,17.67,13.82,20.14,16.54,3.51,2.8,6.98,5.64,10.42,8.52,36.76,32.3,64.54,63.01,92.26,103.62,9.76,14.29,17.86,23.62,24.69,39.99,33.88,59.9,54.59,114.66,65.51,183.17,2.29,14.35,5.11,35.46,4.89,49.77l.11,1.12c6.27,32.4-2.2,133.64-13.53,164.84-2.47,13.32-12.01,46.15-17.58,58.87l-1.4-1.47c-37.29,17.5-76.32,15.82-113.79-.32-30.77-13.26-67.78-19.21-101.05-14.52-4.27.6-9.02-.44-12.68,2-3.63-13.86-8.39-31.5-13.89-44.55-25.47-60.44-75.35-113.29-122.07-158.3-3.8-2.46-14.56-13.9-18.55-17.79-10.81-10.54-22.04-22.19-33.23-32.28-63.29-57.06-122.68-85.75-164.3-163.5-2.65-1.68-6.75-12.4-8.36-15.73-32.15-66.51-30.29-148.23,25.88-201.36,14.2-13.43,41.41-32.94,60.35-37.55Z"/>
  <path class="st6" d="M1032.97,391.07c47.28-21.13,106.31-24.95,156.9-15.05,50.41,8.16,119.42,41.8,159.28,73.97,3.35,2.71,17.67,13.82,20.14,16.54,3.51,2.8,6.98,5.64,10.42,8.52,36.76,32.3,64.54,63.01,92.26,103.62,9.76,14.29,17.86,23.62,24.69,39.99-5.13-5.77-14.83-22.8-19.62-30.32-13.07,6.53-25.93,14.45-39.01,20.45-32.4,14.86-72.45,26.16-108.15,28.41-50.43,3.18-101.93-17.44-150.83-26.89-59.29-11.47-122.16-11.19-180.72,3.93-9.89,2.55-41.85,10.38-47.82,17.16-.31,6.25,4.36,8.43,4.6,14.31-2.65-1.68-6.75-12.4-8.36-15.73-32.15-66.51-30.29-148.23,25.88-201.36,14.2-13.43,41.41-32.94,60.35-37.55Z"/>
  <path class="st0" d="M1351.18,852.21c72.49-22.82,140.22-40.34,213.95-6l1.92,5.41.11,1.12c6.27,32.4-2.2,133.64-13.53,164.84-2.47,13.32-12.01,46.15-17.58,58.87l-1.4-1.47c-37.29,17.5-76.32,15.82-113.79-.32-30.77-13.26-67.78-19.21-101.05-14.52-4.27.6-9.02-.44-12.68,2-3.63-13.86-8.39-31.5-13.89-44.55-25.47-60.44-75.35-113.29-122.07-158.3,1.22-1.88,3.24-3.5,5.6-2.8,57.17,17.03,115.7,19.38,173.59-4l.82-.27Z"/>
  <path class="st1" d="M1307.14,1062.13c3.65-2.44,8.41-1.4,12.68-2,33.27-4.68,70.28,1.26,101.05,14.52,37.47,16.15,76.51,17.82,113.79.32l1.4,1.47c-2.17,5.76-12.97,34.57-16.45,38.32-3.61,8.3-7.09,15.06-11.3,23.1-1.5,3.2-8.41,17.05-10.45,18.75-6.16,12.82-24.69,39.89-33.53,51.02-1.74,2.61-3.64,5.96-5.96,7.94-13.39,18.25-38.35,47.7-55.23,62.89-2.28,2.41-2.77,3.28-5.55,5.06-5.88,6.49-25.22,23.33-32.77,28.89-20.08,19.27-72.34,50.85-98.18,63.43l-9.48,4.46c-3.05,1.56-11.8,6.28-14.77,6.37-7.13,4.02-13.03,6.2-20.63,9.21l-12.35,4.99c-68.68,25.27-146.78,34.66-219.63,30.71-10.86-.59-33.44-1.54-43.29-4.56,15.99-2.36,31.89-5.33,47.66-8.86,9.9-2.4,19.75-5.01,29.52-7.84l2.99-.86c18.44-5.45,36.78-13.43,54.51-20.89,37.07-17.51,71.45-33.73,104.35-58.51,5.36-4.04,11.39-8.55,17-12.15,16.11-15.73,28.08-25.08,45-43.03,4.72-5.75,9.37-11.68,14.6-16.96,28.61-42.15,39.74-67.49,48.33-117.14.15-3.57,1.18-10.22,1.64-14-.8-21.85.16-32.56-3.47-55.5l-1.49-9.13Z"/>
  <path class="st10" d="M1023.67,1410.32c-2.82,7.52-1.13,8.88,3.16,15.39-2.36,2.44-1.99.6-5.4,1.53-15.04-.83-24,.07-38.7-.45l-.39-.62c4.81-1.55,9.34-2.93,14.03-4.83l.32-1.62-2.54-1.55c9.9-2.4,19.75-5.01,29.52-7.84Z"/>
  <path class="st7" d="M1081.17,1388.57c3.26-.19,6.31-.85,8.95.74l.34,2.09-1.56,1.42c-10.32-1.98-54.91,26.91-62.23,16.64,18.44-5.45,36.78-13.43,54.51-20.89Z"/>
  <path class="st7" d="M1221.76,1395.88c-3.67.04-5.13.39-8.35-1.42,1.86-3.19,18.87-7.02,23.11-8.36,4.1-1.29,2.92-1.15,5.86.57-7.13,4.02-13.03,6.2-20.63,9.21Z"/>
  <path class="st9" d="M481.15,852.35c14.67-17.14,66.48-16.11,87.74-12.5,8.71,1.48,14.32,6.4,23.45,6.13,4.09,4.2,1.31,17.93,2.46,25.16-.04,14.45-.92,28.99-.51,43.5,1.31,46.74,6.9,95.25,19.09,140.46,1.92,7.13,5.55,20.8,8.22,27.24-27.6,3.79-61.52,21.01-79.23,42.99-2.29,2.84-3.42,4.49-3.93,8.13-44.01-86.85-63.81-183.96-57.3-281.12Z"/>
  <path class="st8" d="M538.45,1133.47c.51-3.64,1.64-5.28,3.93-8.13,17.7-21.98,51.62-39.2,79.23-42.99l.2,1.83c1,2.82,6.01,16.4,6.4,18.48,32.99,80.02,67.22,149.03,124.51,215.23,5.37,6.2,13.98,15.45,18.46,21.97,18.13,18.7,36.1,37.99,55.34,55.53-16.86-6.33-55.23-23.97-70.05-33.96-9.92-3.5-39.37-23.61-49.48-31.05-77.7-57.14-123.37-113.14-168.52-196.91Z"/>
  <path class="st5" d="M1628.75,1524.32c-14.78.35-29.56.54-44.35.59-12.73,37.01-26.81,74.24-39.13,111.11-8.76-32.52-27.06-78.91-39.39-111.07-14.67-.81-29.77-.34-44.49-.14l.42,113.85c.07,16.22,1.04,46.65-.1,62.2,12.34.04,24.66-.11,37-.46-2.41-28.63-.84-66.63-2.76-98.44-1.32-5.64-2.25-21.17-2.24-27.29,2.53,6.91,3.71,11.16,5.48,18.3,10.66,29.91,24.3,63.41,33.83,92.97l23.18-.21c10.11-27.49,24.84-62.61,33.07-89.5,1.59-7.61,4.37-14.94,8.25-21.69-1.01,7.34-1.96,14.73-3.23,22.03-5.29,28.7.01,74.49-2.46,104.39,12.33-.22,25.43-.67,37.69-.6-2.06-55.89,2.87-121.82-.77-176.04Z"/>
  <path class="st5" d="M876.32,1525.24c-12.75-.16-25.5-.26-38.25-.3-.11,18.74-.15,37.46-.2,56.2-.02,7.6,1.08,18.68.82,25.5,1.4,13.65,3.13,28.64,3.73,42.25-2.5-4.33-5.3-8.55-6.7-13.31-3.94-8.84-9.1-18.71-13.43-27.49l-3.52-6.92c-13.56-25.81-26.4-51.16-40.32-76.86-14.13.48-28.28.61-42.41.39v116.17c.05,13.89,1.15,48.11.02,59.88,12.71-.17,26.65-.63,39.25-.39-.14-25.9.27-52.54-.69-78.39-.58-15.65-4.34-33.3-6.07-48.97,8.89,16.68,16.37,34.11,25.12,50.86,13.4,25.64,28.4,51.15,41.28,77l41.96-.36c.09-55.42,1.58-120.14-.6-175.26Z"/>
  <path class="st5" d="M1287.27,1573.07c-6.5-58.56-89.33-48.52-132.74-47.84-1.07,57.89-.25,117.71-.09,175.76,13.14-.32,27.41-.95,40.45-.61-.04-19.89-.26-39.8-.67-59.7,11.7.46,20.59.6,32.41.21,37.74-4.23,65.23-26.47,60.64-67.82ZM1239,1601.82c-10.18,9.35-32.23,7.31-45.31,7.01.7-15.32-.32-36.63,1.28-51.12,10.55-1.38,30.29-1.37,39.82,3.6,15.83,6.57,15.13,30.49,4.21,40.51Z"/>
  <path class="st5" d="M1423.39,1640.55c-12.62-38.46-24.97-77.01-37.04-115.64-16.34-.09-33.25.05-49.54-.3-16.7,58.62-39.6,118.19-55.43,176.09l42.15.03c2.88-13.91,6.51-27.75,9.96-41.54l53.89-.32c3.48,6.7,10.02,33.38,11.59,41.69,14.84.16,29.69.04,44.54-.35-4.63-9.1-16.32-47.83-20.12-59.67ZM1363.32,1627.31l-21.13-.59c6.9-22.4,11.45-46.3,18.53-68.07,2.65,2.8,17.12,60.05,19.39,68.5l-16.79.16Z"/>
  <path class="st5" d="M586.7,1525.33c36.97-.6,73.95-.83,110.93-.69l.13,33.58c-21.42,1.28-48.93.61-70.81.55.71,11.35.74,23.41.95,34.82,15.98-.15,45.68-1.47,60.33-.18.18,11.19.27,22.39.25,33.58-20.31-.15-40.62.08-60.92.68l-.17,15.21-.15,23.49c24.17.37,49.02.13,73.31.35-.07,11.22-.08,22.45-.01,33.68-37.5-.39-77.03.36-114.56.8l-.06-118.63c.01-14.33-.77-44.09.77-57.25Z"/>
  <path class="st5" d="M967.65,1522.04c26.48-2.49,50.48,3.98,69.49,23.08-7.92,9.08-13.57,16.21-20.79,25.79-49.82-36.67-91.5,7.51-25.92,24.29,80.01,20.47,61.79,106.92-15.91,109.06-28-.6-46.09-8.53-67.24-26.49,7.97-8.04,15.5-18.15,22.67-27.09,16.92,11.74,29.48,19.01,51.11,17.97,7.18,1.29,22.49-9.69,19.09-17.87-7.81-18.79-44.24-24.22-60.55-34.78-26.4-17.11-34.21-40.83-16.94-67.56,10.72-16.58,27.02-22.56,44.98-26.39Z"/>
  <path class="st5" d="M490.48,1522.71c11.73-2.09,27.1-1.5,38.03,3.52,11.35,2.58,20.65,10.57,28.92,18.25-7.73,8.65-15.22,17.52-22.45,26.6-8.11-6.98-15.23-12.64-26.41-14.16-60.68-8.24-65.72,111.92-6.8,111.88,16.49-.01,25.16-5.5,36.66-16.22,8.08,10.03,13.73,16.4,22.52,25.76-30.34,30.45-78.6,34.74-112.45,7.71-54.98-43.9-32.9-157.78,41.98-163.34Z"/>
  <path class="st4" d="M490.48,1522.71c11.73-2.09,27.1-1.5,38.03,3.52-7.34-.3-10.85,3.12-14.77,2.79l-1.86-3.31c-3.12-1.71-16.96-2.57-21.4-3Z"/>
  <path class="st5" d="M1071.9,1525.18c13.5-.56,27.06-.15,40.57.08-.01,19.89.74,172.57-.66,174.94-13.49.49-26.99.65-40.49.47,2.42-55.5.57-119.65.58-175.49Z"/>
</svg>