<?xml version="1.0" encoding="UTF-8"?>
<svg id="Camada_1" xmlns="http://www.w3.org/2000/svg" version="1.1" viewBox="0 0 520 660">
  <!-- Generator: Adobe Illustrator 30.3.0, SVG Export Plug-In . SVG Version: 2.1.3 Build 182)  -->
  <defs>
    <style>
      .st0 {
        fill: #a0e4fa;
      }

      .st1 {
        fill: #f13924;
      }

      .st2 {
        fill: #db9b3c;
      }

      .st3 {
        fill: #f63432;
      }

      .st4 {
        fill: #dfb531;
      }

      .st5 {
        fill: #fb3437;
      }

      .st6 {
        fill: #009de0;
      }

      .st7 {
        fill: #373622;
      }

      .st8 {
        fill: #e9eadd;
      }

      .st9 {
        fill: #c3a95d;
      }

      .st10 {
        fill: #3b3932;
      }

      .st11 {
        fill: #aae9f8;
      }

      .st12 {
        fill: #fcfdfc;
      }

      .st13 {
        fill: #01a1da;
      }

      .st14 {
        fill: #fff;
      }

      .st15 {
        fill: #f9f9f5;
      }

      .st16 {
        fill: #fdd332;
      }

      .st17 {
        fill: #fdd42a;
      }

      .st18 {
        fill: #b5d1b7;
      }

      .st19 {
        fill: #745817;
      }

      .st20 {
        fill: #39352b;
      }

      .st21 {
        fill: #049acd;
      }

      .st22 {
        fill: #956b1c;
      }

      .st23 {
        fill: #363237;
      }

      .st24 {
        fill: #a9edf7;
      }
    </style>
  </defs>
  <path class="st16" d="M312.35,12.99c20.87-.72,45.19-.09,66.24-.09h115.73s-.03,312.84-.03,312.84l-.04,74.16c0,8.1.72,27.8-.42,34.68-.04,6.88-1.51,17.16-2.74,23.96-8.56,47.46-31.6,89.53-65.74,123.26-10.57,10.3-22.17,19.48-34.62,27.41-42.29,27.5-85.44,38.47-135.51,38.14-62.4-.14-122.17-25.13-166.11-69.43-3.64-3.77-7.19-7.62-10.64-11.57-16.66-19.93-26.95-35.87-36.79-60.14-1.32-2.33-4.43-11.8-5.39-14.55-12.4-35.83-11.19-75.27-10.25-112.99-.26-1.93-.24-5.5-.2-7.46.56-29.26-.49-58.76.26-87.99-.14-2.33-.2-5.23-.14-7.57.38-13.52-.55-27.66.22-41.11-.32-1.92-.21-9.69-.2-11.82l.06-24.48c0-28.39-.28-57.32.12-85.67-.19-7.4-.2-14.81-.03-22.21-.48-6.39-.08-19.17-.08-25.84l-.04-51.6c18.31.19,36.93-.06,55.27-.04l177.79.13c17.02-.12,36.41-.51,53.25,0Z"/>
  <path class="st17" d="M26.05,12.91c18.31.19,36.93-.06,55.27-.04l177.79.13-.56.18c-4.87,1.5-19.27.84-25.71.91l-54.31.44c-9.64,0-19.38.04-29.02-.13-2.2-.04-4.31,1.7-6.19,1.71-4.11.02-8.23-.64-12.25-1.26-2.2-.34-7.86.81-10.13,1.08-3.84.46-9.64-.6-13.99-.57-4.39.03-6.06.45-10.17.78l.34,2.14-.51.3c-1.57-1.6,1.47-1.58-2.08-2.01.28-.49.1-.35.45-.53-8.73-.42-18.76-.68-27.71,0-.6.05-2.7,1.47-3.29,1.88l-.42-.12c.84-.92.79-.5.84-1.39-8.54-1.44-20.42-.1-29.14-.12-1.02,0-1.96-.85-3.08-.94-.47,1.2-.72,2.35-1.58,3.19-1.22-.22-1.12-.59-1.89-1.71-3.02,6.52-.65,18.16-1.54,24.27-.79,5.43.28,48.15-1.01,49.27-.48-6.39-.08-19.17-.08-25.84l-.04-51.6Z"/>
  <path class="st4" d="M41.7,506.21c2.94.97,9.53,19.36,12.93,23.53l.85-1.18,1-.13c1.61,1.66.37,2.4-.16,4.4.43.74.8,1.41,1.31,2.11.89,1.62,2,4.04,3.35,5.15,1.38-.21,1.09-.39,2.28-1.84,2.19,2.1-.66,3.91.06,6.13,2.34.68.26-1.52,2.55.53.33,2.51-.44,1.95.59,3.85,1.71.36,1.98.31,3.71.07l.58.4-.77,3.02c4.07,4.96,5.6,6.97,8.66,12.82l-.14,1.29c-16.66-19.93-26.95-35.87-36.79-60.14Z"/>
  <path class="st17" d="M57.64,534.94c.17-1.64-.13-1.57.78-2.35.91.24,1.18.24,1.95.79l-.66,1.74c-1.07.19-1.02.13-2.08-.18Z"/>
  <path class="st15" d="M235.6,155.68l.38-.61c3.32.03,13.3.19,15.9-1.13l.35-.67c-.64-.95-1.61-.91-2.78-1.09,1.6-.55,2.82-1.03,4.38-1.7.21.76.23.46.07,1.2l-.37-.87c-.81,1.07-.64.48-.54,1.8,2.14,2.7,3.28.5,4.92,3.14,1.05,1.68.21,2.76,2.3,2.77,1.52,0-.9,4.99-1.27,5.86l.38.48c2.2,2.78,1.76,3.92,1.9,7.31,1.59-.42,2.77-1.2,4.21-2-.02-2.75-.51-12.76.71-14.2h.36s212.94,0,212.94,0v177.96l.02,66.65c0,9.62.48,25.16-.37,34.31-1.31,14.02-3.79,27.91-7.41,41.53-2.64,9.75-6.35,19.48-10.53,28.65-10.76,24.02-25.91,45.82-44.68,64.28-11.95,11.91-27.64,23.64-42.14,32.41-6.87,4.16-14.86,7.46-21.67,11.24-.86.38-1.49.58-2.2,1.2l-1.97.56-4.52,1.84c-23.05,8.46-52.94,16.22-77.64,15.76-.01-4.89.81-26.05.03-28.81-5.31,4.07-1.84,4.05-10.21,3.66.07,3.19.25,22.4-.48,24.26-3.94,3.24-38.27-2.64-44.01-3.82-6.14-1.24-12.21-2.8-18.19-4.68l-2.59-.46c-2.48-.97-5.01-1.8-7.51-2.71-25.8-9.41-51.27-23.39-71.86-41.78-.93-1.21-2.21-2.12-3.42-3.09-2.97-2.87-5.9-5.8-8.79-8.75-26.17-27.26-42.7-55.72-52.31-92.61-7.92-30.38-6.32-55.87-6.25-86.75l-.05-66.48.06-94.09c0-22.94-.26-47.16.21-70.01,1.93.01,3.86-.02,5.8-.09,9.45-.04,21.96.19,31.16-.52,7.57.37,14.43.38,21.99.34l57.74.07c6.55.02,18.41-.63,24.22-.06,17.39,0,36.46.08,53.69-.3Z"/>
  <path class="st0" d="M266.5,155.97h212.94v177.97l.02,66.65c0,9.62.48,25.16-.37,34.31-1.31,14.02-3.79,27.91-7.41,41.53-2.64,9.75-6.35,19.48-10.53,28.65-10.76,24.02-25.91,45.82-44.68,64.28-11.95,11.91-27.64,23.64-42.14,32.41-6.87,4.16-14.86,7.46-21.67,11.24-.86.38-1.49.58-2.2,1.2l-1.97.56-4.52,1.84c-23.05,8.46-52.94,16.22-77.64,15.76-.01-4.89.81-26.05.03-28.81.37-.94,1.45-7.5,1.78-9.05l.32-.71c.96-1.81.16-2.07,2.33-4.31-.51-1.3-.58-1.58-.88-2.95-.31.53-.57.58-1.16.99-.77-.14-.5-.09-1.2-.61-1.65-2.97-1.11-18.84-.22-22.82.26-.37.46-.68.6-1.11.33-1.04-1.24-14.51-1.25-17.75l.12-194.68c0-6.02.36-41.55-.88-44.36-1.48-.84-1.33-.54-3.32-.52,3.15-.31,5.85-.64,8.99-1.08,1.5,1.28,7.46-2.76,9.5-3.42.54-2.72-5.92-9.2-1.05-13.25l1.01.17c6.24,5.8.1,9.15,2.06,11.92l.92.02c3.48-2.45,8.56-17.02,9.62-21.33.53-.5.79-1.38,1.1-2.11,2.44-5.41,5.13-8.82,8.56-13.71.24-1.33-.81-3.63-1.31-5.03,1.43-5.94,3.78-4.49,8.18-3.4,2.1.52,6.21-3.71,8.12-4.88,1.29-.79,2.65-4.12,3.37-5.64,1.25-1.65,1.48-2.24,2.31-4.08,2.87-3.02,1.97-10.12.85-13.84-.55-1.9-1.07-2.46-2.17-4.07.81-.97.5-.42.76-1.82-1.13-2.32-6.39-12.47-8.06-14.17-.83-1.83-1.27-3.11-2.72-4.55.52-1.89-1.41-6.02-.62-7.62,2.91-5.62,6.04-10.63,5.9-17.17-.05-2.72-.72-11.16-4.26-10.43-5.01,1.27-11.54,3.79-15.88,6.51-2.85,1.79-2.04,6.35-7.08,6.53l-.41.6c-1.98-2.04-10.21-3.83-14.39-6.11l-.1-.69c-1.78-1.19-2.52-1.28-4.54-1.78-1.39-.53-2.8-1.02-4.23-1.44-1.16-2.45-.87-10.97-.57-13.85Z"/>
  <path class="st17" d="M287.74,553.28c10.3-4.72,14.68.05,23.34,3.43l.11-.17.79.57c.38,1.52,3.13,4.71,4.11,6.22,5.26,8.1,5.73,17.31,1.1,25.8-6.61,13.35-23.08,18.07-36.16,11.55-4.56-2.27-7.53-6.96-10.24-11.19-.51-1.3-.58-1.58-.88-2.95-3.74-13.3,3.26-30.5,17.82-33.26Z"/>
  <path class="st16" d="M287.74,553.28c10.3-4.72,14.68.05,23.34,3.43.01,1.25-.05,1.59-.27,2.83l-.67.46c-1.42-.38-2.09-1.4-3.06-2.12-.35-.25-1.3.86-2.61.01.11-1.1.21-1.21-.17-2.28-1.08-.42-14.91-2.35-16.56-2.33Z"/>
  <path class="st11" d="M292.18,561.01c15.26-.6,21.36,26.19,5.42,33.47-17.09,1.93-20.21-29.22-5.42-33.47Z"/>
  <path class="st17" d="M349.7,531.44l.8-.29c1.87.99,3.04,4.83,2.14,6.88-.63.4-.98.79-1.57.75-.47.5-1.67,1.77-1.52,2.52,2.24,12.09,9.09,23.3,12.33,35.14.75,2.73-5,5.13-6.95,6.71-3.53-3.53-12.83-13.12-16.45-15.56-1.51-1.51-7.35-7.48-9.47-6.89l-.31,1.25c.56,1.56,1.2,3.21,1.68,4.78-.16,4.29-.28,13.63,2.4,16.88,1.42.44,1.62.41,3.13.44,2.88,4.7-2.6,2.76,5.59,4.68-1.25.73-5.48,2.88-6.73,3.12-2.53,1.6-6.84,4.94-9.17,2.07-.2-1.57-.29-2-.83-3.51l-.13-.36c.26-1.27,3.06-3.53,4.18-5.37-2.85-6.61-7.86-23.15-11.65-28.59-1.48-.38-2.32.11-3.96.52l-1.23.51-.79-.57c-.31-1.83-1.69-3.32-1.38-5.75,2.06-1.24,14.95-7.15,17.09-7.92,2.69.24,15.8,14.64,19.67,17.03l.52-.26c-.28-2.48-4.63-14.13-6.93-15-1.62.43-2.07.66-3.68.49-1.4-.82-1.53-.83-2.34-2.18-.81-4.55,11.77-10.14,15.55-11.52Z"/>
  <path class="st16" d="M328.7,561.94c-.73-.44-.55-.15-.86-.78l-.16-.09.02-1.72c3.13-.8,11.82-.11,13.48,3.04-.27,1.25-.59,1.64-1.24,2.72,0,.76,0,1.14.07,1.9l-1.53.57c-1.51-1.51-7.35-7.48-9.47-6.89l-.31,1.25Z"/>
  <path class="st16" d="M311.2,556.54c-.31-1.83-1.69-3.32-1.38-5.75,2.1-.07,4.32-.26,6.24.62.79,2.46-2,2.38-2.84,5.2l-1.23.51-.79-.57Z"/>
  <path class="st16" d="M336.93,558.25c1.72-.19,1.85-.53,2.94.19l.26,2.07c-2.21-.53-2.02-.63-3.2-2.26Z"/>
  <path class="st16" d="M327.31,568.46c.36-.2.79-.2,1.14.01.35.21.55.6.53,1-.02.41-.26.78-.62.95-.54.27-1.2.06-1.48-.47-.28-.53-.09-1.2.43-1.5Z"/>
  <path class="st16" d="M330.38,566.73l.26.53c1.97,4.16,4.09,11.62,5.97,14.91,3.1.99,4.18-3.39,6.83,1.37.67,1.2.68,2.09.44,3.39-.88,1.2-.97,1.2-2.38,1.8-8.19-1.92-2.71.02-5.59-4.68-1.51-.03-1.71,0-3.13-.44-2.68-3.24-2.56-12.59-2.4-16.88Z"/>
  <path class="st0" d="M267.25,156.88h86.72c5.56,0,52.41-.38,53.49.47,14.14-1.06,29.59-.14,43.87-.07,4.94.02,23.6-.73,26.6.04.89,28.71.4,56.01.32,84.62l.31,83.05v65.67c-.03,22.32.32,51.47-4.75,73.17-8.35,37.01-26.45,71.11-52.43,98.76-4.25,4.53-27.31,26.53-32.2,27.79-8.41,7.39-34.4,21.52-45.13,24.77-.08.05-.16.11-.23.16-12,5.24-24.44,7.95-36.92,11.56-1.93.56-6.34.46-8.54.92-1.18.25-3.35,1.01-4.23,1.1-5.55.55-21.56,2.99-26.32,1.96-1.53-2.02-.3-36.64,2.76-39.06,2.07,1.51,4.13,5.25,6.81,7.66,8.51,7.65,29.61,6.6,36.27-3.29,3.55-3.92,6.02-9.05,7.32-14.15l.73-.19c1.02.73,1.04.67,2.23.89,1.04-.46,1.6-.57,2.26-1.51.75,1.68,1.23,2.55.75,4.27-1.37,1.61-2.86,2.07-3.43,4.01.1,2.56,1.03,3.42,1.66,5.59.53.93.5.86,1.43,1.4,2.66-.03,12.99-5.42,16.21-6.91.08-.27,2.75-2,3.19-2.3.77-.74.28-2.07,1.98-3.44,2.31-1.86,2.08-1.57,4.67-1.05,2.53,2.45,5.15-.48,7.75-1.65l.29-.13c.55-.26,1.22-.53,1.68-.93,3.68-3.15-11.87-32.08-11.49-38.92.64-1.11.72-1.04,1.85-1.58,3.67-3.1,5-7.89,10.95-3.21-.56-1.42-1.36-2.39-2.25-3.63-3,1.36-7.52,2.93-7.61-2.86-.04-2.55,3.46-4.45,5.52-5.85,3.38-2.56,6.96-5.07,10.39-7.64-.34.02-8.03.74-7.66.59l.27,2.01c-.66.6-5.48,4.48-6.25,4.55-.95.09-2.25-1.36-4.15-1.31l-.26.42c.63,1.08.73,2.49.94,3.7-5.45,3.33-14.8,8.2-20.85,11.23-.37.18-1.56-.63-2.82-.01.68.68,1.19,1.13,1.72,1.93l-.89.37-.2.79h-.6c-7,.18-11.64,4.19-17.96,6.89-2.15.93-2.17-.66-3.36.17-.49,1.36-.17,1.16-1.15,1.76l-.3-.46.52.45-.71-1.03-1.08,1.28-.55-.07-.3-1.66-.03.62c-.04.68-.04.8-.3,1.45-1.36.21-1.62-.33-3.04-1.22l.36-.57c.94.1,1.23.27,2.02-.05-.13-.83-.17-1.18-.37-1.98-.43-1.73,1.72-5.18.06-6.44-1.62-1.23-3.88-.99-5.71-1.33-5.45-.79-6.8-6.41-12.12-1.3l-.84-.02c-3.05,3.14-8.3,5.74-8.82,9.19.84,2.74,3.72,4.37,6.05,6v.57c-1.13.93-10.47,9.14-10.47,9.15-.87-1.2-.2-1.98-.35-3.38-.34-.69-1.07-1.98-1.35-2.64-1.76-4.24-.93-11.59-1.09-16.31-.46-18.57-.61-37.15-.47-55.73l.06-127.7c0-15.53-.06-31.19-.11-46.73,0-2.54,7.03-4.58,8.98-4.71,2.07-1.29,2.64-1.88,4.98-.98l1.14-.35c.9-2.36,4.04-4.34,5-6.12,3.14-5.86,4.49-11.34,6.62-17.17,3.36-9.33,9.64-15.19,15.74-22.07,13.01-14.65,10.95-2.07,17.52.17l.71-.61c.03-2.1-5.69-6.99-7.63-9.44.23-1.85,3.68-4.6,4.09-6.94.1-.58.47-.64,1.16-1.15,1.55.14.98-.02,2.32.97l1.72.86c2.91,1.17,6.04,3.92,8.58,5.9l.85-.29c.37-4.24-8.95-6.96-11.76-9.68-1.83-1.77-.68-8.83-1.07-11.15-.1-.61-1.61-3.49-2-4.49l.49-.77c7.47-1.87,22.72,7.04,27.13,7.25l.21-.53c-2.32-3.52-15.35-6.99-19.59-8.62-1.13-.43-9.17-.55-9.68-1.81-.92-3.25-10.97-18.88-9.97-21.68,2.62-7.31,10.81-23.16,1.88-31.55-3.48.16-15.58,5.46-18.36,7.9-1.28,1.12-2.45,3.95-4.52,5.43-.89.02-21.38-7.96-23.89-8.86-1.47-1.68-1-9.6-.98-12.15Z"/>
  <path class="st16" d="M389.2,497.04c11.42,5.77,22.87,12.13,34.23,18.11,5.84,2.57,4.27-3.24,10.42,4.79-1.58,1.66-3.44,3.71-5.05,5.27-2.45,2.2-9.11,9.56-11.44,10.1-.17-.06-1.02-.37-1.14-.46l-.64.96c-2.98-.43-1.2-1.6-4.06-1.49l-.67.54.94,1.42c-1.79.4-1.29-1.23-2.32-.23.42,1.78.56,1.19-.19,2.48-1.6-2.05-1.56-2.39-4.02-2.06-.57-1.58-2.12-4.69-3.3-5.81-1.14,1.27-1.52,1.57-2.2,3.09-.46-.44-.11-1.04-1.08-1.86-1.21.75-.82.45-1.29,2.31l-1.24.47-.69-.34.28-2.54c-.72-1.38-.24-.94-1.87-1.53-1.04.24-2.4,1.78-3.07,2.69-1.47-4.98-9.92-25.6-9.24-28.4,2.7-2.87,4.68-4.89,7.63-7.52Z"/>
  <path class="st17" d="M381.58,504.56c2.12,0,2.14-.37,3.48.79,1.46,3.2-1.35,4.33,1.77,6.01l.91-.12.96-1.43.86-.16c.63.98.59,1.33.73,2.46,1.47.98,1.72.95,3.5,1.33l.16.25c2.01,1.27,6.87,3.92,8.07,5.38,2,.17,5.8.26,7.11,1.66.29,1.42-.21,1.88-.83,3.41-1.57,2.55-4.38,4.24-6.32,6.52-1.14,1.27-1.52,1.57-2.2,3.09-.46-.44-.11-1.04-1.08-1.86-1.21.75-.82.45-1.29,2.31l-1.24.47-.69-.34.28-2.54c-.72-1.38-.24-.94-1.87-1.53-1.04.24-2.4,1.78-3.07,2.69-1.47-4.98-9.92-25.6-9.24-28.4Z"/>
  <path class="st18" d="M393.94,513.7c2.01,1.27,6.87,3.92,8.07,5.38-1.48,1.62-2.73,3.29-4.67,4.2l-.81-.31c-1.5-2.06-2.74-5.8-3.28-8.29l.69-.98Z"/>
  <path class="st11" d="M408.29,524.15c2.91-.57,5.09-.41,6.01,2.55-.13,1.67-1.07,2.36-2.23,3.66l4.15,4.49-.64.96c-2.98-.43-1.2-1.6-4.06-1.49l-.67.54.94,1.42c-1.79.4-1.29-1.23-2.32-.23.42,1.78.56,1.19-.19,2.48-1.6-2.05-1.56-2.39-4.02-2.06-.57-1.58-2.12-4.69-3.3-5.81,1.93-2.28,4.75-3.97,6.32-6.52Z"/>
  <path class="st16" d="M390.82,532.96c.66-.92,2.02-2.45,3.07-2.69,1.62.59,1.15.15,1.87,1.53l-.28,2.54.69.34,1.24-.47c.47-1.86.08-1.56,1.29-2.31.97.82.63,1.42,1.08,1.86.68-1.52,1.07-1.82,2.2-3.09,1.18,1.12,2.72,4.23,3.3,5.81,2.46-.33,2.41,0,4.02,2.06l2.25,3.45c-3.85,4.13-7.51,7.6-11.64,11.48-8.29,7.15-14.59,10.83-22.89,17.29-1.24-2.42-2.5-4.84-3.8-7.23l3.91-4.24c-1.42-3.94-3.27-6.62-5.53-10.07.65-.5.83-.49,1.61-.74,1.08-2.99,3.34-1.46,4.85-5.4-.47-2.42,0-1.77,1.46-3.76.04-1.02.08-1.87.1-2.56.72,1.21,2.1,3.37,2.59,4.59,1.97,3.2,4.26,8.82,7.15,9.9,2.62-.3,2.86-1.06,4.61-3.26l.43-.54c1.51-2.88-2.52-11.09-3.6-14.47Z"/>
  <path class="st24" d="M399.77,533.76c.68-1.52,1.07-1.82,2.2-3.09,1.18,1.12,2.72,4.23,3.3,5.81-.84,1.01-.82,1.16-2.08,1.58-1.65-.75-2.41-2.61-3.42-4.3Z"/>
  <path class="st17" d="M369.74,516.35c1.7-1.15,1.08-1.08,2.84-1.05,1.99.99,3.39,3.76,4.46,5.74l-3.91,4.39c1.99,3.97,4.19,7.53,6.49,11.33-.03.68-.06,1.53-.1,2.56-1.46,1.99-1.93,1.35-1.46,3.76-1.5,3.94-3.76,2.41-4.85,5.4-.78.25-.96.24-1.61.74-2.25-3.03-4.67-8.03-7.1-11.66l-.81-1.22c-.56-1.42-1.36-2.39-2.25-3.63-3,1.36-7.52,2.93-7.61-2.86-.04-2.55,3.46-4.45,5.52-5.85,3.38-2.56,6.96-5.07,10.39-7.64Z"/>
  <path class="st11" d="M344.05,615.15c1.67-2.75,11.43-6.25,14.98-8.77l.43-.31c.89,0,1.32,0,2.21-.1.27-4.4,1.88-1.96,4.66-3.23-.29-.56-.58-1.09-.89-1.64l.46-.75c2.06-.68,4,.62,5.1.23,5.07-1.76,13.25-11,18.18-10.22-8.41,7.39-34.4,21.52-45.13,24.77Z"/>
  <path class="st24" d="M326.21,581.2c.75,1.68,1.23,2.55.75,4.27-1.37,1.61-2.86,2.07-3.43,4.01.1,2.56,1.03,3.42,1.66,5.59-.94-.12-1.85-.22-2.77-.44.11-1.56.07-2.96-.94-4.25l-.34,2.35-.33.2-.29-2.48-.69-.48c-2.28,1.46-1.58,6.74-6.15,6.21,3.55-3.92,6.02-9.05,7.32-14.15l.73-.19c1.02.73,1.04.67,2.23.89,1.04-.46,1.6-.57,2.26-1.51Z"/>
  <path class="st11" d="M353.97,156.88c5.56,0,52.41-.38,53.49.48-2.12,1.26-27.54-.43-31.43,1.47l-.4,1.43-.73.25c-.2-.12-1.71-1-1.74-1.03-3.58-3.59-15.69.08-19.19-2.6Z"/>
  <path class="st24" d="M352.66,582.77c2.53,2.45,5.15-.48,7.75-1.65l.29-.13c-1.24,2.89-5.22,5.61-8.46,4.64-.67-.91-1.09-1.6-1.67-2.56l-.22.39c.73,2.17,1.12,2.11.52,4.02l-.41.09-.61-.92c-2.61.79-4.86,3.44-7.02,2.91.08-.27,2.75-2,3.19-2.3.77-.74.28-2.07,1.98-3.44,2.31-1.86,2.08-1.57,4.67-1.05Z"/>
  <path class="st11" d="M352.75,539.55c3.67-3.1,5-7.89,10.95-3.21l.81,1.22c-.84.66-1.2.92-1.91,1.76l-.59-.32-.31-1.68c-2.61.73-5.2.79-7.1,2.3l-1.85-.06Z"/>
  <path class="st24" d="M328.22,241.11l1.72.86c.85,1.33,1.22,1.7.26,3.04l-1.19-.12c-1.37-.86-1.63-.9-2.33-2.28l.61-1.24-.66.81.45-.69c-.48.46-.24.28-.72.57l.37-.62,1.5-.32Z"/>
  <path class="st11" d="M276.57,304.79c2.07-1.29,2.64-1.88,4.98-.98-.29,2.05-.07,2.39-2.39,2.73-2.18-.68-1.57-.16-2.59-1.75Z"/>
  <path class="st2" d="M381.55,423.31c-.37-28.91.28-58.32.01-87.36-.11-12.16-.59-27.41.61-39.35.26-2.55,6.94-13.66,8.91-16.04,2.24,3.31,7.88,13.52,8.67,17.34.69,3.32.51,11.99.5,15.71l-.2,26.56-.08,83.7c1.36.94,2.44,1.92,3.68,3,4.24-1.91,8.14-4.59,12.59-5.81,1.37-.58.72-.57,1.99-.3,1.29,2.01-.15,24.27.69,28.23.05.25-.5,1.09-.71,1.36-5.21,1.88-13.27-7-15.98-2.09-1.06,1.93-.33,8.11-1.38,9.4-.6,1.39-.36,13.53-.69,17.04l.53.38c2.07,1.5,3.54,2.58,3.97,5.27-.8,3.54-4.65,4.09-6.63,6.35-5.89,6.71-15.71.74-21.4-4.36-1.93-5.76,4.17-5.75,4.13-8.17-.15-9.56-.1-19.16-.33-28.7-.02-1.05-1.42-2.05-2.2-2.55-3.25-.15-10.26,4.15-14.05,5.65l-.52.21c-.6-6.04-.28-22.18-.1-28.7,4.71,1.48,9.28,4.11,13.65,6.42,1.42-1.18,2.82-2.13,4.33-3.18Z"/>
  <path class="st11" d="M416.25,421.07c1.37-.58.72-.57,1.99-.3,1.29,2.01-.15,24.27.69,28.23.05.25-.5,1.09-.71,1.36-5.21,1.88-13.27-7-15.98-2.09-1.06,1.93-.33,8.11-1.38,9.4-.61-2.45-.99-11.98.33-13.9,5.11-2.48,11.3,5.35,15.87,4.56.89-1.8-.13-19.84.38-23.17.24-1.56.09-3.05-1.19-4.08Z"/>
  <path class="st1" d="M390.59,285.97c1.61.72,5.7,8.83,7.04,11.05.61,23.09-.3,46.92-.14,70.05l.2,36.54c0,6.01.17,15.47-.67,21.15-1.14.37-.57.34-1.78.04-1.46-2.71-.65-14.11-.61-17.69l.24-27.47c.34-26.66.25-53.82.14-80.51,0-.95-1.42-1.78-2.18-2.31l-.43-.29c-1.49-.95-.84-.79-2.55-.89-1.5.76-2.29,2.48-3.23,3.98-.38,8.16.18,21.46.19,29.98.08,21.73.03,43.47-.15,65.2-.02,4.45.72,26.87-.96,28.99-2.62-1.71-1.21-23.75-1.2-28.4l-.08-58.53c0-12.42-.72-25.73.06-38.1.21-3.33,4.22-9.51,6.11-12.81Z"/>
  <path class="st12" d="M389.8,299.14c1.16.13,1.28.04,2.19.79.43,1.92.29,8.7.3,11.06l-.18,30.05-.13,50.55c.01,9.79.44,23.17-.37,32.75-.3.03-.67.08-.96.05-.43-.05-1.12-.16-1.35-.57-.97-1.78-.62-119.5.49-124.67Z"/>
  <path class="st1" d="M380.83,427.74c6.21-.18,13.68.14,19.98.24.09,2.71.44,10.71-.25,12.97-6.88.28-12.62.71-19.46-.11-.19-4.51-.31-8.59-.26-13.1Z"/>
  <path class="st8" d="M384.86,430.85c4.99-.2,16.16-2.18,10.12,6.17-1.66.45-5.26.78-7.03.73-4.34-.14-3.42-4.28-3.09-6.89Z"/>
  <path class="st1" d="M366.01,423.59c1.87.49,9.81,4.58,11.35,5.82l-.21.4c-3.11-.27-5.87-1.51-8.86-2.55,0,3.06-1.27,11.63,1.36,13.19l2-.62c2.52-1.41,3.51-1.95,6.38-1.99l.33.5c-2.17,2.88-8.7,5.26-12.22,6.84-.16-5.56-.69-16.39-.14-21.58Z"/>
  <path class="st1" d="M414.02,424.04l.95.2c1.15,2.17.17,18.05.05,21.5-2.87-1.72-10.42-5.2-11.63-7.34l.27-.81c1.47.05,2.63,1.1,3.92,1.98,1.46.63,2.59,1.02,4.08.42,2.12-2.57,1.19-8.39,1.25-12.3-2.25.91-5.64,2.58-7.88,2.67l.05-.6c2.66-2.4,5.79-3.97,8.92-5.71Z"/>
  <path class="st1" d="M382.12,478.57c3.26.02,18.66-.67,19.64,1.97-.96,1.19-.76.81-2.75,1.15l-9.76.26c-2.39.05-8.22.38-9.9-1.24l.09-1.26c1.1-1.01.84-.69,2.68-.88Z"/>
  <path class="st1" d="M396.04,446.03l1.33.11.58.79-.17,1c-2.14,1.92-9.79,2.82-12.9,3.35-1.09-.12-.58.08-1.46-.82l.09-.91c1.71-1.71,9.82-2.98,12.54-3.53Z"/>
  <path class="st1" d="M396.3,456.97c1.4-.25.72-.32,2.09.38l.26.88c-1.79,2.14-10.03,3.23-13.32,3.91h-.75c-1.18-.73-.84-.23-1.15-1.48,1.66-1.77,9.55-2.8,12.87-3.69Z"/>
  <path class="st1" d="M394.67,468.47c2.15-.19,1.94-.54,3.24.42l.07.92c-1.78,1.85-8.6,2.72-11.38,3.24-1.62.16-2.15.19-3.08-1.21,1.32-1.77,8.44-2.72,11.15-3.37Z"/>
  <path class="st1" d="M396.22,451.97c1.21-.12.63-.22,1.76.39l.12.9c-1.95,1.81-9.87,2.75-12.82,3.25-.72.07-.78,0-1.51-.11l-.39-.78c1.1-1.44,10.14-2.94,12.83-3.66Z"/>
  <path class="st1" d="M385.46,484.97c2.46-.19,8.5-.93,10.35.02l.1.87c-3.66,1.39-7.71,2.62-10.45-.89Z"/>
  <path class="st1" d="M395.59,473.95c.61-.07,1.55-.01,2.19,0l.63.67-.33.55c-2.33,1.25-3.94.99-6.6.94-1.24-.04-1.2,0-2.42-.49l.27-.57c2.54-.96,3.52-.93,6.26-1.1Z"/>
  <path class="st18" d="M371.3,431.57c2.17.47,3.34.45,4.22,2.52l-.54,1.24c-1.72.52-2.48.97-4.03.05-.47-1.39-.03-2.35.35-3.81Z"/>
  <path class="st9" d="M341.46,356.33c.1-1.57-.16-1.47.64-2.5,3.75,1.08,3.58-1.44,4.79-.09-.1.4-.87,3.75-.82,3.86.57,1.25,1.27,1.02.26,2.94,6.22,6.15,11.91-3.74,15.6-1.47.46,2.41-2.68,8.37-3.81,10.85,2.18,2.19,8.48,7.4,8.66,9.44-2.27,1.45-9.94.77-13.07.87-1.2,2.37-4.16,9.66-6.34,10.48-2.2-1.45-3.73-8.55-4.62-11.51-2.61-.18-15.02.29-12.24-3.89.57-3.39,2.56-2.77,4.73-6.47-.44-.53-.59-.73-.96-1.32.47-.82.7-.78,1.6-1.2,1.43.45.86.02,1.67,1.47.1-2.64.12-10.42,1.09-12.31.8.23,2.1.56,2.82.86Z"/>
  <path class="st24" d="M330.51,375.3c.57-3.39,2.56-2.77,4.73-6.47-.44-.53-.59-.73-.96-1.32.47-.82.7-.78,1.6-1.2,1.43.45.86.02,1.67,1.47.1-2.64.12-10.42,1.09-12.31.51,4.26,1.23,9.18,1.59,13.41-1.92,1.38-7.82,5.76-9.71,6.42Z"/>
  <path class="st11" d="M341.46,356.33c.1-1.57-.16-1.47.64-2.5,3.75,1.08,3.58-1.44,4.79-.09-.1.4-.87,3.75-.82,3.86.57,1.25,1.27,1.02.26,2.94l-4.88-4.2Z"/>
  <path class="st15" d="M342.34,364.52c-.3-1.08-.27-1.56-.35-2.67l.6-.65c1.75.29,2.6,1.27,4,2.43,1.25.86,2.81,1.99,4.11,2.71,1.89-1.05,4.95-3.1,6.84-3.32l.5.52c-.21,2.22-1.79,5.36-2.75,7.52,2.1,1.82,5.45,4.56,7.27,6.5-3.3.11-6.47.22-9.79.18-2.18,2.71-3.09,4.8-4.9,7.6-1.33-3.12-1.6-4.94-2.53-7.96-2.51-.41-7.72-.82-9.58-1.6v-.61s.97-.66.97-.66l1.08-.84c1.28-1.15,3.86-2.75,5.39-3.77l-.86-5.37Z"/>
  <path class="st12" d="M342.34,364.52c-.3-1.08-.27-1.56-.35-2.67l.6-.65c1.75.29,2.6,1.27,4,2.43-.1,1.63-.03,1.83-.82,3.2-1.51.06-1.83-.45-2.54-1.8l-.9-.51Z"/>
  <path class="st12" d="M337.81,373.66c1.78-.21,3.14-.61,4.68.15v.77c-1.76,1.48-4.13,1.67-5.75-.08l1.08-.84Z"/>
  <path class="st12" d="M350.22,375.64c.55,0,1.04.37,1.17.91.13.54-.12,1.1-.62,1.35-.44.23-.98.16-1.35-.17-.37-.33-.5-.85-.32-1.32.18-.46.62-.77,1.12-.78Z"/>
  <path class="st9" d="M338.41,263.03c3.61.65,8.07,6.22,12.33,7.65,2.24-1.3,8.62-5.09,10.92-4.79,1.84,2.17-3.22,8.36-2.66,11.42.66,3.64,7.36,6.27,8.56,9.43l-.41.63c-2.43.52-9.67.33-12.79.37-3.11,1.13-3.34,9.82-7.27,11.36-1.47-1.39-3.35-9.92-3.98-12.32-2.19-.17-4.37-.36-6.55-.56-2.06-.2-4.83-.29-6.13-1.86.6-2.29,6.83-5.67,9.29-7.81l.41-.36c-.67-4.34-1.44-8.78-1.72-13.15Z"/>
  <path class="st15" d="M341.72,268.01c3.4,2.12,5.33,3.88,8.29,5.87,2.68-1.57,6.23-3.83,9.06-4.9-1.36,3.92-4.44,8.33-1.9,11.86,1.5.33,4.1,3.28,5.29,4.48-3.41.03-6.82-.01-10.23-.11l-4.42,9.12-2.82-9.98c-2.69-.22-6.48-.32-8.85-1.51l-.14-.79c.98-1,1.56-1.13,2.88-1.7,1.12-1.19,2.72-1.98,4.16-2.82-.78-2.52-1.05-6.79-1.32-9.53Z"/>
  <path class="st8" d="M341.72,268.01c3.4,2.12,5.33,3.88,8.29,5.87,2.68-1.57,6.23-3.83,9.06-4.9-1.36,3.92-4.44,8.33-1.9,11.86-2-.08-11.51-7.5-13.22-9.3l-.53.04c.04,1.98.26,4.08-.37,5.95-.78-2.52-1.05-6.79-1.32-9.53Z"/>
  <path class="st12" d="M338.88,280.36c1.25-.02,1.96-.05,3.2-.22.81,1.14.56.86.69,2.48-1.81.06-2.39.38-3.8-.41-.08-.74-.12-1.11-.1-1.85Z"/>
  <path class="st9" d="M423.79,446.18c3.06.85,8.39,5.89,11.18,8.25,2.53-1.62,9.46-6.45,12.06-4.95.8,2.91-2.34,8.92-3.62,11.87,2.33,2.49,7.85,6.28,8.09,8.95-1.97,1.81-8.36,1.06-11.2.94-3.97.68-4.14,8.27-7.01,10.85l-.81-.08c-2.25-2.56-3.3-8.42-4.18-11.9-3.02-.42-10.14-.3-12-2.32.79-2.55,6.32-5.47,8.92-7.39-.58-3.73-1.82-10.76-1.44-14.23Z"/>
  <path class="st15" d="M426.82,451.61c2.81,1.54,5.36,3.58,7.93,5.5,3.47-1.93,5.69-3.14,9.39-4.7-.63,2.57-2.52,6.6-3.53,9.48,1.92,2.15,4.87,4.71,7.04,6.71-3.13.15-6.79.07-9.96.09-1.71.86-3.84,6.99-4.75,9.11-1.06-3.22-2.06-6.47-3.01-9.72-3.36-.36-6.1-.76-9.43-1.35,1.7-1.53,5.59-3.98,7.68-5.43-.52-3.29-.99-6.37-1.37-9.69Z"/>
  <path class="st9" d="M427.3,279.55c-.53-2.67-2.58-10.66-1.38-12.7,2.5-.12,8.15,5.11,10.48,6.85,2.51-1.3,9.02-5.19,11.45-4.57,1.31,2.42-2.57,9.19-3.16,12.28,3.88,3.28,7.02,5.09,9.97,9.23-3.99,0-11.01-.34-14.6.07-1.28,2.92-3.47,9.21-6.03,10.38-2.37-1.37-3.76-8.37-4.62-11.4-3.05-.2-10.47.13-12.28-1.72-.04-1.37-.05-.91.93-2.28,3.03-1.86,6.64-3.81,9.23-6.12Z"/>
  <path class="st12" d="M428.32,270.71c3.38,2.32,4.75,3.44,7.77,6.14,3.09-1.9,6.18-3.47,9.39-5.15-1.17,3.09-2.82,7.11-3.71,10.22,1.85,1.75,4.89,4.42,6.54,6.2-3.1-.04-6.19-.14-9.29-.31-1.46,2.66-3.29,6.4-4.81,8.85-.52-1.62-2.54-7.39-2.53-8.62-3.66-.38-6.35-.7-10-1.42,1.83-1.49,4.63-3.69,6.87-4.33,1.97-3.01.44-7.88-.24-11.59Z"/>
  <path class="st8" d="M421.68,286.63c1.83-1.49,4.63-3.69,6.87-4.33.42,2.17,1.02,2.78,2.84,4.01l.29,1.74c-3.66-.38-6.35-.7-10-1.42Z"/>
  <path class="st9" d="M423.51,362.87l-.22-.84c-.66-2.5-1.48-4.12-.25-6.22l1.13-.13c1.93.76,2.99,1.76,4.61,3.04,1.95-.98,4.32-2.47,6.38-2.14l.6.86c-.01,2.1-1.25,4.19-2.17,6.17,1.82,1.15,3.74,2.09,4.85,3.86l-.28.79c-2.68,1.31-3.63.67-6.53,1.33l-.36.08c-.74,1.52-2.16,4.56-3.21,5.71l-1.02-.35c-1.07-1.85-1.41-4.09-1.87-6.21-2.31-.27-5.31-.28-6.89-1.88l.03-.96c1.32-1.61,3.24-2.23,5.2-3.12Z"/>
  <path class="st11" d="M414.8,283.2l2.47-.14c.92.99.62.91.8,2.61-1.82-.06-2.29.28-3.27-.75v-1.72Z"/>
  <path class="st24" d="M360.86,548.01c.57-.53,1.46-.51,2.01.04.55.55.56,1.45.03,2.01-.37.39-.91.54-1.42.41-.51-.13-.91-.53-1.04-1.05-.13-.51.03-1.05.42-1.41Z"/>
  <path class="st11" d="M350.81,295.66c2.27.75,1.72,1.62,1.74,3.66-.7.19-.74.09-1.52.03-.66-1.17-.32-2.14-.22-3.69Z"/>
  <path class="st24" d="M373.99,418.29c.42-.33,1-.38,1.48-.14.48.24.78.74.77,1.27,0,.54-.33,1.02-.82,1.24-.65.29-1.41.05-1.77-.55-.37-.61-.22-1.39.34-1.82Z"/>
  <path class="st11" d="M367.84,249.45c.67-.22,1.4.12,1.67.77.27.65,0,1.4-.62,1.73-.46.24-1,.2-1.42-.1-.42-.3-.63-.81-.55-1.31.08-.51.43-.92.92-1.08Z"/>
  <path class="st11" d="M449.94,283.63l2.64-.14c1.2.84.82.43,1.22,2.23-2.23-.47-2.77-.22-3.86-2.09Z"/>
  <path class="st24" d="M337.17,293.32c.5-.3,1.14-.17,1.48.29.34.47.28,1.12-.16,1.5-.32.28-.77.36-1.16.2-.39-.16-.67-.52-.7-.95-.04-.42.17-.83.53-1.05Z"/>
  <path class="st11" d="M362.64,228.67c.54.14,1.19.38,1.73.56l-.5.73c-.66.38-.31.24-1.15.24l-.08-1.53Z"/>
  <path class="st17" d="M284.96,537.13c5.32-5.12,6.67.51,12.12,1.3,1.99,1.64,2.72.93,3.97,2.68.07,1.78.27,2.67-.47,4.28-2.3,1.5-6.87.1-9.76-.44-5.4-.99-7.87,5-10.91,4.69-1.41-1.27-1.82-1.45-2.46-3.15.18-3.97,5.58-5.8,7.52-9.35Z"/>
  <path class="st11" d="M336.06,578.31c-.49-3.1-5.58-12.57-4.76-15.22,2.2,1.46,3.95,2.79,5.54,4.92,4.9,3.64,11.62,10.23,15.82,14.75-2.59-.52-2.35-.81-4.67,1.05-1.7,1.36-1.21,2.7-1.98,3.44-1.45-5.97-2.77-7.28-8.6-6.45-.97-.77-.99-1.3-1.35-2.5Z"/>
  <path class="st11" d="M320.99,582.01c.39-5.4.48-5.8-.45-11.07-.87-4.94-6.34-11.44-6.12-13.76l.73-.05c2.86,1.56,3.37,4.02,4.48,6.85,2.22,5.72,4.48,11.45,6.59,17.21-.66.93-1.21,1.05-2.26,1.51-1.19-.22-1.21-.16-2.23-.89l-.73.19Z"/>
  <path class="st4" d="M235.6,155.68l.38-.61c3.32.03,13.3.19,15.9-1.13l.35-.67c-.64-.95-1.61-.91-2.78-1.09,1.6-.55,2.82-1.03,4.38-1.7.21.76.23.46.07,1.2l-.37-.87c-.81,1.07-.64.48-.54,1.8,2.14,2.7,3.28.5,4.92,3.14,1.05,1.68.21,2.76,2.3,2.77,1.52,0-.9,4.99-1.27,5.86l.38.48c2.2,2.78,1.76,3.92,1.9,7.31,1.59-.42,2.77-1.2,4.21-2-.02-2.75-.51-12.76.71-14.2h.36c-.31,2.87-.59,11.39.57,13.84,1.43.43,2.84.91,4.23,1.44,2.02.49,2.77.59,4.54,1.78l.1.69c4.18,2.28,12.41,4.07,14.39,6.11l.41-.6c5.03-.18,4.23-4.74,7.08-6.53,4.33-2.72,10.87-5.24,15.88-6.51,3.54-.73,4.21,7.71,4.26,10.43.13,6.55-3,11.56-5.9,17.17-.79,1.6,1.15,5.73.62,7.62,1.45,1.44,1.88,2.72,2.72,4.55,1.67,1.7,6.93,11.85,8.06,14.17-.26,1.4.05.85-.76,1.82,1.1,1.61,1.62,2.17,2.17,4.07,1.12,3.71,2.03,10.82-.85,13.84-.84,1.85-1.07,2.43-2.31,4.08-.73,1.52-2.09,4.85-3.37,5.64-1.92,1.17-6.02,5.4-8.12,4.88-4.4-1.09-6.75-2.54-8.18,3.4.5,1.4,1.55,3.7,1.31,5.03-3.42,4.89-6.11,8.3-8.56,13.71-.31.73-.57,1.61-1.1,2.11-1.06,4.31-6.14,18.88-9.62,21.33l-.92-.02c-1.96-2.77,4.18-6.12-2.06-11.92l-1.01-.17c-4.87,4.05,1.59,10.53,1.05,13.25-2.05.66-8,4.7-9.5,3.42-3.14.44-5.84.77-8.99,1.08l-4.54.47c-.78,1.01-1.25,1.31-2.61,1.3-.94-.68-1.84-.77-2.98-1.03-.5-.8-.87-1.45-1.32-2.27l-1.07-.31c-2.3.53-2.35.5-4.04,2.09l-.4.02c-13.93-5.94-12.93-12.35-20.25-24.34-2.31-3.78-7.45-8.73-10.72-11.98-2.3-3.02-5.48-6.28-8.09-9.11-2.07-2.17-4.33-4.36-6.46-6.5-.03-.26-.29-.9-.39-1.17-3.56-1.55-15.1-19-15.6-23.35-.32-2.79,5.79-22.83,8.1-24.08.94-2.07.88-3.58,2.59-4.82l.49.18c5.25,1.96,13.74,2.41,16.66,7.72.34.62.78,1.98,1.1,2.74,3.98,1.96.81,5.34,3.54,7.5,1.55-.35,2.07-.9,3.16-2.14l.5,1.4c1.1.42.57.43,1.64.02,2.09-2.2,4.85-5.57,7.65-6.38,2.74.05,9.16-.88,11.11-2.79-.32-.82-.42-.81-.21-1.64,1.15-.35,1.96-.63,3.09-1.06l.36-.9c-.62-1.9-1.92-3.08-3.27-4.6,2.4-.02,3.79.16,5.78-1.21-.84-.62-2.06-.51-3.27-.61,1.8-.46,2.74-.64,4.58-.87.25-1.68-.96-1.18-1.45-3.28l1.32-1.13c.71-1.68.22-3.55-.03-5.45l.18-1.14c.71-.3.97-.44,1.64-.83l-.17-.26c-2.64.07-4.45.67-6.3-1.26.76-2.26.46-3.9.28-6.28-.04-1.19-.07-2.39-.08-3.58-.02-2.29.08-2.37,1.46-3.78,1.84-.67,3.55-.43,5.54-.37,1.83,1.2,3.66,2.41,5.47,3.63.46-4,1.6-14-.48-17.13-2.44-1.79-15.01-1.15-19.51-1.44Z"/>
  <path class="st16" d="M247.57,188.13c3.83,6.55,4.07,8.83,2.89,16.23-.47,2.94,6.72,2.07,8.36,1.58l.31-.31,2.95-.22c.89-.01,1.51.09,2.23-.4.96-3.29-.59-2.27-.22-5.19l.83-.57c1.08.33,1.25.37,2.44.51.63-.77.57-.83,1.48-1.16,1.14,2.91,2.35.85,6.06,2.56-.31,1.28-.59,1.52-1.38,2.54l-.1-.73-.51-.29c-.86.61-.68.56-1.21,1.59l.29.64,1.17-.04c1.14,1.1,2.86,1.38,4.38,1.71l.53-.37-.59-.78.94.46-.06,1.13c1.89,2.09,16.89,5.42,19.95,8.64,2.92,3.05,8.96,14.56,6.47,18.12-1.57.7-1.74.63-3.52.57l-.64.76.39.84c-1.01.15-2.08-.27-3.15-.48l-.41-.08c-.99-1.07-.43-.89-1.57-.95-.08.86-.11,1.19-.31,2.02.05-2.44.36-2.7-1.59-3.97l-.19-.52.36-3.08c-.55-.65-1.41-1.5-2.01-2.13l.11-.27c-2.35.11-5.25-2.41-7.26,1.22l-.73-.43c-.51-1.53.19-1.76.97-3.76-3.16.77-2.46.92-2.52,3.99l-.47.13c-.39-1.79-.04-1.26-1.17-2.56-.3,1.53-.28,1.49-1.04,2.85l-.79.17c-2.66-2.2-3.36-3.92-6.9-3.2-.12-2.08-.49-3.54-.57-6.09-3.73-1.7-4.91-3.01-7.76-5.99l-1.95,4.85c-1.59,1.01-3.48,2.3-5.14,3.1-1.64.67-3.28,1.36-4.91,2.08-3.96.53-1.76,2.91-4.44,4.55-.41-.46-.82-.88-1.29-1.28l-.76.31-.31,1.15-.86.2c-.64,1.58-.89,1.97-1.02,3.63-.65-1.64-.58-3.31-1.36-4.11-1.01.54-1.02,1.11-1.68,2.33l.66,1.43,1.33.46c.67,1.96-.68,1.65-.21,4.07l.71.88-.2-1.09c1.01-1.46.88-.43,2.89-1.52,2.06,2.15-.06,4.6,3.01,6.24,1.4-.25,1.5-.3,2.78-.94,1.46.78,2.08,1.46,3.38,2.45-.07.17-6.02,4.77-6.82,5.38-.66-2.14-4.56-4.77-6.58-3.79l-.74,1.84-.74.05-.6-1.28-.9-.27c-1.93,1.99.73.84-2.36,3.01-3.13-.76-2.47-2.59-4.48-3.79l.21-.73c-2.45-3.17-8.47.13-12.45-.39.37-.45.74-.89,1.11-1.34l-.32-2.79c-.82.4-.94.63-1.44,1.4l-.63-.08c-3.05-8.58,10.43-4.57,15.53-8.39l-.3-.36c-4.27-.67-15.7,2.42-15.75,2.41-2.03-2.56,1.87-10.5,4.43-11.85.47-.25,3.17,1.44,3.5,1.44,2.13.02,3.13-.92,4.95.7.63.49,3.13-.08,4.5-.18l2.27.06.51-.57c-1.81-2.83-12.13-2.78-15.68-4.07,2.09-2.2,4.85-5.57,7.65-6.38,2.74.05,9.16-.88,11.11-2.79-.32-.82-.42-.81-.21-1.64,1.15-.35,1.96-.63,3.09-1.06l.36-.9c-.62-1.9-1.92-3.08-3.27-4.6,2.4-.02,3.79.16,5.78-1.21-.84-.62-2.06-.51-3.27-.61,1.8-.46,2.74-.64,4.58-.87.25-1.68-.96-1.18-1.45-3.28l1.32-1.13c.71-1.68.22-3.55-.03-5.45Z"/>
  <path class="st10" d="M271.79,218.84c4.96,1.38,8.95.75,9.29,6.26-.3,1.53-.28,1.49-1.04,2.85l-.79.17c-2.66-2.2-3.36-3.92-6.9-3.2-.12-2.08-.49-3.54-.57-6.09Z"/>
  <path class="st17" d="M231.66,242.06l.11-1.27.65-.46c1.72.99,2.63,4.6,3.5,6.24-3.13-.76-2.47-2.59-4.48-3.79l.21-.73Z"/>
  <path class="st16" d="M290.33,179.84l.41-.6c5.03-.18,4.23-4.74,7.08-6.53,4.33-2.72,10.87-5.24,15.88-6.51,3.54-.73,4.21,7.71,4.26,10.43.13,6.55-3,11.56-5.9,17.17-.79,1.6,1.15,5.73.62,7.62-1.66,1.51-1.11,1.45-3.02,1.84-1.68-.56-2.66-.96-4.44-1.19-1.99,1.2-1.79,3.67-1.98,5.85l-.75-.15c-1.65.73-.02,1.57-1.21,3.41-.93-.39-.94-.43-1.93-.53,0,1.58,0,1.09,1.25,2.66-2.88-1.88-8.36-2.21-10.65-4.84-.07-1.68,1-2.48,1.25-4.43l.08-1.02.1.38.74.04c1.69-1.23,2.31-1.69,1.77-3.79-2.3-2.2-6.01-.89-9.77-1.66,1.37-.83,5,.62,6.43-1.37l-.99-1.55c1.97-.78,3.59,1.36,5.9.13l-.06-.7c-4.01-5.11-14.32,2.12-18.15,4.15-1.49.79-5.4.27-7.02-.29-.12-.84,1.1-1.43,2.03-2.79l-.84-.29c-1.26.42-1.99.57-3.31.83-7.03-1.39-1.74-7.24-8.07-10.59-2.04-1-2.64-2.03-2.5-4.39.4-6.81,8.55-9.62,13.76-9.86,2.02.49,2.77.59,4.54,1.78l.1.69c4.18,2.28,12.41,4.07,14.39,6.11Z"/>
  <path class="st10" d="M275.94,173.73c4.18,2.28,12.41,4.07,14.39,6.11-6.22,12.56-14.04,4.54-14.39-6.11Z"/>
  <path class="st17" d="M296.67,203.77c.71-.06,1.35.4,1.51,1.1.16.69-.2,1.4-.86,1.66-.52.21-1.12.09-1.52-.29s-.55-.98-.36-1.51c.19-.53.67-.9,1.23-.95Z"/>
  <path class="st17" d="M291.94,183.08c.49-.15,1.02.09,1.23.56.21.47.05,1.02-.38,1.3-.34.22-.78.21-1.11,0s-.52-.61-.46-1.01c.06-.4.34-.73.73-.84Z"/>
  <path class="st20" d="M265.69,248.34c.86,2.07,1.48,4.38,3.5,5.21,2.4-1.66,1.55-3.61,3.45-4.28,2.11,2.19,2.98,10.78,3.62,14.08-.14,1.28-.21,2.09-.51,3.34.67.9,1.42.97,2.52,1.29l.09.84c-2.08,2.36-2.73.12-3.3,2.06l.89,2.38,1.16.13c-1.78,1.99-2.04,5.73-2.47,8.44-.67,1.53-1.17,2.7-2.01,4.16-1.03.57-1,.5-2.19.58-1.68-.74-1.47-.98-2.61-2.62l-.75-.09c-1.71,2.4-1.92,1.93-2.05,4.46-.26-.19-1.64-2.79-2.86-4.01-2.21.56-.83,1.75-2.97,2.32l-1.21-1.35-.76.04-1.42,1.91c-2.93-1.58-3.45-8.47-7.32-12.42l-.39-.39-.09-.8,2.06-.43c2.44-2.58,2.2-2.61,2.27-5.62-.49-.53-1.31-1.81-1.75-2.47-.7-1.3-.13-6.32-.45-8.98-.06-1.25.48-5.43.64-6.9,1.97,2.66,3.83,5.12,5.74,7.85l1.61-6.05.82-1.64.76-.14c1.65,1.78,1.03,3.27,2.94,5.37,1.63-1.18,1.35-3.26,3.05-6.27Z"/>
  <path class="st3" d="M263.42,264.47c.5-2.86.85-7.12,4.07-8.12,6.12,1.69,6.27,13.95,4.85,18.91-.41,1.38-.9,2.74-1.46,4.06-4.27.4-8.01.69-12.31.02-1.38-1.31-2.98-2.76-4.3-4.09-.29-2.83-.24-5.39-1.93-7.67-.49-.53-1.31-1.81-1.75-2.47,4.1-2.95,4.08-15.21,12.84-.64Z"/>
  <path class="st5" d="M257.74,270.04l.92-.49-.19,1.04-.52.18-.21-.73Z"/>
  <path class="st17" d="M215.16,253.09c.74-2.22.61-3.48,1.85-5.48l.68.27-.81.11-.26.61,1.53-.12c2.34,2.56,3.91,2.6,6.97,1.47,1.55,1.29,4.12,3.44,5.25,5.09l.08.36c-.25,2.1-.08,3.58.89,5.49,1.67,3.27,1.43,1.68-.17,4.18.45,3.96,2.22,6.08,2.42,10.18l.03.47c0,.31.01.63.02.94l1.48,1.67-.1.96c-.7.08-1.39.17-2.09.26l-.23,1.56-.6.26c-1.48-1.22-2.3-2.03-4.12-2.74-.68-.94-.82-.97-.89-2.13l1.09-1.6-.25-.66c-1.21-.24-2.58,1.32-4.89,1.3l-.93-.57c-.12-3.66-.04-14.81-2.07-17.01-1.41-.62-2.34-.76-3.13-1.95-.25-1.37-1.03-.84-1.75-2.91Z"/>
  <path class="st10" d="M233.81,248.16c.8,0,3.04.05,3.71-.03,1.7,2.38,1.49,15.17,7.24,18.99,1.47.73,2.03,1.22,3.57.99,2.06-2.07,1.1-7.44,1.8-11.98.31,2.66-.25,7.68.45,8.98.44.66,1.26,1.94,1.75,2.47-.06,3.01.17,3.04-2.27,5.62l-2.06.43.09.8c-2.01,2.11-2.26,3.12-2.98,5.96-.12-1.58.12-2.12-.73-3.21-1.74,1.15-2.93,5.73-2.92,7.75-3.74-8.08-7.2-23.81-11-29.52l-.08-.36.75-.29c1.95-2.65.86-4.32,3.92-5.44-.3-.88-.13-.47-1.23-1.16Z"/>
  <path class="st20" d="M237.52,248.12c1.7,2.38,1.49,15.17,7.24,18.99-.78.5-1.26,1.11-1.91,1.78-1.8.25-2.13.33-3.87-.1-.32-1.58,2.1-1.56,2.6-4.5-.86-1.1-.32-.8-1.63-1.01-.69.74-.75.84-1.59,1.38-1.04-1.24-.74-3.19-.79-5.1-1.31-1.55-1.06.41-2.89-.66.29-2.36,2.34-1.91,2.57-3.39.46-2.92-.54-4.05.27-7.38Z"/>
  <path class="st10" d="M285.22,249.28c2.81.26,6.03.05,8.88-.06l.41.59-.18.52-.43,1.67c-1.12,4.11-2.19,8.1-3.5,12.15-2.94,6.48-5.4,14.77-10.25,19.79.25-4.25,1.13-7.67-2.81-10.39l-.22-.16-1.16-.13-.89-2.38c.57-1.95,1.22.29,3.3-2.06l-.09-.84c-1.1-.33-1.85-.39-2.52-1.29.3-1.25.37-2.06.51-3.34.27,1.07.22,1.23.98,2.05l1.14.03c1.21-.91,1.34-1.05,2.08-2.38,2.47-3.08,4.13-9.9,4.76-13.79Z"/>
  <path class="st23" d="M282.88,269.65c.21-.4.64-.63,1.09-.6.45.04.84.33.98.76.15.43.03.9-.3,1.21-.41.38-1.03.4-1.46.06-.44-.34-.57-.94-.31-1.43Z"/>
  <path class="st23" d="M283.66,263.56c.44-.51.16-.29.93-.59l-.37,1.14-.72.4.17-.95Z"/>
  <path class="st20" d="M194.82,200.63l.49.18c5.25,1.96,13.74,2.41,16.66,7.72.34.62.78,1.98,1.1,2.74-.13,1.34-.05,1.75-.95,2.74-3.98,2.17-18.54,2.43-23.85,2.67,1.11-4.16,2.38-7.24,3.96-11.24.94-2.07.88-3.58,2.59-4.82Z"/>
  <path class="st23" d="M200.97,209.68l.71-.25-.1.93-.84.4.23-1.08Z"/>
  <path class="st8" d="M251.75,247.7c2.28-.64,7.03-1.84,8.96-3.08,4.49-2.88,21.31,2.77,23.09,6.09.08,3.36-2.53,8.61-3.35,12.35-.74,1.32-.87,1.47-2.08,2.38l-1.14-.03c-.76-.83-.71-.98-.98-2.05-.64-3.3-1.51-11.89-3.62-14.08-1.9.67-1.04,2.62-3.45,4.28-2.01-.83-2.63-3.14-3.5-5.21-1.7,3.01-1.42,5.09-3.05,6.27-1.91-2.11-1.29-3.59-2.94-5.37l-.76.14-.82,1.64-1.36,2.1c-2.56.25-3.76-3.27-5.01-5.42Z"/>
  <path class="st12" d="M274.64,281.84c1.15-2.08,1.25-4.95,2.43-6.2l.95-.16c2.1,4.81.05,11.59-2.4,15.93-2.36.99-3.85,1.58-6.29,2.29-6.92-.97-22.08,3.05-23.35-8.14-.22-1.96.54-6.26,1.88-7.77,3.5.01,5.17,10.13,7.24,12.12,1.29-.41,1.41-1.06,2.34-2.32l.62-.07c.76,1.08,1.17,2.01,2.38,2.36,1.35-.76,1.23-1.31,1.95-2.99l.63-.02c.58.93,1.2,1.84,1.84,2.73l.62.02c.86-1.05,1-1.29,2.09-2.05,1.2.28,1.51.44,2.59.92,1.59-.75,1.29-.85,2.47-2.49.84-1.46,1.35-2.64,2.01-4.16Z"/>
  <path class="st10" d="M264.03,212.85c2.85,2.98,4.02,4.29,7.76,5.99.07,2.55.45,4,.57,6.09l-.34.28-.03.29c-.62.85-1.78,2.72-2.41,3.3-1.99.1-4.29.03-6.31.01-.67-1.77-.78-2.41-2.08-3.82-1.64-.55-.95-.49-2.71,0-1.46,2.23-1.54,4.69-5.29,4.08-2.18-1.68-2.14-3.84-1.15-6.2,1.63-.71,3.26-1.41,4.91-2.08,1.66-.81,3.55-2.1,5.14-3.1l1.95-4.85Z"/>
  <path class="st17" d="M293.89,252.01c0,1.7-.21,3.79.47,5.25l-.21-.43.5.37.86-.55c.15.54.26,1,.39,1.55.07-1.02-.05-2.44.52-2.99,1.33,1.69-.09,1.82,1.05,2.76l1.31-1.34c1.33.86,1.66,1.16,3.24,1.25.5,1.4,1.55,3.7,1.31,5.03-3.42,4.89-6.11,8.3-8.56,13.71-1.6.38-3.92,1.09-5.47.94,1.62-4.96,1.19-8.24,1.08-13.41,1.31-4.05,2.39-8.04,3.5-12.15Z"/>
  <path class="st17" d="M245.65,305.98c.53-6.88-2.88-4.67-5.98-8.03l-1.13,2.16h-.7s-.64-1.02-.64-1.02c.62-2.26,1.29-6.98,2.06-8.18,3.25-1.75,7.38,2.48,11.75,3.03l-1.15,1.01c-.02,1.25-.16.65.64,1.81,1.71.09,6.78.09,7.85.95-.03.85-2.4,9.23-2.9,9.77-.94-.68-1.84-.77-2.98-1.03-.5-.8-.87-1.45-1.32-2.27l-1.07-.31c-2.3.53-2.35.5-4.04,2.09l-.4.02Z"/>
  <path class="st17" d="M294.51,249.82c1.14-1.07,1.04-.65,1.09-1.83-1.71-1.31-4.73.58-6.47-1.63l.17-.97,1.44-.83c.41-2.87-1.08-3.84,1.42-6.15,2.61.29,2.14,2.77,8.05,3.02l-3.95.16c-.98,1.33.44,4.13.55,6.05l.61-.2.16-.87c2.39-1.28,4.8-2.54,7.21-3.76,2.28.9,3.49,1.48,5.64,2.65.31,1.16.21.79-.3,2.15-2.99,2.77-6.26,1.6-7.27,3.34l.97,1.12c-.51.9-1.45,2.13-2.45,2.48l-.93-.06-.03-.53c-.11-1.76-.07-2.13-.9-3.72l.13.16-.81-.21.3-.14-.84,1.32.05-.42-.31.5c-1.06-.36-2.62-.9-3.7-1.1l.18-.52Z"/>
  <path class="st20" d="M263.28,228.81c2.02.02,4.32.09,6.31-.01-.39,2.18,1.08,3.7.75,7.29.81,3.47,1.74,4.52,3.72,7.5-4.19-.16-6.5-1.46-11.54-.88-3.8.44-6.68,3.06-9.1,2.77.42-.88,4.71-3.2,6.25-4.74,1.53-1.6,1.93-2.28,3.07-4.1-.06-2.82-.36-2.84,1.08-5.32l.3-.5c0-.92-.32-1.2-.84-1.99Z"/>
  <path class="st4" d="M263.28,228.81c2.02.02,4.32.09,6.31-.01-.39,2.18,1.08,3.7.75,7.29-2.03-5.48-5.48-3.88-7.6.55-.06-2.82-.36-2.84,1.08-5.32l.3-.5c0-.92-.32-1.2-.84-1.99Z"/>
  <path class="st17" d="M271.99,225.5c.1,2.18.18,4.91,1.47,6.65,3.86,2.23,6.99-3,6.96,2.73.56.12.53.19,1.05.1-1.41.94-.98.33-1.47,1.8,1.01,1.52,1.24,1.3,1.12,2.71-1.18.86-1.4.89-2.8,1.39.38,1.04,1.26,1.28,2.4,1.98-.94.25-1.05.25-2.03.3l1.44,1.24c-2.35-.22-3.82-.51-6.07-.81-1.98-2.98-2.91-4.03-3.72-7.5.33-3.59-1.14-5.11-.75-7.29.63-.58,1.79-2.45,2.41-3.3Z"/>
  <path class="st10" d="M303.23,207.93c.19-2.18,0-4.65,1.98-5.85,1.78.23,2.77.63,4.44,1.19,1.91-.39,1.36-.33,3.02-1.84,1.45,1.44,1.88,2.72,2.72,4.55,1.08,9.42-8.77,7.53-12.16,1.95Z"/>
  <path class="st16" d="M318.11,247.04l-.48-.3c-1.69-1.07-7.7-4.07-8.34-4.94,1.38-5.35,9.6-3.78,13.68-3.16.61.09.68.63,1.04,1.24-.84,1.85-1.07,2.43-2.31,4.08-1.37.78-2.45,1.96-3.59,3.08Z"/>
  <path class="st17" d="M258.49,225c1.76-.5,1.07-.55,2.71,0,1.3,1.4,1.41,2.05,2.08,3.82.52.79.84,1.07.84,1.99l-.3.5c-1.44,2.49-1.15,2.5-1.08,5.32-1.14,1.82-1.54,2.49-3.07,4.1-.69-.39-1.63-.73-1.81-1.49-.57-2.51-2.53-2.22-3.93-5.25-.03-1.74-.23-1.09.59-2.61,1.22-.15,1.5-.11,2.54-.79l.22-1.14c1.3-.24,2.07,1.66,4.49,1.75l.43-.43c-1.51-3.34-2.36-.93-3.71-5.75Z"/>
  <path class="st16" d="M216.91,256c-1.13,1.36-4.88,3.8-6.85,3.55-1.62-1.05-1.55-1.82-2.27-3.55l-.23-.55c-2.25-.42-3.2-1.03-3.81-3.23,2.76-7.5,8.67,1.06,10.56,1.62l.85-.75c.71,2.07,1.5,1.54,1.75,2.91Z"/>
  <path class="st7" d="M322.73,235.11c-2-3.12-7.97-10.72-3.94-13.54,1.88-.2,2.13-.22,3.9.41,1.1,1.61,1.62,2.17,2.17,4.07-.16,1.81-1.62,7.05-2.13,9.07Z"/>
  <path class="st10" d="M258.07,306.17c-.18-6.61,9.41-8.66,13.53-1.55-3.14.44-5.84.77-8.99,1.08l-4.54.47Z"/>
  <path class="st20" d="M222.08,246.9c4.35.44,7.12.99,11.73,1.25,1.09.69.93.28,1.23,1.16-3.05,1.12-1.97,2.79-3.92,5.44l-.75.29c-1.13-1.65-3.7-3.8-5.25-5.09-.74-.85-2.2-2.21-3.05-3.05Z"/>
  <path class="st19" d="M260.03,185.52c6.33,3.35,1.04,9.2,8.07,10.59-.66,1.61-.28,1.43-1.47,2.01-1.04-.56-1.44-.72-2.56-1.14-2.07.61-1.19.72-3.07,2.36-2.18-1.42.68-5.86.53-8.41-.1-1.86-.84-3.7-1.5-5.41Z"/>
  <path class="st16" d="M281.47,234.98c.84-2.06,2.34-2.09,2.55-4.62l-.25-.51-.99-.08.86-.6-.17.11v.43c.46-.72.55-.86,1.32-1.23l.48.17,1.07.37c1.37.47,1.72.32,3.13-.11.27.79.24.75.15,1.58l-1.55,1.31v.81s1.45,1.33,1.45,1.33c-2.02.27-5.71-3.19-4.74,1.09-1.34.12-2.06-.14-3.31-.07Z"/>
  <path class="st7" d="M241.46,284.92c-.02-2.03,1.18-6.6,2.92-7.75.85,1.09.62,1.63.73,3.21l-.14.61c-.91,4.03.04,4.79-.04,8.79l-.34.14c-1.59-1.85-2.06-2.8-3.13-5Z"/>
  <path class="st17" d="M297.45,235.42l.41.08c1.07.21,2.14.63,3.15.48,1.58-.09,2.26-.42,3.4.3-.06,1.13-.16,2.09-.29,3.21-2.2.32-5.67.45-7.45-1.01-.41-1.5-.16-1.19.78-3.05Z"/>
  <path class="st22" d="M269.33,293.71l.38.02c1.57.05,1.84.03,3.35-.39l.1.36c-2.3,2.14-7.68,2.64-10.73,2.63-2.92-.46-4.07-.65-6.83-1.61,3.92-.79,12.45-.28,13.73-1.01Z"/>
  <path class="st12" d="M291.18,204.05c-1.99,1.17-3,2.37-5.22,1.25-.82-1.73-.71-.98-.42-2.85,1.08-1.37.5-1,2.12-1.5,1.71.42,2.23,1,3.6,2.08l-.08,1.02Z"/>
  <path class="st12" d="M277.49,205.44c-.7-1.58-.65-1.82-.33-3.54,2.41-1.8,6.37.49,5.28,3.5-1.55.59-2.32.74-4.01.5l-.94-.46Z"/>
  <path class="st16" d="M293.68,278.73c-2.52,1.37-4.02,2.69-6.43.36-.29-1.73-.46-1.17.31-2.42l1.04-.04.72.94c1.55.15,3.87-.56,5.47-.94-.31.73-.57,1.61-1.1,2.11Z"/>
  <path class="st19" d="M259.13,205.63c-2.14.02-3.25.18-5.23-.71l-.2-.55c1.84-1.15,4.42-1.36,6.5-.82.61.16,1.42.44,1.7,1.01.24.49.17.29.18.85l-2.95.22Z"/>
  <path class="st19" d="M304.13,239.48c.8-1.74,1.07-2.75,2.75-3.73l.72-.03c.64,1.13.45.75.3,2.28-1.14,1.56-1.61,2.44-3.26,3.46l-.71-.23c.03-.76-.03-1.06.2-1.75Z"/>
  <path class="st22" d="M244.37,227.82c1.43,1.44,1.07.76,1.57,2.57l-.41,1.02c-1.42.41-.72.39-2.18.04.13-1.66.38-2.05,1.02-3.63Z"/>
  <path class="st22" d="M292.14,226.78c.61.64,1.46,1.48,2.01,2.13-.97,1.46-.51,1.26-1.86,1.67l-.63-.66c-.37-1.47-.17-1.65.47-3.14Z"/>
  <path class="st12" d="M250.4,247.9l-.13.61c-.7,3.48-.61,18.07-4.57,17.73-1.92-1.42-3.1-3.95-3.94-6.14-.57-1.79-.86-2.72-1.17-4.62-.97-2.56-1.17-4.11-1.63-6.82,3.82-.14,7.64-.39,11.44-.76Z"/>
  <path class="st8" d="M250.4,247.9l-.13.61c-.7,3.48-.61,18.07-4.57,17.73-1.92-1.42-3.1-3.95-3.94-6.14,2.85.41,2.31,1.96,4.54,3.58.7-3.07,3.33-3.46-.1-7.58-.45-.54-.33-.51-.38-1.15,1.05-.68,1.55-.89,2.22-1.96.06-1.51.39-2.04-.34-2.85-1.98-.49-4.8-.2-6.92-.08.03,1.77-.11,3.65-.19,5.43-.97-2.56-1.17-4.11-1.63-6.82,3.82-.14,7.64-.39,11.44-.76Z"/>
  <path class="st17" d="M244.11,172.4c2.78-.16,4.12.65,6.31,2.15.43-.78.52-.94,1.09-1.63l.95.2c3.75,3.56-1.09,6.51,3.02,9.34.5,1.42.62,1.06.26,2.22-1.26.41-1.5.45-2.25,1.54l.14.77-.36.16-1.77-1.5c-.35-.78-.27-1.18-.26-2.04v-.33c-1.36-.84-1.19-.35-3.26-.2-.07-1.21-.05-1.49-.43-2.69l-.75.32-.49,2.03-.39-.57c.04-1.78-.1-3.02.7-4.65-1.16-2.02-1.65-3-2.52-5.16Z"/>
  <path class="st7" d="M217.05,258.39c6.1.7,4.05,11.26,1.01,12.46l-1.23-.92c-2.04-2.44-5.6-5.15-5.11-8.21,1.26-1.68,3.36-2.39,5.33-3.33Z"/>
  <path class="st10" d="M202.38,222.24c7.96-1.05,5.61,9.05,3.4,13.3-3.29-3.4-4.51-6.44-6.46-10.67l3.06-2.63Z"/>
  <path class="st7" d="M189.64,228.36c6.33-.8,6.65,8.23,3.16,12.26-2.55-1.52-5.05-7.02-6.76-9.89l3.6-2.37Z"/>
  <path class="st16" d="M309.6,230.3l.1-.38c.36-1.48.42-1.84.43-3.35,1.02-1.29.55-1.03,1.96-1.62,2.66.54,7.69,6.19,8.04,8.73-1.05-.17-1.78-1.02-2.61-1.76-.29.98.17,1.6.57,2.8-.99.4-4.03-.86-7.5-.67l-.83-.45-.15-.56c.27-1.18.51-1.64,0-2.72Z"/>
  <path class="st20" d="M233.42,284.28c6.71,1.32,5.05,9.27,2.2,13.08-2.02-2.53-5.14-8.05-5.19-11.41,1.09-1.38.98-1,2.99-1.67Z"/>
  <path class="st16" d="M199.44,230.82c3.27,2.37,2.18,6.9-.5,9-1.5.51-.88.61-2.02.2-1.17-2.39.89-7.46,2.52-9.2Z"/>
  <path class="st7" d="M309.6,233.02l-1.98.99-.87-.31c.05-1.28.22-3.55.01-4.75-.31-1.77-2.99-4.47-2.73-6.13l1.79-.52c1.16.83,3.05,6.25,3.77,8,.51,1.09.26,1.54,0,2.72Z"/>
  <path class="st17" d="M191.22,218.24c1.93-.42,4.6-.55,6.19.73.24,1.56-.29,1.65-1.46,3.28-2,.93-2.67,1.82-4.51.41-.94-2.45-.92-2.02-.22-4.42Z"/>
  <path class="st7" d="M299.13,214.43c4.96-.2,5.64,3.07,6.82,7.04-3.88-.49-3.73-3.42-6.45-6.6l-.37-.44Z"/>
  <path class="st17" d="M196.38,243.3c1.49-.16,1.88-.21,3.36-.08,1.22,1.16.97,1.42,1.4,3.25-3.02-.29-2.93-.83-4.76-3.17Z"/>
  <path class="st19" d="M282.99,201.07l1.06.58c.78,1.49.39,2.77.19,4.51l-.98-.55c-.8-1.62-.47-2.71-.26-4.54Z"/>
  <path class="st16" d="M258.35,166.29c2.3.75,2.15,1.84,2.83,4.01-.85-.18-1-.28-1.82-.59-.96-1.04-.85-1.9-1.01-3.42Z"/>
  <path class="st16" d="M285.14,234.55c.38-.38.94-.51,1.45-.33.51.18.87.63.93,1.17.06.53-.2,1.05-.65,1.34-.6.37-1.39.24-1.83-.32-.44-.56-.4-1.35.1-1.85Z"/>
  <path class="st22" d="M287.79,240.08c.67-.04,1.26.42,1.38,1.08.11.66-.29,1.3-.94,1.48-.48.14-1-.02-1.33-.39-.33-.37-.42-.9-.23-1.37.19-.46.63-.78,1.12-.81Z"/>
  <path class="st19" d="M251.91,233.23c.44-.18.94-.1,1.31.21.36.31.52.8.4,1.26-.11.46-.48.82-.95.92-.63.14-1.27-.23-1.47-.85-.2-.62.11-1.29.71-1.54Z"/>
  <path class="st17" d="M298.92,250.9c.56.91.51.98.72,2.05l-.62.41-.94-.17c-.17-1.28-.12-.87.84-2.28Z"/>
  <path class="st17" d="M310.23,217.25l.79-.58.63.19.29,1.57c-.73.24-1.02.25-1.8.37l-.35-.47.45-1.07Z"/>
  <path class="st16" d="M181.9,155.98c17.39,0,36.46.08,53.69-.3,4.5.3,17.07-.35,19.51,1.44,2.09,3.12.94,13.13.48,17.13-1.82-1.23-3.64-2.44-5.47-3.63-1.99-.06-3.7-.3-5.54.37-1.38,1.41-1.48,1.49-1.46,3.78.01,1.19.04,2.39.08,3.58.18,2.38.48,4.02-.28,6.28,1.84,1.93,3.66,1.33,6.3,1.26l.17.26c-.67.4-.93.53-1.64.83l-.18,1.14c.25,1.9.74,3.78.03,5.45l-1.32,1.13c.48,2.09,1.7,1.6,1.45,3.28-1.84.23-2.79.4-4.58.87,1.21.1,2.43-.02,3.27.61-1.98,1.37-3.38,1.19-5.78,1.21,1.35,1.53,2.65,2.7,3.27,4.6l-.36.9c-1.12.44-1.93.72-3.09,1.06-.21.83-.11.82.21,1.64-1.96,1.9-8.38,2.84-11.11,2.79-2.8.81-5.56,4.18-7.65,6.38-1.06.41-.53.4-1.64-.02l-.5-1.4c-1.09,1.24-1.61,1.8-3.16,2.14-2.73-2.17.43-5.54-3.54-7.5-.32-.76-.76-2.12-1.1-2.74-2.92-5.32-11.42-5.76-16.66-7.72l-.49-.18c-1.7,1.24-1.64,2.75-2.59,4.82-2.31,1.25-8.42,21.29-8.1,24.08.5,4.35,12.04,21.8,15.6,23.35.1.28.37.92.39,1.17-3.97-2.28-6.46,2.65-9.99,2.24,1.96-2.09,4.49-3.49,6.93-5.01-1.79-2.37-2.52-3.17-4.68-5.23-1.78.82-4.4,3.26-6.19,2.76.82-1.68,3.27-3.36,4.89-4.76-3.53-5.13-4.95-7.98-7.84-13.49-2.12-.48-1.67,1.39-4.04.99l-.09-.67c1.36-1.45,2.85-1.96,4.66-2.81,2.85-14.93,5.78-23.54,14.12-36.41-2.01-3.23-3.17-5.23-4.86-8.69l-1.3-5.21c-.19-3.59-.88-10.51.97-13.44,3.98-2.84,14.5,4.5,18.12,6.46,1.61.87,8.69,7.45,9.83,7.24,9.49-1.76,19.47-8.33,29.54-8.56,1.32.81,3.41,2.37,4.75,3.3-.01-3.02.12-13.41-.52-15.69-3.39-.63-22.29-.4-26.34-.4l-60.62.1h-72.55c-10.59-.02-29.57-.61-39.4.26-2.3-.38-10.54-.1-13.21-.06-.9,1.75-.62,27.22-.63,30.94l-.02,60.62-.09,63.01c0,9.67-.23,20.66.05,30.22-.18,15.57-.02,32.39,0,47.97.02,22.6-1.43,56.66,5.06,78,.8,3.76,1.47,7.06,2.6,10.74,9.28,31.02,21.69,53.86,42.65,78.45,22.47,23.99,40.39,38.75,70.55,53.22,3.73,1.79,14.67,6.95,18.59,7.75,2.92,1.24,8.62,3.34,11.77,3.94,1.38.73,7.9,2.45,9.53,2.85,17.07,4.21,34.54,6.53,52.11,6.92.57-7.57-.1-15.31.4-22.96-.11-.2-.76-.99-.88-1-8.11-.57-16.62-.22-24.73-.78-2.45,1.77-8.07-.52-11.19-1.3l-13.59-3.67c.79-3.33.94-6.87,4.41-8.29,1.09.08,1.84.27,2.76-.26.5-1.84.09-3.66-.16-5.6-2.19-.55-4.83-1.38-6.96-2.08-6.12-2.02-7.02-1.08-9.56,3.96,1.43.67,3.61,1.48,5.13,2.1-.55,3.45-.81,4.73-1.93,8.01l-.46-.09c-3.56-.7-17.55-3.88-19.25-6.41l.41-.21c2,1.13,15.95,5.67,18.43,4.99,1.21-1.42,1.49-3.48,1.96-5.37-2.2-1.04-3.74-1.41-4.12-4.1-.15-1.04.13-2.11.78-2.95,1.23-1.59,2.28-2.15,4.19-2.35l.24.05c4.4,1.9,8.24,2.47,12.04,4.01.23,2.14.72,4.41.05,6.36-1.6,1.49-2.29,1.13-4.42.85,4.87,1.69,1.9,4.38,4.17,7.7l1.87.65c2.52-.23,5.44-.09,7.37-1.32.77-3.06.28-2.29,2.57-4l-.17-.65c-2.16-8.15-5.61-2.79-3.19-14.94l.23.72c-.95,2.46-.15,2.97.6,5.97l.44-.43c.86-2.24.45-4,.19-6.39.2-.85.2-.78.83-1.41l.79.55c.39,3.7.74,7.46,1.23,11.14.39,2.97.73,6.8,4.22,7.15,2.08-1,1.96-1.51,3.45-3.67.78-1.49,2.34-3.77,3.35-5.14,4.88-6.62,8.88-14.11,13.53-20.81,3.17-.9,5.95-2.74,7.73-3,3.31,2.04,1.49,4.19,3.06,6.88,1.94-3.02,4.37-7.18,7.05-9.45-.89,3.98-1.43,19.85.22,22.82.7.52.43.47,1.2.61.59-.41.85-.45,1.16-.99.29,1.37.37,1.65.88,2.95-2.17,2.24-1.37,2.5-2.33,4.31l-.32.71c-.34,1.55-1.41,8.11-1.78,9.05-5.31,4.07-1.84,4.05-10.21,3.66.07,3.19.25,22.4-.48,24.26-3.94,3.24-38.27-2.64-44.01-3.82-6.14-1.24-12.21-2.8-18.19-4.68l-2.59-.46c-2.48-.97-5.01-1.8-7.51-2.71-25.8-9.41-51.27-23.39-71.86-41.78-.93-1.21-2.21-2.12-3.42-3.09-2.97-2.87-5.9-5.8-8.79-8.75-26.17-27.26-42.7-55.72-52.31-92.61-7.92-30.38-6.32-55.87-6.25-86.75l-.05-66.48.06-94.09c0-22.94-.26-47.16.21-70.01,1.93.01,3.86-.02,5.8-.09,9.45-.04,21.96.19,31.16-.52,7.57.37,14.43.38,21.99.34l57.74.07c6.55.02,18.41-.63,24.22-.06Z"/>
  <path class="st16" d="M196.93,194.23c3.55-4.43-1.62-7.1-2.77-12.07-1.01-4.36-4.4-14.78.32-17.43,5.83-.1,17.34,7.47,21.79,11.38,5.43,6.32,6.64.76,10.86,1.48.16.75.5,2.55.76,3.16l.4,1.39c1.79,2.57,2.09,2.69,4.65,4.58.6.09,1.2.17,1.81.24,3.82.43,5.33-.06,8.17-2.32,1.84,1.93,3.66,1.33,6.3,1.26l.17.26c-.67.4-.93.53-1.64.83l-.18,1.14c.25,1.9.74,3.78.03,5.45l-1.32,1.13c.48,2.09,1.7,1.6,1.45,3.28-1.84.23-2.79.4-4.58.87,1.21.1,2.43-.02,3.27.61-1.98,1.37-3.38,1.19-5.78,1.21,1.35,1.53,2.65,2.7,3.27,4.6l-.36.9c-1.12.44-1.93.72-3.09,1.06-.21.83-.11.82.21,1.64-1.96,1.9-8.38,2.84-11.11,2.79-2.8.81-5.56,4.18-7.65,6.38-1.06.41-.53.4-1.64-.02l-.5-1.4c-1.09,1.24-1.61,1.8-3.16,2.14-2.73-2.17.43-5.54-3.54-7.5-.32-.76-.76-2.12-1.1-2.74-2.92-5.32-11.42-5.76-16.66-7.72l-.49-.18c-.7-.33-.38-.08-.75-1.05.79-2.04,1.29-2.6,2.56-4.3l.29-1.05Z"/>
  <path class="st4" d="M222.31,193.03l5.9-.99.31-.49c-1.44-.67-3.47-1.36-3.28-3.19,1.89-1.48,3.03-3.84,3.05-6.23,1.79,2.57,2.09,2.69,4.65,4.58.6.09,1.2.17,1.81.24,3.82.43,5.33-.06,8.17-2.32,1.84,1.93,3.66,1.33,6.3,1.26l.17.26c-.67.4-.93.53-1.64.83l-.18,1.14c.25,1.9.74,3.78.03,5.45l-1.32,1.13c.48,2.09,1.7,1.6,1.45,3.28-1.84.23-2.79.4-4.58.87,1.21.1,2.43-.02,3.27.61-1.98,1.37-3.38,1.19-5.78,1.21,1.35,1.53,2.65,2.7,3.27,4.6l-.36.9c-1.12.44-1.93.72-3.09,1.06-.21.83-.11.82.21,1.64-1.96,1.9-8.38,2.84-11.11,2.79-2.8.81-5.56,4.18-7.65,6.38-1.06.41-.53.4-1.64-.02l-.5-1.4c1.06-.98,2.35-2.38,3.39-3.44l1.02-.93c-.06-2.25,1.25-2.51,1.07-2.81-1-1.63-1.49-.73-1.59-2.62l1.26-.49c-.04-1.77-1.45-3.05-1.71-5.57,2.52-2.79,7.6-.81,9.95-2.77l-.42-.97c-3.61-3.16-8.65-1.58-12.06-2.49l.2-.77,1.44-.72Z"/>
  <path class="st16" d="M232.94,186.71c.6.09,1.2.17,1.81.24,3.82.43,5.33-.06,8.17-2.32,1.84,1.93,3.66,1.33,6.3,1.26l.17.26c-.67.4-.93.53-1.64.83l-.18,1.14-.89-.61-.58.49c.31,2.69.28,1.93-.73,4.17-3.9,8.65-4.74,7.31-12.99,2.66-1.07-.66-2.09-1-3.25-1.45,2.16-.94,2.78-1.34,3.64-3.5-.26-1.24-.04-1.94.16-3.18Z"/>
  <path class="st19" d="M224.18,212.26c1.65-1.3,5.55-3.31,7.64-2.17-.45,1.14-.68.89-2.26,1.59-2.8.81-5.56,4.18-7.65,6.38-1.06.41-.53.4-1.64-.02l-.5-1.4c1.06-.98,2.35-2.38,3.39-3.44l1.02-.93Z"/>
  <path class="st17" d="M229.13,193.39l-.46-.34.66-1.01c-.02-2.31-1.03.02-3.53-3.26l.18-.58c4.12-.71,4.05,1.21,6.79,1.69-.86,2.16-1.48,2.57-3.64,3.5Z"/>
  <path class="st12" d="M234.87,200.3c2.31.48,5.1,1.12,5.26,3.81l-.83.93c-1.57.85-2.55,1.51-4.15,1.05-.83-1.42-.39-3.99-.27-5.79Z"/>
  <path class="st8" d="M229.18,200.77c1.89.95,2.41,4.3,1.08,5.87l-1.34-.24c-1.81-.92-2.92-1.19-3.2-3.28.79-1.38,1.95-1.67,3.45-2.36Z"/>
  <path class="st17" d="M217.93,182.92c-.33-3.87-3.55-3.32-3.34-6.34l1.68-.48c5.43,6.32,6.64.76,10.86,1.48.16.75.5,2.55.76,3.16l.4,1.39c-.02,2.39-1.16,4.75-3.05,6.23-.19,1.83,1.85,2.51,3.28,3.19l-.31.49-5.9.99c-1.51-1.62-.89-2.71-1.53-5.22l-1.29-.69c-.98-1.64-1.49-2.25-1.56-4.2Z"/>
  <path class="st10" d="M217.09,196c-1.92-3.54-5.36-7.64-5.76-11.22,1.18-3.01,3.88-2.28,6.6-1.86.08,1.96.58,2.56,1.56,4.2-.66,2.79-1.66,6.03-2.41,8.88Z"/>
  <path class="st17" d="M196.93,194.23c1.92-.1,1.45-.35,2.9.46.34,1.38.38.69-.36,2.12l-1.14.59-1.13-.38c-.25-.68-.38-1.03-.55-1.74l.29-1.05Z"/>
  <path class="st19" d="M200.87,176.63c2.11,1.13,5.42,4.84,6.11,7.19-.08,1.54-.35,1.68-1.38,2.96-1.22.9-1.32.95-2.73,1.46-1.11-.79.66-3.1.38-4.48-.55-2.76-1.84-4.07-2.38-7.13Z"/>
  <path class="st17" d="M260.29,573.56c1.94-3.02,4.37-7.18,7.05-9.45-.89,3.98-1.43,19.85.22,22.82.7.52.43.47,1.2.61.59-.41.85-.45,1.16-.99.29,1.37.37,1.65.88,2.95-2.17,2.24-1.37,2.5-2.33,4.31l-.32.71c-1.95,1.81-4.29,8.17-5.44,10.99-3.92.05-29.7.74-31.85-.53-.98-3.86,2.34-5.78,1.77-9.34.78-1.49,2.34-3.77,3.35-5.14,4.88-6.62,8.88-14.11,13.53-20.81,3.17-.9,5.95-2.74,7.73-3,3.31,2.04,1.49,4.19,3.06,6.88Z"/>
  <path class="st4" d="M260.29,573.56c1.94-3.02,4.37-7.18,7.05-9.45-.89,3.98-1.43,19.85.22,22.82.7.52.43.47,1.2.61.59-.41.85-.45,1.16-.99.29,1.37.37,1.65.88,2.95-2.17,2.24-1.37,2.5-2.33,4.31-3.84.99-2.55-.13-5.17-1.02-.72-.24-6.68,4.13-7.39,4.38-3.32,1.16-8.63,1.18-12.42,1.55,3.98-6.04,13.9-19.47,16.81-25.16Z"/>
  <path class="st17" d="M265.11,569.12c1.46,2.22,2.19,20.94-6.65,19.83-1.41-1.43-1.25-5.69-1.22-7.65,2.6-4.07,5.22-8.14,7.88-12.18Z"/>
  <path class="st14" d="M254,585.93c1.28,1.63.57,8.17.46,10.6-2.4.24-4.99.37-7.4.53-.89-1.72,5.56-9.5,6.94-11.13Z"/>
  <path class="st16" d="M222.11,581.87c.2-.85.2-.78.83-1.41l.79.55c.39,3.7.74,7.46,1.23,11.14.39,2.97.73,6.8,4.22,7.15,2.08-1,1.96-1.51,3.45-3.67.57,3.56-2.75,5.48-1.77,9.34,2.14,1.27,27.93.57,31.85.53,1.15-2.82,3.49-9.18,5.44-10.99-.34,1.55-1.41,8.11-1.78,9.05-5.31,4.07-1.84,4.05-10.21,3.66.07,3.19.25,22.4-.48,24.26-.01-4.29.55-21.47-.83-24.3-3.12-1.74-18.24-.2-22.54-.61-1.82-.17-1.63-.47-2.94-2.03-.42.34-2.1,2.25-2.32,2.19-5.02-1.25-19.17-2.63-21.06-7.54.28-2.09.49-3.42,2.04-4.64,4.87,1.69,1.9,4.38,4.17,7.7l1.87.65c2.52-.23,5.44-.09,7.37-1.32.77-3.06.28-2.29,2.57-4l-.17-.65c-2.16-8.15-5.61-2.79-3.19-14.94l.23.72c-.95,2.46-.15,2.97.6,5.97l.44-.43c.86-2.24.45-4,.19-6.39Z"/>
  <path class="st16" d="M224.01,597.59c.87.77,3.37,3.92,3.64,4.98-.41,1.98-.02,1.41-1.3,2.72-3.59.95-8.16-1.89-12.28-2.39,2.52-.23,5.44-.09,7.37-1.32.77-3.06.28-2.29,2.57-4Z"/>
  <path class="st10" d="M229.12,177.01c3.98-1.52,8.92-3.57,12.89-4.88l1.18,6.21c.18,2.38.48,4.02-.28,6.28-2.84,2.27-4.35,2.76-8.17,2.32-.6-.07-1.21-.15-1.81-.24-2.56-1.89-2.86-2.01-4.65-4.58l-.4-1.39c-.27-.61-.6-2.41-.76-3.16l2-.57Z"/>
  <path class="st20" d="M229.12,177.01c1,.55,1.23.64,2.12,1.4.44,1.72.58,1.2-.07,2.44-1.61.72-1.11.48-3.28-.12-.27-.61-.6-2.41-.76-3.16l2-.57Z"/>
  <path class="st20" d="M237.26,174.83c2.07.34,1.44.23,3.06,2.37l-.39.89c-1.43.05-2.66-1.76-2.67-3.25Z"/>
  <path class="st17" d="M146.88,520.22c2.23,0,11.68,5.53,13.01,7.05,2.19,1.17,4.35,2.4,6.46,3.7l-1.51,8.85.11,3.71c.03,1.29.12,1.38.85,2.48,2.63,1.15,5.55-2.36,9.04-2.26,1.41-1.42,2.95-2.93,4.3-4.39,3.74,1.58,6.12,3.53,9.39,5.12,1.34.85,2.51,1.66,3.95,2.33,2.18,1.64,5.18,2.71,6.85,4.59l-.02,1.28-3.33,6.61c-1.67-1.01-3.44-2.14-5.19-2.98-2.69,5.46-12.85,24.13-13.7,28.41,1.16,2.65,5.12,2.07,7.75,2.27,4.51-6.06,8.6-12.64,12.98-18.49.88-1.76,4.95-7.33,6.13-8.87l-.05-.42c2.39-3.41,3.92-5.88,6-9.48,4.13,1.72,7.43,2.96,11.67,4.38.54,8.47,1.86,18.98,2.14,26.92l-.79-.55c-.62.62-.62.56-.83,1.41.27,2.39.67,4.15-.19,6.39l-.44.43c-.75-3-1.55-3.51-.6-5.97l-.23-.72c-2.42,12.14,1.04,6.79,3.19,14.94l.17.65c-2.29,1.71-1.8.94-2.57,4-1.93,1.23-4.86,1.09-7.37,1.32l-1.87-.65c-2.27-3.32.71-6.01-4.17-7.7,2.13.28,2.81.64,4.42-.85.68-1.95.18-4.22-.05-6.36-3.8-1.53-7.64-2.11-12.04-4.01l-.24-.05c-1.91.2-2.96.76-4.19,2.35-.65.84-.93,1.9-.78,2.95.39,2.7,1.93,3.07,4.12,4.1-.47,1.88-.75,3.95-1.96,5.37-2.48.68-16.43-3.86-18.43-4.99l-.41.21-1.32,1.03c-2.87.22-14.4-7.57-17.29-9.37-1.45-1.14-2.17-1.39-3.84-2.13-1.13-.34.08-.84-2.69-1.89-2.21-.82-3.3-2.44-6.03-3.12-2.66,1.04-1.9-1.67-5.19-2.35l.45-.39c-9.11-7.11-17.03-8.7-26.19-18.24,1.9-1.4.03-1.05,1.68-3.08,1.62-.63,2.26-.35,3.88.12l.54.16c.1-.93.13-.9.54-1.76l1.39-.03.31.38-.23,1.03.76-.23-.06-.61.43.19c.34-.43.72-.71,1.13-1.07-.3,3.86,2.6,6.73,6.33,7.02.92-.48.94-.42,1.57-1.23.3-1.07,3.26-6.53,3.92-7.81,3.61-6.99,6.84-12.46,9.4-19.91-1.76-1.37-3.24-2.13-3.78-4.14.11-2.05,1.53-3.77,2.69-5.59Z"/>
  <path class="st16" d="M134.65,557.67l.68.44c.86,1.86,1.85,4.06,3.72,4.78,5.26-1.04,12.31-25.07,14.7-27.69h1.01s.75.82.75.82c.39,3.76.73,2.88,1.85,6.28-2.61,1.95-.88,9.08-2.55,12.17-1.86-.37-1.1-1.55-2.34-1.83-.9,2.69-4.3,21.63-3.87,23.44,2.63-.99,4.51-2.05,6.84-2.97l1.2,1.04c3.39-2.77,12.76-14.39,16.66-18.49,1.34-1.41,4.55-5.22,6.07-5.81l.38.39c-.08,2.61-.17,3.17-.84,5.69,1.05,1.34,1.74,1.75,1.9,3.24l-.98.74-.62-.19c-1.52-2.94-1.28-.97-3.33-2.84l-.39-.93c-4.41,2.77-18.42,20.26-22.17,24.94-2.21-.82-3.3-2.44-6.03-3.12-2.66,1.04-1.9-1.67-5.19-2.35l.45-.39c-9.11-7.11-17.03-8.7-26.19-18.24,1.9-1.4.03-1.05,1.68-3.08,1.62-.63,2.26-.35,3.88.12l.54.16c.1-.93.13-.9.54-1.76l1.39-.03.31.38-.23,1.03.76-.23-.06-.61.43.19c.34-.43.72-.71,1.13-1.07-.3,3.86,2.6,6.73,6.33,7.02.92-.48.94-.42,1.57-1.23Z"/>
  <path class="st15" d="M142.42,564.36c2.14-5.73,6.17-15.74,9.83-20.68-.58,5.62-2,11.1-2.93,16.67-.85,5.07-1.83,10.15-2.78,15.21-.15.83.34,1.55.75,2.22-2.66,1.04-1.9-1.67-5.19-2.35l.45-.39c1.25-2.51,2.52-5.17,3.86-7.62l-3.99-3.05Z"/>
  <path class="st17" d="M133.6,564.38c1.42.1,1.64.42,2.16,1.6-.55,1.31-.21.86-1.76,1.62-.7-.29-.46-.18-1.04-.74.45-1.01.52-1.42.64-2.48Z"/>
  <path class="st17" d="M137.21,564.84c.38-.41,1-.46,1.44-.13s.56.95.27,1.42c-.21.35-.61.55-1.02.51-.41-.04-.76-.31-.91-.69-.15-.38-.06-.82.21-1.12Z"/>
  <path class="st15" d="M153.32,580.9c3.75-4.68,17.77-22.17,22.17-24.94l.39.93c-2.71,3.96-7.97,15.02-10.31,19.72-2.34,1.22-3.54.16-5.83-.91-1.32,1.96-3.42,4.77-3.73,7.1-1.13-.34.08-.84-2.69-1.89Z"/>
  <path class="st15" d="M164.84,539.82l.11,3.71c.03,1.29.12,1.38.85,2.48,2.63,1.15,5.55-2.36,9.04-2.26-3.31,3.81-7.54,8.18-10.6,11.89-1.09,1.08-2.18,2.16-3.28,3.23.4-4.04,1.2-7.56,2.04-11.53l1.84-7.51Z"/>
  <path class="st16" d="M159.89,527.27c2.19,1.17,4.35,2.4,6.46,3.7l-1.51,8.85-1.84,7.51c-.5-4.29-1.06-8.96-1.35-13.28-.08-1.17-.98-1.42-2.01-2.07l.41-.68.88-.2c-1.11-1.42-1-1.99-1.04-3.83Z"/>
  <path class="st15" d="M210.06,566.01l.24,6.81c.08,1.46.39,2.93-.4,4.07-1.41.37-2.18-.05-3.65-.48-.62-.22-1.2-.51-1.8-.79-.3-2.66,3.74-7.08,5.61-9.61Z"/>
  <path class="st16" d="M178.21,547.4c.35-.32.85-.42,1.29-.25.44.16.76.56.82,1.03.06.47-.15.94-.54,1.2-.55.37-1.29.26-1.7-.26-.41-.52-.35-1.27.14-1.72Z"/>
  <path class="st16" d="M246.04,305.95c1.69-1.59,1.75-1.56,4.04-2.09l1.07.31c.45.82.82,1.47,1.32,2.27,1.14.26,2.05.35,2.98,1.03,1.37,0,1.84-.29,2.61-1.3l4.54-.47c1.99-.02,1.83-.32,3.32.52,1.24,2.8.88,38.33.88,44.36l-.12,194.68c0,3.24,1.58,16.71,1.25,17.75-.14.43-.34.74-.6,1.11-2.67,2.27-5.1,6.44-7.05,9.45-1.57-2.68.26-4.84-3.06-6.88-1.77.26-4.56,2.1-7.73,3,.68-1.02,1.1-1.4,1-2.61-2.04-1.72-7.19-.42-9.48.52l-2.63,2.4c-.71,1.15-4.3,5.51-5.33,6.83-1.81-.65-3.6-1.45-5.38-2.2,1.22-4.99,5.13-13.31,7.34-18.25,6.55.28,13.11.43,19.67.46,1.03-28.25.27-60.64.29-89.25l.12-159.59c-2.92-.39-6.51-.7-9.08-2.03Z"/>
  <path class="st17" d="M264.59,432.94c1.3,2.49.5,12.17.36,15.33-1.79-3.16-.64-11.45-.36-15.33Z"/>
  <path class="st17" d="M258.04,560.06c2.42-.37,3-.98,3.83,1.29-2.46.42-3.03,1.04-3.83-1.29Z"/>
  <path class="st17" d="M259.46,370.39l1.22,1c.5,1.57.35,1.06-.14,2.9l-1.26-1.05c-.5-1.41-.29-1.09.19-2.85Z"/>
  <path class="st17" d="M132.89,504.19l2.43,2.46c.12,2.28.23,4.28.15,6.57l.62.45,1.44-.63c.37,2.81-.01,4.9.34,7.44-3.68,10.52-8.16,20.4-11.13,31.39-.42.37-.8.64-1.13,1.07l-.43-.19.06.61-.76.23.23-1.03-.31-.38-1.39.03c-.41.86-.44.83-.54,1.76l-.54-.16c-1.63-.47-2.26-.75-3.88-.12-1.66,2.03.22,1.68-1.68,3.08-2.8-2.57-7-6.06-9.02-9.28-.63-.99-.23-1.35.17-2.51.15-2.13.45-3.83-.64-5.64-1.88-1.03-1.41-.7-3.92-.38-.95.81-.96.94-2.22,1.14-3.61-1.57-11.44-10.02-14.17-13.25,3.59-4.26,3.73-6.04,8.86-3.58,12.32-6.01,24.83-12.97,37.47-19.11Z"/>
  <path class="st15" d="M102.57,530.66c1.68-1.01,3.71-2.3,5.42-3.16,3.27,3.11,6.57,6.18,9.89,9.23-.74,1.79-1.35,4.02-2.84,5.01-5.18.72-3.69-1.3-7.53,3.25.15-2.13.45-3.83-.64-5.64-1.88-1.03-1.41-.7-3.92-.38l3.21-3.67-3.6-4.66Z"/>
  <path class="st15" d="M124.03,518.02l.71.16c.54,1.65-2.37,8.56-4.19,9.33l-1.09-.58-4.06-4.18c2.88-1.42,5.81-3.13,8.62-4.72Z"/>
  <path class="st16" d="M127.85,513.84c1.18.02,1.31.1,2.42.4.45,1.15.34.73-.19,2.22-.8-.42-1.78-1.01-2.58-1.47l.35-1.15Z"/>
  <path class="st8" d="M41.61,341.77c-.28-9.56-.05-20.55-.05-30.22l.09-63.01.02-60.62c.01-3.72-.26-29.2.63-30.94.69,2.56.46,7.31.47,10.1.03,6.11-.05,12.28-.1,18.39,0,1.15.61,2.95.71,4.45.13,2.05-.03,5.55.27,7.41.2,1.2,2.02,4.9,2.51,6.27.33.93.34.15-.14,1.44-1.01-.28-1.42-.44-2.36-.82-1.49,2.64,1.15,5.36,1.04,7.68-.17,3.67-1.48,8.11-1.53,11.76-.11,7.98.44,15.9.19,23.87-.01.47,1.32,1.87,1.7,2.26-.16,2.41-1.99,5.43-1.96,6.42.16,5.15.94,12.02,1.46,17.06l-1-.08c-.32,8.9.61,15.86-.33,24.96-.98,9.46,1.44,36.19-1.64,43.64Z"/>
  <path class="st8" d="M55.52,157.04c9.83-.87,28.81-.28,39.4-.26h72.55s60.62-.1,60.62-.1c4.05,0,22.95-.23,26.34.4-6.1.93-45.99.11-47.48,1.32l.51,1.77-.63.43c-2.2-.08-3.34-1.36-5.72-2.25l-.59.37.59,1.78-.27.37-.69-.3-.37-1.79c-3.09-1.28-20.77.16-24.9.76-.49-.26-2.3-1.15-2.76-1.13-9.65.43-19.33-.45-28.99.25-1.9.14-4.3-.92-6.41-.92-18.52-.03-37.11.42-55.62-.37-2.17-.09-4.41.03-6.58-.02-6.19-.16-12.88.42-18.99-.31Z"/>
  <path class="st8" d="M206.58,260.55c2.61,2.83,5.79,6.1,8.09,9.11-7.89-.25-8.39-1.65-8.09-9.11Z"/>
  <path class="st16" d="M135.33,506.65c1.74,1.71,4.19,3.97,5.75,5.76-.69,1.7-1.8,4.2-2.34,5.88l-.86,2.19c-.35-2.54.03-4.63-.34-7.44l-1.44.63-.62-.45c.08-2.29-.04-4.29-.15-6.57Z"/>
  <path class="st12" d="M193.04,182.97c0,1.17.01,1.57-.21,2.76l-.08-.27-.97.22,1.03-.52-.66.79c-3.41-2.57-1.22-9.36-2.31-11.78l.53.31c.46,1.37.74,1.98,1.37,3.28l1.3,5.21Z"/>
  <path class="st8" d="M181.05,617.91c3.05-.03,3.66-.02,6.57-.85,2.06,1.89-.67,2.06,4.06,3.08.62.74.76.83,1.14,1.71-3.16-.59-8.85-2.7-11.77-3.94Z"/>
  <path class="st12" d="M188.54,544.47l.3-1.92c2.59-1.7,4.82.03,5.03,2.84-.56.87-.49.9-1.37,1.41-1.44-.67-2.61-1.48-3.95-2.33Z"/>
  <path class="st8" d="M46.67,467.74c2.28,1.52,4.55,6.17,2.95,8.75-.26.42-.32,1.51-.36,1.99-1.13-3.68-1.8-6.99-2.6-10.74Z"/>
  <path class="st12" d="M91.91,556.93l.56-1.73c.94-.04.52-.16,1.23.48l.47.92c-.93.41-1.24.32-2.25.33Z"/>
  <path class="st1" d="M103.11,292.51c12.12-.87,29.35-.12,42.07-.14,10.77-.05,21.55-.04,32.32.02,5.26.01,11.46-.24,16.6.08-8.58,7.54-23.61,15.54-30.67,22.06.58,6.33.29,15.57.25,22.14,7.62-.12,13.17.57,20.5.8,2.79-4.82,18.43-26.31,22.31-29.96.56,7.15-.29,13.96-.13,21.16.45,16.96.57,33.92.36,50.88-.03,4.02.22,8.48.1,12.37.12,1.83.38,1.55-.36,2.9-2.01-.74-16.2-20.65-18.7-24.21l-3.62-4.49-20.78-.3c.13,12.46.12,24.92-.03,37.38,2.87,5.21,1.24,8.51,1.88,14.04,1.09,9.51.78,18.31.34,27.81-.16,3.36-.11,7,0,10.37.04.42,1.63,1.82,2.06,2.2.05.52.15,1.17.14,1.67,7.12,6.51,19.49,12.32,26.54,19.6-22.3.47-45.62.03-67.93-.26-6.49-.09-17.92.49-23.45.11,4.21-3.45,17.67-13.58,22.23-16.25,2.88-2.33,4.95-4.47,8.36-5.87.68-25.03-.04-50.08.38-75.11.09-5.2.23-10.74-.15-15.89-6.16.07-12.53-.47-18.65.03-2.67.22-3.1.63-4.74,2.69-1.98,3.15-6.32,8.56-8.63,11.82-3.03,4.29-6.95,10.44-10.21,14.21l-.64-.04c-2.01-3,.46-74.55-.76-82.38-.17-1.07,0-3.33.65-4.33,1.38.36,2.24,1.73,3.21,2.87l.15.25,2.18,3.57c1.16,1.94,1.55,2.58,3.05,4.31,2.94,3.67,5.85,7.36,8.72,11.07,1.44,1.93,3.81,5.32,5.41,6.93,3.94,0,17.06.86,19.62-.79,1.79-2.46.76-16.9.79-21.38-7.31-4.94-24.48-16.16-30.76-21.95Z"/>
  <path class="st3" d="M110.32,368.35c-1.98,3.15-6.32,8.56-8.63,11.82-3.03,4.29-6.95,10.44-10.21,14.21l-.64-.04c-2.01-3,.46-74.55-.76-82.38-.17-1.07,0-3.33.65-4.33,1.38.36,2.24,1.73,3.21,2.87l.15.25,2.18,3.57c1.16,1.94,1.55,2.58,3.05,4.31,2.94,3.67,5.85,7.36,8.72,11.07-.06,5.36-.43,22.25,1.61,26.62,1.17.49,1.19.43,2.41.45,4.54-.02,25.5-.17,28.02.73.86,3.47.39,5.52-1.25,8.49l-.4.24c-.57-1.54-.8-2.77-2.05-3.73-1.82-.46-17.15-.15-19.92-.15-2.69,0-2.77-.4-4.85.73-1.04,1.34-1.45,3.64-1.3,5.27Z"/>
  <path class="st5" d="M103.61,345.41c.47-.23,1.04-.09,1.35.32.32.41.3,1-.04,1.39-.29.34-.76.47-1.19.32-.42-.14-.72-.53-.75-.98-.03-.45.22-.87.62-1.06Z"/>
  <path class="st1" d="M103.3,358.54c.39-.39,1.03-.4,1.43-.02.4.38.43,1.02.05,1.43-.25.28-.63.39-.99.31-.36-.08-.65-.36-.75-.72s0-.74.26-1.01Z"/>
  <path class="st3" d="M137.35,462.84c-1.13-1.16-1.17-1.26-1.88-2.75,1.97-2.26,1.23-2.1,3.73-2.66l.32-.57-.65-1.87c2.49,2.09,2.66,3.23,6.39,3.54,1.9.16,8.89-.18,10.14-1.21.59-3.84-.45-16.56,1.51-18.5,5.48.88-.44,15.82,4,19.47,2.29,1.88,3.8,1.19,6.3.9l.52.11c7.12,6.51,19.49,12.32,26.54,19.6-22.3.47-45.62.03-67.93-.26-6.49-.09-17.92.49-23.45.11,4.21-3.45,17.67-13.58,22.23-16.25,4.93-.23,5.66,2.67,8.64,1.38.1-1.32-.02-1.04-.71-2.42l.45-.13c1.04.94,1.38,1.16,2.09,2.34.14-.32.5-.84.7-1.15l1.05.33Z"/>
  <path class="st5" d="M169.1,470.65c1.69-.13,2.88-.39,4.44.21.97,1.59.68,1.74.77,3.73l-.85.16c-1.97-.84-2.96-2.4-4.36-4.1Z"/>
  <path class="st5" d="M165.17,463.24c.96.03,1.73.27,2.66.52,1.06,1.15.79.48.75,2.11-.7,0-1.04-.1-1.73-.21-1.25-.98-1.19-.91-1.67-2.42Z"/>
  <path class="st5" d="M149.03,462.97l.77-.38-.19,1.03-.81.35.24-.99Z"/>
  <path class="st5" d="M140.56,471.08l.85-.52v.89s-.69.38-.69.38l-.16-.75Z"/>
  <path class="st5" d="M169.82,357.02c5.69-1.58,11.63-.3,17.3-1.07.3-.3.59-.59.89-.89,1.85-5.28-.95-11.43-.4-16.3.62-5.6,7.15-17.9,13.37-18.4.14.5.29.94.49,1.41.75-.29.8-.33,1.46-.78,2.98,3.85-.15,16.43,2.01,21.75.34,3.85-.12,7.89.13,11.72.33,5.07.59,10.1.87,15.18.42,7.77-1.02,14.68.87,22.29.12,1.83.38,1.55-.36,2.9-2.01-.74-16.2-20.65-18.7-24.21.43-1.06,1.84-3.54,2.82-4,1.55.58,3.22,2.81,4.14,4.17-1.2-1.07-1.34-1.11-1.7-2.59.46-2.16,1.4-1.7,2.04-3.31-1.39-.66-.33.59-2.57.92-.84-1.04-1.76-2.04-2.26-3.29l-.77-.1-.58,1.23-.85.03c-1.13-1.15-1.47-1.15-3.04-1.5.11-1.59,1.65-3.2,3.02-3.91l.52-.82-.21-.31c-6.08-.67-12.21.39-18.5-.11Z"/>
  <path class="st3" d="M169.82,357.02c6.29.51,12.42-.56,18.5.11l.21.31-.52.82c-1.38.71-2.91,2.33-3.02,3.91-2.08.58-2.91.68-4.98.22-3.56.72-14.26.27-17.99-.35-1.56,1.01-2.55,2.59-4.19,3.14-1.52-1.74-3.05-5.03-2.02-7.29,2.11-1.56,10.09-.64,13.54-.85l.47-.03Z"/>
  <path class="st5" d="M159.88,357.17c1.76.53,2.44.43,3.56,1.64-.13.91,0,.6-.45,1.36-1.62-.38-2.75-1.29-3.11-3Z"/>
  <path class="st5" d="M174.5,359.34l.78.4.06.79c-1,1.54-.46,1.01-2.16,1.92-.91-1.21-.7-.57-.86-1.9.94-.36,1.41-.52,2.19-1.21Z"/>
  <path class="st8" d="M163.33,403.22c2.87,5.21,1.24,8.51,1.88,14.04,1.09,9.51.78,18.31.34,27.81-.16,3.36-.11,7,0,10.37.04.42,1.63,1.82,2.06,2.2.05.52.15,1.17.14,1.67l-.52-.11c-2.45-.99-3.64-1.94-3.72-4.65-.18-6.07-.09-12.19-.08-18.26l-.1-33.07Z"/>
  <path class="st15" d="M145.46,314.65l7.13-.1c.11,10.34.42,20.24.37,30.62,10.57.02,21.15.12,31.72.31.34,2.68.35,5.72.43,8.45-10.02.4-22.39.04-32.6.05l.76,55.79c.12,13.59.52,26.59-.63,40.22-.15,1.83.16,3.49-.41,5.27l-1.22.49c-2.57.21-4.61.09-7.19-.03-1.1-33.83.52-68.18-1.18-101.71-4.42,0-28.48.7-30.31-1.23-.64-2.23-.25-5.06-.08-7.42,10.61.09,21.22.04,31.83-.16-.3-8.51-.41-20.34-.18-29.08.02-.84.84-1.07,1.57-1.47Z"/>
  <path class="st12" d="M126.64,346.92c1.82.17,1.58-.14,2.69.83l.12,1.9-2.29-.4c-.85-1-.6-.61-.52-2.33Z"/>
  <path class="st8" d="M149.31,346.28l.88-.03-.69.74c-.29-.02-.7-.18-1-.28l.81-.43Z"/>
  <path class="st3" d="M142.22,292.88c3.77-.22,46.19-.01,47.09.44.44.22.52.86.68,1.31-.61.79-4.83,3.58-5.86,4.18-7.28,4.22-18.92,15.84-27.65,13.45-3.25-4.55-11.46-.66-16.63-.78-1.82-1.1-2.05-2.37-2.99-4.5l-.35,1.13c-2.05.78-5.53,1.41-7.74,1.2-1.89-2-.65-4.1.22-6.39-1.54-2.01-3.8.54-7.6-.27-.19-3.06-1.06-3.66-3.26-6.03l.12-.54c4.64-3.3,19.69-1.23,23.97-3.2Z"/>
  <path class="st3" d="M159.1,333.15c1.79,2.43.44,3.74,1.2,5.78.61,1.63,5.99,2.34,8.19,3.23l-2.88.12c-2.73-.4-6.17,1.28-8.91-1.46-.44-2.47,1.28-5.42,2.39-7.67Z"/>
  <path class="st3" d="M156.16,401.17c1.9.95,2.59,1.03,3.47,2.75-.25,1.77-.59,1.95-1.8,3.39.18.61.12.64.13,1.3l-.52-.28c-1.49-3.02-1.68-3.96-1.29-7.15Z"/>
  <path class="st5" d="M181.1,339.7l.93-.21.63.44c-.35,2.26-2.32,2.79-4.26,2.32-1.14-.28-1.49-.35-2.59-.88l.35-.6c2.04-.59,2.81-.78,4.94-1.07Z"/>
  <path class="st5" d="M109.04,340.62c2.33-.38,3.12-.9,4.43,1.11-2.84.71-2.94,1.15-4.43-1.11Z"/>
  <path class="st12" d="M180.93,214.76c1.69.27,1.83.23,3.18,1.19.58,1.82.41,1.23-.28,3.41l-.5.05c-2.31-1.41-2.53-2.19-2.41-4.64Z"/>
  <path class="st12" d="M154.69,253.97c1.36-.05,2.23.4,2.75,1.58-.79,1.56-.95,1.25-2.79,2.11l-.14.9c-.3-2.08-.42-2.52.19-4.59Z"/>
  <path class="st12" d="M114.7,463.65c1.43.99,1.05.46,1.73,1.97-.71,1.62-.72,1.25-2.32,2.48-1.3-.59-.91-.13-1.38-1.26.64-1.07,1.3-2.13,1.98-3.19Z"/>
  <path class="st12" d="M188.18,299.15c.84-.13,1.59-.12,2.44-.13,1.63,1,1.4,1.22,2.4,3-1.22-.08-1.88-.21-3.09-.45-1.22-.85-1.2-.97-1.75-2.42Z"/>
  <path class="st12" d="M223.32,552c1.41.47,1.39.43,2.59,1.29.05,1.3.03.89-1.12,2.2-1.46-.6-2.15-.98-2.38-2.47l.91-1.02Z"/>
  <path class="st12" d="M83.86,313.89c.29.39.57.78.87,1.16-1.01,1.16-1.14,1.47-1.87,2.85-.45-.68-.86-1.39-1.27-2.09.45-1.28.68-1.03,2.27-1.92Z"/>
  <path class="st12" d="M93.95,310.49c.45-1.95.04-1.47,1.35-2.44,1.35.33.79-.02,1.63,1.26-.4,1.43.01.97-.97,1.65-.5-.07-1.39-.23-1.86-.22l-.15-.25Z"/>
  <path class="st12" d="M98.82,314.22l2.04.46c1.07,1.13.74.67.98,2.5l-1.69.02c-1.25-.91-.88-.95-1.32-2.98Z"/>
  <path class="st12" d="M216.74,275.75c1.93.04,1.8-.28,3.04.64l.18,2.28c-1.82-.84-2.54-1.19-3.22-2.93Z"/>
  <path class="st12" d="M122.94,487.78c.63-.21,1.32.09,1.6.7.27.61.04,1.33-.54,1.66-.43.25-.96.23-1.37-.05-.41-.28-.63-.76-.56-1.25.07-.49.41-.9.88-1.05Z"/>
  <path class="st12" d="M122.74,441.93c2.09,1.45,1.64.75,2.48,2.71-1.2.11-1.28.07-2.43-.1-.66-1.2-.43-.87-.05-2.61Z"/>
  <path class="st12" d="M187.55,182.58c1.63.83,2.07,1.02,2.16,2.88-1.05-.11-1.29-.22-2.28-.54-.48-1.2-.34-.79.12-2.34Z"/>
  <path class="st12" d="M81.49,359.78c.66.12,1.41.35,2.07.53.79,1.12.52.84.43,2.57-2.39-1.1-1.94-.6-2.5-3.1Z"/>
  <path class="st12" d="M195.92,314.71c.57-.24,1.22-.01,1.52.53.3.54.14,1.21-.36,1.56-.38.26-.87.29-1.27.06-.4-.22-.64-.66-.61-1.11.02-.46.31-.86.73-1.04Z"/>
  <path class="st12" d="M167.06,534.26l.71.49c.69,1.4.41,1.06-.27,3.12h-.57c-.48-1.51-.22-1.98.13-3.61Z"/>
  <path class="st12" d="M178.82,233.63c.14-.38.47-.65.87-.71s.8.1,1.04.41c.25.32.31.74.15,1.11-.23.56-.87.83-1.43.61-.56-.22-.85-.85-.63-1.42Z"/>
  <path class="st12" d="M166.08,269.67c.23-.36.64-.56,1.07-.51.42.06.78.35.9.76.13.41,0,.85-.32,1.14-.41.36-1.01.37-1.43.02-.41-.35-.51-.95-.22-1.41Z"/>
  <path class="st12" d="M68.67,503.24c.25-.31.64-.46,1.03-.4.39.06.72.33.85.71.13.37.05.79-.21,1.09-.39.45-1.07.5-1.52.12-.45-.38-.52-1.05-.15-1.51Z"/>
  <path class="st12" d="M51.77,442.66c.45-.17.96-.02,1.25.36.29.39.29.92,0,1.3-.28.37-.76.52-1.2.38-.44-.14-.74-.54-.75-1-.01-.46.27-.88.7-1.04Z"/>
  <path class="st8" d="M69.34,256.28c.42-.32,1.02-.29,1.4.08.38.37.44.96.13,1.4-.25.34-.67.51-1.09.43-.41-.08-.74-.4-.84-.81-.1-.41.06-.84.4-1.1Z"/>
  <path class="st12" d="M190.21,248.24c.4-.34.98-.35,1.38-.02.4.33.52.9.26,1.36-.21.38-.62.59-1.05.55-.43-.04-.79-.34-.92-.75-.13-.41,0-.86.32-1.14Z"/>
  <path class="st12" d="M168.31,449.38c.39-.39,1.01-.42,1.43-.07.42.36.5.98.18,1.43-.23.32-.63.49-1.02.42-.39-.06-.72-.33-.84-.71-.12-.37-.03-.79.25-1.07Z"/>
  <path class="st8" d="M62.28,503.34c.21-.33.59-.51.98-.48.39.03.73.27.89.63.16.36.11.77-.13,1.08-.35.46-1,.55-1.46.22-.47-.33-.59-.98-.28-1.46Z"/>
  <path class="st8" d="M140.62,191.56c.39-.29.93-.26,1.3.06.37.32.46.85.23,1.28-.2.37-.61.59-1.04.54-.42-.05-.77-.36-.88-.77-.11-.41.05-.85.39-1.1Z"/>
  <path class="st8" d="M187.62,261.28c.41-.39,1.06-.38,1.46.02.4.4.4,1.05,0,1.46-.26.27-.65.38-1.01.28-.36-.1-.65-.38-.74-.75-.09-.36.02-.75.29-1.01Z"/>
  <path class="st12" d="M109.9,209.06c.45-.24,1-.12,1.31.28.31.4.29.97-.06,1.34-.28.3-.71.41-1.1.28-.39-.13-.66-.49-.7-.9-.03-.41.18-.8.54-1Z"/>
  <path class="st8" d="M103.52,429.94c.33-.17.74-.15,1.05.07s.48.58.44.95c-.04.37-.28.7-.63.84-.51.21-1.09-.02-1.32-.52-.23-.5-.03-1.09.46-1.34Z"/>
  <path class="st8" d="M103.23,423.32c.35-.24.82-.24,1.17,0,.35.25.51.69.4,1.1-.11.41-.47.71-.9.75-.46.04-.89-.24-1.05-.67-.16-.44,0-.92.38-1.19Z"/>
  <path class="st12" d="M159.94,523.87c1.1.34,1.04.29,1.86,1.08l-.17,1.03c-1.49-.39-1.13-.08-2.05-1.08l.36-1.03Z"/>
  <path class="st12" d="M168.75,410.96c.36-.1.52.02.97.12l-.33.64c-.63.25-.39.17-1.12.12l.49-.88Z"/>
  <path class="st12" d="M108.28,419.15l.78-.24.52.32-.52.97c-.2.02-.63-.14-.85-.21l.07-.84Z"/>
  <path class="st12" d="M166.69,523.19c.73-.31.33-.23,1.21-.21l-.78.94-.49-.04.07-.7Z"/>
  <path class="st12" d="M168.38,190.09l.7-.22.18.7c-.23.22-.65.46-.94.65l.06-1.12Z"/>
  <path class="st12" d="M142.79,209.68l.51.05v.69s-1.15.23-1.15.23l.64-.96Z"/>
  <path class="st12" d="M142.69,274.51l.52.08.12.72-1.09.1.44-.9Z"/>
  <path class="st12" d="M96.89,449.81l1.04-.18-.36.73-.85.2.18-.75Z"/>
  <path class="st4" d="M40.59,26.85c4.27.13,6.07-.56,10.19-1.1,3.53-.46,16.57,1.57,18.92-.41-1.13-.42-.81-.05-1.26-.88l.99.02,1.54,1.64c1.82.55,3.57-.04,5.5-.42l.12-.52-1.06-.27,1.09-.43c2.53.49,2.75.48,4.63-1.36l.33-.33c1.57.11,1.41-.16,2.35.67l-.24,1.71.44.58c2.35.3,15.6.45,17.5-.11l-1.01-1.52c1.76.26,1.64.55,2.87-.12-.4-.95-.45-.86-.57-1.86l.43.11c.48,1.15.07,2.11-.18,3.53,4.42.5,19.58-.14,25.07.06.15,0,1.14-1.31,2.32-1.71l2.41,1.96c5.68,1.13,43.01.97,51.78.44.45-.03.56-.66.82-1.26-.29-1.04-.63-1.78-.4-2.82,1.34-.39,1.27-.41,2.6-.05.64,1.78-1.15,3.3-.56,3.61,2.38,1.26,21.52,1.27,23.76,1.27,58.72-.08,117.38.02,176.1.02.24.21.49.43.73.64l5.17.03c16.1-1.74,29.91-2.53,46.12-2.07,3.27.09,31.36.33,33.05-.36l-.21.05-.49-.79c-1.68.04-3.34.06-5.02.2,5.73-.36,13.63-1.82,13.54,6.35-.19,17.64.2,35.33-.05,52.96-5.93-.01-36.14-.53-39.88.68-.54,1.55,1.1,6.46,1.6,8.17,12.21.55,25.53.3,37.82.29,0,5.89.61,50.92-.6,52.31-.06.07-.14.14-.21.2-21.52.12-43.04.09-64.56-.06l-115.26.07c-15.32.07-30.65.05-45.97-.05-5.91-.04-14.62.28-20.3-.18-10.53.43-22.63.12-33.28.11l-48.54.02c-10.32-.06-25.43-.31-35.61.25-11.85,1.54-24.14.25-36.04.88-1.16.06-1.89,1.26-2.49,2.13-1.12.21-2.76-.18-3.94-.38l-.25-.38,1.94-1.04c-2.51-1.11-29.94,0-35.67-1.38l.05-1.11c.91-.69,1.05-.7,1.61-1.72.34-4.13.8-27.25-.76-29.27-.96.43-1.16,1.25-1.83,2.37l-.7-.84c.39-.7.28-.57.45-1.38l-1.25-.45c.55-.21,1.1-.43,1.64-.67.41-.18,2.42-1.16,2.42-1.17.81-4.51-.6-13.57.97-17.63,1.92-1.36,19.96-1.02,24.12-1.08-.13-2.78-.17-5.67-.24-8.46-2.31,0-12.03-.17-13.32.77-.34,1.47-.52,1.23-.09,2.41,1.3-.45.64-.38,2.07-.11-.73.35-1.86.97-2.59.83-2.55-.47-.79,1.09-3.67,2.05-2.26-.51-1.46-.91-3.67-2.5l-.65.22.03.5c-.65-.76-.29-.42-1.57-.7,1.08-.38,1.27-.7,2.46-.69,1.48,1.29,2.19,2.36,4.13,1.79.31-1,.24-.92.95-1.74.95-1.11-.53.16.04-1.9-2.59-2.04-9.2-.98-11.26-5.31l.43-.64,1.87.07c.58-1.05.04-15.48-.38-17.47l-2.19-1.12.09-.72c3.34-2.03,4.25-5.61,2.19-8.89-1.96-.79-2.17-.49-2.64-2.54,1.68-1.25,1.06.45,3.19-.34.25-1.56.05-18.69.06-21.65Z"/>
  <path class="st3" d="M235.85,28.08c38.38-.43,77.18.13,115.59.03l26.17.05c1.88,0,8.9.06,10.17-.22l5.17.03c5.8.64,20.62,0,27.32.01,19.58.17,39.16.2,58.74.08-.15,18.15.59,37.04-.16,54.98-9.63.1-30.98.82-40.2-.1-2.04-6.21-5.13-16.3-6.47-22.7,2.42-.16,5.39-.27,7.75-.54.19-5.21.2-16.78-.21-21.92-19.02-.89-38.85.44-57.95-.17-2.79-.09-6.13-.09-8.91.06-.02,3.65-.35,19.43.16,21.88,2.01,1.08,4.99.94,7.37,1.02-1.92,7.91-3.86,15.11-6.52,22.82-20.68-.21-42.26.29-62.75-.29-.02-7.51,0-15.01.05-22.52,2.95-.04,6.61.03,9.47-.39-.02-3.76-.32-19.53.38-22.37l-.99-.17c-14.99.06-30.18-.2-45.1-.06-4.57,8.83-6.96,21.05-10.71,29.85-1.51-2.23-.83-2.92-1.92-5.47-1.47-1.09-2.55-.92-4.44-.97-1.02-2.81-2.06-5.6-3.11-8.4-.2-.87-1.42-3.77-1.86-5.4-1.21-2.23-2.5-6.93-3.3-9.52-15.31-.08-30.63-.06-45.94.06-.04,6.99-.32,15.85.04,22.72l8.66.3c.27,7.43.11,15.02.04,22.46-23.4.22-46.85-.22-70.25-.1l-30.32.08c-4.93,0-12.76.14-17.57-.35.52-2.48.96-4.66,1.9-7.08,6.1-15.68,29.81-18.58,39-4.32,1.35,2.1,2.32,4.61,3.28,6.98,4.62.11,22.36.79,25.64-.74,1.01-2.96.93-35.1.76-40.28-7.35.05-16.62-.13-23.82.41-.61,1.79-1.23,3.56-1.72,5.39-22.63-15.42-50.52-6.49-65.62,15.15-5.01,7.18-6.43,13.81-8.24,22.12.01,1.03.13,1.27-.46,2.09-3.49,1.38-18.69.57-23.04.29-.2-8.3-.18-16.6.05-24.9-.27-2.13-.12-7.84-.12-10.25l.06-19.8c35.39.43,70.89-.34,106.19.08,12.2-.38,24.77.06,36.99.06,16.86,0,33.89-.3,50.74-.02Z"/>
  <path class="st5" d="M252.89,47.24l.22-4.89c.77.91.05-.02.5.94,1.4,2.96,5.56,4.24,5.25,7.79-1.61,1.46-1.88,1.45-4.11,1.57-.2-.87-1.42-3.77-1.86-5.4Z"/>
  <path class="st5" d="M320.03,37.68c-1-2.73-1.81-.64-1.15-2.26,3.98-.39,5.55,2.98,6.61,6.34l-.99.51c-3.54-2.03-1.73-2.21-3.48-4.41l-.99-.17Z"/>
  <path class="st5" d="M106.17,29.12c2.53,0,4.98.23,7.5.44l.21.33c-2.36.71-3.27.1-4.39,1.26l.66,2.01c1.1.47,1.02.51,2.19.38l-.54-1.42.38-.32c2.72,1.01,8,2.8,10.67,1.58l.41.57-.19.48c-4.88-.38-9.65.1-14.51-.36.54-.45.35-.15.5-.91-.99-1.61-1.08-2-2.64-2.94-2.09-.1-1.56.25-3.74,1.34-.67-1.57-.15-.96-1.64-1.87,1.83-.34,2.97,0,5.13-.57Z"/>
  <path class="st5" d="M355.95,51.51c1.57.7,2.79,2.1,3.47,3.68l-.4.56-1.9.21-.88,1.28-1.06.12-.37-.43c-.04-2.01.61-3.49,1.13-5.42Z"/>
  <path class="st5" d="M124.68,66.15c1.76,0,2.44-.02,4.16.26,1.13,1.06.76.75.92,2.81-1.17.49-1.23.38-2.44.13-1.59-1.01-1.71-1.53-2.63-3.2Z"/>
  <path class="st5" d="M200.7,28.88c1.05-.19,2.02.21,3.12.5l-.02.59c-.92-.01-1.53-.13-2.31.46-1.47,1.25-1.6,1.22-3.23.55l-.32-.84.57-.84,2.19-.42Z"/>
  <path class="st5" d="M318.02,29.06l2.4.18.32.36,1.06-.07c-1.29.21-2.48.32-3.65.95l-.53.02-.68,1.25c-1.23-.14-.63.05-1.73-.85-.16-1.12-.26-.61.28-1.59l2.52-.23Z"/>
  <path class="st5" d="M184.7,48.29c2.04.04,1.57-.26,3.06.71.17,1.66.12,1.14-.77,2.87-1.9-.87-2.28-1.77-2.29-3.58Z"/>
  <path class="st5" d="M179.06,41.33c1.63.21.92-.08,2.23.87.44,1.28.03,1.93-.43,3.22-.86-1.05-1.81-1.15-2.48-2.8l.68-1.29Z"/>
  <path class="st5" d="M322.57,41.86c1.6,1.9,1.22,3.68.45,5.83-1.28-2.56-1.14-3.13-.45-5.83Z"/>
  <path class="st5" d="M97.14,33.74c1.64,1.24,1.92,1.5,1.47,3.52-1.31-.2-1.22-.16-2.18-1.07-.15-1.54-.23-.94.71-2.45Z"/>
  <path class="st5" d="M70.98,53.03c.44-.29,1-.31,1.46-.06.46.26.73.74.72,1.27-.02.52-.33.99-.8,1.22-.66.31-1.45.06-1.81-.58-.36-.64-.17-1.44.44-1.85Z"/>
  <path class="st5" d="M356.18,33.07l1.72.94c.65,1.47.42,1.1.03,3.02-1.05-.55-1.54-.69-2.22-1.66l.46-2.3Z"/>
  <path class="st5" d="M120.39,29.56c.51-.51,1.33-.52,1.85-.02.52.5.56,1.32.08,1.85-.32.36-.82.52-1.29.41s-.85-.47-.98-.93c-.13-.47,0-.97.34-1.31Z"/>
  <path class="st5" d="M368.69,53.39c.27-.42.76-.64,1.25-.56.49.08.89.44,1.03.92.13.48-.04.99-.43,1.31-.48.39-1.17.37-1.63-.04-.46-.41-.56-1.1-.22-1.62Z"/>
  <path class="st5" d="M374.68,68.94l.86-.23c.59.76.23,1.76.1,2.98-.79-.94-.89-1.07-1.49-2.14l.53-.61Z"/>
  <path class="st6" d="M349.03,94.32c5.94-.04,12.24-.11,18.21-.38.95-.04,1.42.46,2.08.96.97,2.86-2.33,10.24-3.16,13.64-.53,1.93-.73,3.58-2.15,4.89-1.26.48-1.28.43-2.66.49-1.54.03-2.53-.14-3.78.71-1.14,2.97-.8,18.1-.38,21.76l27.61.02c4.06,0,10.97.25,14.66-.11.4-5.44.81-16.87.03-22.17l-6.84-.4c.68-2.71,1.54-6.68,2.42-9.23,7.23.01,15.4-.18,22.56.01.92,3.18,1.67,5.87,2.36,9.13-2.11.08-5.12,0-6.98.76-1.3,1.71-.73,18.65-.59,21.84,12.64.04,31.33.7,43.37.09.25-4.29.89-18.42-.49-21.92-1.51-1.1-5.7-1.08-7.74-1.2-1.36-3.88-4.39-14.33-5.2-18.48,11.72-.53,24.52-.32,36.33-.27.31,14.66.72,37.11-.06,51.52-21.52.12-43.04.09-64.56-.06l-115.26.07c-15.32.07-30.65.05-45.97-.05-5.91-.04-14.62.28-20.3-.18-10.53.43-22.63.12-33.28.11l-48.54.02c-10.32-.06-25.43-.31-35.61.25-3.18-.52-20.82-.44-25.02-.39-15.48.19-31.84-.42-47.23.02-.15-.14-.32-.26-.44-.42-1.25-1.64-.86-43.31-.58-47.86.09-1.52.22-2.16,1.38-3.17,6.79.47,15.14.03,22.23.24,1.36,7.21,2.38,10.35,5.8,17.14.93,1.5,2.2,3.71,3.25,5.06,6.02,8.67,12.46,13.69,21.95,18.16l6.23,2.11c9.03,2.14,16.38,1.73,25.36.4,2.51-.77,4.9-1.52,7.46-2.08,16.7-7.44,22.02-15.62,29.53-31.45,3.1-2.84,1.25-3.99,1.57-7.43,4.2-.91,6.4-.64,10.68-.09l-.14.13c5.87.77,12.29-.41,18.29.61,1.38.23,1.33.85,2.26,2.34-.06,1.01.09.51-.8,1.39-1.18-.2-.73.09-1.41-.85l.28-.27-.1.65.02-.67.45,1.1.56-.47c1.03,1.02,1.82,1.91,3.23,1.86,1.36-.97,1.89-1.18,2.65-2.6-2.27-2.09-4.26.06-6.11-2.89l.4-.49c2.79.02,13.33-1.45,15.36-.64-.03,4.79.18,13.56-.23,18.13-2.18-.02-5.53-.26-7.4.6-1.8,2.07-1.51,4.49-1.33,7.19.24,3.57-.82,11.13.98,14.05,3.48,1.18,31.57.61,37.47.71,2.12-.01,4.53.22,6.43-.54,1.27-2.88.73-14.81.68-18.67l-.07-2.27.38-1.75,1.08-.68c1.66.28.98-.07,2.15,1.03l1.84.16c2.69,4.58,9.18,2.16,14.15,3.07.57-.65.84-1.3,1.22-2.06,2.05-.19,1.98-.5,3.69.32,3.02,3.99-1.24,12.13,1.95,15.59.1,1.86.16,3.87.32,5.71,6.37.17,40.21-.52,43.49.67,3.47-3.77,1.64-13.56,1.84-18.59.26-6.57-5.96-2.88-8.65-5.1-1.34-2.82-.71-14.74-.64-18.59,9.89-.74,27.22-.41,37.46-.25Z"/>
  <path class="st6" d="M311.57,94.57c9.89-.74,27.22-.41,37.46-.25-1.31.88-3.5.48-5.12.71-9.61,1.38-19.4,1.45-29.01,2.41-.24.54-.44,1-.62,1.39.73,2.33,2.43.67,3.58,3.31-.36,1.56-.63,1.84-1.51,3.24l.07.86c.49-.14.83-.22,1.33-.34.55,5.28,3.16,2.5,3.83,5.29.71,2.96,1.25,9.4,1.57,12.53.38,3.81-.11,7.87,2.83,10.71.42.39.48.71.58,1.26-1.29.39-1.86.04-3.15-.39-2.45.67-1.36,2.23-1.68,4.43-1.36-.74-.75-1.68-1.1-1.78-2.49-.72-3.57.92-6.56.4,1.99-.39,3.53-.33,4.96-1.48,3.47-3.77,1.64-13.56,1.84-18.59.26-6.57-5.96-2.88-8.65-5.1-1.34-2.82-.71-14.74-.64-18.59Z"/>
  <path class="st13" d="M42.83,145.76c-.15-.14-.32-.26-.44-.42-1.25-1.64-.86-43.31-.58-47.86.09-1.52.22-2.16,1.38-3.17,1.12,4.39.27,18.3.57,23.63.19.15.38.31.57.46l1.92-.41.56.61c-.25,2.72-2.12,3.04-2.98,5.48-.31.87,1.37,4.35,1.35,5.36-.04,1.46-1.83,2.93-2.01,4.5-.38,3.39.5,8.68-.36,11.83Z"/>
  <path class="st6" d="M96.42,134.91l6.23,2.11c.38,1.77.33,2.28,1.5,3.56,1.85.58,2.71-.05,4.84-.66l.55.53v1.58c-1.98,2.85-17.59,3.06-19.67,1.81l.03-.39c1.33.34,5,.4,5.92-.45-.96-.53-1.57-.75-2.18-1.65l.41-.43,2.03.4.46-.59-.25-.87-1-.34c-1.06-1.21-2.75-2.69-3-4.02,1.15-.8,2.67-.6,4.14-.6Z"/>
  <path class="st13" d="M232.52,145.76c1.37-1.29,3.65-.49,5.93-.9,6.18-1.11,13.06.06,19.35-.26,3.24-.11,6.23-1.8,7.55-1.64,3.61.45,7.44,1.16,11.07,1.49,4.49.41,19.1.45,22.37,1.54-15.32.07-30.65.05-45.97-.05-5.91-.04-14.62.28-20.3-.18Z"/>
  <path class="st13" d="M248.8,117.04c8.04,2.97-.78,15.97,4.32,20.1l1.5.28c.26,1.34.31.66-.43,2.04-1.72.45-2.45-.97-3.45-2.26-2.88.08-7.01.7-9.05-.94,2.12-.01,4.53.22,6.43-.54,1.27-2.88.73-14.81.68-18.67Z"/>
  <path class="st6" d="M128.01,137.43c2.51-.77,4.9-1.52,7.46-2.08,2.4-.01,4.73-.39,6.59.85.35.9.28.87.05,1.82-1.64.62-3.99.15-4.16,2.42l2.04,1.9-.2.55c-1.64-.66-3.36-1-4.52-2.21l.67-.64-.42-.61c-1.91.66-.39,1.15-1.92,1.95-1.58-3.58-4.86-.41-6.94-.35l-.23-.76c.56-1.46.65-1.58,1.6-2.85Z"/>
  <path class="st6" d="M74.47,116.75c-.1,1.13-.11,1.31-.42,2.45l-.81.28c-2.45-.89-6.85-5.77-6.25-8.36l.81-.11c1.42.87,1.77.76,3.43.68.93,1.5,2.2,3.71,3.25,5.06Z"/>
  <path class="st13" d="M252.35,113.38l1.84.16c2.69,4.58,9.18,2.16,14.15,3.07-1.54,1.46-13.39,1.55-15.56.95-.66-1.43-.47-2.58-.44-4.18Z"/>
  <path class="st6" d="M361.35,113.92c.11-3.07,1.58-3.19-.76-5.83l.12-.74c1.16-.77.57-.69,1.79-.47.29.63.3.78.41,1.45l.1.66c1.06-.07,2.12-.28,3.17-.45-.53,1.93-.73,3.58-2.15,4.89-1.26.48-1.28.43-2.66.49Z"/>
  <path class="st13" d="M142.1,138.01c.33-.5.99-.65,1.51-.36.52.29.73.94.48,1.48-.18.39-.56.64-.99.66-.43.02-.83-.21-1.04-.58-.21-.37-.19-.83.05-1.19Z"/>
  <path class="st6" d="M200.77,113.48l.73.29c.6,2.59.63,4.19.02,6.73-.62.58-.74.69-1.18,1.4l-.33.54-.91-1.19c-.12-3.35-.32-4.91,1.66-7.77Z"/>
  <path class="st6" d="M314.46,139.34c2.58.02,3.97.08,6.06,1.61l.03.9-.86.72c-.58-.22-1.11-.5-1.65-.81l-.39.76c.68,1.22.82.95,2.41,1.69l.17.16c-.89.44-3.47-.25-4.45-.52l1.01-.67-.18-.74-1.39-.68c-.41-.88-.53-1.51-.76-2.43Z"/>
  <path class="st6" d="M272.35,137.57c1.01-.41.47-.31,1.7.04.64,1.05.55.5.27,1.73-.87.36-1.26.46-1.98,1.07,1.04,1.31,1.18,1.48,1.5,3.11-1.4-.22-3.27-1-4.08-2.17.38-1.96,1.06-2.12,2.59-3.79Z"/>
  <path class="st6" d="M355.4,137.41c2.26.37,7.37.9,8.83,2.37l-1.01.77c-.31-.11-.29-.08-.54-.34-2.64-2.66-2.82.43-5.98-.08-1.19-1.22-.82-.85-1.3-2.72Z"/>
  <path class="st13" d="M324.11,104.92l1.07.13.48.82c-.39,1.57-1.2,2.24-2.28,3.46-1.46-.64-.94-.15-1.77-1.32.27-1,1.67-1.73,2.5-3.09Z"/>
  <path class="st13" d="M188.25,137.53l.71.36.21.89c-.87,1.24-1.47,2.25-2.63,3.25-1.04-.64-1.05-.58-1.78-1.65l.46-.8c1.5-.62,1.91-.87,3.02-2.05Z"/>
  <path class="st6" d="M279.77,140.48c.65.46.96.81,1.53,1.35l-.57,1.05.47,1.33c-1.76-.1-1.24.16-2.61-.71-.84-1.55-.75-.77-.37-2.42l1.55-.6Z"/>
  <path class="st13" d="M71,138.2l.95-.32.33.76c-.78,1.27-1.54,2.55-2.28,3.84-.95-1.24-1.39-1.48-1.31-2.7.84-.64,1.4-1.01,2.3-1.57Z"/>
  <path class="st13" d="M343.99,131.26c1.01.07.57-.11,1.33.59-.46,1.15-1.46,1.62-2.51,2.35l-.61.56-.53-.54c.26-1.39,1.22-1.97,2.32-2.96Z"/>
  <path class="st13" d="M48.6,100.04l1.92.47c1,1.05.67.89.79,2.78l-1.87-.52c-1-1.15-.68-.85-.84-2.72Z"/>
  <path class="st6" d="M85.06,131.71c2.56-.2,3.31-.63,4.47,1.59-2.46.18-2.98.31-4.47-1.59Z"/>
  <path class="st13" d="M185.35,126.87c.28-.43.78-.65,1.29-.57.5.08.91.45,1.05.94.14.49-.03,1.02-.42,1.34-.49.41-1.21.4-1.69-.03-.48-.43-.57-1.14-.22-1.68Z"/>
  <path class="st21" d="M192.03,139.4c.62-.36,1.42-.15,1.78.47.36.62.14,1.42-.49,1.77-.62.35-1.4.13-1.76-.49s-.14-1.4.47-1.76Z"/>
  <path class="st13" d="M337.31,104.98c.55-.09,1.1.18,1.36.68.26.5.16,1.1-.23,1.5-.39.39-.99.49-1.49.24-.5-.25-.78-.79-.69-1.34.09-.55.51-.98,1.06-1.08Z"/>
  <path class="st21" d="M269.38,126.84c.27-.44.77-.67,1.27-.6.5.07.92.43,1.06.92.14.49-.03,1.02-.43,1.34-.48.39-1.18.38-1.65-.03-.47-.41-.57-1.1-.25-1.63Z"/>
  <path class="st6" d="M64.24,137.8c.47-.45,1.22-.46,1.7-.01.48.45.53,1.19.11,1.7-.29.35-.76.52-1.21.42s-.81-.43-.94-.87c-.13-.44,0-.92.34-1.24Z"/>
  <path class="st21" d="M263.06,139.45c.34-.35.86-.46,1.31-.29.46.17.78.59.82,1.08.04.49-.21.95-.64,1.19-.54.3-1.22.15-1.6-.34-.37-.49-.33-1.19.11-1.63Z"/>
  <path class="st21" d="M265.56,124.73c.41-.18.88-.12,1.23.15.35.28.52.72.43,1.16-.08.44-.4.79-.82.93-.61.19-1.25-.13-1.47-.72-.22-.59.05-1.25.63-1.51Z"/>
  <path class="st21" d="M259.04,137.72c.35-.27.83-.33,1.23-.14.41.19.67.59.69,1.03.02.45-.21.86-.6,1.08-.54.31-1.23.14-1.57-.37-.35-.52-.23-1.22.26-1.6Z"/>
  <path class="st6" d="M77.47,130.96c.39-.21.86-.18,1.22.07.36.25.55.69.48,1.12-.06.44-.37.8-.79.94-.57.19-1.2-.09-1.44-.65-.24-.56-.01-1.2.52-1.49Z"/>
  <path class="st13" d="M68.88,133.2c.31-.29.75-.4,1.16-.26.4.13.7.47.78.89.08.42-.08.85-.42,1.11-.48.39-1.19.32-1.59-.14-.41-.47-.38-1.17.07-1.6Z"/>
  <path class="st13" d="M75.78,139.61c.52-.31,1.19-.13,1.5.39.3.52.12,1.2-.4,1.5-.52.3-1.19.12-1.49-.4-.3-.52-.13-1.18.39-1.49Z"/>
  <path class="st13" d="M174.65,105.35c.47-.36,1.15-.26,1.5.21.35.48.25,1.15-.22,1.5-.47.35-1.14.25-1.49-.22-.35-.47-.26-1.14.21-1.49Z"/>
  <path class="st13" d="M354.72,100.74c.5-.29,1.15-.12,1.44.39.29.5.12,1.15-.38,1.44-.5.29-1.15.12-1.44-.38-.29-.5-.12-1.15.39-1.44Z"/>
  <path class="st13" d="M154.36,126.45c.38-.04.75.14.97.45.22.31.25.72.09,1.07-.17.34-.5.57-.89.6-.58.04-1.08-.4-1.13-.97-.05-.58.38-1.08.96-1.14Z"/>
  <path class="st13" d="M193.76,130.9c2.01.69,1.8.88,1.66,2.63l-.87-.24c-.99-1-.69-.59-.79-2.39Z"/>
  <path class="st13" d="M198.75,140.29c.92-.44.44-.35,1.47-.27l-.39.9-.74.32-.59-.26.25-.69Z"/>
  <path class="st6" d="M335.37,101.03l.9-.48.42.35-.6.82c-.53.19-.31.1-1.01-.07l.29-.63Z"/>
  <path class="st13" d="M64.53,112.54l.82-.36-.22.89-.72.44.11-.97Z"/>
  <path class="st6" d="M101.14,97.8c1.35-.39,1.21-1.13,3.24-1.29,9.08-.73,24.16-1.71,33.08-.5l.57.38c-1.84,1.95-3.32,5.68-5,7.24-1.01,1.56-1.89,2.33-2.83,3.68-9.2,7.16-22.06,5.44-30.05-2.72l-1.75-2.33c-.04-1-.07-1.87-.21-2.87l-.1-.67c1.08-.99,1.23-.69,3.04-.92Z"/>
  <path class="st6" d="M137.45,96.01l.57.38c-1.84,1.95-3.32,5.68-5,7.24l-.5-.61.23-1.95c-1.05.09-4.41-1.33-4.92-2.29,1.58-.33,2.29.87,4.43,1.15l.27-.76c-.93-1.53-3.77-2.07-5.49-2.5,3.73-.83,6.51-.41,10.4-.66Z"/>
  <path class="st13" d="M98.4,102.26c-.04-1-.07-1.87-.21-2.87l-.1-.67c1.08-.99,1.23-.69,3.04-.92.19,3.61-1.21,3.22-.99,6.79l-1.75-2.33Z"/>
  <path class="st21" d="M120.62,100.35c1.13.17,1.14.07,1.94.85l-.15,1.67c-1.77-.35-1.58-1.09-1.79-2.52Z"/>
  <path class="st13" d="M116.07,98.54l1.48.77.18.83c-1.13.42-.6.47-1.6.15l-.05-1.74Z"/>
  <path class="st21" d="M98.4,102.26c-1.47-1.7-3.68-5.51-2.56-7.73,5.64-.41,12-.14,17.73-.2l42.61-.14,38.98-.14c2.69,0,14.52-.22,16.57.36l.45,1.16c-2.03-.81-12.57.66-15.36.64l-.4.49c1.85,2.95,3.84.8,6.11,2.89-.75,1.42-1.29,1.63-2.65,2.6-1.41.04-2.2-.84-3.23-1.86l-.56.47-.45-1.1-.02.67.1-.65-.28.27c.68.94.23.65,1.41.85.89-.87.74-.38.8-1.39-.92-1.49-.88-2.11-2.26-2.34-6-1.01-12.42.16-18.29-.61l.14-.13c-4.29-.55-6.49-.82-10.68.09-.33,3.44,1.52,4.59-1.57,7.43.4-1.71.94-3.11.51-4.77-.26-.26-.53-.52-.79-.77-6.48-.81-20.26-.54-26.12-.47-.28,0-.57.01-.85.02-1.91,3.64-3.93,7.16-7.56,9.41.94-1.35,1.81-2.11,2.83-3.68,1.68-1.56,3.16-5.29,5-7.24l-.57-.38c-8.92-1.2-24-.23-33.08.5-2.03.16-1.89.91-3.24,1.29-1.81.23-1.96-.07-3.04.92l.1.67c.14,1,.17,1.87.21,2.87Z"/>
  <path class="st13" d="M276.19,96.79c1.65-3.53,5.09-2.5,8.73-2.39.39,4.91.36,14.3.1,19.32-4.53.05-10.42-.71-9.95,5.8.26,3.66.24,7.28.13,10.95-3.19-3.46,1.07-11.59-1.95-15.59-1.71-.83-1.64-.52-3.69-.32.48-1.67,2.69-8.42,3.57-9.55.34-2.33,1.87-6.16,3.05-8.22Z"/>
  <path class="st21" d="M273.14,105.01c.34-2.33,1.87-6.16,3.05-8.22.02.28.19,2.83.19,2.83.54.4,1.93,2.9.96,3.22-.91.3-3.41,1.84-4.2,2.18Z"/>
  <path class="st6" d="M277.45,108.61c.23.05.46.11.69.18,2.7.77,3.29,1.28,4.66,3.69-1.82-.08-3.01.21-4.53-.9-.77-1.32-.74-1.41-.83-2.97Z"/>
  <path class="st6" d="M282.7,95.74c.93.4.5.13,1.14,1.1-.03,1.73.2,1.09-.75,2.48-1.29-1.39-1.59-1.21-1.67-2.65l1.29-.93Z"/>
  <path class="st21" d="M239.31,94.42l7.77.13c2.46,6.25,4.48,12.88,7.11,19l-1.84-.16c-1.18-1.11-.49-.75-2.15-1.03l-1.08.68-.38,1.75c-2.05-1.49-6.37-1.09-9.2-1.16-.51-4.21-.25-14.59-.22-19.2Z"/>
  <path class="st5" d="M257.86,61.04c1.89.05,2.98-.12,4.44.97,1.09,2.55.41,3.24,1.92,5.47-.19,1.46-1.24,4.04-1.78,5.52-1.49-4-3.02-7.99-4.59-11.96Z"/>
  <path class="st12" d="M206.95,41.21c10.61-.15,28.27-.73,39.36-.06.78.05,1.22,1.47,1.6,2.28.73,2.06,1.91,5.06,2.45,7.08l.16.35c2.35,5.3,9.03,26.26,11.8,28.99,2.44-.55,6.18-15.07,7.32-18.18,2.52-6.83,5.01-13.8,7.49-20.66l40.02.12c.04,5.26.18,10.83.1,16.06-2.92.09-6.28.11-9.15.32-.1,12.69-.11,25.37-.06,38.06,0,4.94-.25,16.41.35,20.51,2.25,2.15,6.08,1.29,9.18,1.29.05,5.22.16,10.49,0,15.7-12.92.1-25.84.12-38.76.06l-.04-15.7,9.25.03c.55-6.77.94-53.63-.61-55.96-1.41-.29-.81-.43-1.9.23-1.89,3.49-3.39,7.88-4.74,11.66-4.63,12.93-10.22,25.99-14.43,39.03-2.95-.01-6.01.05-8.93-.28-2.77-8.5-6.16-16.99-9.19-25.4-1.38-3.82-3.79-9.26-4.83-13-.64-1.25-1.59-4.68-2.04-6.21-.8-2.11-1.75-6.19-3.96-6.59-.52.24-1.31.47-1.32.88-.1,7.42-.79,50.83.26,54.48,2.36,1.92,6.09,1.37,9.27,1.34v15.35c-12.8.24-26.02.11-38.84.15-.03-5.21.04-10.41.21-15.62,2.85-.06,5.7-.15,8.54-.29.91-13.08-.14-27.17.36-40.34.24-6.25.27-13.28.03-19.53-2.58-.22-6.3-.14-8.97-.16-.16-5.07,0-10.86.05-15.98Z"/>
  <path class="st8" d="M247.9,43.42c.73,2.06,1.91,5.06,2.45,7.08-.8-.4-3.62-1.95-4.22-2.43.8-3.48,1.33.09,1.76-4.65Z"/>
  <path class="st8" d="M241.33,67.52l.36.21c1.77,1.01,2.26.6,3.88,1.43-1.14.62-1.38,1.05-2.11,2.12l-.09,2.45c-.64-1.25-1.59-4.68-2.04-6.21Z"/>
  <path class="st12" d="M376.19,40.98c20.05.22,40.29-.44,60.35.02l.09,15.83c-3.27-.09-5.59-.02-8.86.19,1.26,5.75,3.57,12.31,5.22,18.11,3.93,14.07,7.99,28.11,12.19,42.1,2.3.14,4.86.16,7.18.23.08,5.17.12,10.34.14,15.51l-36.95.1c.11-5.16,0-10.47-.04-15.65,2.86.16,7.65,1.28,8.4-2.02-.97-4.19-2.91-10.03-4.14-14.37-8.92-.17-18.37-.01-27.33-.01-.82,2.68-4.64,14.2-3.44,15.96,1.93.73,5.39.6,7.58.64.06,5.37.04,10.11-.2,15.47h-35.94c.03-5.26.01-10.51-.05-15.76,2.08.05,4.18.01,6.27,0,1.71-3.24,5.24-15.18,6.46-19.12,4.23-13.68,8.31-27.4,12.25-41.16l-9.31-.14c0-5.27-.09-10.67.13-15.92Z"/>
  <path class="st4" d="M405.26,53.62l1.54.47c1.93,2.27,9.27,28.61,10.29,32.96-2.84.38-7.56.33-10.55.39-2.92.07-8.21.61-10.43-1.08-.42-2.62,7.7-28.78,9.14-32.74Z"/>
  <path class="st3" d="M405.85,63.28c1.56,1.14,6.14,16.5,6.26,18.9-1.35.85-2.21.6-3.97.67l-7.89.02c1.21-5.28,3.81-14.54,5.61-19.59Z"/>
  <path class="st12" d="M106.61,40.27c5.68-1.16,13.72-1.44,19.22.53,6.18.77,12.52,6.26,17.23,10.14l.3-10.03c5.86.01,12.43.24,18.18.07l-.16,33.75c-6.06.41-14.17.22-20.38.25-.42-1.02-1.4-3.15-1.54-4.12-3.6-4.67-4.92-5.92-9.76-9.29-7.54-2.12-9.53-3.95-17.9-2.38-25.47,4.37-28.97,42.2-7.05,53.44,13.75,7.05,27.46,1.66,34.95-11.14l22.27.1c-7.94,20.55-22.5,32.68-44.97,33.45-12.52.35-24.65-4.31-33.73-12.94-19.35-18.21-19.42-50.35-.71-69.03,5.37-5.36,16.22-12.72,24.03-12.81Z"/>
  <path class="st8" d="M129.71,61.55c3.25.05,4.35-.26,6.83,2.27,2.07,2.1,2.85,4.2,2.92,7.02-3.6-4.67-4.92-5.92-9.76-9.29Z"/>
  <path class="st8" d="M106.61,40.27c5.68-1.16,13.72-1.44,19.22.53-3.88,0-3.27.24-6.75,1.28-.74.22-1.11-1.53-2.83-1.58-3.46-.1-6.13.15-9.65-.22Z"/>
  <path class="st8" d="M154.91,66.11c.9.3.91.36,1.69.92l-.24.63-.84.48-.61-.19v-1.84Z"/>
  <path class="st8" d="M75.89,94.7l1.04-.14-.5.83-.74-.08.2-.61Z"/>
  <path class="st17" d="M162.38,84.6c15.11-.35,33.26.74,47.72.03l-.29.69.92-.53c-5.13,3.38,2.33,6.42-12.03,6.86,2.06.88,10.11,1.01,12.83,1.11v.28c-4.52.08-24.9.42-27.98-.57l2.42-.13c-2.89-.42-10.97-1.35-13.54-.54v.51c2.37.88,5.56.19,8.57.55-1.84.63-27.4.3-31.8.3l-.48-.35.03-1.7c-2.01-2.37-.51.54-2.43-1.05.56-.91,1.05-1.42.93-2.45l-1.5-.77.17-.54c4.84-1.36,12.01-.08,16.45-1.7Z"/>
  <path class="st16" d="M311.4,84.65c4.03-.15,50.61-.05,50.55-.08-.29,0-.59,0-.89.01-1.58.05-3.68.2-4.77,1.39-.03,1.25-.2.68.68,1.72l1.27-.22c.6-1.35.17-.76,1.52-1.68,1.25-.16,1.75-.33,2.93.11.9,1.02,1.88,1.78,2.11,2.95l-.33.55c1.58-.03,4.08-.31,5.33.43.46,2.55-.41,3.25-3.03,3.2-18.43.33-36.86.38-55.29.15-.19-2.48-.08-5.97-.08-8.52Z"/>
  <path class="st17" d="M356.98,87.68l1.27-.22c.6-1.35.17-.76,1.52-1.68,1.25-.16,1.75-.33,2.93.11.9,1.02,1.88,1.78,2.11,2.95l-.33.55c1.58-.03,4.08-.31,5.33.43.46,2.55-.41,3.25-3.03,3.2-6.01-1.87-15.41.51-21.25-1.87-1.36-.56-.99-3.7.07-4.62l.44,1.08c1.43,1.39,7.35.4,10.1,1l.84-.92Z"/>
  <path class="st16" d="M149.2,93.15c-4.98-.03-52.89.29-54.44-.59-.99-1.97-.47-4.15,1.47-5.28l1.09.59.44-1.03c-.42-.59-.77-1.13-1.16-1.74,1.3-1.06,5.55-.74,7.39-.68,19.46.66,38.93-.17,58.38.17-4.44,1.63-11.61.34-16.45,1.7l-.17.54,1.5.77c.12,1.03-.37,1.54-.93,2.45,1.92,1.59.42-1.32,2.43,1.05l-.03,1.7.48.35Z"/>
  <path class="st17" d="M240.01,84.8c.42-.04,1.59-.2,1.95-.14,2.69.41,4.73,6.28,4.31,8.38-2.23.08-4.81-.02-7.07-.06.04-3.51.12-4.75.81-8.18Z"/>
  <path class="st17" d="M480.87,94.84l.43.38c1.71,4.51-.45,14-.27,20.52-.59-1.93-.95-14.95-1.08-17.75-.03-.73.62-2.43.92-3.15Z"/>
  <path class="st17" d="M38.99,436.18c.63,1.51,1.08,7.83.46,9.5l-.39-.53c-.38-.16-1.02-.56-1.4-.78-.28-1.68.78-6.53,1.32-8.2Z"/>
  <path class="st17" d="M63.39,534.25c.87,1.09.87,1.02,1.2,2.36-1,1.19-1.44.92-3.28,1.26l-.65-.43c.24-1.08,1.84-2.35,2.73-3.19Z"/>
  <path class="st17" d="M265.56,147.17c1.78.42,2.06.38,3.34,1.57l-.2.95c-1.62.22-2.22.44-3.72-.06l-.28-.86.85-1.6Z"/>
  <path class="st17" d="M49.39,508.65c1.67.18,1.27-.1,2.37.83.28,1.57.41.87-.27,2.21l.07.22-.25-.2-1.14.52c-.96-1.35-.68-1.73-.78-3.59Z"/>
  <path class="st17" d="M56.52,508.7l.61-.04.6.66c-.1,1.65-.37,1.84-1.35,3.27-.74-.99-1.54-1.76-1.56-2.92l1.7-.96Z"/>
  <path class="st17" d="M38.38,136.72l1.01.37c.8,1.59.48,1.8.36,3.73-2.2-1.67-1.93-1.62-1.37-4.11Z"/>
  <path class="st17" d="M93.91,575.99c.47-.14.98,0,1.3.37.33.37.41.89.22,1.34-.19.45-.62.75-1.11.78-.64.03-1.21-.42-1.32-1.06-.11-.64.28-1.25.9-1.43Z"/>
  <path class="st17" d="M30.19,386.45c.28-.38.77-.54,1.22-.41.45.13.78.53.82,1,.04.47-.22.91-.64,1.12-.47.23-1.04.1-1.37-.3-.33-.4-.34-.98-.03-1.4Z"/>
  <path class="st17" d="M283.31,152.24c1.22.51.74.12,1.5,1.19l-.44,1.59c-.91-.49-1.25-.54-1.78-1.42l.71-1.35Z"/>
  <path class="st17" d="M302.97,22.31c.75.36.75.46,1.31,1.09l-.36,1.56c-1.15-.73-1.04-.44-1.62-1.5l.67-1.16Z"/>
  <path class="st17" d="M211.83,152.94c.69-.44.43-.36,1.22-.38l-.11.81c-.5.44-.25.25-1.02.41l-.09-.85Z"/>
  <path class="st17" d="M46.34,478.06l.75.06-.39.81c-.33.1-.75.09-1.12.11l.76-.98Z"/>
  <path class="st17" d="M38.62,268.19l.41-.12.48.32-.59.85c-.43.14-.16.11-.81-.15l.51-.91Z"/>
</svg>