<?xml version="1.0" encoding="UTF-8"?>
<svg id="Camada_1" xmlns="http://www.w3.org/2000/svg" version="1.1" viewBox="0 0 2048 2048">
  <!-- Generator: Adobe Illustrator 30.3.0, SVG Export Plug-In . SVG Version: 2.1.3 Build 182)  -->
  <defs>
    <style>
      .st0 {
        fill: #a5a6a5;
      }

      .st1 {
        fill: #53555a;
      }

      .st2 {
        fill: #fdfef5;
      }

      .st3 {
        fill: #fff;
      }

      .st4 {
        fill: #03753e;
      }
    </style>
  </defs>
  <path class="st4" d="M714.25,1109.76c-5.38-14.34-2.9-148.96-2.85-173.62l.25-234.19-.18-125.88c.01-18.24-.23-36.66.28-54.92.32-11.4,13.74-26.51,25.14-28.18,11.31-1.66,23.9-.71,35.37-1.03,58.61.5,117.39-.61,175.97.12,22.47-.66,45.37.1,67.43-.17,162.53-2.03,304.34,119.04,322.29,282,1.76,16.01,3.17,32.71,2.3,48.65-19.22-35.05-33.72-57.5-67.64-80.56-57.48-39.08-110.36-35.36-176.3-35.36l-97.76-.16c-20.39.14-42.3.69-62.58.26-1.27,93.18.82,188.22-.22,281.51-.48,43.11,1.9,97.35-.29,139.57l-130.81.11c-22.18.06-45.91.94-68-1.18-5.55-.53-13.6-5.86-17.01-10.32l-5.42-6.65Z"/>
  <path class="st4" d="M1333.02,764.44l1.7.89c.99,5.64.62,7.89.28,13.71l-1.48.63c-3.27-4.72-6-7.31-5.25-12.27l4.76-2.97Z"/>
  <path class="st4" d="M1033.39,801.94c29.37-.29,58.74-.43,88.12-.42,16.15-.04,41.97-.76,57.29.84,16.87-.25,36.03,7.62,50.26,16.28,3.62,2.18,6.99,3.98,10.17,6.77,16.06,12.81,22.77,22.4,33.12,39.74,3.1,6.57,4.9,10,6.74,17.17,4.46,13.98,5.2,28.86,4.35,43.46-.73,5.26-1.42,11.82-2.65,16.87-2.27,8.79-6,20.8-10.73,28.53-18.04,41.73-60.33,60.19-102.86,64.25.09,17.53.41,35.73-.08,53.2.25,11.5.15,28.07,1.04,39.14-5.25,1.13-33.08.75-40.04.77-31.4.08-62.83-1.26-94.28-.08-.79-32.69-.18-67.22-.24-100.09l-.2-226.42Z"/>
  <path class="st1" d="M193.77,1186.05c-7.57.67-16.86-.78-24.28,1.46l-.43,1.75c-.91,10.83-.51,21.48-.59,32.34-.32,42.09.81,84.65-.81,126.69,17.87-.19,54.41.94,69.9-4.25,3.5-.2,10.53-2.79,14.03-4.32,20.42-9.01,30.13-22.32,38.16-41.92,1.84-6.62,3.14-10.76,3.86-17.68,12.69-73.6-36.92-99.64-99.84-94.06ZM258.58,1278.75c-1.25,5.38-2.22,10.57-4.33,15.66l-5.36,9.5c-13.51,14.28-29.1,18.88-48.39,16.07,2.33-7.99.95-93.5.75-107.47,4.55-.29,9.11-.36,13.67-.25,42.55.82,45.82,32.5,43.66,66.49Z"/>
  <path class="st1" d="M169.06,1189.25l.43-1.75c7.41-2.24,16.7-.79,24.28-1.46,62.92-5.58,112.53,20.46,99.84,94.06-7.11-6.52-2.31-27.44-5.27-39-5.07-19.81-15.46-30.75-31.81-41.16-14.11-8.97-66.72-10.61-81.68-7.04-2.18,4.03-2.87,23.5-3.2,29.1-.7-8.18.49-27.95-2.59-32.75Z"/>
  <path class="st1" d="M267.96,1322.73c8.19-11.71,13.72-17.48,19.04-31.8l1.51.54,1.23,6.32c-8.03,19.59-17.74,32.9-38.16,41.92-3.5,1.53-10.52,4.12-14.03,4.32-8.01-.94-12.4,1.27-20.45-1.18l.14-1.37c7.32-5.92,23.38,1.95,29.66-6.27.73-26.9-40.14,1.81-50-13.18l1.1-1.92,2.5-.11c19.29,2.8,34.88-1.8,48.39-16.07,12.23,15.95-2.78,14.23-4.54,22.76,3.92,2.77,5.64,1.61,9.49-.96l1.61.62c1.83.69,3.11,1.11,4.97,1.65l3.89-1.82,3.65-3.43Z"/>
  <path class="st1" d="M258.58,1278.75c5.62,7.14,6.05,12.67-.89,19.69l-1.81.4-1.63-4.44c2.11-5.09,3.08-10.28,4.33-15.66Z"/>
  <path class="st1" d="M264.32,1326.16c-4.69-5.03-6.89-2.74-8.32-10.53l.66,2.1,2.73-1.27c4.94,2.3,4.71,2.31,8.58,6.27l-3.65,3.43Z"/>
  <path class="st1" d="M264.92,1289.96c1.08.47,10.75,5.78,11.27,6.26-1.23,4-4.56,5.79-8,8.51l-2.47-1.06c-.14,3,.05,2-1.18,4.98l-2.56.84-1.13-1.12c.17-7.6,4.5-9.01,4.09-18.41Z"/>
  <path class="st0" d="M725.15,1397.06c21.07,1.12,69.31-5.44,82.39,12.27,7.87,9.02,14.94,34.64,6.34,43.1l-2.23,5.05c-3.25,4.39-10.55,9.89-14.98,13.55.39.18.77.34,1.16.5l1.91.88c15.09,6.76,24.61,18.09,24.76,34.88.51,56.16-62.41,48.04-100.23,47.9.39-6.99.46-14.4.43-21.39-.18-45.52.84-91.23.46-136.73Z"/>
  <path class="st3" d="M747.59,1416.75c15.2-.93,29.99-2.45,42.09,7.89,8.57,17.13,5.73,27.11-9.99,37.04-9.65.77-21.58.82-31.41,1.12.02-15.11.35-31.03-.69-46.05Z"/>
  <path class="st0" d="M725.15,1397.06c21.07,1.12,69.31-5.44,82.39,12.27-1.62-.43-3.13-.75-4.58-1.6-1.05.44-2.1.89-3.14,1.34l1.52-1.29-2.62.47c2.13,3.33,2.6,4.22,3.64,8.23-1.17,3.86-1.77,3.63-4.93,6.69l-1.94.57-2.22-3.37-2.3.39c-1.63,2.56-1.3,1.23-1.28,3.9-12.1-10.34-26.89-8.82-42.09-7.89l.4-2.09,1.98-1.32c4.07.33,7.3,1.23,10.51-.92l-.77-1.85c-10.43-5.59-9.69,4.52-19.17-2.55-.28-2.51-.43-3.73-1.01-6.18-5.9-1.23-7.46-1.73-13.02-4.17l-1.37-.62Z"/>
  <path class="st0" d="M811.64,1457.47c-.56-2.39-.62-2.06-1.84-4.29-2.94-.84-5.83-1.7-8.84-2.24,2.82-8.92-.77-13.65-2.08-23.09l1.39-.57,4.2,3.62c3.2-.18,2.22-.35,5.04.57,4.58,7.67-1.93,11.71,4.37,20.94l-2.23,5.05Z"/>
  <path class="st3" d="M748.22,1480.99c14.17-.3,28.05-1.53,40.81,6.17,15.98,9.64,16.26,25.93,5.43,39.97-13.61,8.62-29.93,7.52-45.97,8.12.24-18.09.15-36.17-.27-54.26Z"/>
  <path class="st1" d="M1219.56,1187.5c17.06-.31,60.67-2.9,73.84,3.51,3.87.83,3.97.73,7.42,2.59,8.7,4.59,16.95,10.8,21.48,19.85l1.91,4.69c7.06,20.55,4.51,46.44-11.93,61.91-4.69,4.79-10.29,8.57-16.49,11.12-14.81,6.36-27.99,6.1-43.89,6.32.3,15.95-.09,35.97.83,51.42-6.41-.18-30.08.43-33.56-1.65.93-18.4-.04-37.45.83-56.37-.88-6.17-.45-27.1-.45-34.56v-68.82Z"/>
  <path class="st3" d="M1252.23,1211.99c8.52.14,19.1.19,27.25,2.16,19.87,13.79,20.9,34.12,4.84,51.76-16.3,8.6-19.38,4.14-31.21,7.79-1.03-6.98-.49-51.13-.88-61.71Z"/>
  <path class="st1" d="M1284.32,1265.91c1.82,3.27,1.87,3,5.12,5.01,6.98-3.09,5.88-12.15,11.7-18.54,4.56-1.04,8.18,1.34,8.4,6.12-2.38,4.6-3.62,4.81-7.68,7.79l-2.74,2.04.1,2.53c6.55,4.78,2.68-5.07,13.06,9.19-4.69,4.79-10.29,8.57-16.49,11.12l.18-2.1c-.57-.54-1.13-1.08-1.71-1.62-14.42,1.58-33.07,5.76-46.96,4.02-3.05-2.84-1.94-1.06-2.49-6.07,4.19.48,6.4.96,10.62.26l-.47-2.24c2.75.67,1.29.57,4.37.1-.82-3.57-.16-1.85-3.46-4.85,2.85-.92,1.84-.45,4.22-2.43-1.96-.64-3.52-1.17-5.45-1.94l-1.53-.62c11.83-3.66,14.91.8,31.21-7.79Z"/>
  <path class="st1" d="M1220,1290.89c5.22-5.81-.84-84.22,4.05-101.98,6.94,24.87.44,35.37.52,57.07.05,11,2.02,93.48,4.34,96.69,3.59.67,5.32.98,9.04,1.26l.26.34c-5.05.78-14.3,1.95-19.03,2.99.93-18.4-.04-37.45.83-56.37Z"/>
  <path class="st1" d="M1244.81,1285.4c-.6-7.91-1.61,3.03-.65-4.52l.75-.15c2.55-9.4,4.66-41.05,3.03-51.58-3.91-25.07,2.27-24.26,27.74-21.58,2.04.21,5.28,3.88,6.59,5.91l-2.78.68c-8.14-1.97-18.73-2.02-27.25-2.16.39,10.58-.15,54.74.88,61.71l1.53.62c1.94.77,3.49,1.29,5.45,1.94-2.39,1.97-1.37,1.51-4.22,2.43,3.29,3,2.64,1.28,3.46,4.85-3.08.47-1.62.57-4.37-.1l.47,2.24c-4.22.69-6.43.21-10.62-.26Z"/>
  <path class="st1" d="M1254.96,1283.43c-3.41-1.21-4.89-1.42-5.56-4.86,3.33-1.82,1.45-1.27,6.47.11,3.29,3,2.64,1.28,3.46,4.85-3.08.47-1.62.57-4.37-.1Z"/>
  <path class="st1" d="M1293.4,1191.01c3.87.83,3.97.73,7.42,2.59-5.84,4.65-15.96,3.2-21.08-1.66,5.48-.83,8.06-.87,13.66-.93Z"/>
  <path class="st1" d="M1324.2,1218.13c.25,4.25.9,6.82-1.21,10.44l-1.7-.7c-2.48-6.76-3.05-8.37.99-14.43l1.91,4.69Z"/>
  <path class="st1" d="M1457.54,1186.11l27.27.43h2.98c3.41,4.41,1.85,10.09,1.23,16.06l.08,1.24c.44,9.14-2.12,31.79,1.63,37.5,2.97-.98,2.14-.58,4.64-2.16,31.18-21.86,60.05.03,64.16,34.15,4.11,27.85-4.56,59.37-31.6,72.66-11.41,4.6-28.12,5.59-37.91-2.89-1.62.39-1.66.23-2.87,1.08-7.08,5.01-21.18,3.97-30.23,3.93,1.55-16.6.84-44.29.84-61.65.09-33.46.01-66.91-.24-100.36Z"/>
  <path class="st3" d="M1490.49,1269.16c35.25-40.81,50.08,27.54,23.74,51.67l-7.78,2.51-5.74.85c-2.87-.96-7.78-2.71-9.35-5.12-6.25-9.59-2.35-38.96-.87-49.92Z"/>
  <path class="st1" d="M1495.37,1239.19c31.18-21.86,60.05.03,64.16,34.15-.57,11.1-.91,18.04-4.32,28.71-.62-17.21-.74-41.74-14.16-54.28-3.17-2.95-3.72-3.9-5.76-7.64-5.43-.48-10.07,4.07-14.37,5.81l-16.55-6.61c-2.87,1.33-1.84,3.48-6.84,2.99l-2.16-3.12Z"/>
  <path class="st1" d="M1506.45,1323.34l-3.73,4.11c.78,2.24.09,1.37,2.06,2.61,3.67,3.98,1.46,2.79,6.93,3.62,7.49-2.34,13-7.78,17.63-7.69l1.55,1.24c-3.59,7.3-14.48,7.28-13.6,13.06,3.98,3.58,6.3,3.08,10.65,5.69-11.41,4.6-28.12,5.59-37.91-2.89-1.9-3.44-1.68-1.67-1.58-5.24,6.41-.58,11.21,7.01,20.03,5.04l1.18-1.86c-4.98-5.73-6.5-2.04-14.77-7.53,1.53-2.68,1.22-1.6,1.45-4.71l-4.44-4.02c3.34-.43,5.48-.47,8.81-.58l5.74-.85Z"/>
  <path class="st1" d="M1484.81,1186.54h2.98c3.41,4.41,1.85,10.09,1.23,16.06l-1.23,1.03c-2.7,12.15-1.14,25.4-1.68,37.96l-1.19.25c-4.32-5.92,1.22-42.2-6.91-49.33l-1.68.4-1.51,7.21c-5.89-4.08-1.43-2.17-3.48-4.37-2.45-2.63-9.94-2.97-11.68-7.25,4.86-1.53,17.57-.29,25.16-1.96Z"/>
  <path class="st1" d="M1506.45,1323.34l7.78-2.51,3.2,2.14c-1.73,5.19-7.7,5.92-12.66,7.1-1.97-1.24-1.28-.38-2.06-2.61l3.73-4.11Z"/>
  <path class="st1" d="M817.99,1255.31c17.75-22.69,33.63-27.1,61-20.84,6.33,2.05,15.9,5.74,19.77,11.64,11.67,10.86,16.87,24.34,17.24,40.23.04,2.25,0,4.51-.1,6.76-1.48,78.06-118.9,77.41-106.26-18.06,1.43-5.15,3.35-10.82,6.28-15.26l2.08-4.47Z"/>
  <path class="st1" d="M817.99,1255.31c17.75-22.69,33.63-27.1,61-20.84l-7.34.83-2.17,3.82c6.78,2.87,10.96.4,17.13,4.21l-.43,1.75c-4.05.24-5.02.11-8.92-.28l.94,3.23-1.2,1.71c-1.72-2.35-1.25-1.51-2.2-4.2-2.56.44-1.78-.13-2.78.77l-5.67,2.8,1.88,1.66.83,3.39c-3.26,1.38-4.13.75-8,.39l-1.71.82c-24.6,14.08-25.48,50.31-5.99,67.78-17.25-2.75-9.94,2.45-19.92,4.19,1.71-10.08,3.43-12.78-.78-20.6-4.17-2.7-1.81-2.02-7.57-1.04-4.16-8.7-8.36-16.63-12.98-24.9-.42-.75-1.26-3.73-2.46-5.76,1.43-5.15,3.35-10.82,6.28-15.26l2.08-4.47Z"/>
  <path class="st1" d="M817.99,1255.31c17.75-22.69,33.63-27.1,61-20.84l-7.34.83-2.17,3.82c6.78,2.87,10.96.4,17.13,4.21l-.43,1.75c-4.05.24-5.02.11-8.92-.28l.94,3.23-1.2,1.71c-1.72-2.35-1.25-1.51-2.2-4.2-2.56.44-1.78-.13-2.78.77l-5.67,2.8,1.88,1.66c-5.17.44-21.32,1.19-24.07,4.07-1.34,8.13-2.81,7.79-8.88,13.44l-1.26-2.89c-1.28.99-1.95,1.07-3.51,1.7-1.07-1.58-2.12-3.18-3.14-4.81l-3.16-.05c-2.54,2.56-1.81,2.12-4.82,3.95-1.66-2.27-2.25-3.86-3.47-6.38l2.08-4.47Z"/>
  <path class="st1" d="M834.01,1265.39c4.78-12.2-1.64-11.41-.74-19.9,6-4.9,15.98.29,22.84-1.18-1.17-1.78-2.11-3.29-3.2-5.1l2.11-1.14c4.61.68,3.01-.47,5.58,2.5l-.88,5.37,1.46.77c5.32-1.16,5.58-1.28,10.84-.39l-5.67,2.8,1.88,1.66c-5.17.44-21.32,1.19-24.07,4.07-1.34,8.13-2.81,7.79-8.88,13.44l-1.26-2.89Z"/>
  <path class="st1" d="M817.99,1255.31l3.66,1.73c.89,2.75.53,3.18,2.55,5.18-2.54,2.56-1.81,2.12-4.82,3.95-1.66-2.27-2.25-3.86-3.47-6.38l2.08-4.47Z"/>
  <path class="st1" d="M824.2,1262.22l3.16.05c1.02,1.63,2.06,3.23,3.14,4.81,1.56-.63,2.23-.7,3.51-1.7l1.26,2.89c-1.23,2.76-1.69,3.76-3.29,6.31-4.38.89-2.54-1.45-6.65-5.66,0-.01-5.47-2.54-5.95-2.77,3.01-1.82,2.28-1.38,4.82-3.95Z"/>
  <path class="st3" d="M859.34,1255.37c9.37,2.35,11.26,3.07,18.02,9.8,10.5,22.96,11.2,62.6-24.01,57.98-19.5-17.47-18.61-53.7,5.99-67.78Z"/>
  <path class="st1" d="M878.99,1234.47c6.33,2.05,15.9,5.74,19.77,11.64l-2.23,2.02c4.3,8.09,7.49,14.81,11.45,22.96-1.43-.24-2.29-.06-3.79.04l-.77,2.99c-4.05-.26-5.67-1.87-8.55-4.7-1.08,3.72-.93,4.35-.27,8.18l-1.07.73c-7.46-5.44-2.63-9.92-13.61-17.04l-1.89.52-.67,3.37c-6.76-6.74-8.65-7.45-18.02-9.8l1.71-.82c3.87.36,4.74.99,8-.39l-.83-3.39-1.88-1.66,5.67-2.8c1-.89.22-.33,2.78-.77.95,2.69.48,1.85,2.2,4.2l1.2-1.71-.94-3.23c3.91.39,4.88.52,8.92.28l.43-1.75c-6.17-3.81-10.34-1.34-17.13-4.21l2.17-3.82,7.34-.83Z"/>
  <path class="st1" d="M898.75,1246.11c11.67,10.86,16.87,24.34,17.24,40.23.04,2.25,0,4.51-.1,6.76-.94,2.78-1.65,4.42-2.78,7.14-2.49-1.52-3.1-22.81-5.13-29.15-3.96-8.16-7.15-14.87-11.45-22.96l2.23-2.02Z"/>
  <path class="st1" d="M885.74,1320.74l1.47-.85c3.91.43,2.03-.13,5.4,2.68,3.12,11.73-6.75,16.9-17.65,9.58l-3.09-.03-.69-1.78c5.84-3.12,8.2,1.09,15.96-.29l.68-4.65c-1.49-2.19-1.52-2.24-2.09-4.65Z"/>
  <path class="st0" d="M1248.2,1396.74c8.36.08,16.95.26,25.29.15,4.6,13.27,30.48,86.45,31.9,96.66,3.85,5.88,18.19,49.71,23.39,62.02-11.68.23-28.83,4.29-29.35-11.24-2.51-7.39-6.45-17.73-7.44-25.16-10.14-2-49.31-2.95-60.76.09-.64.16-2.35,2.24-2.89,2.95-.1,6.06-4.4,17.38-6.87,23.33l-.08.49-1.33,6.17c-6.13,5.77-16.1,3.52-25.66,3.44,7.38-16.39,15.89-44.28,22.18-62.38l3.71-11.02c1.97-7.04,3.54-12,6.11-18.87l4.03-12.42c6.03-17.76,11.6-36.94,17.77-54.23Z"/>
  <path class="st3" d="M1260.43,1417.74c7.4,25.89,15.47,52.54,22.52,78.21l-1.33,2.5c-4.76,2.45-35.62,1.31-42.56,0-1.91-3.44-.87-4.08-.09-9.04,2.12-2.41,7.23-21.13,8.5-25.45.58-3.9,6.15-21.18,7.63-26.36,2.09-6.91,3.64-12.87,5.33-19.87Z"/>
  <path class="st0" d="M1228.34,1522.22c-.08-8.11,5.71-26.26,10.63-32.8-.78,4.95-1.82,5.59.09,9.04,6.94,1.31,37.79,2.45,42.56,0l1.33-2.5,2.43.33c1.28,4.45,1.41,2.34-.26,6.54-4.55,2.93-15.61,1.94-21.6,1.75,5.71,1.36,20.36,5.18,25.14,2.33l.28,1.78c-5.62,3.66-19.28-.33-24.9,2.48l.3,1.5c8.76,1.04,23.24-1.36,27.88,3.05l-.21,3.48c-10.14-2-49.31-2.95-60.76.09-.64.16-2.35,2.24-2.89,2.95Z"/>
  <path class="st0" d="M1299.43,1544.35l.82-8.97c1.97,6.15,3.29,13.46,8.65,16.39l1.17-.64c-2.35-4.46-5.61-8.97-3.76-13.88,2.54,1.06,3.26,1.31,5.93,1.95,6.07-8.11-3.7-14.2-7.01-19.13,2.34-2.3,3.22-4.85,2.71-7.45-1.42-7.37-9.25-13.34-2.55-19.05,3.85,5.88,18.19,49.71,23.39,62.02-11.68.23-28.83,4.29-29.35-11.24Z"/>
  <path class="st0" d="M1247.47,1463.97c-3.18,3.64-2.48,4.16-6.11,4.64l-1.46-2.65c.1-5.96,10.49-36.59,13.67-41.73,1.9,1.95,1.4,9.75,1.52,13.39-1.48,5.18-7.05,22.46-7.63,26.36Z"/>
  <path class="st0" d="M1230.43,1450.97c5.32,6.86,6.77,12.03.19,19.49l-2.89.74c-1.97-2.6-1.24-3.75-1.33-7.82l4.03-12.42Z"/>
  <path class="st0" d="M1220.29,1482.26c4.32,6.4,4.85,14.44-1.19,20.16l-1.78-.49c-1.37-3.71-.97-4.7-.73-8.65l3.71-11.02Z"/>
  <path class="st0" d="M1221.39,1546.04l-3.24,2.89-1.73-.25c-2.59-4.59-3.1-11.65,1.72-14.81,3.66,3.98,3.1,6.15,3.33,11.68l-.08.49Z"/>
  <path class="st0" d="M890.82,1397.28c5.92-.2,22.06-1.57,26.2,1.71,15.92,41.99,27.12,87.93,43.03,130.17,3,7.97,6.23,17.75,8.42,25.87-7.63.01-16.51.24-24.03-.04-3.38-11.4-7.91-26.56-12.05-37.73-11.41.53-52.76-.75-59.26,3.26-.78,6.41-2,9.94-3.81,16.06-.7,4.37-4.02,13.57-5.53,18.19l-24.69.53c4.41-11.94,9.2-28.28,14.12-39.28,11.15-37.16,28.86-82.42,37.58-118.73Z"/>
  <path class="st0" d="M890.82,1397.28c5.92-.2,22.06-1.57,26.2,1.71.21,3.67.99,7-.96,9.84-7.32-2.76-1.89-4.63-8.39-4.15l-1.35,2.9c1.39,2.4,2.33,3.86,3.93,6.13-.82,3.57.01,2.05-3.06,4.32l-5.45.41c-3.09,3.8-2.51,4.94-2.41,10.72-1.91,15.35-13.97,48.8-18.37,66.05-.98,4.21-1.45,2.5.23,5.56,8.45,3.48,17.49,2.53,26.6,2.21-7.45,1.67-7.33.85-9.19,8.94-6.87,5.32-19.17-3.19-25.76,4.45l.32,4.14c-.78,6.41-2,9.94-3.81,16.06-.7,4.37-4.02,13.57-5.53,18.19l-24.69.53c4.41-11.94,9.2-28.28,14.12-39.28,11.15-37.16,28.86-82.42,37.58-118.73Z"/>
  <path class="st0" d="M839.12,1555.29c4.41-11.94,9.2-28.28,14.12-39.28-.28,4.47-.87,6.66,1.18,10.62,6.41,2.01,3.31-2.2,10.5-.25,2.01,4.5,1.04,6.37,4.41,10.19-.7,4.37-4.02,13.57-5.53,18.19l-24.69.53Z"/>
  <path class="st0" d="M882.56,1446.78l1.29,1.24c1.77,5.66,1.04,8.87-1.25,14.03-4.39-5.78-2.88-9.29-.04-15.27Z"/>
  <path class="st3" d="M899.32,1429.18l2.41-4.39,2.22-.52c3.43,4.69,21.25,64.25,23.37,74.39-8,.13-39.77,1.5-45.15-1.45l-1.23-2c4.41-17.24,16.47-50.7,18.37-66.05Z"/>
  <path class="st1" d="M1812.73,1234.9c16.77-4.81,32.94-4.94,49.18,2.2,10.46,8.73,16.84,16.63,17.94,31.13,1.85,24.29-2.31,54.91.25,78.72-9.4.18-25.97,1.66-33.86-2.33-13.7,6.82-27.88,6.65-41.81.78l-1.51-.97c-19.95-12.92-26.12-32.48-12.46-52.93,16.26-22.51,51.48-12.88,59.55-23.35-.73-12.59-16.14-13.15-25.3-13.25-6.8.9-16.59,4.26-21.53,2.78-3.31-2.69-3.28-3.15-4.55-7l-3.75-11.01c6.2-1.7,11.78-4.7,17.85-4.78Z"/>
  <path class="st1" d="M1861.91,1237.1c10.46,8.73,16.84,16.63,17.94,31.13,1.85,24.29-2.31,54.91.25,78.72-9.4.18-25.97,1.66-33.86-2.33.4-6.59,5.53-9.2,11.68-8.7l1.65,1.95c-3.59,4.7-4.94.53-8.11,3.46,6.47.45,14.14,1.78,20.02-.25,4.47-6.15,3.42-52.76,3.22-63.38-.55-27.93-4.89-24.43-19.8-38.43,2.24-2.54,2.48-1.71,7.01-2.16Z"/>
  <path class="st1" d="M1794.89,1239.68c6.2-1.7,11.78-4.7,17.85-4.78,6.61.38,17.11-.53,21.87.68-8.86,3.14-25.41,4.66-30.64,10.18,3.49,2.16,19.46,5.22,23.77,5.27l4.8.06c-3.31.53-4.75.35-7.48,2l-.34,1.82c-6.8.9-16.59,4.26-21.53,2.78-3.31-2.69-3.28-3.15-4.55-7l-3.75-11.01Z"/>
  <path class="st1" d="M1790.46,1291.51l2.11,1.95c-.94,14.98-8.3,23.19,5.48,39.02,4.32,4.95,9.67,8.13,15.45,11.32-1.86,2.01-6.28,1.66-9.07,1.6l-1.51-.97c-19.95-12.92-26.12-32.48-12.46-52.93Z"/>
  <path class="st3" d="M1834.33,1293.14l14.62-.54c1.28,18.61,4.94,30.64-18.01,32.83-24.04-6.66-19.82-27.27,3.39-32.29Z"/>
  <path class="st1" d="M1078.72,1250.01c-3.77-12.87,3.15-14.18,15.03-16.73,8.4-1.81,19.13-1.9,27.79-2.26,6.08,1.12,17.92,3.05,22.2,7.89,5.49,4.2,8.94,6.77,11.94,13.13,4.46,10.63,3.87,78.07,2.84,92.74-.87,1.09-1.14,1.76-2.22,2.34-7.92.23-17.87.94-25.43-.54-.96-.98-1.8-1.26-3.07-1.96-12.42,5-27.01,6.33-39.83,2.02-25.68-11.36-32.49-41.4-10.8-60.91,8.81-7.93,30.74-13.83,42.97-12.58,4.01-.3,5.29-.08,8.63-2.35,2.12-3.86,1.89-1.94,1.27-5.87-10.37-14.65-32.85-8.92-47.28-4.79l-4.05-10.14Z"/>
  <path class="st1" d="M1087.97,1346.64c-25.68-11.36-32.49-41.4-10.8-60.91,8.81-7.93,30.74-13.83,42.97-12.58,3.14,1.78,4.02,2.31,7.59,2.84,4.46,6.18-1.65,6.77-.62,13.5l-1.51,1.7c-11.26,3.54-18.89.59-27.11,9.83l-3.51-1.81-.6-2.09c1.21-1.83,5.53-8.19,6.11-9.8l-2.05-2.9c-24.96-4.12-40.21,44.72-7.55,58.42l.67,1.89-3.59,1.92Z"/>
  <path class="st3" d="M1125.61,1291.19c6.22,6.75,4.9,21.44.94,28.93l-5.77,3.96c-7.03,1.23-10.87.58-17.93.04-4.27-4.55-5.15-5.81-8.36-11.17,1.36-3.97,2.7-7.94,4.01-11.93,8.22-9.24,15.85-6.28,27.11-9.83Z"/>
  <path class="st1" d="M1078.72,1250.01c-3.77-12.87,3.15-14.18,15.03-16.73,8.4-1.81,19.13-1.9,27.79-2.26,1.57,1.21,2.63,2.44,4.5,2.85l1.63,2.26c-2.95,3.03-38.66-3.51-45.75,12.42l-3.2,1.46Z"/>
  <path class="st1" d="M1143.73,1238.91c5.49,4.2,8.94,6.77,11.94,13.13.59,10.8.49,21.61-.33,32.39-1.12-12.43-2.69-33.87-14.25-40.67l-.41-2.48,3.05-2.38Z"/>
  <path class="st1" d="M1102.85,1324.12c4.07,3.2,3.24,1.33,4.54,5.32l-1.72.69c-6.57-2.83-12.79-5.82-19.24-8.9v-.65c2.8-3.68,3.82-10.76,4.64-15.35l1.83.21c.94,2.45,1.27,4.9,1.6,7.5,3.2,5.37,4.08,6.62,8.36,11.17Z"/>
  <path class="st1" d="M1130.86,1346.58c5.42-7.63,14.37-4.81,23.25-3.9-.06-1.8-.11-2.95.29-4.73l1.4.03c.13,3.09.23,6.06.49,9.14-7.92.23-17.87.94-25.43-.54Z"/>
  <path class="st1" d="M1126.55,1320.13c4.6,1.81,5.84,1.37,8.31,4.71-3.46,2.61-7.04,2.11-11.97,2.6-2.16-1.95-1.52-.79-2.11-3.36l5.77-3.96Z"/>
  <path class="st1" d="M493.2,1259.53c13.63-22.18,39.27-35.93,64.91-25.97,28.25,15.76,31.7,35.1,30.6,65.28-8.01-.06-18.57.19-26.35-.21-14.92.08-30.96-.1-45.79.36,6.64,16.01,11.25,15.76,14.75,21.89,12.93,5.59,33.27,1.01,46.33-3.09,1.49,7.06,4.6,16.69,6.69,23.8-23.04,11.29-58.66,11.68-78.84-5.63-10.37-8.92-16.89-21.5-18.2-35.12-2.95-12.9-.57-29.66,5.9-41.32Z"/>
  <path class="st1" d="M487.3,1300.86c.34-4.56.13-9.92,2.06-13.66,7.42,4.39.09,7.63,16.22,16.41,1.49,4.24,1.28,2-.36,6.98-4.72-1.27-2.56-5.18-7.02-5.57l-.94,1.33c.22.49,2.19,4.99,2.21,5.08.28,1.07-3.13,5.03-.45,6.46,4.45,2.39,9.5,2.93,12.43,7.19l3.02.21c3.49-2.38,3.24-2.6,7.37-2.49,2.27.04,1.07.14,3.61-.36l1.93.85,3.92-2.4c12.93,5.59,33.27,1.01,46.33-3.09,1.49,7.06,4.6,16.69,6.69,23.8-23.04,11.29-58.66,11.68-78.84-5.63-10.37-8.92-16.89-21.5-18.2-35.12Z"/>
  <path class="st1" d="M521.85,1322.8c2.27.04,1.07.14,3.61-.36l1.93.85c10.63,6.84,30.57,5.13,32.93,7.38l-.27,3.23c5.12,4.03,7.07-.73,10.95,3.44-5.23,2.29-8.35.2-16,4.81-5.22,3.14-28.75,2.25-33.91-2.85l.8-2.48c3.83-1.17,3.11-1.21,6.98-1.43l.58-1.81c-2.88-7.34-5.9-5.52-7.61-10.78Z"/>
  <path class="st1" d="M514.48,1325.29c3.49-2.38,3.24-2.6,7.37-2.49,1.71,5.27,4.72,3.44,7.61,10.78-9.34-1.36-10.33-.52-14.98-8.3Z"/>
  <path class="st1" d="M493.2,1259.53c13.63-22.18,39.27-35.93,64.91-25.97-3.26,3.14-3.69,2.51-4.54,6.23,1.7,2.46,1.73,2.66,3.97,4.6l-.86,2.33c-5.24,1.27-6.55,3.2-10.24,7.6-16.86-4.05-22.65,4.15-27.96,18.36l-3-.67c-4.5-6.36,1.88-.09-.03-8.75-1.89.97-2.53,3.03-3.84,5.24l-1.82-.03c-.75-3.27-.58-2.94.05-6.21l-3.44-.96c-2.19,1.38-1.09.49-3.14,2.87l-3.75-.2c-2.18-1.92-3.78-3.03-6.31-4.46Z"/>
  <path class="st1" d="M515.89,1243.52c4.15.99,5.99,1.07,9.28,3.85l.17,2.31-2.69,2.78c-3.05,1.18-4.6,2.22-7.74,1.66l-1.58-2.33c.58-3.62.55-5.17,2.57-8.27Z"/>
  <path class="st1" d="M558.11,1233.57c28.25,15.76,31.7,35.1,30.6,65.28-8.01-.06-18.57.19-26.35-.21-12.4-3.77-38.15.3-44.41-5.15l.61-1.75,3.68-.72c12.73,4.59,23.25-3.95,37.91,1.38,4.64,1.7,9.54-5.28,20.86.18l.84-.96c-4.1-10.46-1.54-20.61-4.78-31.61-1.86-6.33-10.95-14.35-17.05-13.03,3.11,4.15,2.92,2.3,3.2,6.38-2.99-.45-4.04-3.33-6.54-6.64l.86-2.33c-2.24-1.94-2.27-2.14-3.97-4.6.85-3.72,1.28-3.09,4.54-6.23Z"/>
  <path class="st3" d="M518.48,1272.69c5.31-14.21,11.09-22.41,27.96-18.36,9.28,11.37,9.46,6.59,13.25,23.16-9.43.31-32.52,1.7-40.31.08-1.87-2.74-1.33-1.21-.9-4.88Z"/>
  <path class="st0" d="M992.23,1396.73c7.38.01,14.97-.19,22.38-.29,1.13,20.29-.14,44.69.16,65.83,22.15.45,44.29.57,66.45.35-.4-21.88-.38-43.78.09-65.67l23.18-.1c-.23,33.96-.24,67.92-.04,101.88.06,13.7,1.01,42.29-.38,55.01-3.19,2.69-2.8,1.78-8.06,2.07-4.73.05-9.39.67-13.39-1.6-2.16-7.03-1.08-62.01-.89-72.85l-67.15-.44c.11,24.84.93,49.66.94,74.49l-23.79.33c2.31-47.5.29-110.4.49-159.03Z"/>
  <path class="st0" d="M1099.93,1497.29l1.04,1.06c1.67,7.11,3.23,47.7.41,53.03l-2.26-.26c-.45-20.34-1.03-33.71.8-53.82Z"/>
  <path class="st1" d="M314.41,1257.03c18.38-24.32,47.96-36.74,73.89-14.99,11.39,9.67,18.38,23.53,19.37,38.43.3,5.08,1.11,13.13-1.85,17.18-13.74,2.51-63.96-2.1-68.92,5.12,1.58,2.56,4.87,7.21,5.26,9.82,17.21,17.95,35.94,13.34,56.76,4.91,1.27,6.27,3.88,16.26,3.27,22.25-6.76,8.04-15.55,8.04-25.23,9.12-22.18,2.45-43.34-1.03-57.83-19.41-5.44-6.57-7.99-11.3-10.69-19.36-4.16-17.44-3.51-23.57-.03-40.33,1.61-3.77,3.35-7.38,5.11-11.07l.89-1.67Z"/>
  <path class="st1" d="M314.41,1257.03c18.38-24.32,47.96-36.74,73.89-14.99,11.39,9.67,18.38,23.53,19.37,38.43.3,5.08,1.11,13.13-1.85,17.18-15.31-1.61-29.24.36-45.81-1.91l-1.19-1.22-1.09.09c7.03-3.28,28.35,1.43,31.41-4.93l-2.65-2.97c-2.21,1.36-3.1,1.8-5.4,2.94l-2.29-1.83-.36-4.14c-8.09-.21-15.21-.28-23.3.04l-11.9-1.06-.05-1.9-4.06-1.8-1.66-6.9c-1.11,1.23-2.08,2.29-3.24,3.47l-3.01-.87c-1.17-2.7-1.66-4.64-2.24-7.53l-2.67-.21c-7.78-5.64-4.36-7.33-11.9-9.9Z"/>
  <path class="st3" d="M337.47,1272.08l1.45-1.94c4.62-6.3,6.56-14.38,15.21-16.65,12.95-3.39,20.59,10.24,22.37,20.6.23,1.36.44,2.71.64,4.08-10.82-.03-27.75-.55-38.01.8l-1.66-6.9Z"/>
  <path class="st1" d="M394.87,1273.17c1.4-.28.51-.25,2.58.65.12,3.32-.25,1.78,1,4.64l1.11.4c3.19,4.46,2.51,2.09,2.47,7.28l-2.43,1.47c-3.18-.77-10.07-3.29-12.78-5.4l.79-2.65c2.65-1.82,3.71-2.43,5.88-4.83l1.38-1.56Z"/>
  <path class="st1" d="M319.13,1329.46c1.09-2.31.33-1.16,2.51-3.31l4.52,1.72.56-4.31-3.2.39c-1.2-2.89-.84-1.34-.06-4.95l2.27-.74c2.87,2.43,4.06,3.96,7.76,4.42-1.21-7.23-8.21-11.01-9.18-17.88,9.79-.33,5.19,7.72,15.07,12.03,1.88-1.72,1.54-1.8,2.78-4.25,17.21,17.95,35.94,13.34,56.76,4.91,1.27,6.27,3.88,16.26,3.27,22.25-6.76,8.04-15.55,8.04-25.23,9.12-22.18,2.45-43.34-1.03-57.83-19.41Z"/>
  <path class="st1" d="M308.41,1269.78c4.47,2.95,5.52,4,4.52,9.7-1.64,9.29-.71,20.34-2.81,29.37l-1.68,1.26c-4.16-17.44-3.51-23.57-.03-40.33Z"/>
  <path class="st1" d="M343.24,1282.67l11.9,1.06c2.96,3.13,2.21,1.33,2.43,5.56-3.89,3.76-11.7,5.17-16.32,1.91l2.52-3.87-2.44-1.68,1.91-2.97Z"/>
  <path class="st1" d="M314.41,1257.03c7.54,2.58,4.12,4.26,11.9,9.9-4.51-.34-7.83-.84-11.86-2.8l-.93-5.43.89-1.67Z"/>
  <path class="st1" d="M331.53,1302.34l-.91-1.12,1.17-2.85,1.86-.53c.92,2.6,1.06,3.23,3.25,4.93.57,4.61,1.23,4.27-.26,8.03-3.16-1.9-3.71-4.85-5.11-8.46Z"/>
  <path class="st1" d="M604.59,1234.28c7.06-.08,19.51-.72,25.85.99,2.28,3.09,2.17,5.61,2.63,9.46l1.3,1.36c5.73-1.92,9.69-8.62,14.49-10.61,52.8-21.88,57.64,32.1,54.34,69.39-.81,9.14,2.03,37-.93,42.67-10.09.1-19.68.18-29.78.85-1.96-10.85-1.22-39.77-.78-51.87.86-23.53-6.78-59.36-34.46-27.06-.94,26.29-.85,52.61.26,78.9-10.8-.15-21.6-.21-32.41-.21,1.54-30.74-.09-62.53,0-93.35.02-6.62-.02-14-.52-20.54Z"/>
  <path class="st1" d="M672.49,1348.4c3.41-8.32,2.93-23.28,3.22-32.59.09,4.56-.29,21.03.59,23.97l2.1-.64.1-5.59.96.34c4.14,11.45,12.09,5.81,21.86,10.71l.95,2.95c-10.09.1-19.68.18-29.78.85Z"/>
  <path class="st1" d="M442.86,1191.04c18.23-10.96,31.7-9.49,52.33-8.01-1.37,5.49-4.35,24.62-5.1,26.39l-9.04-2.33c-21.37.26-20.82,10.05-21.34,27.79l22.83-.09c.08,4.39,1.45,20.02-1.43,22.28-7.56.43-15.13.58-22.7.47.19,18.43,1.84,69.5-.06,85.78l.05,2.66c-4.24,3.22-13.85,2.07-19.71,1.82-4.47.59-6.01.45-10.38.24-2.98-15.5,2.03-81.22-1.36-89.02-3.59-2-7.82-1.46-12.1-1.48l-1.63-.52c-2.87-4.37-3.04-17.92,1.26-22.1l3.62.47,6.64-.68c6.36-4.86,2.74-9.74,4.52-20.32l.23-1.29c2.02-9.88,5.81-15.77,13.36-22.07Z"/>
  <path class="st1" d="M442.86,1191.04c18.23-10.96,31.7-9.49,52.33-8.01-1.37,5.49-4.35,24.62-5.1,26.39l-9.04-2.33c-21.37.26-20.82,10.05-21.34,27.79l22.83-.09c.08,4.39,1.45,20.02-1.43,22.28-5.95-4.39-17.95-.21-23.16-3.09-7.34-4.05-7.64-22.94-20.59-21.09l-1.07,4.8-2.16,1.26c-7.43-2.74-9.46.23-16.02-3.56l6.64-.68c6.36-4.86,2.74-9.74,4.52-20.32l.23-1.29c2.02-9.88,5.81-15.77,13.36-22.07Z"/>
  <path class="st1" d="M429.5,1213.11c2.02-9.88,5.81-15.77,13.36-22.07.98,1.5,2.23,3.91,3.63,4.78-3.02,4.44-4.28,4.64-4.41,9.06,2.63,1.96,2.92,1.89,6.06,3l-4.52,1.4-1.81-1.04-2.8-.05c-2.96,4.84-3.14,6.32-4.73,11.9.67,4,1.69,8.85-.24,12.27-4.97-4.84-4.29-12.34-4.53-19.24Z"/>
  <path class="st1" d="M448.13,1207.88c-3.14-1.12-3.43-1.04-6.06-3,.13-4.42,1.39-4.63,4.41-9.06,6.58,8.08,5.4,2.87,8.74,7.88-1.27,3.97-1.35,5.15-4.27,8.21-2.28-1.9-1.66-1.09-2.81-4.02Z"/>
  <path class="st1" d="M434.27,1220.08c1.59-5.58,1.77-7.06,4.73-11.9l2.8.05c.67,5.68-.46,8.63-4.77,12.92-.81-.28-2.12-.63-2.76-1.07Z"/>
  <path class="st1" d="M481.05,1207.1c2.06-3.07,4.16-6.11,6.3-9.11l1.65.39c1.12,4.64,1.01,6.18,1.09,11.05l-9.04-2.33Z"/>
  <path class="st1" d="M457.64,1214.34c1.49,7.04,2.17,15.09-3.4,20.02-.67-10.36-2.24-12.97,3.4-20.02Z"/>
  <path class="st1" d="M428.32,1348.05l.12-1.51c.95-12.74.11-80.32,2.89-87.4,5.48,7.03.15,68.6,3.32,80.97.39,1.53,7.09.2,8.1.01,2.92,2.25,1.96.84,3.05,4.3l-6.63,1.07-.47,2.33c-4.47.59-6.01.45-10.38.24Z"/>
  <path class="st1" d="M458.41,1345.99c-4.26-.06-2.85.82-5.11-1.47.92-19.08-2.62-68.2.21-83.79l1.58-.65c6.08,15.82-3.33,65.53,3.26,83.25l.05,2.66Z"/>
  <path class="st1" d="M414.86,1257.55l-1.63-.52c-2.87-4.37-3.04-17.92,1.26-22.1l3.62.47c6.57,3.78,8.6.82,16.02,3.56-4.71,6.01-7.65,5.52-11.34,9.78l.74,4.42c-2.84,3.34-3.72,2.73-8.67,4.39Z"/>
  <path class="st1" d="M720.73,1254.98c20.24-31.53,43.71-25.45,75.11-18.32-1.96,8.58-2.96,14.18-4.08,22.91-3.94-1.5-7.96-2.79-12.03-3.87-9.51-2.55-17.07-3.7-25.66,1.28-2.77,3.52-2.86,3.2-3.09,7.62,2.44,5.15,3.5,4.91,7.86,8.37,14.35,5.91,27.81,9.88,38.15,21.57,4.93,21.35,5.72,32.34-12.5,47.57-18.71,13.55-46.36,7.58-66.54,1.08,1.2-9.89,2.05-16.04,4.96-25.5,15.3,6.47,40.69,17.22,48.99-3.77-21.26-23.92-55.69-10.24-51.16-58.93Z"/>
  <path class="st1" d="M778.31,1312.55c1.29,3.43,1.59,4.5,1.76,8.17l2.99.31c1.94,2.21,3.25,3.53,5.63,5.25-.19,5.27-6.78,11.42-12.2,11.98-3.2-2.06-3.7-4.42-5.21-7.98l-2.29-.94c-7.4,7.13-4.33,8.8-16.12,8.66l-1.58-.03,5.14.62,1.11,2.45c13.66-.43,14.21-.1,26.94,1.07-18.71,13.55-46.36,7.58-66.54,1.08,1.2-9.89,2.05-16.04,4.96-25.5,15.3,6.47,40.69,17.22,48.99-3.77,2.16,3.93.66,2.55,4.49,4.47,2.75-2.82,1.76-1.11,1.93-5.84Z"/>
  <path class="st1" d="M724.95,1267.88c-.25-4.66-.11-10.81,2.94-14.49,4.27-.54,2.06-.8,6.6,2.34,1.51-4.84,2.64-9.53,5.22-13.84,10.86-7.69,52.27-6.02,47.09,8.07l-2.44.45c-6.32-5.43-9.15-7.09-17.22-5.42l-4.53.94-2.22.49-2.13-2.17-2.77.41c-.11,1.75-.26,3.44-.42,5.19-2.72,2.79-2.58,1.77-3.46,4.99l2.45,2.14c-2.77,3.52-2.86,3.2-3.09,7.62,2.44,5.15,3.5,4.91,7.86,8.37l-3.24.53c-1.31,2.74-.08,4.41-.37,4.52-2.32.87-8.91,4.51-10.95,5.71l-2.5-3.62-2.26.29-1.18,2.14c2.28,1.65,1.73,1.31,4.43,2.59-1.67,3.23-.44,1.92-4.5,3.31-4.62-1.28-2.5-.16-6.1-4.24l-.26-2.89,1.83-2.17c-2.95-4.17-1.09-3.15-5.17-4.12l-.11,2.41-1.31-2.39,1.54-.16-1.03,2.07c-1.56-1.81-2.23-6.54-2.7-9.06Z"/>
  <path class="st1" d="M724.95,1267.88c2.72-1.21,4.13-1.4,5.6-4.1l2.18-.64c1.38,4.42,2.15,7.7,4.25,11.83-1.17,1.58-1.92,2.7-3.26,4.16-2.95-4.17-1.09-3.15-5.17-4.12l-.11,2.41-1.31-2.39,1.54-.16-1.03,2.07c-1.56-1.81-2.23-6.54-2.7-9.06Z"/>
  <path class="st1" d="M778.31,1312.55l.26-4.36,1.69-1.5c3.87,2.78,9.47,9.17,12.66,12.96l-1.84,1.4c-4.48-.77-4.72-1.63-8.02-.01l-2.99-.31c-.17-3.67-.47-4.74-1.76-8.17Z"/>
  <path class="st1" d="M1693.79,1259.43c12.66-22.1,42.52-34.27,66.69-25.87,3.47.72,4.07.65,7.28,1.96,2.68,1.32,5.56,1.97,6.27,4.16,1.86,5.71-4.99,16.82-7.87,22.48-17.43-7.63-36.76-11.53-45.59,12.44-5.29,14.37-3,32.44,8.52,43.65,14.54,8.02,22.91,6.16,37.67.64,2.65,7.49,5.38,13.6,7.89,21.49-1.95,2.5-3.72,4.49-6.86,5.44-59.39,18.02-98.08-31.96-74-86.41Z"/>
  <path class="st1" d="M1693.79,1259.43c-.05,6.35.06,7.1,2.9,12.77-5.39,20.34-8.02,23.75,1.52,45.17.48,1.08,1.27,1.81,2.09,2.65,2.15-2.01,2.48-2.38,5.42-2.78l-.19,3.61,1.04.47,2.79-1.8c4.54,3.32,9.12,6.56,13.77,9.74l.19,1.73c-5.89-.5-7.31-3.07-12.69-5.64l-.85,2.16-2.76-1.14-.5,1.42c13.31,7.43,36.22,26.33,51.35,12.14l-.59-1.66c-5.2-2.44-5.78-4.45-8.87-9.31-7.26-1.14-17.13-2-22.48-7.04l.47-2.09,2.71-1.57c14.54,8.02,22.91,6.16,37.67.64,2.65,7.49,5.38,13.6,7.89,21.49-1.95,2.5-3.72,4.49-6.86,5.44-59.39,18.02-98.08-31.96-74-86.41Z"/>
  <path class="st1" d="M1760.47,1233.57c3.47.72,4.07.65,7.28,1.96-3.05.48-3.58.7-6.56,1.61l3.2,2.16-.73,1.27c-10.09,3.49-10.76,2.35-21.28,2.14,5.76-1.63,15.41-3.73,18.09-9.14Z"/>
  <path class="st1" d="M1574.34,1186.98c10.16-.49,20.41-.49,30.58-.58-1.04,37.44.35,77.99-.05,115.92.77,13.46-.48,19.31,14.58,22.1,6.71,4.95,5.33,12,5.67,19.9-2.98,5.18-15.43,4.64-20.75,3.75-12.09-2.05-17.99-5.69-25.38-15.3l-3.03-8.58c-4.55-16.1-1.9-114.38-1.62-137.2Z"/>
  <path class="st1" d="M1596.05,1334.87c3.64-.92,9.26-1.78,11.6-4.27l-.7-2.83c-5.93-3.61-8.09-7.77-7.98-14.68.31-19.81,1.45-39.7,1.75-59.54.09-5.37-2.59-22.26.98-24.96,4.2,18.51-4.15,56.6,3.17,73.73.77,13.46-.48,19.31,14.58,22.1,6.71,4.95,5.33,12,5.67,19.9-4.13.43-2.43,1.03-5.53-.8l-.84-4.36-1.11-2.61c-4.25-2.16-12.68-.63-20.05-1.47l-1.53-.19Z"/>
  <path class="st1" d="M1575.96,1324.17l.08-1.32c.74-14.21-.92-33.52.26-46.25,1.23,1.99,2.06,33.28,2.92,39.38l.5-4.49c1.42,8.22,3.68,14.1-.73,21.27l-3.03-8.58Z"/>
  <path class="st1" d="M1596.05,1334.87l1.53.19c7.37.84,15.8-.69,20.05,1.47l1.11,2.61-1.84,1.81c-5.59.34-20.12,1.19-23.11-4.5l2.26-1.58Z"/>
  <path class="st1" d="M971.41,1240.48c24.04-17.65,33.98-6.54,27.47,22.3-.24.4-.49.79-.73,1.19-.62,0-3.12.08-3.62-.06-3.87.24-8.65.39-12.38.99-6.57,3.12-8.99,4.52-14.18,9.75l-4.27,10.07c-1.67,16.83-1,45.57-.21,62.65l-32.68.74c1.88-32.09,2.26-81.82,1.05-113.64l26.28.96c2.28,4.51,2.25,10.47,2.68,15.65l10.58-10.6Z"/>
  <path class="st1" d="M931.87,1234.47l26.28.96c-.56,4.93-1.05,9.85-1.49,14.79l-1.87.25c-1.88-4.59-2.15-7.97-5.61-9.95-4.21-.01-7.35-.59-10.72,1.68-2.18,19.43-1.57,45.17-1.48,65.09.05,10.96,1.74,20.6,1.22,32.1,2.6,2.61,14.02,1.24,17.78.15,4.73-8.75-.33-46.67,3.29-59.31l2.46-.47,1.44-1.53.54,6.49c-1.67,16.83-1,45.57-.21,62.65l-32.68.74c1.88-32.09,2.26-81.82,1.05-113.64Z"/>
  <path class="st1" d="M971.41,1240.48c24.04-17.65,33.98-6.54,27.47,22.3-.24.4-.49.79-.73,1.19-.62,0-3.12.08-3.62-.06-1.47-1.13-2.53-2.12-3.91-3.37l.77-6.91-.89,1.8c.79-3.93,1.55-5.83.54-9.74-6.1-7.24-13.55-2.45-19.63-5.2Z"/>
  <path class="st1" d="M959.26,1280.23c-2.08-2.51-1.72-5.35-1.21-8.23-4.77,1.56-2.68,1.82-6.54.4-.82-1.47-3.58-12.9-3.9-14.97-.36.11,26.62,1.18,26.2,1.07l1.04,2.16c-4.3,3.38-7.09,4.91-9.57,9.6.56,3.59-.28,2.16,2.68,4.39l-4.27,10.07-.54-6.49-1.44,1.53-2.46.47Z"/>
  <path class="st1" d="M974.86,1260.66c4.37-1.94,6.75-3.56,11.45-2.92l.4,2.31-4.56,4.84c-6.57,3.12-8.99,4.52-14.18,9.75-2.95-2.22-2.11-.79-2.68-4.39,2.47-4.69,5.27-6.22,9.57-9.6Z"/>
  <path class="st1" d="M1341.37,1232.83c10.48.34,20.98.25,31.46-.29.04,18.8-10.92,122.42,32.77,81.87l1.17.44-.31,1.52,2.39.58-2.6.6-.5,2.77c2.98.92,2.5.73,5.66.99l.87,2.14-5.97,1.19c2.09,1.77.93,1.17,3.42,1.89-1.03,3.91-.9,6.72-.41,10.71-12.95,16.59-40.58,15.6-54.84,1.73-13.13-12.77-13.23-32.14-13.1-49.05.14-19.04.13-38.06.01-57.09Z"/>
  <path class="st1" d="M1626.66,1233.77c6.98.01,38.71-.64,43.3,1.28-.36,36.61-1.5,76.3.16,112.55-7.43.09-23.67.94-30.16-1.02-1.23-2.83-1.23-1.45-.77-4.15-.8-15.8,2.11-73.32-1.72-83.5-2.87-1.16-1.77-.78-4.57-1.67l-1.9-.58c-6.17-6.45-4.51-13.69-4.34-22.91Z"/>
  <path class="st1" d="M1669.96,1235.05c-.36,36.61-1.5,76.3.16,112.55-7.43.09-23.67.94-30.16-1.02-1.23-2.83-1.23-1.45-.77-4.15,2.84-10.9,2.55-21.78,2.73-33,.88,9.8.5,23.91.52,34.05,6.33.26,10.57.47,16.98-.03,5.63-6.07,4.1-91.81,5.22-106.42l5.33-1.99Z"/>
  <path class="st1" d="M1630.29,1242.3c10.48.35,13.56-2.7,19.05,6.03-8.84,2.19-14.06,1.83-19.05-6.03Z"/>
  <path class="st1" d="M1010.29,1233.82l40.16.52c.52,38.37-.19,75.4.85,113.91-11.8-.65-19.72-.3-31.58.65,1.34-25.2.59-51.38,1.14-76.7.13-4.5.84-8.12-1.41-11.81-12.12-7.77-9.5-13.17-9.16-26.56Z"/>
  <path class="st1" d="M1050.45,1234.33c.52,38.37-.19,75.4.85,113.91-11.8-.65-19.72-.3-31.58.65,1.34-25.2.59-51.38,1.14-76.7,3.39-3.95,1.12-12.97,2.98-15.75,1.42,3.2.92,4.49,2.15,7.26l3.41-.89c-1.11,2.29-3.58,7.16-3.59,9.46-.05,22.22.48,46.04.97,68.11,6.66,1.33,12.57,1.67,19.29,2.2-.8-18.48,2.68-70.91-4.79-83.96-1.91-3.34-3.22-6.17-4.26-9.85,1.53-3.91,1.9-3.63,1.77-7.69-3.75-2.29-8.62-.01-15.3-1.32-1.45-2.8-.41-1.58-3.9-3.04,8.51.16,23.4,1.28,30.86-2.39Z"/>
  <path class="st1" d="M1408.58,1233.38c9.69.19,19.88.54,29.54.49,1.91,8.03.96,26.61,1.11,35.52.45,25.41-1.16,52.64-.2,77.92-8.52-.11-17.06-.3-25.56-.11-2.58-2.75-3.1-6.21-4.17-9.97-.49-3.98-.62-6.8.41-10.71-2.49-.72-1.33-.11-3.42-1.89l5.97-1.19-.87-2.14c-3.15-.26-2.68-.08-5.66-.99l.5-2.77,2.6-.6-2.39-.58.31-1.52-1.17-.44c5.92-15.35,1.91-60.96,2.99-81.03Z"/>
  <path class="st1" d="M1408.58,1233.38c9.69.19,19.88.54,29.54.49-2.54,12.44-.08,23.45-2.53,35.58-3.29-2.12-1.01-22.64-2.63-27.49-5.87-4.08-15.26-4.34-21.01.01l-3.37-8.6Z"/>
  <path class="st1" d="M1409.7,1326.52c10.47-.5,14.89,3.43,12.2,14.99l-6.42-.89c-1.67,1.78-1.22.69-1.18,3.34l-.84,3.23c-2.58-2.75-3.1-6.21-4.17-9.97-.49-3.98-.62-6.8.41-10.71Z"/>
  <path class="st1" d="M1414.3,1343.97c-.04-2.65-.49-1.56,1.18-3.34l6.42.89c3.87,0,7.15-.49,10.46,1.32-5.5,2.84-11.97,1.7-18.06,1.13Z"/>
  <path class="st1" d="M1415.46,1245.9c1.72.06,4.06.36,5.76.54,2.36,3.47,1.45,1.56.96,7.08-1.94-.19-4.12-.58-6.06-.88-2.24-3.26-1.42-1.4-.65-6.74Z"/>
  <path class="st0" d="M1147.14,1397.51l22.62-.14-.7,101.02c-.05,14.18-.74,42.81,1.03,55.67-5.49,1.9-18.48,2.65-23.25-.96l-.26-3.48c1.87-23.38,1.18-52.31.89-76.01-.3-25.17.16-51.07-.33-76.1Z"/>
  <path class="st0" d="M1146.57,1549.62c7-3.93,18.46-2.19,23.52,4.44-5.49,1.9-18.48,2.65-23.25-.96l-.26-3.48Z"/>
  <path class="st1" d="M1016.52,1185.43c8.85.05,27.91-.77,35.07,1.29l-.09,27.64-33.31.36c-2.75-4.51-1.76-22.89-1.67-29.3Z"/>
  <path class="st1" d="M1051.58,1186.73l-.09,27.64-33.31.36c2.27-7.29-.24-15.32,2.1-19.92l2.98.87c1.94,4.12.78,8.46.14,13.2,6.15,1.71,16.54.88,22.66-.52-.5-4.74-.29-7.49-.06-12.29-5.4-6.18-17.73-5.92-26.83-7.5,10.72-.7,21.94-.21,32.41-1.83Z"/>
  <path class="st1" d="M1402.38,1185.88c6.22.04,20.06-.69,25.05.93l.88,2.05-2.34,2.11c-9.68,11.29-17.53,18.56-28.98,28.17-9.49,1.13-17.33,1.5-26.91,1.87,6.66-8.4,12.97-16.41,20.08-24.46,4.34-5.56,6.54-6.67,12.22-10.67Z"/>
  <path class="st1" d="M1402.38,1185.88c6.22.04,20.06-.69,25.05.93l.88,2.05-2.34,2.11c-1.01-1.4-1.48-2.95-3.12-2.85-4.79.26-15.71-.47-19.56.91l.49,1.27c2.7-.03,5.22,0,7.92-.2.77,1.41,1.11,1.71,1.47,3.23-3.22,7.37-13.13,17.33-20.32,20.85l-1.99-.23c4.56-6.95,5.45-3.72,7.05-10.62-2.04-4.86-2.48-5.82-7.75-6.77,4.34-5.56,6.54-6.67,12.22-10.67Z"/>
  <path class="st1" d="M1634.94,1189.39c1.61-2.69,1.06-3.08,3.61-3.46,9.23-1.4,21.69-.89,30.99-.83l.78,29.56c-7.45.11-26.95,1.04-33.02-1.03-2.44-4.66-1.84-17.77-2.36-24.24Z"/>
  <path class="st1" d="M1634.94,1189.39c1.61-2.69,1.06-3.08,3.61-3.46,9.23-1.4,21.69-.89,30.99-.83l.78,29.56c-7.45.11-26.95,1.04-33.02-1.03.43-2.3-.03-1.16,1.58-3.34,8.75-.58,15.71-.58,24.48-.48-.24-6.08.26-13.71.49-19.91-6.67.57-23.91,2.26-28.92-.52Z"/>
  <path class="st2" d="M1172.89,1045.31c2.61-.1,4.42-.01,7.05.06,2.58,2.93,1.77,1.87,1.45,7.19-2.7-.19-2.49-.33-5.13-1.17-3.44-3.82-2.65-1.72-3.37-6.08Z"/>
</svg>