<?xml version="1.0" encoding="UTF-8"?>
<svg id="Camada_1" xmlns="http://www.w3.org/2000/svg" version="1.1" viewBox="0 0 2048 2048">
  <!-- Generator: Adobe Illustrator 30.3.0, SVG Export Plug-In . SVG Version: 2.1.3 Build 182)  -->
  <defs>
    <style>
      .st0 {
        fill: #6ecd3d;
      }

      .st1 {
        fill: #007d39;
      }

      .st2 {
        fill: #fdd51a;
      }

      .st3 {
        fill: #0a8833;
      }

      .st4 {
        fill: #6fcf38;
      }

      .st5 {
        fill: #facd1e;
      }

      .st6 {
        fill: #77af76;
      }

      .st7 {
        fill: #01612e;
      }

      .st8 {
        fill: #f9fbf8;
      }

      .st9 {
        fill: #d2ca96;
      }

      .st10 {
        fill: #f9fdf6;
      }
    </style>
  </defs>
  <path class="st8" d="M569.49,1122.23c-12.69-10.72-26.33-28.34-36.07-41.68-40.71-56.41-70.57-119.89-88.07-187.22-31.91-115.42-28.1-237.8,10.93-351.01,11.08-33.11,26.61-70.17,44.05-100.49,79.62-140.63,212.2-243.54,368.18-285.8,139.01-37.43,286.86-23.49,416.42,39.27,32.65,15.79,48.27,28.51,76.86,45.02,7.3,5,12.16,8.4,18.83,14.13-15.66,15.45-31.6,33.21-47.38,47.99,17.25,13.13,41.14,31.35,56.03,47.38,16.31,16.82,37,35.16,51.05,54.01,5.71-2.03,40.87-42.53,47.23-49.87,11.78,12.6,22.18,26.57,32.22,40.58,71.2,99.38,110.1,233.73,106.04,355.74-4.12,161.64-73.56,314.72-192.48,424.27-116.97,108.1-272.05,165.37-431.2,159.22-91.32-2.89-180.69-27.12-260.97-70.75-19.27-10.37-37.54-22.05-56.01-33.73-11.88,3.05-23.96,13.56-36.12,18.52-7.38,6.03-11.73,9.48-19.74,14.48-2.74-12.27-18.47-69.16-24.48-77.39,4.86-6.69,18.27-20.42,24.36-26.72,10.47-10.83,23.15-25.01,34.24-34.84-16.17-15.66-33.76-32.95-47.99-50.15-14.62,16.73-31.1,32.27-45.93,49.04Z"/>
  <path class="st9" d="M1440.32,403.83c5.71-2.03,40.87-42.53,47.23-49.87,11.78,12.6,22.18,26.57,32.22,40.58,71.2,99.38,110.1,233.73,106.04,355.74-4.12,161.64-73.56,314.72-192.48,424.27-116.97,108.1-272.05,165.37-431.2,159.22-91.32-2.89-180.69-27.12-260.97-70.75-19.27-10.37-37.54-22.05-56.01-33.73-11.88,3.05-23.96,13.56-36.12,18.52-7.38,6.03-11.73,9.48-19.74,14.48-2.74-12.27-18.47-69.16-24.48-77.39,4.86-6.69,18.27-20.42,24.36-26.72,10.47-10.83,23.15-25.01,34.24-34.84,20.65,17.61,36.07,30.82,58.65,46.79,8.32,4.24,18.2,12.7,26.73,17.84,170.41,102.7,381.34,103.05,554.29-2.14,120.73-73.59,206.99-192.43,239.54-330.02,36.63-151.49,4.79-306.05-86.42-431.57-4.63-6.37-12.25-14.07-15.87-20.41Z"/>
  <path class="st2" d="M663.41,1123.34c20.65,17.61,36.07,30.82,58.65,46.79.13,7.61-50.89,54.36-59.13,63.68-3.88,3.87-10.48,10.07-13.89,14-7.38,6.03-11.73,9.48-19.74,14.48-2.74-12.27-18.47-69.16-24.48-77.39,4.86-6.69,18.27-20.42,24.36-26.72,10.47-10.83,23.15-25.01,34.24-34.84Z"/>
  <path class="st9" d="M569.49,1122.23c-12.69-10.72-26.33-28.34-36.07-41.68-40.71-56.41-70.57-119.89-88.07-187.22-31.91-115.42-28.1-237.8,10.93-351.01,11.08-33.11,26.61-70.17,44.05-100.49,79.62-140.63,212.2-243.54,368.18-285.8,139.01-37.43,286.86-23.49,416.42,39.27,32.65,15.79,48.27,28.51,76.86,45.02,7.3,5,12.16,8.4,18.83,14.13-15.66,15.45-31.6,33.21-47.38,47.99-31.03-20.01-53.42-34.11-87.4-49.93-103.37-48.21-219.68-61.25-331.16-37.15-139.47,29.86-261.38,113.85-338.97,233.53-124.39,192.16-107.73,449.35,39.71,624.31-14.62,16.73-31.1,32.27-45.93,49.04Z"/>
  <path class="st1" d="M821.39,260.87c82.23-37.5,175.17-48.49,264.49-38.5,11.13,1.66,22.57,3.17,33.55,5.57,21.58,2.87,48.12,10.51,68.75,17.51,98.12,33.13,184.28,94.46,247.71,176.32,83.58,107.73,120.5,244.45,102.52,379.61-18.07,136.86-90.49,260.68-200.91,343.53-109.45,82.48-246.85,118.84-382.77,101.28-138.94-20.17-264.19-94.69-348.21-207.18-81.01-107.32-113.79-251.01-93.27-382.99,20.43-131.38,90.19-250.18,196.77-330.39,30.74-23.13,68.78-47.11,104.2-61.39l7.16-3.36Z"/>
  <path class="st3" d="M1085.88,222.37c11.13,1.66,22.57,3.17,33.55,5.57-11.92,1.07-25.32,5.79-33.55-5.57Z"/>
  <path class="st3" d="M821.39,260.87l1.97,1.14c-.4,4.03-2.12,10.88-7.27,10.42l-.1-1.11c-.3-3.15-.19-4.31-1.76-7.08l7.16-3.36Z"/>
  <path class="st8" d="M1008.02,390.9c1.37-11.39,9.92-78.88,19.31-79.63,5.34,10.13,14.07,65.39,14.67,78.3,4.11,6.4,16.72,2.85,23.59,1.74,7.59-7.32,26.12-35.91,29.16-45.45,10.91,22.78,9.34,44.27,25.66,60.47l12.15,3.71c-.94,13.34-2.83,20.42-6.59,33.37,9.96,5.67,35.48,17.4,41.28,25.16l14.55,4.17c24.67,5.79,48.41,15.08,71.63,24.97,6.28,2.68,39.54,18.23,43.33,18.89,12.11-1.43,15.68,5.91,29.74,5.24,26.8-1.28,42.07.14,63.67,17.53l3.49,2.35c12.19,10.33,23.7,20.82,37.31,29.18,12.51.43,23.49-1.26,35.89-2.78,12.22,37.65,11.65,49.81,9.43,90.1-8.57,10.58-15.4,19.28-24.45,29.51-18.18,20.56-47.81,44.46-58.24,69.51l-11.58-2.01c-1.2,45.81,11.87,41.36-15.85,83.67,5.71,21.19,14.36,46.97,21.51,67.76,12.64.07,25.28-.03,37.92-.31-12.19,36.55-38.38,37.4-68.69,55.11-5.1,2.98-36.12,2.49-43.19,2.13-4.86,5.4-16.69,20.21-22.94,21.89-34.13,5.11-68.52,6.31-103.18,15.36-5.97,7.98-10.46,14.23-17.39,21.36-6.07,6.25-13.54,12.41-19.2,18.69.08,15.45,2.25,30.96.74,46.4-.73,7.51-1.38,11.11-8.36,14.75-7.06,8.79-13.91,17.46-20.83,26.38-11.97,15.43-20.69,37.46-38.96,45.98l-7.34,4.93c-5.03,6.83-5.47,13.27-6.81,21.52-1.24,1.21-3.42,3.56-4.78,4.36-7.63,7.65-16.93,12.59-26.39,17.56,8.27-16.46,13.04-22.46-1.18-36.51-2.37-1.21-12.72-8.4-15.58-10.27-8.22-1.9-12.21-2.73-16.87-9.56-3.14-32.03-31.99-23.22-39.21-32.44.13-4.71,5.07-8.18,8.53-11.24,12.32-10.89,19.02-24.39,30.13-37.89-.03-4.67-.27-6.36.95-10.76l-.1-3.11c-2.29-2.11-3.6-1.54-7.45-2l-21.86-.07c-18.92-19.03-26.98-8.58-23.68-38.76,17.24.49,35.11.39,52.42.47.48-10.79.41-21.35.4-32.14-.92-6.58-.72-30.13-.82-37.89-16.69-5.1-28.49-7.24-45.46-9.99-.19-20.41,2.27-82.44-2.97-98.06-3.36-10.01-10.03-17.07-16.83-24.81-7.33-2.58-5.5-8.61-12.21-9.65-7.61-1.44-18.09,4.83-25.15,1.36-7.37-3.61-6.1-15.36-2.39-20.9.62-6.04.29-21.58.36-28.34l-4.85-5.72-1.76.09c-.26.09-12.15,6.64-12.67,6.97l-2.5-2.71-1.94.05-1.15,1.62c2.58,4.78,5.49,7.95,2.27,13.09l-1.96.46c2.82,10.99,7.29,24.48,10.69,35.54,8.82,28.66,17.71,59.15,27.53,87.4,11.04.06,22.09-.11,33.13-.54-6.1,28.03-22.01,31.41-44.42,43.14-6.18,3.23-13.42,8.96-19,13.34h-189.29c-7.86-4.77-15.59-11.97-23.25-16.51-21.04-12.48-36.21-12.7-43.56-39.32,89.85-.6,182.56-1.17,272.35-.24-4.92-19.48-10.66-36.19-16.44-55.35-10.59-34.63-20.96-69.33-31.1-104.1-8.83-.99-18.6-2.13-26.71-6.71-12.13-6.85-32.6-20.63-38.05-33.59-3.57-8.5,1.35-25.57-2.65-34.88-6.05-.25-30.48,4.83-37.11,6.67-9.66,30.45-26.86,86.8-39.47,118.47-.71.4-1.42.79-2.13,1.19l-2.34-.41c-2.67-5.5,2.64-18.02,4.35-24.16,5.88-21.9,12.4-43.63,19.56-65.15-18.27-.11-37.52,2.2-57.53,1.94-4.01-6.92-4.72-9.07-7.26-16.69-.01-4.07-1.77-16.41-2.31-21.05-8.84,3.81-17.77,8.61-26.37,13.02-7.13-4.82-21.08-17.05-28.9-23.16-3.91-3.7-4.42-3.98-6.89-8.61-9.05-15.22-11.5-18.05-12.86-35.56,7.11-12.9,9.29-19.7,13.8-33.64,2.85-9.56-.49-14.72,9.18-19,20.92-14.39,70.16-24.93,73.52-53.23,1.99-16.75-7.08-60.13-16.82-74.74,16.27-16.03,10.58-23.38,15.71-31.56,5.83-4.13,46.51-4.24,57.23-4.67,2.64,8.91,6.32,17.47,10.96,25.52,34.47-5.91,47.46-14.29,78-29.01-16.72-14.22-24.38-22.66-22.36-45.26l.95.35c7.1,2.57,23.24,7.53,30.21,6.74,21.77-2.47,46.82-22.78,67.36-32.17l1.41-.63c1,26.03.41,54.8.35,81.08,8.8,4.07,17.54,8.26,26.23,12.57,14.73-4.26,30.32-8,45.2-11.81,17.03-4.37,19.89-5.97,32.38-18.4Z"/>
  <path class="st4" d="M1043.65,496.43c71.3.81,141.98,13.36,209.19,37.16-1.71,11.96-5.47,24.31-8.81,35.95,2.3,14.82-6.5,30.47-10.19,44.72-1.11,4.32-2.86,4.52-1.17,8.82l1.27-.73c2.06-8.65.65-11.22,7.48-16.72,7.97-21.14,12.89-45.08,21.81-64.97,2.52,12.98,9.12,33.24,13.22,46.53l22.61,72.79,62.13,205.04c-11.45,18.64-14.03,19.5-14.01,41.2l-35.45.21-111.85-.04c-16.99.03-40.78-.57-57.23.41-11.51-.57-26.71-.67-38.31-.38,1.39,11.48,3.03,17.83,13.48,25.4,17.97,13.03,30.64,12.78,45.21,32.03,36.32-.55,72.66-.64,108.99-.24,9.36.05,34.01-.9,41.7-.02-4.86,5.4-16.69,20.21-22.94,21.89-34.13,5.11-68.52,6.31-103.18,15.36-5.97,7.98-10.46,14.23-17.39,21.36-6.07,6.25-13.54,12.41-19.2,18.69.08,15.45,2.25,30.96.74,46.4-.73,7.51-1.38,11.11-8.36,14.75-7.06,8.79-13.91,17.46-20.83,26.38-11.97,15.43-20.69,37.46-38.96,45.98l-7.34,4.93c-5.03,6.83-5.47,13.27-6.81,21.52-1.24,1.21-3.42,3.56-4.78,4.36-7.63,7.65-16.93,12.59-26.39,17.56,8.27-16.46,13.04-22.46-1.18-36.51-2.37-1.21-12.72-8.4-15.58-10.27-8.22-1.9-12.21-2.73-16.87-9.56-3.14-32.03-31.99-23.22-39.21-32.44.13-4.71,5.07-8.18,8.53-11.24,12.32-10.89,19.02-24.39,30.13-37.89-.03-4.67-.27-6.36.95-10.76,6.52.15,34.76-.95,38.1,1.34l.75,1.78c.25-3.21.02-3.51,1.87-6.2,3.61-1.83,8.03-.93,13.37-1.87l1.05-.19,14.22-.98c6.95-9.11,15.44-13.05,24.3-20.59-1.21-5.52-3.04-11.89-4.5-17.43-16.64.36-33.28.6-49.93.7l-.7-303.84-.04-163.03c.1-22.03-.71-45.56.11-67.37Z"/>
  <path class="st8" d="M1005.05,1074.12c6.52.15,34.76-.95,38.1,1.34l.75,1.78c-.02,23.91,1.41,65.39-.43,87.49-7.42,8.32-10.73,10.28-21.95,11.28-8.22-1.9-12.21-2.73-16.87-9.56-3.14-32.03-31.99-23.22-39.21-32.44.13-4.71,5.07-8.18,8.53-11.24,12.32-10.89,19.02-24.39,30.13-37.89-.03-4.67-.27-6.36.95-10.76Z"/>
  <path class="st0" d="M1004.65,1166.45c-3.14-32.03-31.99-23.22-39.21-32.44.13-4.71,5.07-8.18,8.53-11.24,12.32-10.89,19.02-24.39,30.13-37.89.22,26.19,1.1,55.54.55,81.57Z"/>
  <path class="st10" d="M1241.42,605.65c-2.49,10.93-8.01,26.87-11.46,37.68l-15.84,50.05c-2.22,6.81-12.67,38.07-17.01,40.28-1.82-13.97,39.5-141.87,46.92-164.11,2.3,14.82-6.5,30.47-10.19,44.72-1.11,4.32-2.86,4.52-1.17,8.82l1.27-.73c2.06-8.65.65-11.22,7.48-16.72Z"/>
  <path class="st0" d="M1163.03,963.87c36.32-.55,72.66-.64,108.99-.24,9.36.05,34.01-.9,41.7-.02-4.86,5.4-16.69,20.21-22.94,21.89,2.33-4.2,9.47-10.44,13-15.92l-.35-.95c-3.64,2.71-7.45,4.54-11.93,2.53l3.52-1.66-.29-1.71c-5.46-.3-12.11-.98-17.5-.54-13.04,1.05-26.1,1.44-39.18,1.62-11.24.16-22.21-1.57-33.45-.9-12.91.77-26.02-1.25-38.9-1.71-.89-.79-1.78-1.59-2.67-2.38Z"/>
  <path class="st0" d="M1037.1,1186.28c13.47,3.13,9.66,17.95,15.89,24.27,4.7-.3,5.9-4.04,11.68-5.32-7.63,7.65-16.93,12.59-26.39,17.56,8.27-16.46,13.04-22.46-1.18-36.51Z"/>
  <path class="st3" d="M1151.01,1040.91c.08,15.45,2.25,30.96.74,46.4-.73,7.51-1.38,11.11-8.36,14.75,13.95-19.73,1.42-42,7.62-61.15Z"/>
  <path class="st4" d="M798.28,532.92c46.86-22.88,155.77-36.72,207.18-36.61,1.38,22.77.55,52.97.33,76.02l-.51,112.21-.26,196.24c-.01,37.59.82,80.74-.24,117.72-.92-6.58-.72-30.13-.82-37.89-16.69-5.1-28.49-7.24-45.46-9.99-.19-20.41,2.27-82.44-2.97-98.06-3.36-10.01-10.03-17.07-16.83-24.81-7.33-2.58-5.5-8.61-12.21-9.65-7.61-1.44-18.09,4.83-25.15,1.36-7.37-3.61-6.1-15.36-2.39-20.9.62-6.04.29-21.58.36-28.34l-4.85-5.72-1.76.09.21-1.15c-5.45-3.42-21.16-13.6-27.58-11.64-12.53-40.2-24.79-80.48-36.78-120.85-9.85-32.24-20.83-65.89-30.26-98.05Z"/>
  <path class="st3" d="M938.71,827.77c-7.33-2.58-5.5-8.61-12.21-9.65-7.61-1.44-18.09,4.83-25.15,1.36-7.37-3.61-6.1-15.36-2.39-20.9.4,6.5.85,12.99,1.36,19.48,10.18-.27,18.7-1.2,28.78-2.28,3.43,4,6.69,7.58,9.62,11.98Z"/>
  <path class="st4" d="M803.95,353.18l.95.35c7.1,2.57,23.24,7.53,30.21,6.74,21.77-2.47,46.82-22.78,67.36-32.17l1.41-.63c1,26.03.41,54.8.35,81.08,8.8,4.07,17.54,8.26,26.23,12.57,14.73-4.26,30.32-8,45.2-11.81,17.03-4.37,19.89-5.97,32.38-18.4-.74,20.61-.4,42.95-1.32,62.96l-1.36.17c-16.38,1.95-32.84,1.11-49.79,3.06-73.96,8.49-148.58,29.17-213.24,66.68-5.33,3.09-15.98,9.74-13.85,17.29,7.54,26.67,33.01,5.12,51.08-.94-5.54,21.16-14.72,47.63-21.74,68.74l.64,1.86c.85,2.51,1.02,3.56,1.46,6.15,2.35.25,4.21-1.57,6.78-3.11l-19.8,65.17c-9.66,30.45-26.86,86.8-39.47,118.47-.71.4-1.42.79-2.13,1.19l-2.34-.41c-2.67-5.5,2.64-18.02,4.35-24.16,5.88-21.9,12.4-43.63,19.56-65.15-18.27-.11-37.52,2.2-57.53,1.94-4.01-6.92-4.72-9.07-7.26-16.69-.01-4.07-1.77-16.41-2.31-21.05-8.84,3.81-17.77,8.61-26.37,13.02-7.13-4.82-21.08-17.05-28.9-23.16-3.91-3.7-4.42-3.98-6.89-8.61-9.05-15.22-11.5-18.05-12.86-35.56,7.11-12.9,9.29-19.7,13.8-33.64,2.85-9.56-.49-14.72,9.18-19,20.92-14.39,70.16-24.93,73.52-53.23,1.99-16.75-7.08-60.13-16.82-74.74,16.27-16.03,10.58-23.38,15.71-31.56,5.83-4.13,46.51-4.24,57.23-4.67,2.64,8.91,6.32,17.47,10.96,25.52,34.47-5.91,47.46-14.29,78-29.01-16.72-14.22-24.38-22.66-22.36-45.26Z"/>
  <path class="st10" d="M757.81,608.86l.64,1.86c.85,2.51,1.02,3.56,1.46,6.15,2.35.25,4.21-1.57,6.78-3.11l-19.8,65.17c-9.66,30.45-26.86,86.8-39.47,118.47-.71.4-1.42.79-2.13,1.19l-2.34-.41c-2.67-5.5,2.64-18.02,4.35-24.16,5.88-21.9,12.4-43.63,19.56-65.15,1.44-2.58,7.67-23.53,9.08-28.32,7.1-24.11,14.14-47.76,21.87-71.7Z"/>
  <path class="st4" d="M1296.76,516.61c12.11-1.43,15.68,5.91,29.74,5.24,26.8-1.28,42.07.14,63.67,17.53l3.49,2.35c12.19,10.33,23.7,20.82,37.31,29.18,12.51.43,23.49-1.26,35.89-2.78,12.22,37.65,11.65,49.81,9.43,90.1-8.57,10.58-15.4,19.28-24.45,29.51-18.18,20.56-47.81,44.46-58.24,69.51l-11.58-2.01c-1.2,45.81,11.87,41.36-15.85,83.67-14.23-40.19-28.67-92.17-41.16-133.45l-46.36-148.52c-1.16-3.79-4.27-11.57-2.85-14.25,11.33,2.84,22.26,14.98,35.16,12.66,8.53-1.53,8.37-15.53,6.22-21.75-3.09-8.91-12.58-13.03-20.42-16.99Z"/>
  <path class="st0" d="M1390.17,539.38l3.49,2.35c-1.99,1.61-2.09,1.74-4.3,3.07-3.44.03-2.59.55-5.19-.87l.26-1.92c1.93-.84,3.84-1.72,5.74-2.63Z"/>
  <path class="st0" d="M788.83,544.54c5.39,16.86,11.59,33.81,16.78,50.62,15.64,50.65,30.59,101.52,45.81,152.3-8.83-.99-18.6-2.13-26.71-6.71-12.13-6.85-32.6-20.63-38.05-33.59-3.57-8.5,1.35-25.57-2.65-34.88-6.05-.25-30.48,4.83-37.11,6.67l19.8-65.17c6.84-23.24,14.22-46.33,22.14-69.22Z"/>
  <path class="st4" d="M1094.75,345.87c10.91,22.78,9.34,44.27,25.66,60.47l12.15,3.71c-.94,13.34-2.83,20.42-6.59,33.37,9.96,5.67,35.48,17.4,41.28,25.16-45.76-8.7-78.15-11.65-124.47-14.28-.47-21.82.25-42.83-.78-64.73,4.11,6.4,16.72,2.85,23.59,1.74,7.59-7.32,26.12-35.91,29.16-45.45Z"/>
  <path class="st1" d="M1347.18,906.23c-.02-21.7,2.56-22.56,14.01-41.2,4.38,13.64,9.35,28.24,13.29,41.93l-27.3-.72Z"/>
  <path class="st3" d="M865.32,751.82c6.42-1.96,22.14,8.22,27.58,11.64l-.21,1.15c-.26.09-12.15,6.64-12.67,6.97l-2.5-2.71-1.94.05-1.15,1.62c2.58,4.78,5.49,7.95,2.27,13.09l-1.96.46c-3.59-10.33-6.49-21.68-9.43-32.27Z"/>
  <path class="st10" d="M1142.65,906.81c16.45-.98,40.24-.38,57.23-.41l111.85.04c-6.59,4.33-47.81-3.45-59.8,5.32l-2.51-.09c-1.19-1.51-1.7-2.05-3.38-2.99-6.32.06-9.75,1.97-13.57,1.84-7.82-.27-16.2-2.25-24.16-2.51-14.52-.47-53.62,2.3-65.66-1.19Z"/>
  <path class="st6" d="M997.5,1069.01c19.73-.12,43.14-.58,62.69-.03l-1.05.19c-5.34.94-9.76.04-13.37,1.87-1.85,2.69-1.62,2.99-1.87,6.2l-.75-1.78c-3.34-2.29-31.58-1.19-38.1-1.34l-.1-3.11c-2.29-2.11-3.6-1.54-7.45-2Z"/>
  <path class="st3" d="M973.67,956.07c5.44-.45,6.18-.99,9.83,3.16-6.29,1.63-5.99,1.41-9.83-3.16Z"/>
  <path class="st3" d="M945.16,1050.64c2.34.95,1.54.62,3.45,2.65-.74,3.44.06,1.8-3.74,4.46l-.97,1.11-.97-.28c-.18-3.43.81-4.52,2.23-7.94Z"/>
  <path class="st3" d="M783.99,672.26c-.35,1.94-.72,3.88-1.1,5.82l-1.28.51-3.96-1.88-.67-.72.33-1.25c2.54-.83,4.24-1.48,6.68-2.48Z"/>
  <path class="st1" d="M1213.32,1411.78c33.79-4.95,65.2,18.37,70.25,52.13,5.05,33.77-18.16,65.26-51.91,70.41-33.9,5.17-65.55-18.17-70.62-52.08-5.07-33.9,18.36-65.48,52.28-70.46Z"/>
  <path class="st8" d="M1220.05,1436.3c7.52-.23,12.81.31,19.52,3.91,7.83,4.29,13.63,11.53,16.1,20.11,6.8,22.91-5.87,44.23-28.99,49.9-50.84.89-53.37-66.92-6.63-73.92Z"/>
  <path class="st1" d="M454.68,1414.89c28.45.25,69.38-5.98,91.11,15.44,24.34,24,21.44,59.73-.74,83.88-25.58,21.91-57.29,17.37-90.34,17.59.31-38.97.3-77.94-.03-116.91Z"/>
  <path class="st8" d="M479.39,1437.64c14.04-.15,33.18-2.15,44.45,7.32,16.63,13.99,15.29,37.6,2.05,53.44-16.56,12.63-26.4,10.8-46.42,10.92.36-23.89.33-47.79-.08-71.68Z"/>
  <path class="st1" d="M696.13,1620.28c12.23.6,28.21.62,41.02,0,25.39-1.22,54.58,1.89,51.9,35.38-.71,8.91-8.23,14.51-14.82,19.75,18.59,10.48,27.11,21.9,18.52,43.49-14.7,22.02-38.27,18.66-61.48,18.47-11.64-.07-23.28-.08-34.92-.03-.27-39.02-.34-78.04-.21-117.06Z"/>
  <path class="st8" d="M721.65,1688.39c12.59-.43,65.31-4.52,44.76,22.96-9.5,5.67-33.57,3.68-45.22,3.47l.47-26.43Z"/>
  <path class="st8" d="M721.11,1642c14.62-.09,58.86-4.03,37.92,23.22-7.68,3.62-28.22,2.67-37.59,2.67.11-8.63,0-17.26-.33-25.89Z"/>
  <path class="st1" d="M1307.41,1414.75c22.76.07,50.11-1.81,72.5,2.8,8.65,2.39,20.93,9.6,24.17,18.55,9.88,27.4.44,43.72-23.09,54.63,5.63,8.83,13.02,18.47,19.16,27.25,3.14,4.41,6.19,8.87,9.14,13.4-5.39,0-26.54.44-30.05-1.26-4.74-5.57-19.58-29.53-23.42-36.08l-21.79-.09.08,37.73-25.95-.24c-1.12-35.49,1.93-82.84-.75-116.69Z"/>
  <path class="st7" d="M1400.15,1517.98c3.14,4.41,6.19,8.87,9.14,13.4-5.39,0-26.54.44-30.05-1.26,2.52-.85,18.64.32,25.05-.39l-.5-1.59c-2.02-1.22-2.11-1.45-3.76-3.18.33-3.17.28-3.9.12-6.98Z"/>
  <path class="st8" d="M1334.07,1437.24c12.47-.24,27.61-1.64,39.18,3.49,12.55,5.56,10.43,17.52,2.99,26.83-9.82,7.49-29.64,5.39-42.39,5.26-.13-11.67.13-23.87.22-35.58Z"/>
  <path class="st1" d="M1445.63,1615.49c10.11-.02,21.37-.6,31.14,2,21.89,5.9,32.75,27.94,25.3,49.14-4.55,12.93-11.98,18.15-23.67,23.59,7.4,11.7,20.42,30.94,28.73,41.77-10.43-.08-20.86-.23-31.28-.47l-7.78-12.11c-5.7-7.87-11.21-16.8-16.49-25.02-6.34.18-13.07.12-19.45.18.2,12.49.18,24.99-.04,37.48l-25.17.04c-.92-38.05-.36-77.71-.96-116.16l39.67-.44Z"/>
  <path class="st8" d="M1432.23,1637.24c14.02-.19,30.6-2.14,42.28,6.65,8.9,6.71,5.47,17.41-.64,24.63-10.75,6.92-28.61,4.74-41.81,4.51l.17-35.79Z"/>
  <path class="st4" d="M1396.93,221.52c7.34-4.11,14.76-8.08,22.25-11.91,2.15.92,2.26,2.75,3.56,5.62,1.63,4.82,3.84,10.76,5.14,15.57,3.49,9.74,7.01,19.31,9.98,29.22l10.26,25.73c-18.32,20.87-39.63,43.93-58.85,64.05-14.89-16.03-38.78-34.26-56.03-47.38,15.78-14.79,31.72-32.55,47.38-47.99-6.67-5.73-11.53-9.12-18.83-14.13,11.93-4.93,22.81-13.03,35.14-18.79Z"/>
  <path class="st3" d="M1396.93,221.52c7.34-4.11,14.76-8.08,22.25-11.91,2.15.92,2.26,2.75,3.56,5.62-4.47,4.09-8.82,8.15-13.5,12.01-4.63,4.49-24.41,24.26-28.62,27.2-6.67-5.73-11.53-9.12-18.83-14.13,11.93-4.93,22.81-13.03,35.14-18.79Z"/>
  <path class="st0" d="M1427.88,230.81c3.49,9.74,7.01,19.31,9.98,29.22-2.64-2.02-5.15-4.22-7.5-6.58-6.07-6.21-2.48-13.08-2.48-22.64Z"/>
  <path class="st1" d="M923.76,1414.83l23.27-.25c19.21,23.03,36.62,48.11,56.11,71.56-.49-23.09.12-47.9.1-71.18l24.49.07c-.47,35.13-1.34,80.84-.24,115.37l-1.74,1.16-19.34-.37c-17.38-21.9-41.74-52.53-57.42-74.95.27,24.96.34,49.92.22,74.87l-25.23.03c-.46-38.77-.53-77.54-.22-116.31Z"/>
  <path class="st1" d="M454.95,1620.64c17.33.04,62.28-2.47,75.09,5.99,32.55,21.49,22.92,64.64-15.22,74.07-9.82,1.81-24.23,1.91-34.52,2.3l.03,34.2-25.43.08c.9-37.93.18-78.58.06-116.64Z"/>
  <path class="st8" d="M479.67,1643.98c5.75-.22,11.55-.39,17.3-.5,20.63-.42,34.37,11.23,21.19,31.31-10.31,7.05-25.39,5.3-38.1,5.25-.03-12.02-.16-24.04-.39-36.06Z"/>
  <path class="st2" d="M1448.12,285.76c16.89,8.87,37,16.38,54.55,24.6l19.57,7.79c-4.28,3.98-7.21,6.9-11.16,11.19-6.98,7.27-17.14,17.23-23.53,24.62-6.36,7.34-41.52,47.84-47.23,49.87-14.05-18.85-34.74-37.2-51.05-54.01,19.22-20.13,40.53-43.18,58.85-64.05Z"/>
  <path class="st5" d="M1502.67,310.36l19.57,7.79c-4.28,3.98-7.21,6.9-11.16,11.19-.85-9.07-4.04-10.32-7.51-17.16l-.9-1.82Z"/>
  <path class="st1" d="M1143.79,1619.07l25.6.13c15.43,39.16,32.92,78.6,48.76,117.88-8.65-.16-17.59-.05-26.27-.06-4.01-8.45-7.49-17.21-11.05-25.87h-11.58l-38.25.83c-3.03,7.85-7.54,17.41-10.98,25.27-8.65-.2-17.3-.11-25.94.27,2.49-8.18,10.03-24.36,13.75-33.27,11.91-28.56,24.31-56.45,35.96-85.18Z"/>
  <path class="st8" d="M1155.52,1649.61c3.18,3.06,14.39,32.92,16.66,38.68l-15.26.5-16.25.03c3.79-11.83,10.26-27.33,14.85-39.21Z"/>
  <path class="st1" d="M1526.24,1414.96l26.92-.33c15.14,39.27,33.7,78.29,48.86,117.06-9.18.06-18.35-.13-27.51-.57-3.47-7.9-5.53-17.03-10.17-24.06-1.78-2.69-4.65-1.96-8.19-2.04-13.75.3-27.5.52-41.26.65-3.7,8.01-7.39,17.38-10.85,25.59l-26.36.28c15.42-38.17,35.57-78.51,48.56-116.58Z"/>
  <path class="st10" d="M1540.21,1444.79c3.05,5.1,12.4,31.11,15.63,38.74l-14.38.27-17.37-.21c2.42-7.42,12.25-32.8,16.12-38.8Z"/>
  <path class="st1" d="M862.76,1414.52c11.75-.26,23.51-.27,35.26-.02l.16,22.46-63.29.12c-.57,7.96-.53,16.72-.66,24.75,19.17-.01,38.33-.16,57.49-.46.13,7.64.14,14.73.97,22.32l-58.34.38c-.16,8.3-.05,16.62.33,24.92,6.1.18,12.44.17,18.57.25,15.17.14,30.58-.08,45.77-.15l.11,22.8-89.02-.37c-.97-37.68-.23-78.99-.24-116.86,17.48.2,35.38-.07,52.89-.14Z"/>
  <path class="st1" d="M667.05,1414.49c5.21.35,4.61-.58,7.25,2.24,1.76,6.03.83,13.85.76,20.32-21.01.4-42.03.4-63.04-.01l.1,24.7,55.98-.02.55,22.19c-18.5-.34-37.99.14-56.56.32l-.13,24.89h47.29s16.47,0,16.47,0c-.13,7.34.09,15.23.17,22.62l-88.92-.31-.08-116.72,80.16-.22Z"/>
  <path class="st4" d="M615.42,1073.19c14.23,17.2,31.82,34.49,47.99,50.15-11.08,9.83-23.77,24.01-34.24,34.84-6.09,6.3-19.5,20.03-24.36,26.72-13.05-7.66-54.23-25.51-68.68-30.26l33.36-32.41c14.83-16.77,31.31-32.31,45.93-49.04Z"/>
  <path class="st1" d="M642.93,1620.95l26.07-.27.15,26.57c.07,16.82,1.42,42.51-1.96,58.37-7.91,37.14-63.01,43.98-87.82,18.64-4.92-4.94-8.38-11.13-10.03-17.9-3.1-12.7-1.62-68.23-1.57-85.69l24.3.19c.64,23.85-.73,47.48.7,71.27,1.3,21.72,27.98,30.73,42.98,17.13,11.44-10.37,6.97-36.29,7.65-50.37.15-12.55-.3-25.52-.46-37.94Z"/>
  <path class="st1" d="M1077,1505.42c11.24,4.75,21.14,7.45,33.43,3.97,5.33-1.9,9.73-8.94,5.68-13.88-4.82-5.89-16.21-10.94-23.95-12.79-24.43-5.83-53.65-26.3-32.41-53.81,18.2-23.58,55.83-20.13,78.39-2.16-4.64,7.25-7.17,10.16-12.96,16.65-12.06-6.29-37.32-15.3-45.9.11-.12,2.09-.39,4.18,1.55,5.9,19.22,16.71,60.57,13.27,62.24,46.8.39,7.83-5.11,20.18-11.17,25.21-22.35,18.56-52.26,13.26-74.94-.6l-7.34-5.88c4.39-6.24,9.51-12.02,14.47-17.83,5.12,3.93,7.34,5.22,12.91,8.31Z"/>
  <path class="st7" d="M1049.62,1514.94c4.39-6.24,9.51-12.02,14.47-17.83,5.12,3.93,7.34,5.22,12.91,8.31-4.95,1.71-6.18,1.99-10.26,5.17-2.63-1.14-5.57-1.05-8.37-.4l-1.02,1.01c3.41,1,5.66,1.68,8.94,3.01.93,2.88.69,3.15.54,6.24-2.86,1.56-6.1.65-9.87.37l-7.34-5.88Z"/>
  <path class="st1" d="M1033.36,1617.39c21.56-1.25,33.85,5.94,48.78,19.95-6.06,5.82-12.73,11.94-18.19,18.25-11.29-10.34-23.17-17.26-38.98-12.03-9.14,3.01-16.64,9.65-20.73,18.36-12.19,26.07,8.05,59.36,38.4,53.06,10.32-2.14,14.65-8.76,22.34-11.77l1.57.93c5.04,3.99,10.63,9.1,15.55,13.39-37.01,39.57-101.41,22.64-107.64-32.09-1.87-16.14,2.85-32.36,13.1-44.97,12.41-15.17,26.72-21.24,45.79-23.08Z"/>
  <path class="st1" d="M760.77,1414.51l26.54-.38-.18,22.92c-20.37-.23-40.78.28-61.35,0l-.42,26.57c18.33-.04,36.66-.23,54.98-.55.12,7.74.19,15.49.19,23.23-15.26.31-30.52.43-45.78.36l-9.01.06.19,44.9-26.03-.1.19-116.85c20.08.19,40.57-.09,60.67-.16Z"/>
  <path class="st1" d="M822.47,1620.46l20.57-.1c.18,31.46.08,62.92-.31,94.38l59.1-.5c.08,5.88.57,16.72-.46,22.03l-2.13.75-80.65.19c-.45-10.13-.9-112.88.37-116.07l3.5-.68Z"/>
  <path class="st1" d="M1571.14,1614.97l26.8-.2c-.02,5.69.44,12.66.02,18.24-2.75,36.47,13.88,94.35-40.04,98.74-8.79.71-15.22-1.83-22.77-4.91-9.51-5.05-12.11-8.26-19.42-15.97,5.64-5.21,11.51-11.76,16.82-17.42,12.84,14.98,36.05,21.76,38.53-3.95,2.24-23.17.65-50.99.06-74.53Z"/>
  <path class="st1" d="M938.43,1620.46l10.72-.07c.5,38.33.03,77.83.11,116.32l-13.01.17-12.43.1c.22-37.74.79-78.65-.33-116.21l14.94-.31Z"/>
  <path class="st1" d="M1432.78,1414.8l24.74.13c1.29,35.81.02,78.77-.25,115.04-2.46,2.19-19.95,1.23-24.38,1.18-.93-37.56-.06-78.51-.11-116.35Z"/>
  <path class="st1" d="M626.06,1582.52c7.15.09,16.43,2.03,23.68,3.31-8.26,9.39-15.29,17.38-25.21,24.99-7.78,6.09-10.89,3.69-18.83.02,6.7-8.87,13.77-19.2,20.36-28.32Z"/>
  <path class="st9" d="M1296.68,1608.26c1.29.52,3.7,1.16,3.72,2.01.35,15.6,2.25,131.31.28,137.75l-2.91-1.2c-1.71-3.08-1.05-31.95-.96-37.76.55-33.5-.77-67.36-.13-100.8Z"/>
</svg>