<?xml version="1.0" encoding="UTF-8"?>
<svg id="Camada_1" xmlns="http://www.w3.org/2000/svg" version="1.1" viewBox="0 0 2048 2048">
  <!-- Generator: Adobe Illustrator 30.3.0, SVG Export Plug-In . SVG Version: 2.1.3 Build 182)  -->
  <defs>
    <style>
      .st0 {
        fill: #033077;
      }

      .st1 {
        fill: #fff;
      }

      .st2 {
        fill: #b4b6bb;
      }
    </style>
  </defs>
  <path class="st0" d="M1346.33,1007.01c19.98-2.04,39.97.82,56.5,12.98,13.8,10.28,22.95,25.63,25.43,42.67,7.99,53.3-33.99,101.48-86.08,108.52-75.01,6.83-104.78-60.47-67.28-121.54,15.1-24.58,43.49-37.69,71.43-42.63Z"/>
  <path class="st1" d="M1342.89,1045.23c62.73-7.67,55.23,72.09,2.98,87.9-64.66,3.49-52.61-76.35-2.98-87.9Z"/>
  <path class="st0" d="M967.35,1009.18c25.58-.62,51.69-.65,77.06.16,35.37,1.12,54.03,27.42,43.41,60.91-6.54,20.6-18.33,29.76-36.37,39.23,5.13,10.8,14.81,35.93,18.35,47.06,2.5,4.61,3.39,7.69,5,12.6-8.19-.04-45.93,2.3-49.05-2.76-1.46-8.42-14.01-40.34-17.54-49.59-5.46-.19-12.2.04-17.77.1-3.01,17.31-5.91,34.65-8.71,52-14.77.33-29.54.33-44.31.01,1.46-5.81,2.44-11.59,3.42-17.49,7.89-47.58,18.74-94.62,26.51-142.22Z"/>
  <path class="st1" d="M1002.74,1041.9c14.63.02,44.85-3.59,43.64,18.11-.49,8.88-4.1,12.73-10.3,18.53-13.66,7.07-23.97,5.57-39.01,5.3.45-10.83,4.48-29.01,5.67-41.94Z"/>
  <path class="st0" d="M1125.14,1008.77c27.82.27,62.25-2.4,89.43,2.14,26.73,4.46,39,33.02,31.02,57.77-7.03,21.77-16.79,29.65-36.24,40.52,7.95,19.1,18.25,40.79,24.99,59.95-15.82.31-31.63.32-47.45.03-2.06-9.06-16.18-40.23-20.32-52.99-5.69-.09-11.91.12-17.64.21-4.16,14.64-7.53,37.95-9.93,53.05-14.87-.28-29.46-.61-44.33-.28,6.06-25.86,10.97-53.99,16.11-80.24,4.79-24.49,11.62-55.65,14.36-80.16Z"/>
  <path class="st1" d="M1161.78,1041.9c14.27-.02,44.08-3.93,42.38,17.22-.75,9.2-3.94,13.27-10.67,19.01-11.67,6.61-26.02,5.46-39.22,5.46,2.22-13.84,5.27-27.63,7.51-41.69Z"/>
  <path class="st0" d="M853.28,1009.17c27.53.12,55.84-.64,83.21-.01-1.35,10.63-4.18,24.25-6.15,35.08-26.05-.31-52.11-.28-78.16.07-1.55,9.46-2.98,18.95-4.26,28.45l61.65.24c-1.77,10.92-3.82,21.05-6.06,31.85-20.12.87-41.55.56-61.76.5-1.9,9.59-3.62,19.2-5.17,28.85,4.93.06,9.87.06,14.8,0,20.76-.33,41.53-.31,62.29.08-1.17,10.28-3.86,24.03-5.61,34.47-40.51.56-81.02.58-121.53.04,7.88-52.44,22.13-106.21,29.86-159.33l36.9-.29Z"/>
  <path class="st0" d="M1903.65,1009.09c37.8-1.51,80.8.17,119.31-.19-2.73,10.32-5.11,24.59-6.78,35.06l-77.74.43c-2,9.02-3.35,19.38-5.29,28.87,18.64-.86,43.58-.35,62.62-.46-1.36,10.26-4.07,22.22-6.14,32.5-21.21.24-41.87-.41-63.26.17-.54,3.71-1.28,7.62-1.91,11.34-1.18,5.84-2.28,11.69-3.31,17.56,25.88.24,52.29-.25,78.26-.27-2.73,11.9-4.76,22.7-6.89,34.71-39.56.59-81.08-.05-120.71-.14,1.14-10.3,5.94-28.32,8.02-39.69,7.27-39.86,16.86-80.02,23.82-119.89Z"/>
  <path class="st0" d="M1470.24,1009.07c38.79.28,77.59.18,116.38-.32-1.48,12.02-3.29,23.1-5.31,35.03-25.33.52-51.21-.6-76.48.32-1.76,9.52-3.47,19.06-5.11,28.61l62.7.05c-2.87,10.91-4.23,20.81-5.87,31.91-21.04.34-42.08.46-63.12.37-.69,5.58-1.73,10.86-2.78,16.38l-1.55,12.26c25.57.07,52.8.62,78.21-.21-3.29,11.56-5.25,23.35-6.69,35.26-40.35.29-80.71.34-121.07.13,10.92-52.61,20.42-106.77,30.69-159.79Z"/>
  <path class="st0" d="M1656.99,1006.97c27.18-3.37,44.97,2.91,65.52,20.18-7.96,9.44-16.42,18.44-25.36,26.96-8.09-5.15-15.97-10.69-25.33-12.18-20.31-3.37-40.23,13.35-11.99,25.26,27.89,11.68,65.59,23.3,50.44,62.5-11.44,29.62-38.39,40.53-67.81,41.97-25.94-.62-43.61-9.61-60.65-28.94,9.61-8.72,18.7-16.58,28.29-25.59,14.44,11.64,25.59,22.95,46.68,18.35,5.74-1.25,17.04-10.61,13-17.25-8.11-13.31-29.85-15.62-42.54-23.56-22.77-13.07-30.22-35.79-16.34-58.43,11.03-17.99,26.81-24.42,46.09-29.27Z"/>
  <path class="st0" d="M687.91,1009.16l101.45.26-6.13,35.2c-24.8-.29-50.08-.01-74.92.06-.28,7.49-4.29,27.64-5.68,36,19.21.29,38.43.17,57.63-.38-1.42,8.63-4.1,26.69-6.49,34.28l-1.7.6c-15.58,1.09-39.78.33-55.99.33-1.67,14.57-6.75,39.46-9.65,53.94-14.16-.66-28.32-.29-42.5-.09,9.05-53.05,20.23-107.04,29.74-160.08l14.24-.12Z"/>
  <path class="st0" d="M1747.99,1009.15l127.74-.38c-1.38,11.18-3.99,23.71-5.56,35.48-14.65-.53-31.88-.1-46.53.46-4,28.07-10.56,60.09-15.72,88.28-2.3,11.98-4.72,23.93-7.25,35.86l-41.86.54c8.4-36.91,18.92-88.5,24.39-125.18-14.33-.27-29.3.18-43.68.42,1.59-7.88,5.41-29.6,8.47-35.48Z"/>
  <path class="st0" d="M962.03,936.87c-19.52-25.23,25.21-85.14,64.32-48.03-5.61,3.57,1.24,4.99-12.04,4.42l-1.8,1.54c-7.55-3.9-12.92-5.14-21.36-2.24-6.74,2.38-12.24,7.36-15.29,13.82-4.58,9.51-3.7,18.66,1.47,27.57.77,2.91.76,3.42,2.1,6.16-5.74-.55-12.99-.35-17.4-3.25Z"/>
  <path class="st0" d="M1012.51,894.81l1.8-1.54c13.28.56,6.43-.86,12.04-4.42,9.77,8.35,12.84,33.87,3.53,39.99-4.52,9.98-13.22,17.13-22.99,21.7l-2.24-.81.13-1.23,4.21-3.32-2.25-2.5c-2.24-.66-1.26-.21-2.99-1.24l1.13-4.25c3.34-2.21,5.84-4.81,8.74-7.55,8.53-12.18,9.06-23.82-1.11-34.82Z"/>
  <path class="st0" d="M755.31,878.18c18.79-.14,59.66-5.07,49.45,29.51-2.73,9.24-9.72,13.25-18.03,16.89,5.46,9.91,8.72,19.76,13.66,28.5-7.38-.14-13.51,1.66-17.59-4.71-3.34-8.92-9.74-28.46-23.05-20.33-2.25,5.65-3.46,18.15-4.33,24.69l-14.46-.09c4.47-19.96,8.89-57.37,14.35-74.46Z"/>
  <path class="st1" d="M773.92,891.11c21.67-.91,22.04,13.7,5.39,23.85-7.08.65-10.65.31-17.72-.23,1.65-8.7.11-14.62,4.14-21.9,3.49-2.18,3.45-1.45,8.19-1.72Z"/>
  <path class="st0" d="M901.61,878.17c18.43-.54,29.53-2.44,45.37,7.23,11.04,17.2,2.88,32.47-15.65,38.3-7.76,2.45-14.03,2.08-22.11,2.19-3.95,1.36-6.3,21.8-7.09,26.44-4.37-.16-10.13.25-14.6.45,1.24-8.2,12.03-72.17,14.09-74.61Z"/>
  <path class="st1" d="M912.73,891.68c7.59-.26,14.82-1.2,20.96,4.06,6.15,5.25.87,11.77-3.43,15.57-8.4,3.17-12.37,3-21.06,2.82.4-7.11,2.19-15.34,3.53-22.44Z"/>
  <path class="st0" d="M693.36,881.14c19.18-7.78,26.9-5.87,44.4,3.9-3.94,3.93-6.27,6.14-9.58,10.72-9.98-4.12-11.91-5.5-22.78-4.62l-1.31.1c-.26.02-.52.05-.79.07-7.2,3.81-10.06,5.49-15.41,11.99-5.26,8.65-6.21,13.18-5.58,23.5-10.26,8.4,2.16,13.45-13.88,4.69-5.72-13.79,1.75-27.89,9.57-38.87,6.04-5.82,8.09-7.76,15.35-11.49Z"/>
  <path class="st0" d="M824.02,877.86l14.28.14c-1.57,9.04-3.66,18.21-5.33,27.24-3.52,19.05-8.26,39.75,19.39,33.74l-.16,3.69c3.26,3.28,3.52,3.82,7.42,6.24-15.05,8.38-28.54,6.15-40.64-5.96-.81-2.4-2.94-8.7-2.95-10.89-.05-14.88,4.56-39.95,7.98-54.2Z"/>
  <path class="st0" d="M682.31,926.8c4.44,9.08,16.02,17.39,27.04,14.29,7.88-2.21,4.18-15.93,8.02-21.86,20.13-9.5,11.33,18.61,9.48,26.94-11.34,6.43-23.61,9.86-36.64,6.04-8.45-2.42-15.55-8.18-19.66-15.95-.8-1.52-1.48-3.17-2.12-4.77,16.04,8.76,3.62,3.7,13.88-4.69Z"/>
  <path class="st0" d="M869.89,878.08c4.71-.2,9.11-.85,13.46.69,1.73,5.77-7.56,49.48-11.57,57.66-2.33,4.75-7.74,9.3-12.16,12.49-3.9-2.42-4.16-2.96-7.42-6.24l.16-3.69c14.74-15.08,14.05-41.06,17.53-60.91Z"/>
  <path class="st0" d="M977.33,933.96c10.16,7.81,15.82,8.35,27.55,3.23l-1.13,4.25c1.73,1.03.75.58,2.99,1.24l2.25,2.5-4.21,3.32-.13,1.23,2.24.81c-14.19,6.35-38.73,2.49-44.86-13.66,4.41,2.9,11.66,2.7,17.4,3.25-1.34-2.74-1.32-3.25-2.1-6.16Z"/>
  <path class="st0" d="M147.54,1168.75c5.71-.19,15.42-.66,19.38-5.31,11.27-13.66,16.66-32.09,22.97-48.55,18.85-49.13,38.67-97.91,58.72-146.58,11.48-27.85,21.45-56.33,33.88-83.82,18.56-41.06,66.52-33.16,103.79-33.1l84.97.17c-46.91-51.59-114.57-83.98-189.79-83.98-141.62,0-256.43,114.81-256.43,256.43,0,53.35,16.3,102.88,44.17,143.92,9.48.23,17.95.66,21.86.7,18.83-.35,37.68.25,56.47.13Z"/>
  <path class="st2" d="M428.49,879.51c-12.99,0-27.67-1.33-40.41.94-5.51.98-10.45,3.1-14.39,7.17-10.92,11.27-41.71,95.11-51.18,115.15,29.81-.53,65.37-1.47,94.91-.16,4.71,4.5,7.6,7.76,7.59,14.54,0,13.57-11.46,14.08-21.37,14.24-30.84.51-62.09-.67-92.83.34-12.36,31.22-24.92,62.35-37.68,93.4-7.56,18.51-19.54,59.5-38.6,66.99-30.75,12.1-84.46-1.92-114.85,4.97-6.14-.93-16.38-.79-27.87-.51,46.9,51.51,114.5,83.84,189.66,83.84,141.62,0,256.43-114.81,256.43-256.43,0-53.56-16.43-103.28-44.52-144.42-21.63.18-43.28-.06-64.89-.07Z"/>
</svg>