<?xml version="1.0" encoding="UTF-8"?>
<svg id="Camada_1" xmlns="http://www.w3.org/2000/svg" xmlns:xlink="http://www.w3.org/1999/xlink" version="1.1" viewBox="0 0 2048 2048">
  <!-- Generator: Adobe Illustrator 30.3.0, SVG Export Plug-In . SVG Version: 2.1.3 Build 182)  -->
  <defs>
    <style>
      .st0 {
        fill: #f5ea4f;
      }

      .st1 {
        stroke: #273239;
        stroke-miterlimit: 10;
        stroke-width: 7px;
      }

      .st1, .st2 {
        fill: #fff;
      }

      .st3 {
        fill: #e58948;
      }

      .st4 {
        fill: #0e92cd;
      }

      .st5 {
        fill: url(#Gradiente_sem_nome_11);
      }

      .st6 {
        fill: url(#Gradiente_sem_nome_10);
      }

      .st7 {
        fill: #3d2928;
      }

      .st8 {
        fill: url(#Gradiente_sem_nome_4);
      }

      .st9 {
        fill: url(#Gradiente_sem_nome_2);
      }

      .st10 {
        fill: url(#Gradiente_sem_nome_6);
      }

      .st11 {
        fill: url(#Gradiente_sem_nome_5);
      }

      .st12 {
        fill: url(#Gradiente_sem_nome_9);
      }

      .st13 {
        fill: #e7863d;
      }

      .st14 {
        fill: #3c8d4b;
      }

      .st15 {
        fill: #4a2b29;
      }

      .st16 {
        fill: #273239;
      }

      .st17 {
        fill: #030301;
      }

      .st18 {
        fill: #53514e;
      }

      .st19 {
        fill: #453433;
      }

      .st20 {
        fill: #a24145;
      }

      .st21 {
        fill: #f18634;
      }

      .st22 {
        fill: #2083b4;
      }

      .st23 {
        fill: #e13537;
      }

      .st24 {
        fill: #333024;
      }

      .st25 {
        fill: #293b46;
      }

      .st26 {
        fill: #f9ee1e;
      }

      .st27 {
        fill: #b24949;
      }
    </style>
    <linearGradient id="Gradiente_sem_nome_11" data-name="Gradiente sem nome 11" x1="1289.68" y1="2453.1" x2="1266.51" y2="-781.55" gradientTransform="translate(387 1411) scale(.5 -.5)" gradientUnits="userSpaceOnUse">
      <stop offset="0" stop-color="#3b320e"/>
      <stop offset="1" stop-color="#412a2e"/>
    </linearGradient>
    <linearGradient id="Gradiente_sem_nome_2" data-name="Gradiente sem nome 2" x1="1495.82" y1="618.99" x2="1326.55" y2="600.64" gradientTransform="translate(387 1411) scale(.5 -.5)" gradientUnits="userSpaceOnUse">
      <stop offset="0" stop-color="#f33431"/>
      <stop offset="1" stop-color="#c13c45"/>
    </linearGradient>
    <linearGradient id="Gradiente_sem_nome_10" data-name="Gradiente sem nome 10" x1="1545.1" y1="586.63" x2="1372.52" y2="579.56" gradientTransform="translate(387 1411) scale(.5 -.5)" gradientUnits="userSpaceOnUse">
      <stop offset="0" stop-color="#eb3534"/>
      <stop offset="1" stop-color="#bb4149"/>
    </linearGradient>
    <linearGradient id="Gradiente_sem_nome_4" data-name="Gradiente sem nome 4" x1="951.61" y1="431.52" x2="1043.14" y2="467.45" gradientTransform="translate(387 1411) scale(.5 -.5)" gradientUnits="userSpaceOnUse">
      <stop offset="0" stop-color="#e42d34"/>
      <stop offset="1" stop-color="#b84948"/>
    </linearGradient>
    <linearGradient id="Gradiente_sem_nome_5" data-name="Gradiente sem nome 5" x1="1620.84" y1="428.25" x2="1528.1" y2="466.74" gradientTransform="translate(387 1411) scale(.5 -.5)" gradientUnits="userSpaceOnUse">
      <stop offset="0" stop-color="#e33031"/>
      <stop offset="1" stop-color="#be464d"/>
    </linearGradient>
    <linearGradient id="Gradiente_sem_nome_6" data-name="Gradiente sem nome 6" x1="861.41" y1="345.75" x2="881.84" y2="416.93" gradientTransform="translate(387 1411) scale(.5 -.5)" gradientUnits="userSpaceOnUse">
      <stop offset="0" stop-color="#f18337"/>
      <stop offset="1" stop-color="#d5945a"/>
    </linearGradient>
    <linearGradient id="Gradiente_sem_nome_9" data-name="Gradiente sem nome 9" x1="1492.15" y1="268.27" x2="1499.8" y2="245.46" gradientTransform="translate(387 1411) scale(.5 -.5)" gradientUnits="userSpaceOnUse">
      <stop offset="0" stop-color="#552c2b"/>
      <stop offset="1" stop-color="#403736"/>
    </linearGradient>
  </defs>
  <path class="st5" d="M1004.18,414.01c3.6-65.42,15.07-132.26,23.28-197.24.93-7.37,3.44-29.96,9.18-33.94l1.7.66c7.08,8.87,15.8,108.9,17.58,126.46,3.15,31.19,7.63,72.32,8.4,103.61,13.55-11.48,18.39-15.3,35.3-22.01,4.46,12.75,8.2,29.22,11.26,42.34,15.65-18.61,27.77-25.14,50.99-32.16,1.72,13.36,2.72,28,3.89,41.51,19.39-16.08,24.27-16.37,48.63-15.57,2.48,12.89,4.23,26.92,5.78,39.93,17.23-13.19,26.93-17.64,47.86-23.94,1.11,17.22,2.09,30.56,1.12,47.81,13.56-10.94,23.05-14.62,39.39-19.81,3.53,18.53,4.52,37.46,2.97,56.26,18.56-11.21,25.09-11.86,46.74-11.69,1.16,14.31-.58,30.34-2.63,44.55,16.14-6.65,30.28-9.43,47.67-10.27.36,20.59-1.39,34.13-7.54,53.58,1.91-.91,3.87-1.71,5.87-2.42,18.36-6.46,36.8-3.58,54.03,4.66-7.75,14.94-13.64,28.72-22.19,44.45,20.62-4.28,33.89-4.4,53.58,3.58-6.57,16.77-12.72,29.98-22.43,45.12,17.09-1.31,28.97-1.16,45.53,4.32-5.65,20.85-13.24,35.44-24.38,53.5,8.83-.1,36.56,1.34,40.32,10.67-1.12,9.46-22.65,35.53-29.85,44.14,46.24,4.71,41.93,25.54,13.31,52.32,16.24,2.46,25.6,5.64,37.54,17.2-11.59,16.97-22.06,26.12-38.74,37.86,15.18,6.68,23.07,14.66,29.25,29.94-7.5,8.78-20.04,16.76-29.74,23.29,13.45,10.82,15.04,15.12,19.32,31.5-6.73,5.38-21.47,11.54-29.74,15.35,13.25,9.54,16.59,16.42,18.2,32.27-9.19,9.62-29.22,19.32-41.1,24.66,12.74,10.66,14.5,20.86,16.47,36.4-12.44,5.86-25.72,8.85-39.31,10.4,11.52,13.66,11.45,17.96,11.51,35.33-10.62,2.82-21.59,4.42-32.43,6.17,8.2,11.72,7.31,17.69,6.95,31.53-12.74,3.12-23.47,4.6-36.31,6.01,5.57,13.28,4.86,18.5.41,31.92-9.69,1.6-22.27,1.7-32.2,1.74,1.18,14.39-1.06,19.49-7.23,32.2-7.39-.98-16.66-3.24-24.09-4.84.06,11.54-2.09,16.81-6.83,26.79-5.56-1.1-10.72-2.55-16.18-4.02.92,6.49,3.77,16.59-1.3,21.54-6.14,2.45-26.19-4.18-33.79-6.13l-1.22,1.66c11.77,5.59,24.17,11.18,36.84,14.32,56.19,13.94,111.91,4.61,165.49-14.4,13.91-4.89,27.59-10.43,40.97-16.64,7.23-3.36,24.81-14.37,31.75-11.16,8.41,13.55-46.65,47.17-56.73,52.99-54.52,31.15-118.46,41.52-180.03,29.18,47.07,39.77,115.21,66.01,174.78,77.02,6.8,1.25,14.59,3.01,15.6,10.82-3.82,9.05-23.14,7.13-31.9,7.15-51.09.44-101.65-10.36-148.09-31.66-16.14-7.53-25.35-13.18-40.03-22.78,9.59,15.09,18.96,29.79,26.63,46.01,25.97,54.83,37.09,117.74,31.29,178.15-5.8,60.53-26.91,117.57-53.09,171.99-2.11,4.39-3.67,7.29-7.22,10.77l-1.82.57c-1.24-.98-3.56-2.51-3.28-4.51,9.43-67.03,24.69-132.12,23.38-200.41-2.17-112.53-45.68-200.6-141.59-262.14-2.34,14.94-8.27,21.21-19.67,30.6-16.16,13.33-64.58,26.59-84.23,24.61l-6.68,1.9c8.69,2.2,17.99,7.05,22.25,15.17,8.71,16.58.31,27.77-12.11,37.58.3,21.73.33,43.46.08,65.19-17.65-.22-35.31-.29-52.96-.23l.34-1.31c5.32-19.68,12.35-24.34,11.57-46.54-25.28-.26-34.16-8.19-42.29-31.76,5.76-14.5,14.58-24.18,28.59-31.27l.24-6.98c-35.57-2.37-95.25-8.39-111.15-47.37-1.22-3-1.88-9.18-2.31-12.61-153.45,87.38-167.96,244.89-142.82,403.51,1.76,11.12,12.29,56.04,9.2,62.59l-1.87.62c-6.85-2.76-12.3-16.96-15.54-23.54-17.77-36.18-30.65-74.1-38.57-113.62-15.25-74.53-5.47-152,27.81-220.41,8.29-16.7,16.39-29.04,26.67-44.46-37.38,23.42-75.46,40.03-119.14,47.23-13.93,2.29-99.28,12.27-99.31-4.86,4.26-8.15,26.99-10.36,36.13-12.43,11.41-2.53,22.68-5.67,33.76-9.39,43.71-14.32,86.78-34.08,122.44-63.58-48.23,9.75-98.23,5.78-144.31-11.47-27.59-10.33-74.76-36.99-94.34-63.22-1.13-1.51-.61-4.38.1-6.16,7.15-3.96,29.82,9.3,37.96,12.81,20.04,8.63,40.6,15.98,61.56,22.04,55.63,15.76,125.63,20.41,177.57-8.69-8.68,1.44-16.74,2.82-25.52,3.65-.29-8.03.26-15.05.78-23.03-2.52.92-7.62,2.91-10.08,3.21-12.1,1.48-10.89-18.78-11.14-25.66-7.44,1.76-16.43,2.97-24.08,4.2-4.85-12.96-7.03-18.4-6.5-32.36-10.29,0-22.16-.46-32.31-2.14-3.29-12.12-3.27-20.66,1.98-31.95-26.76-1.7-50.26-4.45-28.8-36.85-11.12-2.21-20.35-4.24-31.3-7.15.52-16.13.68-21.47,10.88-34.47-12.59-1.76-25.82-5.58-37.68-10.13,1.23-16.58,4.99-25.41,15.93-37.66-30.13-11.69-57.18-28.8-20.38-56.26-6.92-3.23-21.71-9.31-25.91-15.16-8.02-11.17,7.84-25.72,16.2-32.05-10.45-6.99-20.69-14.44-28.83-24.06,6.41-15.82,14.37-22.14,29.4-28.64-14.52-10.35-28.68-24.03-38.04-39.3,11.7-10.62,21.45-12.99,36.55-15.4-29.18-29.41-31.5-46.82,14.21-53.23-9.38-11.03-24.34-31.59-30.43-44.47,14.72-9.31,24.52-9.76,41.66-9.74-12.43-20.03-16.54-31.41-24.11-53.38,14.7-5.11,30.53-5.59,45.72-2.83-8.74-14.84-16.22-30.39-22.37-46.48,20.44-6.88,32.26-7.82,53.17-2.88-8.14-16.26-14.38-27.02-21.28-44.4,22.62-9.59,35.99-10.28,58.85-2.46-5.84-20.55-6.9-32.75-7.18-54.25,19.53,2.84,28.6,4.83,47.17,11.11-2.5-17.05-2.95-28.1-3.1-45.12,19.87-.64,31.16,1.18,47.2,13.01-1.18-18.53-.62-38.98,4.06-56.98,17.06,6.37,23.4,9.2,37.71,20.29-.43-17.06.62-30.86,1.82-47.89,20.06,6.39,30.43,11.65,46.67,24.74,1.75-13.93,3.94-27.6,5.4-41.59,23.48-1,31.79,1.87,49.21,17.63.28-13.78,1.05-28.26,1.76-42.05,22.18,4.9,36.53,16.96,51.39,32.94,3.52-14.28,6.91-28.6,10.16-42.95,15.19,5.74,23.35,12.37,34.38,23.83Z"/>
  <path class="st2" d="M1007.09,1395.4l18.07.45c-7.21,2.15-11.38,3.62-18.3,6.53l.24-6.98Z"/>
  <path class="st18" d="M1279,1303.18c-2.74-.94-15.64-7.28-17.37-9.65l1.23-.54c5.45,1.01,12.54,5.42,17.36,8.53l-1.22,1.66Z"/>
  <path class="st18" d="M1051.38,1395.57c-2.31.22-4.21.23-6.21-.73,5.14-1.64,7.61-1.31,12.89-1.17l-6.68,1.9Z"/>
  <path class="st4" d="M1056.12,402.23c1.13,1.98,3.35,49.06,3.68,55.61,9.82,168.98,4.79,338.49-15.02,506.59-4.28-7.82-8.48-15.69-12.6-23.6-4.37,6.23-8.69,12.5-12.97,18.8-1.99-2.52-5.12-46.79-5.67-53.16-15.39-167.41-15.94-335.86-1.62-503.37,8.22,4.34,14.91,9.71,23.72,14.06,7.42-5.05,11.93-9.59,20.48-14.94Z"/>
  <path class="st23" d="M870.75,1304.04c9.76,7.42,16.59,6.49,25.79,12.04-.21,2.34-2.25,4.8-4.15,6.08-19.41,13.08-37.77,24.63-55.72,40-14.9,12.92-28.41,27.35-40.31,43.07-58.65,76.72-69.45,180.07-61.29,273.32,2.51,28.75,7.13,55.65,10.87,83.92-10.78-13.02-31.03-84.98-34.55-103.08-10.18-53-7.61-107.66,7.51-159.46,19.03-63.4,55.08-115.54,102.66-161.1,17.43-16.68,28.23-23.43,49.19-34.8Z"/>
  <path class="st23" d="M1186.51,1305.66l.82.67c5.28,4.21,11.17,7.23,16.26,11.29,139.72,111.06,172.39,291.02,91.29,447.83,22.91-116.75,33.02-244.38-35.82-349.61-17.64-26.97-52.74-63.14-80.78-79.66-5.06.37-12.32-.69-16.11-4.54-4.7-4.78-2.95-9.25-2.67-15.5,11.46-5.17,14.16-2.08,27-10.48Z"/>
  <path class="st15" d="M1178.3,1336.18c-5.06.37-12.32-.69-16.11-4.54-4.7-4.78-2.95-9.25-2.67-15.5,1.84,11.9,10.08,13.07,18.78,20.04Z"/>
  <path class="st26" d="M1093.98,403.06l2.78,7.58c25.2,85.86,25.06,188.93,4.04,275.53-3.22,13.27-8.03,33.34-12.93,45.91-7.27,3.09-11.6,5.31-18.42,9.42.56-18.41,1.86-36.78,2.43-55.16,2.56-82.45-.53-165.18-5.28-247.5-.38-4.57-.43-9.83-.59-14.48,6.97-9.7,17.18-16.54,27.97-21.3Z"/>
  <path class="st0" d="M1093.98,403.06l2.78,7.58c-3.3-.07-3.63.1-6.8-1.07-8.83,5.59-10.69,10-17.83,15.66-1.18,7.28-1.89,7.55-5.53,13.6-.38-4.57-.43-9.83-.59-14.48,6.97-9.7,17.18-16.54,27.97-21.3Z"/>
  <path class="st2" d="M939.36,1310.33l2.34.22c3.79,5.4,13.31,12.36,19.21,15.18,32.73,15.58,126.47,17.27,149.37-13.93,11.66,5.26,34.2,15.45,44.59,21.58-.44,1.52-.92,3.03-1.42,4.53-4.96,14.83-16.34,22.48-29.55,29.07-52.7,23.35-157.64,27.22-207.85-8.76-10.2-7.31-13.38-18.4-14.36-30.32,9.71-7.03,26.38-13.38,37.67-17.56Z"/>
  <path class="st26" d="M1202.19,435.42c4.27.22,2.67-.62,5.29,1.91,1.17,3.33,1.41,5.13,2.04,8.64,11.76,78.4-9.1,165.3-39.11,237.45-7.92,19.05-20.91,48.69-31.2,66.45-10.98,1.59-16.65,4.63-25.77,10.35,21.38-45.81,40.98-120.82,47.64-170.58,2.75-19.8,4.53-39.73,5.33-59.71.98-23.26-.07-46.53-.42-69.77-.04-2.15.66-3.89,1.79-5.69,9.9-12.05,18.95-17.12,34.4-19.05Z"/>
  <path class="st0" d="M1167.78,454.47c9.9-12.05,18.95-17.12,34.4-19.05-1.98,1.55-4.16,3.11-5.86,4.95-13.54,4.24-20.99,14.28-28.55,14.11Z"/>
  <path class="st26" d="M864.85,432.99c20.14-.75,32.12,8.5,41.89,25.22-5.31,76.47,3.07,153.28,24.73,226.81,4.46,15.41,9.21,30.73,14.25,45.96,2.3,6.77,8.6,20.77,9.14,26.77l-1.55.08c-8.51-5.25-12.68-7.57-22.38-9.76-1.11-1.94-2.19-3.9-3.22-5.88-7.46-14.27-14.36-31.76-20.74-46.7-29.06-68.06-50.18-143.95-47.53-218.51.41-11.67,2.01-33.22,5.4-43.98Z"/>
  <path class="st26" d="M1221.16,479.05c11.39-12.2,24.4-18.45,39.72-24.39.94,35.18-.82,79.46-11.22,113.38-3.83,22.07-15.44,57.42-23.51,78.14-8.07,30.69-44.99,104.13-61.09,134.69-1.11,2.11-11.87,9.04-14.78,11.01.37-14.85,1.41-27-4.95-40.7,49.02-104.23,70.64-155.25,75.83-272.12Z"/>
  <path class="st0" d="M1226.14,646.18c-2.2-6.18,17.21-65,19.99-75.46.54-2.03,1.89-2.17,3.53-2.68-3.83,22.07-15.44,57.42-23.51,78.14Z"/>
  <path class="st26" d="M811.71,458.76l.89-3.98c9.2-3.04,36.64,17.41,39.42,26.52-1.72,9.39.03,30.57.94,40.95,5.03,56.9,20.65,111.59,41.9,164.42,8.57,21.31,19,41.45,27.64,61.94-6.14,16.49-6.58,23.4-7.13,41.21-3.58-2.51-11.46-7.74-13.39-11.44-27.32-52.2-50.92-107.66-68.05-164.09-3.22-10.85-6.18-21.77-8.88-32.76-.69-2.7-3.39-14.35-4.35-16.3-2.1-11.77-4.12-23.56-6.04-35.37-2.38-29.11-3.85-41.17-2.96-71.11Z"/>
  <path class="st0" d="M811.71,458.76l.89-3.98c9.2-3.04,36.64,17.41,39.42,26.52-1.66-.04-4.09-.06-5.4-1.23-10.51-9.38-20.49-18.68-34.91-21.31Z"/>
  <path class="st26" d="M1426.28,662.09c18.61-6.64,29.6-8.1,48.8-3.48l-3.46,8c-14.13,29.86-33.4,56.56-54.41,81.97-2.11,2.55-11.55,13.53-13.76,15.38-22.71,27.03-53.91,54.96-80.57,78.16-4.79,4.16-17.45,15.11-22.49,18.35-2.12,2.75-28.29,22.67-32.67,26.02-7.62.08-14.09.48-21.6,1.54l5.45-21.87c32.77-30.36,55.79-52.79,86.46-85.78,3.2-4.1,7.38-8.79,10.93-12.71,30.1-33.17,54.09-67.4,77.33-105.59Z"/>
  <path class="st0" d="M1426.28,662.09c18.61-6.64,29.6-8.1,48.8-3.48l-3.46,8c-.27-.25-.53-.5-.8-.75l-1.2-1.09c-2.94-2.72-2.68-2.91-6.63-3.55-39.35-.31-34.86,9.27-55.46,38.12-19.75,27.66-41.14,56.31-65.41,80.09-.53.52-3.33.85-4.1.95,3.2-4.1,7.38-8.79,10.93-12.71,30.1-33.17,54.09-67.4,77.33-105.59Z"/>
  <path class="st0" d="M1463,661.23c3.94.64,3.69.83,6.63,3.55l1.2,1.09c.26.25.53.5.8.75-14.13,29.86-33.4,56.56-54.41,81.97-2.11,2.55-11.55,13.53-13.76,15.38-1.66.27-4,.91-5.69,1.31,11.74-14.81,76.11-87.26,65.24-104.05Z"/>
  <path class="st0" d="M1397.76,765.28c1.7-.4,4.03-1.04,5.69-1.31-22.71,27.03-53.91,54.96-80.57,78.16-4.79,4.16-17.45,15.11-22.49,18.35,1.11-4.54,15.71-14.53,20.01-18.95,24.3-25.03,55.19-49.58,77.36-76.25Z"/>
  <path class="st26" d="M976.04,401.82c10.96,6.09,19.41,12.5,26.02,23.2-.16,4.91-.44,7.75-1.1,12.59-1.17,35.63-3.79,72-5.16,107.9-1.19,39.73-1.5,79.47-.94,119.21.31,26.32.43,53.98,2.18,80.15-17.08-15.08-15.38-15.19-21.04-37.05-10.51-39.94-17.2-80.79-19.99-122-.85-13.49-1.62-33.03-.52-46.38-.98-38.56,9.94-100.8,20.55-137.63Z"/>
  <path class="st23" d="M1030.45,956.69c2.06,2.26,11.98,24.59,13.17,28.31,20.73,64.91,14.93,143.23.79,209.06-2.38,11.1-4.48,23.64-8.59,34.14-.92,2.36-1.52,1.92-3.94,2.64-3.95.04-8.52,1.11-9.6-3.51-16.17-69.25-27.25-144.35-13.59-214.94,4.05-20.94,12.14-37.1,21.77-55.7Z"/>
  <path class="st26" d="M598.68,655.57c8.59-2.01,16.3-2.96,25.09-1.82,7.32.97,20.14,2.89,24.98,8.51,35.39,59.51,67,99.22,114.03,149.38,9.29,9.98,18.83,19.71,28.61,29.2,19.81,19.14,22.77,16.94,28.8,44.85-8.12-1.19-14.89-.91-21.57-1.81-16.48-12.16-42.61-35.31-57.76-49.32-54.92-50.76-104.9-101.68-137.81-169.49l-4.38-9.51Z"/>
  <path class="st0" d="M645.12,665.07l3.63-2.81c35.39,59.51,67,99.22,114.03,149.38,9.29,9.98,18.83,19.71,28.61,29.2,19.81,19.14,22.77,16.94,28.8,44.85-8.12-1.19-14.89-.91-21.57-1.81,5.06-3.32,10.85-.89,12.98-8.18-.54-2.56-.58-2.92-2.37-4.84l2.32.06c1.57,2.11,1.84,5.51,2.35,8.24,2.35-.83,1.61-.05,2.62-2.01-.92-3.62-2.52-12.23-5.62-13.67-.72,1.03-1.41,2.08-2.08,3.14-22.26-26.69-52.45-54.41-75.52-81.19-22.01-25.36-42.67-51.86-61.91-79.39-9.11-13.27-17-27.65-26.3-40.96Z"/>
  <path class="st0" d="M598.68,655.57c8.59-2.01,16.3-2.96,25.09-1.82l-.32,2.56,1.92,1.54c-10.76-1.2-15.8-2.91-22.31,7.22l-4.38-9.51Z"/>
  <path class="st0" d="M623.77,653.75c7.32.97,20.14,2.89,24.98,8.51l-3.63,2.81c-5.86-3.71-13.03-5.75-19.75-7.22l-1.92-1.54.32-2.56Z"/>
  <path class="st26" d="M1353.45,571.2c14.22-7.12,26.2-10.24,41.88-11.76l-1.57,14.07c-.69,4.26-1.45,10.08-2.58,14.11-15.25,62.99-63.36,127.11-103.1,177.12-7.27,9.14-19.19,23.78-26.88,31.98-5.77,8.58-34.76,38.97-43.51,48.3-1.31-11.59-2.67-15.98-6.44-27.2,13.24-16.25,25.07-33.02,37.6-49.77,28.5-39.97,57.23-82.92,78.88-126.95,8.4-17.1,14.16-33.82,20.76-51.62,1.6-6.11,3.25-12.2,4.95-18.28Z"/>
  <path class="st0" d="M1261.21,796.72c-.46-.45-1.85-2.14-1.7-2.5,1.9-4.83,17.4-22.32,19.66-24.83,14.35-15.96,25.9-31.38,37.88-49.01,30.75-40.18,55.95-84.06,69.3-133.19.53-1.97.14-1.78,1.08-3.75-.24,2.87-.21,5.54-.22,8.41,2.47-1.86,1.79-2.14,2.72-6.09l1.25,1.86c-15.25,62.99-63.36,127.11-103.1,177.12-7.27,9.14-19.19,23.78-26.88,31.98Z"/>
  <path class="st0" d="M1353.45,571.2c14.22-7.12,26.2-10.24,41.88-11.76l-1.57,14.07c-1.12-4.27-.54-5.02-3.22-7.51-8.36-1.39-30.87,5.77-36.02,12.99-8.03,34.67-25.01,68.87-42.92,99.63-7.38,12.67-15.83,23.81-22.34,37.2l-.72.37-.02-2.93c-5.36,7.76-34.41,53.65-39.06,54.77-.19.05-.4.02-.61.03,28.5-39.97,57.23-82.92,78.88-126.95,8.4-17.1,14.16-33.82,20.76-51.62,1.6-6.11,3.25-12.2,4.95-18.28Z"/>
  <path class="st26" d="M1464.69,709.17c11.43-2.82,16.44-2.75,28.05-1.6l4.41,1.13c2.34,4.82-2.02,11.02-4.3,15.72l-.67.8c-2.59,7.57-10.65,23.23-15.71,29.51-42.27,69.97-134.95,122.69-203.01,162.45,1.45-8.36,1.11-13.79,1.14-22.24l-.64-2.44c1.68-3.85,19.21-16.94,23.53-20.35,10.24-8.9,20.68-17.58,31.3-26.02,4.08-5.01,19.83-17.38,25.37-22.41,14.7-13.57,28.99-27.58,42.85-42.02,11.66-12.43,22.32-24.01,33.3-36.99,5.92-7,21.31-28.71,26.94-33.3,1.9-.26,5.45-1.58,7.44-2.24Z"/>
  <path class="st0" d="M1481.94,739.78c-2.21,5.66-4.63,8.77-5.48,14.95-42.27,69.97-134.95,122.69-203.01,162.45,1.45-8.36,1.11-13.79,1.14-22.24,3.26,5.39-.24,9.68,3.15,13.07,26.19-.97,144.7-91.71,165.63-118.08,10.15-12.79,26.48-36.54,37.63-49.11l.93-1.04Z"/>
  <path class="st0" d="M1397.01,781.7c11.66-12.43,22.32-24.01,33.3-36.99,5.92-7,21.31-28.71,26.94-33.3l2.95,4.04-5.01,5.15c-1.89-.31-1.02.09-2.56-1.36-8.98,10.47-17.14,22.13-26.36,32.93-8.03,9.41-20.57,21.57-27.53,31.01-1.52-1.16-1.02-.59-1.72-1.49Z"/>
  <path class="st0" d="M1328.79,846.13c-.2,4.73-2.39,6.49-6.44,9.85-5.46,4.53-17.06,16.53-24.16,16.21l-.71-.04c10.24-8.9,20.68-17.58,31.3-26.02Z"/>
  <path class="st0" d="M1464.69,709.17c6.17-.29,9.82-1.34,14.88,1.91-5.71,1.08-14.17,2.44-19.37,4.38l-2.95-4.04c1.9-.26,5.45-1.58,7.44-2.24Z"/>
  <path class="st0" d="M1492.74,707.58l4.41,1.13c2.34,4.82-2.02,11.02-4.3,15.72-.47-6.8-.53-10.07-.11-16.86Z"/>
  <path class="st26" d="M679.3,567.04c-.32-3.07-.85-5.62-.12-8.58,2.37-1.76,2.2-1.08,6.1-.82,12.34,2.25,22.82,5.23,34.26,10.6,8.1,30.26,14.46,50.78,28.48,79.4,4.86,9.91,19.81,34.86,22.98,42.88,25.87,43.48,55.16,84.71,84.17,126.15-1.27,2.72-2.84,6.86-4.74,8.92-.6,6.41-1.08,13.14-.92,19.57l-13.14-15.64c-13.37-14.92-27.63-32.89-40.34-48.36-19.85-24.15-39.58-49.34-56.7-75.48-5.38-7.4-13.11-20.19-17.46-28.07-3.52-5.79-6.91-12.08-10.23-18.02-2.17-4.08-4.65-8.26-6.02-12.63-10.31-15.19-21.38-51.6-25.01-69.54l-1.3-10.36Z"/>
  <path class="st0" d="M705.61,646.94c-.69-5.31-2.4-8.81-4.46-13.66l.71-.03-.37-.55c5.63,6.5,11.76,18.31,13.84,26.59l-.6,1.48c-1.5-.47-1.73-.47-3.11-1.2-2.17-4.08-4.65-8.26-6.02-12.63Z"/>
  <path class="st0" d="M836.36,829.51c6.64-.19,6.67-.82,11.56,2.28.54-4.59-.28-3.22,2.5-6.21-.6,6.41-1.08,13.14-.92,19.57l-13.14-15.64Z"/>
  <path class="st0" d="M679.3,567.04c-.32-3.07-.85-5.62-.12-8.58,2.37-1.76,2.2-1.08,6.1-.82-.5,3.81-1.38,8.76-5.98,9.41Z"/>
  <path class="st26" d="M574.58,705.43c13.71-1.94,32.44-2.98,44.21,5.64,10.08,12.48,19.16,26,29.48,38.18,23.76,28.08,49.63,54.24,76.29,79.54,13.15,12.41,26.53,24.58,40.14,36.48,8.29,7.17,20.3,16.83,27.86,24.26-2.58,8.66-1.46,15.28-.76,24.28-4.93-2.82-16.12-8.85-20.24-11.95-2.94-.99-23.4-13.84-26.62-15.87-44.54-28.17-89.4-60.9-123.77-101.24-4.47-5.25-12.76-15.43-16.01-21.14-9.25-11.13-20.8-33.73-26.38-47.56-1.66-3.02-2.99-7.29-4.2-10.63Z"/>
  <path class="st0" d="M574.58,705.43c13.71-1.94,32.44-2.98,44.21,5.64l-.77,6.38c-6.18-7.05-17.64-10.54-26.73-11.29-13.72-1.12-7.23,9.57-5.22,16.72-3.11-1.5-3.15-3.82-7.29-6.82-1.66-3.02-2.99-7.29-4.2-10.63Z"/>
  <path class="st26" d="M1392.61,614.52c20.08-9.23,29.56-10.72,50.96-4.84-1.16,2.47-2.33,4.93-3.53,7.38-4.7,11.48-14.42,28.9-21.38,39.61-31.36,55.63-93.11,128.56-140.07,172.94-4.4,5.5-23.2,21.93-28.83,26.62-11.28-2.21-18.31-1.41-29.44.41,3.9-4.64,8.44-9.3,12.61-13.73,25.22-26.82,47.98-55.33,71.12-83.92,24.29-31.21,48.46-64.48,67.53-99.25,7.64-13.94,14.66-30.53,21.05-45.2Z"/>
  <path class="st0" d="M1278.58,829.61c.11-.75.23-1.5.34-2.25,11.61-11.48,25.25-27.89,35.93-39.52,28.15-31.23,54.51-64.02,78.95-98.23,6.77-9.66,13.24-17.83,18.09-28.6.72,1.2.26.74,1.31,1.45,1.61-2.94,2.37-4.64,4.67-7.14l.79,1.38c-31.36,55.63-93.11,128.56-140.07,172.94Z"/>
  <path class="st0" d="M1392.61,614.52c20.08-9.23,29.56-10.72,50.96-4.84-1.16,2.47-2.33,4.93-3.53,7.38l-.82-1.59,1.47-4.35c-11.82-4.88-27.14-3.77-38.92.97-3.72,1.5-6.39,2.76-7.86,6.56-3.18,8.2-5.48,16.76-9.41,24.67-9.75,19.61-62.74,107.84-78.83,115.27-.51.24-1.1.26-1.64.39,24.29-31.21,48.46-64.48,67.53-99.25,7.64-13.94,14.66-30.53,21.05-45.2Z"/>
  <path class="st26" d="M630.82,607.4c20.17-6.23,29.85-4.02,48.97,3.86,5.22,10.14,16.85,36.4,21.42,47.67l1.16,2.37c6.98,11.85,13.85,23.62,21.05,35.35,21.29,34.68,46.98,65.48,71.85,97.48,12.61,15.6,25.48,30.98,38.62,46.14l12.47,14.79c-4.01-.84-8.38-1.86-12.37-2.58-5.31-.02-11.56.98-16.9,1.65-8.51-7.47-20.38-20.19-28.76-28.61-44.76-44.99-85.76-92.56-119.03-146.75-9.62-15.67-22.53-35.98-30.02-52.77-3.35-5.66-6.26-12.41-8.47-18.61Z"/>
  <path class="st0" d="M702.37,661.3c6.98,11.85,13.85,23.62,21.05,35.35,21.29,34.68,46.98,65.48,71.85,97.48l-2.77.08c-12.16-4.66-91.23-116.58-90.14-132.91Z"/>
  <path class="st0" d="M833.9,840.27l12.47,14.79c-4.01-.84-8.38-1.86-12.37-2.58-.35-2.87-2.42-4.66-4.36-7.59,1.08-3.15.92-2.25,4.26-4.62Z"/>
  <path class="st26" d="M1115.28,454.02c-.31-.93-1.61-5.12-1.5-5.85,2.02-13.52,28.92-33.4,40.12-34.57,1.62,1.93,1.24,3.49,1.61,6.53,13.64,111.38-1.87,224.4-45.01,327.99-5.01-6.13-8.47-9.61-14.19-15.16,20.9-76.17,32.81-139.81,27.2-219.94-1.42-20.36-7-42.16-8.24-58.99Z"/>
  <path class="st0" d="M1115.28,454.02c-.31-.93-1.61-5.12-1.5-5.85,2.02-13.52,28.92-33.4,40.12-34.57,1.62,1.93,1.24,3.49,1.61,6.53l-1.44-.88-.79-3.46c-4.71.66-17.54,7.56-20.81,11.06l.72.5c4.72-3.53,11.69-6.79,17.69-6.91l.73.45c-18.01,8.42-25.17,8.76-33.34,29.05-1.89-1.31-1.28-1.21-2.57-3.8-.82,3.7,1.09,3.87-.41,7.88Z"/>
  <path class="st26" d="M723.04,528.68c-.37-4.17-.99-3.53.78-6.38,11.38-5.01,35.44,8.12,40,19.35,2.66,15.78,5.52,32.19,10.05,47.54,22.67,76.95,66.1,147.11,107.18,215.19l-.24,15.57c-15.39-10.08-16.08-5.63-27.77-22.23-55.37-78.6-124.68-169.3-130-269.04Z"/>
  <path class="st0" d="M723.04,528.68c-.37-4.17-.99-3.53.78-6.38,11.38-5.01,35.44,8.12,40,19.35-12.38-1.22-19.61-22.99-40.78-12.97Z"/>
  <path class="st26" d="M1314.39,536.37c11.68-8.36,21.4-11.67,35.86-12.4.09,5.37.03,14.42-1.14,19.63-.92,9.11-2.34,15.75-4.08,24.72-17.63,73.35-67.11,147.92-111.86,207.49-8.59,11.43-20.97,29.81-32.5,38.13-1.92,1.39-8.49,3.91-11.07,4.9-3.89-2.93-1.02-6.85.96-9.88.61-1.31,1.2-2.63,1.78-3.95,2-4.57,2.65-5.44,1-9.62,1.91-4.36,22.1-35.63,25.22-39.07,3.27-6.92,8.77-15.06,12.6-21.66,35.13-60.49,67.24-123.87,79.03-193.48.24-1.44,3.04-3.83,4.21-4.8Z"/>
  <path class="st0" d="M1190.56,808.96l.99,1.2c2.91.51,6.49-.97,9.15-2.18,15.29-6.95,84.72-114.52,96.58-134.86,8.1-13.9,15.41-29.22,22.4-43.72,8.28-17.2,13.08-35.71,19.6-53.55,1.36-3.72,2.05-5.81,5.76-7.51-17.63,73.35-67.11,147.92-111.86,207.49-8.59,11.43-20.97,29.81-32.5,38.13-1.92,1.39-8.49,3.91-11.07,4.9-3.89-2.93-1.02-6.85.96-9.88Z"/>
  <path class="st0" d="M1314.39,536.37c1.14,2.97.96,1.47.52,4.67-2.96,6.97-4.18,18.97-6.14,26.81-6.5,26.06-14.69,48.81-25.31,73.33-14.01,32.36-29.85,62.65-48.05,92.9-2.93,5.02-10.81,20.11-14.86,22.65l-1.99-.42c3.27-6.92,8.77-15.06,12.6-21.66,35.13-60.49,67.24-123.87,79.03-193.48.24-1.44,3.04-3.83,4.21-4.8Z"/>
  <path class="st0" d="M1314.39,536.37c11.68-8.36,21.4-11.67,35.86-12.4.09,5.37.03,14.42-1.14,19.63-.07-2.71.05-8.37-1.43-10.45-6.86-9.59-25.9,3.25-32.77,7.89.44-3.2.63-1.7-.52-4.67Z"/>
  <path class="st26" d="M915.7,417.42l.32-3.67c3.76-2.78,10.38,2.07,14,4.37,12.06,7.37,19.86,15.05,27.24,27.31-2.54,13.85-4.73,30.14-7.45,43.42-7.98,89.59-.06,155.32,24.9,241.96-4.76,5.1-9.38,10.33-13.84,15.7-37.43-86.25-50.14-175.01-47.96-268.57.24-10.15.52-42.65,2.44-51.18l.34-9.33Z"/>
  <path class="st0" d="M915.7,417.42l.32-3.67c3.76-2.78,10.38,2.07,14,4.37l-3.14,2c-3.64.58-5.81-1.31-9.71-2.32l-1.46-.37Z"/>
  <path class="st26" d="M771.23,480.32c15.19,5.93,24.14,10.87,34.38,23.72,1.33,6.51,1.65,16.43,2.63,23.75l2.89,2.93,1.92-1.24,1.62.39c1.92,11.8,3.93,23.59,6.04,35.37-1.32-.52-1.68-.62-2.77-1.57l-2.73,3.52c1.04,4.83,2.13,9.64,3.29,14.44,7.71,28.25,14.71,51.8,24.91,79.54,4.8,12.89,9.76,25.72,14.89,38.49,1.08,2.66,7.82,18.51,8.06,20.35,2.51,4.14,7.52,16.04,9.74,20.97,5.62,12.64,11.45,25.19,17.5,37.63-3.46,4.19-6.25,8.73-9.22,13.27-54.95-89.32-125.65-201.54-113.14-311.55Z"/>
  <path class="st0" d="M866.35,719.99c.4,7.64,8.56,19.96,7.91,21.99-1.75-1.81-6.05-6.35-6.87-8.31-3.38-8.07-22.07-50.83-22.59-56.35,2,0,1.24.35,2.75-.49-5.81-15.87-12.72-33.63-17.82-49.56-4.5-14.06-8.49-30.65-12.59-45.11l1.36-.55c7.71,28.25,14.71,51.8,24.91,79.54,4.8,12.89,9.76,25.72,14.89,38.49,1.08,2.66,7.82,18.51,8.06,20.35Z"/>
  <path class="st17" d="M808.24,527.78l2.89,2.93,1.92-1.24,1.62.39c1.92,11.8,3.93,23.59,6.04,35.37-1.32-.52-1.68-.62-2.77-1.57l-2.73,3.52c-3.33-13.13-5.07-26.01-6.97-39.39Z"/>
  <path class="st26" d="M1302.18,482.48c3.64,19.02,1.77,58.43-4.35,76.88-5.97,37.6-42.67,122.34-62.76,153.91-14.3,27.44-33.98,55.22-50.89,81.36-2.88-6.34-4.65-8.63-8.8-14.22l16.23-33.09c1.82-3.8,6.34-14.14,8.28-17.3,8.02-21.17,18.89-44.52,27.46-66.43,14.86-37.71,26.29-76.68,34.14-116.44,1.62-10.51,3.87-32.82,5.82-41.55,9.78-12,20.5-17.91,34.88-23.12Z"/>
  <path class="st0" d="M1261.48,547.15c1.41,7.88-3.54,24.03-5.71,32.35l1.72-1.53c4.25,9.45-44.72,139.32-56.53,152.42l-1.08-.36c8.02-21.17,18.89-44.52,27.46-66.43,14.86-37.71,26.29-76.68,34.14-116.44Z"/>
  <path class="st0" d="M1235.07,713.27c-.52-.48-1.07-1.28-1.53-1.86,2.07-10.25,18.91-37.83,24.2-49.81,5.81-13.13,10.35-25.05,15.62-38.63,7.7-19.82,19.86-47.9,23.46-68.72l.23-1.31c.38,2.36.56,4.06.78,6.41-5.97,37.6-42.67,122.34-62.76,153.91Z"/>
  <path class="st26" d="M1497.68,873.5c14.48-.34,23.36-.28,36.41,7.43-8.94,13.46-28.65,30.28-42.66,37.48-15.11,10.65-38.25,21.59-55.14,28.95-25.09,11.09-50.65,21.09-76.6,29.98-17.99,6.22-36.05,11.48-53.98,17.93l4.46-9.85c.72-2.69.49-3.61.5-6.42-3.25-3.18-6.59-4.94-10.46-7.31,55.84-22.13,111.46-49.44,164.79-76.99,11.78-6.08,21.54-15.2,32.68-21.19Z"/>
  <path class="st0" d="M1497.68,873.5l2.38,2.34c-1.63,8.1-102.84,58.57-117.97,64.72-20.33,8.27-45.59,19.16-66.05,28.57-4.12,2.08-5.84,5.25-5.38,9.86-3.25-3.18-6.59-4.94-10.46-7.31,55.84-22.13,111.46-49.44,164.79-76.99,11.78-6.08,21.54-15.2,32.68-21.19Z"/>
  <path class="st0" d="M1310.17,985.41c.5.4,2.03,1.57,2.47,1.87,7.12,3.47,22.46-6.83,29.04-8.76,37.21-10.92,72.42-26.16,107.91-41.53,9.47-3.93,19.97-12.5,29.74-15.04,7.06-1.84,3.11.78,10.52-4.31l1.6.77c-15.11,10.65-38.25,21.59-55.14,28.95-25.09,11.09-50.65,21.09-76.6,29.98-17.99,6.22-36.05,11.48-53.98,17.93l4.46-9.85Z"/>
  <path class="st26" d="M1487.72,766.12c8.97-2.23,18.07.8,26.5,3.77-9.58,18.59-32.21,46.1-48.41,59.23-28.89,28.23-64.02,51.99-99.32,71.33-5.18,2.84-20.83,11.68-25.6,13.28-10.56,6.14-29.37,14.92-40.56,18.69-10.32-2.72-18.62-2.88-29.14-3.43,8.69-6.61,41.94-24.76,53.34-31.35,30.43-19.03,50.76-34.32,79.39-54.81,1.6-2.14,9.38-8.26,11.93-10.36,19.5-16.01,36.56-33.56,52.99-52.6,1.13-1.52,2.28-3.04,3.44-4.54,5.14-6.59,7.3-8.18,15.43-9.21Z"/>
  <path class="st0" d="M1340.89,913.73c1.16-4.29,14.18-7.65,17.63-10.96,5.75-5.85,13.38-8.64,20.08-13.29,19.36-13.42,43.31-25.39,60.4-41.46,10.04-9.44,19.88-16.02,29.36-24.78-2.5,3.45-2.68,2.52-2.56,5.88-28.89,28.23-64.02,51.99-99.32,71.33-5.18,2.84-20.83,11.68-25.6,13.28Z"/>
  <path class="st0" d="M1403.92,842.83l.53,1.71c-6.14,10.01-65.49,50.46-76.85,54-1.3-.3-1.92-.32-3.07-.9,30.43-19.03,50.76-34.32,79.39-54.81Z"/>
  <path class="st0" d="M1468.84,779.88c1.13-1.52,2.28-3.04,3.44-4.54,5.14-6.59,7.3-8.18,15.43-9.21-2.88,2.29-1.99,2.3-5.03,2.48l.14,2.28c3.05-.82,2.28-1.18,4.77-.59-7.27,2.09-10.15,7.65-18.76,9.57Z"/>
  <path class="st26" d="M1496.65,925.98l2.19.54c14.34,3.54,20.13,5.47,28.05,18.53-8.81,7.89-18.3,14.99-28.36,21.2-56.28,32.44-117.77,45.43-180.59,59.21l-5.94-5.21-5.14-2.68c-4.25-.24-7.51-1.23-11.63-2.24,1.87-3.4,3.77-5.97,5.98-9.11,56.67-18.05,113.13-39.35,166.44-65.77,9.36-4.64,19.33-11.08,28.99-14.48Z"/>
  <path class="st0" d="M1496.65,925.98l2.19.54c14.34,3.54,20.13,5.47,28.05,18.53-8.81,7.89-18.3,14.99-28.36,21.2,2.28-6.73,8.84-6.64,13.21-12.69l-.63-2.13c3.28-2.16,4.11-2.36,5.79-5.71,1.27-9.6-11.62-13.54-18.94-15.86-8.43,3.13-11.86,7.11-19.01,10.81-5.07,2.63-12.62,5.36-18.15,7.95-7.37,3.46-14.49,7.03-21.83,10.53-9.74,4.64-20.6,8.12-30.56,12.41-22.3,9.59-44.89,17.86-67.76,26.16-9.3,3.37-23.11,6.05-32.55,9.72-.84.33-3.42,4.35-4.1,5.4-2.32-.44-1.23.05-2.99-2.25-2,1.57-1.38.52-2.14,3.03,2.4,2,3.24,1.68,6.6,2.35l1.39,1.6c-4.25-.24-7.51-1.23-11.63-2.24,1.87-3.4,3.77-5.97,5.98-9.11,56.67-18.05,113.13-39.35,166.44-65.77,9.36-4.64,19.33-11.08,28.99-14.48Z"/>
  <path class="st0" d="M1511.11,951.43l.63,2.13c-4.37,6.04-10.92,5.96-13.21,12.69-56.28,32.44-117.77,45.43-180.59,59.21l-5.94-5.21c17.59,4.45,110.67-25.11,131.44-32.39,7.8-2.73,29.71-13.02,38.53-17.27,6.21-2.99,20.39-14.17,29.14-19.17Z"/>
  <path class="st26" d="M558.75,765.4c7.85-2.53,12.9-3.41,21.09-3.47,7.39.85,8.95,1.09,15.98,3.23,3.36,4.12,25.44,29.9,27.13,33.06,6.58,5.93,12.65,12.28,19,18.46,25.57,24.88,54.02,46.26,83.2,66.63,23.47,15.25,47.87,28.71,70.26,43.28-10.32-.37-21.88.97-32.03,2.87-14.46-5.68-48.94-24.35-62.55-32.8-5.64-2.44-22-13.27-27.42-16.85-7.84-4.99-16.96-11.39-24.13-17.22-2.2-1.07-12.93-9.55-15.38-11.55-24.79-20.12-61.83-57.63-75.14-85.63Z"/>
  <path class="st0" d="M612.61,790.95l1.55-.03c2.31,2.5,5.31,6.51,8.14,7.49l.64-.19c6.58,5.93,12.65,12.28,19,18.46,25.57,24.88,54.02,46.26,83.2,66.63l-.16,4.59c-15.94-9.22-25.57-18.07-39.84-29.25-27.11-21.23-51.05-40.46-72.54-67.69Z"/>
  <path class="st0" d="M725.15,883.31c23.47,15.25,47.87,28.71,70.26,43.28-10.32-.37-21.88.97-32.03,2.87-14.46-5.68-48.94-24.35-62.55-32.8,10.52,1.91,45.51,25.58,63,30.83,4.43-1.37,9.07-.67,12.3-3-2.05-5.65-43.08-31.12-51.13-36.59l.16-4.59Z"/>
  <path class="st26" d="M557.23,870.64c5.95-1.12,11.69-.76,17.74-.66l.98.57c7.67,4.56,14.31,10.01,21.69,14.88,8.87,5.86,18.7,11.6,28.08,16.65,14.14,7.46,28.44,14.63,42.87,21.5,3.16,1.54,17.75,8.49,19.57,9.86,6.7,3.16,72.9,33.27,75.16,35.5-1.3,1.79-1.24,1.66-3.18,2.77-6.79,5.25-5.86,9.03-2.89,16.26.95,1.31,1.35,2.32,2.09,3.77l-.87.56c-35.83-13.29-72.18-23.99-107.16-40.61-10.96-5.2-24.59-10.62-34.87-16.99-6.09-1.7-22.39-11.8-28.45-15.48-14.72-6.82-40.12-28.16-49.53-42.09,6.34-3.75,11.33-5.96,18.76-6.5Z"/>
  <path class="st0" d="M616.44,934.71c8.73-.35,14.12,8.99,23.94,7.05,8.86,3.51,18.24,8.58,27.49,12.46,26.48,11.09,51.94,19.5,78.91,28.68,3.33,2.28,5.97,1.75,10.47,5.08.95,1.31,1.35,2.32,2.09,3.77l-.87.56c-35.83-13.29-72.18-23.99-107.16-40.61-10.96-5.2-24.59-10.62-34.87-16.99Z"/>
  <path class="st0" d="M557.23,870.64c5.95-1.12,11.69-.76,17.74-.66l.98.57c7.67,4.56,14.31,10.01,21.69,14.88,8.87,5.86,18.7,11.6,28.08,16.65,14.14,7.46,28.44,14.63,42.87,21.5,3.16,1.54,17.75,8.49,19.57,9.86l-2.4,1.41c1.75,1.26,2.09,1.57,2.97,3.54-29.96-13.09-61.35-31.81-90.14-47.56-17.31-9.48-19.61-19.19-41.37-20.19Z"/>
  <path class="st0" d="M688.16,933.45c6.7,3.16,72.9,33.27,75.16,35.5-1.3,1.79-1.24,1.66-3.18,2.77-2.87-.87-5.89-1.94-8.75-2.89-18.63-10.53-42.76-18.56-62.66-30.43-.88-1.97-1.22-2.28-2.97-3.54l2.4-1.41Z"/>
  <path class="st0" d="M751.39,968.83c2.86.96,5.88,2.03,8.75,2.89-6.79,5.25-5.86,9.03-2.89,16.26-4.5-3.33-7.14-2.8-10.47-5.08,1.06-.61.44-.16,1.63-1.65-2.32-6.21-1.21-7.36,2.98-12.43Z"/>
  <path class="st26" d="M551.04,932.74c8.09-7.1,14.52-8.97,24.74-11.29,57.73,31.86,118.17,58.52,180.62,79.68-1.18,3-1.8,2.96-1.05,5.35,3.89,1.87,3.59,4.01,5.98,7.81-7.5,2.08-9.39,2.79-14.6,8.49-12.94-3.77-27.82-6.62-41.09-10-37.92-9.66-91.78-24.92-124.71-46.43-10.41-4-28.24-18.12-35.98-26.52,1.85-2.34,4.12-4.82,6.1-7.08Z"/>
  <path class="st0" d="M551.04,932.74c8.09-7.1,14.52-8.97,24.74-11.29,57.73,31.86,118.17,58.52,180.62,79.68-1.18,3-1.8,2.96-1.05,5.35-20.61-9.16-40.75-15.29-61.44-23.56-28.92-11.57-57.45-26.1-85.68-39.31-11.37-5.32-22.32-13.3-34.21-17.53-9,1.89-16.75,7.8-22.98,6.65Z"/>
  <path class="st0" d="M580.92,966.34c10.53.41,20.93,6.4,30.56,10.85,41.57,19.24,87.96,29.91,132.45,39.8,4.8-2.75,10.11-4.75,11.41-10.51,3.89,1.87,3.59,4.01,5.98,7.81-7.5,2.08-9.39,2.79-14.6,8.49-12.94-3.77-27.82-6.62-41.09-10-37.92-9.66-91.78-24.92-124.71-46.43Z"/>
  <path class="st26" d="M1482.73,825.34c18.21-12.56,65.7-.71,13.13,37.83-2.8,3.24-17.04,12.77-20.98,15.13-59.02,35.52-125.02,62.73-188.46,89.45,5.55-8.96,9.03-15.97,13.67-25.38,61.96-25.83,112.25-54.92,162.91-98.53l8.34-7.98,11.39-10.53Z"/>
  <path class="st0" d="M1463,843.84c.34,1.68.99,2.34-.32,3.62-35.06,34.52-77.04,58.59-120.91,80.19-14.05,6.92-27.21,11.65-40.5,19.89,0-1.91-.04-1.27.64-3.15-2.71,1.42-7.46,11.63-5.86,14.81,1.43.58,4.43,2.04,5.87.82,8.59-7.33,35.87-13.11,42.88-19.49l-.61-.92c-2.72,1.2-5.46,2.34-8.22,3.43l-.81-.38c13.8-5.83,28.26-10.88,41.53-17.78,44.85-23.33,91.45-39.83,127.99-75.97l1.62,1.27c-3.41,5.1-8.06,7.6-10.44,12.97-2.8,3.24-17.04,12.77-20.98,15.13-59.02,35.52-125.02,62.73-188.46,89.45,5.55-8.96,9.03-15.97,13.67-25.38,61.96-25.83,112.25-54.92,162.91-98.53Z"/>
  <path class="st0" d="M1482.73,825.34c18.21-12.56,65.7-.71,13.13,37.83,2.38-5.37,7.03-7.87,10.44-12.97l-1.62-1.27c18.28-20.09,11.04-22.37-11.95-21.8l-1.45-1.66c-2.72-1.18-5.48-.47-8.55-.13Z"/>
  <path class="st0" d="M1482.73,825.34c3.06-.34,5.83-1.05,8.55.13l1.45,1.66c-9.07,2.71-13.78,9.54-19.15,10.24l-2.25-1.5,11.39-10.53Z"/>
  <path class="st26" d="M563.1,818.32c25.22-5.86,31.65,8.14,48.53,24.04,10.72,10.04,21.98,19.49,33.73,28.32,9.97,7.32,18.94,13.65,29.34,20.32,5.43,3.48,14.95,8.95,19.79,12.51l70.96,36.65c3.94,6.6,6.71,12.73,9.95,19.66,1.31,1.91.93,1.18,1.55,3.42l-1.13.35c-55.61-24-198.14-82.21-224.56-133.6-1.05-2.25-1.15-2.1-.87-4.53,2.98-4.65,7.51-5.45,12.72-7.14Z"/>
  <path class="st0" d="M694.5,903.51l70.96,36.65c3.94,6.6,6.71,12.73,9.95,19.66-3.99-2.89-4.94-6.23-6.97-10.74-1.77,2.16-.95,1.93-3.05,2.76-.94-1.47-3.87-6.29-5.17-6.94-24.6-12.52-48.78-25.56-71.74-40.9,4.32.72,2.41,1.08,6.02-.48Z"/>
  <path class="st0" d="M645.36,870.68c9.97,7.32,18.94,13.65,29.34,20.32,5.43,3.48,14.95,8.95,19.79,12.51-3.6,1.56-1.69,1.2-6.02.48-1.15-.91-12.22-7.27-14.28-8.56-9.43-5.94-18.67-12.18-27.68-18.73-1.6-2.55-1.28-3.01-1.16-6.03Z"/>
  <path class="st0" d="M551.25,829.99c-1.05-2.25-1.15-2.1-.87-4.53,2.98-4.65,7.51-5.45,12.72-7.14l-.27,4.02c-5.06,1.94-8,3.36-11.58,7.64Z"/>
  <path class="st23" d="M1061.41,968.73c28.28-2.39,28.68,34.74,29.47,54.28,2.92,71.87-11.29,140.21-36.29,207.21l-.15.28c-3.26,1.89-7.51,2.19-10.69.05-1.1-3.15,2.92-16.32,3.93-20.92,4.69-22.35,8.78-44.84,12.27-67.41,6.06-41.43,7.18-84.42-.2-125.74-2.54-14.21-6.66-27.83-9.2-42.13,4.02-2.38,6.44-3.97,10.85-5.62Z"/>
  <path class="st21" d="M1087.8,742.73c.75.03,1.12,0,1.89.3,4.26,1.65,7.7,6.99,9.36,11.02,14.4,34.9-10.23,122.79-20.59,159.03-4.25,14.89-8.19,30.3-13.84,44.71-3.86,2.81-7.11,3.78-11.54,5.51,1.08-17.05,3.65-34.84,4.8-52.01,3.39-50.68,7.98-102,10.13-152.71,6.54-9.02,9.12-11.82,19.8-15.85Z"/>
  <path class="st21" d="M976.85,740.64c9.01,3.82,14.91,9.09,20.03,17.26,2.51,70,8.54,137.22,14.04,206.74l-11.05-5.16c-.23-.27-.45-.54-.68-.81-16.12-50.59-31.55-108.92-36.47-161.42-2.29-24.52-1.21-44.13,14.13-56.61Z"/>
  <path class="st23" d="M993.38,968.5c8.63-.62,10.63,1.28,17.26,6.17-3.34,13.29-7.29,25.44-9.69,39.14-9.25,52.79-5.78,104.22,2.19,156.91,3.04,20.11,8.77,40.16,11.77,59.43-1.89,2.08-5.48,2.65-8.37,3.44-1.41-1.37-2.17-2.72-2.96-4.51-22.82-51.07-47.34-195.67-26.04-247.06,3.21-7.74,8.45-10.62,15.83-13.51Z"/>
  <path class="st4" d="M834.58,1311.12c3.47.24,2.24-.47,4.61,1.22-.55,1.73-12.12,11.75-14.21,13.61-14.88,13.23-26.74,26.69-39.91,41.28-9.49,10.52-30.12,22.54-42.8,29.82-55.21,31.7-98.97,42.46-162.29,43.35-3.1-.22-2.27.45-3.89-1.08,4.33-2.38,27.53-8.33,33.97-10.28,16.17-4.79,32.01-10.59,47.44-17.39,23.8-10.52,46.4-23.56,67.44-38.87,5.42-3.98,24.41-20.42,28.66-22.05,30.73-11.68,53.35-20.97,80.97-39.61Z"/>
  <path class="st4" d="M1219.44,1314.48c2.13.56,20.72,12.98,25.69,15.57,10.87,7.62,45.39,15.41,53.41,22.27,42.9,36.69,89.45,62,143.61,78.08,9.17,2.72,23.81,5.86,32.88,9.75l-.26.62-3.23.14c-79.48.82-175.28-31.94-227.2-95.16-4.01-4.87-30.25-28.07-30.98-29.75,1.78-1.89,2.57-1.26,6.07-1.51Z"/>
  <path class="st26" d="M586.52,1019.8c4.43,1.05,5.94,1.74,10.13,3.62,30.72,12.4,46.28,17.93,78.59,26.39,14.03,3.08,32.31,7.32,46.56,8.97,10,1.67,19.3,3.02,29.45,3.81-8.27,8.71-9.7,9.51-4.46,21.14-6.96-.03-14.29.06-21.21-.11-19.46.61-58.06-3.26-76.75-7.19-22.12-.28-68.66-19.83-86.22-35.39,6.1-13.09,9.7-16.86,23.91-21.25Z"/>
  <path class="st0" d="M586.52,1019.8c4.43,1.05,5.94,1.74,10.13,3.62l-7.02-.56c1.2,1.73,2.24,1.88,4.31,2.94-4.06-.79-10.92-2.84-14.54.17-4.27,3.54-8.87,8.28-10.29,13.77.42,2.16.7,3.57,3.34,4.95,20.08,10.46,41.65,19.85,63.81,24.86,7.21,1.62,14.77,2.65,21.74,4.3,1.13.27.97.98,1.27,2.26-2.85,1.31-7.04.3-10.44.34-22.12-.28-68.66-19.83-86.22-35.39,6.1-13.09,9.7-16.86,23.91-21.25Z"/>
  <path class="st0" d="M675.23,1049.81c14.03,3.08,32.31,7.32,46.56,8.97,10,1.67,19.3,3.02,29.45,3.81-8.27,8.71-9.7,9.51-4.46,21.14-6.96-.03-14.29.06-21.21-.11,7.45-2.46,10.14-2.24,17.98-2.31-.47-2.14-.43-2.35-1.42-4.26-6.03,3.35-7.6,4.09-14.42,3.22,2.15-.15,3.77-.38,5.67-1.6,1.74-1.11,2.83-2.99,2.94-5.06.11-2.66-.24-5.64-1.93-7.67-3.49-.23-15.26-3.06-19.57-3.93-16.18-3.26-33.75-6.47-49.64-10.98,4.18-.71,6.72.71,10.05-1.22Z"/>
  <path class="st0" d="M593.94,1025.8c-2.07-1.06-3.11-1.21-4.31-2.94l7.02.56c30.72,12.4,46.28,17.93,78.59,26.39-3.33,1.93-5.87.52-10.05,1.22-24.6-5.82-48.94-13.29-71.24-25.24Z"/>
  <path class="st26" d="M1330.85,1063.68c44.53-5.4,89.74-14.74,131.3-32,7.78-3.23,17.79-8.33,26.1-6.14l1.97,1.21.24,1.39,2.17.67-.35.5-2.77-.56-.71.72c2.62,2,5.3,3.78,7.86,5.8,5.37,5.4,5.09,8.35,2.95,15.53-50.1,31.84-123.87,37.5-182.29,36.27,1.12-2.38,3.19-6.28,3.64-8.68l.29-3.68c-2.36-2.96-5.14-5.89-7.71-8.7,5.79-.96,11.49-1.61,17.32-2.32Z"/>
  <path class="st0" d="M1496.65,1035.26c5.37,5.4,5.09,8.35,2.95,15.53-50.1,31.84-123.87,37.5-182.29,36.27,1.12-2.38,3.19-6.28,3.64-8.68.96.97,4.84,5.05,5.96,5.09,32.06,1.41,69.06-5.28,101.13-8.66,8.92-2.45,22.14-5.25,30.4-9.26,11.85-5.77,46.66-12.43,38.22-30.3Z"/>
  <path class="st0" d="M1330.85,1063.68c44.53-5.4,89.74-14.74,131.3-32,7.78-3.23,17.79-8.33,26.1-6.14l1.97,1.21.24,1.39,2.17.67-.35.5-2.77-.56-.71.72c-2.63-.48-6.38-1.06-8.85-.02-10.82,4.56-25.05,9.3-35.59,13.48-16.8,6.64-96.98,26.49-112.63,25.04-5.27,1.15-7.05,2.57-10.5,6.75-2.36-2.96-5.14-5.89-7.71-8.7,5.79-.96,11.49-1.61,17.32-2.32Z"/>
  <path class="st21" d="M1134.35,759.13c2.23-.04,1.17-.32,3.15.94,12.27,38.38-6.24,102.89-22.48,139.31-4.15,9.3-27.39,63.94-33.9,66.62l-9.92-4.62c3.96-15.87,10.62-34.67,15.17-50.99,14.12-50.57,20.68-86.26,24.21-138.1,6.74-7.66,14.41-9.8,23.77-13.17Z"/>
  <path class="st9" d="M1106.61,979.48c22.42-.44,20.81,42.79,20.55,57.41-1.23,68.02-25.94,131.02-56.6,190.77-2.19,4.22-2.79,4.98-7.12,6.69-2.44-2.48,7.81-29.28,9.35-34.49,20.81-70.39,32.12-141,20.95-214.22,5.06-3.05,7.11-4.36,12.87-6.16Z"/>
  <path class="st23" d="M952.16,978.39c8.25.82,9.71,1.34,16.55,6.02-8.18,43.06-6.47,98.71.81,141.8,4.3,25.98,10.09,51.68,17.36,76.99,1.56,5.5,9.5,26.79,8.19,30.06l-1.73.22c-4.02-2.32-2.78-1.61-5.43-6.11-31.86-62.83-59.03-145.47-53.27-217.14,1.26-15.6,6.05-22.5,17.52-31.84Z"/>
  <path class="st23" d="M810.79,1287.1c4.99,4.9,13.5,10.79,19.51,16.11-6.27,4.23-11.85,8.77-18.5,12.65-85.36,50-199.94,46.39-280.32-13.94l1-1.6.99.35c3.95,1.36,4.77,1.58,8.89,1.88,10.72,2.77,24.42,8.3,35.35,11.98,17.67,6.05,35.84,10.52,54.29,13.39,36.5,5.82,67.92,5.13,103.91-3.55,28.76-6.93,51.13-20.03,74.88-37.27Z"/>
  <path class="st21" d="M927.67,757.28c5.97,1.68,9.41,2.56,15.04,5.16,6.68,3.91,12.22,6,12,14.59,1.98,53.05,19.25,131.8,36.88,182.21-3.77,1.93-7.68,4.24-11.39,6.33-32.91-61.72-65.36-137.21-52.53-208.29Z"/>
  <path class="st3" d="M942.71,762.44c6.68,3.91,12.22,6,12,14.59-5.83-2.92-11.39-7.72-12-14.59Z"/>
  <path class="st23" d="M1244.71,1291.35c8.69,4.6,18.52,12.17,27.69,17.03,61.92,32.83,129.65,28.23,194.46,8.06,20.39-6.35,37.72-15.54,56.88-20.89l.58.92c-2.76,3.55-14.8,11.09-19.06,13.99-25.9,16.47-56.48,29.62-86.61,35.75-66.61,13.49-135.85-.12-192.41-37.81,6.59-5.8,11.15-11.06,18.47-17.06Z"/>
  <path class="st26" d="M1464.87,992.99c9.39-4.34,18.57-9.22,27.99-13.4,4.08-1.81,6.05-1.28,9.98.38,9.23,6.81,10.17,7.48,14.83,18.2-14.78,7.5-26.16,12.63-41.63,18.61-29.19,12.75-59.67,22.3-90.91,28.49-3.48.72-14.91,3.1-17.59,3.1-16.65,4.42-44.34,6.61-61.83,8.25,3.44-5.53,6.16-9.98,7.91-16.36,1.29-2.72,2.32-4.95,5.45-5.55,50.76-9.76,97.4-23.68,145.79-41.72Z"/>
  <path class="st0" d="M1464.87,992.99c9.39-4.34,18.57-9.22,27.99-13.4,4.08-1.81,6.05-1.28,9.98.38-7.29,4.48-38.03,17.09-46.01,19.75-10.62,4.11-25.24,10.19-35.83,13.46-19.41,5.99-40.62,10.84-60.22,16.47-11.06,3.17-31.62,5.21-41.16,9.67-2.28,1.41-3.24,1.04-5.98.94,1.29-2.72,2.32-4.95,5.45-5.55,50.76-9.76,97.4-23.68,145.79-41.72Z"/>
  <path class="st0" d="M1313.64,1040.27c2.75.1,3.71.47,5.98-.94-1.41,2.75-1.97,3.3-1.61,6.39,4.91,5.67,18.61,2.93,25.9,2.31,7.32-.05,16.53-.39,23.65.35-16.65,4.42-44.34,6.61-61.83,8.25,3.44-5.53,6.16-9.98,7.91-16.36Z"/>
  <path class="st26" d="M574.39,973.28c12.41,5.68,24.81,13.25,37.08,18.27,44.2,18.11,89.96,30.28,136.42,40.56.79,1.87,2.82,6.35,3.3,8.07,1.9,3.07,5.28,7.56,5.39,10.89-2.1,2.75-3.33,2.16-6.96,2.11-44.55-5.28-108.91-17.5-149.56-37.93-16.29-6.55-31.81-12.71-46.65-22.21,3.62-6.92,5.06-10.43,11.58-15.06,3.03-1.58,6.29-3.37,9.41-4.71Z"/>
  <path class="st0" d="M574.39,973.28c12.41,5.68,24.81,13.25,37.08,18.27,44.2,18.11,89.96,30.28,136.42,40.56.79,1.87,2.82,6.35,3.3,8.07,1.9,3.07,5.28,7.56,5.39,10.89-2.1,2.75-3.33,2.16-6.96,2.11-44.55-5.28-108.91-17.5-149.56-37.93.82-.72,1.08-.56,2.35-.85,7.31,4.18,41.69,16.74,49.9,18.53l1.51-1.09-1.98-1.58c13.59,2.89,87.86,20.43,95.82,17.15,5.12-11.89-16.48-14.6-24.44-16.58-14.71-3.65-29.46-8.07-44.13-11.6-37.7-9.06-71.75-26.89-107.41-40.82.31.12-6.25-.39-6.68-.43,3.03-1.58,6.29-3.37,9.41-4.71Z"/>
  <path class="st0" d="M751.18,1040.19c1.9,3.07,5.28,7.56,5.39,10.89-2.1,2.75-3.33,2.16-6.96,2.11-1.02-3.92.21-9.26,1.57-13Z"/>
  <path class="st21" d="M1157.46,795.59c4.97-3.32,6.29-4.04,11.75-6.5,1.91,3.99,3.57,6.89,4.48,11.24.26,1.12.51,2.25.72,3.38,8.45,45.27-37.33,128.4-62.47,165.82-7.64,1.8-14.46,4.24-22.37,5.97l-1.04-1.24c-.63-5.12,17.38-37.82,20.81-45.14,18.77-39.95,32.7-81.94,38.87-125.68,3.36-3.43,5.48-4.98,9.26-7.86Z"/>
  <path class="st13" d="M1157.46,795.59c4.97-3.32,6.29-4.04,11.75-6.5,1.91,3.99,3.57,6.89,4.48,11.24-6.57-1.2-8.41-4.09-16.23-4.74Z"/>
  <path class="st21" d="M894.51,791.83c1.87-1.79,1.6-2.3,3.58-2.41,5.31-.27,12.78,6.64,16.56,10.19,4.31,4.28,4.46,17.26,5.58,23.93,7.72,45.95,25.92,89.26,45.91,131.06,2.7,5.64,5.78,10.1,8.01,16.26l-.2,1.7c-5.49,4.26-15.56-1.75-22.47-3.43-27.04-36.04-62.94-116.8-61.5-161.58.46-6.76,1.43-9.72,4.52-15.72Z"/>
  <path class="st3" d="M894.51,791.83c1.87-1.79,1.6-2.3,3.58-2.41,5.31-.27,12.78,6.64,16.56,10.19-7.71,1.28-8.33-3.11-16.92-5.27-2.27,6.1-3.45,8.21-7.74,13.2.46-6.76,1.43-9.72,4.52-15.72Z"/>
  <path class="st21" d="M1200.93,822.56c.54.08,1.68.6,2.25.83,6.29,9.52,5.99,29.25,3.19,40.21-12.31,48.26-45.25,87.91-75.2,126.25l-1.63-.28c-3.57-6.4-6.13-9.64-10.9-15.07,19.1-27.78,38.24-66.57,50.66-98.01,5.27-13.34,8.68-31.2,14.57-43.81,6.21-4.5,10.24-6.68,17.06-10.12Z"/>
  <path class="st26" d="M1311.14,1094.96c36.87,2.78,86.23-1.55,122.81-8.31,6.34-1.17,13.5-4.09,19.69-5.53,7.42-1.72,8.18-2.59,14.12,1.02,3.47,2.76,4.65,3.75,7.56,7.08,3.67,5.77,5.09,8.55,6.94,15.4-42.92,13.57-86.88,18.03-131.77,17.51-8.02-.09-20.76.43-27.98-2.46-2.96-5.73-3.05-7.46-8.03-11.75l-11.26-7.17,7.92-5.8Z"/>
  <path class="st0" d="M1311.14,1094.96c36.87,2.78,86.23-1.55,122.81-8.31,6.34-1.17,13.5-4.09,19.69-5.53,7.42-1.72,8.18-2.59,14.12,1.02-1.81,1.25-2.63,2.06-4.69,2.77-10.69,1.02-24.08,5.28-35.36,7.05-36.93,5.78-68.57,8.54-105.83,8.08-3.73-.26-2.06-.68-5.21,1.29-1.5,3.14-1.52,3.18-2.19,6.6l-11.26-7.17,7.92-5.8Z"/>
  <path class="st0" d="M1467.76,1082.15c3.47,2.76,4.65,3.75,7.56,7.08-1.65.39-4.14.91-5.68,1.41-2.41-2.4-3.87-3.59-6.56-5.71,2.06-.72,2.87-1.52,4.69-2.77Z"/>
  <path class="st21" d="M863.36,820.71c9.46,3.76,12.08,5.42,19.51,12.33,3.71,12.07,6.37,24.31,10.56,36.38,12.47,35.91,30.23,71.48,50.14,103.83-3.89,4.87-6.47,8.67-9.91,13.88l-1.08.98c-.66-.31-1.55-.67-2.01-1.25-26.28-33.35-52.33-68.06-66.96-108.36-5.72-15.75-11.41-43.39-.25-57.78Z"/>
  <path class="st26" d="M590.15,1101.96c-8.72-4.63,5.73-28.46,20.05-25.84,18.75,8.72,63.79,13.24,84.84,15.05,7.37.63,16.68.61,23.93,1.5l33.05-.61,8.19,5.98c-6.57,4.13-9.4,5.82-14.81,11.29-1.32,2.63-2.21,4.52-3.3,7.26-3.31,2.46-5.83,1.84-10.43,1.99-44.95,3.25-98.68-3.08-141.53-16.63Z"/>
  <path class="st0" d="M590.15,1101.96c-8.72-4.63,5.73-28.46,20.05-25.84,18.75,8.72,63.79,13.24,84.84,15.05,7.37.63,16.68.61,23.93,1.5-16.52.84-30.85.31-47.24-1.91-1.7-.23-3.47.27-5.01,1,3.07.09,40.56,2.96,41.97,3.36-33.43,1.46-69.28-4.92-100.77-15.82-12.83,3.35-12.68,12.86-17.78,22.66Z"/>
  <path class="st0" d="M731.67,1118.59c3.86-4.94,6.98-9.75,13.73-9.26-1.32,2.63-2.21,4.52-3.3,7.26-3.31,2.46-5.83,1.84-10.43,1.99Z"/>
  <path class="st23" d="M1178.99,1035.84c2.35-.28,2.6-.23,4.98,0,2.94,4.31-1.3,30.1-2.48,37.03-8.79,51.46-35.84,103.06-65.6,145.63-4.76,6.81-12.89,18.68-19.3,23.26-3.03-.77-6.46-1.99-9.47-2.97,28.07-34.38,55.31-97.43,65.59-140.56,4.8-20.12,7.47-38.08,11.43-58.03,5.97-2.25,8.61-2.99,14.86-4.35Z"/>
  <path class="st21" d="M1257.76,894.4c4.37.29,2.64-.53,5.67,1.83,3.34,7.12-1.35,26.57-4.51,33.76-17.57,40.08-55.94,67.88-88.97,94.65-1.88,1.65-1.89,1.72-4.11,2.83-3.08-3.75-1.04-17.97-.73-23.55,21.54-23.46,41.94-43.96,57.74-72.09,5.63-10.02,10.33-20.49,15.99-30.27l.59-1.01c5.83-3.29,11.89-4.56,18.32-6.15Z"/>
  <path class="st23" d="M883.13,1033.87c1.7.27,12.94,4.33,15.36,5.15,9.85,68.21,27.27,132.87,67.45,190.92,1.85,2.67,4.22,4.26,4.46,7.68-2.15,2.31-1.58,1.6-5.27,2.43l-3.29,1.03c-.61-.29-1.55-.68-1.95-1.18-41.58-51.34-83.64-137.47-83.04-203.33,1.9-2.39,2.43-1.78,6.26-2.7Z"/>
  <path class="st6" d="M1147.76,1003.15c2.89-.24,4.76-.68,7.47.35,3.93,4.22,1.09,24.13.58,31.26-1.93,26.54-6.5,52.84-13.65,78.48-10.16,35.59-36.71,91.52-60.07,120.41-1.77,2.46-3.37,2.87-6.16,2.36-.26-2.98,9.3-20.8,11.34-24.8,34.86-68.57,45.41-128,47.27-203.74,4.82-1.94,8.28-2.92,13.21-4.32Z"/>
  <path class="st21" d="M801.35,892.79c9.04-.45,16.14.83,24.19,5.01,3.69,5.57,10.54,20.18,14.08,26.94,6.16,11.53,13.04,22.66,20.59,33.33,8.47,12.17,18.13,23.05,27.99,34.06,3.61,4.04,6.92,7.44,9.62,12.17-.42,7.5.19,14.8-.12,22.36-32.78-25.32-73.65-58.35-90.35-97.32-3.4-7.94-9.33-28.42-6-36.56Z"/>
  <path class="st23" d="M905.56,1002.04c10.21.23,12.48.71,21.86,4.74.49,21.42.49,44.42,2.87,65.74,4.22,37.83,15.2,73.55,28.6,108.98,4.04,10.68,22.01,45.83,23.11,54.36-2.71-.45-4.06-.79-5.79-3.25-45.93-65.55-73.18-151.31-70.65-230.57Z"/>
  <path class="st4" d="M1036.54,216.05c4.12,3.95,15.99,144.2,17.74,160.55-6.69,3.48-13.95,9.48-20.05,14.16-5.46-3.74-13.83-10.22-18.62-14.76,1.16-24.67,5.44-54.04,8.64-78.93,3.06-23.88,6.36-58.22,12.29-81.03Z"/>
  <path class="st26" d="M1324.52,1129.53c36.82,2.11,77.38.97,113.9-5.17,3.42,2.36,6.94,4.6,9.94,7.45,4.61,6.54,5.37,8.75,6.81,16.64-34.96,10.71-113.21,12.07-152.4.86-.3-.2-.61-.39-.91-.59.95-2.72,5.23-6.49,7.51-8.85,5.16-6.81,6.16-10.87,15.15-10.35Z"/>
  <path class="st0" d="M1324.52,1129.53c36.82,2.11,77.38.97,113.9-5.17,3.42,2.36,6.94,4.6,9.94,7.45-5.62,1.71-9.21-1.7-14.76-1.4-15.14.86-30.46,3.71-45.6,3.72-12.75,0-54.76-4.6-62.76.73-.07.05-.16.09-.24.14l-.49-5.48Z"/>
  <path class="st0" d="M1309.37,1139.88c5.16-6.81,6.16-10.87,15.15-10.35l.49,5.48c-7.5,1.98-6.45,5.86-15.64,4.88Z"/>
  <path class="st21" d="M1216.25,868.13c6.53-3.1,15.84-5.49,23.07-4.2,4.18,3.47-.18,14.46-1.83,19.25-13.96,40.65-41.12,75.86-70.5,106.64-1.26,1.32-4.45,4-5.83,5.07-10.19-.28-15.86-.5-25.9,1.52,17.89-21.24,30.89-37.86,46.53-60.68,7.6-12.4,14.01-23.65,20.08-36.95,3.02-6.62,9.7-27.04,14.38-30.65Z"/>
  <path class="st3" d="M1181.79,935.72c7.6-12.4,14.01-23.65,20.08-36.95,3.02-6.62,9.7-27.04,14.38-30.65,1.8,6.95-15.47,42.07-19.5,49.33-4.17,7.51-8.58,11.03-13.13,17.64l-1.83.63Z"/>
  <path class="st21" d="M833.21,894.89c-2.32-6.56-7.18-18.88-7.81-25.42-1.32-13.63,19.61-4.43,26.2-2.34,13.21,36.78,20.14,51.24,41.8,84.1,8.8,11.5,27.55,34.84,34.05,45.08-11.45-3.4-13.72-3.02-25.67-2.15-15.1-14.21-40.01-44.5-49.21-62.46-6.92-9.48-14.8-26.03-19.36-36.81Z"/>
  <path class="st3" d="M833.21,894.89c-2.32-6.56-7.18-18.88-7.81-25.42-1.32-13.63,19.61-4.43,26.2-2.34,13.21,36.78,20.14,51.24,41.8,84.1-14.11-4.39-26.84-36.59-33.98-49.87-2.42-3.93-9.18-28.7-13.07-29.94-23.09-7.33-12.31,14.55-10.31,20.27l-2.82,3.2Z"/>
  <path class="st13" d="M833.21,894.89l2.82-3.2c3.91,7.8,17.66,32.34,16.53,40.01-6.92-9.48-14.8-26.03-19.36-36.81Z"/>
  <path class="st26" d="M627.59,1120.88c46.49,5.67,71.16,7.9,118.2,5.4,5.82,7.24,10.64,13.33,17.14,20.03-6.28,1.33-12.99,2.41-19.35,3.54-34.29,6.25-98.8,6.6-131.25-5.66,2.96-13.36,4.56-14.13,15.26-23.32Z"/>
  <path class="st23" d="M1207.19,1074.96c2.31-.24,1.16-.34,3.45.3.81,1.92.77,2,.59,4.12-5.81,68.7-50.74,122.4-100.3,165.87-2.13.08-1.99.04-3.96-.82.15-3.09,6.92-9.73,9.13-12.66,26.77-35.66,48.4-75.28,62.5-117.64,3.71-11.14,5.57-22.93,9.58-33.99l.43-1.17c6.39-1.6,12.1-2.76,18.57-4Z"/>
  <path class="st23" d="M850.25,1072.73c8.99,1.7,14.73,2.78,23.09,6.43,2.75,7.3,4.53,15.87,6.52,23.35,11.43,43.05,31.89,83.03,57.11,119.58,4.82,6.99,10.75,14.5,14.56,22.1l.69.09.08,1.04c-2.95-.13-3.96-.8-6.31-2.9-52.18-46.84-88.02-98.71-95.75-169.69Z"/>
  <path class="st21" d="M1193.33,1045.71c20.91-10.41,44.99-26.99,62.6-42.46,4.09-3.05,18.59-22.48,22.35-23.18,31.73-5.91,19.28,12.36,13.24,23.84-6.84,12.21-29.69,32.1-41.26,38.91-26.52,20.06-31.57,19.25-60.67,26.4,1.57-7.86,2.96-15.53,3.74-23.51Z"/>
  <path class="st13" d="M1250.26,1042.82l-.44-1.42c9.69-6.55,33.99-35.61,41.7-37.48-6.84,12.21-29.69,32.1-41.26,38.91Z"/>
  <path class="st21" d="M845.54,1061.1c-29.51-16.74-71.22-43.38-79.55-79.77-.38-1.66.41-1.86,1.47-3.07,4.31-1.72,9.01-1.5,13.74-1.68,6.84.49,7.46.51,12.44,7.15,14.55,19.41,29.4,29.28,47.68,43.74,4.69,3.01,23.04,15.22,27.2,16.52,2.1,3.64,2.75,18.86,3.76,24.83-11.9-5.29-20.8-4.7-26.74-7.72Z"/>
  <path class="st3" d="M781.21,976.57c6.84.49,7.46.51,12.44,7.15,14.55,19.41,29.4,29.28,47.68,43.74l.61,4.95c-19.89-12.08-39.03-27.79-52.43-47.01-2.76-3.96-4.57-5.73-8.29-8.83Z"/>
  <path class="st3" d="M868.53,1043.99c2.1,3.64,2.75,18.86,3.76,24.83-11.9-5.29-20.8-4.7-26.74-7.72,12.31,1.21,13.97-2.56,19.85-12.3l3.14-4.8Z"/>
  <path class="st13" d="M841.33,1027.47c4.69,3.01,23.04,15.22,27.2,16.52l-3.14,4.8c-7.54-5.65-15.66-11.05-23.45-16.38l-.61-4.95Z"/>
  <path class="st2" d="M1008.65,1298.08c29.24-2.07,65.66,3.19,92.71,13.36-16.23,11.93-35.99,13.68-55.42,16.01-4,.22-8,.4-12,.54-25.02.86-63.96-1.02-83.27-19,17.11-6.23,39.84-9.36,57.99-10.91Z"/>
  <path class="st26" d="M1310.21,1160.37c39.18,5.4,57.08,4.63,95.31,4.19,12.21-1.94,19.19,2.44,24.53,15.08.86,2.05-.44,4.12-1.45,5.88-5.09,3.13-15.82,4.09-21.92,4.9-30.6,3.25-65.09,1.72-94.36-9.45-1.78-.68-5.41-2.49-6.12-4.41,5.34-7.39,4.59-7.21,4.01-16.18Z"/>
  <path class="st0" d="M1405.52,1164.56c12.21-1.94,19.19,2.44,24.53,15.08.86,2.05-.44,4.12-1.45,5.88-5.09,3.13-15.82,4.09-21.92,4.9,6.97-4.81,9.23-1.41,14.21-4.9l-3.7-.62c.82-1.36,5.55-2.41,7.56-3.05-6.07-13.31-5.14-13.83-19.24-17.29Z"/>
  <path class="st21" d="M1265.3,937.91c4.59-.11,22.06-1.58,24.68,2.16-.82,6.66-7.33,17.53-10.94,23.26-18.67,29.63-46.37,49.87-76.39,66.89-3.19,1.69-5.62,3.59-8.76,3.3-3.6-6.14-3.93-7.11-10.99-8.33l-1-.16s23.56-18.94,26.89-21.57c24.39-19.31,38.48-40.95,56.51-65.54Z"/>
  <path class="st21" d="M774.01,936.44c8.91-1.54,12.78-1.39,21.87-1.36,2.08.53,4.2.6,5.53,2.41,9.98,13.67,17.78,27.88,29.88,39.99,1.87,1.87,14.67,15.39,15.46,16.9,11.84,10.64,22.34,19.84,34.69,29.92-9.74,1.17-9.02.48-13.89,8.53-5.55-1.8-14.84-8.37-20.13-11.71-35.06-22.16-55.95-47.54-73.41-84.68Z"/>
  <path class="st3" d="M795.88,935.08c2.08.53,4.2.6,5.53,2.41,9.98,13.67,17.78,27.88,29.88,39.99,1.87,1.87,14.67,15.39,15.46,16.9-4.27.23-6.15-6.19-10.45-7.49l.57,1.69-.98.17c-8.55-6.52-29.71-34.59-34.9-45.15-1.78-3.63-1.67-3.59-4.34-7.44l-.76-1.08Z"/>
  <path class="st26" d="M752.25,1157.55c.34,8.23,0,10.38,4.94,17.19-34.64,14.45-63.17,16.62-100.17,11.97-5.57-.66-14.25-1.02-18.21-5.18-6.61-6.91,5.6-17.58,11.08-21.22l27.48,1.97c30.08.93,45.1-.89,74.88-4.73Z"/>
  <path class="st0" d="M649.89,1160.31l27.48,1.97c-10.5,3.02-27.09-3.52-33.77,4.4l-.37,2.29,1.44,1.32-.63,1.56c-.91,2.28-.95,2.96-1.3,5.36,3.07,5.38,22.56,3.5,29.84,6.52-.56,1.01-2.21,1.26-3.65,2.74-4.84-.31-7.01-.58-11.9.24-5.57-.66-14.25-1.02-18.21-5.18-6.61-6.91,5.6-17.58,11.08-21.22Z"/>
  <path class="st26" d="M1285.22,1185.9c3.56-1.25,6.74-2.64,10.19-4.12,29.85,13.14,46.65,16.28,78.54,18.71l13.65.43c2.5,2.39,5.11,4.7,7.13,7.51,2.13,4.95,4.44,11.2-.34,15.13-5.58,1.16-12.75.86-18.57.85-27.33-.07-55.82-4.89-79.08-19.96-3.01-6.84-6.96-12.66-11.51-18.54Z"/>
  <path class="st0" d="M1373.95,1200.48l13.65.43c2.5,2.39,5.11,4.7,7.13,7.51-6.59.82-15.72-4.04-20.78-7.93Z"/>
  <path class="st26" d="M685.6,1197.09c24.03-.2,60.3-4.83,80.67-18.68,3.59,1.78,7.37,3.57,10.89,5.45-1.48,2.24-9.69,15.74-10.69,16.58-21.24,18.06-72.88,23.78-97.85,18.88-.42-3.21-1.19-7.18-.7-10.28,5.74-9.38,5.93-12.26,17.68-11.95Z"/>
  <path class="st0" d="M667.92,1209.04c5.74-9.38,5.93-12.26,17.68-11.95-2.71,3.6-9.91,9.8-14.17,12.15-.61.34-2.7-.06-3.51-.2Z"/>
  <path class="st26" d="M1022.73,1423.85c1.92-2.68,3.42-5,5.78-7.32,12.11,6.83,19.29,11.68,24.68,25.34,2.72,19.12,1.9,41.28,1.33,60.72-5.66.15-12.75.55-18.28.48-5.39.12-11.3-.04-16.74-.05,1.79-4.31,3.44-9.36,5.02-13.81,10.42-30.63-10.98-44.28-1.79-65.35Z"/>
  <path class="st0" d="M1022.73,1423.85c1.92-2.68,3.42-5,5.78-7.32,12.11,6.83,19.29,11.68,24.68,25.34-10.08-.76-10.5-15.62-23.69-19.44-2.85,1.07-3.65,1.48-6.78,1.43Z"/>
  <path class="st0" d="M1024.53,1489.2c3.89,4.22,3.62,5.65,4.64,11.49l1.53.25c2.96.51,3.34.32,5.55,2.12-5.39.12-11.3-.04-16.74-.05,1.79-4.31,3.44-9.36,5.02-13.81Z"/>
  <path class="st21" d="M1289.44,1023.66c6.94-.54,13.49,2.1,19.54,5.03-11.44,35.87-40.8,45.79-74.06,55.12l-15.8,3.33c.56-5.29,1.02-10.6,1.36-15.91.33-.32,10.52-5.91,11.34-6.25,22.94-9.67,37.51-26.63,56.64-40.6l.99-.72Z"/>
  <path class="st21" d="M815.28,1078.15c-22.73-5.56-47.34-23.03-57.61-44.25-1.41-2.92-1.69-4.62-.59-7.71,3.67-4.07,18.04-6.28,21.99-3.28,10.32,8.94,17.17,17.15,28.8,25.4,8.02,5.42,29.19,17.77,34.44,22.18.47,6.14,0,9.37,1.09,15.64-7.66-2.02-21.17-5.18-28.12-7.98Z"/>
  <path class="st3" d="M815.28,1078.15c-22.73-5.56-47.34-23.03-57.61-44.25-1.41-2.92-1.69-4.62-.59-7.71,3.67-4.07,18.04-6.28,21.99-3.28,0,2.48-.09,3.89.27,6.36-2.39-1.97-3.07-2.34-4.35-5.28-3.61-1.93-1.81-1.64-5.49-1.43-8.19,7.21-1.63,20.07,4.24,26.46,10,10.91,36.58,26,50.37,28.48l-8.82.66Z"/>
  <path class="st3" d="M802.34,1048.58l5.53-.27c8.02,5.42,29.19,17.77,34.44,22.18.47,6.14,0,9.37,1.09,15.64-7.66-2.02-21.17-5.18-28.12-7.98l8.82-.66c6.01.21,10.65,5.03,15.47.11-.85-6-8.18-9.76-13.16-12.46-9.47-5.15-16.1-9.22-24.08-16.55Z"/>
  <path class="st13" d="M779.07,1022.9c10.32,8.94,17.17,17.15,28.8,25.4l-5.53.27c-8.51-6.4-15.31-11.99-22.99-19.31-.37-2.47-.27-3.88-.27-6.36Z"/>
  <path class="st8" d="M833.14,1122.13c7.41-.45,11.1-.24,18.33.87,4.44,7.32,8.8,17.11,12.6,24.79,14.72,29.76,33.55,55.61,55.87,80.11,4.36,4.8,16.99,16.94,19.61,21.96-1.38-.29-3.93-.8-5.11-1.57-47.05-30.64-84.45-72.58-101.3-126.17Z"/>
  <path class="st11" d="M1220.16,1123.79c4.02-.24,4.59-.93,7.63.61.19.63.52,1.47.31,2.13-16.33,52.96-57.5,91.13-101.63,122.09-4,2.03-2.03,1.79-5.98,1.46l-.36-1.31c1.57-2.38,14.67-14.29,17.8-17.52,9.49-9.59,18.18-20.02,26.73-30.4,18.1-21.96,30.21-47.25,43.68-72.09,2.05-3.76,7.78-4.14,11.81-4.97Z"/>
  <path class="st21" d="M1293.81,1068.1c6.53-.54,13.14,4.97,17.77,9.03-10.27,18.94-61.78,45.59-80.23,37.86-6.16-1.37-12.31-.34-18.43.58l4.7-18.53c33.1-7.64,47.34-10.61,76.18-28.94Z"/>
  <path class="st21" d="M763.11,1066.93c12.86-5.81,13.8,3.88,25.14,9.49,18.3,9.05,36.33,14.33,56.13,18.94l2.64,10.43,2.75,7.74c-6.72-.65-11.04-.92-17.77-.91-13.16,8.95-67-18.47-75.63-33.34-6.78-5.5,2.35-9.76,6.75-12.36Z"/>
  <path class="st3" d="M763.11,1066.93c12.86-5.81,13.8,3.88,25.14,9.49,18.3,9.05,36.33,14.33,56.13,18.94l2.64,10.43-1.62.21c-.8-3.29-1.02-4.96-2.73-7.93-2.9-2.45-8.94-4.07-12.55-4.13,3.27,3.43,5.65,1.84,10.33,5.63.83,4.16-2.06,8.03-5.88,9.45,1.09-2.99,4.06-5.53,6.4-8.05-22.55-11.92-41.76-11.7-62.08-25.07-7.15-6.92-8.91-4.51-15.79-8.97Z"/>
  <path class="st13" d="M756.37,1079.28c-6.78-5.5,2.35-9.76,6.75-12.36,6.87,4.46,8.64,2.06,15.79,8.97-3.16.05-20.8-.66-23.23-1.38.36,1.6.95,3.25.7,4.76Z"/>
  <path class="st13" d="M847.02,1105.79l2.75,7.74c-6.72-.65-11.04-.92-17.77-.91,5.42-2.82,7.36-2.77,13.39-6.63l1.62-.21Z"/>
  <path class="st21" d="M1293.55,1107.04l9.87,3.2,1.09.81c2.78,1.59,4.22,2.06,5.87,4.8,1.21,9.16-11.73,19.15-18.52,23.92-19.04,11.04-42.02,10.74-63.2,8.22,2.75-8.28,5.83-12.69,8.19-22.32,14.24-2.18,29.49-7.83,42.87-13.14l13.82-5.5Z"/>
  <path class="st3" d="M1304.51,1111.05c2.78,1.59,4.22,2.06,5.87,4.8,1.21,9.16-11.73,19.15-18.52,23.92.36-13.27,16.92-11.82,12.65-28.73Z"/>
  <path class="st13" d="M1293.55,1107.04l9.87,3.2c-5.19,1.76-18.79,4.83-23.7,2.3l13.82-5.5Z"/>
  <path class="st21" d="M817.5,1147.23c-25.86,2.23-50.56-6.45-64.12-29.57-4.1-6.99,12.7-12.08,17.05-13.76,15.94,7.43,27.64,12.37,44.36,17.69,2.47.57,7.97,1.69,10.13,2.44l8.92,22.06c-6.48.82-9.83,1.16-16.34,1.15Z"/>
  <path class="st3" d="M814.78,1121.59c2.47.57,7.97,1.69,10.13,2.44l8.92,22.06c-6.48.82-9.83,1.16-16.34,1.15,16.11-5.89,3.25-15.61-1.86-24.17l-.86-1.48Z"/>
  <path class="st26" d="M1289.55,1212.36c.88.03,20.99,9.86,25.54,11.97,12.84,5.96,36.17,3.49,46.01,12.98,3.48,3.35-.2,15.46-3.68,18.11l-4.22-.63c-30.47-4.01-54.65-14.65-77.55-34.62,5.21-2.35,9.05-4.82,13.91-7.81Z"/>
  <path class="st26" d="M770.77,1210.54c5.01.1,10.43,4.24,14.92,6.97-17.75,20.17-45.09,27.48-70.21,33.16l-10.14,1.8c-2.25-6.19-3.8-13.05-2.07-19.5,2.99-3.42,8.05-3.87,12.73-4.46,22.21-2.77,35.14-7.65,54.76-17.98Z"/>
  <path class="st13" d="M1289.25,1150.99c36.07,25.77-36.19,37.08-50.25,26.82-1.12-.82-1.1-3.53-1.29-4.84-1.94-5.7-13.83-5.75-18.79-6.1l6.85-10.15c22.23,3.2,42.54,2.39,63.47-5.73Z"/>
  <path class="st20" d="M1030.54,1238.18c7.61,6.95,17.4,19.64,23.08,28.31-4.32,4.27-18.68,19.28-23.67,20.22-3.49-1.05-1.88-1.14-5.03-.18-1.34,1.85-1.05,1.05-1.48,3.22-6.43,0-14.79-10.01-20.02-15.09-6.45,6.81-13.4,14.92-21.13,19.98,5.11-9.08,13.62-17.99,20.72-25.77l3.7-3.83c8.44-8.54,15.99-19.27,23.83-26.85Z"/>
  <path class="st2" d="M1003.01,1268.86c4.51,4.06,18.86,16.11,20.43,20.89-6.43,0-14.79-10.01-20.02-15.09-6.45,6.81-13.4,14.92-21.13,19.98,5.11-9.08,13.62-17.99,20.72-25.77Z"/>
  <path class="st15" d="M1006.7,1265.04c6.33,6.38,16.12,16.89,23.24,21.67-3.49-1.05-1.88-1.14-5.03-.18-1.34,1.85-1.05,1.05-1.48,3.22-1.58-4.78-15.92-16.82-20.43-20.89l3.7-3.83Z"/>
  <path class="st7" d="M1030.72,1247.56c3.46,2.09,15.83,13.65,16.92,17.84-3.76.53-12.28,9.89-15.67,13.1-5.6-.27-13.94-10.07-16.73-14.65,1.57-2.62,12.72-13.42,15.48-16.29Z"/>
  <path class="st13" d="M774.13,1148.87c10.08,4.4,15.45,5.29,26.4,6.84,12.91.79,23.24.57,36.11-1.42l6.06,11.22c-6.62-.14-11.19-.91-16.75,2.69-1.94,2.72-1.75,3.64-2,6.93-10.1,10.26-43.18,2.18-54.62-5.37-3.29-2-4.78-3.16-5.89-6.8.43-6.06,6.07-9.84,10.69-14.1Z"/>
  <path class="st3" d="M774.13,1148.87c10.08,4.4,15.45,5.29,26.4,6.84-4,1.22-8.25,2.22-12.43,2.49-6.57.43-13.55-5.98-18.58-.59-1.47,5.05-.52,6.76-.19,12.16-3.29-2-4.78-3.16-5.89-6.8.43-6.06,6.07-9.84,10.69-14.1Z"/>
  <path class="st26" d="M1263.84,1248.71c7.13-5.65,9.69-6.66,12.06-15.49,2.97,1.9,5.96,3.93,8.91,5.88l6.79,3.83c12.53,6.59,23.78,10.39,36.01,16.17,1.57,4.99,3.79,13.65-.94,17.7l-2.99-.22c-16.63-3.02-31.51-10.08-46.17-18.15-5.57-3.44-8.51-5.62-13.66-9.72Z"/>
  <path class="st0" d="M1291.59,1242.93c12.53,6.59,23.78,10.39,36.01,16.17,1.57,4.99,3.79,13.65-.94,17.7l-2.99-.22c2.32-1.72,4.71-7.67,4.44-8.83-3.63-15.46-24.03-7.48-36.51-24.82Z"/>
  <path class="st0" d="M1263.84,1248.71c7.13-5.65,9.69-6.66,12.06-15.49,2.97,1.9,5.96,3.93,8.91,5.88-13.82.11-13.39,10.81-7.31,19.33-5.57-3.44-8.51-5.62-13.66-9.72Z"/>
  <path class="st26" d="M784.9,1231.89c4.48,6.71,6.47,9.23,12.19,14.76-13.43,11.89-34.5,20.71-51.42,25.81l-11.05,2.21c-.41-5.05-.35-12.1-.44-17.3,8.43-4.61,18.84-8.29,27.66-12.51,8.29-3.97,15.23-8.2,23.06-12.97Z"/>
  <path class="st13" d="M1233.5,1186.83c16.24,5.76,25.17,4.78,41.91,2.43l9.63,12.9c-4.15,3.1-6.95,4.64-11.41,7.13-1.22.43-2.47.81-3.72,1.15-16.73,4.42-33.89-1.46-48.27-9.82,4.22-5.55,7.04-8.71,11.87-13.8Z"/>
  <path class="st23" d="M833.81,1174.6l12.78-.32c5.9,5.76,15.09,18.06,20.79,24.86,9.55,11.31,19.93,21.9,31.05,31.66,5.81,5.15,27.16,20.37,29.35,24.74-20.93-4-89.7-61.14-93.97-80.94Z"/>
  <path class="st23" d="M1215.91,1175.46c4.14.45,9.08.59,13.31.81-22.56,32.34-53.86,57.26-88.05,76.44-3.1,2.23-3.67,3.33-7.17,2.28l.68.87-1.4.08,2-.56-2.06.05c.93-2.47,27.24-23.18,31.08-25.94,20.64-14.83,34-37.5,51.6-54.04Z"/>
  <path class="st13" d="M826.4,1186.47c1.67-.44,1.48-.2,3.37.08,4.43,3.45,6.9,7.47,10.22,12.02-16.53,8.26-27.96,14.59-46.9,9.72-6.63-2.34-9.95-3.72-15.77-7.6,2.46-4.69,6.22-9.12,9.49-13.36,16.27,2.57,23.31,1.91,39.59-.86Z"/>
  <path class="st26" d="M1025.01,1403.88l1.02.16c.1,2.43-1.79,3.68-3.6,6.39-9.8,14.71-9.16,28.02-5.85,44.17-8.95-.06-11.32.2-18.89-4.48-6.33-6.49-7.71-9.06-10.89-17.39.65-1.41,1.37-2.77,2.15-4.12,8.58-14.4,20.12-20.99,36.04-24.74Z"/>
  <path class="st20" d="M976.96,1246.44c6.01.97,16.51,14.93,21.65,20.32-7.68,7.92-14.82,16.36-21.36,25.26-6.52-1.35-15.18-10.92-21.49-15.95,6.7-9.54,13.85-20.88,21.2-29.63Z"/>
  <path class="st19" d="M966.58,1267.52c9.64-12.47,16.84-14.77,25.3.03,0,2.82.32,1.51-1.08,4.04l-5.75,6.04c-2.57,2.62-5.51,6.38-8.7,7.27l-1.13-.91c-4.18-4-8.22-6.05-11.02-10.96-.14-3.18-.03-2.25,2.38-5.51Z"/>
  <path class="st15" d="M966.58,1267.52c9.64-12.47,16.84-14.77,25.3.03,0,2.82.32,1.51-1.08,4.04-1.75-2.13-4.51-6.35-6.62-6.83-4.13.98-4.33,1.6-8.69,1.37l-.92,1.31-7.98.08Z"/>
  <path class="st15" d="M966.58,1267.52l7.98-.08c.65,3.18.24,1.28.11,3.2-.39,5.79,3.49,7.35.55,13.35-4.18-4-8.22-6.05-11.02-10.96-.14-3.18-.03-2.25,2.38-5.51Z"/>
  <path class="st7" d="M984.18,1264.76c2.11.47,4.87,4.7,6.62,6.83l-5.75,6.04c-2.95-2.76-5.01-3.53-4.46-7.56,1.61-1.94,2.44-2.99,3.59-5.3Z"/>
  <path class="st20" d="M907.17,1291.07c4.52-7.61,14.12-24.03,21.25-28.79,3.04-.06,5.47,2.44,8.47,4.51l4.91,3.93c2.62,2.53,6.16,5.15,6.73,8.52-.99,3.04-1.45,3.29-3.39,5.77-2.3,4.99-13.19,17.94-17.98,21.68l-19.98-15.63Z"/>
  <path class="st15" d="M929.25,1271.59c2.56,1.7,4.99,3.29,7.45,5.13l1.18,1.04c6.17,18.01-18.67,21.38-18.27,4.71.08-3.47,6.84-8.97,9.65-10.89Z"/>
  <path class="st27" d="M941.79,1270.72c2.62,2.53,6.16,5.15,6.73,8.52-.99,3.04-1.45,3.29-3.39,5.77-2.84-3.44-3.82-4.4-7.25-7.25l-1.18-1.04c1.37-3.17,2.49-3.77,5.09-6Z"/>
  <path class="st27" d="M936.89,1266.78l4.91,3.93c-2.61,2.23-3.73,2.83-5.09,6-2.46-1.84-4.89-3.43-7.45-5.13l.39-1.31c2.64-1.56,4.47-2.29,7.25-3.49Z"/>
  <path class="st26" d="M1261.89,1266.88l.45-7.99c-.69-.21,40.9,23.68,41.16,23.9,3.43,1.68,5.49,10.04,6.88,14.03-22.45-2.82-40.81-8.21-59.84-20.83,5.79-2.78,7.44-4.03,11.35-9.11Z"/>
  <path class="st0" d="M1261.89,1266.88l.45-7.99c-.69-.21,40.9,23.68,41.16,23.9-5.52.68-32.92-15.31-41.61-15.91Z"/>
  <path class="st26" d="M798.32,1256.76l.62.59c1.97,8.64,4.14,11.4,10.63,16.96-13.42,11.01-30.29,15.19-46.95,18.66l-9.41,1.37c1.11-5.36,2.15-8.32,3.92-13.39,12.51-9.23,27.63-14.21,41.18-24.19Z"/>
  <path class="st23" d="M858.13,1220.14c4.5-.46,20.77,15.09,25.77,18.78,6.75,4.93,13.71,9.56,20.86,13.88,2.72,1.66,10.46,5.68,11.38,7.69-2.24,2.09-5.85,2.5-8.98,3.22-21.38-3.91-49.24-22.89-60.76-41.44l11.73-2.13Z"/>
  <path class="st23" d="M1198.56,1222.41c6.14-.82,9.96.2,15.81,1.51-14.59,20.64-33.58,30.59-56.76,39.61-7.89,2.43-7.69,3.19-14.18-2.33,20.4-11.38,36.94-24.4,55.12-38.79Z"/>
  <path class="st7" d="M1094.34,1257.56c3.66,3.98,8.26,11.29,11.41,15.99l.8,2.3c-2.68,4.12-15.31,13.85-19.54,15.53-.76.8-1.28.92-2.3,1.48-5.14-2.31-14.11-15.27-17.19-20.23l-.19-4.4c2.2-3.64,6.82-5.33,10.76-7.37,3.08-3.13,2.95-3.4,6.96-2.62l1.45-1.02,1.44,1.26c3.39.11,3.33.02,6.4-.92Z"/>
  <path class="st20" d="M1067.51,1272.62l-.19-4.4c2.2-3.64,6.82-5.33,10.76-7.37-3.33,4.03-3.61,3.01-3.63,7.05l-2.39,1.85c-.46,6.39,7.06,12.36,12.77,14.07,3.59-.17,4.54-3.02,8.31-5.01.34-.52,1.48-1.14,2.09-1.56,3.15.05,7.71-2.3,10.52-3.71l.8,2.3c-2.68,4.12-15.31,13.85-19.54,15.53-.76.8-1.28.92-2.3,1.48-5.14-2.31-14.11-15.27-17.19-20.23Z"/>
  <path class="st27" d="M1105.75,1273.55l.8,2.3c-2.68,4.12-15.31,13.85-19.54,15.53l-1.39-1.56-.54.68.61-2.2c.65-.43,1.29-.87,1.92-1.32,4.13-2.96,4.78-3.68,5.55-8.16.34-.52,1.48-1.14,2.09-1.56,3.15.05,7.71-2.3,10.52-3.71Z"/>
  <path class="st15" d="M1094.34,1257.56c3.66,3.98,8.26,11.29,11.41,15.99-2.8,1.41-7.37,3.76-10.52,3.71l1.54-4.09.34-1.36c-3.83-5.88-16.09-7.06-22.66-3.9.02-4.04.3-3.02,3.63-7.05,3.08-3.13,2.95-3.4,6.96-2.62l1.45-1.02,1.44,1.26c3.39.11,3.33.02,6.4-.92Z"/>
  <path class="st20" d="M1094.34,1257.56c3.66,3.98,8.26,11.29,11.41,15.99-2.8,1.41-7.37,3.76-10.52,3.71l1.54-4.09,1.79-.34.6-1.34c-2.86-6.23-6.61-8.52-11.22-13,3.39.11,3.33.02,6.4-.92Z"/>
  <path class="st3" d="M1215.55,1205.9c14.65,11.53,28.7,14.09,46.56,15.6,1.11,3.44,2.96,7.83,4.29,11.29-3.18,2.31-5.99,3.7-9.44,5.54-11.45,1.89-25.44-4.6-35.48-9.24,6.35-12.85-2.89-12.95-13.33-15.85l7.41-7.34Z"/>
  <path class="st10" d="M846.11,1205.94c2.49.37,3.7,1.15,4.62,3.26-1.37,3.12-10.73,6.93-13.42,8.99-2.08,1.6,2.37,4.59.05,9.5-7.98,6.61-23.84,8.83-34.05,8.56-11.24-4.17-7.97-8.77-2.98-16.92,19.73-1.46,27.92-4.49,45.77-13.39Z"/>
  <path class="st21" d="M1214.24,1261.55c6.84,4.02,33.7,14.38,25.83,24.49-10.72,5.44-28.44,1.79-38.74-3.31-1.25-5.98-4.35-7.56-4.15-10.81,4.52-1.78,4.14-.04,8.91-.81l1.74-.3c2.63-3.44,4.2-5.5,6.41-9.27Z"/>
  <path class="st15" d="M1201.33,1282.74c-1.25-5.98-4.35-7.56-4.15-10.81,4.52-1.78,4.14-.04,8.91-.81l1.74-.3c-3.53,5.1-4.19,6.08-6.5,11.91Z"/>
  <path class="st21" d="M846.71,1259.84l.47.83c6.31,10.99,18.9,19.5.44,25.84-8.13.72-22.12,3.05-27.59-4.21-1.69-9.76,11.55-14.52,18.68-18l8-4.46Z"/>
  <path class="st3" d="M846.71,1259.84l.47.83c6.31,10.99,18.9,19.5.44,25.84,2.91-5.74,3.46-8.31.93-14.14-1.18-3.26-3.1-3.63-6.51-5.88l-3.32-2.18,8-4.46Z"/>
  <path class="st13" d="M842.03,1266.49c3.41,2.26,5.33,2.62,6.51,5.88-1.41,2.47-2.1,3.99-3.22,6.54-3.24,2.35-1.6,2.06-4.85,1.89-2.45-3.23-2.24-11.26,1.55-14.3Z"/>
  <path class="st13" d="M1216.54,1236.69c12.92,3.95,15.28,7.1,32.91,10.97,1.31,5.76,3.04,10.63.9,16.15-2.82,2.35-1.26,1.71-4.81,2.06-13.8-3.77-26.54-10.65-37.28-20.1,2.71-3.06,5.48-6.09,8.29-9.07Z"/>
  <path class="st13" d="M843.19,1235.04c23.49,11.32-17.36,25.66-26.17,28.09l-2.95.64c-3.18-1.21-1.88-.24-3.88-3.22-.67-5.42.94-9.65,2.38-15,13.2-3.05,18.45-4.67,30.62-10.52Z"/>
  <path class="st26" d="M1042.7,1403.86c21.17-1.2,38.59,16.88,17.67,33.29-9.49-13.72-14.15-18.52-27.48-28.51l9.81-4.78Z"/>
  <path class="st23" d="M1198.87,1251.34c2.28.69,5.19,4.15,6.12,6.34-2.58,10.89-31.55,16.91-41.64,17.89-2.32.34-4,.57-5.58-1.04,1.6-2.27,16.87-8.68,20.77-10.72,7.67-4.02,13.19-7.68,20.32-12.46Z"/>
  <path class="st27" d="M1114.74,1278.97c6.03-4.82,12.17-9.51,18.43-14.03l5.51,10.73c2.79,3.64,5.12,7.41,7.6,11.25-1.33,4.54-.67,4.87-3.76,6.95l-.9-.52.71-1.07c-2.28-1.71-2.24-2.75-4.12-4.72-1.97,1.29-2.77,2.17-4.49,3.76-3.13-.05-1.61.41-4.4-2.24.24-2.51,1.93-3.29,4.22-5.63l-.4-1.44-2.01-.8c-2.48,1.41-3.01,1.47-5.85,1.74l-1.17-.15c-1.58,1.08-1.77,1.32-2.99,2.75-3.15-1.31-4.06-3.55-6.38-6.59Z"/>
  <path class="st12" d="M1138.68,1275.67c2.79,3.64,5.12,7.41,7.6,11.25-1.33,4.54-.67,4.87-3.76,6.95l-.9-.52.71-1.07c-2.28-1.71-2.24-2.75-4.12-4.72-1.97,1.29-2.77,2.17-4.49,3.76-3.13-.05-1.61.41-4.4-2.24.24-2.51,1.93-3.29,4.22-5.63l-.4-1.44-2.01-.8c-2.48,1.41-3.01,1.47-5.85,1.74,1.89-1.67,3.85-4.34,5.5-6.38,3.85-1.41,1.86-1.22,6.23-.05l1.67-.85Z"/>
  <path class="st20" d="M1138.68,1275.67c2.79,3.64,5.12,7.41,7.6,11.25-1.33,4.54-.67,4.87-3.76,6.95l-.9-.52.71-1.07,1.7-2.83c-1.11-4.95-4.84-6.15-7.02-12.94l1.67-.85Z"/>
  <path class="st14" d="M1054.8,385.63c1.7,2.02.97,1.31,1.41,4.73-1.02,3.67-17.45,16.02-21.31,19.32-5.99-5.4-13.04-9.89-19.77-14.31l-1.31-.28c-.63-3.02-.87-5.3,1.19-7.76,5.57,2.63,14.73,9.91,20.02,13.84,6.45-5.22,13.24-10.4,19.78-15.53Z"/>
  <path class="st13" d="M1198.77,1291.45c12.11,5.51,16.29,5.25,29.41,5.76-2.55,2.74-5.39,5.54-8.02,8.23-9.15,4.56-20.22-2.92-28.15-7.29,2.41-2.19,4.49-4.36,6.76-6.7Z"/>
  <path class="st13" d="M861.36,1290.68c2.64.7,4.17,2.56,4.83,5.01-2.81,6.48-18.31,9.55-24.87,9.15-3.15-2.45-6.23-5.95-9.02-8.88,10.47-.45,19.25-1.7,29.06-5.28Z"/>
  <path class="st23" d="M853.7,1255.75l6.54-5.53c7.52,5.38,15.41,10.25,23.61,14.55-3.28,2.53-5.48,2.91-8.35,5.56-11.14-4.07-14.2-6.06-21.8-14.58Z"/>
  <path class="st27" d="M864.5,1276.36c9.38,2.83,21.34,4.82,31.11,6.77.97,2.07.25,3.06-.23,5.84-13.36.02-26.53,4.46-30.88-12.61Z"/>
  <path class="st27" d="M1193.25,1278.81l1.01.38c-.85,13.77-21.7,11.37-30.79,11.03-1.4-2.53-1.34-2.46-1.95-5.29l1.05-.8c11.18.27,19.94-2.57,30.69-5.33Z"/>
  <path class="st2" d="M1109.91,1281.42c1.02.82,1.94,1.76,2.76,2.76,3.33,4,15.59,23.31,15.1,28.27-4.96-2.09-10.04-12.56-12.85-17.58-1.57-2.66-4.18-6.2-5.99-8.83-4.41,3.73-11.67,11.22-17.21,11.36,1.16-5.1,13.6-13.02,18.18-15.99Z"/>
  <path class="st2" d="M1019.8,1236.46c1.52.7.76.16,2.08,1.88-1.86,5.64-15.29,18.76-20.01,23.73-4.33-4.65-9.51-9.53-14.09-14.02-2.06-1.84-1.97-1.91-3.4-4.34l.46-.82c4.04.46,13.34,9.51,16.98,12.75,5.65-5.19,12.56-13.3,17.97-19.17Z"/>
  <path class="st2" d="M1057.86,1270.33c4.32,3.25,15.78,18.25,17.66,23.53l-1.01.24c-5.2-3.41-8.72-8.29-12.7-13.09l-3.28-3.04c-6.27-.16-12.32,9.29-21.19,13.96l-1.24.64c4.62-7.71,14.62-16.73,21.76-22.25Z"/>
  <path class="st27" d="M1085.87,1247.4c2.24,1.59,2.47,1.83,4.37,3.83,1.34,2.07,2.8,4.23,4.1,6.32-3.07.94-3.01,1.03-6.4.92l-1.44-1.26-1.45,1.02c-4.02-.78-3.88-.51-6.96,2.62-3.94,2.04-8.56,3.73-10.76,7.37l.19,4.4c-2.54-2.4-2.87-2.66-4.83-5.48,2.79-3.85,18.83-16.6,23.19-19.74Z"/>
  <path class="st27" d="M1090.24,1251.24c1.34,2.07,2.8,4.23,4.1,6.32-3.07.94-3.01,1.03-6.4.92l-1.44-1.26c1.35-4.62.25-3.23,3.74-5.98Z"/>
  <path class="st20" d="M1146.28,1286.92c2.38,2.95,5.35,5.94,6.21,9.51-.75.93-.97,1.38-1.9,2.09-4.97,3.71-10.49,7.13-15.72,10.52l-5.09-8.63c4.57-2.13,8.39-3.44,11.85-7.04l.9.52c3.09-2.09,2.43-2.41,3.76-6.95Z"/>
  <path class="st27" d="M1146.28,1286.92c2.38,2.95,5.35,5.94,6.21,9.51-.75.93-.97,1.38-1.9,2.09-2.72-1.31-4.43-.97-7.9-2.38l-.16-2.27c3.09-2.09,2.43-2.41,3.76-6.95Z"/>
  <path class="st2" d="M1038.8,1237.33c6.81,1.19,13.09,12.8,18.92,19.05l.85.91c4.21-4,11.71-11.55,17.03-13.37l1.23.98-.76,1.77-17.99,16.17c-6.4-8.01-15.03-16.26-19.29-25.51Z"/>
  <path class="st2" d="M967.49,1245.74l.84.69c.44,4.56-12.78,21.15-16,25.36-4.44-3.62-8.92-7.18-13.45-10.69-2.34-2.12-1.87-.93-2.63-3.48,4.08-.38,12.05,5.64,15.76,8.06,4.49-6.54,9.54-14.92,15.49-19.93Z"/>
  <path class="st2" d="M1096.53,1247.69c6.6,2.24,11.5,13.03,16.63,19.58,3.29-2.68,10.02-9.75,13.85-7.89l-.63,2.14c-4.77,4.02-9.41,7.4-14.42,11.08-4.65-6.25-14.17-17.79-15.42-24.91Z"/>
  <path class="st2" d="M952.84,1282.64c3.65,1.43,12.96,9.64,13.9,13.42l-1.69.54c-5.83-1.76-5.79-8.02-11.83-7.58l-2.02,2.48c-3.69,5.27-5.78,8.05-11.03,11.76l-.37-.79c3.49-7.78,7.86-13.14,13.04-19.83Z"/>
  <path class="st0" d="M1488.24,1025.53c10.96,3.55,14.61,8.76,18.84,19.23-2.33,1.99-4.96,4.41-7.49,6.03,2.14-7.18,2.42-10.14-2.95-15.53-2.56-2.02-5.24-3.8-7.86-5.8l.71-.72,2.77.56.35-.5-2.17-.67-.24-1.39-1.97-1.21Z"/>
  <path class="st27" d="M883.84,1264.77c5.64,2.38,14.08,5.59,18.87,8.96-8.28-.54-19.2-1.42-27.22-3.4,2.86-2.65,5.07-3.03,8.35-5.56Z"/>
  <path class="st0" d="M756.4,1001.13c8.06,3.21,8.78,4.39,13.85,11.36l-8.92,1.8c-2.39-3.8-2.09-5.94-5.98-7.81-.75-2.39-.13-2.36,1.05-5.35Z"/>
  <path class="st0" d="M1185.46,806.67c2.57-4.18,4.98-7.39,7.88-11.29,1.65,4.19,1.01,5.05-1,9.62-.58,1.32-1.17,2.64-1.78,3.95-1.98,3.03-4.85,6.94-.96,9.88-1.4,1.12-.94.76-2.74,1.36-1.74-2.37-1.3-9.97-1.41-13.52Z"/>
  <path class="st2" d="M1140.49,1266.61c6.04,3.05,13.58,15.65,14.99,22.31-6.32-3.59-13.41-15.19-14.99-22.31Z"/>
  <path class="st27" d="M1171.93,1298.97c2.28-.47,6.08-.48,8.37.32l.28.98c-1.92,2.47-5.01,3.16-8.05,4.29-4.37,1.07-5.17,1.81-8.61-1.23l.14-1.96c3.06-2.73,2.8-1.86,7.87-2.39Z"/>
  <path class="st2" d="M1153.85,1303.05l.86,1.08c-1.16,5.08-12.08,11.32-16.67,13.24-1.15-1.23-.85-.5-.87-2.21,3.93-4.72,11.35-8.91,16.68-12.11Z"/>
  <path class="st27" d="M889.01,1297.07h3.44s1.87,1.89,1.87,1.89c.59,2.95.84,1.6-.8,4.15-3.4,1.22-3.47.52-7.64-.24l-10.94-3.2c4.71-.77,9.4-1.64,14.08-2.61Z"/>
  <path class="st2" d="M902.82,1296.58c6.93,1.81,14.61,9.33,18.9,14.95-6.71-.35-16.04-9.15-18.9-14.95Z"/>
  <path class="st2" d="M912.41,1268.36l.75.71c.39,4.22-6.78,13.18-9.46,16.93-3.92-4.95,4.86-14.57,8.72-17.64Z"/>
  <path class="st27" d="M517.23,1290.26c8.3,4.24,16.68,8.34,25.13,12.28-4.12-.3-4.94-.52-8.89-1.88l-.99-.35-1,1.6c-6.45-3.11-9.45-6.56-14.25-11.66Z"/>
  <path class="st24" d="M762.3,1055.59l.63,2.27c-1.73,3.54-3.07,4.09-6.38,6.53l-.89-1.31c1-2.87,4.29-5.32,6.64-7.48Z"/>
  <path class="st16" d="M1159.33,1503.7c.55-.05,1.11-.12,1.67-.17,13.64-1.12,27.1,3.66,36.97,13.14,5.85,5.58,11.34,14.19,12.54,22.15,2.88,19.06,1.77,43.11,1.77,62.71l.21,117.45-33.22.03c.15-9.35,1.69-69.55-.74-72.38l-4.32-.3-22.95.17.12,72.52-32.39-.11c-.24-37.05-.28-74.11-.11-111.17-.08-21.26-1.02-43.81.66-64.87,1.67-21.13,20.18-35.54,39.8-39.18Z"/>
  <path class="st4" d="M1159.86,1511.76c19.92-1.87,40.6,9.88,43.04,30.59,2.19,18.56,1.31,39.06,1.28,57.8l-.14,106.61-16.36.19c-.13-23.75.41-48.05.12-71.61-4.25-.42-9.45-.33-13.8-.36h-29.98c-1.73,15.65-.7,54.87-.72,71.98l-16.69-.15c.25-36.7.29-73.43.11-110.14,0-5.3,0-10.69-.03-16-.16-29.19-4.54-61.68,33.17-68.9Z"/>
  <path class="st1" d="M1160.41,1529.88c1.42-.12,2.86-.19,4.29-.23,5.64-.14,11.08,2.09,14.99,6.15,3.09,3.14,6.71,9.49,7.08,13.64,1.99,22.48.82,50.3.62,72.8l-18.01.4c-8.53.17-16.78-.13-25.3-.39-.43-16.24-3.26-65.61,1.88-78.48,3-7.52,7.27-10.62,14.46-13.9Z"/>
  <path class="st16" d="M1005.97,1522.22c10.07.12,19.44.29,29.53-.25,11.67,30.17,22.59,61.18,34.42,91.05l.22-90.66c10.06-.2,20.83,0,30.96.02-.57,65.4.73,131.54-.28,196.79-4.55.92-23.4.53-28.94.5-9.18-27.3-23.33-63.85-34.25-90.67-.96,28.2.05,61.78.31,90.3l-32.13.05c.63-65.64-.71-131.61.17-197.13Z"/>
  <path class="st4" d="M1078.53,1530.34l14.07.19c.51,13.5-.04,26.96.09,40.48.39,44.65.32,89.29-.22,133.93l-.25,1.6c-2.73,1.49-10.73,1.36-14.69,1.6-10.8-27.15-27.78-75.92-40-105.33-.62-.36-1.24-.73-1.87-1.09-3.93-.09-2.69-.83-4.97.96-1.09,6.67-.58,26.09-.61,33.7-.21,23.7-.17,47.38.11,71.07l-16.36.08-.06-177.08,16.77.04c4.05,11.1,37.74,105.4,42.37,108.16,3.44-.13,2.03.46,4.52-1.35,1.22-7.55,1.17-33.24,1.15-42.04-.14-21.64-.15-43.28-.05-64.92Z"/>
  <path class="st16" d="M895.79,1509.99c9.9,1.38,19.78,2.88,29.64,4.52-2.56,52.21.9,107.32-.24,159.78-.54,24.78,32.15,22.18,32.19,1.98.11-52.11,1.19-104.7.32-156.8,10.41.77,21.81,2.18,32.24,3.29-.47,7.89-.37,16.05-.4,23.98l-.13,80.78c.02,5.61-.31,12.46.13,17.97,2.7,34.12-1.71,78.73-48.16,78.39-12.43,0-24.31-5.06-32.93-14.01-5.05-5.28-10.29-13.75-11.26-20.95-2.71-20.15-1.54-44.81-1.49-65.5l.08-113.42Z"/>
  <path class="st4" d="M903.2,1519.58c4.23.35,9,1.02,13.27,1.52l.06,103.45c0,17.27-.27,34.28.63,51.54,1.05,20.14,24.35,32.2,39.52,17.6,3.71-3.52,6.27-8.09,7.33-13.09,2.23-10.42,1.63-41.94,1.68-54.48l.56-97.4c5.13.82,9.69.95,14.86,1.21l-.17,12.76v89.55c.03,10.28.77,38.91-.72,48.04-1.13,7.22-4.29,13.96-9.11,19.44-18.73,21.1-59.93,15.7-65.91-14.56-3.15-15.95-1.8-39.66-1.84-56.63l-.16-108.95Z"/>
  <path class="st16" d="M789.89,1476.51c31.17,11.44,64.25,21.14,95.74,31.93-.33,11.03-.5,22.06-.51,33.11-20.82-5.96-41.53-12.34-62.1-19.13-.7,22.4.3,44.87-.78,67.49l39.49,9.36-.15,29.82c-4.98-.63-11.79-2.11-16.88-3.08-7.16-1.64-14.46-3.65-21.58-5.52l.03,104.46c-10.84-.29-22.65-.08-33.56-.1l-.1-160.19c0-27.81-.75-60.63.41-88.14Z"/>
  <path class="st4" d="M797.68,1496.5c-.12-2.83-.41-4.24.65-6.89,3.07-.97,5.29.34,8.88,1.33,16.09,4.95,32.15,10.46,48.09,15.91,6.69,2.28,16.07,4.81,22.35,7.31l-.45,13.87c-14.1-4.56-49.84-17.02-62.03-19.26-1.16,28.99-1.32,58.02-.48,87.02,11.42,4.01,27.68,7.16,39.82,10.33l-.61,9.68c-9.76-2.17-19.49-4.46-29.19-6.88l-2.88.37c-1.25,2.76-4.17,8.42-4.75,10.82-4.14,17.3.1,41.69-2.21,58.71-.63,4.63-.13,28-.1,33.99l-17.35.11c-.46-20.8.05-42.59.02-63.52-.25-50.96-.18-101.94.23-152.9Z"/>
  <path class="st25" d="M815.08,1607.72l9.63,1.2-2.88.37c-1.25,2.76-4.17,8.42-4.75,10.82-4.14,17.3.1,41.69-2.21,58.71-1.26-14.2-.82-57.26.2-71.1Z"/>
  <path class="st22" d="M797.68,1496.5c-.12-2.83-.41-4.24.65-6.89,3.07-.97,5.29.34,8.88,1.33-3.54,4.68-3.76,4.85-9.54,5.56Z"/>
  <path class="st16" d="M1259.61,1478.71l1.58.34c1.88,4.68.67,219.72.7,240.1h-32.53c-.69-.36-1.52-.72-1.53-1.77-.21-67.43.34-134.85.34-202.28,0-6.55.22-12.84-1.02-19.31,8.16-5,23.59-12.46,32.45-17.09Z"/>
  <path class="st4" d="M1252.76,1491.69c2.58,3.46,1.42,65.91,1.41,75.48l-.3,139.97-13.94.08-2.31-.26c-2.26-3.21-.99-15.02-1.03-19.34-.72-62.33.89-125.04-.3-187.32,5.33-3.27,10.87-5.86,16.48-8.61Z"/>
  <path class="st24" d="M1000.14,1739.2l43.45,9.22c-3.32,15.28-7.71,21.05,4.05,33.45,6.52,6.89,14.28,16.99,17.49,25.97,3.86,10.66,3.2,22.43-1.82,32.6-12.83,25.67-40.09,30.81-64.62,17.98-22.13-15.85-23.76-36.5-17.32-60.91,8.22,1.82,15.31,3.44,23.43,5.8-.98,7.03-2.17,10.46,1.71,16.98,6.65,11.82,17.48,4.51,19.1-5.75,1.14-7.26-10.14-18.97-14.75-23.94-13.5-14.59-12.18-32.57-10.72-51.4Z"/>
  <path class="st26" d="M1006.8,1747.94c5.57,1.26,11.68,2.34,17.32,3.45l9.66,2.06c-.26,4.52-1.35,17.9.19,20.83,8.81,16.51,27.25,26.52,26.48,47.71-.38,10.38-4.69,15.58-11.72,22.6-18.52,18.47-55.52,11.52-61.37-15.58-3.02-8.2-1.94-14.28-.64-22.55,17.41,2.26,6.24,4.71,12.57,17.24,4.27,8.45,15.74,12.28,23.69,6.18,8.06-6.17,8.85-9.85,10.37-19.03-5.02-22.65-22.02-22.96-26.56-48.26-.37-4.84-.12-9.78,0-14.65Z"/>
  <path class="st0" d="M986.72,1806.46c17.41,2.26,6.24,4.71,12.57,17.24,4.27,8.45,15.74,12.28,23.69,6.18,8.06-6.17,8.85-9.85,10.37-19.03,2.53,10.8-2.7,24.7-16.23,25.7-3.79.28-16.06-3.06-18.61-5.83l.2-.86c1.22.22,2.16.38,3.39.53-5.83-6.2-7.26-19.53-12.95-21.9-3.02,4.19-1.06,14.88-1.8,20.52-3.02-8.2-1.94-14.28-.64-22.55Z"/>
  <path class="st0" d="M1006.8,1747.94c5.57,1.26,11.68,2.34,17.32,3.45-10.37,2.16-9.95,7.42-17.33,11.2-.37-4.84-.12-9.78,0-14.65Z"/>
</svg>