<?xml version="1.0" encoding="UTF-8"?>
<svg id="Camada_1" xmlns="http://www.w3.org/2000/svg" version="1.1" viewBox="0 0 2048 1536">
  <!-- Generator: Adobe Illustrator 30.3.0, SVG Export Plug-In . SVG Version: 2.1.3 Build 182)  -->
  <defs>
    <style>
      .st0 {
        fill: #cfcfcc;
      }

      .st1 {
        fill: #005cbb;
      }

      .st2 {
        fill: #9a9b9b;
      }

      .st3 {
        fill: #38ad46;
      }
    </style>
  </defs>
  <path class="st3" d="M1402.35,499.5c20.4.04,40.8-.17,61.19-.64-8.88,9.86-18.45,18.44-28.25,27.36l-3.37-.07c-23.93-.3-47.85-.43-71.77-.4-5.79,0-12.55.32-18.21.04-75.19-3.49-156.47,30.93-176.47,110.16-6.96,27.58-5.57,51.33-5.62,79.28l-.18,79.16c-9.09,9.37-22.38,20.97-32.21,30.08l-58.73,54.72c-10.42,9.84-20.9,19.62-31.44,29.33l-.03-3.95-.08-167.02c-.24-67.03-10.64-137,41.26-188.73,55.67-55.51,128.6-49.01,200.29-49.07l123.62-.25Z"/>
  <path class="st1" d="M1001.61,205.76c2.05,2.95,1.48,9.66,1.49,13.8v154.12c.12,67.02,9.25,136.82-42.55,188.73-58.67,58.79-147.11,47.82-222.95,47.95l-151.77.02-1.35-.62c1.26-3.33,20.66-21.28,24.52-24.97,35.69-.43,71.71.05,107.27-.08,45.53-.18,96.53-17.3,128.34-50.84,40.06-42.26,38.03-89.16,38.25-142.24.29-25.29.2-50.59-.27-75.88,39.28-36.97,80.05-73.12,119.03-109.98Z"/>
  <path class="st0" d="M1036.74,68.93c9.42,7.53,22.71,20.51,31.94,28.97.83,33.79-.55,68.9-.09,102.48.58,42.23,9.92,86.01,42.45,115.76,48.9,44.72,99.96,45.47,160.98,45.56,25.8.2,51.6,0,77.39-.62,31.03,28.41,76.92,74.97,108.86,105.27.07.56.13,1.12.2,1.68-21.58-1.15-47.16-.56-69.09-.61l-125.78-.17c-36.97-.04-75.44,2.5-111.42-6.74-39.05-10.03-74.44-31.11-95.13-66.87-9.72-16.74-16.03-35.23-18.57-54.41-2.26-17.04-1.56-35.83-1.48-53.1l-.07-66.4-.4-110.76c-.02-6.55-.99-35.61.21-40.03Z"/>
  <path class="st0" d="M585.63,643.36l3.9-.03,144.52.33,66.13-.07c17.92.02,37.36-.5,55.09,1.36,65.42,6.96,131.31,45.03,145.37,114.05,7.1,34.79,4.34,76.91,4.33,112.9l.02,164.56c-2.71-.06-27.77-23.89-32.38-28,.09-3.16.16-6.32.22-9.48.39-21.18-.36-42.52-.13-63.71.55-50.48.82-95.71-36.81-135.28-28.12-29.57-73.5-45.44-113.47-49.51-14.75-1.5-41.94-.63-57.46-.55-22.93.2-45.85.13-68.78-.21-11.46-10.34-109.42-103.75-110.55-106.38Z"/>
  <path class="st2" d="M1299.56,1087.88c-7.49.54-20.76.02-28.79.05.1,45.71-.12,91.43-.68,137.14,35.1-.23,73.17,5.33,99.75-18.34,11.01-12.36,18.17-24.71,19.43-40.8,4.7-60.19-35.2-81.99-89.71-78.05ZM1355.72,1195.37c-16.35,16.9-46.37,14.09-67.95,13.95.26-35.35.29-70.69.1-106.04,20.4-.28,52.79-1.86,67.83,13.47,20.42,20.82,19.93,57.77.02,78.62Z"/>
  <path class="st2" d="M1674.83,1083.49c-5.07,14.71-15.02,35.14-21.67,49.76l-39.88,87.48c-9.96-13.11-41.39-48.9-47.85-59.64,12.03-1.39,23.64-3.03,31.02-13.31,18.1-25.18,2.8-59.02-29.14-59.61-15.56-.28-30.05-.2-45.08-.05.08,13.78-1.06,133.91,1.03,136.89l17.12-.15c-.27-22.09-.2-44.19.2-66.27,14.04,13.92,40.9,49.55,53.04,66.23l38.01.15c5.03-12.01,13.36-29.24,17.23-40.66l56.01-.1c5.45,14.05,12.11,27.12,17.8,40.9l19.46-.18c-6.75-14.81-62.98-139.34-67.3-141.44ZM1540.4,1148.92c-.1-8.45-.91-41.05.77-46.44,18.87-.64,45.44-3.08,44.27,24.19-.34,7.86-2.04,11.31-7.64,16.66-13.32,6.7-22.59,5.62-37.4,5.59ZM1678.75,1169.41l-24.11-.05c6.83-15.04,14.16-30.53,20.07-45.91,5.23,2.59,20.08,38.18,23.86,46.08l-19.82-.12Z"/>
  <path class="st2" d="M797.08,1084.38c19.91-.82,35.26,4.79,51.49,15.69l-.51,22.74c-3.74-3.29-7.32-6.64-11.38-9.57-23.2-16.77-56.14-17.16-77.44,3.43-10.77,10.22-16.95,24.36-17.13,39.21-.25,43.88,44.99,68.44,83.82,50.56,8.9-4.1,15.46-10.15,22.31-17.06l.14,22.79c-9.78,8.81-21.09,12.45-33.71,14.8-4.45.3-7.78.32-12.09,1.59-2.43,2.42-1.73.96-1.86,4.65,23.28,6.75,38.9,21.53,10.69,36.96-9.12,4.99-29.45.17-38.59-2.97l3.22-9.11.65.17c8.59,2.21,30.89,6.46,33.58-5.75-3.18-7.61-13.64-7.1-20.43-7.38l.25-17.76c-35.65-3.82-64.14-26.5-67.17-63.79-1.52-19.37,4.73-38.55,17.35-53.32,14.85-17.15,34.74-24.31,56.81-25.88Z"/>
  <path class="st2" d="M923.2,1082.72c-22.03,46.78-43.06,96.03-65.27,142.29l20.19.1c3.86-9.35,13.27-33.06,17.91-40.55l30.31.15,26.47-.18c2.73,10.34,11.97,29.84,16.68,40.29l20.9.32c-6.73-14.08-63.66-138.82-67.19-142.42ZM923.75,1169.67l-21.4-.09c3.9-11.82,15.06-36.03,20.82-47.03,3.78,3.25,19.36,40.6,22.25,47.25l-21.67-.13Z"/>
  <path class="st2" d="M420.72,1088.41l18.24-.02-.17,14.89c-.55,28.3,2.2,59.18-1.92,87.04-6.06,40.99-61.9,48.29-91.18,28.88-23.23-15.4-18.96-49.65-18.8-74.18l.03-56.6,17.67.28c.12,18.62.08,37.24-.11,55.86-.08,12.19-1.04,27.92,1.14,39.63,3.27,17.55,16.72,28.96,34.77,29.22,44.97.65,40.67-36.49,40.55-68.95l-.22-56.05Z"/>
  <path class="st2" d="M1164.38,1088.07c25.77.13,51.53.08,77.3-.18l-.26,15.45c-18.86.84-40.36.24-59.27-.04l.08,38.42c18.91-.78,38.52.3,58.14-.52l.15,15.63c-9.85.07-50.13-.8-57.45.7-1.63,3.4-1.14,7.77-1.11,11.72l.11,40.31c20-.01,40-.15,60-.42l.13,15.61-78.34.18c1.19-44.36.44-92.2.52-136.86Z"/>
  <path class="st2" d="M499.22,1085.43c23.08-2.24,33.28.88,47.48,19.47-5.03,3.57-10.15,6.99-15.38,10.27-1.63-2.19-3.31-4.33-5.04-6.43-11.21-13.37-25.28-12.07-37.35-.72-1.12,2.79-2.85,7.36-3.03,10.57-1.41,25.55,48.9,25.94,61.88,46.29,5.92,7.72,7.18,15.54,6.1,25.26-3.27,29.25-28.13,41.51-55.31,38.23-19.56-4.21-29.46-13.77-36.76-32.08,5.6-3,11.27-5.89,16.99-8.65,2.57,7.05,4.28,11.89,9.62,17.45,13.13,13.68,37.55,11.29,45.22-7.08,1.47-3.53,1.96-7.81,2.54-11.66-6.55-22.53-31.22-24.95-49.35-35.49-32.95-19.15-23.36-56.68,12.39-65.43Z"/>
  <path class="st2" d="M1417.97,1088.02l75.99-.03-.22,15.42c-19.38.3-38.76.36-58.14.19.33,12.46.41,25.11.6,37.59,19.15.13,38.3.1,57.45-.1-.29,5.1-.02,10.7.13,15.85-19.33-.28-38.67-.42-58-.41l.15,10.38-.22,42.64c19.64.21,39.28.11,58.91-.28-.18,5.17-.22,10.49-.33,15.68-25.09-.45-50.89-.17-76.03-.18.87-44.32.36-92.33-.29-136.75Z"/>
  <path class="st2" d="M1062.99,1088.01l76.39.09-.13,15.48c-19.21-.13-38.63-.48-57.81.3l-.41,38.23c17.64.67,39.81-.03,57.79-.09-.13,5.27,1.21,9.38-.44,14.23-2.74,2.37-2.4,1.56-7.13,1.67l-50.5.37c1.01,21.89.87,44.62.99,66.61l-18.74.13c1.25-44.3.21-92.57-.01-137.02Z"/>
  <path class="st2" d="M561.61,1088.18c31.76.11,64.36-.26,96.03.39l.21,15.82-37.64.02.02,86.84.12,33.63c-6.16.1-12.57-.08-18.75-.17-.81-39.48.17-80.6-.26-120.5-13.21-.09-26.82.3-40.06.53l.33-16.56Z"/>
  <path class="st2" d="M1756.96,1088.37l17.99.02c.47,39.86.05,81.38-.34,121.3,18.28.18,36.55-.06,54.82-.74-.21,5.07.04,10.47.18,15.57-5.37.83-20.85.47-27.1.45l-45.29.08-.26-136.68Z"/>
  <path class="st2" d="M275.19,1088.3c5.83.1,12.15-.09,18.03-.15-.41,23,3.65,112.34-3.86,126.94-3.37,6.55-9.17,10.92-16.06,13.2-10.57,3.49-20.28,1.82-30-3.09-6.09-3.65-7.6-4.97-12.81-9.9,4.56-3.95,8.3-7.96,12.45-12.29,6.75,6.45,19.08,16.36,26.98,7.64,8.08-8.94,5.53-40.71,5.48-52.28l-.2-70.07Z"/>
  <path d="M854.87,1317.59l-10.95-.39.3,32.12c-6.09-4.25-8.88-5.8-16.22-7.8-9.02,2.09-15.11,4.09-20.02,12.61-9.17,15.93-7.01,37.58,8.83,47.75,17.12,5.39,14.33-2.72,27.18-5.06,1.32,1.27,1.75,2.36,2.64,3.97,3.26,1.9,2.08,1.79,5.47,1.78,2.46-2.14,2.38-1.65,2.51-5.9.28-9.24.11-18.83.08-28.08-.09-17-.04-34,.17-51ZM844.35,1384.3c-4.53,4.63-5.89,6.03-11.27,9.5-21.52,4.12-24.35-29.37-8.09-41.71,22.59-2.45,19.6,16.52,19.36,32.21Z"/>
  <path d="M1249.57,1317.68c-3.83-.58-5.23-.54-9.11-.4v31.49c-39.51-24.8-54.2,33.96-27.75,52.53,17.47,6.23,14.59-2.46,27.65-4.23,4.75,3.03-2.6,5.29,9.17,4.88,2.19-2.07,1.99-11.07,1.47-14.03-1.78-10.1,2.72-65.47-1.43-70.24ZM1240.47,1385.07c-4.11,4.3-5.21,4.95-10.28,8.08-21.97,4.6-19-19.48-17.33-33.21,2.54-3.09,5.13-5.41,8.03-8.15,23.9-1.38,19.95,15.64,19.58,33.28Z"/>
  <path d="M1287.9,1342.13c-15.91,4.64-23.96,15-23.62,31.93.4,20.27,13.55,31.2,33.85,29.06,8.52-3.01,15.93-6.79,19.36-15.72,8.94-23.32-2.05-48.12-29.59-45.27ZM1306.71,1384.53c-2.61,6.41-5.78,7.81-11.89,9.88-24.54-.79-25.86-36.59-3.89-43.25,18.58.57,21.66,18.96,15.78,33.37Z"/>
  <path d="M631.18,1342.22c-20.44,3.6-29.25,17.86-25.7,38.43,2.82,16.33,15.04,22.52,30.88,22.96,9.51-2.8,16.15-5.51,20.96-14.99,10.35-20.4-.06-48.73-26.14-46.4ZM635.38,1394.61l-1.25-.21c-23.77-3.67-24.28-37.69-1.47-43.09,23.69,2.22,22.57,36.19,2.73,43.3Z"/>
  <path d="M1414.57,1341.66c-3.11-23.35-34.2-19.78-50.43-19.39.01,10.47-1.05,73.28.92,79.15,3.23,1.36,3.67,1.37,7.18,1.09,9.22-6.16-.89-24.56,5.3-29.73l7.39-.52c9.9-1.12,17.73-2.92,24.42-11.4,4.27-5.42,6.16-12.35,5.22-19.2ZM1397.81,1358.47c-9.4,5.29-11.08,4.69-22.11,4.78-.15-10.45-.09-20.9.18-31.35,19.11-1.08,35.95,6.14,21.93,26.57Z"/>
  <path class="st2" d="M678.2,1088.43l17.34-.05c.53,45.09-.08,91.4.07,136.64l-17.18-.1c.26-45.01-1.28-91.95-.22-136.49Z"/>
  <path d="M1024.93,1351.05c-2.54-8.37-17.47-9.67-25.58-9.07-7.59,2.22-15.55,3-16.2,12.6l1.39,1.5c11.2.1,17.95-12.4,29.3-.84,2.15,2.18,2.77,2.9,3.69,5.82-3.32,10-30.68,4.35-36.2,17.9-2.9,7.13-.91,12.3,2.35,18.18,16.46,14.98,19.7,1.49,32.85.8,1.65,1.5,1.98,2.13,3.26,3.92,2.97.98,3.32.66,6.48-.31,2.51-5.99.94-42.95-1.34-50.5ZM1013.77,1389.89c-1,1.8-5.52,3.68-7.62,4.61-16.38,1.28-19.23-11.13-5.54-19.25,9.85-1.28,21.76-.76,13.16,14.64Z"/>
  <path d="M1155.88,1352.44c-1.73-4.3-4.82-7.36-9.16-9.02-5.57-2.14-11.39-1.57-17.2-1.12-7.79,2.31-12.54,2.57-16.61,9.67l.22,2.62c8.37,1.76,34.52-11.97,34.19,7.92-1.16,2.01-2.39,3.95-4.93,4.26-15.04,1.89-40.75,6.03-28.81,28.78,3.86,4.32,8.7,8.06,14.78,8.23,4.39.12,16.36-7.07,19.26-4.69,2.53,2.08,4.54,3.35,7.91,2.96,1.17-.14,1.25.11,1.77-.84,2.3-4.18.63-43.7-1.42-48.77ZM1129.9,1395.2c-4.81-2.23-6.81-3.19-8.19-8.41.83-9.15,11.59-11.4,18.97-12.49,2.62-.1,2.63-.22,5.18.77,7.15,9.81-4.92,19.74-15.96,20.13Z"/>
  <path d="M470.83,1392.85c-11.23,3.81-23.26,1.25-28.58-11.36-.97-2.29-.48-2.96.39-5.16,5.76-3.08,30.08-1.29,39.54-1.93-.21-18.95-4.7-35.02-28.12-32.22-8.7,2.5-14.5,4.89-19.25,13.77-16.7,31.19,16.25,64.19,44.84,40.02,1.12-.95.27-2.67-.16-3.89-3.61-1.41-4.67-.82-8.66.77ZM442.42,1360.77c3.37-5.4,8.08-8.42,13.88-10.61,7.33.37,18.29,6.41,14.11,14.95-2.85,2.14-6.36,1.67-10.16,1.75-6.83.45-13.48,2.31-18.11-3.36l.28-2.73Z"/>
  <path d="M1467.09,1384c.37-24.14,5.14-43.12-26.96-41.82-7.95,2.05-12.05,2.26-17.18,8.89l1.07,3.48c8.88-.31,23.48-6.41,29.41-.58,2.16,2.12,3.36,5.03,3.35,8.06-1.16,2.04-2.28,3.95-4.9,4.36-16.85,2.6-41.57,6.12-28.18,30.34,20.07,15.41,19.41,1.33,32.73,1.04,2.06,2.48,3.2,4.48,6.18,5.41,3.25-.69,1.9.03,4.3-2.05.81-5.98.09-11.29.18-17.13ZM1452.83,1389.77c-3.87,4.63-8.57,4.95-14.15,5.39-4.33-2.06-7.09-4.12-7.77-9.13,1.72-9.3,12.54-11.01,20.3-11.66,2.36-.19,1.79-.12,4.18.33,3.77,5.19,1.2,10.58-2.56,15.07Z"/>
  <path d="M1668.18,1342.12c-7.14,1.66-14.96,2.61-17.87,10.27l.71,1.66c10.16,2.42,33.98-12.34,32.65,11.25-5.99,5.74-49.61-.2-32.82,31.38,18.71,16.41,21.99.73,33.5.9,2.99,4.2,3.5,5.09,9.04,4.07,2.08-2.71,1.67-18.96,1.85-23.06.95-21.63-1.06-37.89-27.06-36.47ZM1671.05,1394.92c-17.24-.59-15.6-15.17,1.84-19.74,2.37-.22,4.9-.34,7.3-.49,11.62,5.93.27,17.25-9.14,20.23Z"/>
  <path d="M589.61,1351.19c-2.1-7.36-15.33-9.74-22.7-8.98-6.93,1.42-20.08,3.17-18.3,12.41,7.24,2.23,31.73-13.49,32.65,7.18-6.08,10.95-45.21.16-34.87,33.02,16.37,18.24,21.25,2.79,34.63,3.11,3.61,3.6,4.04,4.67,9.33,3.48,2.78-5.45,1.36-42.85-.74-50.22ZM580.07,1388.32c-3.7,2.77-7.94,5.04-11.97,7.37-18.96-2.99-15.03-17.94,2.71-21.35,4.48-.37,5.87-.77,9.1,1.4,1.7,3.59.61,8.36.16,12.58Z"/>
  <path d="M1567.69,1380.04c.85-23.14,2.46-40.78-27.67-37.63-5.96,1.69-11.16,2.52-15.04,7.37l-.48,3.1c4.88,5.68,18.19-4.89,28.06-.42,2.9,3.16,3.65,3.63,5.12,7.52-.6,5.76-5.14,7-10.34,7.72-14.42,1.99-34.09,9.38-23.33,28.17,16.08,16.15,18.83,3.98,33.62,2.01,3.41,4.09,3.78,5.06,9.45,3.75,2.05-3.68.44-16.8.61-21.59ZM1556.37,1388.99c-3.97,2.44-7.21,3.85-11.44,5.77-16.49-.67-15.49-15.06.64-19.48l11.59-.53c-.12,4.64-.5,9.57-.79,14.24Z"/>
  <path d="M393.74,1321.28c7.21-.09,17.32.71,22.86,5.83,1.53,3.66.91,2.88-.2,7.66-3.14,2.72-24.57-10.02-29.79,1.98-8,18.36,32.69,19.95,34.91,39,2.27,19.48-9.48,25.26-24.91,28.29-.95-.06-1.89-.14-2.83-.26-4.73-.56-12.74-1.83-16.76-4.37-5.74-3.61-4.23-6.92-3.18-12.4,10.09,5.28,28.53,12.93,35.76-1.6,5.24-10.36-11.41-17.69-18.84-21.39-22.8-11.36-23.83-34.81,2.99-42.74Z"/>
  <path d="M777.15,1385.27c.82-10.93-.67-31.32.95-40.19,2.12-1.62,7.68-1.87,9.92-.56,1.45,4.76.86,12.46.74,17.73-.22,8.46,1.53,33.74-1.34,39.15-2.68,1.82-1.31,1.58-4.12,1.23-3.27-1.98-3.49-2.94-5.18-6.38-5.04.01-13.28,8.13-20.73,7.5-22.65-1.92-17.22-43.75-16.9-60.22,3.82-.04,5.27-.04,9.01.61,6.24,6.99-8.41,75.61,27.66,41.13Z"/>
  <path d="M1611.03,1342.29c18.87-.93,23.92,12.26,22.92,28.33-.52,8.24,1.01,22.98-.44,30.23-3.15,2.49-5.04,2.41-8.32.72-7.86-12.49,7.78-59.16-21.04-48.28-3.92,2.98-5.06,4.92-7.87,8.84,0,11.28.02,22.58-.04,33.85-.02,3.76.3,3.89-1.76,5.88-3.97.23-4.96.39-8.75-.65-.88-5.61-.87-51.09.11-56.45,2.71-2.33,1.76-2.25,4.54-2.25,2.58,1.44,3.69,4.07,4.96,6.77l.54,1.16c5.59-3.72,8.76-6.21,15.15-8.15Z"/>
  <path d="M514.91,1342.26c1.06-.08,2.13-.13,3.19-.16,7.39-.16,19.25,2.75,18.69,11.99-5.15,5.73-13.16-6.02-21.42-2.75-4.16,1.6-7.45,4.9-9.04,9.07-2.4,6.24-1.83,22.41,1.65,28.6,7.04,12.52,22.47-.98,27.99.48,1.86,3.14,1.6,1.78,1.47,5.26-2.18,3.77-5.49,5.42-9.52,6.85l-8.01,2.9c4.84,4.65,8.07,9.73,3.76,16.13-2.14,3.13-5.52,5.19-9.28,5.67-5.33.68-10.14-.83-10.81-6.55,4.75-4.02,8.98,1.89,12.06-5.23-.28-4.6-2.69-7.62-5.12-11.67-.26-.11-.52-.23-.77-.35l-1.27-.61c-6.7-3.16-12.78-8.74-14.36-16.13-4.29-20.03-.08-37.3,20.79-43.5Z"/>
  <path d="M920.32,1342.23c7.81-.3,29.11,2.06,20.38,14.48-3.24.34-7.2-3.52-10.11-4.51-30.21-10.29-29.34,60.4,7.99,37.16l.76-.73,1.93.39,1.11,2.43c-.57,9.24-9.66,12.24-17.53,12.32-34.64.31-37.34-52.96-4.53-61.54Z"/>
  <path d="M711.54,1321.61c3.74.05,7.52-.58,10.45,1.34.21.98.39,1.96.52,2.94.91,6.72,1.56,63.95-3.71,71.3-3.44,4.8-10.15,5.95-16.02,6.57-4.17-.81-7.04-1.54-9.68-4.8-3.23-11.69,7.52-3.64,14.84-7.09,5.61-7.06,3.62-57.47,3.6-70.26Z"/>
  <path d="M1507.13,1342.11c4.49-.3,5.51-.53,8.58,1.81,1.19,3.24.68,4.02-.17,7.57-34.55,7.34-13.32,26.49-20.8,48.91-2.93,2.48-3.35,1.74-7.8,2.02-1.3-.59-.9-.58-1.97-2.03-.76-6.58-.94-51.51.85-56.53,2.7-2.05,1.73-1.96,4.41-1.8,3.76,2.74,2.66,4.51,5.16,7.75,4.81-4.39,5.72-5.45,11.74-7.7Z"/>
  <path d="M1068.31,1342.13c4.78.05,10.15,1.78,9.74,7.46-8.19,8.57-8.89-3.42-22.14,14.2-.01,8.46.55,30-.68,37.04-2.45,1.74-6.64,1.31-9.86,1.35-.89-7.04-.89-51.78.64-58.36,2.61-1.17,2.56-1.03,5.27-.73,3.46,2.06,3.02,3.62,5.09,7.57l3.44-3.5c3.45-3.55,3.48-3.67,8.5-5.03Z"/>
  <path d="M956.16,1343.31l10.56.51c.08,19,.52,39.53.04,58.4-4.02.1-6.43.5-10.16-1-2.12-6.03-1.06-49.61-.44-57.91Z"/>
  <path d="M1087.2,1343.62c3.96-.21,5.38-.49,9.33.52,2.9,3.57,1.73,49.81,1.74,57.59l-11.12.34c-.21-19.48-.2-38.97.05-58.45Z"/>
  <path d="M873.22,1343.22c4.19.04,6.66-.38,9.68,1.94,1.41,10.69.83,44.39.88,56.86-3.85.16-5.37.44-9.15-.67-3.24-4.14-1.56-49.75-1.41-58.13Z"/>
  <path d="M558.33,1318.06c15.73.21,10.92,7.56,20.81,8.64,5.26-2.34,4.27-8.71,10.3-8.62,2.91,2.81,2.37,1.49,2.84,5.01-1.69,5.49-4.66,8.21-9.36,11.04-13.54,1.15-16.7-9.61-24.57-6.69-1.04,2.62-1.34,3.79-2,6.54l-1.78,1.07c-3.82-.65-2.56.1-5.03-2.52-1.46-8.14,2.6-10.95,8.79-14.47Z"/>
  <path d="M1679.66,1316.71c3.6-.22,7.01-1.1,9.22,1.94-.95,4.61-8.06,11.75-11.46,15.77-2.31,1.35-4.99,2.18-7.43,1.07-.98-4.26,7.08-14.9,9.67-18.78Z"/>
  <path d="M1012.27,1315.62c3.29.11,3.73.11,6.86,1l.83,1.84c-1.3,5.01-8.07,12.28-11.61,16.78-3.82.69-3.47,1.25-6.52.06-.86-5.3,7.07-14.83,10.44-19.68Z"/>
  <path d="M957.78,1320.51c3.39-1.87,7.66-.63,9.52,2.77,1.86,3.4.6,7.66-2.81,9.5-3.38,1.82-7.61.57-9.45-2.8s-.62-7.6,2.75-9.47Z"/>
  <path d="M875.05,1320.81c3.26-2.04,7.57-1.05,9.6,2.22,2.04,3.27,1.03,7.57-2.24,9.6-3.26,2.02-7.54,1.02-9.57-2.24-2.03-3.25-1.04-7.54,2.21-9.58Z"/>
  <path d="M1089.67,1320.66c3.31-1.92,7.55-.77,9.45,2.55,1.9,3.32.73,7.55-2.6,9.43-3.31,1.87-7.51.72-9.39-2.58-1.88-3.3-.75-7.5,2.54-9.4Z"/>
</svg>