<?xml version="1.0" encoding="UTF-8"?>
<svg id="Camada_1" xmlns="http://www.w3.org/2000/svg" xmlns:xlink="http://www.w3.org/1999/xlink" version="1.1" viewBox="0 0 2048 2048">
  <!-- Generator: Adobe Illustrator 30.3.0, SVG Export Plug-In . SVG Version: 2.1.3 Build 182)  -->
  <defs>
    <style>
      .st0 {
        fill: #fadc01;
      }

      .st1 {
        fill: #0ba642;
      }

      .st2 {
        fill: #004b9d;
      }

      .st3 {
        fill: url(#Gradiente_sem_nome_6);
      }

      .st4 {
        fill: url(#Gradiente_sem_nome_7);
      }

      .st5 {
        fill: url(#Gradiente_sem_nome_5);
      }

      .st6 {
        fill: url(#Gradiente_sem_nome_3);
      }

      .st7 {
        fill: #008c26;
      }

      .st8 {
        fill: #005fb8;
      }

      .st9 {
        fill: #fbfdf4;
      }

      .st10 {
        fill: #015eb4;
      }

      .st11 {
        fill: #fcfefb;
      }

      .st12 {
        fill: #08ad40;
      }

      .st13 {
        fill: #0568b0;
      }

      .st14 {
        fill: #07aa3a;
      }

      .st15 {
        fill: #004086;
      }

      .st16 {
        fill: #0050a3;
      }
    </style>
    <linearGradient id="Gradiente_sem_nome_7" data-name="Gradiente sem nome 7" x1="933.35" y1="1209.82" x2="939.4" y2="1224.69" gradientTransform="translate(0 2048) scale(1 -1)" gradientUnits="userSpaceOnUse">
      <stop offset="0" stop-color="#003e90"/>
      <stop offset="1" stop-color="#0058a9"/>
    </linearGradient>
    <linearGradient id="Gradiente_sem_nome_6" data-name="Gradiente sem nome 6" x1="1432.96" y1="1039.29" x2="1460.05" y2="1051.16" gradientTransform="translate(0 2048) scale(1 -1)" gradientUnits="userSpaceOnUse">
      <stop offset="0" stop-color="#0ca036"/>
      <stop offset="1" stop-color="#03c44b"/>
    </linearGradient>
    <linearGradient id="Gradiente_sem_nome_3" data-name="Gradiente sem nome 3" x1="702.52" y1="1133.54" x2="728.58" y2="1166.6" gradientTransform="translate(0 2048) scale(1 -1)" gradientUnits="userSpaceOnUse">
      <stop offset="0" stop-color="#008422"/>
      <stop offset="1" stop-color="#05a73a"/>
    </linearGradient>
    <linearGradient id="Gradiente_sem_nome_5" data-name="Gradiente sem nome 5" x1="1147.07" y1="1203.97" x2="1137.99" y2="1223.18" gradientTransform="translate(0 2048) scale(1 -1)" gradientUnits="userSpaceOnUse">
      <stop offset="0" stop-color="#00428e"/>
      <stop offset="1" stop-color="#005fb4"/>
    </linearGradient>
  </defs>
  <path class="st1" d="M791.66,242.66c10.27-3.46,26.92-7.54,37.7-10.42,133.28-34.9,273.28-35.02,406.62-.37,10.26,2.93,24.17,6.6,33.96,10.15,56.12,16.59,110.13,39.64,160.95,68.67,140.15,78.98,242.02,187.36,319.39,328.03,104.43,187.47,129.03,409.07,68.26,614.88-61.72,208.62-203.65,384.26-394.67,488.41-89.88,49.97-188.7,81.8-290.85,93.7-19.05,2.26-44.22,5.13-63.31,5.13-57.19,3.82-141.24-1.82-197.4-14.06-15.15-1.44-54.58-12.83-68.97-17.32-115.21-36.02-221.62-95.72-312.42-175.26,3.35-8.26,25.83-29.96,33.56-38.48l8.81-7.79c300.46,262.31,727.54,254.37,1019.07-17.74,30.9-29.33,59.05-61.43,84.11-95.88,93.05-124.93,144.98-275.69,148.61-431.42,6.42-197.48-73.47-396.72-208.34-540-118.78-124.29-276.73-203.89-447.3-225.42-27.22-3.49-55.05-4.39-82.48-5.24-3.35,4.34-2.31,34.41-2.37,42.23l-.45,210.7c-42.6-4.76-73.03-6.55-116.02.61-11.82,2.91-23.31,4.14-35.17,7.16-34.32,8.73-63.25,20.79-95.64,34.57-2.43-3.93-2.65-4.52-3.63-9.04-4.16.52-8.12.98-12.25,1.75l-.2.86c-.85,3.78-.92,5-1,8.86-1.5,2.11-.48,1.49-2.85,2.26-.09,5.24-5.58,3.71-4.95,9.42-5.18,3.88-10.66,6.81-16.03,10.45-56.1,38.01-102.94,87.44-138.66,144.99-7.94,12.79-13.66,26.96-21.47,39.28-20.05,41.57-26.83,72.7-38.25,115.45-7.91,37.94-13.25,91.15-11.02,129.83l-266.61-.44c-2.11,113.07,34.39,281.39,98.89,375.91-6.4,6.9-42.03,39.24-43.96,43.09l-3.82,1.71c-17.69-20.4-40.69-72.65-52.54-97.64-3.39-.68-6.21-1.77-9.01-3.84.82-6.94,2.47.3,3.38-10.6-3.02-7.13-5.46-13.13-7.99-20.44-1.97-4.87-3.92-10.72-5.71-15.74-52.31-144.31-56.76-319.21-19.61-467.44,11.3-44.1,26.11-87.22,44.31-128.95,86.36-203.2,246.67-352.32,450.32-434.42,20.36-8.08,35.95-13.58,56.99-20.17Z"/>
  <path class="st0" d="M463.87,575.61c6.07-18.36,7.49-66.72,18.01-86.42,3.05-5.73,13.5-11.58,20-13.88,43.93-15.53,90.41-23.95,135.3-35.32l314.51-77.48c-.69,5.69-1.93,11.92-2.97,17.59-8.86,48.27-15.16,96.88-20.59,145.67-11.82,2.91-23.31,4.14-35.17,7.16-34.32,8.73-63.25,20.79-95.64,34.57-2.43-3.93-2.65-4.52-3.63-9.04-4.16.52-8.12.98-12.25,1.75l-.2.86c-.85,3.78-.92,5-1,8.86-1.5,2.11-.48,1.49-2.85,2.26-.09,5.24-5.58,3.71-4.95,9.42-5.18,3.88-10.66,6.81-16.03,10.45-56.1,38.01-102.94,87.44-138.66,144.99-7.94,12.79-13.66,26.96-21.47,39.28-20.05,41.57-26.83,72.7-38.25,115.45-33.14,9.15-69.22,24.61-102.14,35.49-16.17,5.34-33.41,13.83-49.7,19.9.39-14.83,3.36-34.21,5.72-48.95,13.93-86.83,27.54-174.48,41.7-261.21,2.89-20.2,7.25-40.8,10.27-61.41Z"/>
  <path class="st13" d="M564.56,487.13c42-23.68,76.97-31.81,125.57-19.37,22.72,5.81,55.92,24.3,73.17,40.24,3.47.53,6.17.81,9.53,1.95,10.5,12.71,21.17,31.66,20.85,48.52-4.16.52-8.12.98-12.25,1.75l-.2.86c-.85,3.78-.92,5-1,8.86-1.5,2.11-.48,1.49-2.85,2.26-.09,5.24-5.58,3.71-4.95,9.42-5.18,3.88-10.66,6.81-16.03,10.45-56.1,38.01-102.94,87.44-138.66,144.99-7.94,12.79-13.66,26.96-21.47,39.28-22.49-9.93-41.27-20.72-60.13-36.61-9.27-7.77-16.18-14.85-23.99-24.03l-.59-.38-1.64-2.5c-7.64-6.15-17.51-25.27-21.95-34.13-2.16-6.4-3.92-8.79-.26-14.7-10.34-62.89,6.1-115.9,53.76-159.42,5.9-5.92,16.2-12.82,23.07-17.46Z"/>
  <path class="st13" d="M764.3,563.58c2.36,1.51,2.88,1.74,5.64,2.22,2.71,2.26,3.48,2.66,5.25,5.8l2.19.6c-.09,5.24-5.58,3.71-4.95,9.42-5.18,3.88-10.66,6.81-16.03,10.45-56.1,38.01-102.94,87.44-138.66,144.99-7.94,12.79-13.66,26.96-21.47,39.28-22.49-9.93-41.27-20.72-60.13-36.61-9.27-7.77-16.18-14.85-23.99-24.03l-.59-.38-1.64-2.5c18.66-20.93,49.54-52.65,71.61-69.08,47.86-35.63,124.13-68.96,182.77-80.18Z"/>
  <path class="st10" d="M512.15,715.72c4.31-.2,7.82-.86,11.62.91,2.95,2.99,2.96,3.97,4.33,8.11,2.74-.92,1.76-.03,3.3-2.31,7.16,6.57,6.1,8.82,4.74,17.31-9.27-7.77-16.18-14.85-23.99-24.03Z"/>
  <path class="st11" d="M763.3,508c3.47.53,6.17.81,9.53,1.95,10.5,12.71,21.17,31.66,20.85,48.52-4.16.52-8.12.98-12.25,1.75l-.2.86c-.85,3.78-.92,5-1,8.86-1.5,2.11-.48,1.49-2.85,2.26l-2.19-.6c-1.77-3.15-2.54-3.55-5.25-5.8-2.76-.48-3.28-.71-5.64-2.22-58.64,11.22-134.91,44.55-182.77,80.18-22.07,16.43-52.94,48.15-71.61,69.08-7.64-6.15-17.51-25.27-21.95-34.13-2.16-6.4-3.92-8.79-.26-14.7,2.05-1.37,11.07-11.66,13.73-14.37l8.62-8.55c49.68-55.38,122.78-96.16,193.21-117.85,19.64-6.05,40.08-10.07,60.01-15.25Z"/>
  <path class="st10" d="M764.3,563.58l17.12-3.36-.2.86c-.85,3.78-.92,5-1,8.86-1.5,2.11-.48,1.49-2.85,2.26l-2.19-.6c-1.77-3.15-2.54-3.55-5.25-5.8-2.76-.48-3.28-.71-5.64-2.22Z"/>
  <path class="st9" d="M510.07,641.1c3.12,1.3,2.88,1.26,4.89,4.04-1.19,5.8-7.37,6.24-12.45,7.18-1.11-1.79-.82-.88-1.06-2.67l8.62-8.55Z"/>
  <path class="st10" d="M564.56,487.13c-4.57,19.73-6.43,14.88-23.07,17.46,5.9-5.92,16.2-12.82,23.07-17.46Z"/>
  <path class="st16" d="M631.91,541.53c1.03-1.05,2.7-1.09,3.78-.09,1.07,1,1.15,2.68.18,3.77-.65.73-1.65,1.06-2.61.84-.96-.21-1.73-.93-2.01-1.87-.28-.94-.03-1.96.66-2.66Z"/>
  <path class="st16" d="M683.09,471.63c4.36,1.63,5.06,1.67,6.98,5.15l-4.34.1c-2.93-2.03-1.73-.63-2.64-5.26Z"/>
  <path class="st12" d="M872.31,1826.79c3-2.27,2.31-2.4,6.96-1.81,8.66,1.09,18.9,3.46,27.49,4.06,13.74.96,22.36.67,35.98,3.36l-5.27-.1c45.37,6.99,92.51,4.48,138.2,5.62l.56.63-6.52,2.3c-57.19,3.82-141.24-1.82-197.4-14.06Z"/>
  <path class="st14" d="M453.6,637.02c-.62-7.29,1.1-17.03-2.16-22.95-2.53-4.59-8.75-7.84-7.48-12.88,5.03-.23,5.05,2.96,10.15,3.12.74-6.64-7.35-10.54-10.4-18.11l.45-.65c2.23,2.31,7.65,8.88,9.97,9.11,4.24-5.33,1.87-17.52,8.22-20.96l1.52,1.91c-3.01,20.61-7.38,41.21-10.27,61.41Z"/>
  <path class="st14" d="M791.66,242.66c-1.79,4.49-2.37,4.56-6.6,7.38,4.83,4.21,1.98-.86,5.25,2.96l-1.39,1.23c-3.02-.4-4.63-1.91-7.16-3.67-2.44.55-3.08,1.72-4.86,3.59-6.27,1.09-6.66-2.32-11.58-.26-1.81,4.21-.37,2.94-3.84,4.61-5.85-.28-10.32-.84-12.69,5.98-7.79.81-7.09-.7-14.13-1.63,20.36-8.08,35.95-13.58,56.99-20.17Z"/>
  <path class="st14" d="M1235.98,231.87c10.26,2.93,24.17,6.6,33.96,10.15-8.7.81-32.65,2.9-36.2-6.77l2.24-3.38Z"/>
  <path class="st14" d="M259.64,1293.65c2.74-.77,3.27-.77,6.14-.99l1.58,1.09c.48,5.79-1.84,8.31-2.02,15.64-1.97-4.87-3.92-10.72-5.71-15.74Z"/>
  <path class="st9" d="M273.34,1329.83l5.62,14.44c-3.39-.68-6.21-1.77-9.01-3.84.82-6.94,2.47.3,3.38-10.6Z"/>
  <path class="st14" d="M1007.98,208.48c4.01-.31,9.37-1.39,12.45.74,1.26,3.79.64,3.15-.6,7.8-4.92-1.63-8.13-1.79-9.44-7.36l-2.41-1.18Z"/>
  <path class="st14" d="M395.5,903.21c5.37,1.73,5.53,1.33,6.57,6.83-2.92.42-2.76.35-5.67-.32-1.85-3.17-1.29-2.12-.9-6.51Z"/>
  <path class="st14" d="M284.27,1160.5c1.03-1.14,2.77-1.28,3.96-.31,1.19.97,1.42,2.7.51,3.94-.63.86-1.68,1.3-2.74,1.15-1.06-.15-1.94-.87-2.31-1.87-.36-1-.15-2.12.57-2.91Z"/>
  <path class="st14" d="M280.89,1309.5c.76-.98,2.17-1.16,3.15-.4.98.76,1.17,2.17.41,3.15-.76.99-2.18,1.18-3.17.42-.99-.77-1.17-2.19-.4-3.17Z"/>
  <path class="st14" d="M266.39,750.51l1.07-.95.97.23-.99,2.7-1.47.52.43-2.51Z"/>
  <path class="st8" d="M833.32,1011.45l.87,3.02c-4.54,2.3-4.58.44-7.98,3.75l.12,1.4c2.25-.13,5-.07,6.79-1.68-2.38.98-3.58,1.64-5.53,3.44-3.73,3.43-7.03,2.72-11.24,4.73-1.15.67-2.26,1.26-3.49,1.77l1.2,2.21c.7,7.75-3.24,5.58-1.84,11.34-2.08,1.76-.29.51-2.36,1.39-6.23,2.64-16.72,15.31-21.36,17.48-2.54,3.15-3.69,4.34-6.69,7.06l-1.36-.18,4.76-4.86c-1.68-7.88-1.65-4.68,1.27-11.14-2.74.57-1.44-.03-3.54,2.74l-.2,8.58-2.24-.67c-5.26,5.56,1.64,9.32-8.41,12.07-1.17.32-6.09,16.43-9.8,15.34l.53-5.05-.83-.52-3.03,2.31c1.03,7.52,8.34,3.11-.23,11.25-7.8,7.41-5.17,26.27-13.82,33.64-1.13.9-1.23,1.43-1.58,2.81l2.24,1.44c-1.76,6.58-3.92,10.48-4.34,17.19l.91-.37.58-1.87c1.87,4.51,1.05,7.55-.47,11.98l.5,1.42,1.75-2.35c2.66,5.85,8.96,3.78,15,4.7,28.46,1.16,93.35,10.84,121.67,17.21,4.23.62,4.95,1.44,8.36.13l1.1-3.07c2.88,2.25,3.27,1.36,8.06,1.24l1.55-.98-.36-1.47-4.39-2.29c-.44-6.14,10.44-17.85,14.62-22.85,2.15.42,2.88.58,5.03.15l-2.05-.69c-.87-2.57-1.15-2.61-.69-5.21,2.9-2.32,3.94-2.78,7.8-1.22l.75-2.04c-1.83-2.14-1.79-2-4.3-3.36,4.03-7.1,13.55-6.36,14.6-8.99l-4.05-.41c.08-1.5,4.44-6.49,5.84-7.96,5.08-5.32,7.87,3.92,8.55-5.78,2.95-.42,3.97-.29,6.91-.17l.39-.94-1.87-3.12.7-1.55c5.73-1.47,9.14-5.3,14.14-4.57.47.4,3.1,2.55,3.23,2.86l-1.45,1.79c-2.96-.22-5.98-.56-8.94-.41l3.18,2.49c-2.46,4.39-4.55,4.38-4.77,8.14l-6.2,5.51c2.87.04,3.28-.48,6.07-1.55-8.79,7.1-19.71,16.1-29.46,22.37-.3.19-.73,2.2-.75,2.27-.48,2.24.91,6.4-.46,7.84-3.85,4.07-4.4,6.87-5.53,12.15l-1.55,1.6c-1.78-1.4-1.34-1.57-3.08-1.82-.55,5.1,5.04,2.8.39,11.26.46,1.31.68,2.19,1.36,3.39,1.11,5.97,10.03,5.46,15.81,6.34l.97.29c48.17,13.92,107.78,17.58,157.5,25.49,16.93,2.69,37.71.73,54.85,4.41,38.72,10.94,10.48,49.42-13.69,58.59-16.79,6.38-30.76,13.58-47.86,13.9-35.89,6.57-92.79,2.99-129.29-.56-17.03-1.66-34.12-5.32-52.15-6.58-8.72.24-29.9.26-27.61,13.08,3.46,19.33,43.64,29.12,58.67,32.54l16.62,3.77c20.04.76,43.03,6.1,65.15,6,80.36-.36,166.67-15.95,236.31-56.64,4.08-2.84,8.7-5.64,12.92-8.33,5.58-5.32,27.32-21.15,35.22-27.44,8.98-8.52,18.43-16.44,27.84-24.48,23.48-25.61,151.91-135.94,183.59-106.09,3.84,4.25,5.2,8.35,4.72,14.15-2.24,27.12-28.56,54.19-47.98,71.16-24.86,21.73-50.34,43.02-75.65,63.58l-3.66,3.24c-8.2,6.17-17.97,15.29-25.64,20.58-17.36,15.02-36.21,29.86-54.13,44.3l-5.27,4.04-4.36,3.82c-12.09,8.71-22.58,18.14-34.21,26.92-1.01.85-3.2,2.77-4.19,3.4l-12.84,9.99c-41.24,29.92-84.65,57.95-129.5,82.13-6.32,3.4-37.06,18.39-43.35,19.25-44.3,20.41-115.32,33.06-162.09,30.47-114.9-6.38-230.43-46.16-332.48,31.48-10,7.6-38.75,29.28-44.83,39.37l-8.81,7.79c-7.73,8.52-30.21,30.22-33.56,38.48l-1.89.8c-12.46,12.89-32.86,34.93-49.67,41.54l-3.07,1.69c-30.8,13.94-79.96.04-107.54-14.82-25.9-13.96-119-65.53-131.96-87.68-.8-9.81,29.22-35,37.56-42.89,23.95-22.71,48.12-45.2,72.49-67.45,5.8-5.31,20.98-17.77,24.67-23.49l3.82-1.71c1.93-3.85,37.55-36.19,43.96-43.09,7.62-4.48,39.34-37.54,48.47-46.6l82.77-83.54c66.14-66.42,109.38-101.34,209.68-102.67,3.21-48.37,21.72-90.37,59.43-122.05,16.91-14.2,33.59-22.08,53.69-30.8Z"/>
  <path class="st13" d="M524.48,1595.73c2.74-9.64,27.32-30.74,35.96-38.57l-.61.25c5.33-4.77,12.62-8.17,15.45-13.61-.66-1.79-.22-.85-1.37-2.82l1.61.3c1.12,3,.41,2.24,2.46,4.31,3.45-1.87,3.47-2.27,5.16-5.83,13.23-7.52,28.13-17.35,42.17-23.15,6.17-2.54,6.83-1.96,12.78-6.46,6.55.56,8.87-.3,15.09-1.86l-2.34-.06,2.12-2.09.23,2.16-.28-2.13-1.65,1.27c9.06-5.39,10.52-4.12,21.5-3.72-1.66-1.28-1-.49-1.97-2.35,5.69-1.08,17.18.5,22.72-.75l-2.11-1.56c44.64-5.48,89.47-1.48,133.17,5.88,2.92.49,14.73-1.4,19.28-1.47l-.46,1.02c-2.41.51-1.49-.02-2.95,1.23,4.04,1.1,5.31-.4,9.28,1.38l.62-.63-1.19,1c3.36,1.44,12.5,1.26,17.22,1.75,38.62,4.05,85.37,5.72,123.48-1.14,10.53-1.89,73.33-23.26,82.84-21.46-44.3,20.41-115.32,33.06-162.09,30.47-114.9-6.38-230.43-46.16-332.48,31.48-10,7.6-38.75,29.28-44.83,39.37l-8.81,7.79Z"/>
  <path class="st13" d="M331.5,1441.91l3.82-1.71c-3.46,11.97-46.67,43.07-55.8,54.8-1.31,1.69,1.92,2.12,1.55,4.76l-4.57-1.57c-14.74,12.05-30.99,29.82-45.34,43.08l.24-.54c-10.37,9.84-19.5,21.02-30.65,31.8,1.3,7.59,25.68,21.71,32.2,26.48,8.85,6.48,15.79,16.4,26.29,20.26,12.3,5.62,46.08,25.57,55.16,33.94,2.91.48,2.78.48,5.69.02,7.13,4.17,15,9.2,22.45,12.54,7.59,3.41,12.08-2.59,16.36,6.52,4.98,1.64,9.39,1.73,14.33,3.04,18.13,4.83,41.47,5.78,59.66,1.47,1.42.52,2.12.64,3.38,1.44-30.8,13.94-79.96.04-107.54-14.82-25.9-13.96-119-65.53-131.96-87.68-.8-9.81,29.22-35,37.56-42.89,23.95-22.71,48.12-45.2,72.49-67.45,5.8-5.31,20.98-17.77,24.67-23.49Z"/>
  <path class="st13" d="M833.32,1011.45l.87,3.02c-4.54,2.3-4.58.44-7.98,3.75l.12,1.4c2.25-.13,5-.07,6.79-1.68-2.38.98-3.58,1.64-5.53,3.44-3.73,3.43-7.03,2.72-11.24,4.73-1.15.67-2.26,1.26-3.49,1.77l1.2,2.21c.7,7.75-3.24,5.58-1.84,11.34-2.08,1.76-.29.51-2.36,1.39-6.23,2.64-16.72,15.31-21.36,17.48l.83-2.97c2.6-1.63,5.14-2.52,5.64-5.5l-2.33-2.49.36-1.69,3.29-1.7.75-2.38c-3.05.88-6.97,2.49-9.76,1.6,3.46-2.04,7.27-3.64,9.36-6.7-2.7-1.46-1.57-1.03-4.86-1.15l-.14,1.34c1.43,1.53,1.72,1.52,2.44,3.47l-.87.58c-1.86-1.15-2.82-1.7-4.55-3-6.54,5.23-24.33,17.39-22.91,26.46l1.31,1.2,1.08-.3c.63-4.22-.02-4.44,2.24-7.3l1.19.69c-.02,4.28-.04,4.12-1.51,8.18-3.76,2-5.19-1.32-7.64-4.31l-1.08.93c.59,2.54,1.13,2.72,2.88,4.77l-1.13,1.65-1.37-.27-.86-2.89c-2.12,1.28-1.96,2.3-4.34,3.09.48,2.47.75,3.97,1.45,6.43l-1.23.77-1.11-.42-1.77,1.4-1.96-1.76c-1.14,5.74,3.56,5.7,1.52,8.08-3.52.21-4.44.19-7.62,2.1-1.97,3.3-2.44,4.18-3.8,7.76l2.3,2.58-.43,1.79c-2.48,1.39-3.26,1.33-6.05,1.82-2.83,4.81.41,8.49-3.09,16.16-2.23-.18-1.25.14-2.99-.8-1.26,6.27,3.17,7.84,1.5,13.34-2.59,1.46-2.47,1.5-5.36,2.05-3.01,7.87-.61,36.72-11.43,33.19,1.92-1.46,1.22-1.06,3.71-1.8,3.21-48.37,21.72-90.37,59.43-122.05,16.91-14.2,33.59-22.08,53.69-30.8Z"/>
  <path class="st10" d="M1508.76,1120.06c3.84,4.25,5.2,8.35,4.72,14.15-2.24,27.12-28.56,54.19-47.98,71.16-24.86,21.73-50.34,43.02-75.65,63.58l-3.66,3.24c-8.2,6.17-17.97,15.29-25.64,20.58-.25-4.29,4.78-9.37,7.57-12.68l-.38-1.54-3.88-1.86.73-.61c2.39,1.29,3.89,2.33,6.59,2.71l.38-2.91c4.45-1.49,8.15-2.42,10.26-6.45l-1.95-3.41c2.94,1.06,1.45.93,4.64.22,2.69-2.43,2.3-1.12,2.59-3.77-4.11-.66-5.47.53-8.3-.1,3.08-.77,5.12-1.25,8.12-2.41l.74-3.64c.12,3.16-.42,4.64,1.09,6.73,6.71-4.51,21.05-14.8,27.19-20.77.35-1.58.65-2.92.9-4.03,1.23-.97,1.28-1.23,2.75-1.67,12.94-3.9,23.67-17.63,34.05-26.43,2.69-2.24,6.59-7.82,9.59-9,11.07-4.32,28.01-32.84,36.64-37.46,4.84-10.91,11.37-26.47,8.93-38.7-.49-2.51-1.12-2.09-.04-4.93Z"/>
  <path class="st13" d="M900.04,1287.65c-2.84-1.73-3.43-1.32-6.69-1.57l-.05-.7c6.18-1.23,24.11.71,31.44,1.31l-1.63.24c8.33.65,31.52.97,37.69,4.42l-1.87.66c29.78,5.63,87.14,2.46,118.52,1.86,2.05-.04,2.19.03,4.04.92-35.89,6.57-92.79,2.99-129.29-.56-17.03-1.66-34.12-5.32-52.15-6.58Z"/>
  <path class="st16" d="M759.49,1165.82c28.46,1.16,93.35,10.84,121.67,17.21-7.09,4.71-33.66-4.17-42.19-5.6-3.61-.6-4.76,2.75-9.13,3.36-1-.93-1.91-1.87-2.82-2.9-3.66-4.11-68.61-10.01-78.09-10.77,2.77-1.13,7.38-1.12,10.55-1.3Z"/>
  <path class="st16" d="M439.36,1676.55c.7-3.65,7.64-7.42,10.75-10.02,9.36-7.85,18.51-15.94,27.57-24.14,3.34-3.03,5.18-6.16,9.08-8.65l2.27,1.27c-12.46,12.89-32.86,34.93-49.67,41.54Z"/>
  <path class="st16" d="M1262.58,1371.85l.41-3.19c2.69-2.99,7.78-10.63,9.83-12.7,3.7-3.73,21.99-14.1,26.55-16.22l1.78,1.37-4.36,3.82c-12.09,8.71-22.58,18.14-34.21,26.92Z"/>
  <path class="st16" d="M1325.17,1226.15l.95,2.26c-3.33,7.6-17.83,11.32-18.61,21.38-.3.53-.61,1.07-.91,1.6-2.49,0-6.96,0-9.27-.76,8.98-8.52,18.43-16.44,27.84-24.48Z"/>
  <path class="st16" d="M931.11,1333.27l16.62,3.77c-6.6.75-12.94,3.87-17.24,2.35l-.8-4.39,1.42-1.73Z"/>
  <path class="st16" d="M1262.11,1278.07c-.7,3.33-1.31,6.48-2.09,9.8-3.84,1.8-5.01-1.49-10.83-1.47,4.08-2.84,8.7-5.64,12.92-8.33Z"/>
  <path class="st13" d="M733.31,1140.71l1.04-.12c1.91,2.26,5,5.53,4.6,8.49l-5.24,2.22-.88,2.48c.85,3.76,1.67,4.53,3.83,7.64-4.47-2.65-8.4-15.99-6.97-19.83,1.75,1.31.81.7,2.85,1.82l.76-2.7Z"/>
  <path class="st10" d="M1429.57,1143.47c3.42.86,5.29,1.91,5.58,5.41l-2.03,1.09c-3.24-.24-5.13-.13-8.09-1.52.77-2.77,1.77-2.74,4.54-4.98Z"/>
  <path class="st2" d="M1021.51,890.1c3.12-2.91,9.44-3.21,13.58-2.75l.02,1.65-2.24,1.98c1.01.9,7.02-.93,10.35-.67l1.55-.87-3.1-1.26c3.84-3.71,14.1-2.39,19.2-1.68l-1.27.86c.97,5.58,9.67,5.86,15.37,7.68,4.31,5.33,4.93,2.09,8.97,6.14.39,1.28,1.85,5.77,2.02,6.82-1.53,1.2-1.66,1.14-2.59,2.86-6.33-2.37-40.49-7.62-47.03-6.93l-.61.74,5.4.72-1.4-.09c-6.39-.33-20.91,3.65-27.96,4.11-2.93.19-23.32,12.19-25.18,14.43l-2.4.26-1.16-1.84c-2.44-.97-1.39-.22-3.12-2.27,3.32-2.01,1.77,2.23,4.22.66,6.46-4.14,9.09-6.3,16.17-8.26l-4.34-4.69,2.22-1.9,3.87-.14c7.66.06,9.37-4.68,9.98-11.33,5.8.18,7.32,1.23,9.48-4.24Z"/>
  <path class="st16" d="M998.18,905.81l3.87-.14c1.22,2.6,1.37,2.83,1.99,5.6-2.32,1.49-1.12,1.04-3.74,1.12l-4.34-4.69,2.22-1.9Z"/>
  <path class="st15" d="M984.19,924.1l2.4-.26c1.86-2.23,22.25-14.24,25.18-14.43,7.05-.46,21.57-4.45,27.96-4.11l1.4.09-5.4-.72.61-.74c6.54-.69,40.7,4.57,47.03,6.93.93-1.73,1.06-1.67,2.59-2.86,6.62,3.78,19.67,12.8,25.75,17.45-2.73,1.95-3.24,1.55-3.8,4.01,2.77,3.04,7.19,6,8.47,9.45l-.42,3.97c-46.75-55.62-123.6-43.88-151.9,23.51-3.11-9.9,11.41-30.81,17.9-38.14l.73-.81c.45-2.45-.04-1.34,1.5-3.32Z"/>
  <path class="st9" d="M1066.69,1077.53c-.96-2.71-1.8-4.34-1.59-7.21l1.61-.16c4.41,3.1,5.28,3.57,10.68,3.6-3.52,1.28-7.14,2.67-10.7,3.77Z"/>
  <path class="st9" d="M1002.65,919.26c6.12.97,4.8.84,7.44,6.26-6.33-.53-5.36-.56-7.44-6.26Z"/>
  <path class="st16" d="M1074.97,895.02c8.34,1.82,21.12,10.61,24.89,11.08,2.3,3.97,6.88,4.23,10.87,2.48l.41,4.23c.41.21,5.8,2.5,5.68,2.1,1.68,5.72,3.7,7.82,9.72,4.63,15.5,15.89,25.5,36.34,28.52,58.33,4.06,29.71-1.98,56.18-20.23,80.31-4.91,6.51-15.61,18.2-22.53,22.48-2.93,2-10.23,6.11-11.21,8.95l1.1,1.31c-.59,1.73-1.1,3.5-1.88,5.14-.63,1.31-2.48,5.4-3.12,6.37-9-3.93-3.06,3.64-13.34-7.92-1.64,2.91,3.15,2.15,2.38,7.34-3.7,1.79-11.88-.56-14.09-3.88-4.38,3.39-2.39,2.75-7.64,3.26-7.05-4.08-14.45-7.54-22.77-6.5-2,2.26-1.78,2.33-4.64,3.12-2.88-.75-3.94-1.02-6.98-1.41-2.23,1.39-1.31.54-2.53,2.82.34.14,30.04.72,33.52.93l-.05.32c-20.04-.13-39.68,1-59.68,1.32-1.72.03-4.51,3.43-5.63,4.68l.23,1.09c2.4-.57,6-1.99,7.64-1.15-4.44,2.29-28.04,6.8-34.46,8-1.63.3-1.77-.41-2.7-1.83,2.57-1.45,3.2-1.84,5.49-3.67l-.07-2.25c-2.97-3.95-4.51-3.56-8.84-5.29,10.67-5.99,17.89-8.81,29.46-12.71-4.23-2.48-8.72-4.79-12.29-8.08-.75-5.12-13.86-15.31-18.98-21.47-.05-3.01,1.88-.83,1.3-3.93-1.87-10.07-5.42-6.98-3.85-17.07l-2.36.97-1.62-.76c-.17,1.2.33,1.94.74,3.06-3.2-.84-2.02.04-3.79-2.5l.68-2.16h3.84c2.65-.9,1.57-.2,3.14-2.4,1.13-4.51-2.29-5.73-1.93-11.18,2.86-2.35,1.17-1.65,5.52-1.39l1.21-1.61c8.26,22.94,22.44,41.24,44.88,52.01,3.69,1.73,7.47,3.26,11.33,4.58,16.39,4.39,29.72,5.11,46.35.76,3.56-1.1,7.18-2.49,10.7-3.77,9.09-3.46,14.38-7.56,22.26-13.12,15.76-14.47,22.56-21.72,29.26-42.99.23-.82.45-1.65.66-2.48,6.88-27.73.54-48.48-13.61-72.31l.42-3.97c-1.28-3.45-5.7-6.41-8.47-9.45.56-2.46,1.07-2.06,3.8-4.01-6.08-4.65-19.13-13.66-25.75-17.45-.17-1.05-1.63-5.54-2.02-6.82-4.04-4.05-4.66-.82-8.97-6.14Z"/>
  <path class="st10" d="M1099.65,1060.64c1.34,2.01,1.03,1.82,3.18,3.06l1.06,2.59h-1.41s.43-.65.43-.65l.68.77c-6.48-.1-16.83,5.32-18.68,11.69l.87,1.59,3.06.5c-16.51,9.06-54.63,7.41-73.35,5.62l-1.1-1.04c2.19-.99,2.25-.86,4.68-1.07l1.36-2.49-1.41-2.27,1.32-2.17c16.39,4.39,29.72,5.11,46.35.76,3.56-1.1,7.18-2.49,10.7-3.77,9.09-3.46,14.38-7.56,22.26-13.12Z"/>
  <path class="st16" d="M809.14,945.09l5.78,12.73,1.47,1.28c2.89,4.23,5.19,7.45,8.4,11.5,6.71,6.91,11.45,11.82,19.48,17.23,14.84,8.25,22.4,12.07,39.22,13.8,4.94.09,12.38-.59,16.22,1.38,2.13,3.43,1.4,2.89,1.46,7.63.04,4.16-.13,11.58.48,15.41l-1.58-3.07c-6.41-1.47-27.29-2.79-32.68-.62-3.83,1-12.55,2.2-14.78,3.82l2.1,1.09-.32.35-1.76-1.69.97,2.18c-5.5,1.44-3.5-1.65-8.25-.38-2.25,1.97-1.4,2.01-3.54,2.26-6.23.75-24.54,8.1-29.59,11.44-1.4-5.76,2.54-3.59,1.84-11.34l-1.2-2.21c1.24-.51,2.34-1.1,3.49-1.77,4.2-2.01,7.51-1.3,11.24-4.73,1.95-1.8,3.15-2.46,5.53-3.44-1.79,1.61-4.54,1.55-6.79,1.68l-.12-1.4c3.4-3.31,3.43-1.45,7.98-3.75l-.87-3.02c2.52-1.21,1.79-.48,3.3-2.62-1.64-1.06-2.75-1.8-4.31-2.99l-1.18-.93c-3.98-2.24-9.77-6.76-12.94-10.08.07-3.54-1.79-5.13-4.02-8.03-3.53-8.46-11.51-14.62-16.65-23.32.23-3.13.22-4.46.11-7.51-.89-2.83-.98-5.88-.41-8.79,2.17,3.79,3.78,8.15,8.18,9l2.09-1.75c.08-7.26-2.33.49-2.87-7.16,1.88-1.59,2.14-1.45,4.54-2.17Z"/>
  <path class="st13" d="M844.26,987.83c14.84,8.25,22.4,12.07,39.22,13.8l-7.11.68c-.5,1.97-.15,1.13-.91,2.58-2.63-1.2-5.32-2.77-8.12-2.87-6.41,12.72-27.95-4.64-26.96-12.03l3.89-2.16Z"/>
  <path class="st2" d="M896.43,1015.17c.1.67.21,1.35.32,2.02l1.26.76.07,1.02-.96-.88,1.29,1.07c.08-2.98.04-5.81,0-8.79l1.01-.91,1.74,1.18c.04,4.16-.13,11.58.48,15.41l-1.58-3.07c-6.41-1.47-27.29-2.79-32.68-.62-6.21-.29-8.08-2.34-13.46-5.27,4.81-.54,13.09,2.72,14.91,1.94l-2.42-1.58,1.14-.91c5.86-.44,16.96-2.08,21.94-1.27,1.97.26,4.87-.01,6.95-.1Z"/>
  <path class="st13" d="M813.85,965.84c-1.74-1.74-2.25-1.84-4.4-3.2-1.75-3.57-1.9-2.1-1.12-4.89,3.42-1.39,2.28-.98,6.59.06l1.47,1.28c2.89,4.23,5.19,7.45,8.4,11.5-3.63,2.15-3.08,2.69-6.22,2.13-1.31-2.99-1.79-5.18-4.72-6.88Z"/>
  <path class="st2" d="M963.04,1101.41c4.32,1.73,5.86,1.34,8.84,5.29l.07,2.25c-2.29,1.83-2.93,2.22-5.49,3.67.92,1.42,1.07,2.13,2.7,1.83,6.42-1.2,30.02-5.71,34.46-8-1.64-.84-5.24.58-7.64,1.15l-.23-1.09c1.12-1.25,3.91-4.65,5.63-4.68,20-.32,39.64-1.45,59.68-1.32l.05-.32c-3.48-.21-33.18-.79-33.52-.93,1.22-2.28.3-1.43,2.53-2.82,3.04.39,4.1.66,6.98,1.41,2.86-.79,2.64-.86,4.64-3.12,8.32-1.04,15.72,2.42,22.77,6.5,5.25-.51,3.26.13,7.64-3.26,2.21,3.32,10.39,5.67,14.09,3.88.77-5.19-4.02-4.43-2.38-7.34,10.28,11.56,4.34,3.99,13.34,7.92l.85,1.8c1.97.04,1.1.34,2.63-.91,10.43,4.09,16.27,9.76,26.82,10.7l.07,1.53c-2.63.86-6.35.34-9.18.04,11.39,9.85,13.41.7,24.16,3.49,1.96,4.91,2.56,5.99,5.56,10.35l-.81.96c3.43,4.11,15.1,16.28,16.59,20.08l-.37,3.31c-3.33,2.7-2.55,2.18-3.21,7.96-49.99-67.38-140.87-76.46-206.37-27.29-14.98,11.24-28.8,26.2-36.46,43.42l-3.56,7.9c-.67-1.2-.89-2.08-1.36-3.39,4.65-8.46-.94-6.16-.39-11.26,1.74.25,1.3.42,3.08,1.82l1.55-1.6c1.13-5.28,1.68-8.08,5.53-12.15,1.38-1.44-.02-5.6.46-7.84.02-.07.45-2.08.75-2.27,9.75-6.27,20.67-15.27,29.46-22.37-2.79,1.07-3.2,1.59-6.07,1.55l6.2-5.51c.22-3.76,2.31-3.75,4.77-8.14l-3.18-2.49c2.96-.15,5.98.19,8.94.41l1.45-1.79c-.13-.31-2.76-2.46-3.23-2.86-5-.73-8.41,3.1-14.14,4.57l-.7,1.55,1.87,3.12-.39.94c-2.94-.12-3.96-.25-6.91.17-.68,9.7-3.47.46-8.55,5.78-1.4,1.47-5.76,6.46-5.84,7.96l4.05.41c-1.05,2.63-10.57,1.89-14.6,8.99,2.5,1.36,2.47,1.22,4.3,3.36l-.75,2.04c-3.86-1.56-4.9-1.1-7.8,1.22-.46,2.6-.18,2.64.69,5.21l2.05.69c-2.15.43-2.88.27-5.03-.15-4.18,5-15.05,16.71-14.62,22.85l4.39,2.29.36,1.47-1.55.98c-4.8.12-5.18,1.01-8.06-1.24,8.76-31.04,43.66-65.03,72.42-78.68Z"/>
  <path class="st8" d="M973.11,912.21c2.78.37,5.25,1.99,5.65,2.18,4.86,2.33,5.48-6.41,17.19-6.69l4.34,4.69c-7.09,1.96-9.72,4.12-16.17,8.26-2.45,1.57-.89-2.68-4.22-.66,1.73,2.04.68,1.3,3.12,2.27l1.16,1.84c-1.54,1.98-1.05.87-1.5,3.32l-.73.81c-6.49,7.33-21.02,28.24-17.9,38.14-.97,5.74-1.89,9.79-3.3,15.4l-.7,8.64c-.21,11.84,1.42,18.12,4.07,29.77l-1.21,1.61c-4.35-.26-2.66-.96-5.52,1.39-.36,5.45,3.06,6.67,1.93,11.18-1.57,2.2-.48,1.5-3.14,2.39h-3.84c-.07-.03-.14-.07-.21-.11-.57-.09-1.14-.18-1.71-.27-1.35-1.42-8.17-23.48-9.54-27.5l-.32.32c-.89-2.27-1.3-4.76-1.83-7.17l-1,.2-.83,5.2c-.34-5.43-.58-10.22-.33-15.66,1.22-30.29,14.36-58.88,36.55-79.54Z"/>
  <path class="st13" d="M960.06,990.4c-3.43-2.01-2.34-.63-3.76-3.96,1.68-3.71.5-2.01,4.46-4.68l-.7,8.64Z"/>
  <path class="st8" d="M816.58,838.3c.98,8.92-4.55,10.51-3.05,17.91,3.4,3.16,7.36,5.21,9.22,8.49l-.72.77c-3.64,6.33-8.33,13.33-11.32,19.74-8.39,25.4-9.66,34.68-1.57,59.87-2.41.73-2.67.59-4.54,2.17.54,7.65,2.95-.1,2.87,7.16l-2.09,1.75c-4.39-.85-6.01-5.21-8.18-9-.57,2.91-.48,5.96.41,8.79-2.29.47-1.53.4-4.06.1-13.33-19.03-5.45-46.32-10.15-59.22,1.99-22.04,18.28-43.38,33.18-58.54Z"/>
  <path class="st16" d="M1160.3,1161.74c.66-5.78-.12-5.26,3.21-7.96,3.53,6.61,11.62,7.98,16.41,11.02,5.91,2.15,5.2,1.38,8.83-2.87,11.2,20.7,18.73,41.67,22.01,65.1-5.45,4.89,1.08,9.9-1.17,15.25-10.54,4.42-11.91,3.15-15.46-6.2.85.39,1.03,1.46,1.63,2.72-.96,3.66-.04,2.16-2.83,4.68l-1.6-.22c-3.89-15.47-11.12-76.01-30.37-81.31l-.66-.21Z"/>
  <path class="st13" d="M1102.19,1090.92c6.64,2.17,10.93,4.17,17.26,7.09,27.57,13.94,50.95,32.71,66.71,59.83l2.59,4.09c-3.63,4.25-2.92,5.02-8.83,2.87-4.79-3.04-12.88-4.41-16.41-11.02l.37-3.31c-1.49-3.8-13.16-15.97-16.59-20.08l.81-.96c-3-4.36-3.6-5.44-5.56-10.35-10.75-2.79-12.77,6.36-24.16-3.49,2.83.3,6.55.82,9.18-.04l-.07-1.53c-10.55-.94-16.39-6.61-26.82-10.7-1.53,1.25-.66.95-2.63.91l-.85-1.8c.64-.97,2.49-5.06,3.12-6.37.78-1.64,1.29-3.41,1.88-5.14Z"/>
  <path class="st16" d="M1102.19,1090.92c6.64,2.17,10.93,4.17,17.26,7.09l-3.31,2.66c-6.88,1.49-9.74-1.13-15.83-4.61.78-1.64,1.29-3.41,1.88-5.14Z"/>
  <path class="st13" d="M867.7,809.34c32.55-7.3,56.89-2.91,86.29,14.22,3.71,2.16,14.3,10.48,16.51,13.65l-.66,1.18c.48,2.36.52,1.48,0,3.82-2.32-.55-8.24-4.71-11.07-6.34l-.16,2.27-1.8-1.42-4.35-3.93c-.9-.19-1.63-.76-2.49-1.27.03-2.63.3-2.75-1.09-4.88-1.43-.71-2.8-1.33-4.43-1.17-12.28,1.19-7.56-8.61-22.74-11.06-12.22-1.97-18.08-5.44-29.53,1.35-7.5-1.44-25.07,2.05-30.87,6.32-.72-1.23-2.21-1.78-3.55-1.3-1.34.47-2.16,1.83-1.95,3.24l-1.91,2.4-1.26.12c-8.23.84-14.6,1.14-19.7,7.44l-.64.8c-2.29.49-8.84.37-12.72.87,6.71-6.5,15.41-11.53,23.39-16.32,7.43-4.03,16.75-7.33,24.74-9.98Z"/>
  <path class="st10" d="M867.7,809.34c.69,1.52,1.3,2.85,2.05,4.36-3.83,5.08-12.92,6.36-18.91,7.87-3.74.94-4.87-.45-7.88-2.25,7.43-4.03,16.75-7.33,24.74-9.98Z"/>
  <path class="st4" d="M892.18,815.76c11.45-6.79,17.31-3.32,29.53-1.35,15.18,2.44,10.46,12.24,22.74,11.06,1.63-.16,3,.46,4.43,1.17,1.39,2.13,1.12,2.25,1.09,4.88.87.51,1.6,1.08,2.49,1.27l4.35,3.93,1.8,1.42.16-2.27c2.83,1.63,8.75,5.79,11.07,6.34.51-2.35.47-1.46,0-3.82l.66-1.18c2.11,1.96,5.44,4.81,6.97,7.04-2.06,4.14.99,4.34-.08,9.31l-1.14.48c-1.62-1.11-2.68-1.6-3.9-3.02l-2.27.88c-3.36-.45-3.96-1.48-7.36-.96.9,2.3,1.08,1.52.73,3.43-6.82-2.79-30.8-19.54-38.61-24.18-2.64-1.57-12.18,1.58-18.33-4.01-1.26-1.15-5.59-3.01-7.43-3.74,1.82-.61.85-.16,2.81-1.56l-1.01-1.73c-4-2.23-4.3-2.51-8.71-3.36Z"/>
  <path class="st2" d="M956.81,836.72l1.8,1.42.16-2.27c2.83,1.63,8.75,5.79,11.07,6.34.51-2.35.47-1.46,0-3.82l.66-1.18c2.11,1.96,5.44,4.81,6.97,7.04-2.06,4.14.99,4.34-.08,9.31l-1.14.48c-1.62-1.11-2.68-1.6-3.9-3.02-.73-.78-15.6-10.31-17.19-11.01l1.66-3.28Z"/>
  <path class="st16" d="M952.46,832.79l4.35,3.93-1.66,3.28c-2.81-2.29-4.05-2.51-5.14-5.41l2.45-1.8Z"/>
  <path class="st15" d="M867.38,1022.36c5.39-2.17,26.26-.85,32.68.62l1.58,3.07c-11.81,2.44-25.68.93-37.72,2.91-57.02,9.4-103.11,50.72-115.76,107.51-1.76,7.89-1.81,16.96-3.66,24.65l-1.75,2.35-.5-1.42c1.52-4.43,2.34-7.47.47-11.98l-.58,1.87-.91.37c.41-6.71,2.58-10.61,4.34-17.19l-2.24-1.44c.35-1.38.45-1.91,1.58-2.81,8.65-7.37,6.02-26.23,13.82-33.64,8.58-8.14,1.26-3.73.23-11.25l3.03-2.31.83.52-.53,5.05c3.71,1.09,8.63-15.02,9.8-15.34,10.05-2.75,3.15-6.51,8.41-12.07l2.24.67.2-8.58c2.1-2.77.8-2.17,3.54-2.74-2.91,6.46-2.95,3.26-1.27,11.14l-4.76,4.86,1.36.18c3-2.72,4.15-3.91,6.69-7.06,4.64-2.17,15.13-14.84,21.36-17.48,2.07-.88.28.37,2.36-1.39,5.05-3.34,23.35-10.69,29.59-11.44,2.14-.25,1.29-.29,3.54-2.26,4.75-1.27,2.75,1.82,8.25.38l-.97-2.18,1.76,1.69.32-.35-2.1-1.09c2.22-1.62,10.95-2.82,14.78-3.82Z"/>
  <path class="st2" d="M861.3,822.08c5.81-4.26,23.37-7.76,30.87-6.32,4.41.85,4.71,1.13,8.71,3.36l1.01,1.73c-1.96,1.4-.99.95-2.81,1.56-8.79,2.86-19.21.82-28.16,4.79-6.83,3.02-47.77,21.72-42.41,30.36-1.72,2.14-4.01,5.17-5.77,7.15-1.86-3.29-5.82-5.33-9.22-8.49-1.5-7.41,4.03-8.99,3.05-17.91l2.99-2.66c3.88-.51,10.43-.38,12.72-.87l.64-.8c5.1-6.3,11.48-6.6,19.7-7.44l1.26-.12,1.91-2.4c-.21-1.41.61-2.77,1.95-3.24,1.34-.47,2.83.08,3.55,1.3Z"/>
  <path class="st8" d="M855.8,824.01c-.21-1.41.61-2.77,1.95-3.24,1.34-.47,2.83.08,3.55,1.3.6,1.03.53,2.33-.19,3.28-.72.96-1.94,1.39-3.1,1.09-1.16-.29-2.03-1.26-2.21-2.44Z"/>
  <path class="st15" d="M828.52,857.56c-5.36-8.64,35.58-27.33,42.41-30.36,8.96-3.96,19.37-1.93,28.16-4.79,1.84.73,6.17,2.59,7.43,3.74,6.15,5.6,15.69,2.45,18.33,4.01,7.81,4.64,31.8,21.39,38.61,24.18.35-1.91.17-1.13-.73-3.43,3.4-.51,3.99.52,7.36.96l2.27-.88c1.22,1.43,2.28,1.91,3.9,3.02l1.14-.48c1.07-4.97-1.97-5.17.08-9.31,2.55,2.88,5.13,5.66,7.43,8.74,2.09,4.19,2.2,2.83,1.37,6.52-5.44,5.56-11.76,6.85-18.75,10.63-17.94-21.7-37.34-37.56-66.46-40.32-23.35-2.02-46.55,5.32-64.5,20.39-2.72,2.32-5.45,4.9-8.06,7.36Z"/>
  <path class="st15" d="M1160.96,1161.95c19.25,5.3,26.48,65.84,30.37,81.31l1.6.22c2.79-2.52,1.87-1.02,2.83-4.68-.6-1.26-.78-2.33-1.63-2.72,3.55,9.35,4.92,10.62,15.46,6.2,2.25-5.35-4.28-10.36,1.17-15.25,3.67,25.61,8.42,35.61-21.9,32.29-3.1-39.99-6.05-61.78-27.9-97.37Z"/>
  <path class="st13" d="M1018.22,886.99c28.6-7.71,56.29-3.14,81.71,11.67,1.9,1.11,3.78,2.28,5.63,3.48,8.39,5.61,14.21,9.79,20.98,17.39-6.02,3.18-8.04,1.09-9.72-4.63.12.4-5.27-1.89-5.68-2.1l-.41-4.23c-3.99,1.75-8.57,1.49-10.87-2.48-3.77-.47-16.55-9.26-24.89-11.08-5.7-1.81-14.4-2.1-15.37-7.68l1.27-.86c-5.1-.7-15.36-2.03-19.2,1.68l3.1,1.26-1.55.87c-3.33-.26-9.34,1.57-10.35.67l2.24-1.98-.02-1.65c-4.14-.45-10.46-.16-13.58,2.75-.93-.74-2.46-2.31-3.29-3.11Z"/>
  <path class="st2" d="M936.89,1007.42l.83-5.2,1-.2c.53,2.41.95,4.9,1.83,7.17l.32-.32c1.36,4.02,8.19,26.08,9.54,27.5.57.09,1.14.18,1.71.27.07.04.14.08.21.12l-.68,2.16c1.77,2.54.6,1.66,3.79,2.5-.41-1.12-.91-1.86-.74-3.06l1.62.76,2.36-.97c-1.57,10.09,1.97,7,3.85,17.07.58,3.1-1.35.92-1.3,3.93,5.12,6.16,18.23,16.35,18.98,21.47-1.67-.98-3.29-2.04-4.86-3.18-22.73-16.74-34.73-42.6-38.46-70.02Z"/>
  <path class="st2" d="M783.4,896.85c4.7,12.9-3.19,40.19,10.15,59.22,2.53.3,1.77.37,4.06-.1.12,3.05.13,4.37-.11,7.51,5.14,8.71,13.12,14.86,16.65,23.32,2.23,2.9,4.1,4.49,4.02,8.03-30.42-23.23-42.71-61.01-34.78-97.98Z"/>
  <path class="st10" d="M973.11,912.21c12.18-12.49,28.4-20.76,45.1-25.22.83.8,2.36,2.37,3.29,3.11-2.16,5.48-3.68,4.42-9.48,4.24-.61,6.65-2.32,11.39-9.98,11.33l-3.87.14-2.22,1.9c-11.71.27-12.33,9.02-17.19,6.69-.41-.2-2.88-1.81-5.65-2.18Z"/>
  <path class="st13" d="M998.18,905.81c.64-2.96.62-4.39,2.77-6.48l3.98,1.66c3.85-.95,4.2-2.86,7.1-6.65-.61,6.65-2.32,11.39-9.98,11.33l-3.87.14Z"/>
  <path class="st16" d="M781.42,560.22c4.13-.78,8.09-1.23,12.25-1.75.98,4.52,1.21,5.11,3.63,9.04-5.18,4.32-18.4,10.72-24.88,14.11-.63-5.7,4.86-4.18,4.95-9.42,2.37-.77,1.35-.15,2.85-2.26.08-3.86.14-5.08,1-8.86l.2-.86Z"/>
  <path class="st9" d="M1044.59,314.47c.06-7.82-.98-37.89,2.37-42.23.9,4.85.9,6.21.77,11.17,4.71,4.18,4.04-2.39,4.69,4.7-1.46,2.74-1.67,2.52-4.41,4.15-2.69,10.4,3.04,13.19-3.42,22.21Z"/>
  <path class="st9" d="M917.46,1177.87c1.14,7.25,9.73,7.54,12.25,14.24-5.77-.88-14.69-.37-15.81-6.34l3.56-7.9Z"/>
  <path class="st9" d="M1301.15,1341.11l5.27-4.04c1.38,2.89,2.31,4.09,1.98,7.27-3.75,2.86-6.88-.19-11.61.59l4.36-3.82Z"/>
  <path class="st9" d="M1389.85,1268.95c2.1,4.05,2.07,2.61,1.6,6.56l-2.24.25c-1.21-1.2-2.04-2.74-3.02-3.57l3.66-3.24Z"/>
  <path class="st12" d="M1299.34,703.63c61.92-2.04,117.37,41.92,119.27,105.55.53,13.73-1.96,27.4-7.3,40.05-9.87,24.09-24.76,43.44-47.15,57.33l.18,2.4c3.95,2.64,14.62,6.73,19.66,8.98,14.89,6.48,28.57,15.45,40.46,26.52,3.65,3.39,7.36,6.74,10.84,10.3,10.82,12.76,20.55,25.11,27.57,40.44,2.01,4.14,3.72,7.48,5.26,11.84,7.83,13.29,13.43,47.84,12.8,64.23.26,10.38-24.05,12.92-24.35,2.03-.84-29.89-5.08-48.02-18.07-75.16-3.53-5.2-7.02-10.77-10.44-16.07l-5.87-7.25c-26.87-28.1-47.7-40.86-85.4-46.97-.75-10-.35-24.33-.34-34.7,20.57-7.52,29.65-16.08,42.39-33.15,6.65-10.21,11.19-21.63,13.38-33.61,3.93-22.29-1.34-45.22-14.6-63.56-23.4-32.56-71.11-44.65-107.35-28.45-9.27,4.15-15.49,8.55-23.69,14.56l-7.63,7.04c-4.41,5.58-6.05,8.86-13.54,10.55-8.62,1.95-15.3-2.73-17.06-11.48,1.73-3.02,3.35-5.36,5.32-8.23,8.42-15.4,40.23-31.31,56.09-37.8,12.4-3.92,16.62-4.78,29.57-5.41Z"/>
  <path class="st3" d="M1390.68,938.77c11.16,2.48,14.6,5.91,21.68,7.33l-.11-1.78c4.98-.28,7.29-.44,12.21.14,3.65,3.39,7.36,6.74,10.84,10.3,10.82,12.76,20.55,25.11,27.57,40.44,2.01,4.14,3.72,7.48,5.26,11.84,7.83,13.29,13.43,47.84,12.8,64.23.26,10.38-24.05,12.92-24.35,2.03-.84-29.89-5.08-48.02-18.07-75.16-3.53-5.2-7.02-10.77-10.44-16.07l-5.87-7.25.82-1.71c-2.26-11.26-29.9-26.07-32.34-34.34Z"/>
  <path class="st14" d="M1428.07,982.08c.98-4.83-1.22-5.84-.66-10.76,7.8-3.89,17.64,22.58,17.38,28.76-4.87.55.28-1.47-6.28-1.93-3.53-5.2-7.02-10.77-10.44-16.07Z"/>
  <path class="st14" d="M1412.36,946.1l-.11-1.78c4.98-.28,7.29-.44,12.21.14,3.65,3.39,7.36,6.74,10.84,10.3l-1.08,2.61c-8.03,4.98-16.27-5.78-21.86-11.27Z"/>
  <path class="st14" d="M1462.87,995.2c2.01,4.14,3.72,7.48,5.26,11.84l-1.2,1.93-1.82-.18c-5.94-4.69-5.09-7.73-2.24-13.59Z"/>
  <path class="st14" d="M1246.19,738.79l1.7-.08c-.73,7.08-4.49,3.73-1.3,10.24l-7.63,7.04c-4.41,5.58-6.05,8.86-13.54,10.55-8.62,1.95-15.3-2.73-17.06-11.48,1.73-3.02,3.35-5.36,5.32-8.23l2.29,1.63.14,2.98c4.24-1.41,5.18-1.04,9.83-.65l1.46.13.89-4.66c2.1-2.52,12.96-6.78,16.75-6.32l1.15-1.16Z"/>
  <path class="st1" d="M1208.36,755.07c3.41-.49,11.7-1.98,14.38-.68,3.52,1.7,14.99.7,16.22,1.61-4.41,5.58-6.05,8.86-13.54,10.55-8.62,1.95-15.3-2.73-17.06-11.48Z"/>
  <path class="st14" d="M1364.16,906.56c-1.78-9.43,15.82-21.74,22.99-26.43l.66-6.21c2.16-2.63,1.07-2.39,3.31-2.62l-.16,3.11-.04-.25,1,2.18c5.36-7.39,10.58-16.05,11.8-25.13.5-3.72.43-6.9,1.33-10.59l1.81-.45c5.19,3.35,4.9,3.86,4.45,9.06-9.87,24.09-24.76,43.44-47.15,57.33Z"/>
  <path class="st14" d="M1269.77,709.04c12.4-3.92,16.62-4.78,29.57-5.41,10.86.51,3.18-.41,11.64,4.72,1,.6,2.84-.37,5.43,2.49l-.59,1.21c-7.86,1.77-35.69,1.9-44.09-.41l-1.96-2.6Z"/>
  <path class="st14" d="M1340.24,711.09c2.51.18,3.08.44,5.53,1.16,1.23,3.09.65,2.53-.56,6.61-3.57-1.53-4.59-.64-6.62-3.23l1.65-4.54Z"/>
  <path class="st10" d="M1180.63,806.35c23.05-2.52,46.23.34,66.83,11.63,6.79,4,11.03,6.41,17.11,11.33,8.95,7.17,12.9,11.7,20.15,20.65.79-4.03-.21-2.59,2.37-4.91l2.24-.11c2.53,2.46,1.64,1.01,2.48,4.69-.97,2.72-1.29,3.62-2.64,6.15,11.57,18.88,16.15,31.16,19.66,53.03,1.54,16.33.21,28.13-5.87,43.38-2.14,5.97-4.9,13.86-8.88,18.83-9.47,15.85-21.94,30.09-38.89,38.11l-.05.8c3.78,3.09,12.5,5.79,17.42,8.03,5.21,2.35,8.64,3.99,13.66,6.83,6.78,3.98,18.57,10.99,24.34,16.42,9.92,7.04,14.57,12.65,22.5,22,19.6,21.72,38.15,64.58,39.08,93.68.93,7.25,1,11.69,1.05,19.03-1.61,1.75-1.91,2.57-3.86,3.35-3.87,1.73-9.64,2.02-13.83,2.15-11.32.37-8-19.54-9.2-29.09-3.7-30.78-17.14-59.57-38.36-82.17-22.19-23.22-51.84-37.91-83.76-41.5-10.42-1.22-25.05-1.31-35.76-1.64-.65-6.87-.38-17.08-.4-24.21,12.9-.3,26.39-.13,38.64-4.64,20.95-7.72,36.79-21.9,47.96-40.89,2.06-3.97,4.03-8.67,5.89-12.8,11.3-35.82,5.08-56.59-18.26-85.84-22.95-23.98-48.15-31.01-80.46-28.8,2.07-3.53,5.93-4.08,9.99-5.44-.33-.72-10.3-5.18-12.64-6.91-2.75-.45-1.46.1-3.58-2.43-4.25-5.39-2.62,2.29-6.4-6.73l11.47-1.98Z"/>
  <path class="st2" d="M1189.5,1006.63c.69,4.84,1.2,9.2,2.41,13.95,4.31-2.57,7.03-.4,10.88-.16,24.11,1.52,46.53-6.2,65.46,14.07,1.33,1.43,21.2,14.75,24.28,16.44l-1.28-1.89c3.24-1.98,11.64.42,13.47,3.1-5,.39-6.36-.23-11.05-.48,7.59,9.22,15.3,10.94,22.23,18.17,9.68,10.1,15.28,27.71,23.53,38.39-.57,2.8-1.14,2.56-.08,4.14,3.29,4.9,5.22,11.62,7.62,16.61,2.3,4.77,1.24,19.06,2.38,21.61.42,5.51.7,18.49,3.85,22.33,2.96,1.25,14.44,5.12,16.13,6.36-3.87,1.73-9.64,2.02-13.83,2.15-11.32.37-8-19.54-9.2-29.09-3.7-30.78-17.14-59.57-38.36-82.17-22.19-23.22-51.84-37.91-83.76-41.5-10.42-1.22-25.05-1.31-35.76-1.64,1.01-7.59,1.02-12.68,1.08-20.39Z"/>
  <path class="st16" d="M1169.16,808.33l11.47-1.98,2.12,1.32c-1.41,2.15-.8,1.48-2.84,2.96l.43,1.06c8.51,3.18,18.9-.18,28.73,1.98,9.17,2.02,18.58,11.18,25.11,12.37l-.94,2.33c6.24,8.42,28.74,21.54,29.95,28.99l-.94,1.28c-22.95-23.98-48.15-31.01-80.46-28.8,2.07-3.53,5.93-4.08,9.99-5.44-.33-.72-10.3-5.18-12.64-6.91-2.75-.45-1.46.1-3.58-2.43-4.25-5.39-2.62,2.29-6.4-6.73Z"/>
  <path class="st13" d="M1175.56,815.06c4.04-.52,22.48.71,26.43,1.79-9.6.98-13.45,1.87-22.85.64-2.75-.45-1.46.1-3.58-2.43Z"/>
  <path class="st13" d="M1286.22,1024.79c6.78,3.98,18.57,10.99,24.34,16.42,9.92,7.04,14.57,12.65,22.5,22l-1.5.37-8.11-.24-.6-3.04c-10.92-10.69-12.33-7.86-25.56-14.25-3.43-1.65-4.96-4.03-5.77-7.64l.07-1.86-3.85-2.42c-2.14-3.33-1.63-5.34-1.52-9.34Z"/>
  <path class="st10" d="M1286.22,1024.79c6.78,3.98,18.57,10.99,24.34,16.42-.5.68-1.41,2.65-1.84,3.49-7.15,1.89-12.23-3.52-17.13-8.15l-3.85-2.42c-2.14-3.33-1.63-5.34-1.52-9.34Z"/>
  <path class="st8" d="M1349.35,1150.58c0-1.14.23-2.09.41-3.23l2.44,2.69c3.01,5.66,10.47,7.46,11.8,14.2.71,3.61-1.25,7.35.66,11.31,4.53-.41,2.92.54,5.74-1.78l.62-1.97.07,1.58c.82.82,1.49,1.54,2.1,2.54-1.61,1.75-1.91,2.57-3.86,3.35-1.69-1.24-13.17-5.11-16.13-6.36-3.15-3.84-3.43-16.82-3.85-22.33Z"/>
  <path class="st13" d="M1352.2,1150.04c2.77-1.92,2.58-1.85,5.85-2.66-1.39-3.37-9.39-6.94-5.33-11.98,4.87,7.49,12.25,25.2,14.61,27.98l1.9.28c1.2-2.64.88-1.52.66-4.65.96-1.04,1.09-1.35,2.25-2.12.93,7.25,1,11.69,1.05,19.03-.61-1-1.28-1.72-2.1-2.54l-.07-1.58-.62,1.97c-2.82,2.32-1.21,1.37-5.74,1.78-1.91-3.96.05-7.7-.66-11.31-1.33-6.74-8.79-8.54-11.8-14.2Z"/>
  <path class="st8" d="M1255.19,1009.13c-1.2-1.17-.66-.4-1.28-2.52,2.23-3.48,9.16-5.97,12.99-8.5,6.37-4.21,5.79-2.79,6.89-10.29,2.54-1.67,4.58-2.7,7.25-4.08l1.64-3.68c1.98-4.58,4.01-8.55,9.11-10.34l2.29,1.3c-9.47,15.85-21.94,30.09-38.89,38.11Z"/>
  <path class="st16" d="M1272.56,1017.96c5.21,2.35,8.64,3.99,13.66,6.83-.11,4-.62,6.01,1.52,9.34l3.85,2.42-.07,1.86c-11.29,1.2-10.7-7.91-24.15-16.84.96-2.2,2.39-2.21,5.19-3.61Z"/>
  <path class="st16" d="M1302.96,952.19c-1.85-4.44,3.89-30.63,3.36-37.33-.26-3.36.22-4.11,2.51-6.05,1.54,16.33.21,28.13-5.87,43.38Z"/>
  <path class="st16" d="M1247.46,817.98c6.79,4,11.03,6.41,17.11,11.33l-4.57-.85c-4.01.3-6.59-.83-8.88-.44-3.28-1.28-4.19-1.09-6.22-3.55.86-2.61,1.47-4.01,2.56-6.49Z"/>
  <path class="st16" d="M1280.51,944.47c2.59,4.27,7.05,7.19,8.38,10.47-3.76,3.22-9.26,1.15-14.27,2.33,2.06-3.97,4.03-8.67,5.89-12.8Z"/>
  <path class="st16" d="M1267.37,1021.57c-7.6-1.36-7.05-2.63-12.96-9.17l.73-2.47c3.78,3.09,12.5,5.79,17.42,8.03-2.8,1.4-4.23,1.41-5.19,3.61Z"/>
  <path class="st9" d="M1284.72,849.96c.79-4.03-.21-2.59,2.37-4.91l2.24-.11c2.53,2.46,1.64,1.01,2.48,4.69-.97,2.72-1.29,3.62-2.64,6.15l-.48.1-3.97-5.92Z"/>
  <path class="st16" d="M1323.45,1063.34l8.11.24c.15,1.69.16,2.54.17,4.23-2.85,2.48-1.27,1.99-4.76,1.89-3.39-2.47-2.31-1.32-3.52-6.36Z"/>
  <path class="st2" d="M751.36,1639.03c.76-22.17,14.97-41.63,35.85-49.11,20.89-7.48,44.22-1.46,58.88,15.19,14.66,16.65,17.68,40.56,7.61,60.33-11.51,22.62-37.2,34.21-61.77,27.87-24.58-6.35-41.45-28.91-40.58-54.28Z"/>
  <path class="st15" d="M751.36,1639.03c4.81,6.47,1.87,15.03,4.41,22.21,1.16,3.28,5.99,8.69,7.28,12.45,2.85,8.29,9.08,3.67,14.74,7.47,2.94,9.64,4.25,4.02,11.13,6.65,5.85,2.23,8.93,4.17,15.39,5.87l-3.62-.41c32.29,9.01,47.62-28.91,53.01-27.83-11.51,22.62-37.2,34.21-61.77,27.87-24.58-6.35-41.45-28.91-40.58-54.28Z"/>
  <path class="st11" d="M780.77,1647.87l-.42,1.54c-.51,1.83-.21,1.16-.84,2.32l-.87-.84c.81-20.49,4.65-34.48,23.22-45.67,11.13,1.87,14.08,1.58,23.23,8.05l1.36.94.81.58c3.38,7.98,5.29,12.41,4.39,21.41-.68,6.76-1.63,16.62-7.01,21.23l-1.82-.42c-4.98,7.35-8.76,12.57-18.31,13.93-5.12.76-10.32-.62-14.4-3.8-6.92-5.45-8.36-11.23-9.34-19.27Z"/>
  <path class="st15" d="M780.77,1647.87l-.42,1.54c-.51,1.83-.21,1.16-.84,2.32l-.87-.84c.81-20.49,4.65-34.48,23.22-45.67,11.13,1.87,14.08,1.58,23.23,8.05l1.36.94.81.58c3.38,7.98,5.29,12.41,4.39,21.41-.68,6.76-1.63,16.62-7.01,21.23l-1.82-.42c4.47-11.5,9.14-24.6,2.76-36.5-5.68-10.61-19.65-12.78-29.16-5.97-11.11,7.95-13.4,20.82-15.64,33.33Z"/>
  <path class="st16" d="M1434.9,1477.81c15.95-20.25,44-26.39,66.94-14.65,22.95,11.74,34.38,38.08,27.29,62.86-6,20.95-24.01,36.23-45.65,38.74-21.64,2.51-42.67-8.25-53.29-27.27-10.63-19.02-8.77-42.57,4.71-59.68Z"/>
  <path class="st15" d="M1529.13,1526.02c-6,20.95-24.01,36.23-45.65,38.74-21.64,2.51-42.67-8.25-53.29-27.27-10.63-19.02-8.77-42.57,4.71-59.68-.17,3.63-3.2,10.72-5.2,13.9-4.87,7.68-3.93,16.99-2.41,25.53.83,4.27,3.75,5.83,7.29,7.93,2.26,4.1,2.4,11.55,3.46,13.09,9.68,14.09,18.51,23.19,36.46,24.57-2.96-.88-6.84-1.79-9.31-3.41,27.13,6.59,37.75-2.56,54.11-22.62,5.46-6.69,7.41-8.83,9.3-17.45l.53,6.67Z"/>
  <path class="st11" d="M1449.37,1503.5c-.22,2.26-.32,3.85-.84,6.07-1.77-1.85-.62-4.54-.93-7.12-1.43-11.68,9.31-20.53,19.27-23.78,12.93-4.21,31.11,14.81,35.22,25.33-.09,2.25.2,1.47-.9,3.34,15.03,44.43-43.17,42.97-51.82-3.84Z"/>
  <path class="st15" d="M1449.37,1503.5c-.22,2.26-.32,3.85-.84,6.07-1.77-1.85-.62-4.54-.93-7.12-1.43-11.68,9.31-20.53,19.27-23.78,12.93-4.21,31.11,14.81,35.22,25.33-.09,2.25.2,1.47-.9,3.34-7.63-12.11-21.52-30.47-39.41-21.63-6.75,3.33-10.13,10.84-12.41,17.79Z"/>
  <path class="st2" d="M1623.87,1174.35c10.06-12.11,24.95-19.16,40.69-19.25,15.74-.1,30.72,6.75,40.93,18.73,18.34,21.52,16.71,53.61-3.72,73.15-20.44,19.55-52.57,19.75-73.25.47-20.68-19.29-22.72-51.36-4.65-73.1Z"/>
  <path class="st15" d="M1705.49,1173.83c18.34,21.52,16.71,53.61-3.72,73.15-20.44,19.55-52.57,19.75-73.25.47-20.68-19.29-22.72-51.36-4.65-73.1,1.3,4.83-6.11,16.25-6.33,22.22-.1,2.75,3.06,11.55,1.1,12.09-6.91,1.9,3.12,26.2,5.31,26.63,6.72,1.3,8.8,5.19,15.71,9.81l-1.86,1.44c8.6,7.35,27.22,10.15,38.23,9.13,4.38-.41,18.22-3.06,20.35-6.2.76-1.11,3.38-10.11,8.55-12.78,2.08-1.07,8.24-13.11,9.38-15.9,2.84-5.47-.46-7.31,2.42-12.1l-.33-.94c-2.25,1.54-1.85,2.58-2.86,5.97,5.4-28.92-8.23-25.7-8.05-39.89Z"/>
  <path class="st11" d="M1635.46,1206.27l-.89,5.32-.58-.68c.01-2.15-.51-15.75-.21-16.34,10.85-21.54,51.5-18.24,59.66,3.81l-1.14,2.46c7.33,32.73-22.07,39.78-45.79,24.26-7.65-5-9.6-10.16-11.05-18.83Z"/>
  <path class="st15" d="M1635.46,1206.27l-.89,5.32-.58-.68c.01-2.15-.51-15.75-.21-16.34,10.85-21.54,51.5-18.24,59.66,3.81l-1.14,2.46c-14.13-20.73-50.28-24.91-56.84,5.43Z"/>
  <path class="st16" d="M1614.97,839.26c8.89-31.73,76.02-53.92,93.01-14.46,8.33,12.17,15.98,42.47,19.48,57.48-24.63,5.3-48.48,12.01-72.83,18.34-7.76,2.02-19.09,6.13-26.06,7.48l-.33-1.51c-4.26-18.9-19.04-50.53-13.27-67.33Z"/>
  <path class="st15" d="M1707.98,824.79c8.33,12.17,15.98,42.47,19.48,57.48-24.63,5.3-48.48,12.01-72.83,18.34-7.76,2.02-19.09,6.13-26.06,7.48l-.33-1.51c-4.26-18.9-19.04-50.53-13.27-67.33,1.81,4.56,1.49,19.49,4.05,26.91,3.04,8.84,12.64,25.15,12.51,32.78,2.74,1.57,5.25-.99,8.25-.95,12.76.2,22.59-7.94,34.65-10.55,8.17-1.77,18.24-1.41,26.31-3.4,6.38-1.58,12.14-5.98,19.32-7.18,6.31-13.45-12.93-37.94-12.08-52.07Z"/>
  <path class="st11" d="M1637.13,853.7c-5.92-20.53,37.13-31.74,50.39-23.68,5.52,3.35,14.12,20.8,13.67,26.25l-1.71,2.03-2.11.04c-1.74,1.8-47.38,14.66-55.14,17.49-1.92-7.3-3.48-14.75-5.1-22.12Z"/>
  <path class="st15" d="M1637.13,853.7c-5.92-20.53,37.13-31.74,50.39-23.68,5.52,3.35,14.12,20.8,13.67,26.25l-1.71,2.03-2.11.04c-.68-2.45-1.43-4.89-2.25-7.3-10.43-30.97-47.94-18.97-57.99,2.66Z"/>
  <path class="st2" d="M1054.31,1631.07c27.64-.69,80.37-16.53,90.96,15.58,5.33,15.99-1.52,25.64-15.76,32.5l-.98,2.27c4.78,7.23,18.17,20.8,21.22,28.7,3.51,4.57,5.7,8.8,8.5,13.8-8.74,1.82-22.53,3.08-31.73,4.2-7.24-11.15-17.31-30.8-26.78-38.88-4.45.6-7.44.12-10.17,2.65l-.41,3.39c2.03,10.49,3.37,24.36,4.71,35.24-9.95.87-21.58,2.2-31.44,2.63-.46-5.38-1.3-12.53-1.14-17.79-3.18-15.26-5.92-66.7-6.98-84.29Z"/>
  <path class="st15" d="M1099.74,1689.24c-2.95-.35-4.22-.42-7.11-1.37l1.22.3,1.16-.67c3.54.14,8.94-.23,11.48,1.78,5.29,12.06,5.41,14.28,17.09,21.25,1.57,4.05,2.45,7.52,5.46,10.54l2.05.39c.23-3.13-.42-5.44-1.01-8.51,1.65,2.45,1.37,2.21,2.48,5.06,2.04,1.53,16.43,2.77,19.26,2.09l.55-1.56c-1.63-2.44-2.25-3.35-3.58-6.04l.96-2.38c3.51,4.57,5.7,8.8,8.5,13.8-8.74,1.82-22.53,3.08-31.73,4.2-7.24-11.15-17.31-30.8-26.78-38.88Z"/>
  <path class="st15" d="M1061.29,1715.36l.58-6.23.52-.39c.57,6.94.41,14.64,5.73,19.15,3.24.98,3.49.79,6.69-.29l.72.79-4.14.89c3.17.12,11.05.69,13.61-.84-3.04-.26-4.75-.63-7.67-1.24,4.55-.74,6.69-.79,10.73-2.8,3.77-4.93-.44-17.87-.2-28.44l1.3-.68c2.03,10.49,3.37,24.36,4.71,35.24-9.95.87-21.58,2.2-31.44,2.63-.46-5.38-1.3-12.53-1.14-17.79Z"/>
  <path class="st15" d="M1145.27,1646.65c5.33,15.99-1.52,25.64-15.76,32.5l-1.22-1.28c2.18-3.52,11.23-6.32,12.86-11.44l-3.37,2.11c-.16-.31,6.46-19.69,7.49-21.89Z"/>
  <path class="st11" d="M1088.18,1648.51l-2.29-1.81.57-1.41c5.94-2.18,18.11-1.84,24.32-1.11,6.31,6.31,6.84,6.42,8.24,15.26l-.61.44.36,1.3-.73.38-.71-4.39c-2.37,16.62-17.36,14.2-30.88,14.75-.68-5.67-2.4-15.95-1.12-21.43.35-1.52.97-1.26,2.85-1.98Z"/>
  <path class="st15" d="M1088.18,1648.51l-2.29-1.81.57-1.41c5.94-2.18,18.11-1.84,24.32-1.11,6.31,6.31,6.84,6.42,8.24,15.26l-.61.44.36,1.3-.73.38-.71-4.39c-7.07-12.5-16.32-9.62-29.15-8.66Z"/>
  <path class="st1" d="M670.83,789.26c8.68-35.28,29.08-61.36,62.27-76.5,26.74-12.17,57.22-13.16,84.7-2.77,8.69,2.63,20.03,9.36,27.24,14.92,7.99,6.48,13.03,10.85,19.3,19.1,2.66,3.81,5.42,7.66,7.94,11.55.17,5.34-1.2,5.18-5.87,7.58-4.93,2.12-7.53,3.21-12.76,4.72-6.83-5.97-11.92-13.02-18.39-19.2-16.01-15.29-38.59-22.88-60.59-21.64-29.45,1.67-51.78,16.91-68.86,39.95-9.58,18.27-15.89,38.4-12.71,59.26,11.93,6.76,4.99,8.7,5.55,20.88,3.13,6.93,5.45,11.15,9.33,17.73l-2.15.25c-2.86-2.55-14-10.2-17.49-10.03-3.08,2.76-2.84,9.09-2.08,12.87-.93,1.68-.74,1.84-2.09,3.02-7.78-12.94-13.72-28.17-15.28-43.25-2.85-7.85-.18-29.91,1.95-38.44Z"/>
  <path class="st14" d="M670.83,789.26c1.57-.9,5.35-3.3,5.9-4.85,3.26-9.27,17.39-38.97,25.51-43.07-.11,1.81-.25,2.83-.5,4.61,5.76-.89,11.22-1.21,16.06-4.43l.4,1.35-3.42,5.65c-1.35,3.62-2.08,5.14-6.01,6.61-1.75,4.26-3.37,7.24-2.97,11.84-9.58,18.27-15.89,38.4-12.71,59.26,11.93,6.76,4.99,8.7,5.55,20.88,3.13,6.93,5.45,11.15,9.33,17.73l-2.15.25c-2.86-2.55-14-10.2-17.49-10.03-3.08,2.76-2.84,9.09-2.08,12.87-.93,1.68-.74,1.84-2.09,3.02-7.78-12.94-13.72-28.17-15.28-43.25-2.85-7.85-.18-29.91,1.95-38.44Z"/>
  <path class="st12" d="M668.88,827.7l1.1-1.24c2.48,4.12,9.87,23.01,12.24,28.63l-.02-.11.93,1.93.04-1.52.04.62.47-1.8c1.78-.51.97-.4,2.41-.48-.64-4.91-3.29-16.26-3.19-19.67l1.4-.83,1.21.61c1.57,6.1-1.92,6.26.64,10.2,3.55-.05,3.77-.47,6.88-2.08-.14-2.75.03-1.84-.91-4.36.88-2.07,1.41-2.92,1.86-5.06l-.89-6.32c11.93,6.76,4.99,8.7,5.55,20.88,3.13,6.93,5.45,11.15,9.33,17.73l-2.15.25c-2.86-2.55-14-10.2-17.49-10.03-3.08,2.76-2.84,9.09-2.08,12.87-.93,1.68-.74,1.84-2.09,3.02-7.78-12.94-13.72-28.17-15.28-43.25Z"/>
  <path class="st9" d="M693.09,826.22c11.93,6.76,4.99,8.7,5.55,20.88-2.26-5.12-3.23-9.22-4.66-14.57l-.89-6.32Z"/>
  <path class="st12" d="M845.03,724.91c-.41,2.11-1.51,5.03-2.21,7.15-9.64-5.35-17.88-7.2-25.63-14.35l-1.17-1.1c-4.7.29-10.23.82-14.4-1.64-3.13-1.85-4.28-.9-7.37-1.89l1.31-1.39c7.68-3,14.13-2.17,22.23-1.71,8.69,2.63,20.03,9.36,27.24,14.92Z"/>
  <path class="st12" d="M853.95,742.08c4.25,3.14,5.55,1.13,10.39,1.93,2.66,3.81,5.42,7.66,7.94,11.55-1.72,1.74-.95,1.16-3.43,1.97-5.4-.05-14.93-10-14.9-15.45Z"/>
  <path class="st12" d="M784.59,716.62c7.45-1.13,31.41,7.92,39.07,10.81l.39.91c-4.06,1.9-13.67-2.82-16.78-2.21-2.54.5-2.25.52-5.51.74-10.91-5.17-33.03-3.7-46.34-4.23l.28-1.25c9.42-2.71,19.09-3.37,28.9-4.77Z"/>
  <path class="st14" d="M845.01,751.35c-.83-3.52-4.57-6.25-7.53-9.27,1.76-1.3,2.97-.58,5.88-.32,3.36,5.55,3.19,3.38,1.91,8.55l-.26,1.05Z"/>
  <path class="st16" d="M1580.32,761.94c2.73-3.1,21.11-20,24.18-22.54,10.1-8.33,42.24-40.86,51.79-46.4,4.67,2.8,11.08,20.7,14.16,27.26l-14.15,10.85c6.1,12.79,9.67,21.18,13.95,34.91,5.06-.32,16.65-1.51,20.89.19.74,1.2,1.13,1.51,1.41,2.79,3.79,8.64,6.8,15.99,10.04,24.85-30.2.3-81.05-2.98-109.12.56-3.15-7.82-15.42-25.45-13.15-32.49Z"/>
  <path class="st15" d="M1580.32,761.94c1.42,1.33,12.21,23.4,13.38,26.15,22.15,2.19,40.76.69,62.8-.08,11.77-.41,27.16.53,38.29-.87,1.91-5.25-6.14-11.62-2.24-18.13,3.79,8.64,6.8,15.99,10.04,24.85-30.2.3-81.05-2.98-109.12.56-3.15-7.82-15.42-25.45-13.15-32.49Z"/>
  <path class="st11" d="M1612.37,765.83l-1.43-1.5c5.24-8.18,19.74-26.02,31.8-21.05,3.94,1.62,3.59,12.24,2.78,16.02.85,3.46,1.53,5.79,2.67,9.17-6.56.12-31.67,1.06-36.07-.49.1-1.9-.13-1.22.25-2.14Z"/>
  <path class="st2" d="M1612.37,765.83l-1.43-1.5c5.24-8.18,19.74-26.02,31.8-21.05,3.94,1.62,3.59,12.24,2.78,16.02-2.6-5.47-4.11-9.99-6.08-15.69-8.03,6.43-19.41,16.54-27.07,22.22Z"/>
  <path class="st2" d="M1177.18,1614.06c9.98-2.57,20.2-5.51,30.14-7.97l31.33,46.28c2.75,4.04,14.42,20.85,16.18,24.75,5.23,6.53,8.7,11.89,13.27,18.95-9.4,2.99-18.75,6.12-28.06,9.37-3.15-4.73-6.41-10.99-9.23-16.07l-37.84,9.98c-.42,6.04-1.41,11.94-2.3,17.92-9.31,2.11-18.17,3.82-27.54,6.14,1.45-13.55,11.52-105,14.05-109.35Z"/>
  <path class="st15" d="M1163.13,1723.41c1.45-13.55,11.52-105,14.05-109.35,2.91,11.5-1.48,31.63-2.55,43.98-1.53,17.55-7.18,35.54-5.52,53.3.19,2.02.26,2.14-.39,3.95,5.29-.22,15.11-2.54,20.19-4.29.29-7.32-.19-11.32,4.17-17.29,3.79-1.86,3.39-1.67,7.64-.31,12.49,4.01,34.47-18.5,39.96.62,4.73,3.04,10.94,1.16,17.13.84,3.01-2.01,2.13-.69,3.09-3.83-1.76-5.95-6.05-6.86-8.14-12.86l2.07-1.05c5.23,6.53,8.7,11.89,13.27,18.95-9.4,2.99-18.75,6.12-28.06,9.37-3.15-4.73-6.41-10.99-9.23-16.07l-37.84,9.98c-.42,6.04-1.41,11.94-2.3,17.92-9.31,2.11-18.17,3.82-27.54,6.14Z"/>
  <path class="st11" d="M1197.78,1638.34c4.28,1.62,20.04,26.27,19.07,31.78l-3.05,1.01c-6.19,1.23-13.01,3.01-19.21,4.48.79-12.11,2.32-24.84,3.19-37.27Z"/>
  <path class="st2" d="M1636.64,966.49c7.51-1.62,30.63-1.37,39.37-1.43,20.63.03,41.25-.31,61.86-1,.6,5.99,1.62,13.98,1.76,19.85.46,4.38,1.12,3.73-.74,6.64-7.86,3.26-17.89,1.64-26.82,1.58-5.04.71-8.63.59-13.69.57.46,12.2.69,24.4.7,36.61,13.8.62,27.11.26,40.63.71.16,8.81.54,18.38.11,27.12-26.8,1.8-73.21,1.2-100.46-.02-.67-5.24-.21-21.02-.17-27.03l36.67-.61-.37-9.09c-.23-9.27-.74-18.78-1.13-28.07-12.14.19-24.28.29-36.42.3-.21-8.5-.85-17.59-1.3-26.13Z"/>
  <path class="st15" d="M1640.9,1037.68c.46,4.19.14,9.89,2.37,12.7,7.25,3.58,54.4.08,66.07,1.66,2.92.4,22.01.42,25.56-.03,2.08-2.05,2.03-4.35,2.58-7.39l.26-1.46c.18,5.51-.07,8.79,2.08,13.98-26.8,1.8-73.21,1.2-100.46-.02,1.46-5.69,1.36-13.37,1.54-19.44Z"/>
  <path class="st15" d="M1636.64,966.49l4.94.95-.44.47c1.12,5.46-3.59,9.48.13,13.14,9.09,8.94,36.32-1.79,36.46,16.72-.13,5.53,1.38,19.35-.69,24.49l-1.55-1.87c-.23-9.27-.74-18.78-1.13-28.07-12.14.19-24.28.29-36.42.3-.21-8.5-.85-17.59-1.3-26.13Z"/>
  <path class="st15" d="M1712.07,992.12c-4.89-1.24-8.73.52-14.39-1.24l-.07-1.86c8.47-8.9,33.38,1.81,39.77-6.23l2.25,1.1c.46,4.38,1.12,3.73-.74,6.64-7.86,3.26-17.89,1.64-26.82,1.58Z"/>
  <path class="st2" d="M1352.53,1542.39c7.83-5.3,15.98-10.66,23.66-16.14,22.49,13.98,44.56,31.76,65.88,47.62,3.49,2.6,17.7,13.49,20.14,16.17l.36,2.23c-7.56,5.26-15.06,10.61-22.5,16.05-5.21-4.38-9.54-8.31-15.47-11.68-9.89,6.09-18.84,12.3-28.37,18.9-.97,3.64-1.16,3.56-.11,7.36,1.01,3.29,1.77,8.03,2.45,11.52-9.31,5.35-15.19,9.72-23.75,16.06-3.62-14.97-24.27-97.04-22.29-108.09Z"/>
  <path class="st15" d="M1374.82,1650.48c-3.62-14.97-24.27-97.04-22.29-108.09l.49,1.14c5.66,13.45,7.01,30.6,10.29,46.56,2.36,11.43,8.91,34.96,10.98,47.61.7.73,1.4,1.47,2.11,2.2,3.33.54,1.92.91,4.47-.66-.44-4.92-6.72-5.47-6.37-9.2,6.87.24,5.81,3.69,11.83,4.23,6.33-2.22,6.8-7.32,9.79-11.37,1.01,3.29,1.77,8.03,2.45,11.52-9.31,5.35-15.19,9.72-23.75,16.06Z"/>
  <path class="st15" d="M1396.23,1615.54c-.91-1.35-.59-.54-.74-2.51,6.1-7.55,30.37-24.79,39.64-19.51l-2.21,2.01c2.28,2.82,3.1,4.51,6.55,5.48,8.44-.98,17.58-10.58,22.74-10.97l.36,2.23c-7.56,5.26-15.06,10.61-22.5,16.05-5.21-4.38-9.54-8.31-15.47-11.68-9.89,6.09-18.84,12.3-28.37,18.9Z"/>
  <path class="st11" d="M1378.95,1557.01l.19-2.68c6.44-.43,24.01,15.46,30.1,19.79,2.46,1.75,2.95,3.9,3.68,6.64-2.1,1.23-1.08.94-2.97,1.18-6.25,4.31-14.74,9.2-21.34,13.24-2.18-9.53-10.27-29.76-9.66-38.17Z"/>
  <path class="st15" d="M1378.95,1557.01l.19-2.68c6.44-.43,24.01,15.46,30.1,19.79,2.46,1.75,2.95,3.9,3.68,6.64-2.1,1.23-1.08.94-2.97,1.18-6.33-6.69-23.28-19.44-31-24.93Z"/>
  <path class="st16" d="M1543.68,1352.36c20.02,5.81,40.1,11.37,60.24,16.69,12.18,3.28,32.66,8.42,43.86,13.58-1.89,3.38-4.42,8.36-6.73,11.26l-6.48,11.86c-6.14-1.7-13.08-3.47-19.07-5.41-8.15,8.44-13.85,18.59-21.05,26.37-3.24,6.39,1.43,13.12,6.24,17.74l1.3,3.51c-1.36,5.22-12.28,16.91-16.37,21.58-15.53-24.37-34.52-50.65-48.95-75.45-3.39-3.79-8.71-11.89-11.44-16.4,6-8.55,12.15-17,18.45-25.33Z"/>
  <path class="st15" d="M1536.67,1394.09l2-.33c9.85,11.11,38.86,63.25,46.08,65.59,8.96-5.71,11.79-5.89,15.94-14.9l1.3,3.51c-1.36,5.22-12.28,16.91-16.37,21.58-15.53-24.37-34.52-50.65-48.95-75.45Z"/>
  <path class="st15" d="M1594.45,1426.71l-.84-1.92c2.87-5.41,16.72-24.29,20.93-29.27,13.55-1.87,10.72,7.02,25.17-2.95l1.34,1.32-6.48,11.86c-6.14-1.7-13.08-3.47-19.07-5.41-8.15,8.44-13.85,18.59-21.05,26.37Z"/>
  <path class="st11" d="M1557.32,1381.63l.87-2.78c14.67-3.96,25.78,3.86,38.51,9.86,1.43.68,1.95,1.41,2.82,2.64l-.34.82c-3.59-1.37-5.89-2.33-9.62-3.14l-.33.43c6.06,2.22,8.2,1.63,10.24,8.1l-.79.95c-.71-.86-2.35-3.17-3.15-3.33-1.41,3.45-12.35,15.75-15.45,19.43-4.27-5.64-22.13-27.67-22.76-32.98Z"/>
  <path class="st15" d="M1557.32,1381.63l.87-2.78c14.67-3.96,25.78,3.86,38.51,9.86,1.43.68,1.95,1.41,2.82,2.64l-.34.82c-3.59-1.37-5.89-2.33-9.62-3.14l-.33.43c6.06,2.22,8.2,1.63,10.24,8.1l-.79.95c-.71-.86-2.35-3.17-3.15-3.33-8.3-3.43-30.17-11.76-38.21-13.55Z"/>
  <path class="st8" d="M1571.07,1373.7c1.35-.53,1.19-.29,2.85-.11l-.9,1.52-3.14.48c-3.16-.27-3.4-.31-6.44-1.24l7.63-.65Z"/>
  <path class="st16" d="M965.11,1627.66c28.4,2.4,53.09,3.53,81.47,4.29-.13,6.98-.09,15.09-.61,21.96-17.56-1.03-35.14-1.96-52.71-2.8-.21,6.03-.54,12.47-.6,18.47,15.77,1.08,31.56,1.84,47.36,2.3-.08,6.33-.34,13.51-.09,19.77-16.08-.15-31.82-1.15-47.85-2.09-.62,6.92-1.19,13.85-1.72,20.77,9.41.43,46.21.54,52.92,2.52l1.07,1.25c.72,5.12.38,14.26.33,19.73-29.38-.38-58.73-1.89-87.99-4.52,2.31-19.4,4.36-38.82,6.15-58.28.8-14.04,1.98-29.42,2.28-43.37Z"/>
  <path class="st15" d="M962.83,1671.03c2.28,2.26,2.16,3.06,1.95,7.34-.3,6.18.05,19.27-1.11,24.63l-.07-.4c-.58,3.88-1.46,11.56-2.8,14.9l1.23-.24.76-2.12c4.49,6.69-2.44,5.18,2.46,9.98,2.91.53,3.86.41,6.79.37l.09.87c-2.31.2-2.62-.04-4.67.97,4.99,1.43,10.3,1.23,15.38.23l-.49-.08c7.84-.93,30.42-1.81,37.14.75l-.51.7-3.85-.13.35.99c3.38,1.49,20.64.65,25.5.59l-14.91-1.38c2.47.26,12.26-.55,15.8-.55-.19-4.83-.32-8.91-.18-13.78l2.66-.57c.72,5.12.38,14.26.33,19.73-29.38-.38-58.73-1.89-87.99-4.52,2.31-19.4,4.36-38.82,6.15-58.28Z"/>
  <path class="st2" d="M875.68,1609.87c29.13,6.56,86.09,7.04,78.7,47.43-4.14,31.15-37.62,28.12-60.21,23-1.22,2.25-1.84,3.1-2.5,5.59-2.69,10.9-4.96,20.67-8.67,31.32l-28.94-7.27c2.17-9.45,4.66-18.82,7.45-28.1.44-4.82,4.02-19.82,5.2-25.4,3.39-15.44,6.38-30.97,8.97-46.57Z"/>
  <path class="st15" d="M861.52,1681.84c5.72,7.03-1.94,14.44,1.81,22.51,3.49,3.06,13.18,7.31,17.54,7.51,4.15-4.78,6.6-25.7,9.7-29.86.5,1.54.82,2.3,1.1,3.89-2.69,10.9-4.96,20.67-8.67,31.32l-28.94-7.27c2.17-9.45,4.66-18.82,7.45-28.1Z"/>
  <path class="st15" d="M894.17,1680.3l-.22-1.92c4.84-1.46,6.58.12,11.62.17,12.63.13,27.58,0,37.99-8,8.3-6.39,8.3-10.7,9.78-20.07.35,2.58.91,2.86,1.03,6.82-4.14,31.15-37.62,28.12-60.21,23Z"/>
  <path class="st11" d="M900.98,1636.79c14.56,1.18,34.68,7.34,19.2,24.58-8.43,3.06-14.62.66-23.49-1.26,1.11-7.67,2.8-15.68,4.29-23.32Z"/>
  <path class="st1" d="M1019.03,705.99c23.47-5.76,49.6-1.04,71.72,7.71,7.6,3.72,18,8.98,23.86,15.35l3.83,3.12c7.64.89,7.45,1.3,14.58-.62-.37-1.26-.21,16.85-.23,17.33l5.42,8.84c3.71,7.25,8.32,16.42,10.96,24.17-.66,6.16-15,8.81-20.28,10.38-12.11-24.85-20.54-43.61-47.11-56.49-23.59-11.44-47.49-10.79-71.84-2.31-24.57,11.51-42.11,27.59-49.99,54.12-5.63-1.12-10.24-1.9-15.68-3.89-3.26-.54-4.81-1.17-6.62-3.36-.74-7.57,4.73-16.49,8.78-22.85,18.08-28.4,39.76-43.97,72.61-51.49Z"/>
  <path class="st14" d="M1149.17,781.9c-7.87.96-9.98,3.05-17.45,3.05-5.74-4.33.59-16.97-11.61-23.38-1.87-9.8-8.03-14.79-7-22.2l1.05-.3,4.67,4.24.42-2.8,1.27-.83c9.45,5.95,7.41,16.63,17.69,18.04,3.71,7.25,8.32,16.42,10.96,24.17Z"/>
  <path class="st12" d="M944.26,783.7c2.51-5.25,10.46-10.35,16.17-8.22,4.8-10.47,9.23-18.69,14.85-28.65,4.96-.93,7.32-2.13,11.71-4.51,3.47-5.91-1.29-.68.32-7.33,2.94-2.65,19.38-12.43,22.7-9.17-2.56,2.26-3.03,2.56-5.14,5.36l.82,1.57,4.24.71c-24.57,11.51-42.11,27.59-49.99,54.12-5.63-1.12-10.24-1.9-15.68-3.89Z"/>
  <path class="st14" d="M1019.03,705.99c23.47-5.76,49.6-1.04,71.72,7.71-9.58,1.36-2.89,2.74-10.36,5.55-8.52-1.28-15-4.49-22.51-6.26-10.25-2.41-28.88-6.56-38.85-7Z"/>
  <path class="st12" d="M1090.75,713.7c7.6,3.72,18,8.98,23.86,15.35l-1.69.53c-1.91,2.18-1.38,2.85-1.2,6.6l.1,1.64c-5.18-1.2-12.68-11.34-18.07-14.32-4.13-2.29-10.04-1.96-13.36-4.26,7.47-2.81.78-4.19,10.36-5.55Z"/>
  <path class="st9" d="M1118.44,732.18c7.64.89,7.45,1.3,14.58-.62-.37-1.26-.21,16.85-.23,17.33-4.59-5.97-9.31-11.11-14.35-16.71Z"/>
  <path class="st14" d="M1062.24,720.48c10.73,3.27,27.01,1.62,35.52,13.3l-2.64,1.72c-3.25-1.75-2.08-.49-3.55-3.97-6.2-3.98-5.69,1.9-11.84.72-5.23-10.07-8.52-3.05-17.49-11.77Z"/>
  <path class="st16" d="M1587.77,1273.93c4.9-9.35,24.66-24.67,36.64-18.3,8.16,4.35-.13,20.91-2.92,27.47-5.54.8-13.49,1.29-16.79,6.74-17.94,29.65,33.38,55.62,50.37,30.85,6.38-9.3-1.46-21.87-7.84-29.35,3.68-4.4,13.71-18.22,18.68-16.87,17.96,4.9,17.81,40.43,11.05,52.19-1.86,4.93-4.35,9.6-7.4,13.9-35.11,49.89-127.33-9.31-81.79-66.63Z"/>
  <path class="st15" d="M1676.96,1326.66c-1.86,4.93-4.35,9.6-7.4,13.9-35.11,49.89-127.33-9.31-81.79-66.63.27,5.3-5.03,17.11-7.01,22.85-5.13,14.89,7.92,42.03,21.61,49.54-.24-1.37-1.36-2.06-2.65-3.46,3.55-.53,33.74,14.31,49.29,8.95,16.34-5.63,23.91-24.95,27.12-26.17l.83,1.02Z"/>
  <path class="st2" d="M1252.26,1611.61c.85-6.25,3.25-12.19,6.98-17.28,11.66-16.07,38.14-27.21,57.57-20.18,6.39,2.31,14.05,8.64,19.56,12.82-1.85,4.98-17.38,11.45-22.63,15.46-7.79-7.26-17.98-13.21-26.66-2.86-8.84,10.53-6.6,22.02-3.37,34.16,7.15,11.06,15.63,29,33.87,18.15,8.98-5.34,11.81-13.31,11.09-23.54,5.32-1.33,17.69-4.96,22.58-4.57,2.28,1.96,2.25,2.41,2.54,5.63,1.76,19.43-13.21,32.31-26.99,42.8,1.73.28,4.89.93,6.49.83,3.07,4.27,3.17,2.94,2.57,6.78-4.22,4.63-17.29,4.09-22.53,1.79l-1.32,1.65c-3.22-7.4-13.2-4.6-21.14-6.17-27.54-6.93-43.87-38.67-38.61-65.47Z"/>
  <path class="st15" d="M1283.71,1633.73c-1.03-.15-1.36-.56-2.37-1.18-2.39-6.28-4.03-10.86-4.26-17.67-.66-19.29,19.09-20.28,23.45-24.9-2.62-.93-6.43,1.79-10.73,2.57,8.47-12.34,21.48-2.02,30.48-1.3,4.81.38,5.61-6.05,16.09-4.28-1.85,4.98-17.38,11.45-22.63,15.46-7.79-7.26-17.98-13.21-26.66-2.86-8.84,10.53-6.6,22.02-3.37,34.16Z"/>
  <path class="st15" d="M1290.87,1677.08c-27.54-6.93-43.87-38.67-38.61-65.47,2.83,5.91.74,9.16,1.97,14.77,10.82,49.38,25.57,38.37,63.18,49.86-8.84.49-17.69.77-26.54.84Z"/>
  <path class="st12" d="M719.74,908.24l3.43,1.54c1.15,3.43-.43,6.04-2.35,9.15l.4.69-1.59,2.44,2.17,1.47c-1.49,4.05-.99,5.76-2.2,9.18l1.64.91c-14.39,8.35-19.25,9.22-33.7,20.16-22.62,22.47-37.25,36.99-47.84,68.65-3.32,9.92-5.66,16.55-6.97,27.33-.72,5.98-.79,24.95-3.28,28.97-1.5.54-3.04.98-4.61,1.33-6.67,1.47-11.76,1.35-17.48-2.21-.95-17.17,2.5-50.31,10.38-65.56,8.45-33.03,42.13-70.32,70.49-88.08,9.61-6.02,21.88-9.52,31.5-15.96Z"/>
  <path class="st14" d="M719.74,908.24l3.43,1.54c1.15,3.43-.43,6.04-2.35,9.15l.4.69-1.59,2.44c-2.41,1.55-16.93,6.79-20.23,7.32-4.66,2.04-11.07,8.82-15.62,11.87-7.04,4.72-4.55,6.17-13.3,4.88-5.29,4.23-5.3,11.9-8.79,14.24-.55-3.06-.65-3.88-.73-6.98l-1.48.54c-.07,3.12-.35,2.01.82,4.79l-.92.9-3.57-.5c-3.75,3.69-.49,5.22-3.3,7.25l-1.38-1.04c-2.07,2.57-1.98,2.34-2.33,5.62l1.23.66,3.74-2.69.84.32c-2.77,8.94-18.86,1.96-16.96,16.9l1.68,1.64,1.7-.12.1-1.27c.17-1.93.09-1.18.43-3.26l.93.6c.14,4.92.91,2.91-1.93,6.42-2.98.67-3.65.07-6.57-.97-6.48,3.17-6.81,15.75-16.25,23.11,8.45-33.03,42.13-70.32,70.49-88.08,9.61-6.02,21.88-9.52,31.5-15.96Z"/>
  <path class="st7" d="M699.41,929.38c3.29-.53,17.81-5.77,20.23-7.32l2.17,1.47c-1.49,4.05-.99,5.76-2.2,9.18l1.64.91c-14.39,8.35-19.25,9.22-33.7,20.16l-.42-2.17c6.65-8.55,5.27-14.01,17.45-19.68l-.05-.99c-2.51-.14-2.94-.29-5.12-1.55Z"/>
  <path class="st7" d="M607.37,1077.85l1.63-4.22,1.35.2,1.61,2.45c5.2.93,5.82-1.38,11.63.52.46-2.99.32-2.1-.18-5.24l1.43-.04c1.5,2.3,1.33,2.27,1.77,5.04l2.85,2.17c-1.5.54-3.04.98-4.61,1.33-6.67,1.47-11.76,1.35-17.48-2.21Z"/>
  <path class="st2" d="M1716.58,1074.28c7.18.03,14.84-.08,21.96.15-.39,21.3-5.14,57.52-8.64,78.78-33.67-4.64-67.37-9.03-101.1-13.18,1.01-6.78,2.19-16.5,3.73-22.92l.21-3.61c4.58-6.24,68.74,10.52,77.93,7.2l.6-2.55c.37-10.72,3.4-32.83,5.31-43.87Z"/>
  <path class="st15" d="M1716.58,1074.28c7.18.03,14.84-.08,21.96.15-.39,21.3-5.14,57.52-8.64,78.78-33.67-4.64-67.37-9.03-101.1-13.18,1.01-6.78,2.19-16.5,3.73-22.92,2.72,6.06.9,5.16,5.93,10.22l-.67.53c-.98-1.59-.34-.82-2.03-2.19-1.93,2.43-2.11,2.3-2.78,5.26,8.28,4.63,25.36,5,36.26,8.45,4.95,3.19,26.33,2.01,36.06,3.38,8.63.3,14.41,4.54,20.82,2.12,1.69-2.58,4.22-14.76,3.64-19.21-1.39-10.67,12.12-48.74-4.85-49.85-.38-.07-4.61.82-4.64.9-3.25,8.42-2.65,35.77-9,41.43.37-10.72,3.4-32.83,5.31-43.87Z"/>
  <path class="st2" d="M1720.02,908.79c3.32-.75,6.98-1.95,10.18-1.21l1.13,2.15c2.12,8.46,3.06,16.22,4.25,24.82-25.05,4.74-75.21,12.86-100.57,14.87-1.13-6.43-3.79-19.47-3.48-25.31,2.82-3.05,63.88-11.54,73.77-12.99,3.69-1.04,10.68-1.77,14.72-2.32Z"/>
  <path class="st15" d="M1731.33,909.72c2.12,8.46,3.06,16.22,4.25,24.82-25.05,4.74-75.21,12.86-100.57,14.87-1.13-6.43-3.79-19.47-3.48-25.31l1.36.18c3.43,4.22,2.98,12.45,3.2,18.13,14.87.61,82.32-6.81,92.87-13.7,1.53-3.3,1.97-14.43,2.37-18.99Z"/>
  <path class="st6" d="M684.16,870.94c1.35-1.17,1.16-1.33,2.09-3.02-.76-3.78-1-10.11,2.08-12.87,3.48-.17,14.62,7.48,17.49,10.03l2.15-.25c3.82,4.19,9.64,10.38,13.83,14.11,3.94.27,4.75.07,8.52-1.2l1.09.87v1.63c0,2.39.23,3.94.54,6.32,4.26,2.15,9.85,5.45,14.36,6.15,1.23,5.01,1.6,30.16-.02,34.15l-2.6,1.72,1.39,2.17,2.72.47.73,2.36-.95,1.25c-4.45-1.19-9.18-4.03-13.12-3.92l-2.01.04-1.59.06c-3.72.8-5.99,1.4-9.6,2.59l-1.64-.91c1.21-3.41.71-5.12,2.2-9.18l-2.17-1.47,1.59-2.44-.4-.69c1.92-3.11,3.5-5.72,2.35-9.15l-3.43-1.54c-17.65-14.64-23.24-18.17-35.58-37.3Z"/>
  <path class="st7" d="M746.31,892.72c1.23,5.01,1.6,30.16-.02,34.15-1.03,0-2.26-.19-3.31-.31,1.28-5.68.95-9.83.88-15.62-.28,4.94-.13,8.47-1.92,13.07l-1.48.38c-.83-2.35,1.2-8.04,1.51-12.08-2.1-2.78-1.84-1.92-6.35-2.87l-.04-1.18,5.13-.88c.12-6.69-.55-10.79,5.61-14.67Z"/>
  <path class="st9" d="M730.85,931.03c5.65-1.73,6.99-2.2,12.83-2.44l1.39,2.17,2.72.47.73,2.36-.95,1.25c-4.45-1.19-9.18-4.03-13.12-3.92l-2.01.04-1.59.06Z"/>
  <path class="st9" d="M721.79,878.95c3.94.27,4.75.07,8.52-1.2l1.09.87v1.63c0,2.39.23,3.94.54,6.32-3.59-2.32-6.8-4.97-10.15-7.62Z"/>
  <path class="st5" d="M1155.44,812.75c4.53-1.8,9.05-3.04,13.72-4.42,3.78,9.02,2.15,1.35,6.4,6.73,2.12,2.52.83,1.98,3.58,2.43,2.34,1.73,12.31,6.19,12.64,6.91-4.06,1.36-7.92,1.91-9.99,5.44-7.39,1.42-12.31,2.43-19.33,5.38-7.68,3.73-10.92,5.64-18.01,10.42l-5.94,4.87c-6.35,7.05-9.61,10.73-14.44,19.04-6.77-2.11-20.82-4.74-23.69-10.08-.12-3.42.49-3.77,2.25-6.73l4.21-4.71c2.23-3.43,7.49-8.62,10.49-11.77,13.1-11.79,21.84-16.49,38.11-23.51Z"/>
  <path class="st16" d="M1117.33,836.26l4.51.54c3.38-2.12,6.9-3.92,10.42-5.81l.21.42c2.62-.54,1.37-.14,3.68-2.38l1.38,3.06c.75,1.47,1.83,3.78,2.66,5.12,1.87,2.38,1.38,1.03,1.32,4.23-1.85,2.38-.95,1.75-3.47,3.09.75,3.23-.35,3.56.47,5.97-6.35,7.05-9.61,10.73-14.44,19.04-6.77-2.11-20.82-4.74-23.69-10.08-.12-3.42.49-3.77,2.25-6.73l4.21-4.71c2.23-3.43,7.49-8.62,10.49-11.77Z"/>
  <path class="st15" d="M1138.04,844.53c.75,3.23-.35,3.56.47,5.97-6.35,7.05-9.61,10.73-14.44,19.04-6.77-2.11-20.82-4.74-23.69-10.08-.12-3.42.49-3.77,2.25-6.73l2.53,3.39c7.7-1.09,11.47,6.59,17.43,4.67,1.19-3.4,1.29-4.02,3.47-7.05,5.15.83,6.74-4.02,10.57-7.82l1.41-1.39Z"/>
  <path class="st10" d="M1117.33,836.26l4.51.54c3.38-2.12,6.9-3.92,10.42-5.81l.21.42c2.62-.54,1.37-.14,3.68-2.38l1.38,3.06c.75,1.47,1.83,3.78,2.66,5.12-4.29,3.02-18.34,9.21-23.28,9.08l-2.79-1.91c-1.41,1.59-1.6,2.27-2.66,4.16l-3.37-.16-1.25-.34c2.23-3.43,7.49-8.62,10.49-11.77Z"/>
  <path class="st8" d="M1117.33,836.26c13.1-11.79,21.84-16.49,38.11-23.51,3.6.07,6.35-.36,9.33,1.24l-.29,1.99c-6.23,1.83-10.33,2.66-15.97,5.89-2.03,1.74-5.01,3.27-7.38,4.63-2.65.78-2.66.95-4.98,2.53-2.31,2.24-1.06,1.85-3.68,2.38l-.21-.42c-3.52,1.89-7.04,3.69-10.42,5.81l-4.51-.54Z"/>
  <path class="st15" d="M1144.45,845.63c1.21-9.38,9.62-12.21,18.01-10.42-7.68,3.73-10.92,5.64-18.01,10.42Z"/>
  <path class="st10" d="M1148.51,821.87c5.64-3.23,9.74-4.07,15.97-5.89-2.13,3.99-9.59,8.9-14.28,7.3l-1.69-1.41Z"/>
  <path class="st16" d="M1136.15,829.03c2.32-1.58,2.33-1.75,4.98-2.53l4.29,1.13-.23,1.34c-2.6,1.12-4.97,2.2-7.66,3.12l-1.38-3.06Z"/>
  <path class="st2" d="M1371.51,1497.35c3.39,2.36,2.77,1.58,3.74,5.58,4.58,18.88-11.97,19.46-25.31,23.01-.01,0-4.69,10.57-7.89,13.19-7.5.35-12.61-16.7.16-25.09,7.73-4.35,12.98-1,19.73-4.47,4.44-2.29,4.28-9.63,9.57-12.22Z"/>
  <path class="st15" d="M1333.29,1673.03c34.54,9.49-3.83,35.8-20.32,35.68l-1.52-.92c.91-4.13,3.87-5.69,7.43-8.18,4.4-3.47,11.82-6.51,12.84-12.25l-1.6-1.54c-5.18-1.26-9.57.18-14.91,1.26l-3.2-3.83,1.32-1.65c5.24,2.3,18.31,2.84,22.53-1.79.6-3.84.5-2.51-2.57-6.78Z"/>
  <path class="st9" d="M1174.92,1133.7c.75-.93,1.95-1.36,3.13-1.12,1.17.23,2.11,1.11,2.44,2.26s-.01,2.38-.88,3.2c-1.23,1.16-3.14,1.17-4.37.02-1.24-1.14-1.38-3.04-.32-4.36Z"/>
  <path class="st9" d="M1112.53,1212.56c2.21.16,2.06.12,3.85,1.43.11,3.13.24,1.58-1.99,4.88l-3.04-2.43,1.18-3.88Z"/>
  <path class="st9" d="M1292.99,1080.59c1.01-.84,2.5-.76,3.42.17.93.94.98,2.43.12,3.43-.62.73-1.6,1.05-2.53.82-.93-.23-1.65-.96-1.86-1.9-.22-.93.11-1.91.85-2.52Z"/>
  <path class="st9" d="M1245.19,856.62c1.01-.69,2.38-.47,3.13.5s.61,2.35-.31,3.15c-.65.57-1.56.73-2.36.42-.8-.31-1.37-1.04-1.46-1.9-.1-.85.29-1.69,1-2.18Z"/>
  <path class="st9" d="M1341.11,744.81c.96-.65,2.26-.48,3.02.39.76.87.76,2.18-.01,3.05-.59.67-1.51.93-2.37.68-.86-.25-1.49-.97-1.63-1.86-.13-.88.25-1.76.99-2.26Z"/>
</svg>