<?xml version="1.0" encoding="UTF-8"?>
<svg id="Camada_1" xmlns="http://www.w3.org/2000/svg" xmlns:xlink="http://www.w3.org/1999/xlink" version="1.1" viewBox="0 0 300 500">
  <!-- Generator: Adobe Illustrator 30.3.0, SVG Export Plug-In . SVG Version: 2.1.3 Build 182)  -->
  <defs>
    <style>
      .st0 {
        fill: #f50401;
      }

      .st1 {
        fill: #060f1a;
      }

      .st2 {
        fill: #d8ef7e;
      }

      .st3 {
        fill: #46380f;
      }

      .st4 {
        fill: #f8f32a;
      }

      .st5 {
        fill: url(#Gradiente_sem_nome_2);
      }

      .st6 {
        fill: #054f09;
      }

      .st7 {
        fill: #dad9d5;
      }

      .st8 {
        fill: #a0a833;
      }

      .st9 {
        fill: #0c0402;
      }

      .st10 {
        fill: #240106;
      }

      .st11 {
        fill: #052104;
      }

      .st12 {
        fill: #2c2d2c;
      }

      .st13 {
        fill: #087603;
      }

      .st14 {
        fill: #2b1e0c;
      }

      .st15 {
        fill: #ce0205;
      }

      .st16 {
        fill: #233308;
      }

      .st17 {
        fill: #f3f4ee;
      }

      .st18 {
        fill: #0479b6;
      }

      .st19 {
        fill: #600605;
      }

      .st20 {
        fill: #0182bf;
      }

      .st21 {
        fill: #7e670d;
      }

      .st22 {
        fill: #fdfefa;
      }

      .st23 {
        fill: #e3e2d8;
      }

      .st24 {
        fill: #6b4c09;
      }

      .st25 {
        fill: #cdba26;
      }

      .st26 {
        fill: #b8cab7;
      }

      .st27 {
        fill: #000921;
      }

      .st28 {
        fill: #161b0a;
      }

      .st29 {
        fill: #56534d;
      }

      .st30 {
        fill: #ecda2a;
      }

      .st31 {
        fill: #fce902;
      }

      .st32 {
        fill: #037507;
      }
    </style>
    <linearGradient id="Gradiente_sem_nome_2" data-name="Gradiente sem nome 2" x1="233.51" y1="202.38" x2="235.31" y2="223.43" gradientTransform="translate(0 502) scale(1 -1)" gradientUnits="userSpaceOnUse">
      <stop offset="0" stop-color="#060000"/>
      <stop offset="1" stop-color="#23180d"/>
    </linearGradient>
  </defs>
  <path class="st28" d="M64.71,71.5l3.02-.85c.42,1.74,32.21,54.97,35.69,60.15,4.85-4.01,7.98-6.47,13.35-9.91l.73-.82,1.66-.48,1.36-.77c3.47-2.05,7.49-3.55,11.24-5.08-1.56-4.5-4.81-16.35-4.75-20.83l.58-.11c.63,1.97.86,3.1,2.42,4.4,1.46-.19,1.51-.17,2.85-.71.41,5.55,1.71,11.02,2.86,16.48l10.34-1.39c2.47.32,2.92.36,5.43.08,2.9.34,7.39.72,10.05,1.54l1.72.69c1.01.11,1.2.03,2.22-.13,1.3-1.43,1.18-3.2,1.37-5.24l1.26.07-.99,6.31c4.28,1.48,6.82,2.55,10.89,4.43,1.32-3.76,4.14-11.15,4.1-14.87l.09-.42c2.42.55,4.03.86,6.33,1.82l-.49.51c-1.25,4.23-4.3,9.47-5.96,15.18,4.16,2.71,7.93,5.54,11.91,8.5,5.99-8.53,11.03-18.64,16.73-27.47,6.63-10.27,12.32-21.4,19.09-31.57l.6.27,1.04,1.26c.56-.06,1.06-.05,1.54-.25.41,3.5,7.47,20.34,9.25,25.02,1.79-.15,1.85-.23,3.39-1.24,3.97-5.66,8.74-1.38,10.11-2.08,5.18-2.61,10.47-6.69,15.79-9.66-4.24,5.89-7.35,10.52-11.91,16.31.91,2.55,2.79,1.5.92,4.85-.19.64-.47,2.98-.61,3.82-1.37.37-4.15.61-4.84.84-1.52,2-2.29,2.82-4.06,4.58,12.07,15.9,9.66,68.73,12.19,90.99.94,11.71.85,22.04-.97,33.64.51,1.79.96,3.25,3.18,3.67,4.48-1.3,5.82,1.1,8.39,4.37,2.11,5.16,3.77,14.42-.84,18.61-3.11.97-3.3.31-5.73-1.66-6.4,4.06-8.23.19-16.29,2.95l-1.1,2.46c1.2,1.73,10.63,2.81,13.16,2.81,17.23-9.87,12.96,3.2,17.04,13.82.47.05,1.61.13,1.99.29,3.51.56,5.97.65,8.18,3.78,3.04,4.32-.34,8.92-4.06,11.31-3.44.43-5.6-.98-8.39.4-8.95,4.43-11.71,19.73-21.27,5.22-4.19-1.85-5.12-2.44-9.66-2l-.7-1.22-2.71-2.41-3.43-.65c-3.99-.25-10.72-2.64-15.18-3.44-14.82,13.35-24.09,13.92-42.45,9.49,4.23,11.97-3.2,6.77-7.55,10.63-.27.92-.38.69-.13,1.43,1.25,3.58-.33,8.17-2.13,11.35-1.54,2.74-3.56,4.56-6.12,6.5-2.28-5.63-4.94-11.06-6.59-16.86-1.13-3.96.52-8.05-1.2-10.23-.32.06-1.11.18-1.37.29-1.61.35-1.37.55-2.69.1-1.49-2.68-.83-10.4-1.18-14.5-2.73-.15-6.6-.49-9.29.04-.96.19-.74.35-1.37,1.47.25,2.68.49,10.38-.22,12.79-1.31.51-2.07-.1-3.72-.67-.98.44-.87.23-.89,1.62-.05,4.96-3.29,23.07-8.53,24.78-4.55-1.42-6.42-8.51-7.47-12.63-.28-1.11.28-4.08.5-5.31-7.87-2.88-11.84-2.2-7.67-11.11-16.94,4.66-29.02,4.17-42.26-9.17-3.85.64-13.8,2.01-15.82,5.22l-1.83,1.42-.41.03c-5.87.46-6.23-.92-11.9,2.97-1.16,1.58-2.37,3.19-3.45,4.82l-1.09-.54-2.76.18-1.47.5c-3.22-2.86-5.62-6.76-8.37-10.26-6.78-1.91-7.74.9-12.9-1.61-1.26-.75-2.41-1.87-3.1-3.18-.92-1.75-1.1-3.8-.5-5.69,2.08-6.78,7.9-4.29,9.55-5.93,4.26-4.26,1.25-13.32,7.81-17.17.76-.45,1.52-.89,2.29-1.32-2.32-1.02-2.73-2.01-3.91-4.15-2.14-5.52-1.42-17.87,5.46-20.03,3.71-1.17,5.14,3.39,7.44,5.06.49-1.51-.59-5.99-1-7.89-2.02-9.5-2.16-18.29-1.79-27.98.33-9.23,1.41-21.14,2.08-30.61,1.58-22.23.23-43.14,8.03-64.05.81,1.88.61,2.32.14,4.35,1.23-.95,1.23-1.01,2.19-2.26.52-1.69.68-1.75,1.98-3.05-.9-.38-1.98-1.09-2.85-1.61-.72-1.35-2.12-3.18-3.04-4.48-8.64,3.8-5.78-8.44-6.85-10.21-2.98-4.89-6.92-9.42-9.99-14.54,2.83,1.21,13.69,8.5,16.5,9.04.66.13,1.38-1.78,4.97-.89,2.04.57,2.26.52,3.51,2.1.72,2.95-1.09,4.65-2.72,7.06l.15.63h1.25s.22-.26.22-.26c.56-.67,1.16-1.48,2.11-1.53,2.65-2.32,11.43-25.2,12.08-28.75-.25-1.09-.36-.6.17-1.54Z"/>
  <path class="st0" d="M77.93,181.34c-.99,10.9-1.23,19.44-.17,30.23,1.98,2.87,1.48,10.93,1.78,13.64,3.57,8.08,4.77,12.1,9.18,20.45-5.58,1.5-9.84,2.87-15.11,5.46-5.02,2.9-10.08,5.74-15.16,8.53-.88.24-1.43.34-2.34.33l-.51.74c-3.44,1.85-4.81,2.13-8.73,2.56,1.12.26,2.72.52,3.6,1.15l-3.19.78c-1.67.09-6.6-.08-7.51.37-7.51,2.38-5.46-2.28-10.73,1.57l-.46-.02c-2.32-1.02-2.73-2.01-3.91-4.15-2.14-5.52-1.42-17.87,5.46-20.03,3.71-1.17,5.14,3.39,7.44,5.06.49-1.51-.59-5.99-1-7.89-2.02-9.5-2.16-18.29-1.79-27.98l1.69-2.34c.14-1.33.29-2.66.46-3.98,1.39-1.63,2.04-1.45,4.3-2.26,1.36-1.07,1.45-.72,3.57-.89,1.71-1.79,5.25-2.66,8.07-4.47,1.81-1.39,3.85-2.22,5.87-3.39,2.86-1.9,4.92-3.32,7.58-5.47.28-.29,5.94-4.22,6.35-4.32l5.25-3.67Z"/>
  <path class="st0" d="M41.24,203.54c1.36-1.07,1.45-.72,3.57-.89.38,12.83.61,26.55,4.55,38.85,1.53,4.79,4.29,14.23,7.47,17.7l1.62.44c-.88.24-1.43.34-2.34.33l-.51.74c-3.44,1.85-4.81,2.13-8.73,2.56,1.12.26,2.72.52,3.6,1.15l-3.19.78c-1.67.09-6.6-.08-7.51.37-7.51,2.38-5.46-2.28-10.73,1.57l-.46-.02c-2.32-1.02-2.73-2.01-3.91-4.15-2.14-5.52-1.42-17.87,5.46-20.03,3.71-1.17,5.14,3.39,7.44,5.06.49-1.51-.59-5.99-1-7.89-2.02-9.5-2.16-18.29-1.79-27.98l1.69-2.34c.14-1.33.29-2.66.46-3.98,1.39-1.63,2.04-1.45,4.3-2.26Z"/>
  <path class="st9" d="M34.78,212.12l1.69-2.34c-.55,14.23.34,42.57,10.39,53.49,1.12.26,2.72.52,3.6,1.15l-3.19.78c-1.67.09-6.6-.08-7.51.37-7.51,2.38-5.46-2.28-10.73,1.57l-.46-.02c-2.32-1.02-2.73-2.01-3.91-4.15-2.14-5.52-1.42-17.87,5.46-20.03,3.71-1.17,5.14,3.39,7.44,5.06.49-1.51-.59-5.99-1-7.89-2.02-9.5-2.16-18.29-1.79-27.98Z"/>
  <path class="st12" d="M24.66,262.97c-2.14-5.52-1.42-17.87,5.46-20.03,3.71-1.17,5.14,3.39,7.44,5.06l-.99.48c0,.27-.04,1.1.02,1.32l2.48-.16.06,2.8c-1.12,2.34-2.53,4.5-2.31,6.95.94.97.81.69,2.31,1.11-2.66.21-8.03.52-9.94-1.05l-.34-.23-.23.25c-1.01,1.11-1.16,1.38-1.84,2.72l-2.12.77Z"/>
  <path class="st22" d="M28.85,259.23c-1.15-4.14.47-11.81,5.01-12.63,2.99,2.9-.99,9.6-2.58,12.52-1.18.67-.53.47-2.08.34l-.34-.23Z"/>
  <path class="st22" d="M36.59,249.8l2.48-.16c-1.1,2.59-2.36,5.03-3.62,7.54v-.04s-1.43.63-1.43.63c-.04.76-.17.47.2.92l-.38-.53c.35-3.76,1.26-4.88,2.74-8.36Z"/>
  <path class="st22" d="M29.82,244.06c1.23.03,2.29-.13,3.19.6-.9,2.21-2.32,2.15-3.84,3.77-2.55,2.72-2.47,8.61-2.44,11.99l-.18.49-.42-.08c-3.18-5.9-.32-12.18,3.69-16.76Z"/>
  <path class="st17" d="M39.13,252.44c1.27,2.27,2.87,5.05,2.53,7.64-.82.63-1.47.46-2.53.43-1.5-.42-1.37-.15-2.31-1.11-.22-2.46,1.19-4.62,2.31-6.95Z"/>
  <path class="st19" d="M41.24,203.54c1.36-1.07,1.45-.72,3.57-.89.38,12.83.61,26.55,4.55,38.85,1.53,4.79,4.29,14.23,7.47,17.7l1.62.44c-.88.24-1.43.34-2.34.33l-.51.74c-8.85-13.83-12.14-36.52-12.01-52.55.01-1.63.19-3.18-.86-4.51l-1.49-.12Z"/>
  <path class="st0" d="M77.93,181.34c-.99,10.9-1.23,19.44-.17,30.23-.19,1.89.52,2.55-.37,4.27-4.71-11.39-5.54-15.88-7.67-27.96,1.37-1.12,1.83-1.52,2.97-2.87l5.25-3.67Z"/>
  <path class="st19" d="M52.88,198.19c1.81-1.39,3.85-2.22,5.87-3.39,1.18,15.08.79,27.77,9.2,40.87.96,1.5,1.91,3.34,2.33,5.07-1.2-.3-3.57-4.27-4.28-5.46-5.38-8.98-7.47-19.2-8.09-29.54-.11-1.79-.45-7.21-1.02-8.63-1.9.12-2.2.33-4.01,1.07Z"/>
  <path class="st19" d="M66.33,189.33c.28-.29,5.94-4.22,6.35-4.32-1.14,1.35-1.59,1.75-2.97,2.87,2.13,12.08,2.96,16.56,7.67,27.96.89-1.71.18-2.37.37-4.27,1.98,2.87,1.48,10.93,1.78,13.64-3.07-4.62-6.95-17.2-8.51-22.75-.73-2.59-1.94-11.69-2.94-13.2l-1.75.08Z"/>
  <path class="st0" d="M227.19,186.75c.53.25,1.75.72,2.05,1.1,1.03.73,3.31,2.43,4.31,2.98,1.44.79,8.69,5.31,9.69,6.28,1.67,1.3,3.15,1.95,5.03,2.89,3.35,1.12,5.95,2.46,9.17,3.66.71.19,1.29.38,2.02.46,1.97.24,2.18.39,3.76,1.6.94,11.71.85,22.04-.97,33.64.51,1.79.96,3.25,3.18,3.67,4.48-1.3,5.82,1.1,8.39,4.37,2.11,5.16,3.77,14.42-.84,18.61-3.11.97-3.3.31-5.73-1.66-6.4,4.06-8.23.19-16.29,2.95-.56-1.17-.67-1.23-.75-2.56l1.16-1.28c-9.75-.15-19.84-7.89-28.4-12.12-5.1-2.53-8.42-3.75-13.85-5.47,3.22-6.41,6.01-12.03,8.65-18.69.8-3.39,2.11-16.46,3.23-18.19.25,1.3-.71,8.16-.91,9.85,2.79-6.31,5.53-14.37,6.06-21.29.65-3.22.82-7.44,1.06-10.79Z"/>
  <path class="st9" d="M265.42,243.03c4.48-1.3,5.82,1.1,8.39,4.37,2.11,5.16,3.77,14.42-.84,18.61-3.11.97-3.3.31-5.73-1.66-6.4,4.06-8.23.19-16.29,2.95-.56-1.17-.67-1.23-.75-2.56l1.16-1.28c1.89-2.37,2.63-3.21,3.87-5.94l.8,2.45.62.65c1.29-.09,2.53-.18,3.83-.23.35.04,1.13-.04,1.52-.07.18-.52.34-1,.59-1.49l1.56.91,2.79.15c-.71-5.03-1.86-6.4-3.43-11.08-.29-.88.33-1.34,1-2.37l-.7-.3,1.49-2.19.1-.93Z"/>
  <path class="st22" d="M264.52,246.45c6.9.98,8.61,12.34,2.43,13.45-.71-5.03-1.86-6.4-3.43-11.08-.29-.88.33-1.34,1-2.37Z"/>
  <path class="st22" d="M265.42,243.03c4.48-1.3,5.82,1.1,8.39,4.37l-.84,1.5c.88,2.46,3.27,10.34-.49,11.36-2.3-5.9,2.64-8.74-5.49-15.42l-.44-.36-1.23-.52.1-.93Z"/>
  <path class="st12" d="M265.42,243.03c4.48-1.3,5.82,1.1,8.39,4.37l-.84,1.5c-1.54-2.44-3.18-5.9-6.43-4.42l-1.23-.52.1-.93Z"/>
  <path class="st1" d="M259.46,204.12c1.97.24,2.18.39,3.76,1.6.94,11.71.85,22.04-.97,33.64.51,1.79.96,3.25,3.18,3.67l-.1.93-1.49,2.19.7.3c-.67,1.03-1.3,1.49-1,2.37,1.58,4.68,2.73,6.04,3.43,11.08l-2.79-.15-1.56-.91c-.25.49-.41.98-.59,1.49-.39.03-1.17.11-1.52.07-1.29.05-2.54.14-3.83.23l-.62-.65-.8-2.45c6.04-14.49,8.31-35.14,6.22-50.98-.22-1.66-.81-1.72-1.99-2.43Z"/>
  <path class="st17" d="M256.03,259.98c1.27-3.07,2.78-6.49,3.72-9.64,1.04,3.72,2.41,6.62.73,10.07-1.29.05-2.54.14-3.83.23l-.62-.65Z"/>
  <path class="st22" d="M262.6,258.84c.32-4.02-2.02-6.28-2.23-9.41,3.56.82,5.15,7.31,3.8,10.32l-1.56-.91Z"/>
  <path class="st17" d="M262.24,239.36c.51,1.79.96,3.25,3.18,3.67l-.1.93-1.49,2.19c-.83.87-.97.88-1.99,1.45l-.71-.38c-.31-2.3.61-5.49,1.13-7.87Z"/>
  <path class="st19" d="M248.27,200c3.35,1.12,5.95,2.46,9.17,3.66l-1.87-.09c-.24.2-.48.39-.72.59-.72,10.49.1,21.05-2.7,31.34-1.63,6-3.81,10.56-7.13,15.71-1.54,2.41-2.77,4.58-4.74,6.69-.57-1.45,4.8-9.88,5.88-11.82,7.27-13.08,6.86-28.54,7.01-43.27-1.9-.82-3.19-1.71-4.91-2.81Z"/>
  <path class="st19" d="M233.55,190.83c1.44.79,8.69,5.31,9.69,6.28-1.19-.64-1.54-.94-2.91-1-.74.85-1.69,15.22-1.9,17.23-1.01,9.5-4.2,19.61-9.69,27.49l-1.19-.07.89.42-.97-.07.71.33c-.2.11-.4.22-.6.32-.35-1.77,2.2-5.75,3.16-7.49,6.46-11.67,6.63-26.36,7.64-39.43-2.1-1.52-2.97-2.2-4.83-4.02Z"/>
  <path class="st19" d="M227.19,186.75c.53.25,1.75.72,2.05,1.1-1.58,2.51-1.03,8.95-1.72,12.12-1.79,8.25-5.6,19.87-9.77,27.2.8-3.39,2.11-16.46,3.23-18.19.25,1.3-.71,8.16-.91,9.85,2.79-6.31,5.53-14.37,6.06-21.29.65-3.22.82-7.44,1.06-10.79Z"/>
  <path class="st13" d="M54.28,112.38c12.3,10.26,24.24,23.63,36.28,34.49-5.97,8.41-9.75,21.46-12.09,31.4-2.83,2.05-6.33,5.14-9.08,7.43.25-8.81.89-17.6,1.91-26.35-2.79,3.99-3.09,21.53-3.2,26.98-3.1,1.98-6.18,4-9.23,6.05.07-5.6-.43-15.77-2.97-20.59-.45,3.26,1.43,16.99,1.63,21.74-4.7,2.97-7.33,4.44-12.52,6.48.06-11.95-1.42-24.58-2.32-36.51-.48-6.36-1.8-12.7-1.46-19.07.56-7.74,1.43-15.2,3.8-22.61,1.23-.95,1.23-1.01,2.19-2.26.52-1.69.68-1.75,1.98-3.05-.94,7.76-3.43,20.81-1.94,28.04l1.2,1.25.2.44c1.83-.04,4.09-.17,5.88.05.14,1.62.1,2.89.88,4.28,1.52-4.4-.77-31.37-1.15-38.18Z"/>
  <path class="st32" d="M45.03,121.81c1.23-.95,1.23-1.01,2.19-2.26-.35,4.63-2.64,9.07-3.55,14.09-.59,3.27-.33,8.95-1.3,11.03l-.64.16-.5-.41c.56-7.74,1.43-15.2,3.8-22.61Z"/>
  <path class="st30" d="M48.67,146.23c1.83-.04,4.09-.17,5.88.05.14,1.62.1,2.89.88,4.28-.12.48-.49,1-.76,1.47l-.71-.23-1.05-3.14-.94-.1c-1.19,1.2-.81.84-1.04,2.95l-.58-.49.51.54.04-.88-1.11-.48c-1.04-2.07-1.43-1.98-1.11-3.98Z"/>
  <path class="st1" d="M39.76,265.58c.91-.45,5.84-.27,7.51-.37,2.44,3.16,4.46,6.1,6.71,9.4l3.3.93c.81,2.38,3.95,4.8,5.9,6.47-1.07,1.5-1.15,1.7-1.09,3.53,1.68,1.93,3.38,3.84,5.1,5.74,1.88,1.73,4.31,4.1,6.23,5.67l-.9.74c-3.85.64-13.8,2.01-15.82,5.22l-1.83,1.42-.41.03c-5.87.46-6.23-.92-11.9,2.97-1.16,1.58-2.37,3.19-3.45,4.82l-1.09-.54-2.76.18-1.47.5c-3.22-2.86-5.62-6.76-8.37-10.26-6.78-1.91-7.74.9-12.9-1.61-1.26-.75-2.41-1.87-3.1-3.18-.92-1.75-1.1-3.8-.5-5.69,2.08-6.78,7.9-4.29,9.55-5.93,4.26-4.26,1.25-13.32,7.81-17.17.76-.45,1.52-.89,2.29-1.32l.46.02c5.27-3.85,3.23.81,10.73-1.57Z"/>
  <path class="st9" d="M39.76,265.58c.91-.45,5.84-.27,7.51-.37,2.44,3.16,4.46,6.1,6.71,9.4l3.3.93c.81,2.38,3.95,4.8,5.9,6.47-1.07,1.5-1.15,1.7-1.09,3.53,1.68,1.93,3.38,3.84,5.1,5.74,1.88,1.73,4.31,4.1,6.23,5.67l-.9.74c-3.85.64-13.8,2.01-15.82,5.22l-.93-1.14c.5-1.75.99-4.31,1.4-6.15-.32-11.08-4.44-28.06-17.41-30.04Z"/>
  <path class="st4" d="M53.99,274.6l3.3.93c.81,2.38,3.95,4.8,5.9,6.47-1.07,1.5-1.15,1.7-1.09,3.53-3.69-4.27-5.01-6.22-8.11-10.93Z"/>
  <path class="st7" d="M55.89,280.81c1.48,1.85,8.82,10.3,8.66,11.78-2.29-.24-3.97-.02-6.24.19-.19-3.99-1.32-8.15-2.43-11.98Z"/>
  <path class="st22" d="M24.13,272.21c10.24,3.5,15.57,14.65,12.64,24.89-3.6-.94-7.87.12-9.44-.98l-.14-3.22c-.94-4.38-2.21-5.99-5.88-8.79.75-3.37,1.78-8.76,2.83-11.9Z"/>
  <path class="st9" d="M25.77,293.18l1.41-.28.14,3.22c1.57,1.1,5.84.04,9.44.98.55.05,1.04.09,1.59.12.7,1.87.16,2.61.5,4.83.08,4.68-.88,5.85-3.59,9.73l-1.47.5c-3.22-2.86-5.62-6.76-8.37-10.26-6.78-1.91-7.74.9-12.9-1.61l.43-.68c3.24-1.62.74-.8,3.37-3.05l1.75-1.54c1.97-.4,1.66-.68,3.01.06.38,1.53.35,1.79.33,3.4l.59.5,1.01-.12c1.96-1.35,2.18-3.53,2.74-5.79Z"/>
  <path class="st22" d="M35.56,272.67c4.68.96,8.99-.77,13.18,2.77,2.93,2.48,3.82,9.36,3.94,13.03-3.68-.05-8.84,3.29-10.24,1.54-1.58-7.38-2.99-10.95-6.88-17.34Z"/>
  <path class="st9" d="M52.68,288.47c-.06,1.86.09,4.17-.72,5.73l1.6.4c.94,1.81.19,3.19.38,5.44l-.25,3.02,1.19,1.26-.41.03c-5.87.46-6.23-.92-11.9,2.97l-1.91-.58c.39-2.03.55-4.99.73-7.12.85-.97.6-4.03.59-5.42l.55-.5c.18-1.47.04-2.22-.11-3.7,1.4,1.75,6.57-1.59,10.24-1.54Z"/>
  <path class="st7" d="M52.68,288.47c-.06,1.86.09,4.17-.72,5.73-3.73-.65-1.01-2.11-2.77-4.15-1.08,2.42-1.22,3.28-3.37,4.41-1.72.04-1.88.13-3.27-.75.18-1.47.04-2.22-.11-3.7,1.4,1.75,6.57-1.59,10.24-1.54Z"/>
  <path class="st22" d="M29.03,267.14c5.27-3.85,3.23.81,10.73-1.57,12.97,1.98,17.09,18.96,17.41,30.04-.41,1.84-.9,4.4-1.4,6.15l.93,1.14-1.83,1.42-1.19-1.26.25-3.02c.17-.69.32-1.39.44-2.09,1.76-10.36-1.66-19.04-7.48-27.21-3.66.55-7.83.55-11.56.65-2.31-1.5-4.65-2.11-6.31-4.26Z"/>
  <path class="st1" d="M55.78,301.76l.93,1.14-1.83,1.42-1.19-1.26,2.08-1.3Z"/>
  <path class="st22" d="M38.86,302.05c1.18-10.14-.35-25.75-11.3-30.23l-1.51-.63-.55-.23.11-.56c2.24-1.44,5.47-.77,7.17,1.12,6.72,7.47,8.46,18.54,8.62,28.12-.18,2.13-.34,5.09-.73,7.12l1.91.58c-1.16,1.58-2.37,3.19-3.45,4.82l-1.09-.54-2.76.18c2.7-3.88,3.67-5.05,3.59-9.73Z"/>
  <path class="st1" d="M40.67,306.75l1.91.58c-1.16,1.58-2.37,3.19-3.45,4.82l-1.09-.54c1-1.32,1.88-3.33,2.64-4.85Z"/>
  <path class="st22" d="M16.34,296.67c-2.11-.56-4.01-2.04-4.74-4.13.2-4.39,5.51-6.23,8.93-3.95.73,1.85.58,1.09.33,3.11-1.47,1.27-1.89,1.71-2.77,3.44l-1.75,1.54Z"/>
  <path class="st17" d="M23.03,298.97c-.09-.63.67-3.35,1.02-4.12,1.45-3.24-3.95-6.88-3.19-9.66,3.42,1.32,4.61,4.64,4.91,7.99-.55,2.26-.78,4.44-2.74,5.79Z"/>
  <path class="st31" d="M223.42,254.07l1.24.38c9.3,4.97,14.51,8.48,24.89,11.26-2.09,4.56-3.1,6.35-5.97,10.41l-1.35,1.46-2.96.71c1-1.31,1.57-1.59,1.77-2.99-3.88,2.52-7.85,7.22-11.43,9.86-9.95,7.33-23.96,11.05-36.15,9.58-7.56-.45-14.31-1.42-21.21-4.67,6.1.89,9.46,1.24,15.51,1.29,3.03-.13,6.05-.56,9.01-1.29,15.34-3.62,25.96-15.36,33.99-28.3-3.42,3-8.49,9.57-11.98,13.36-8.99,9.77-17.46,14.23-30.85,14.93-5.16.27-20.12-.78-23.75-4.22l.12-.76,1.59-.22c-1.13-.43-2.46-.02-5.1-1.27l.16-.34c2.58-.01,2.87-1.06,4.82-1.11l-.27.42.21.72c1.79.61,7.81.34,9.91.12,22.43-2.36,34.38-13.3,47.81-29.33Z"/>
  <path class="st3" d="M223.42,254.07l1.24.38c-3.62,4.06-6.83,8.37-10.7,12.2-12.45,12.3-30.36,20.22-48.07,18.21-1.13-.43-2.46-.02-5.1-1.27l.16-.34c2.58-.01,2.87-1.06,4.82-1.11l-.27.42.21.72c1.79.61,7.81.34,9.91.12,22.43-2.36,34.38-13.3,47.81-29.33Z"/>
  <path class="st31" d="M73.61,251.12c1.13,1.4.45,1.1,1.89,1.32,7.6,14.55,17.86,24.46,33.79,30.02,6.22,2.17,11.19,1.72,17.12,2.58,2.67-.18,5.34-.33,8.01-.47-4.31,2.55-9.16,4.48-14.17,5.11-18.7,3.88-36.44-6.71-47.44-21-1.48-1.93-3.97-5.26-5.76-6.6l-.4.3c1.71,4.4,12.79,15.97,16.68,19,2.99,2.31,6.25,4.24,9.71,5.76,3.06,1.37,9.05,3.58,12.39,4.29l-.06.95,1.19.9c-.13,1.25-.11.87-1.31,1.99-22.76.97-31.19-4.67-47.96-19.73l-3.3-.93c-2.25-3.29-4.27-6.23-6.71-9.4l3.19-.78c-.88-.63-2.48-.89-3.6-1.15,3.92-.43,5.29-.72,8.73-2.56l.51-.74c.92,0,1.46-.09,2.34-.33,5.09-2.78,10.14-5.63,15.16-8.53Z"/>
  <path class="st10" d="M73.61,251.12c1.13,1.4.45,1.1,1.89,1.32-7.36,3.54-17.32,10.62-25.04,12-.88-.63-2.48-.89-3.6-1.15,3.92-.43,5.29-.72,8.73-2.56l.51-.74c.92,0,1.46-.09,2.34-.33,5.09-2.78,10.14-5.63,15.16-8.53Z"/>
  <path class="st4" d="M126.41,285.04c2.67-.18,5.34-.33,8.01-.47-4.31,2.55-9.16,4.48-14.17,5.11-2.72-.39-5.35.22-7.86-.31,1.51-.91,7.29.06,9.27-1.54.77-.63,1.57-.48,2.79-.57-1.1-1.3-1.31-1-3.29-1.6,1.23-.53,3.76-.51,5.25-.6Z"/>
  <path class="st14" d="M140.39,287.51c.2.79.21,1.2.62,1.85l1.03,1.64c.69,2.55.21,4.62.75,6.39.25,2.68.49,10.38-.22,12.79-1.31.51-2.07-.1-3.72-.67-.98.44-.87.23-.89,1.62-.05,4.96-3.29,23.07-8.53,24.78-4.55-1.42-6.42-8.51-7.47-12.63-.28-1.11.28-4.08.5-5.31-7.87-2.88-11.84-2.2-7.67-11.11-16.94,4.66-29.02,4.17-42.26-9.17l.9-.74c7.91,5.77,17,11.96,27.23,11.09,16.75-1.43,28.79-8.4,39.73-20.53Z"/>
  <path class="st31" d="M141.7,308.6c-5.53-1.59-12.79-1.26-18.55-1.03-2.78.11-5.26,1.01-7.86.4l.03-.69c1.66-1.37,4.37-2.4,6.39-3.15,8.26-3.05,12.96-9.67,19.3-14.78l1.03,1.64c-.87,3.94-.57,13.29-.33,17.61Z"/>
  <path class="st31" d="M121.91,309.04c4.28-.64,10.06-.23,14.43.03.22,4.09.13,6.17-.22,10.27-2.09-.54-2.86-.74-5.05-.91-3.96-.59-15.32-2.77-16.53-6.8l.69-1.01c1.96-1.37,4.27-1.34,6.69-1.58Z"/>
  <path class="st31" d="M124.68,327.55c-.84-2.47-1.99-4.99-.9-7.36,2.46-1.94,8.64-.12,11.81.33-.69,2.02-2.9,8.78-4.01,10.14-.59,1.79-.67,2.77-2.48,3.44-2.25-.87-3.41-4.32-4.42-6.55Z"/>
  <path class="st4" d="M124.68,327.55l.76-1.43c.59.99.72,1.22,1.13,2.29,2.3,1.53,3.64,1.43,5,2.25-.59,1.79-.67,2.77-2.48,3.44-2.25-.87-3.41-4.32-4.42-6.55Z"/>
  <path class="st31" d="M63.19,282c11.01,9.91,22.88,15.59,37.95,14.83,6.22-.31,12.38-1.42,18.32-3.29,4.13-1.36,8.11-3.12,11.88-5.26,2.86-1.6,7.28-5,10.39-4,.5.81.4.47.55,1.4l-1.89,1.82c-10.94,12.12-22.98,19.09-39.73,20.53-10.24.88-19.32-5.31-27.23-11.09-1.93-1.57-4.35-3.94-6.23-5.67-1.72-1.9-3.42-3.81-5.1-5.74-.06-1.84.02-2.03,1.09-3.53Z"/>
  <path class="st31" d="M167.78,289.68c4.24,2.06,8.79,4.1,13.45,4.89,20.93,3.56,32.51,2.2,50.23-9.25,1.3,1.6.93.91.99,3.37-2.92,2.74-5.86,5.45-8.82,8.13-6.31,5.6-16.11,11.33-24.74,11.34-11.8.01-27.6-5.69-36.06-14.07l.24-1.05-.88-1.27.42-.71v.71s.31-.77.31-.77l-.54.49,1.19.03v.49c3.46-.18-.51-.63,4.21-2.32Z"/>
  <path class="st31" d="M208.04,247.73c5.73,1.15,10.49,3.22,15.38,6.34-13.43,16.02-25.38,26.96-47.81,29.33-2.1.22-8.12.49-9.91-.12l-.21-.72.27-.42c.24-.03.94-.1,1.13-.16,17.93-5.86,31.72-19.11,41.14-34.25Z"/>
  <path class="st9" d="M280.07,286.39c.47.05,1.61.13,1.99.29,3.51.56,5.97.65,8.18,3.78,3.04,4.32-.34,8.92-4.06,11.31-3.44.43-5.6-.98-8.39.4-8.95,4.43-11.71,19.73-21.27,5.22-4.19-1.85-5.12-2.44-9.66-2l-.7-1.22c.18-1.06-1.35-5.35-1.72-7.48l.24-.53c.88-.52,1.2-.49,2.21-.73,2.14-1.37,2.15-1.94,3.87-3.77l.68.23.38,2.17c1.54.41,5.64,1.18,6.54,1.66-.07,4.8-.77,14.04,4.23,16.66l.64-.34c-1.28-2.96-2.49-5-2.34-8.19.35-2.75-.67-4.03,1.95-5.81,1.5.07,1.92.17,3.4.51,1.24-.82.84-.52,1.34-2.39l.1-.48c.94-.26,1.73-.53,2.65-.84.27,1.25.28,2.16,1.24,2.94,1.03-.92,2.08-5.51,2.55-7.18.11,1.2.24,3.54.43,4.63.6-5.64.51-6.15,5.52-8.85Z"/>
  <path class="st1" d="M280.07,286.39c.47.05,1.61.13,1.99.29,3.51.56,5.97.65,8.18,3.78,3.04,4.32-.34,8.92-4.06,11.31.65-1.29.9-2.18.39-3.48-1.71-.74-2.99.78-5.67.19.65-.14,1.07-.27,1.7-.47-1.06-1.71-1.75-2.12-3.66-1.73-1.34,1.29-1.48,1.33-1.83,3.08-1.24-1.28-1.75-2.53-2.56-4.12.6-5.64.51-6.15,5.52-8.85Z"/>
  <path class="st17" d="M280.07,286.39c.47.05,1.61.13,1.99.29-5.67,2.84-6.58,6.94-4.94,12.68-1.24-1.28-1.75-2.53-2.56-4.12.6-5.64.51-6.15,5.52-8.85Z"/>
  <path class="st22" d="M281.71,288.27c7.88.47,9.21,2.73,5.07,9.5-3.18-.77-7.07-2.94-7.42-6.52.64-1.77.79-1.8,2.35-2.99Z"/>
  <path class="st15" d="M26.47,85.66c2.83,1.21,13.69,8.5,16.5,9.04.66.13,1.38-1.78,4.97-.89,2.04.57,2.26.52,3.51,2.1.72,2.95-1.09,4.65-2.72,7.06l.15.63h1.25s.22-.26.22-.26c.56-.67,1.16-1.48,2.11-1.53,1.89,1.66,2.62,1.68,3.38,3.77-1.54,4.91-3.54.88-2.93,9.26.68,9.03,1.26,18.1,1.81,27.13.09,1.49-1.18,2.89-2.3,3.67l2.12.66c-1.79-.22-4.04-.09-5.88-.05l-.2-.44-1.2-1.25c-1.48-7.23,1-20.28,1.94-28.04-.9-.38-1.98-1.09-2.85-1.61-.72-1.35-2.12-3.18-3.04-4.48-8.64,3.8-5.78-8.44-6.85-10.21-2.98-4.89-6.92-9.42-9.99-14.54Z"/>
  <path class="st3" d="M26.47,85.66c2.83,1.21,13.69,8.5,16.5,9.04.66.13,1.38-1.78,4.97-.89l-.32.49c2.18,2.14,3.02,3.93.59,6.59-1.63.75-1.53.75-3.28.43l-.38-.72c.75-2.02,3.01-4.3,2.75-4.93-3.01.81-4.08,2.79-4.02,5.85l-.71.26-2.99.38c1.59.23,1.66.32,2.83,1.43,2.15-.38,2.94-1.16,4.47-.5-.07,1.44-.29,1.65-.98,2.88.56.56.62.57.9,1.34-1.36.2-.67.23-2.12-.3l-.37.66.48,1.51c-.57.87-.52.82-1.47,1.24-8.64,3.8-5.78-8.44-6.85-10.21-2.98-4.89-6.92-9.42-9.99-14.54Z"/>
  <path class="st31" d="M29.43,88.17c3.39,1.92,9.37,5.6,12.1,8.47-.55,1.07-.45,1.29-.45,2.48,2.51-.65,1.85-3.94,6.54-4.82,2.18,2.14,3.02,3.93.59,6.59-1.63.75-1.53.75-3.28.43l-.38-.72c.75-2.02,3.01-4.3,2.75-4.93-3.01.81-4.08,2.79-4.02,5.85l-.71.26c-.45-.34-.63-.51-1.12-.73-5.16-2.4-8.76-8.16-12.01-12.88Z"/>
  <path class="st4" d="M38.17,105.72c1.69.4,3.31,2.11,3.86,3.76-1.29.46-1.19.46-2.52.11-1.2-1.17-1.09-2.1-1.34-3.87Z"/>
  <path class="st0" d="M48.46,145.79c-1.16-7.42-.62-23.18,2.08-29.99l1.18.93.35-2.27.85.37c.68,9.03,1.26,18.1,1.81,27.13.09,1.49-1.18,2.89-2.3,3.67l2.12.66c-1.79-.22-4.04-.09-5.88-.05l-.2-.44Z"/>
  <path class="st3" d="M178.11,305.65l3.5,1.81.78-.29c4.23,11.97-3.2,6.77-7.55,10.63-.27.92-.38.69-.13,1.43,1.25,3.58-.33,8.17-2.13,11.35-1.54,2.74-3.56,4.56-6.12,6.5-2.28-5.63-4.94-11.06-6.59-16.86-1.13-3.96.52-8.05-1.2-10.23-.32.06-1.11.18-1.37.29l-1.99-1.25c7.76-1.75,15.02-2.3,22.91-.62l-.13-2.75Z"/>
  <path class="st4" d="M178.11,305.65l3.5,1.81-.34,1.08c-1.24.36-1.79.13-3.04-.14l-.13-2.75Z"/>
  <path class="st31" d="M160.95,309.05c4.23-.28,19.8-.97,21.9,3.32-.8,1.53-2.6,1.95-4.24,2.57-7.06,2.62-10.42,3.16-17.79,4.13l.13-10.03Z"/>
  <path class="st31" d="M171.37,319.1l1.31.09.82.96c.74,3.92-2.16,13.03-6.21,14.15l-.71-.82c-.81-2.7-4.11-9.5-5.5-12.66l10.3-1.71Z"/>
  <path class="st30" d="M245.63,96.07c3.97-5.66,8.74-1.38,10.11-2.08,5.18-2.61,10.47-6.69,15.79-9.66-4.24,5.89-7.35,10.52-11.91,16.31.91,2.55,2.79,1.5.92,4.85-.19.64-.47,2.98-.61,3.82-1.37.37-4.15.61-4.84.84-1.13-.32-2.75-1.64-3.76-2.36l-.22-.37c-.5-2.04-4.64-4.9-6.29-6.08l1.79-.96c-.68-1.7-.71-2.47-.98-4.3Z"/>
  <path class="st14" d="M245.63,96.07c3.97-5.66,8.74-1.38,10.11-2.08,5.18-2.61,10.47-6.69,15.79-9.66-4.24,5.89-7.35,10.52-11.91,16.31.91,2.55,2.79,1.5.92,4.85-.66-1.74-.78-2.57-2.19-3.73-1.3.6-1.42,1.58-2.2,3.13-1.11-1.25.78-1.03-.02-2.94-1.39.27-1.85.44-3.28.22,1.34-2.34,1.9-1.33,4.07-2.97l.34-.26,1.71.48c2.2-1.64,6.11-7.92,7.94-10.61-2.78,1.25-8.04,3.59-9.44,6.09-2.19,3.92-4.84,4.77-7.31,8.14-1.21-1.13-2.03-2.11-3.56-2.66-.68-1.7-.71-2.47-.98-4.3Z"/>
  <path class="st21" d="M251.78,103.34c1.73,1.63,3.18,2.84,3.55,5.17-1.7-1.13-3.06-3.19-3.55-5.17Z"/>
  <path class="st5" d="M243.57,276.12l-.38,2.33c.17,6.29-3.47,10.55-2.33,14.74,1.38,1.1.4,1.34,1.04,3.27.39,1.42,1.02,4.03,1.54,5.31l-3.43-.65c-3.99-.25-10.72-2.64-15.18-3.44l-1.21-.86c2.96-2.68,5.9-5.39,8.82-8.13-.06-2.45.31-1.76-.99-3.37,2.49-1.82,5.23-4.86,7.8-7.03l2.96-.71,1.35-1.46Z"/>
  <path class="st23" d="M243.19,278.45c.17,6.29-3.47,10.55-2.33,14.74-4.22-.25-3.06.27-5.62-2.55l-1.19,1.53-.72-.15c.03-1.48,8.23-11.28,9.86-13.57Z"/>
  <path class="st4" d="M239.26,278.29l2.96-.71c-2.82,3.54-6.31,8.37-9.77,11.11-.06-2.45.31-1.76-.99-3.37,2.49-1.82,5.23-4.86,7.8-7.03Z"/>
  <path class="st22" d="M267.58,296.17c-2-.59-3.71.14-4.71-.67-2.18-6.25,2.91-15.91,7.5-20.23.94-.89,3.6-1.93,4.9-2.46,1.42,4.54,2.07,8.21,2.91,12.86-2.87,1.64-2.95,1.86-4.06,4.94-.47,1.66-1.52,6.25-2.55,7.18-.96-.78-.96-1.68-1.24-2.94-.92.31-1.71.59-2.65.84l-.1.48Z"/>
  <path class="st22" d="M253.31,273.58l10.5.1c-1.35,2.46-2.24,4.23-3.29,6.8-1.28,3.12-2.96,11.39-4.87,13.58-.95-.85-1.02-1.05-2.27-1.37l-1.57,1.38-.38-2.17-.68-.23c-1.72,1.83-1.73,2.41-3.87,3.77-.12-.25-.3-.57-.28-.84.59-8.71.33-14.9,6.7-21.02Z"/>
  <path class="st4" d="M155.01,288.46c6.94,8.4,13.37,12.52,23.11,17.19l.13,2.75c-7.89-1.68-15.15-1.12-22.91.62.21-3.82-.32-10.39-.54-14.44l.22-6.13Z"/>
  <path class="st0" d="M244.89,118.74l.38-.6c.45-.73.49-.82.68-1.69l.61-.1c2.21,6.35-.17,12.27,3.41,20.03.46,1.68.59,5.14.72,7-2.78.1-4.98.04-7.76-.08.55-8.24,1.03-16.36,1.97-24.57Z"/>
  <path class="st22" d="M258.36,295.72c.87-7.9,3.41-18.8,9.68-24.44,1.74-1.57,5.01-1.58,6.52.35-1.19.55-2.96.94-3.81,1.36-8.45,4.18-11.49,22.94-9.86,30.86-.15,3.19,1.07,5.22,2.34,8.19l-.64.34c-5-2.62-4.3-11.86-4.23-16.66Z"/>
  <path class="st9" d="M142.29,285.68l.43.99c.02,2.24-.34,1.84.76,3.26,3.03,1.1,7.02-.14,10.45-.49.55,2.37.01,3.93.86,5.13.22,4.05.75,10.62.54,14.44l1.99,1.25c-1.61.35-1.37.55-2.69.1-1.49-2.68-.83-10.4-1.18-14.5-2.73-.15-6.6-.49-9.29.04-.96.19-.74.35-1.37,1.47-.54-1.77-.06-3.84-.75-6.39l-1.03-1.64c-.4-.65-.42-1.06-.62-1.85l1.89-1.82Z"/>
  <path class="st0" d="M221.2,206.47c2.48-5.22-.77-11.1,1.62-18.51.7.4.48.4.99,1.32l.73-.34c1.36,1.25,1.47,6.7,1.6,8.61-.54,6.92-3.27,14.98-6.06,21.29.21-1.69,1.16-8.55.91-9.85l.22-2.52Z"/>
  <path class="st22" d="M241.9,296.46c.46-5.91,2.56-23.08,9.11-24.53l1.18.29c-.49,1.34-3.26,3.83-3.78,4.88-1.89,3.81-4.05,15.57-3.97,19.59.36,2.13,1.9,6.41,1.72,7.48l-2.71-2.41c-.52-1.27-1.16-3.89-1.54-5.31Z"/>
  <path class="st15" d="M244.89,118.74c.55-3.78-.51-9.75,1.96-11.99,1.59-.56,2.6.07,4.26.67l.22.37-.99.85c.93,1.91,2.02-.11,2.34,2.51-.74,1.59-.16,1.09-1.67,1.66-.87-.37-1.63-.71-2.53-1.01-.8,5.75,1.31,17.88,1.49,24.58-3.57-7.76-1.2-13.68-3.41-20.03l-.61.1c-.18.87-.22.96-.68,1.69l-.38.6Z"/>
  <path class="st15" d="M219.77,180.04c2.69,2.29,4.9,4.21,7.42,6.71-.24,3.35-.41,7.57-1.06,10.79-.12-1.91-.23-7.36-1.6-8.61l-.73.34c-.51-.92-.29-.92-.99-1.32-2.39,7.41.86,13.29-1.62,18.51.37-10.16-.38-16.33-1.43-26.43Z"/>
  <path class="st22" d="M142.71,286.67c3.58-3.82,10.85-3.86,11.21,2.78-3.43.35-7.42,1.59-10.45.49-1.1-1.43-.75-1.02-.76-3.26Z"/>
  <path class="st4" d="M162.83,294.09c-2.06-1.53-7.97-6.92-7.71-9.55,2.49-.46,9.47,3.79,12.66,5.15-4.72,1.69-.75,2.14-4.22,2.32v-.49s-1.18-.03-1.18-.03l.54-.49-.32.77v-.71s-.41.71-.41.71l.88,1.27-.24,1.05Z"/>
  <path class="st4" d="M182.18,104.04c2.42.55,4.03.86,6.33,1.82l-.49.51c-.54.1-1.14.21-1.81.33-2.53,4.94-2.28,9.44-5.84,13.95l-1.41-.68c.99-5.26,3.49-9.62,4.68-14.28l-1.56-1.23.09-.42Z"/>
  <path class="st30" d="M105.43,291.42c7.83.87,10.97.07,18.58-.82-7.18,2.78-11.14,3.47-18.76,4.66,1.2-1.12,1.18-.74,1.31-1.99l-1.19-.9.06-.95Z"/>
  <path class="st17" d="M242.24,97.31c1.79-.15,1.85-.23,3.39-1.24.27,1.84.31,2.6.98,4.3l-1.79.96c-1.16-1.35-1.72-2.49-2.58-4.03Z"/>
  <path class="st18" d="M84.81,166.39c.68-8.38,12.49-27.76,19.13-32.83,2.88-2.2,5.87-5.57,8.42-7.45,20.17-14.88,42.89-16.92,64.78-4.99.27,1.25.08,1.84,1.43,2.39,8.07,3.32,11.84,6.47,17.54,12.94,15.59,17.72,27.46,47.97,22.75,71.77-.41,4.58-1.09,11.41-2.47,15.73-2.3,6.42-12.8,31.11-17.4,33.36-5.12,8.65-23.86,20.65-32.99,23.13-28.27,7.69-56.25-5.44-71.56-29.78-4.14-6.58-7.93-13.22-10.2-20.6-3.07-10.2-4.51-13.61-4.8-24.34-.63-13.15-.21-27.02,5.36-39.33Z"/>
  <path class="st1" d="M95.71,173.46c4.56-16.19,14.68-30.57,28.99-38.95,39.86-23.33,76.18,13.15,80.81,52.08.36,3.04.43,6.41.83,9.32l.2,4.37c-.31,8.77-2.53,16.93-3.19,24.94-.87,2.48-1.52,4.69-1.52,7.36l-.3.24c-.9.74-1.2.86-1.64,1.96.31,2.05.58,4.1.81,6.16l-.71.66c-1.63-.23-3.41-1.1-4.1-.35-3.85,4.16-7.84,10.08-11.17,14.46-12.61,11.25-29.56,19.16-46.54,14.09-15.95-4.77-26.94-13.46-34.8-28.14-2.29-4.28-4.08-9.01-6.44-13.14l-.28-.49c-2.97-9.12-3.73-17.84-4.63-27.36.22-1.26.48-6.47.63-8.19.61-6.92,1.36-12.34,3.03-19.04Z"/>
  <path class="st16" d="M115.26,144.13c8.51-8.63,21.17-14.4,33.37-14.73,12.11-.33,29.03,7.19,36.19,17.04,2.87,3.05,5.44,6.06,7.37,9.83,2.2,2.92,3.67,6.78,5.12,10.11,6.08,13.99,8.18,29.94,6.08,45.07-1.54,11.14-4.94,20.3-10.4,30.15-1.66,1.77-4.72,6.14-6.29,8.14-15.78,20.11-41.55,25.55-63.19,11.27-5.31-3.51-16.47-13.7-17.96-20.23-5.19-7.56-6.72-12.97-8.77-21.67l-.97-4.48c-2.81-15.41-1.19-41.2,7.81-54.23,2.97-6.02,6.91-11.5,11.65-16.25Z"/>
  <path class="st7" d="M115.26,144.13c8.51-8.63,21.17-14.4,33.37-14.73,12.11-.33,29.03,7.19,36.19,17.04l-1.18.94c-1.66-1.36-2.08-1.38-4.21-1.82-5.8,1.79-.27,6.4-5.66,9.16-3.46,1.77-1.84,5.09.51,6.92,1.13,2.87.69,27.56,1.05,33.7-6.17-9.84-12.66-19.41-18.42-29.52-.93-1.64-2.06-3.57-3.21-5.05-.43,3.1,1.67,4.4,2.58,7.71.4.87.62,1.56,1.31,2.22l.54.41c2.1,1.98,3.75,5.22,4.48,7.99-7.26-.51-14.55-.62-21.83-.33-3.22-.19-4.14.91-6.26-1.89-3.46,5.56-7.32,12.33-11.15,17.45-.74-2.63-.59-27.79-.33-32.23.07-1.11,2.73-.7,4.23-3.81-.3-3.67-2.41-4.53-5.94-5.23,1.45-2.73.78-4.52-1.13-6.61-1.31-.88-2.63-.72-4.27-.79l-.68-1.51Z"/>
  <path class="st32" d="M135.5,175.5c.94-2.64,11.71-18.89,13.8-22.12,1.46,2.3,3.26,4.95,4.4,7.38-.43,3.1,1.67,4.4,2.58,7.71.4.87.62,1.56,1.31,2.22l.54.41c2.1,1.98,3.75,5.22,4.48,7.99-7.26-.51-14.55-.62-21.83-.33-3.22-.19-4.14.91-6.26-1.89l.37-.67.61-.69Z"/>
  <path class="st6" d="M157.6,170.68l.54.41c2.1,1.98,3.75,5.22,4.48,7.99-7.26-.51-14.55-.62-21.83-.33-3.22-.19-4.14.91-6.26-1.89l.37-.67c.73.92.65.89,1.69,1.44,2.55,0,7.02-.08,9.02-1.92v-2.01c2.81-.11,3.69,1.19,6.52.48l.31,1.59c1.31.85,1.72.43,3.62.17-.85-2.82-.02-2.92,1.54-5.26Z"/>
  <path class="st13" d="M135.5,175.5c2.4-.92,2.67-2.47,4.3-4.33,3.08-3.54,1.42-.81,5.17-1.18,1.33,2.28,1.18,1.26.63,3.7v2.01c-1.99,1.84-6.47,1.92-9.01,1.92-1.03-.54-.96-.51-1.69-1.44l.61-.69Z"/>
  <path class="st31" d="M144.98,169.99c-.67-1.33-.65-.7-.3-1.93,3.22-1.48,5.88-1.9,9.03-.19-2.32,2.7-2.14,2.64-1.57,6.31-2.83.71-3.72-.59-6.53-.48.55-2.45.71-1.43-.63-3.7Z"/>
  <path class="st13" d="M167,241.18c1.82-.05,2.68-.86,4.23-1.88,6.04-.17,14.49-.04,20.43.79l1.32,1.49c-1.66,1.77-4.72,6.14-6.29,8.14-15.78,20.11-41.55,25.55-63.19,11.27-5.31-3.51-16.47-13.7-17.96-20.23l1.74.17c5.44-2.03,13.74-1.37,19.72-1.17,12.79,8.08,8.32,7.5,21.96.59,3.54,1.86,8.69,6.38,11.5,6.03.59-.45.82-.49,1.1-1.06,1.97-1.67,3.31-2.68,5.44-4.15Z"/>
  <path class="st22" d="M134.53,176.85c2.12,2.8,3.04,1.7,6.26,1.89,7.28-.28,14.56-.17,21.83.33,1.13,1.11.81.55.97,2.37l.52.31c-.53,6.19-1.13,14.25-.68,20.43l.2,6.49c.11,2.08.58,4.69-.48,6.25-1.71.93-2.97.68-4.96.62l-8.84-.24c-4.68.16-9.36.26-14.04.3l-.46-2.09c-2.91-1.85-1.87-3.23-4.34-6.09-1.47-1.74-2.08-2.75-4.29-3.45-.93-.78-2.17-3.13-2.85-4.29-.35-2.78-2.09-1.9,0-5.41,3.83-5.11,7.69-11.89,11.15-17.45Z"/>
  <path class="st17" d="M148.76,194.66l1.26.02c-.02,1.75-.61,5.64.86,6.43l.4-.44c.43-.47,1.53-1.59,2.03-1.94-.19,1.19-.3,1.41-1.06,2.35.22.95.34,1.33.68,2.24,4.37.46,5.64-.29,8.88-2.94.91.81,1.01.75,1.61,1.79l.2,6.49c.11,2.08.58,4.69-.48,6.25-1.71.93-2.97.68-4.96.62l-8.84-.24c-4.68.16-9.36.26-14.04.3l-.46-2.09c-.19-4.62,0-10.21.05-14.92.58-1.58.11-1.06,1.17-1.97l1.18,1.09c3.82,3.03,1.82,2.44,4.37,5.85,1.98.9,3.17.5,4.92-.69.53-.78.6-1.52.81-2.45-1.27-1.73-1.24-.34-3.73-1.52.67-1.26.24.19,2.48-1.52.17.38,1.05,1.52,1.34,1.92l.61-.08c.67-1.14.62-3.18.71-4.58Z"/>
  <path class="st22" d="M134.9,198.62c.58-1.58.11-1.06,1.17-1.97l1.18,1.09c3.82,3.03,1.82,2.44,4.37,5.85,1.98.9,3.17.5,4.92-.69l.93.39c-.39,2.2-2.85,5.85-4.23,7.67l.48.68c2.22-.48,1.16-1.47,3.85-1.89l.89,1.23c-.59,4,.31,1.66.88,4.35-4.68.16-9.36.26-14.04.3l-.46-2.09c-.19-4.62,0-10.21.05-14.92Z"/>
  <path class="st8" d="M148.76,194.66l1.26.02c-.02,1.75-.61,5.64.86,6.43l.4-.44c.43-.47,1.53-1.59,2.03-1.94-.19,1.19-.3,1.41-1.06,2.35.22.95.34,1.33.68,2.24-.5,2.05.86,5.42,2.13,7.12l-.46.52c-1.52-.35-2.17-.94-3.49-1.84-1.03,1.68-.54,1.44-2.03,1.97l-.62-.13-.89-1.23c-2.7.42-1.63,1.42-3.85,1.89l-.48-.68c1.38-1.83,3.84-5.47,4.23-7.67l-.93-.39c.53-.78.6-1.52.81-2.45-1.27-1.73-1.24-.34-3.73-1.52.67-1.26.24.19,2.48-1.52.17.38,1.05,1.52,1.34,1.92l.61-.08c.67-1.14.62-3.18.71-4.58Z"/>
  <path class="st16" d="M144.49,183.66c2.84-.51,4.41-6.6,9.19.34l.35.51c5.22-1.82,3.77-2.42,8.7.85.69-.78.73-2.74.85-3.91l.52.31c-.53,6.19-1.13,14.25-.68,20.43-.6-1.05-.7-.99-1.61-1.79-3.24,2.64-4.51,3.4-8.88,2.94-.34-.92-.46-1.29-.68-2.24.76-.93.87-1.16,1.06-2.35-.5.35-1.61,1.47-2.03,1.94l-.4.44c-1.47-.79-.88-4.68-.86-6.43l-1.26-.02c-.17-7.51-2.39-5.65-4.27-11.01Z"/>
  <path class="st26" d="M144.49,183.66c2.84-.51,4.41-6.6,9.19.34l.35.51c5.22-1.82,3.77-2.42,8.7.85.69-.78.73-2.74.85-3.91l.52.31c-.53,6.19-1.13,14.25-.68,20.43-.6-1.05-.7-.99-1.61-1.79-2.79-1.41-3.64,1.38-6.67.36-.53-3.24,5.3-2.36,6.67-5.8-1.64-1.6-1.76.54-3.53-.71,1.62-.83,3.42-1.45,3.71-3.29l-.77-.74c-2.93.03-2.29,1.71-4.72,1.87-.18-2.15,3.52-2.05,4.66-4.52l-.35-.75c-2.76.28-1.87,1.48-3.87,1.63l.74-2.33-.5-.08-1.58,1.75-.48-1.52-.91-.39c-1.14.67-4,2.76-4.97,2.89.44,2.16.86,3.71.77,5.92l-1.26-.02c-.17-7.51-2.39-5.65-4.27-11.01Z"/>
  <path class="st17" d="M150.02,194.68c.09-2.22-.33-3.76-.77-5.92.97-.13,3.84-2.22,4.97-2.89l.91.39.48,1.52c-.96,1.86-.64,3.9-.45,6.03l2.12,1.6-.19.71-.74.09-1.66-1.35c-1.13,1.98-.41,2.74-1.38,3.88-.5.35-1.61,1.47-2.03,1.94l-.4.44c-1.47-.79-.88-4.68-.86-6.43Z"/>
  <path class="st13" d="M134.53,176.85c2.12,2.8,3.04,1.7,6.26,1.89-1.84.09-3.88.24-5.71.28-.57,2.64-.39,6.92-.37,9.74.45,3.49.29,6.37.2,9.86-.05,4.7-.24,10.29-.05,14.92-2.91-1.85-1.87-3.23-4.34-6.09-1.47-1.74-2.08-2.75-4.29-3.45-.93-.78-2.17-3.13-2.85-4.29-.35-2.78-2.09-1.9,0-5.41,3.83-5.11,7.69-11.89,11.15-17.45Z"/>
  <path class="st16" d="M134.53,176.85c2.12,2.8,3.04,1.7,6.26,1.89-1.84.09-3.88.24-5.71.28-.57,2.64-.39,6.92-.37,9.74l-.33-.65c-.8-1.63-.66-2.74-1.66-3.7-2.43,1.99-7.46,9.61-8.37,12.61.9,4.62,5.08,6.48,6.17,10.42-1.47-1.74-2.08-2.75-4.29-3.45-.93-.78-2.17-3.13-2.85-4.29-.35-2.78-2.09-1.9,0-5.41,3.83-5.11,7.69-11.89,11.15-17.45Z"/>
  <path class="st16" d="M135.08,179.02c.3,2.48.08,4.88,1.39,6.55,1.28.56,2.55,1.13,3.82,1.7l1.84-.95c.84.54.61.26,1.07,1.14,1.62,5.51-.1,4.36,2.92,9.93-2.24,1.71-1.81.26-2.48,1.52,2.48,1.17,2.45-.22,3.73,1.52-.21.92-.28,1.67-.81,2.45-1.75,1.19-2.93,1.59-4.92.69-2.55-3.4-.55-2.82-4.37-5.85l-1.18-1.09c-1.06.91-.59.4-1.17,1.97.09-3.49.25-6.37-.2-9.86-.02-2.82-.2-7.1.37-9.74Z"/>
  <path class="st17" d="M135.08,179.02c.3,2.48.08,4.88,1.39,6.55,1.28.56,2.55,1.13,3.82,1.7l-2.63,1.19-.32.96c.85,1.26.96,1.24,2.18,2.07-.67.91-1.13,1.56-1.74,2.51l.37.81c1.03.19,1.65.2,2.56.67-1.12,1.35-1.84.43-3.45,2.25l-1.18-1.09c-1.06.91-.59.4-1.17,1.97.09-3.49.25-6.37-.2-9.86-.02-2.82-.2-7.1.37-9.74Z"/>
  <path class="st7" d="M190.25,155.63l.88,1.89,1.05-1.26c2.2,2.92,3.67,6.78,5.12,10.11,6.08,13.99,8.18,29.94,6.08,45.07-1.54,11.14-4.94,20.3-10.4,30.15l-1.32-1.49c-1.54-3.19-1.83-4.32-4.46-6.62-.05-6.43.17-12.06.71-18.44.14-1.7-2.21-5.41-2.24-8.59-.16-14.84.03-29.88.17-44.7,3.42-2.21,3.57-1.97,4.42-6.11Z"/>
  <path class="st7" d="M103.61,160.38c1.05.22,7.29,1.48,7.8,1.48l.98.23c.47,1.47.24,15.84.17,18.49-.27,10.16.79,22.58-1.39,32.38.33.97.29,1.11.81,1.96l-.74.86c.4,5.44.53,12.28.45,17.78-2.02,2.85-2.82,4.25-4.42,7.38l-1.74-.17c-5.19-7.56-6.72-12.97-8.77-21.67l-.97-4.48c-2.81-15.41-1.19-41.2,7.81-54.23Z"/>
  <path class="st23" d="M95.8,214.6c1.76-.89,1.5-1.15,2.86-.74-.28,1.29-.51,1.59-1.62,2.29-.65,1.36-.4,1.17-.27,2.93l-.97-4.48Z"/>
  <path class="st3" d="M115.26,144.13l.68,1.51c1.64.07,2.96-.09,4.27.79,1.91,2.09,2.59,3.87,1.13,6.61,3.53.7,5.64,1.55,5.94,5.23-1.5,3.11-4.17,2.69-4.23,3.81-.26,4.45-.41,29.6.33,32.23-2.09,3.51-.36,2.62,0,5.41-.33,2.69-.26,8.82.92,11.14l.57.73c2.06,4.08-1.26,16.7.67,21.79.65,1.71,1.61,3.24,2.54,4.8l-1.32.15c-1.06-1.55-1.14-1.78-2.61-2.86.15-4.98.47-13.59-.26-18.41-3.66-.02-7.06-.05-10.73-.24-.36-1.04-.45-.97-1.16-1.89-.52-.85-.49-.98-.81-1.96,2.18-9.8,1.12-22.22,1.39-32.38.07-2.65.3-17.03-.17-18.49l-.98-.23c-.51,0-6.75-1.26-7.8-1.48,2.97-6.02,6.91-11.5,11.65-16.25Z"/>
  <path class="st17" d="M115.26,144.13l.68,1.51c1.64.07,2.96-.09,4.27.79,1.91,2.09,2.59,3.87,1.13,6.61l-.47.43c-2.05-.07-3.7-.13-5.46-1.18-.76.53-1.34.81-1.86,1.52-1.98.47-2.82.51-4.17,2.05-.97,2.86.05,3.87,2.04,6-.51,0-6.75-1.26-7.8-1.48,2.97-6.02,6.91-11.5,11.65-16.25Z"/>
  <path class="st1" d="M120.21,146.43c1.91,2.09,2.59,3.87,1.13,6.61l-.47.43c-2.05-.07-3.7-.13-5.46-1.18l-1.25-1.5.59-2.1.79-.07.81-1.24c1.35-.64,2.1-.25,3.58.11l.28-1.04Z"/>
  <path class="st23" d="M115.53,148.6l.81-1.24c1.35-.64,2.1-.25,3.58.11.09,2.07.41,1.91-.46,3.42-1.91.08-2.66-.9-3.93-2.29Z"/>
  <path class="st29" d="M115.94,145.64c1.64.07,2.96-.09,4.27.79l-.28,1.04c-1.48-.37-2.23-.75-3.58-.11l-.81,1.24-.79.07-.59,2.1c-.31-2.64.05-3.08,1.79-5.14Z"/>
  <path class="st21" d="M115.4,152.28c1.77,1.05,3.42,1.11,5.46,1.18,1.76,1.2,3.17,1.99,4.38,3.76l.18,1.05c-2.89,1.46-6.77-.28-9.85-.64-.28-.03-1.54,1.73-1.81,2.11l-.95.17c-1.19-.92-1.19-.61-1.51-1.76,1.51-2.07,6.4-1.91,8.88-2.17-2.64-.6-4.75-.59-6.63-2.18.52-.72,1.1-1,1.86-1.52Z"/>
  <path class="st30" d="M124.86,211.58c-2.2.93-10.13,2.09-11.58-.47l.92-.78c2.63-.67,7.5-.23,10.09.52l.57.73Z"/>
  <path class="st31" d="M118.04,159.57c1.53.08,1.53.08,2.98.57.95,1.27.82,43,.96,48.2-1.03.86-1.45.56-3.15.66-2.14.02-2.61.1-4.64-.41-.24-1.97-.14-4.5-.1-6.5.33-13.56-.16-27.23.16-40.77,1.61-1.65.99-1.11,3.79-1.75Z"/>
  <path class="st23" d="M124.29,210.85c-1.17-2.32-1.25-8.46-.92-11.14.68,1.15,1.92,3.51,2.85,4.29,2.21.7,2.82,1.71,4.29,3.45,2.47,2.85,1.43,4.24,4.34,6.09l.46,2.09c1.47.27,1.45,0,2.19.9-.76,5.24,3.91,7.05,7.58,9.63.95,2.6.23,4.33-.56,7.01,1.16,2.12,2.1,3.82,3.41,5.86-3.32,1.99-6.89,4.22-10.23,6.12-2.72-1.36-7.84-4.56-9.63-6.98-.93-1.56-1.89-3.09-2.54-4.8-1.92-5.08,1.4-17.71-.67-21.79l-.57-.73Z"/>
  <path class="st11" d="M126.22,203.99c2.21.7,2.82,1.71,4.29,3.45,2.47,2.85,1.43,4.24,4.34,6.09l.46,2.09c1.47.27,1.45,0,2.19.9-.76,5.24,3.91,7.05,7.58,9.63.95,2.6.23,4.33-.56,7.01-4.71-5.94-13.97-22.07-18.3-29.17Z"/>
  <path class="st7" d="M166.81,212.43l.63.21.86-.8c2.03-.56,2.84-.89,4.98-.65-.57,2.37.55,17.77.45,22.09-2.99,4.47-3.28,4.24-6.72,7.91-2.13,1.47-3.46,2.48-5.44,4.15-4.24-.48-7.44-3.66-11.02-6.3,4.09-7.4,9.25-14.53,13.41-21.93.89-1.58,1.69-3.28,2.85-4.67Z"/>
  <path class="st31" d="M113.15,216.81c3.67.19,7.07.22,10.73.24.72,4.82.41,13.43.26,18.41,1.47,1.09,1.55,1.31,2.61,2.86-2.57.07-14.84.68-16.4-.43.18-1.24,1.94-2.23,2.81-3.59-.39-5.03-.31-12.47-.02-17.5Z"/>
  <path class="st24" d="M123.88,217.05c.72,4.82.41,13.43.26,18.41,1.47,1.09,1.55,1.31,2.61,2.86-2.57.07-14.84.68-16.4-.43.18-1.24,1.94-2.23,2.81-3.59,2.19-.43,7.99-.22,10.49-.2.12-5.66-.22-11.41.22-17.06Z"/>
  <path class="st32" d="M149.35,215.32l8.84.24c1.74.16,3.07.04,4.36,1.11-1.73,3.28-5.21,8.1-8.89,9.25-1.58-.16-2.38-2.36-4.73-3.33-1.22,1.1-1.71,1.36-3.27,1.87-.2.53-.45,1.16-.6,1.7-3.67-2.58-8.33-4.39-7.58-9.63-.74-.9-.72-.62-2.19-.9,4.68-.04,9.36-.14,14.04-.3Z"/>
  <path class="st13" d="M148.6,216.76c4.64-.16,9.3-.1,13.95-.09-1.73,3.28-5.21,8.1-8.89,9.25-1.58-.16-2.38-2.36-4.73-3.33-.4-1.23-.32-4.38-.34-5.82Z"/>
  <path class="st13" d="M164.11,181.76c2.11,2.35,8.54,11.81,10.34,14.77-1.64,3-7.41,13.55-9.34,15.61-1.21-1.38-.87-2.02-1.47-3.45l-.2-6.49c-.45-6.19.15-14.24.68-20.43Z"/>
  <path class="st17" d="M175.3,199.07c-.23,2.58-.56,8.14-1.02,10.47l-1,1.64c-2.15-.23-2.95.09-4.98.65l-.86.8-.63-.21c.78-1.73,1.96-3.59,2.93-5.24,1.78-2.62,3.69-5.6,5.56-8.12Z"/>
  <path class="st17" d="M184.82,146.43c2.87,3.05,5.44,6.06,7.37,9.83l-1.05,1.26-.88-1.89c-5.12-3.71-5.12.81-6.62-8.25l1.18-.94Z"/>
  <path class="st31" d="M177.75,160.15c2.43-.15,5.26-1.06,6.55,1.27-.08,4.91.02,45.87-.49,47.11l-1.05.33c-2.29.03-4.59.32-6.87.54,1.02-15.5.44-31.17.7-46.7.03-1.58.08-1.62,1.16-2.56Z"/>
  <path class="st31" d="M175.06,216.97l10.92-.05-.21,16.96h-10.92s.21-16.91.21-16.91Z"/>
  <path class="st31" d="M173.05,235.58c3.89-.32,12.86-1.15,15.54,1.39l-.03,1.07c-3.29-.09-13.62.49-15.67-.93l.16-1.54Z"/>
  <path class="st30" d="M175.97,213.59c2.89-.26,8.83-1.31,10.43,1.51-.92.61-.94.49-2.08.44-2.53.13-7.72.59-9.97-.31l.06-.82,1.55-.83Z"/>
  <path class="st20" d="M203.36,225.23c1.57.83.47.87,1.2,1.2,3.18,1.47,1.89,0,3.16,2.96,2.79-.86,1.03-6.22,3.51-8.96,1.76.64,2.08,1.65,3.43,3.29l.97-.86.76,1.08c-2.3,6.42-12.8,31.11-17.4,33.36-2.85-.28-4.42-.3-6.32-2.54l-.32-.34-.51-.55c-4.28,1.61-.32,3.45-7.1,1.85,3.33-4.38,7.32-10.3,11.17-14.46.7-.75,2.48.12,4.1.35l.71-.66c-.24-2.06-.5-4.11-.81-6.16.44-1.1.73-1.23,1.64-1.96l.3-.24c0-2.68.66-4.88,1.52-7.36Z"/>
  <path class="st20" d="M207.89,188.12l.09.1c1.97-.1.25-1.8,3.27-2.52l1.98,1.36,1.43-.4c-.05,1.81-.36,1.79,1.34,3.06.17.32.6,1.08.69,1.39-.08,3.39,1.36,6.15-.32,9.51-2.5,1.26-1.46-.99-3.48,1.35-2.72-.21-4.74.88-6.34-1.67l-.2-4.37c3.8-4.15.69-5.22,1.55-7.8Z"/>
  <path class="st4" d="M207.89,188.12c-.03-1.1-.25-2.37-.41-3.48l.39-.38c2.48-.7,6.46-1.82,7.59,1.13l-.81,1.28-1.43.4-1.98-1.36c-3.01.72-1.29,2.42-3.27,2.52l-.09-.1Z"/>
  <path class="st2" d="M153.63,117.96c1.25-.84,2.86-.94,4.2-.26,1.34.68,2.21,2.04,2.27,3.54.06,1.5-.7,2.92-1.99,3.71-1.92,1.18-4.44.6-5.65-1.3-1.22-1.9-.7-4.42,1.17-5.68Z"/>
  <path class="st2" d="M180.59,126.36c2.03.59,4.45,2.44,6.29,3.7-1.4,1.39-2.54,2.79-3.82,4.29l-.74.03c-1.23-1.28-.54-1.03-1.99-1.14l-.25.59c-1.69-.15-1,.17-2.2-.88-.13-1.95,1.68-4.84,2.7-6.59Z"/>
  <path class="st2" d="M202.71,148.62l.44-.11.55.61c-.39,3.52,1.08,4.62.21,6.21-1.55.32-2,.59-3.45,1.28-1.48-.5-2.14-1.26-3.02-2.47-.37-3.74,2.24-4.73,5.28-5.51Z"/>
  <path class="st2" d="M138.38,117.86c1.93-.14,3.64-.34,4.8,1.31.9,1.29,1.08,4.55.08,5.64l-.65-.52c-2.79-2.97-1.38.47-5.11-.62l-.39-.99c.23-2.21.22-2.8,1.27-4.81Z"/>
  <path class="st4" d="M93.44,149.92l1.64.5c1.04,1.21.65,1.72.53,3.68,1.12.88,1.08.96,2.55,1.13l.28-.41-1.86-2.69.28-.6c1.16-.06,1.09.05,2.27.42,1.05,1.27.83,2.38.85,4.1-.77.64-1.56,1.15-2.38,1.73-2.98.31-4.72-.88-5.58-3.65.27-1.1.1-1.34.8-1.82l.73,1.77.81.24c.35-1.18-.48-2.99-.9-4.39Z"/>
  <path class="st2" d="M189.05,133.66h.6c1.63,1.2,1.29.63,2.06,2.33-.19,2.42-.83,3.18-2.05,5.2-2.47-.29-3.81-.18-4.55-2.73.48-1.5.58-1.83,1.74-2.85l2.2-1.95Z"/>
  <path class="st4" d="M99.31,143.71c.92.82.36,2.25,2.37,3.31l-.15-2.88c1.04-.17.51-.15,1.78.63.83,2.23.81,1.31.19,3.47l-.57,2.16-.88.45c-2.57-.83-5.09-2.77-4.66-5.71l1.92-1.42Z"/>
  <path class="st2" d="M118.22,126.13c.7-.07.72.08,1.49.38l.15.97c-1.32-.11-1.25-.11-2.54.24l-.52,1.17c.13,1.67.01,2.17.99,3.42,2.1.06,1.05-1.37,3.02-1.66l.06.81c-1.64,1.97-1.43,2.19-3.53,2.7-4.96-1.8-3.77-5.99.88-8.02Z"/>
  <path class="st2" d="M205.69,158.11c.59.16,1.52.85,2.1,1.21l.17.94c-1.02,1.06-3.24,1.62-5.23,2.87l-.44.28c-1.04-.63-1.47-1.48-1.65-2.61,1.25-1.62,3.05-1.99,5.05-2.7Z"/>
  <path class="st4" d="M146.67,116.47c1.08.13,1.07.16,2.07.61.83,2.12.56,5.46.61,7.96l-1.49-.49c-1.43-1.88-1.14-5.61-1.19-8.09Z"/>
  <path class="st23" d="M103.16,139.11c1.66.11,5.26,2.23,5.79,3.86l-.79.36c-1.87-.1-1.05-.33-2.57.6-1.47-.8-1.86-2.98-2.43-4.82Z"/>
  <path class="st20" d="M90.11,231.93c.32-.36.81-.5,1.27-.39.46.12.83.48.94.94.12.46-.03.95-.39,1.27-.51.46-1.29.44-1.78-.05-.49-.49-.51-1.27-.05-1.78Z"/>
  <path class="st13" d="M206.83,146.68c4.49-4.97,32.59-31.96,37.19-34.81-.34,3.3-3.19,34.56-2.99,35.1l.67-.17.92-2.37,2.38-.12c1.64.24,5.31.46,6.28,1.19l1.29-1.16.13-3,.45-.35c2.25,3.01,1.97,5.55,3.06,8.54l-.58.31c-.32,3.66-.35,7.42-.45,11.11-.35,12.87-2.41,26.53-2.08,39.35-4.25-2.25-9.38-4.82-13.34-7.43l-1.51-.85c-2.86-2.25-7.48-4.5-9.32-7.33l-.28.06-1.64-.74c-10.02-8.23-8.32-10.66-12.84-23.02-2.43-4.97-4.68-9.46-7.35-14.3Z"/>
  <path class="st32" d="M214.18,160.98c2.15,1.37,4.99,7.39,7.23,10.58-.59,1.87-1.21,3.1-.76,4.95,2,2.38,4.83,2.2,6.66,4.61l-.3,2.87c-10.02-8.23-8.32-10.66-12.84-23.02Z"/>
  <path class="st11" d="M227.31,181.13c-.77-3.4-1.86-19.57-.42-22.35,1.38,4.58,1.3,20.12,1.76,25.96l-1.64-.74.3-2.87Z"/>
  <path class="st11" d="M238.25,192c1.74-5.63-.19-16.4,2.93-21.23.37,1.83-1.21,18.65-1.42,22.08l-1.51-.85Z"/>
  <path class="st25" d="M242.62,144.43l2.38-.12c1.64.24,5.31.46,6.28,1.19-3.03,1.47-6.25,1.36-8.66-1.06Z"/>
  <path class="st13" d="M230.02,74.35c2.93,1.17,10.66,23.17,12.33,27.24-2.17,1.17-3.05,1.39-2.98,3.96,1.1,1.95,2.05,2.35,3.92,3.59-8.85,7.61-26.28,24.85-34.37,33.24l-2.41,2.59-.85-.03c-3.56-5.71-5.76-8.27-10.43-13.07l34.8-57.52Z"/>
  <path class="st13" d="M65.82,74.94c5.09,3.05,30.67,48.52,36.18,56.94-2.05,2.51-9.1,12.1-11.28,12.5l-1.29-.99c-9.53-9.62-19.73-18.72-29.53-28.07-1.52-1.45-5.11-4.09-4.89-6.18,2.46-.73,3.17-.46,3.37-3.02-.73-2.06-1.71-2.64-3.35-4.1,3.81-8.3,7.45-18.46,10.8-27.08Z"/>
  <path class="st31" d="M88.91,247.24c1.61.83,6.85,8.93,8.64,11.16,11.22,14.02,21.08,18.72,37.32,24.97-4.79.17-8.03.2-12.81-.09-22.22-1.59-34.75-13.56-45.72-31.66l12.57-4.38Z"/>
  <path class="st32" d="M250.42,121.7l.24-2.33c5.83,5.02,7.5,32.34,8.13,40.79.7,9.83,1.09,19.67,1.17,29.52.34,1.12.94,10.77,1.08,12.56l-6.06-1.03c-.21-9.48.48-20.32,1.18-29.79.77-6.98,1.21-14.98.06-21.89-1.09-2.99-.81-5.53-3.06-8.54l-.45.35-.13,3-1.29,1.16c-.97-.73-4.64-.94-6.28-1.19,2.26-.11,4.88-.09,7.17-.13-1.21-5.55-1.44-16.44-1.75-22.48Z"/>
  <path class="st21" d="M250.42,121.7c2.19,3.91,2.08,17.7,2.16,22.63l-1.29,1.16c-.97-.73-4.64-.94-6.28-1.19,2.26-.11,4.88-.09,7.17-.13-1.21-5.55-1.44-16.44-1.75-22.48Z"/>
  <path class="st32" d="M38.8,178.28c-.04-6.97.83-17.42,1.23-24.62.57,3.07.72,5.05.93,8.19,1.21,12.2,2.46,26.41,2.46,38.55l-6.54,2.4c1.07-8.05.93-17.02,1.92-24.52Z"/>
  <path class="st13" d="M38.8,178.28c-.04-6.97.83-17.42,1.23-24.62.57,3.07.72,5.05.93,8.19-.03,4.55-.99,11.99-2.16,16.43Z"/>
  <path class="st4" d="M129.5,98.02l1.49.27c1.77,1.48,3,11.73,3.56,14.84l-1.53.13c-2.13-2.25-3.14-11.98-3.52-15.24Z"/>
  <path class="st1" d="M45.34,312.49c2.31.45,4.77,1.1,7.07,1.67,10.33,3.02,20.54,6.73,31.34,7.5,2.22.16,5.41,0,7.31,1.08-1.5,3.41-16.56,5.36-20.35,5.59,8.35,2.66,15.9,6.29,22.82,11.8-6.21-.69-12.37-1.6-18.51-2.3l-.65.55c2.1,2.69,16.24,9.14,20,10.14.71-1.96.94-2.78,2.15-4.55,1.74-.99,7.63,1.27,8.88,2.3,3.89,3.23,18.07,3.84,19.92,6.24.51,2.06-.09,3.51-.62,5.6,15.98,2.38,32.22,2.36,48.19-.06-.45-1.54-1.9-5.48.04-6.22,6-2.29,12.96-2.64,19.12-4.67,3.06-1.01,6.03-3.97,9.09-3.29,1.55,1.43,2.1,3.17,2.96,5.14,4.08-1.61,18.59-8.37,21.16-11.4-3.92.1-15.68,3.73-18.14,1.79,1.69-3.74,16.4-9.15,20.74-10.56-9.28-1.12-14.07-2.43-22.6-6.15,9.7-.87,19.28-2.2,28.84-4.37,5.81-1.31,12.23-5.03,18.29-5.44,1.63-.11,2.39,1.13,3.51,2.26,2.04,3.29,9.74,11.37,9.02,13.34-5.08,13.87-52.64,41.01-63.43,40.21-1.95-.85-2.95-2.56-4.3-4.3-3.46,1.59-9.93,2.46-11.32,4.27.31,1.8.6,2.55.16,4.26-1.72,1.93-8.72,2.55-11.43,3.17-12.12,2.77-54.34,3.26-63.76-3.44-1-1.7-.67-3.53-.6-5.59-4.36-.98-6.79-1.85-10.88-3.6-2.47,4.08-3.98,5.59-9.04,3.73-16.68-6.13-47.75-23.98-56.56-39.55,4.33-5.64,7.45-9.09,11.59-15.16Z"/>
  <path class="st17" d="M254.34,316c2.52,3.17,7.8,9.28,9.84,12.29-13.59,16.65-34.38,27.85-53.73,36.46-2.72,1.21-6.53,2.79-9.37,1.46-2.5-2.67-4.21-9.08-5.41-12.74,5.96-1.45,26.67-10.26,30.87-13.97,10.23-6.19,20.57-13.92,27.81-23.49Z"/>
  <path class="st12" d="M234.63,338.91c1.88-1.14,1.8-1.49,3.82-1.5,1.24,1.1,1.17,1.06,1.88,2.58l1.2-.06.7,1.42,1.43.43c-.91.38-1.17.54-2.15.37l-.38,1.4c-1.72,1.18-3.98,3.03-6.02,2.75l-.89,1.57c-.86-1.51-2.29-3.42-3.31-4.88l.33-1.6,1.69-1.43c.77-.25,1.01-.53,1.71-1.04Z"/>
  <path class="st7" d="M232.92,339.95c.77-.25,1.01-.53,1.71-1.04,1.9,1.61,2.37,2.2,2.03,4.91l.17-.63h-1.46s.84.78.84.78c-1.98-1.04-1.83-1.81-3.29-4.01Z"/>
  <path class="st7" d="M230.9,342.99l.33-1.6,3.87,4.91-.89,1.57c-.86-1.51-2.29-3.42-3.31-4.88Z"/>
  <path class="st7" d="M240.33,339.99l1.2-.06.7,1.42,1.43.43c-.91.38-1.17.54-2.15.37l-.38,1.4-.79-3.56Z"/>
  <path class="st1" d="M226.26,342.91l2.22.14.66-.89,1.77.83c1.02,1.47,2.45,3.38,3.31,4.88l-.54,1.06c-3.32.25-4.03-2.11-5.26-1.3l1.7,2.65c-1.01,1.08-3.48,1.07-5.13,1.19l-.22,2.15-.94.45-1.25-.54c-.34-1.76-.3-2.4-1.41-3.7-.39-1.59-.42-1.54-.26-3.15l.6-.35c.55.5,1.1.98,1.66,1.46,1.34,1.14,1.88,1.65,3.41,1.53,1.69-2.54-1.48-2.58-.31-6.4Z"/>
  <path class="st7" d="M226.26,342.91l2.22.14.66-.89c1.14,2.39,2.92,4.4,4.58,6.48-1.79-1.39-5.83-5.05-7.45-5.73Z"/>
  <path class="st1" d="M208.33,352.7l1.12.06c1.42,2.17,2.6,3.67,3.15,6.2l-.35.68c-1.75-.48-1.16-.26-2.58-1.68l-.69,1.36c.08.68-.03.72-.19,1.42-2.11.66-2.68,1.46-4.51,1.26-1.2-1.61-1.92-4.61-1.69-6.55l1.21-.82,1.6-.37,2.01-.98.92-.59Z"/>
  <path class="st1" d="M208.33,352.7l1.12.06c1.42,2.17,2.6,3.67,3.15,6.2l-.35.68c-1.75-.48-1.16-.26-2.58-1.68-.11-2.3-.54-3.17-1.34-5.26Z"/>
  <path class="st17" d="M203.8,354.64l1.6-.37c.54,2.14.95,3.27.86,5.5l-.62.64-.67-.39c-.56-2.12-.54-2.51-.45-4.7l-.72-.67Z"/>
  <path class="st23" d="M207.41,353.29l.92-.59c.8,2.1,1.23,2.97,1.34,5.26l-.69,1.36c-1.11-2.47-1.67-3.33-1.57-6.04Z"/>
  <path class="st1" d="M248.37,328.79c1.67-1.5,3.91-4.04,5.82-4.36l.82.58c-.18,1.3-.48,1.3-1.39,2.52l.84.87c1.25-.23,1.47-.32,2.62-.74,1.27.74.92.23,1.35,1.36-.87,1.22-.56.77-1.72,1.52-2.73,1.74-3,5.83-7.63,4.73-1.64-.39-3.45-1.89-4.67-3l.27-1.05c2.43.27,1.87-.15,3.46,1.2l.19-.92c2.01.46,1.37.31,3.03,2.12l1.51-.06.62-.76c-.8-1.99-3.25-3.23-5.11-4Z"/>
  <path class="st1" d="M215.91,349.75l.47-1.21.96-.12c.8.74,1.22,1.07,1.93,1.92l1.9-.53c1.11,1.3,1.07,1.95,1.41,3.7l-.59.52-.3.99c-1.59.09-1.52-.29-3.21-1.4-.2,1.1.29,2.3.61,3.42l-1.69.8c-2.79-.32-5.32-4.72-4.85-7.08l.78-.31,2.58-.71Z"/>
  <path class="st1" d="M213.32,350.46l2.58-.71c.87,2.65.86,5.8,3.18,7.31l-1.69.8c-2.79-.32-5.32-4.72-4.85-7.08l.78-.31Z"/>
  <path class="st7" d="M213.32,350.46l2.58-.71c.87,2.65.86,5.8,3.18,7.31l-1.69.8c-1.08-2.33-2.37-5.64-4.07-7.39Z"/>
  <path class="st7" d="M221.17,349.82c1.11,1.3,1.07,1.95,1.41,3.7l-.59.52c-1.04-1.86-1.99-1.6-2.72-3.7l1.9-.53Z"/>
  <path class="st1" d="M241.53,339.93c-.25-1.81-.37-2.46-.94-4.19l.27-1.1c2.46-.61,5.78,1.94,7.75,3.28l-2,2.41-.33.84c-.74.18-1.07.3-1.82.34l-.81.26-1.43-.43-.7-1.42Z"/>
  <path class="st17" d="M242.2,335.4c1.84,1.8,2.96,2.79,4.41,4.93l-.33.84c-.74.18-1.07.3-1.82.34-.75-1.66-1.62-4.32-2.26-6.11Z"/>
  <path class="st22" d="M45.08,315.71c1.81,2.38,3.12,4.13,5.17,6.29,4.86,5.84,15.63,13.31,22.02,17.62,9.46,5.62,18.65,10.46,29.48,12.8-5.88,12.99-3.51,16.21-18.05,10.45-4.71-2.25-9.57-5.06-14.17-7.6-9.69-4.64-27.35-18.51-33.6-27.54,2.89-4.08,5.96-7.3,9.15-12.02Z"/>
  <path class="st1" d="M53.83,330.58l3.57,3.09,1.61.86c4.71,2.89,10.41,9.38,14.34,9.7,2.23,3.52-.49,5.08-3.12,7.64l-2.59-1.72-1.22-.42-1.78-2.42-1.7-.24-2.76-1.97-.46-.58c-3.9-2.18-7.36-4.8-10.98-7.42,2.34-1.99,4.39-3.49,5.09-6.53Z"/>
  <path class="st23" d="M59.72,344.53c-.18-1.94-.6-2.33-1.86-3.8.77-.77,3.41-2.28,4.39-2.57l.69.98c-.57,3.23-1.44,3.2-2.77,5.97l-.46-.58Z"/>
  <path class="st23" d="M66.43,349.73c.95-2.83,1.73-5.36,5.25-4.65l.71,1.05c-.41,1.79-.07,1.13-1.45,2.42-.4-.88-.3-1.54-.3-2.51-1.86,1.38-.59,2.35-3,4.1l-1.22-.42Z"/>
  <path class="st17" d="M57.41,333.67l1.61.86c-1.09,2.52-1.45,4.28-3.88,5.37l-.49-.66c.13-2.14,1.52-3.71,2.76-5.57Z"/>
  <path class="st23" d="M62.95,347.08c1.54-1.87,1.89-4.81,2.82-5.49l1.12.66c.56,2.72-1.04,3.01-2.25,5.07l-1.7-.24Z"/>
  <path class="st17" d="M73.36,344.23c1.99.2,6.07,2,7.35,3.44l.15,1.32-.77.89c-.53,1.47-1.6,3.69-1.23,5.06l.73.55c2.14-2.13,1.94-4.71,3.59-5.88,1.63.42,1.85.77,3.18,1.91l.4,1.58c-.77,2.27-1.21,3.02-2.54,4.98.63.75.31.57,1.15.91l-1.06.91v.4c-.04,1.21.05,1.55-.61,2.57-4.71-2.25-9.57-5.06-14.17-7.6.93-.74.9-.66,1.42-1.72l-.72-1.67c2.64-2.56,5.35-4.12,3.12-7.64Z"/>
  <path class="st1" d="M82.55,358.05c-1.98-1.08-3.97-2.14-5.97-3.18.67-2.23,1.5-2.46.99-4.11-1.54.9-3.31,2.11-5,2.43.65-1.52,4.03-5.07,5.63-5.81,1.53.8,1.03.5,1.89,2.49-.53,1.47-1.6,3.69-1.23,5.06l.73.55c2.14-2.13,1.94-4.71,3.59-5.88,1.63.42,1.85.77,3.18,1.91l-.7,1.18c-.55.13-1.06.2-1.62.21-1.38,1.79-1.1,2.67-1.49,5.15Z"/>
  <path class="st1" d="M86.76,353.09c1.92-.93,4.03-.61,5.72.65l.35,1.17c-.86,1.56-1.18,1.64-2.72,2.67l-.05,2.1c-1.63,1.1-3.05.13-4.68-.69-.84-.34-.53-.16-1.15-.91,1.33-1.96,1.77-2.71,2.54-4.98Z"/>
  <path class="st17" d="M52.51,329.61l1.33.97c-.69,3.04-2.74,4.54-5.09,6.53l-1.11-.93,4.87-6.57Z"/>
  <path class="st1" d="M47.63,336.17c-.76-.91-.76-.89-1.24-1.96,1.28-2.2,3.06-3.86,5.26-5.13l.85.52-4.87,6.57Z"/>
  <path class="st1" d="M46.95,323.98c1.18,1,.84.4,1.2,1.77-.87,1.98-2.92,3.85-4.38,6.32l-.26.45-1.15-1.28c.15-2.89,3.38-3.32,4.58-7.26Z"/>
  <path class="st9" d="M205.26,322.68c9.7-.87,19.28-2.2,28.84-4.37,5.81-1.31,12.23-5.03,18.29-5.44,1.63-.11,2.39,1.13,3.51,2.26l-1.56.86c-7.23,9.57-17.57,17.31-27.81,23.49-.64-.47-.86-1.13-1.27-1.88-3.92.1-15.68,3.73-18.14,1.79,1.69-3.74,16.4-9.15,20.74-10.56-9.28-1.12-14.07-2.43-22.6-6.15Z"/>
  <path class="st9" d="M50.25,322c-.44-2.9-3.35-4.59-2.66-7.59,2.63-1,1.24.77,4.83-.26,10.33,3.02,20.54,6.73,31.34,7.5,2.22.16,5.41,0,7.31,1.08-1.5,3.41-16.56,5.36-20.35,5.59,8.35,2.66,15.9,6.29,22.82,11.8-6.21-.69-12.37-1.6-18.51-2.3l-1.15-.36c-1.04.91-1,.97-1.61,2.16-6.39-4.31-17.16-11.78-22.02-17.62Z"/>
  <path class="st22" d="M115.01,357.32c18.31,5.38,48.79,5.31,67.25.81.65,3.27,2.63,10.2,1.95,13.37-.16.74-.84.77-1.73,1.11-21.97,4.76-48.85,5.06-70.66-.74.34-5.01,1.83-9.74,3.19-14.56Z"/>
  <path class="st17" d="M125.46,362.78c4.41-.57,5.58,1.21,9.62.82,2.05,2.78.33,4.62,1.93,7.4-.72.64-.83.64-1.24,1.49l2,.44c-1.45.54-3.56.17-5.03-.16l-1.98-1.39-1.22-1.16c-1.89,1.81-3.58,2.19-5.7.57-1.81-3.51-.79-5.31,1.62-8.02Z"/>
  <path class="st12" d="M125.46,362.78c1.75.45,2.35.45,3.64,1.6-3.02.73-5.02,1.53-4.43,5.02l.76.74c1.88-1.13,2.56-1.84,4.11-3.31l.37.43c-.25,1.26-.46,1.71-.36,2.98-1.89,1.81-3.58,2.19-5.7.57-1.81-3.51-.79-5.31,1.62-8.02Z"/>
  <path class="st1" d="M130.76,371.39c.81-2.73.74-3.82.63-6.67,1.63,1.53,1.9,4.74,2.25,6.98-.34.49-.45.78-.9,1.09l-1.98-1.39Z"/>
  <path class="st29" d="M135.08,363.6c2.05,2.78.33,4.62,1.93,7.4-.72.64-.83.64-1.24,1.49-.7-1.41-1.37-7.37-.69-8.89Z"/>
  <path class="st1" d="M170.97,364.86l.64-2.09c1,2.6,1.58,7.38,2.07,8.07-1.12,1.08-3.98.9-6.06,1.53-.65-.26-.8-.41-1.39-.8-.82-2.75-2.74-6.86.59-8.29,2.12.2,2.37.37,4.15,1.57Z"/>
  <path class="st23" d="M170.97,364.86l.64-2.09c1,2.6,1.58,7.38,2.07,8.07-1.12,1.08-3.98.9-6.06,1.53,1.09-.85,2.17-1.72,3.22-2.62.82-1.67.39-3,.13-4.9Z"/>
  <path class="st17" d="M167.41,364.29c1,.56.89.57,1.73,1.38.85,1.91.53,3.18.35,5.28-2.51-1.8-2.83-3.7-2.07-6.65Z"/>
  <path class="st1" d="M150.41,364.51c2.78-.2,3.85-.55,5.68,1.6.86,2.66-.04,4.3-1.16,6.79-2.32.12-2.56.53-4.26-.56-1.04-2.18-.97-5.55-.27-7.83Z"/>
  <path class="st17" d="M152.02,365.51c1.51.44,1.45.38,2.52,1.51.52,1.84.17,2.35-.41,4.28-1.06.02-1.02-.02-2.02-.38-.9-1.63-.36-3.44-.09-5.41Z"/>
  <path class="st1" d="M137,371c.84-1.88,1.69-4.69,3.13-5.69,1.05.66,2.83,6.84,3.95,9.09.03-2.6-.33-7.25.19-9.4l.53-.26c2.51,3.1-1.76,6.83,3.16,7.34l.39.04.35.73c-2.57,1.42-7.64-.16-9.48-2.45-.94.84-1.02,1.35-1.45,2.53l-2-.44c.41-.86.52-.85,1.24-1.49Z"/>
  <path class="st12" d="M159.55,363.98l1.56.49c1.18,1.94,3.86,6.08,2.35,8.11-1.82-.4-1.23-.23-2.71-1.93l-.16-.44-.61-.2c-.75,1.78-.46,1.93-1.77,2.73l-1.01-.32-.3-.92c1.85-3.07,2.02-4.1,2.64-7.52Z"/>
  <path class="st1" d="M171.61,362.77c1.88-.16,3.07-.37,4.95-.05l.58.5c-1.26,1.05-2.55,1.7-2.81,3.02l2.19-.05-.54,1c-.98.13-.64.17-1.54-.16l-.17.79c1.18.69,2.01.69,3.36.86l.6.55c-.94,1.26-2.76,1.33-4.54,1.62-.49-.7-1.07-5.47-2.07-8.07Z"/>
  <path class="st1" d="M120.06,361.2c2.38,1.82,1.39,7.39.36,9.77-.91-.48-.86-.43-1.5-1.23,0-2.53.7-5.97,1.14-8.55Z"/>
  <path class="st22" d="M96.77,344.68c4.06.23,8.43,3.76,12.56,5.2,3.53,1.23,13.2,1.47,14.67,4.27-4.1,1.75-6.09-1.56-9.08-.39-1.45,1.2-1.45,1.87-1.91,3.73l-.15.63c-.46,2.33-1.18,5.01-1.75,7.36-4.47-1.09-7.35-1.8-11.7-3.43.54-2.55,3.56-8.95,4.73-11.73-2.93-2.3-6.45-2.83-7.37-5.63Z"/>
  <path class="st22" d="M182.6,353.73c-2.52.27-3.87.43-6.42.35l.44-.08-1.9-.68-.44.39c.72-1,14.51-4.01,17.13-4.81l.85.68c.03.36.12,1.96.19,2.2,2.45,4.26,3.21,6.25,4.32,11.03-4.22,1.42-6.94,2.15-11.24,3.16-.81-4.92-1.47-7.57-2.94-12.24Z"/>
  <path class="st23" d="M191.41,348.9c1.91-.79,7.2-3.28,8.93-3.43-1.33,2.91-6.4,3.11-7.89,6.31-.07-.24-.17-1.84-.19-2.2l-.85-.68Z"/>
  <path class="st22" d="M174.1,355.96c2.4-.1,4.94-.39,7.22.18l.14.99c-2.81.4-6.23,1.74-7.37-1.17Z"/>
  <path class="st17" d="M201.03,348.33l.88.42-.02.67c-1.56,1.21-3.86,1.71-5.82,2.3l-.67-.18-.08-.73c1.39-1.12,3.93-1.85,5.69-2.49Z"/>
  <path class="st17" d="M94.99,347.7c2.43-.12,5.55,1.58,7.09,3.39-1.14-.08-2.26-.27-3.36-.56-1.84-.49-2.79-1.25-3.73-2.83Z"/>
  <path class="st7" d="M115.26,355.43c2.62-.58,6.65.34,8.92,1.79-2.79.36-6.48-.29-8.92-1.79Z"/>
  <path class="st1" d="M117.04,462.13c-.32-8.67,2.12-24.35-5.57-29.96-5.3-3.86-18.3-2.42-24.55-2.57.76,18.34.35,41.07.27,59.69,8.24-.01,19.82,1.44,25.85-3.85,4.61-6.67,4.28-15.5,3.99-23.3ZM105.72,480c-2.93,1.25-6.05.97-9.22.95.25-14.54.08-28.79.14-43.31,3.43-.1,10.27-.56,10.39,4.31.18,7.3,2.14,32.87-1.31,38.05Z"/>
  <path class="st1" d="M241.21,471.6c-.01-5.48-2.24-7.56-5.47-11.55,2.13-2,4.7-3.88,5.12-6.85,4-27.83-10.11-22.73-27.74-23.51.01,19.36-.42,40.32-.05,59.55h9.4c.03-7.11.33-17.05-.19-23.96,6.4-.06,9.82.08,9.95,7.93.04,2.53-.01,5.13-.04,7.67.06,2.65.05,5.83.39,8.4l9.41.03c-.59-5.8-.76-11.88-.77-17.71ZM232.29,449.98c-.02,2.71-.16,3.65-2.04,5.77-2,1.36-5.11,1.19-7.54,1.28l-.29-19.26c10.57.24,9.94,1.59,9.87,12.21Z"/>
  <path class="st1" d="M139.18,429.63l8.7.08.06,7.76c-.14,13.69.98,28.63-.38,42.17-1.1,10.86-15.95,14.07-23.25,7.07-5.9-5.66-4.41-18.46-4.39-26.13l.17-30.98,9.21.08c.1,9.83.09,19.67-.02,29.51-.02,3.48-.87,17.92,1.3,20.96,1.71,2.39,8.17,3.04,8.5-2.66.31-5.47.21-11.21.18-16.92l-.08-30.95Z"/>
  <path class="st1" d="M162.89,428.7c15.49-.86,16.38,8.34,16.51,20.63l-8.93.05c.08-3.35,1.42-16.52-7.68-11.66-1.51.81-2.85,5.51-2.77,7.36.44,11.42-1.37,24.46,1.43,35.39,1.52,1.9,6.06,2.08,7.54.17,2.38-3.07,1.58-8.91,1.44-12.69,1.41-1.03,6.65-.81,8.75-.85.03,4.87.28,10.23-1.29,14.91-1.02,3.05-3.02,5.65-6,7-3.78,1.71-8.98,2.11-12.81.39-3.41-1.52-5.8-4.66-7.09-8.09-2.38-6.33-2.38-39.22.48-45.19,2.12-4.41,6.09-5.98,10.42-7.41Z"/>
  <path class="st1" d="M253.54,429.12c13.34-1.57,17.6,3.88,18.42,16.41-2.35-.2-5.97-.14-8.43-.17-.7-3.73-1.4-8.29-6.77-8.47-.84-.03-2.37,1.1-2.62,1.88-4.34,13.31,14.22,19.4,17.39,30.75,2.57,9.17-.37,17.38-9.89,20.46-13.82,2.49-17.37-5.99-17.85-17.63l8.7.05c.19,17.19,14.73,8.87,9.4-1.21-3.83-7.24-13.02-12.79-16.3-20.86-3.47-8.55-.98-17.48,7.95-21.2Z"/>
  <path class="st27" d="M264.3,431.76c1.62.68,1.94.67,2.82,2.08l-.49,1.23c-1.55.41-.79.4-2.36,0-.63-1.53-.33-1.35.04-3.32Z"/>
  <path class="st1" d="M38.49,428.65c11.97-.04,15.12,5.68,15.36,16.75l-8.29-.23c-.02-.42-.05-.85-.08-1.27-.39-5.34-4.84-10.4-8.52-5.17-4.59,6.52,4.68,15.85,9.49,20.38,7.63,7.17,10.89,16.25,4.83,25.89-2.48,4.08-5.93,4.75-10.28,5.57-12.19-1.1-14.64-7.11-14.76-18.33h8.77c.05,3.7-.09,7.39,3.66,9.25,5.98,2.97,7.97-6.24,5.88-10.19-4.44-8.36-15.32-13.24-17.49-22.99-2.09-9.39,1.47-17.58,11.43-19.65Z"/>
  <path class="st1" d="M57.82,429.63c8.33-.03,16.66,0,24.98.09l-.09,6.45-.29,1.18c-1.99.84-12.56.45-15.29.39l-.24,16.93,12.45-.11c-.03,2.81.14,5.62.28,8.43l-12.49.26.04,17.85c5.03-.2,10.47-.18,15.54-.25v8.32s-24.84.03-24.84.03c-.46-19.28-.03-40.16-.06-59.57Z"/>
  <path class="st27" d="M82.8,429.71l-.09,6.45c-1.66.18-2.22.2-3.88.07-1.75-1.52-1.95-3.11-.48-4.97,1.99-.14,2.05.07,3.71,1.15.26-.89.51-1.79.74-2.7Z"/>
  <path class="st21" d="M148.81,9.43c1.82,14.04,4.59,32.59,4.53,46.76,0,1.83-1.46,4.29-2.45,5.91,2.98-.18,7.65-.66,10.45-.14l.63.59c-.05,3.41-.75,10.87-3.03,13.46l-1,.2c-2.5-1.7-1.08-6.43-6.38-3.82.52,2.75.21,7.02.11,9.94-.25-2.25-.18-3.15-1.68-4.92l-2.17.67-1.62.72c-.04-2.45-.31-6.28-2.47-7.77-2.4,1.18-1.84,3.88-4.45,5.11l-1.02-.39c-3.18-3.79-1.78-3.58-1.75-8.42l-1.91-1.69-.49-1.79c2.97-2.68,8.99-1.99,13-1.88-1.21-1.58-2.38-3.16-3.69-4.65.34-8.46,1.59-17.83,2.45-26.32.63-6.16,1.33-15.73,2.93-21.55Z"/>
  <path class="st4" d="M134.11,63.84c3.61-.37,25.85-1.21,27.76.14-2.34,3.55-8.76.52-12.84,1.55l-.44.62c.61,1.24.85,1.73,1.63,2.86l1.65-.15c-.85,2.33-.85,1.42-.31,3.54.52,2.75.21,7.02.11,9.94-.25-2.25-.18-3.15-1.68-4.92l-2.17.67-1.62.72c-.04-2.45-.31-6.28-2.47-7.77-2.4,1.18-1.84,3.88-4.45,5.11l-1.02-.39c-3.18-3.79-1.78-3.58-1.75-8.42l-1.91-1.69-.49-1.79Z"/>
  <path class="st24" d="M134.6,65.62c4.06-.11,7.97.05,12.03.18.05,5.48.34,7,1.18,12.27l-1.62.72c-.04-2.45-.31-6.28-2.47-7.77-2.4,1.18-1.84,3.88-4.45,5.11l-1.02-.39c-3.18-3.79-1.78-3.58-1.75-8.42l-1.91-1.69Z"/>
  <path class="st4" d="M139.25,67.72c.87-.05,1.74-.08,2.61-.09,1.56,0,2.72.19,3.82,1.25-1.23,1.28-3.06,1-5.16,1.12-.95,1.97-.86,2.57-2.51,3.71l-.7-.4c-.25-2.75.13-3.51,1.94-5.59Z"/>
  <path class="st19" d="M150.21,69.01l1.65-.15c-.85,2.33-.85,1.42-.31,3.54.52,2.75.21,7.02.11,9.94-.25-2.25-.18-3.15-1.68-4.92.34-3.47.44-4.95.23-8.4Z"/>
  <path class="st31" d="M144.98,56.51c.14-5.57,2.64-32.79,3.95-37.7.39,6.87,1.33,14.01,1.88,20.96.62,4.27,3.63,20.02-1.95,21.43l-1.03-.77-2.85-3.92Z"/>
  <path class="st31" d="M147.82,60.43c.37-1.32,1.64-2.33,1.98-3.97,1.07-4.98-1.75-12.51,1-16.69.62,4.27,3.63,20.02-1.95,21.43l-1.03-.77Z"/>
  <path class="st1" d="M202.24,429.54l8.4.05c-2.93,5.57-7.39,18.21-9.71,24.52-4.26,11.59-9.08,23.31-13.25,34.86-1.09.32-6.44.26-7.92.28,6.92-18.88,16.4-40.78,22.48-59.71Z"/>
  <path class="st3" d="M185.13,39.88c-.06,4.27-1.16,10.3-1.82,14.74-1.28,8.81-2.68,18.09-4.1,26.82-1.93,11.89-5.15,6.44-8.41,10.43-.12,1-.5,3.53-.27,4.43.31,1,.62,1.62.39,2.63-1.85,2.93-2.06,6.16-2.84,9.65l-1.26-.07c-.19,2.04-.07,3.81-1.37,5.24-1.01.16-1.21.24-2.22.13l-1.72-.69c1.46-1.67,4.38-20.17,5.16-23.71.1-.45-.9-2.36-1.21-2.91.28-1.44-.01-.79,1.02-1.96,2.13-.59,4.4.1,6.65.52,4.15-13.72,7.05-32.29,11.97-45.24Z"/>
  <path class="st14" d="M185.13,39.88c-.06,4.27-1.16,10.3-1.82,14.74-1.53,1.47-1.69,1.68-2.2,3.73l.15.85c-1.8,7.04-5.13,21.49-7.87,27.49-2.26-.61-4-1.24-6.35-.92l-1.18.87-.38-.07c.28-1.44-.01-.79,1.02-1.96,2.13-.59,4.4.1,6.65.52,4.15-13.72,7.05-32.29,11.97-45.24Z"/>
  <path class="st4" d="M181.26,59.2c.87,2.56-3.92,25.24-5.17,28.74-1.88,1.66-8.73.25-10.22-1.3l1.18-.87c2.34-.32,4.08.32,6.35.92,2.74-6.01,6.07-20.45,7.87-27.49Z"/>
  <path class="st4" d="M163.25,113.88c.72-4.3,1.34-9.8,3.57-13.48l.64.12c.6,2.81-.08,5.16-.63,7.99-.19,2.04-.07,3.81-1.37,5.24-1.01.16-1.21.24-2.22.13Z"/>
  <path class="st4" d="M170.54,96.3c.31,1,.62,1.62.39,2.63l-.48-.2c-1.81.35-2.9.46-4.35-.73,2.18-1.03,1.3-.76,4.09-.6l.35-1.1Z"/>
  <path class="st3" d="M90.87,64.68l2.01-.66c1.97,4.09,12.29,27.77,14.09,28.68,2.16-.67,3.02-1.31,4.96-.71,2.25,3.11-.03,3.57,1.03,5.87,3.05,6.63,4.78,14.36,7.56,20.96l-1.36.77-1.66.48-.73.82c-2.45-5.59-4.63-11.16-7.32-16.67-.74-1.52,1.63-3.82-1.77-6.88-1.81-.15-3.74.81-5.52,1.48-2.31-9.09-8.12-24.8-11.28-34.15Z"/>
  <path class="st4" d="M117.5,120.07c-.93-2.45-5.67-13.39-4.56-15.06,2.93,1.11,5.96,11.64,6.23,14.58l-1.66.48Z"/>
  <path class="st30" d="M94.79,71.45c2.36,2.25,7.8,18.16,11.01,23.15,1.64-.66,2.18-1.04,3.88-.91,1.72,1.55,2.62,6.34,3.28,8.88-5.37-.79-1.4-6.48-5.36-7.34-1.33.68-2.17,1.3-3.65,1.27-2.38-1.59-8.24-21.28-9.17-25.05Z"/>
  <path class="st3" d="M48.66,45.16c4.72,3.53,12.56,12.24,17.02,12.95,1.27,1.07,2.49.87,4.1.92,1.5.97,1.7,1,2.54,2.5-.13,2.91-2.47,3.47-4.66,4.96l.07,4.16-3.02.85c-.53.94-.42.45-.17,1.54l-1.52-1.01-.98.15c-2.13.88-2.97,1.15-5.03.13-.88-1.98-.57-2.86-.82-4.43-.1-.66-1.07-.4-1.36-3.03.83-.97,1.33-1.48,2.26-2.35-.91-3.24-6.57-13.01-8.44-17.34Z"/>
  <path class="st25" d="M65.68,58.11c1.27,1.07,2.49.87,4.1.92,1.5.97,1.7,1,2.54,2.5-.13,2.91-2.47,3.47-4.66,4.96l.07,4.16-3.02.85c-.53.94-.42.45-.17,1.54l-1.52-1.01-.98.15-.7-2.02c-1.47,1.81-1.76,1.39-3.59.71-1.09-1.74-1.56-5.3.44-6.58,1.27.74,1.37,1.59,2.12,3.1-.86.74-.8.52-1.31,1.45l1.42-.13c1.11-2.74,2.15-1.66,2.84-4.58.43-1.83,1.61-4.26,2.41-6.01Z"/>
  <path class="st3" d="M63.02,72.04c-.4-1.9-.77-2.61-.11-4.12,1.19.98,1.22,1.94,1.79,3.58-.53.94-.42.45-.17,1.54l-1.52-1.01Z"/>
  <path class="st14" d="M182.18,104.04c3.39-3.03,2.58-3.94,3.39-9.26.89-5.83,5.77-1,7.33-2.85,3.26-3.88,15.76-37.08,18.48-37.65-2.4,11.92-10.37,28.58-13.91,40.49-1.12,3.76-3.05,5.05-6.51,3-2.82,1.59-1.93,5.32-2.45,8.1-2.3-.97-3.91-1.27-6.33-1.82Z"/>
  <path class="st30" d="M204.71,69.45c-.08,4.33-7.33,23.62-9.78,27.36-2.97,1.31-4.34-1.53-8.07-1.88l-.69-.67c2.01-2.62,3.91-1.26,5.91.2,2.93-1.51,10.78-20.75,12.63-25Z"/>
  <path class="st9" d="M113.09,40.33c4.59,9.93,7.73,33.63,12.54,44.39.19.42,2.68-.11,3.54,0,1.94.24,1.6.32,2.88,1.74-2.16,7.18.14,5.67.81,10.04-1.34.55-1.39.52-2.85.71-1.56-1.31-1.78-2.43-2.42-4.4l-.58.11c-.29-.79-.31-1.71-.4-2.58-1.3-.85-2.59-.26-4.9-.92-1.73-2.06-8.3-43.48-8.63-49.08Z"/>
  <path class="st31" d="M126.61,90.33l.87-1.72-.53-.43c-2.03.5-3.58,1.23-5.28,0-.81-4.01-4.28-23.7-4.14-26.99l.08.94c1.98,1.04,3.78,19.55,6.65,22.26,2.3,2.17,4.27,1.71,7.78,2.05-2.16,7.18.14,5.67.81,10.04-1.34.55-1.39.52-2.85.71-1.56-1.31-1.78-2.43-2.42-4.4l-.58.11c-.29-.79-.31-1.71-.4-2.58Z"/>
  <path class="st15" d="M147.81,78.08l2.17-.67c1.5,1.77,1.43,2.67,1.68,4.92.09,9.78.03,19.55-.18,29.33-2.51.28-2.96.24-5.43-.08-.4-9.61-.18-23.1.15-32.78l1.62-.72Z"/>
  <path class="st25" d="M227.58,59.87c.94-.01,3.36-.75,4.64-.93l1.35.56h.46c.14,7.17,6.69,3.87,6.61,9.19l-.69.35c1.43,1.91,1.34,1.25,1.57,3.34-.82,1.42-.83,1.5-2.28,2.13-2.03,0-3.51-1.08-5.23-2.25l-1.04.03c-.48.2-.98.19-1.54.25l-1.04-1.26-.6-.27c.43-4.08-4.88-3.45-5.16-8.18.82-1.75,1.24-1.84,2.95-2.95Z"/>
  <path class="st21" d="M227.58,59.87l1.1.91c.38,6.48,5.8,2.29,1.72,10.49l-.6-.27c.43-4.08-4.88-3.45-5.16-8.18.82-1.75,1.24-1.84,2.95-2.95Z"/>
  <path class="st4" d="M232.22,58.94l1.35.56c.02,1.64.23,2.73-.57,3.92-.96-1.47-.76-2.68-.78-4.48Z"/>
  <path class="st3" d="M242.88,51.49c1.94-1.55,3.91-3.21,6-4.53l-2.66,5.62c-.69,1.68-5.46,11.22-5.43,11.74l1.89,1.9c-.14,1.56-.55,1.69-2.04,2.46.08-5.32-6.47-2.02-6.61-9.2,1.98-1.48,6.69-6.06,8.85-8Z"/>
  <path class="st31" d="M244.15,52.16c.41,3.76-3.66,10.55-7.39,11.82-1.13-6.13,3.06-8.14,7.39-11.82Z"/>
  <path class="st9" d="M242.88,51.49c1.94-1.55,3.91-3.21,6-4.53l-2.66,5.62c-.91-1.2-.35-.82-1.6-1.34l-.48.91-1.27-.67Z"/>
  <path class="st1" d="M90.87,64.68c-1.36-3.41-3.03-7.13-3.66-10.72l.33-.31c2.12,2.85,3.82,7.06,5.33,10.36l-2.01.66Z"/>
  <path class="st6" d="M46.36,114.89c.86.52,1.95,1.23,2.85,1.61-1.3,1.29-1.46,1.35-1.98,3.05-.96,1.25-.97,1.31-2.19,2.26.47-2.03.67-2.47-.14-4.35l1.46-2.56Z"/>
  <path class="st1" d="M240.02,301.12l3.43.65,2.71,2.41.7,1.22c-3.22-.56-3.55-2.25-6.84-4.27Z"/>
  <path class="st29" d="M33.8,312.28l1.47-.5,2.76-.18,1.09.54c-2.57,1.43-2.83,1.4-5.32.13Z"/>
  <path class="st17" d="M112.02,428.7c.38-.16.81-.1,1.13.15.32.25.48.66.41,1.07-.07.4-.35.74-.74.87-.57.2-1.19-.09-1.41-.66-.22-.57.05-1.2.61-1.43Z"/>
</svg>