<?xml version="1.0" encoding="UTF-8"?>
<svg id="Camada_1" xmlns="http://www.w3.org/2000/svg" version="1.1" viewBox="0 0 600 570">
  <!-- Generator: Adobe Illustrator 30.3.0, SVG Export Plug-In . SVG Version: 2.1.3 Build 182)  -->
  <defs>
    <style>
      .st0 {
        fill: #fdb1bf;
      }

      .st1 {
        fill: #000001;
      }

      .st2 {
        fill: #c91216;
      }

      .st3 {
        fill: #e4151b;
      }
    </style>
  </defs>
  <path class="st3" d="M216.89,130.38c27.46-38.16,54.71-76.47,81.74-114.93,16.08,21.63,32.38,45.09,48.03,67.13l35.16,48.84c33.01,44.65,65.45,91.1,97.96,136.25l34.47,48.19c10.01,13.72,23.92,32.16,33.05,46.11-25.38.87-54.77.11-80.44.1l-58.32-.02c-8.56,0-18.29.22-26.73,0-4.7-.26-11.86.02-16.84.04h-31.04s-119.53-.02-119.53-.02l-162.3.03c3.42-4.25,6.37-8.84,9.83-13.18,3.42-5.61,8.4-12.3,12.26-17.81l31.22-43.77,111.49-156.96Z"/>
  <path class="st2" d="M216.89,130.38c27.46-38.16,54.71-76.47,81.74-114.93,16.08,21.63,32.38,45.09,48.03,67.13l35.16,48.84c-2.7,1.08-20.3,26.67-23.15,30.63l-33.02,45.81c-8.47,11.86-18.78,24.56-26.7,36.28-5.25-6.14-14.44-19.46-19.22-26.3l-22.84-32.38c-3.79-5.41-8.06-10.55-11.99-15.9-9.45-12.97-18.79-26.03-28.02-39.16Z"/>
  <path class="st0" d="M282.87,266.07c5.5-7.09,10.81-14.34,15.92-21.72l53.78,75.76,17.49,24.56c3.55,4.97,8.95,12.14,11.75,17.37-4.7-.26-11.86.02-16.84.04h-31.04s-119.53-.02-119.53-.02c10.58-16.76,25.47-34.71,36.44-51.31,2.61-3.42,14.94-20.15,16.33-23.11,3.99-4.67,11.77-16.15,15.72-21.56Z"/>
  <path class="st2" d="M61.92,348.91l.54.33c.55,2.13-5.43,6.56-4.12,10.51,1.2.91,7.01.75,8.91.74,22.75-.19,45.52-.1,68.27-.1l26.38-.04c4.27-.01,11.18.16,15.23-.39l.53-.08.97.99c4.89-1.37,27.79.12,33.93-.25.42-.02.41-.39.57-.88l-.97-1.59c2.14-1.93,7.62-5.6,8.79-7.83.68-1.29-.71-2.4.65-4.95.5.67.46.7,1.19,1.08.42-.9-.72-.27.3-2.81,1.2-.67.53-.53,2.12-.11,1.82-.58,4.18-7,6.53-8.63,1.08-5.36,13.62-23.16,18.52-24.83l.55.68c-10.97,16.6-25.85,34.55-36.44,51.31l-162.3.03c3.42-4.25,6.37-8.84,9.83-13.18Z"/>
  <path class="st2" d="M267.15,287.64l-.76-.95c.74-1.03.58-3.06,2.7-6.12l1.49-.25c.41-4.79,1.81-1.93,3.11-4.92-.46-.52-.48-.55-.89-1.15,1.19.02,1.12.22,1.91-.34-.08-1.19-.23-1.94.21-3.04,1.22-.31,1.04-.12,2.46.31-.04-.27-.07-.53-.09-.8-.27-2.92.95-2.21,2.47-2.94.84-.4-.26-1.72,1.15-3.44.92.34,1.25,1.15,1.97,2.08-3.95,5.41-11.73,16.89-15.72,21.56Z"/>
  <path class="st1" d="M264.02,454.45c-11.9,3.63-17.64,14.2-13.95,26.17,1.28,4.27,4.27,7.83,8.27,9.81,4.36,2.2,7.87,2.15,12.59,1.77,23.67-7.36,18.48-40.94-6.92-37.76ZM275.75,478.57c-1.23,3.62-2.99,4.83-6.25,6.32-4.14.09-8.49-.89-10.12-5.01-3.06-7.71-1.24-14.89,6.26-18.44,10.18-1.01,12.77,9.29,10.11,17.13Z"/>
  <path class="st1" d="M452.53,397.63c-3.69-2.46-7.32-2.89-11.72-2.6-5.67.94-9.95,2.64-13.39,7.5-5.91,8.34-4.31,22.23,4.45,28.06,4.02,2.68,7.56,2.71,12.19,2.65,1.9-.33,3.91-.64,5.7-1.41,12.96-5.6,14.3-26.5,2.78-34.19ZM443.89,426.03c-13.98.66-14.6-18.71-3.54-23.93,4.88-.27,8.81,1.54,10.21,6.45,2.02,7.08.97,14.92-6.67,17.49Z"/>
  <path class="st1" d="M97.71,395.43c-.25,12.49.02,24.93-.15,37.4,10.07.16,19.93,1.49,28.04-5.08,3.98-4.55,5.49-8.05,5.47-14.13-.09-21.14-18.37-18.43-33.36-18.2ZM118.66,423.14c-4.51,3.4-7.19,3.06-12.53,3.03.17-8.03.29-16.07.36-24.11,4.13-.47,8.39-.61,11.73,2.24,5.84,4.98,5.09,13.45.44,18.84Z"/>
  <path class="st1" d="M537.46,454.47c-17.52,4.83-20.88,25.37-6.03,35.92,2.89,2.05,8.1,2.08,11.58,1.88,22.57-4.03,20.9-40.86-5.55-37.79ZM542.64,484.91c-13.54.59-15-17.47-4.4-23.45,13.66-1.1,15.17,18.16,4.4,23.45Z"/>
  <path class="st1" d="M74.36,471.45c-.69-19.6-19.23-16.93-33.07-16.62v37.23c10.02.05,19.87,1.27,27.87-5.5,4.47-4.83,5.43-8.61,5.2-15.11ZM62.2,482.22c-4.36,3.27-6.8,2.9-12.1,2.77l-.03-23.56c3.97-.07,6.8-.43,10.29,1.72,2.59,1.62,4.37,4.25,4.91,7.25.87,4.6-.57,8.13-3.08,11.82Z"/>
  <path class="st1" d="M259.75,395.35l11.58.05c.05,11.4.79,25.83,1.36,37.31l-8.43.05-.54-21.81c-.13-1.25-.29-2.43-.47-3.67-1.68,1.59-7.36,21.45-8.52,25.29l-6.7.09c-1.89-8.11-5.5-18.6-8.17-26.68-.33,8.94-.78,17.88-1.34,26.81-2.67.12-5.34.02-8.01-.04,1.25-11.81,2.2-25.43,2.91-37.31l11.21-.05c2.22,7.81,4.5,16.63,7.1,24.23,2.31-5.24,6.16-18.38,8.02-24.28Z"/>
  <path class="st1" d="M401.85,454.77c3.5-.15,7.24-.09,10.76-.1.07,12.21,1.56,24.8,1.99,37.18l-8.47.18c-.25-7.04-.31-13.7-.72-20.79-.08-1.45,0-3.61-.76-4.73-.42.4-7.9,22.66-8.85,25.48l-6.4-.15c-2.03-8.59-5.48-18.45-8.32-26.86-.94,8.22-.97,18.49-1.4,26.97l-7.98.11c.7-12.08,1.98-25.03,2.89-37.22l10.87-.14c1.17,5.52,5.73,18.69,7.63,24.61,3.1-8.14,5.46-16.44,8.76-24.52Z"/>
  <path class="st1" d="M454.09,454.73l9.81-.16c4.54,6.88,10.53,18.58,14.72,26.15-.84-8.34-.69-17.42-.74-25.84,2.62-.08,5.37-.05,8-.07,0,4.3.49,35.44-.51,37.18l-8.92.2c-4.8-8.86-9.67-17.67-14.63-26.44-.33,7.52.11,18.32.06,26.25l-7.57.09c-.55-12.21-.11-25.09-.23-37.36Z"/>
  <path class="st1" d="M345.55,395.33l10.08.03c5.09,8.68,9.98,17.47,14.67,26.37-.24-8.73-.32-17.46-.22-26.19l7.68-.08c-.01,4.96.45,35.42-.54,37.02l-1.58.25-7.55-.08c-2.5-5.27-11.69-21.71-14.84-26.03.54,8.49.43,17.44.47,25.97l-8.18.13c.2-12.46.21-24.93,0-37.4Z"/>
  <path class="st1" d="M174.61,454.8c2.88-.12,5.94-.08,8.85-.1,3.67,4.47,11.76,19.85,14.79,25.36-.39-8.43-.5-16.87-.33-25.31h7.76c0,9.87,0,25.94.02,36.43-.18.24-.36.48-.54.72l-8.44-.02c-4.25-8.4-9.79-17.57-14.42-25.96l.26,26-8.2-.04c.19-12.35-.04-24.79.25-37.08Z"/>
  <path class="st1" d="M397.94,519.11l8.49-.13c.24,11.27,1.22,23.48,1.96,34.81l-6.82.04c-.09-6.86-.51-14.44-.77-21.34-.02-1.16.12-3.74-.43-4.58-1.36,1.26-8.69,22.78-9.6,25.71l-5.38-.04c-2.41-8.32-6.02-18.05-8.77-26.5l-1.23,26.64-6.93.16c1.13-11.58,2.1-23.17,2.9-34.78l8.49-.02c3.05,8.5,5.78,16.31,8.16,25.06,3.27-6.36,6.97-17.83,9.94-25.03Z"/>
  <path class="st1" d="M409.33,395.51l8.55-.15c0,10.35.21,25.79-.07,36.56-.21.23-.43.47-.64.71l-7.9.13.06-16.26c-4.83-.17-9.83-.14-14.68-.16.15,5.4.08,11,.09,16.41l-8.74.04c.43-11.74.03-25.38.15-37.34,3.01-.02,5.66,0,8.67.15l-.04,13.9c4.84.16,9.75.06,14.6,0,.04-4.63-.04-9.36-.05-14Z"/>
  <path class="st1" d="M302.42,397.57c-6.04-3.11-14.9-2.22-21.64-2.16-.13,12.4.16,24.88-.06,37.24,2.93.01,5.96.08,8.88.02-.02-3.9-.12-8.16-.04-12.03l5.45-.54c4.76-1.07,8.16-2.27,10.94-6.54,3.48-5.34,2.4-12.94-3.53-15.99ZM297.59,411.98c-1.82,1.27-4.74,2.56-6.9,1.61-2.09-2.27-1.36-8.18-1.3-11.57,7.31-.71,12.79,2.19,8.2,9.96Z"/>
  <path class="st1" d="M477.99,395.47c8.25-.12,16.5-.16,24.75-.12l.09,6.67c-5.27.01-10.53.08-15.8.19-.19,2.35-.16,5.09-.18,7.48l14.08-.09.02,6.65c-3.22-.06-10.56-.64-13.62.46-.51.19-.45,1.32-.53,2.06v7.16c5.17.21,11.03.11,16.26.13l.05,6.64c-8.4.16-16.81.19-25.21.07.44-11.62.08-25.5.09-37.3Z"/>
  <path class="st1" d="M137.3,395.37l24.47.02c-.05,2.16-.18,4.4-.28,6.57-5.12.14-10.24.26-15.36.35-.16,2.27-.17,4.93-.22,7.24l14.12.08-.16,6.56c-2.8,0-10.82-.45-13.52.67-.52.21-.41,1.15-.48,1.93v7.1c5.07.23,10.6.23,15.71.33l.15,6.54c-7.49.35-17.03.12-24.68.12l.24-37.49Z"/>
  <path class="st1" d="M199.96,395.41l24.45-.02.08,6.61c-5.24,0-10.47.13-15.71.37-.12,2.33-.15,4.81-.22,7.16l14.01.08-.11,6.57c-2.77-.04-11.4-.43-13.58.59l-.32,1.27-.13,7.8c5.3.07,10.6.18,15.89.31l.05,6.5-24.54.12.12-37.35Z"/>
  <path class="st1" d="M80.59,454.71c7.68-.26,16.68-.05,24.47-.07-.01,2.07-.14,4.29-.23,6.37-5.01.35-10.27.34-15.31.4l-.16,7.36,13.83.07c.12,1.92.09,4.34.11,6.3-2.99.01-12.05-.5-13.93.82l-.19,1.77.04,7.16c5.37.31,10.12.23,15.51.13l.28,6.98c-8.09.22-16.51.12-24.62.08.36-11.82.36-25.55.19-37.37Z"/>
  <path class="st1" d="M313.89,395.38l24.35-.03.1,6.6-15.75.26c-.2,2.29-.18,5-.21,7.34l14.2.06-.21,6.43c-2.7-.02-11.94-.46-13.85.74l-.2,1.1-.05,8.04c5.26.04,10.53.12,15.79.24l.08,6.52-24.37.16c0-12.16-.27-25.38.13-37.45Z"/>
  <path class="st1" d="M143.07,454.75l23.75-.08v6.42s-15.15.31-15.15.31l-.24,7.28c4.7.07,17.16-2.19,13.91,5.42-.97,2.28-9.46.37-12.92,1.43-1.08,1.06-.75.64-.82,2.64l-.04,6.88c5.13.11,10.54,0,15.69,0l-.04,6.93c-7.57.31-16.57.13-24.25.16-.1-12.46-.06-24.93.12-37.38Z"/>
  <path class="st1" d="M423.38,454.74c7.84-.12,15.69-.13,23.53-.04l.02,6.42-14.92.21c-.03,2.37.08,5.03.11,7.43,4.47.06,8.94.07,13.4.03.04,2.01-.06,4.23-.11,6.25-3,.2-11.78-.39-13.4,1.07l-.06,1.64-.08,7.19c5.05.25,10.4.21,15.48.25l.04,6.88c-8.04.02-16.08-.03-24.11-.14.22-12.25.08-24.9.09-37.18Z"/>
  <path class="st1" d="M342.64,454.86l9.11-.12c-.98,2.36-1.85,5.24-2.67,7.7-3.33,8.79-7.27,20.66-9.91,29.54l-10.29-.11c-1.06-3.95-3.26-9.6-4.69-13.68-2.73-7.72-5.35-15.49-7.85-23.29l9.13-.06c2.98,9.19,5.38,18.34,8.44,27.59,3.39-9.18,5.35-18.71,8.74-27.57Z"/>
  <path class="st1" d="M238.13,454.73c2.75-.04,5.72.04,8.49.05l-2.59,7.66c-3.26,9.86-6.59,19.69-10,29.5-3.36.09-6.96.03-10.34.03-1.66-7.59-6.27-18.48-8.61-26.09-.81-2.62-3.35-8.45-3.49-10.88,2.87-.17,6.04-.2,8.94-.28,2.84,9.16,5.75,18.3,8.74,27.41,3.03-8.48,6.13-18.75,8.88-27.4Z"/>
  <path class="st1" d="M310.08,518.37c5.45-.49,8.79.07,13.93,1.65-.55,1.78-1.21,3.51-1.84,5.26-1.57-.39-3.14-.74-4.73-1.06-4.58-.88-9.32-.59-13.22,2.22-2.64,1.88-4.4,4.76-4.88,7.96-1.22,7.87,4.23,14.5,12.23,14.58,2.27.02,3.91.14,5.77-1.36,1.09-1.91.61-5.69.55-8.1-3.48.12-6.76.83-8.66-2.59l.59-1.18c1.33-.94,1.51-.87,3.19-1.03,3.86-.13,7.78-.05,11.64-.02.12,5.69.16,11.37.13,17.06-7.79,3.06-17.19,4.43-24.56-.48-3.94-2.57-6.64-6.65-7.49-11.27-2.19-12.15,6.03-19.75,17.34-21.64Z"/>
  <path class="st1" d="M431.15,518.33c5.67-.34,7.95.16,13.29,1.86-.49,1.79-1.12,3.19-1.84,4.88-6.9-1.75-14.89-2.49-20.05,3.52-4.27,4.98-3.62,13.42,1.68,17.45,4.47,3.4,9.28,2.8,14.45,2.05-.08-3.08-.09-5.24.12-8.3-3.05.04-6.37.51-8.44-2.17-.49-2.74.84-2.96,3.14-3.04,3.85,0,7.71.05,11.56.15l.14,16.9c-2.54,1.17-5.23,2.01-7.99,2.5-5.87,1.01-12.4.31-17.31-3.29-3.64-2.65-6.05-6.65-6.69-11.1-1.74-11.94,6.64-19.93,17.94-21.41Z"/>
  <path class="st1" d="M278.76,519.11h-8.34c-3.04,9.91-8.89,24.83-12.77,34.69l7.2-.08c1.12-3.03,2.33-6.17,3.38-9.21l10.76-.09c2.66.53,3.36,6.87,3.95,9.39l7.58-.16c-3.91-10.86-8.78-23.57-11.76-34.54ZM275.45,539.54c-2.02.04-3.21.11-5.23-.24-.56-1.4,3.09-11.19,3.82-13.32,1.09.94,4.08,11.19,4.28,13.05-.83.7-1.48.45-2.86.51Z"/>
  <path class="st1" d="M222.17,520.88c-5.5-2.74-12.72-1.96-18.78-1.85-.06,11.58-.04,23.15.06,34.72,2.14-.07,4.61-.09,6.71-.25l-.13-11.7c1.77-.12,3.87-.22,5.61-.43,4.38-1.09,7.34-2.19,9.92-6.18,3.27-5.07,2.25-11.51-3.4-14.32ZM218.67,534.46c-3.32,1.88-4.85,1.85-8.6,2-.02-4.11-.06-8.22-.13-12.33,7.28-.26,14.18,1.89,8.73,10.33Z"/>
  <path class="st1" d="M123.11,454.07c4.54-.17,7.58.52,11.92,1.6l-2.59,6.26c-3.77-.98-13.43-3.22-12.35,3.7,3.53,5.07,15.95,5.89,16.37,13.27.53,9.35-6.75,12.71-14.2,13.62-2.21-.05-6.24-.29-8.26-.93-4.42-1.4-2.67-4.88-1.63-7.68,1.44.33,15.56,3.73,15.56-2.1,0-2.18-7.66-5.96-9.78-7.15-2.64-1.48-6.51-3.99-7.18-7.63-1.26-8.63,5.69-11.62,12.14-12.96Z"/>
  <path class="st1" d="M179.41,395.05c5.2-.24,7.44.23,12.32,1.9l-2.36,5.85c-3.48-.73-12.52-3.09-12.53,2.81,1.89,3.83,8.16,5.44,11.59,7.87,5.11,3.63,6.66,8.85,2.72,14.11-3.2,4.28-6.16,4.79-11.04,5.56-5.03-.04-7.78-.31-12.46-2-.01-2.02.33-4.23.59-6.25,5.66.63,11.09,2.86,16.32-.61,1.77-3.69-7.85-7.41-10.48-9.09-11.22-7.14-6.38-17.91,5.34-20.15Z"/>
  <path class="st1" d="M491.58,454.7c9.46-.22,19.73-.01,29.29-.07l-.37,6.88-9.66.23c-.13,6.18.03,12.88.05,19.1l-.03,11.13-8.85.1c-.23-10.06-.06-20.41.03-30.47l-10.53-.2.06-6.69Z"/>
  <path class="st1" d="M174.59,519.02c6.24-.34,14.95-.14,21.39-.16l-.53,5.48h-14.51s.05,8.62.05,8.62c4.3.06,8.67.03,12.97.04.11,1.18-.02,3.45-.06,4.72-3.04.16-10.97-.37-12.94,1.14l-.19,1.82-.03,7.59,15.43.15c.09,1.84.05,3.62.04,5.46-7.18.13-14.54.1-21.74.15.29-11.58-.08-23.33.11-35.01Z"/>
  <path class="st1" d="M292.64,454.87l8.9-.12-.11,30.06,14.58.25c.1,2.29-.02,4.62-.09,6.91h-23.29c.18-11.74.39-25.45,0-37.1Z"/>
  <path class="st1" d="M155.05,518.69c3.44-.42,9.44-.9,11.42,2.38.1,1.56-.64,2.51-1.41,3.93-3.72-.77-13.87-2.96-12.68,4.03,2.85,3.97,7.92,4.27,11.47,6.81,11.12,7.92,2.37,17.17-7.66,18.68-5.22-.23-6.77-.48-11.56-2.55l1.75-5.05c4.67,1.26,12.16,3.51,16.05-.65.96-6.5-15.81-9.17-16.81-16.43-.9-6.54,3.86-9.54,9.43-11.15Z"/>
  <path class="st1" d="M355.55,454.81l9-.1c-.01,12.09.21,25.07-.14,37.1l-8.81.23c.23-12.41.21-24.81-.05-37.22Z"/>
  <path class="st1" d="M233.74,519.07h6.53c.09,9.78.08,19.55-.03,29.32,3.52.14,11.93-1.09,14.15,1.33.51,1.62.25,2.46.01,4.14-6.81.15-13.94,0-20.77-.06.18-11.57.22-23.15.11-34.72Z"/>
  <path class="st1" d="M339.1,538.13c4.31.06,10.46-1.04,13.71.66.89,1.57.54,1.96.44,3.97-4.32.06-10.09,1.26-13.38-.44-1.04-1.55-.7-2.06-.78-4.19Z"/>
</svg>