<?xml version="1.0" encoding="UTF-8"?>
<svg id="Camada_1" xmlns="http://www.w3.org/2000/svg" version="1.1" viewBox="0 0 1200 896">
  <!-- Generator: Adobe Illustrator 30.3.0, SVG Export Plug-In . SVG Version: 2.1.3 Build 182)  -->
  <defs>
    <style>
      .st0 {
        fill: #d22621;
      }

      .st1 {
        fill: #fff;
      }
    </style>
  </defs>
  <path class="st1" d="M0,0h1200v896H0V0Z"/>
  <path class="st0" d="M30.86,36.47l756.09.04h244.82s80.74,0,80.74,0c14.07,0,30.86-.4,44.75.18.02,17.04.22,34.45-.04,51.46-2.69.02-7-.06-9.53.24,3.32.17,6.23.28,9.56.24l-.05,9.32c.13,15.18.68,36.34-.02,51.38v9.6c.32,15.56.64,37.81,0,53.2v9.3l-50.23-.08c-5.79,0-20.37-.35-25.28.37,7.01.53,17.41.19,24.83.17,16.92-.14,33.85-.11,50.77.09.02,17.65.35,36.31-.07,53.88v9.6c.4,16.87.1,34.64.06,51.57l-51.57-.08c-4.92,0-19.83-.35-24.06.31l.06,9.5c3.23.45,19.89.15,23.98.14l51.6-.02-.02,51.44-1126.5-.05v-51.38s50.27.02,50.27.02c5.57,0,20.09.31,25.11-.36l.14-9.3c-2.27-.51-19.39-.32-22.78-.31l-52.74.04-.06-51.49v-9.36s47.22.01,47.22.01c8.98,0,19.35.26,28.2-.26-3.62-.57-19.37-.28-23.99-.28l-51.43.05c.19-17.81.03-35.88.03-53.71l48.09-.08c8.35,0,19.13.34,27.28-.27-5.81-.61-19.2-.23-25.61-.23l-49.84.04c-.06-3.06.04-6.25.09-9.32l.08-53.2c-.2-2.6-.07-6.61-.06-9.33,11.58-.02,27.38.5,38.5-.24-8.13-.86-29.79-.29-38.52-.26l.04-51.11c-.13-2.95-.08-6.34-.1-9.34,3.04.06,5.77-.08,8.81-.23-2.99-.15-5.8-.29-8.79-.28.02-16.12-.5-35.81.2-51.63Z"/>
  <path class="st1" d="M1081.7,275.74l75.49.13v9.6s-75.5.05-75.5.05v-9.78Z"/>
  <path class="st1" d="M1081.71,149.29c24.36-.59,50.92-.04,75.47.03v9.6c-24.76-.42-50.68-.14-75.49,0l.02-9.64Z"/>
  <path class="st1" d="M1081.62,88.35l66.07.03c3.32.17,6.23.28,9.56.24l-.05,9.32h-75.52s-.06-9.59-.06-9.59Z"/>
  <path class="st1" d="M39.45,88.38h66.64s-.01,9.45-.01,9.45l-75.33.12c-.13-2.95-.08-6.34-.1-9.34,3.04.06,5.77-.08,8.81-.23Z"/>
  <path class="st1" d="M69.22,149.32c12-.07,24.92-.3,36.88.03v9.53s-75.32,0-75.32,0c-.2-2.6-.07-6.61-.06-9.33,11.58-.02,27.38.5,38.5-.24Z"/>
  <path class="st1" d="M106.09,275.89l-.04,9.57-75.38.04v-9.36s47.22.01,47.22.01c8.98,0,19.35.26,28.2-.26Z"/>
  <path class="st1" d="M1081.66,212.14h75.51s0,9.29,0,9.29l-50.23-.08c-5.79,0-20.37-.35-25.28.37v-9.59Z"/>
  <path class="st1" d="M30.7,212.09l75.36.02v9.49c-5.81-.61-19.2-.23-25.61-.23l-49.84.04c-.06-3.06.04-6.25.09-9.32Z"/>
  <path class="st1" d="M802.7,82.87c6.55-.75,14.96-.61,21.57-.38,54.69,1.88,103.44,19.61,86.89,85.21h-74.89c8.22-48.3-69.52-38.14-70.82-2.91-.73,19.72,38.31,26.62,53.02,30.43,36.52,9.44,78.56,16.63,80.23,63.93.83,23.94-7.97,47.22-24.45,64.61-29.38,31.22-72.28,40.98-113.61,42.19-30.43.82-74.57-4.65-93.88-31.2-12.81-17.61-11.81-41.06-8.5-61.56l75.35.1c-1.91,11.17-1.54,23.39,7.89,31.07,18.11,14.74,54.6,9.68,69.32-7.78,9.16-10.1,8.83-27.42-4.2-34.53-24.9-13.59-56.1-14.56-82.18-26.14-8.21-3.4-17.02-7.25-23.76-13.18-28.49-25.06-15.89-73.24,5.8-98.49,24.72-28.78,60.12-38.41,96.22-41.34Z"/>
  <path class="st1" d="M281.48,82.87c5.84-.56,12.71-.6,18.59-.39,55.47,2.03,103.4,18.95,87.96,85.22l-75.07.02c.41-2.79,1.06-6.83.87-9.61-2.51-36.76-72.65-25.94-71.2,7.74.8,18.64,33.75,24.62,48,28.38,37.78,9.97,82.94,15.83,84.79,64.89.73,24-8.07,47.32-24.49,64.84-29.56,31.63-72.33,40.61-113.88,42.04-30.58-.14-71.78-3.88-92.25-30.13-13.96-17.9-12.38-41.41-9.42-62.68l75.09.02c-1.09,11.4-1.3,23.06,8.35,31.28,9.32,7.93,22.27,8.97,33.97,8.19,18.59-1.22,43.11-12.72,41.24-34.75-.47-5.58-3.67-11.35-8.34-14.57-10.24-7.04-22.97-9.97-34.85-12.98-23.23-6.01-53-11.82-72.25-26.78-10.36-8.05-16.25-21.62-17.13-34.43-1.65-23.95,7.18-47.44,22.79-65.43,24.7-28.46,61.01-38.28,97.23-40.89Z"/>
  <path class="st1" d="M456.39,88.37h207.06c-3.93,16.93-7.72,35.76-11.06,52.82-43.62-.55-88.15.04-131.89-.08l-11.75,55.76,120.93.03c-3.83,17.34-7.32,35.34-10.97,52.78l-121.43-.03-2.03,10.68c-3.36,13.77-7.46,33.2-9.92,47.07l131.43.11c-3.59,17.61-7.27,35.21-11.06,52.78l-206.95-.13,40.22-189.53c5.96-27.39,11.76-54.8,17.41-82.26Z"/>
  <path class="st1" d="M978.88,88.39c24.56-.51,50.95,0,75.61.07l-57.71,271.65-75.23.02c14.1-71.48,30.74-142.76,45.26-214.18,3.88-19.1,8.71-38.41,12.07-57.57Z"/>
  <path class="st1" d="M1081.62,337.27c2.37.15,4.73.23,7.1.25,22.85.21,45.69-.18,68.54.08l-.06,8.78-49.91-.05c-5.84,0-20.61-.33-25.6.44l-.06-9.5Z"/>
  <path class="st1" d="M30.63,337.55l46.65.03c9.01,0,20.12.25,28.98-.31l-.14,9.3c-3.27-.52-19.25-.25-23.71-.24l-51.7.09-.08-8.86Z"/>
  <path class="st0" d="M30.63,546.83l1134.1.06.02,39.74-41.51-.08c-2.69,0-16.07-.16-18.23.28v7.79c16.11,1.1,42.92.22,59.79.19v40.62l-38.99-.11c-4.44-.01-16.94-.2-20.82.39,17.42.88,41.82.23,59.68.22l.02,7.51c.14,14.05.16,28.09.06,42.14-17.6-.01-39.12-.54-56.4.13,15.89,1.01,39.43.23,56.06.19.04,2.31.01,5.2.15,7.45.86,11.34.22,30.94.18,42.61l.02,7.7-.02,41.07c-12.63.06-25.27.05-37.9-.03-3.58-.02-19.09-.29-21.94.37l.08,7.52c2.14.42,15.72.23,18.4.23h41.37c.13,13.11.01,26.39,0,39.5l-1134.08.09-.05-39.65,38.14.08c5.94.01,16.06.23,21.62-.46l.02-7.35c-2.71-.62-19.19-.35-22.45-.33-12.44.09-24.87.09-37.31-.01l-.02-41.03c-.11-2.39-.03-5.24-.01-7.66l-.02-42.45c14.59.06,39.58.88,53.23-.24,2.08.06,4.29.45,5.87-.66,1.11-1.9.71-4.51.64-6.86-2.36-.43-15.45-.28-18.28-.27l-41.45.08.02-42.17v-7.51c17.12-.02,43.32.77,59.79-.2-2.77-.5-15.3-.38-18.58-.38l-41.28.05c.17-13.48.08-27.11.09-40.61l38.47.05c5.72,0,15.85.26,21.23-.31l.11-7.61c-4.85-.66-16.05-.4-21.46-.4l-38.4.03.04-39.73Z"/>
  <path class="st1" d="M1104.92,736.01l59.82-.04.02,7.7h-59.77l-.08-7.66Z"/>
  <path class="st1" d="M30.61,736.03l59.86-.02-.07,7.61-59.78.08c-.11-2.39-.03-5.24-.01-7.66Z"/>
  <path class="st1" d="M30.62,635.93c17.11-.02,43.32.77,59.78-.2l-.11,7.71H30.62v-7.51Z"/>
  <path class="st1" d="M1104.99,635.71c17.42.88,41.82.23,59.68.22l.02,7.51-59.69-.02v-7.72Z"/>
  <path class="st1" d="M1105.05,693.56c-.18-2.87-.84-5.73.9-7.77l2.4-.07c15.89,1.01,39.43.23,56.06.19.04,2.31.01,5.2.15,7.45-19.61.32-39.84.12-59.51.2Z"/>
  <path class="st1" d="M548.66,586.06l80.09-.1c10.8,51.61,26.02,104.66,37.13,156.35l20.49-96.37c4.22-19.6,9.04-40.24,12.54-59.91l51.44.08-30.79,145.42-8.85,40.85c-1.16,5.44-2.12,14.96-4.83,19.99-.33.61-1.8.45-2.61.47l-76.18.05-25.9-111.18c-3.62-15.52-7.1-33-11.18-48.19-10.67,53.09-22.71,106.34-33.14,159.32l-51.73-.04c2.5-13.84,5.86-27.65,8.7-41.46l24.32-115.07c3.48-16.45,7.7-33.7,10.51-50.21Z"/>
  <path class="st1" d="M852.94,586.02l70.05.05c5.62,34.66,12.74,71.38,19.16,105.97l18.56,100.78-64.36.06-5.81-40.09c-18.33-.24-37.27-.04-55.64-.04l-27.66-.12c-7.59,12.77-15.25,27.2-22.66,40.26-18.96-.12-37.92-.12-56.87-.01l125.24-206.87Z"/>
  <path class="st0" d="M876.29,626.22c1.26,1.18,2.65,22.05,2.96,25.27l5.67,61.07c-15.1-.19-30.45-.08-45.57-.1h-9.39c15.78-28.57,31.22-57.32,46.33-86.24Z"/>
  <path class="st1" d="M231.41,581.57c10.5-.41,22.32.35,32.6,2.48,37.29,7.72,49.95,26.18,42.92,62.54-19.11-.11-38.21-.07-57.32.1,1.95-15.24-3.31-23.42-19.25-24.61-13.54-1.55-33.8,6.39-34.49,22.22-.66,15.24,29.38,20.36,40.43,23.12,27.59,6.67,61.37,15.21,60.56,50.51-1.39,60.58-60.01,79.25-110.06,79.31-22.96-.69-50.68-3.77-65.77-23.32-10.67-13.82-9.15-31.02-6.86-47.2,19.02.11,38.05.09,57.08-.05-.52,8.23-1.44,16.85,5.31,22.91,15.52,13.94,58.74,6.97,58.69-18.2-.35-6.9-6.38-12.57-12.24-15.15-23.56-10.41-56.27-10.68-76.49-28-22.2-19.03-11.49-57.45,6.16-76.17,21.2-22.48,48.8-29.07,78.73-30.49Z"/>
  <path class="st1" d="M358.64,586.03l157.67.02c-2.62,13.48-5.49,26.9-8.61,40.28l-100.23-.03c-3.2,11.94-6.47,30.42-9.13,42.87l92.5-.02-8.35,39.92-92.57-.14-1.42,6.72c-2.15,11.96-5.17,24.93-7.62,36.98l100.46.02c-3.01,13.37-5.86,26.78-8.55,40.22h-157.94l43.79-206.82Z"/>
  <path class="st1" d="M1026.62,586.04l57.12.08c-1,5.27-2.29,10.56-3.37,15.83-13.12,63.66-27.52,127.19-40.2,190.94l-57.31-.03,32.5-153.53c3.73-17.76,7.78-35.49,11.26-53.29Z"/>
  <path class="st1" d="M1105.01,586.82c15.24,1.24,43.08.26,59.42.36l.16,7.23h-40.05c-3.99-.01-15.86-.26-19.53.19v-7.79Z"/>
  <path class="st1" d="M30.65,586.99l37.39.16c6.81.02,15.74.27,22.41-.23l-.11,7.61c-3.28-.46-14.97-.23-18.98-.23l-40.74.11.03-7.42Z"/>
  <path class="st1" d="M30.69,686.12c18.84-.29,41.46.65,59.64-.3.07,2.35.46,4.96-.64,6.86-1.58,1.11-3.79.73-5.87.66-5.39-.46-13.59-.23-19.15-.23H30.67s.02-6.99.02-6.99Z"/>
  <path class="st1" d="M1104.9,785.09c16.48,1.03,42.76.26,59.93.23l-.02,7.01-37.51-.12c-5.85-.01-16.89-.24-22.32.4l-.08-7.52Z"/>
  <path class="st1" d="M30.68,785.28l38.11.08c6.55,0,15.19.22,21.61-.3l-.02,7.35c-3.14-.45-15.51-.21-19.4-.21l-40.22.06-.07-6.98Z"/>
</svg>