<?xml version="1.0" encoding="UTF-8"?>
<svg id="Camada_1" xmlns="http://www.w3.org/2000/svg" version="1.1" viewBox="0 0 940 320">
  <!-- Generator: Adobe Illustrator 30.3.0, SVG Export Plug-In . SVG Version: 2.1.3 Build 182)  -->
  <defs>
    <style>
      .st0 {
        fill: #3962fc;
      }

      .st1 {
        fill: #09673f;
      }

      .st2 {
        fill: #00337b;
      }

      .st3 {
        fill: #fffffe;
      }

      .st4 {
        fill: #fdcc06;
      }
    </style>
  </defs>
  <path class="st0" d="M113.79,14.1c63.51-3.33,117.68,45.48,120.96,108.98,3.28,63.51-45.57,117.64-109.08,120.88-63.44,3.23-117.5-45.55-120.78-108.99C1.61,71.53,50.35,17.43,113.79,14.1Z"/>
  <path class="st3" d="M92.23,146.67c1.51-.29,3.05.27,4.02,1.45.97,1.18,1.22,2.81.64,4.23-.58,1.42-1.89,2.41-3.41,2.58-2.23.25-4.25-1.31-4.59-3.53-.34-2.22,1.14-4.3,3.34-4.73Z"/>
  <path class="st3" d="M36.41,90.26c2.15-.14,4.04,1.42,4.3,3.57.26,2.14-1.21,4.11-3.33,4.49-1.48.26-2.98-.32-3.91-1.51-.92-1.19-1.11-2.79-.5-4.16.62-1.37,1.94-2.29,3.44-2.39Z"/>
  <path class="st3" d="M51.78,125.69c2.09-.75,4.39.33,5.16,2.41s-.29,4.4-2.36,5.18c-2.1.8-4.45-.28-5.23-2.39-.78-2.11.32-4.45,2.44-5.21Z"/>
  <path class="st3" d="M126.13,125.44c1.45,1.73.65,1.89,3.14,3.22l.4.21c-.05,1.13-.27,3.79.15,4.76l-.51-.6c-1.38-.13-2.9.75-3.94,1.56-.24.29-.68.5-1.04.72-.36-1.15-2.11-5.84-1.91-6.46,3.04-.85,2.73-.53,3.7-3.41Z"/>
  <path class="st3" d="M136.88,44.89c1.31-.01,2.53.68,3.18,1.81.66,1.13.66,2.53,0,3.66s-1.88,1.82-3.19,1.81c-2-.02-3.6-1.65-3.6-3.64,0-2,1.61-3.62,3.61-3.64Z"/>
  <path class="st3" d="M192.7,108.94c1.77-.7,3.78.17,4.48,1.94s-.17,3.78-1.94,4.48c-1.77.7-3.78-.17-4.48-1.94-.7-1.77.17-3.78,1.94-4.48Z"/>
  <path class="st3" d="M81.77,96.18c1.85-.09,3.43,1.32,3.56,3.17.13,1.85-1.24,3.46-3.08,3.64-1.23.12-2.43-.44-3.14-1.46s-.8-2.34-.25-3.45c.55-1.11,1.66-1.83,2.9-1.89Z"/>
  <path class="st3" d="M176.79,133.27l.72.33c1.38,3.01,2.18,3.4,5.12,4.5-2.99.79-3.9.73-5.77,3.14-.76-.37-3.55-2.34-4.14-2.9.18-1.47,2.11-1.52,3.83-4.63l.24-.44Z"/>
  <path class="st3" d="M133.27,75.94c1.59-.57,3.34.26,3.91,1.85.57,1.59-.26,3.34-1.86,3.9-1.59.56-3.33-.27-3.89-1.85-.57-1.59.26-3.33,1.84-3.9Z"/>
  <path class="st3" d="M130.55,106.01c.39.38.42.3.52.76.49,2.31,1.65,2.1,2.87,4.18-2.16,1.4-2.45,1.76-3.4,4.06l-.2.5c-.41-.68-.81-2.08-1.08-2.42-.87-1.07-1.34-1.44-2.18-2.66,1.82-1.9,2.1-1.38,3.28-3.98l.2-.44Z"/>
  <path class="st3" d="M119.91,100.8c1.64-.23,3.15.91,3.39,2.54.24,1.64-.9,3.15-2.53,3.39-1.64.24-3.17-.9-3.4-2.54-.24-1.64.91-3.16,2.55-3.39Z"/>
  <path class="st3" d="M150.77,132.24c.48.5,2.26,2.96,2.96,3.8-.3,1.64-.98,1.14-1.85,2.28-.46.61-1.02,1.73-1.45,2.43.25.15-3.28-4.76-3.32-4.86,1.88-1.1,2.18-1.37,3.37-3.21l.28-.44Z"/>
  <path class="st3" d="M186.17,100.76c.74.42,2.9,2.38,3.38,3.34l-.42,1.05c-1.32.99-1.79,1.4-2.8,2.77l-.86-.06c-.53-1.37-.82-2.16-1.56-3.47l-.91-.04c-.28.97,3.18-3.63,3.15-3.59Z"/>
  <path class="st3" d="M187.96,116.99c1.16.68,1.34.71,2.11,1.76.41,3.01-1.04,3.36-3.53,3.72-.14,0-.71-.18-.88-.23-.55-1.49-1.12-2.15-.67-3.36,1.32-.58,1.56-.75,2.69-1.66l.28-.23Z"/>
  <path class="st3" d="M160.46,142.74c.64.67,1.46,2.2,2.52,3.31l-.03.5c-1.74.99-2.14,1.19-3.12,3l-.23.25-.55-.04c-.48-1.81-1.08-2.72-1.6-4.46,2.24-1.07,1.73-.57,3.02-2.57Z"/>
  <path class="st3" d="M161.4,130.93c1.3.85,4.57,3.4,3.82,5.05l-1.97.16c-1.42.58-1.71.85-2.94-.14-.12-1.33.93-3.03,1.09-5.07Z"/>
  <path class="st3" d="M171.36,125.01c1.21.37,3.32,1.14,3.76,2.25-.57,1.31-.65,1.81-.93,3.22-1.91-.96-2.05-.18-3.16-1.9.01-1.5-.03-2.08.33-3.57Z"/>
  <path class="st4" d="M226.97,15.83c29.13-.59,58.62.54,87.78,0,5.17-.1,10.38-.07,15.54.05l.03,156.17c-8.01,4.7-17.25,9.39-25.53,13.79l-44.48,23.74-158.59,85c-5.46,2.89-10.88,5.83-16.28,8.82l-.14-56.1c30.37,6.42,56.19,6.75,85.1-6.43,30.79-14.03,55.28-39.07,67.09-70.95,10.98-29.65,9.72-62.44-3.51-91.16-10.82-23.25-28.62-42.55-50.91-55.21-5.06-2.94-9.39-5.41-14.87-7.43,5.23.08,11.42-.26,16.88-.27,13.96.07,27.93.05,41.89-.05Z"/>
  <path class="st1" d="M105.31,303.38c13.14-6.32,25.42-12.99,38.28-19.82l70.61-37.78,69.69-37.31,28.88-15.55c5.86-3.18,11.96-6.28,17.64-9.74l-.03,122.64-154.49.02-48.07.07c-6.69,0-17.14.36-23.55-.07-1.02.01-1.29-.02-2.31-.16l-.06-.38c1.16-.72,2.21-1.29,3.41-1.93Z"/>
  <path class="st2" d="M474.36,66.69c-1.52-6.13-3.36-8.73-8.05-12.65,5.85-4.52,9.37-7.55,10.54-15.2,1.64-10.71-4.67-21.3-15.97-22.23-6.95-.57-14.64-.27-21.67-.17.61,20.8-.16,41.89.08,62.72.03,2.79.04,5.76-.04,8.55,3.82.09,7.64.14,11.46.15-.06-9.57.22-19.97,0-29.43,3.48-.05,6.35-.04,9.09,2.56,4.1,3.9,5.29,15.47,6.37,21.39.4,1.75.79,3.63,1.29,5.35,3.77.04,8.24-.02,11.97.17-1.96-7.03-3.31-14.13-5.07-21.21ZM462.08,46.5c-3.56,3.19-7.03,3.12-11.51,3.28.1-8.08.12-16.15.04-24.23,3.47-.24,8.91-.65,11.62,1.85,5.31,4.9,4.06,14.12-.15,19.1Z"/>
  <path class="st2" d="M706.85,54.07c5.65-3.61,9.58-6.96,11.15-13.89,2.4-10.61-3.37-21.65-14.63-23.33-7.18-1.07-15.53-.33-22.89-.35l.1,45.58c0,8.33-.32,17.44.02,25.67,3.85.06,7.69.1,11.54.12l-.12-29.48c3.66-.04,6.81-.24,9.67,2.71,3.65,3.74,4.82,14.76,5.8,20.15.4,2.27.79,4.34,1.3,6.6,3.98,0,8.07-.08,12.03-.03-4.21-12.35-2.75-25.84-13.97-33.74ZM702.74,46.81c-4.02,2.79-5.94,2.63-10.74,2.86.17-7-.22-16.49.21-23.6.03-.5.28-.46.84-.76h.23c1.36-.09,2.75-.2,4.11-.09,9.86.77,11.76,11.77,7.47,19.08-.54.93-1.38,1.75-2.13,2.51Z"/>
  <path class="st2" d="M627.39,42.45c-1.72-7.75-3.85-18.43-6.15-25.91l-13.35-.14c-3.03,10.57-5.82,25.28-8.24,36.29-2.45,11.16-6.14,24.25-8.21,35.11,3.77.01,7.75-.04,11.5.07,1.02-5.58,2.92-13.23,3.61-18.49l15.29-.06c.52.31.57.18.65.57,1.21,5.84,2.37,11.99,3.29,17.87,3.98.08,7.95.08,11.93,0-3.55-15.08-6.99-30.17-10.32-45.3ZM615.2,60.64l-7.26.03,6.15-31.22c1.17,1.27,5.71,27.25,6.56,31.21l-5.45-.03Z"/>
  <path class="st2" d="M726.16,16.49c10.09-.14,20.18-.13,30.28.02-.13,2.95-.08,6.37-.11,9.36-6.22-.04-12.43-.05-18.65,0,.09,6.71.11,13.43.04,20.14,5.73.11,11.56.06,17.32.14v9.21c-5.78-.06-11.55-.04-17.33.06.12,5.76.05,11.73.07,17.51l.02,4.78,20.14.04v10.05c-10.45-.16-21.23.02-31.7.09l-.08-71.37Z"/>
  <path class="st2" d="M484.16,16.46h29.93c-.02,3.12-.1,6.28.11,9.41-6.18.12-12.59.03-18.79.04.04,6.74.04,13.47-.02,20.21,5.96-.07,11.93-.1,17.89-.11-.12,2.77.02,6.48.05,9.31-5.95-.04-11.9,0-17.85.09v15.71s-.07,6.54-.07,6.54c6.8.05,13.6.05,20.4,0-.05,3.33.02,6.88.04,10.23-10.2-.14-21.4-.27-31.56,0,.05-2.99.04-6.09-.01-9.09-.32-20.7.43-41.67-.11-62.34Z"/>
  <path class="st2" d="M642.12,72.82c-3.6-7.48-4.36-18.72-3.66-26.95,1.78-20.99,15.57-34.26,37.01-29.11-.68,3.2-1.34,6.41-1.97,9.62-18.32-4.74-23.23,10.33-23.2,25.54.03,15.54,5.52,31.44,24.21,24.91l.3,10.58c-7.95,1.72-16.06,1.99-23.15-2.62-.85-.55-2.36-1.65-2.98-2.45-2.91-2.13-5.3-6.2-6.56-9.53Z"/>
  <path class="st2" d="M642.12,72.82c1.76.47,4.67.47,4.89,3.07-.42.79-.87.88-1.7,1.25,1.05,1.83,3.39,3.48,3.36,5.2-2.91-2.13-5.3-6.2-6.56-9.53Z"/>
  <path class="st2" d="M396.81,16.25c10.99.56,26.53.09,37.79.05l.02,9.74-12.83.03c.39,15.43.12,32.47.05,47.98l.03,13.82c-3.77-.09-7.73-.04-11.52-.07l-.04-61.82-13.44.14c-.04-3.29-.06-6.58-.05-9.87Z"/>
  <path class="st2" d="M530.98,56.14c5.98.21,13.17,0,19.23-.03,9.27.07,18.54.06,27.82-.03.08,2.74.11,5.48.08,8.22-15.27-.36-31.79-.03-47.12,0v-8.17Z"/>
  <path class="st2" d="M639.18,255.93c.29-5.42,5.08-14.36,9.53-17.61l.31.62c-.7,1.62-4.58,7.43-5.84,8.58-.21.74-.02,1.06.2,1.79-.65,1.66-1.66,1.54-2.34,3.01-.56,1.19-1.07,6.47-1.92,7.05-.07-1.27-.01-2.19.06-3.44Z"/>
  <path class="st2" d="M670.25,303.54l-.35-.59c.38-.91.96-1.47,1.79-1.89,3.11-1.56,5.46-6.67,7.23-9.61.34-.55.77-.45,1.5-.53-1.79,4.8-5.3,10.45-10.18,12.62Z"/>
  <path class="st2" d="M652.03,236.01c5.38-2.56,10.08-2.63,15.82-1.22-4.06.03-13.72,1.69-15.82,1.22Z"/>
  <path class="st2" d="M638.52,280.01c.07-1.01-.04-2.19.5-2.81l.31.27-.54.15.68.16c.86,2.61,2.22,8.78,1.09,11.19-1.13-3.2-1.6-5.65-2.04-8.96Z"/>
  <path class="st2" d="M641.02,290.26l.48-.65c1.17.67,5.44,8.23,4.73,9.59-2.65-2.88-3.88-5.3-5.22-8.94Z"/>
  <path class="st2" d="M655.67,305.31c.16-.1.8-.42.94-.42,2.48-.04,8.27-.91,10.21.18-3.47,1.01-7.69,1.5-11.15.24Z"/>
  <path class="st2" d="M683.46,261.03l-.39-2.16c-.03-1.82-.13-1.01-.11-2.49-.96-9.3-6.04-18.27-15.12-21.58-5.75-1.42-10.44-1.35-15.82,1.22-1.05.66-2.48,1.46-3.32,2.3-4.45,3.26-9.24,12.2-9.53,17.61-1.53,4.51-1.95,19.6-.66,24.08.44,3.31.91,5.76,2.04,8.96l.47,1.29c1.33,3.64,2.57,6.06,5.22,8.94,2.58,3.11,5.46,5.09,9.43,6.11,3.46,1.25,7.68.76,11.15-.24,1.25-.3,2.38-.78,3.43-1.53,4.87-2.16,8.39-7.82,10.18-12.62,2.98-4.78,4.23-24.44,3.03-29.89ZM670.54,285.51c.24.93-.73,5.62-1.13,6.3-3.91,6.52-13.54,7.51-16.6-.51-.54-1.43-3.25-9.76-2.86-10.75l.89-.31c-.35-2.62-.57-5.25-.68-7.89-.33-8.72.35-20.44,6.46-27.07,2.96-2.61,5.27-2.4,8.61-.88l.37.25c1.37,1.62,1.95,2.24,2.84,4.16l.2.19c1.17.33,1.96.83,2.69,1.82.19,1.29-.5,3.52-.54,5.61l-.04.33c1.77,12.13.73,16.77-.67,28.19l.45.57Z"/>
  <path class="st2" d="M670.08,284.94l.45.57c.24.93-.73,5.62-1.13,6.3-3.91,6.52-13.54,7.51-16.6-.51-.54-1.43-3.25-9.76-2.86-10.75l.89-.31c.96,5.02,3.31,16.72,11.46,15.55,4.29-.61,6.7-7.03,7.78-10.85Z"/>
  <path class="st2" d="M668.64,248.99c1.17.33,1.96.83,2.69,1.82.19,1.29-.5,3.52-.54,5.61-.37-1.66-.57-2.65-1.18-4.24.02-.78-.66-2.38-.96-3.19Z"/>
  <path class="st2" d="M809.51,235.25c1.62-.05,11.18-.56,11.75.28,1.32,5.2,12,49.84,12.73,50.72.6-.82.71-1.61.96-2.61.21-3.01,4.36-20,5.33-23.22,1.08-6.86,4.48-18.19,6.14-25.23l12.81-.06c1.6,22.61,3.91,47,4.38,69.63l-10.72.07c-.19-8.24-.98-16.26-1.22-24.32-1.12-1.48-.46-14.5-1.83-17.56l-.44-.13c-.44,1.15-.71,1.97-1.49,2.95-.88,3.37-1.75,6.88-2.77,10.2-1.9,7.64-3.97,14.82-6.04,22.39-.46,2.06-1.17,4.27-1.78,6.31-2.72-.1-5.57-.1-8.3-.15-.62-2.21-2.23-7.72-2.48-9.73-1.45-4-2.88-10.59-4.05-14.86-1.43-5.24-3.45-11.61-4.21-16.84-.26-.39-.5-1.47-.64-1.98l-1.01-1.38-.47.16c-.35,1.61-.12,4.93-.79,5.69-.8,13.08-1.53,26.16-2.19,39.24l-10.79.03c.66-7.44,5.01-68.06,6.3-69.54l.83-.06Z"/>
  <path class="st2" d="M818.28,263.08c2.77,2.39,8.75,27.86,8.26,31.71-1.45-4-2.88-10.59-4.05-14.86-1.43-5.24-3.45-11.61-4.21-16.84Z"/>
  <path class="st2" d="M840.29,260.42c.84,1.37.42,4.76.05,6.31l-.1.41v-.92c-1.56,5.09-1.48,9.8-3.6,14.54-.75,1.68.44,4.44-1.39,6.01-.48-.53-.2-2.06-.29-3.13.21-3.01,4.36-20,5.33-23.22Z"/>
  <path class="st2" d="M839.1,298.36c-.2-.33-.49-.64-.5-1.03-.02-1.5,5.33-23.08,6.08-23.85.58.7.4,1.41.46,2.49-1.9,7.64-3.97,14.82-6.04,22.39Z"/>
  <path class="st2" d="M847.91,265.77c.3-2,1.75-10.46,2.71-11.61.57.84.39,1.53.44,2.7-.3,2.81-.04,7.55.1,10.44.01,2.98.76,11.07.52,13.21-1.12-1.48-.46-14.5-1.83-17.56l-.44-.13c-.44,1.15-.71,1.97-1.49,2.95Z"/>
  <path class="st2" d="M851.06,256.85c.45-1.17.49-1.52.4-2.77l.3-.42c.35,4.96.13,8.58.31,13.21l-.4.45-.51-.03c-.13-2.89-.39-7.64-.1-10.44Z"/>
  <path class="st2" d="M815.36,265.57c-.22-2.03.31-11.1.64-13.1.59,2.87,1.14,5.75,1.63,8.63l-1.01-1.38-.47.16c-.35,1.61-.12,4.93-.79,5.69Z"/>
  <path class="st2" d="M594.28,277.67c1.91,2.78.16,20.79,1.28,25.42.22.07.45.14.67.21,2.06.02,7.03.82,8.63.06.65-.86.82-1.6,1.28-2.09.06,1.28.13,1.88-.14,3.17-.95.67-10.08.38-11.89.36.08-8.9-.1-18.28.17-27.12Z"/>
  <path class="st2" d="M621.31,295.97c.09-.94-.03-1.52.51-2.07l.39.25c.33,1.56,1.7,8.38,2.28,9.33.84.14,1.67.3,2.5.48l.25.44c-1.1.05-2.86.07-3.89.21-.81-2.95-1.4-5.65-2.04-8.64Z"/>
  <path class="st2" d="M622.01,270.83l-.35-.58c.59-1.65,3.71-2.37,5.33-2.19-1.4,1.04-3.24,2.37-4.98,2.77Z"/>
  <path class="st2" d="M630.2,280.63c-1.59-5.19-3.56-6.84-8.01-9.1l-.19-.7c1.74-.4,3.58-1.73,4.98-2.77,5.33-4.24,7.3-10.79,6.47-17.37-2.47-19.53-25.28-16.73-39.23-14.9l-.07,28.81c0,2.07-.14,11.36.12,13.06-.27,8.84-.09,18.22-.17,27.12,1.8.02,10.93.31,11.89-.36.27-1.29.2-1.89.14-3.17.25-2.03.12-7.27.11-9.53v-16.46c14.32.2,12.64,8.98,15.06,20.7.64,2.99,1.23,5.69,2.04,8.64,2.2.4,10.36.24,12.86.22-2.94-7.43-3.68-16.58-6.01-24.19ZM616.71,264.69c-2.89,2.22-7.01,1.88-10.43,1.87-.13-6.41-.31-16.71,0-23.02-.02-1.01-.19-.91.3-1.53,1.48-.3,3,.14,3.97,1.27,3.32.45,6.47.66,8.61,3.64,3.61,5.03,2.5,13.97-2.45,17.77Z"/>
  <path class="st2" d="M606.28,243.53c-.02-1.01-.19-.91.3-1.53,1.48-.3,3,.14,3.97,1.27l-4.27.26Z"/>
  <path class="st2" d="M717.66,300.76l.51-.27c.81.53,1.15,1.78,1.64,2.82,1.47,1,7.73.69,9.65.38l-1.31-1.48c1.44-3.22-4.22-16.45-1.94-18.52,2.01,6.7,1.89,12.36,4.75,20.46l-.19.73h-11.84c-.45-1.35-.87-2.73-1.27-4.11Z"/>
  <path class="st2" d="M689.9,236.02c5.95-1.93,20.14-1.63,26.19.04-2.7.5-7.12-.23-7.85.35,0,.73.08.5-.2,1.12l-.49-.93c-.96-.6-3.12-.85-4.09-.28l-.05.99-.31-.14c-.07-.27-.25-1.02-.4-1.05-3.49-.63-9.05.45-12.8-.11Z"/>
  <path class="st2" d="M726.34,264.1l-.43-.79c1.05-3.7,1.66-6.85,1.76-10.73.06-2.36-1.53-6.34-.7-7.79,2.46,5,2.79,10.79.92,16.04-.46,1.32-.82,2.08-1.55,3.27Z"/>
  <path class="st2" d="M710.78,277.55l.59-.61c2.09.25,3.74,4.18,2.71,5.51-.86-2.02-1.86-3.29-3.29-4.9Z"/>
  <path class="st2" d="M726.2,283.69c-.28-1.63-.76-3.22-1.42-4.73-1.71-3.86-4.55-5.75-8.3-7.25,4.28-1.75,7.37-3.42,9.86-7.61.72-1.18,1.09-1.95,1.55-3.27,1.87-5.25,1.54-11.03-.92-16.04-1.57-4.2-6.7-7.63-10.88-8.74-6.05-1.67-20.24-1.97-26.19-.04.43,22.69-.12,45.95.07,68.7,3.85.04,7.7.05,11.55.02.06-9.52.15-19.76-.04-29.25,3.65.07,6.14-.04,9.3,2.06,1.43,1.62,2.43,2.88,3.29,4.9.79,3.47,2.67,16.09,3.58,18.32.4,1.39.82,2.76,1.27,4.13h11.84s.19-.74.19-.74c-2.86-8.1-2.74-13.76-4.75-20.46ZM701.5,266.64l-.03-23.07c6.3-.35,10.45-.59,14.18,5.15,1.43.79,1.51.87,2,2.55.68,2.31.88,6.85-1.66,7.99-2.08,7.35-8.27,7.44-14.48,7.37Z"/>
  <path class="st2" d="M715.64,248.72c1.43.79,1.51.87,2,2.55.68,2.31.88,6.85-1.66,7.99.9-4.37.92-6.24-.34-10.54Z"/>
  <path class="st2" d="M777.24,298.7l-.38.8-.37.12c-1.13-4.21-2.52-7.91-3.07-12.31-.24-1.87-.45-1.48.43-2.7,1.1,4.43,2.47,9.64,3.39,14.1Z"/>
  <path class="st2" d="M742.71,304.99c-.71-.27-.69-.17-1.19-.66,2.39-2.9,2.35-12.81,3.96-14.12.15.59.05,2.43.06,3.18-.49,2.57-1.73,9.53-2.83,11.59Z"/>
  <path class="st2" d="M735.11,289.6c1.11,1.61.06,6.41-1.06,7.73-.41-.37-.3-.22-.49-.79.37-2.34.89-4.66,1.56-6.94Z"/>
  <path class="st2" d="M739.54,271.27c1.15,1.22.44,4.16-.1,5.65l-.6.47-.34-.12-.28-.67c.38-1.77.87-3.58,1.33-5.34Z"/>
  <path class="st2" d="M777.24,298.7c-.92-4.46-2.28-9.67-3.39-14.1-.11-1.6-1.8-7.5-2.19-9.54-2.43-12.73-6.9-27.36-8.91-40.05l-14.42.13c-2.7,12.01-6.14,24.09-8.81,36.12-.45,1.76-.95,3.56-1.33,5.34-.6,2.33-2.86,10.97-3.1,13-.66,2.28-1.18,4.6-1.56,6.94-.51,1.95-1.35,6.3-2.6,7.61l-.19.73c2.57-.02,9.77-.22,11.94.12,1.1-2.07,2.34-9.03,2.83-11.59.62-2.44,1.2-4.71,1.71-7.18,5.14-.06,10.28-.07,15.42-.04,1.33,6.09,2.84,12.5,4.03,18.58,3.91,0,7.91-.04,11.81.02-.39-2.05-.76-4.04-1.26-6.08ZM748.75,277.41c1.64-7.43,3.32-16.76,5.11-23.88l.12-1.22c.29-1.35.53-3.1,1.27-4.19l.4.17c.58,1.97.78,4.01,1.11,6.03,1.26,7.76,2.97,15.43,4.36,23.16l-12.36-.08Z"/>
  <path class="st2" d="M753.85,253.53l-.74-.54c-.35-1.41-.28-2.13.68-3.23l.18,2.56-.12,1.22Z"/>
  <path class="st2" d="M872.03,280.97c1.28,2,.59,3.11.14,5.53-.23,1.25-1.26,5.58-1.69,6.59l.09-.75c-1,3.18-1.69,5.5-1.47,8.93.11,1.67.46,1.37-.38,2.42,1.91.18,6.59.76,8.42-.33.59-.35.66-1.27.73-1.91l.46-.27.27,1.51c-.21.94-.23,1-.64,1.88-1.19.56-9.53.2-11.5.15,1.95-7.18,3.71-16.23,5.58-23.76Z"/>
  <path class="st2" d="M899.74,297.04l.42-.89.29.03c.59,1.74,1.62,6.69,2.83,7.15,1.54.59,5.95.7,7.63.11.41-1.02-1.25-4.05.51-5.74.62,1.9,1.29,5.09,1.8,7.16-3.77-.18-8.12-.12-11.93-.15-.5-2.56-1.01-5.12-1.54-7.67Z"/>
  <path class="st2" d="M882.85,235.08c3.19,0,6.37.04,9.55.13-2.27,1.71-7.3-1.16-9.18,3.04-.62.3-.53.32-1.18.44l.81-3.61Z"/>
  <path class="st2" d="M882.02,238.88l.6.28c.28,1.86-.69,5.77-1.68,7.42l-.26-.12c-.02-.7-.03-1.28,0-1.98.48-1.67.87-3.79,1.34-5.59Z"/>
  <path class="st2" d="M911.42,297.71c-.59-4.56-3.56-15.7-4.71-20.67-3.15-13.99-6.37-27.97-9.68-41.93l-4.63.09c-3.18-.09-6.37-.13-9.55-.13l-.81,3.61-.02.19c-.47,1.8-.86,3.92-1.34,5.59-1.99,8.11-3.93,16.23-5.83,24.36-.78,3.31-2.33,8.98-2.82,12.14-1.88,7.52-3.64,16.58-5.58,23.76,1.97.05,10.32.41,11.5-.15.41-.87.43-.93.64-1.88,1.14-5.47,2.45-10.88,3.64-16.33,5.09.09,10.18.07,15.27-.06.7,3.55,1.38,7.23,2.24,10.74.53,2.55,1.04,5.11,1.54,7.67,3.81.03,8.16-.03,11.93.15-.51-2.06-1.18-5.26-1.8-7.16ZM883.23,277.1c-1.16-1.18.23-6.95,1.57-7.87l.45.73c.71-2.46,1.32-6.53,1.81-9.19.86-4.6,1.8-9.19,2.82-13.77,1.68,9.83,4.56,21.29,5.91,30.6-2.22.04-10.98.47-12.56-.5Z"/>
  <path class="st2" d="M883.23,277.1c-1.16-1.18.23-6.95,1.57-7.87l.45.73c-.4,1.91-.99,5.69-2.02,7.14Z"/>
  <path class="st2" d="M783.55,235.26h11.52l-.16,69.49-11.48.02c.44-16.01-.21-32.81.1-48.89.13-6.67-.35-14,.03-20.63Z"/>
  <path class="st2" d="M818.57,142.87c-2.48-11.41-9.81-20.56-22.37-19.77-6.73,1.95-11.14,5.15-14.51,11.47-9.45,17.67-9.46,64.12,19.34,62.62,21.49-5.46,21.37-36.75,17.55-54.32ZM798.98,187.53c-11.77-2.35-10.91-24.28-10.43-33.59.38-7.38,1.38-18.21,9.49-20.96,9.27,1.2,10.19,17.28,10.32,24.49.17,9.29.15,25.38-9.38,30.06Z"/>
  <path class="st2" d="M634.57,159.21l.83-.22c.41.93.37,5.26.43,6.54.15,3.21,4.26,18.56,3.71,20.2-4.31-7.18-4.98-18.31-4.96-26.52Z"/>
  <path class="st2" d="M669.51,128.16c-6.31-7.03-18.69-6.76-25.1.05-7.56,8.03-9.73,20.33-9.84,31-.02,8.22.64,19.34,4.96,26.52.87,2.05,1.36,2.58,2.69,4.28.58.7,1.2,1.47,1.8,2.14,3.05,2.94,7.79,5.26,12,5.34,17.52.24,22.03-21.26,22.43-34.98.33-11.16-1.18-25.69-8.94-34.35ZM657.51,187.61c-10.31-1.82-11.04-17.24-11.13-25.62-.1-9.48-.06-23.77,8.98-29.05,4.61.22,7.75,3.62,8.83,7.76,3.16,12.13,5.02,39.56-6.67,46.91Z"/>
  <path class="st2" d="M744.04,123.71c-3.68.17-7.62.29-11.27.56l.1,72.16c9.79.45,17.86,1.62,26.9-3.13,7.54-5.37,12.14-13.13,13.23-22.33,2.79-23.64.06-47.75-28.95-47.26ZM756.55,182.28c-2.34,2.96-8.44,6.89-12.1,4.38-.22-2.63-.27-5.22-.21-7.86.35-15.19-.36-30.55.07-45.72,9.21-.33,14.27,3.44,16.28,12.57,2.46,11.18,2.03,26.6-4.04,36.64Z"/>
  <path class="st2" d="M622.39,163.61c7.34,5.81,7.96,22.12,10.92,32.61l-11.8.11c-2.1-7.37-3.71-19.58-5.65-24.97l.43-.69c2.65,1.69,3.75,19.07,5.97,22.79,1.17-.53,1.49-.81,2.75-.57l.65,1.35c1.73.85,3.09.68,5.04.71l.22-.47c-2.87-3.96-.92-10.72-2.76-15.8-.87-2.39-.83-6.16-2.21-8.69-1.18-2.19-3.44-4.06-3.56-6.4Z"/>
  <path class="st2" d="M622.39,163.61l-1.69-1.59c1.64-2.02,4.31-3.54,6.19-5.32,3.88-3.66,4.78-11.19,4.22-16.23-2.23-19.95-23.09-17.14-37.24-15.79l.07,45.45c.01,7.68.3,18.82-.24,26.23l11.73-.02c.02-5.06-.37-25.54.17-29.17,1.03-.89,1.38-.81,3.09-.74,2.15.06,4.18.99,5.63,2.58.62.69,1.1,1.56,1.54,2.37,1.94,5.39,3.55,17.59,5.65,24.97l11.8-.11c-2.96-10.49-3.58-26.8-10.92-32.61ZM616.19,154.2c-3.82,3.46-5.98,3.25-10.86,3.21l.02-24.55c3.45-.11,6.56-.47,9.51,1.67,6.76,4.9,5.58,13.65,1.32,19.67Z"/>
  <path class="st2" d="M714.03,124l10.05-.04c.23,24.12.28,48.25.15,72.37l-10.62.08c-6.32-13.57-15.19-37.29-19.97-51.29.71,16.3.45,34.62.56,51.07l-10.6.24c.23-24.11.24-48.23.04-72.34l10.92-.13c6.73,17.51,14.12,34.93,20.36,52.6-.12-5.12-.76-10.48-.8-15.69-.09-12.29-.08-24.6-.09-36.88Z"/>
  <path class="st2" d="M825.59,123.94l10.47-.08c2.14,5.97,5.02,12.49,7.36,18.5l13.52,35.18c-1.79-17.06-1.15-36.17-1.19-53.56l10.13-.1c-.4,23.83.03,48.49-.04,72.39l-10.46.1c-5.23-14.26-12.73-31.77-18.43-46.16-1.99,3.16-.12,38.47-.91,45.5l-.45.49c-2.17.39-7.54.14-9.97.09.57-23.22.24-49.09-.04-72.37Z"/>
  <path class="st2" d="M834.71,145.26c1.44,1.41,1.98,2.94,2.26,4.96-1.99,3.16-.12,38.47-.91,45.5-.51-3.31-.22-8.35-.32-11.87-.31-10.7.67-23.49-.52-34.04.02-1.6-.26-2.98-.5-4.55Z"/>
  <path class="st2" d="M835.22,149.81c-.17,1.54-.12,4.39-.13,6.05-.73-1.95-2.27-9.14-1.25-10.9l.87.29c.24,1.57.52,2.96.5,4.55Z"/>
  <path class="st2" d="M925.2,149.4c-1.4-6.63-4.39-18.9-5.02-25.32l-13.95-.09c-1.18,7.2-3.21,15.47-4.77,22.68-3.57,16.6-7.3,33.17-11.17,49.71l11.76.08c1.13-6.13,2.42-12.54,3.39-18.68l14.37-.18c1.03,5.41,2.31,13.57,3.67,18.71,3.9.03,7.89.02,11.78.11-3.48-15.65-6.83-31.32-10.07-47.02ZM912.74,168.79l-5.76-.03c1.8-9.71,4.46-21.2,5.61-30.78.03.03.07.05.09.08.83,1.03,5.44,27.35,5.47,30.26-1.53.7-3.65.48-5.41.47Z"/>
  <path class="st2" d="M874.74,124l11.41.02c-.19,23.33.7,49.25-.14,72.19l-11.38.27c.71-23.89-.24-48.51.11-72.47Z"/>
  <path class="st2" d="M793.41,108.62c3.87-.21,8.38-1.38,10.8,1.79,2.48,2.84,6.15,7.14,8.82,9.72l-9.41.1c-1.21-1.29-4.69-5.37-5.67-6.21-1.06,2.2-3.16,4.2-4.85,6.01l-8.71.25c3.16-3.77,6.17-7.65,9.02-11.66Z"/>
  <path class="st2" d="M797.94,114.02c-.56-.1-.32.03-.71-.42,1.53-.63,1.68-.58,3.37-.61,1.59.95,1.77,1.3,3.35,1.1.71-2.04-.64-1.1.25-3.68,2.48,2.84,6.15,7.14,8.82,9.72l-9.41.1c-1.21-1.29-4.69-5.37-5.67-6.21Z"/>
  <path class="st2" d="M476.85,177.29c-1.52-6.13-3.36-8.73-8.05-12.65,5.85-4.52,9.37-7.55,10.54-15.2,1.64-10.71-4.67-21.3-15.97-22.23-6.95-.57-14.64-.27-21.67-.17.61,20.8-.16,41.89.08,62.72.03,2.79.04,5.76-.04,8.55,3.82.09,7.64.14,11.46.15-.06-9.57.22-19.97,0-29.43,3.48-.05,6.35-.04,9.09,2.56,4.1,3.9,5.29,15.47,6.37,21.39.4,1.75.79,3.63,1.29,5.35,3.77.04,8.24-.02,11.97.17-1.96-7.03-3.31-14.13-5.07-21.21ZM464.57,157.1c-3.56,3.19-7.03,3.12-11.51,3.28.1-8.08.12-16.15.04-24.23,3.47-.24,8.91-.65,11.62,1.85,5.31,4.9,4.06,14.12-.15,19.1Z"/>
  <path class="st2" d="M486.65,127.06h29.93c-.02,3.12-.1,6.28.11,9.41-6.18.12-12.59.03-18.79.04.04,6.74.04,13.47-.02,20.21,5.96-.07,11.93-.1,17.89-.11-.12,2.77.02,6.48.05,9.31-5.95-.04-11.9,0-17.85.09v15.71s-.07,6.54-.07,6.54c6.8.05,13.6.05,20.4,0-.05,3.33.02,6.88.04,10.23-10.2-.14-21.4-.27-31.56,0,.05-2.99.04-6.09-.01-9.09-.32-20.7.43-41.67-.11-62.34Z"/>
  <path class="st2" d="M399.3,126.84c10.99.56,26.53.09,37.79.05l.02,9.74-12.83.03c.39,15.43.12,32.47.05,47.98l.03,13.82c-3.77-.09-7.73-.04-11.52-.07l-.04-61.82-13.44.14c-.04-3.29-.06-6.58-.05-9.87Z"/>
  <path class="st2" d="M533.47,166.74c5.98.21,13.17,0,19.23-.03,9.27.07,18.54.06,27.82-.03.08,2.74.11,5.48.08,8.22-15.27-.36-31.79-.03-47.12,0v-8.17Z"/>
  <path class="st2" d="M477.89,284.32c-1.52-6.13-3.36-8.73-8.05-12.65,5.85-4.52,9.37-7.55,10.54-15.2,1.64-10.71-4.67-21.3-15.97-22.23-6.95-.57-14.64-.27-21.67-.17.61,20.8-.16,41.89.08,62.72.03,2.79.04,5.76-.04,8.55,3.82.09,7.64.14,11.46.15-.06-9.57.22-19.97,0-29.43,3.48-.05,6.35-.04,9.09,2.56,4.1,3.9,5.29,15.47,6.37,21.39.4,1.75.79,3.63,1.29,5.35,3.77.04,8.24-.02,11.97.17-1.96-7.03-3.31-14.13-5.07-21.21ZM465.61,264.13c-3.56,3.19-7.03,3.12-11.51,3.28.1-8.08.12-16.15.04-24.23,3.47-.24,8.91-.65,11.62,1.85,5.31,4.9,4.06,14.12-.15,19.1Z"/>
  <path class="st2" d="M487.69,234.09h29.93c-.02,3.12-.1,6.28.11,9.41-6.18.12-12.59.03-18.79.04.04,6.74.04,13.47-.02,20.21,5.96-.07,11.93-.1,17.89-.11-.12,2.77.02,6.48.05,9.31-5.95-.04-11.9,0-17.85.09v15.71s-.07,6.54-.07,6.54c6.8.05,13.6.05,20.4,0-.05,3.33.02,6.88.04,10.23-10.2-.14-21.4-.27-31.56,0,.05-2.99.04-6.09-.01-9.09-.32-20.7.43-41.67-.11-62.34Z"/>
  <path class="st2" d="M400.35,233.87c10.99.56,26.53.09,37.79.05l.02,9.74-12.83.03c.39,15.43.12,32.47.05,47.98l.03,13.82c-3.77-.09-7.73-.04-11.52-.07l-.04-61.82-13.44.14c-.04-3.29-.06-6.58-.05-9.87Z"/>
  <path class="st2" d="M534.52,273.77c5.98.21,13.17,0,19.23-.03,9.27.07,18.54.06,27.82-.03.08,2.74.11,5.48.08,8.22-15.27-.36-31.79-.03-47.12,0v-8.17Z"/>
</svg>