<?xml version="1.0" encoding="UTF-8"?>
<svg id="Camada_1" xmlns="http://www.w3.org/2000/svg" version="1.1" viewBox="0 0 2048 1536">
  <!-- Generator: Adobe Illustrator 30.3.0, SVG Export Plug-In . SVG Version: 2.1.3 Build 182)  -->
  <defs>
    <style>
      .st0 {
        fill: #085487;
      }

      .st1 {
        fill: #748a97;
      }

      .st2 {
        fill: #095689;
      }

      .st3 {
        fill: #054a7a;
      }

      .st4 {
        fill: #084e7e;
      }

      .st5 {
        fill: #1a597e;
      }

      .st6 {
        fill: #fefefc;
      }

      .st7 {
        fill: #125279;
      }

      .st8 {
        fill: #a4b1b9;
      }

      .st9 {
        fill: #0d568f;
      }

      .st10 {
        fill: #edf6f3;
      }
    </style>
  </defs>
  <path class="st7" d="M1426.5,145.69c2.79-3.15,5.9-5.11,10.18-5.22,22.12-.58,18.48,26.91,20.43,40.82,4.09,29.19,5.98,57.01,8.37,86.2.71,9.97,3.14,26.13,3.15,35.54.01,1.15-.01,2.31-.05,3.46,16.01.04,32.14.17,48.15-.32,25.29-.77,50.81-3.57,75.97-4.86,59.06-3.01,118.17-5.01,177.3-6,37.11-.86,74.49-1.6,111.38-.47,15.45,1.15,24.39,3.08,22.34,20.97,1.74,5.04-10.36,11.26-10.06,14.38,18.37,185.72,61.14,367.7,59.99,555.29-.11,16.63,3.63,44.35.7,59.48-4.43-15.44-7.05-36.88-9.92-53.47l-15.63-88.52c-2.25-13.09-3.99-28.46-6.55-41.17l-.75-3.63c-3.57-32.54-10.85-66.03-14.49-97.92-1.44-7.06-2.15-13.11-3.01-20.22-1.39-8.58-2.72-17.18-3.99-25.78-2.98-12.39-4.74-35.85-7.44-50.08-1.43-6.66-2.18-14.16-3.09-20.94-5.62-42.07-13.18-83.73-18.46-125.86-1.58-5.95-2.24-11.22-2.76-17.32-3.02-12.2-5.82-43.35-7.27-56.83-.93-4.19-1.71-10.64-2.39-15.05-19.05-1.7-40.1-1.64-59.61-2.89l-224.28-9.34c-32.6-1.63-65.57-2.51-97.97-6.33-2.53-.3-3.83-.07-5.87,1.24-1.46,5.99,3.12,81.57,5.24,86.01,3.42,2.42,49.71-.63,58.61-1.02,93.12-4.1,186.65-8.43,279.49.91,4.34.44,10.29,8.2,12.77,11.89,1.18,27.89,3.06,55.74,5.65,83.53.72,15.32,1.52,30.22,3.79,45.41,1.47,31.32,3.94,63.42,5.14,94.42,2.36,53.4,1.73,106.89-1.88,160.22,7.19-.08,14.96-.34,22.08.22,5.91,4.03,10.76,7.82,12.12,15.55.77,4.59-.41,9.3-3.27,12.98-1.32,1.75-2.86,3.32-4.57,4.69-6.52,3.83-70.63,1.17-82.97.88-30.35-.7-60.7-1.75-91.03-3.15-12.99-.54-32.1-.77-44.68-1.98l-99.3-9.67c-12.23-1.07-35.95-3.62-47.55-3.25-.02,37.45,2.57,75.84.31,113.57-.42,6.92.37,23.02-1.39,28.85-2.8-2.64-3.23-14.16-3.58-18.23l-1.47-11.77c-5.25-27.54-9.31-65.51-12.52-93.36-3.68-31.95-8.55-69.13-10.8-101.06l.07-.84c-1.36-6.26-2.06-20.61-2.83-27.99-2.98-29.59-5.6-59.21-7.85-88.86l-13.48-165.23c-1.71-22.56-4.03-42.82-5.14-65.85-.7-2.08-2.66-26.73-3-30.65-.76-14.33-2.89-28.37-4.13-42.67-2.22-25.55-3.66-51.98-6.71-77.41l-5.64-50.53c-1.26-11.22-4.63-17.75,1.44-27.4l2.71-3.37Z"/>
  <path class="st6" d="M1814.31,636.32c-.3,26.5,21.62,140.81,17.58,155.5-8.32,1.32-26.99,1.84-35.94,2.36-31.11,1.8-62.25,2.45-93.44,3.91-49.76,2.55-99.55,4.63-149.36,6.24-15.73.44-31.78,1.35-47.53,1.84-3.3.1-3.51-.48-5.09-2.28-1.03-18.06-.61-34.64-1.21-52.37-.92-24.16-2.18-48.31-3.79-72.44-1.65-28.69-20.56-269.93-17.9-278.07,6.83-.66,60.08,4.77,70.5,5.62l147.59,13c28.52,2.62,57.53,5.89,86.08,7.63l12.28,1.45c.47,4.63.73,9.11,1.95,13.59l12.18,135.74c1.88,19.32,3.36,39.16,6.1,58.3Z"/>
  <path class="st2" d="M1426.5,145.69c6.03-3.99,16.02-5.48,21.34.47,5.69,5.99,7.09,11.76,6.69,19.88-.59,12.24,2.37,23.49,3.55,35.93l6.82,77.54c7.2,84.32,12.04,168.88,19.19,253.21,1.16,13.57,2.21,27.63,2.71,41.23,1.74,8.26.41,8.39.88,15,2.76,14.05,2.65,46.56,3.99,62.46,7.09,83.78,7.94,168.9,7.84,253.02.11,7.21,1.53,28.7-1.45,33.24-1.64-1.02-1.49-2.49-2.21-4.97l-1.47-11.77c-5.25-27.54-9.31-65.51-12.52-93.36-3.68-31.95-8.55-69.13-10.8-101.06l.07-.84c-1.36-6.26-2.06-20.61-2.83-27.99-2.98-29.59-5.6-59.21-7.85-88.86l-13.48-165.23c-1.71-22.56-4.03-42.82-5.14-65.85-.7-2.08-2.66-26.73-3-30.65-.76-14.33-2.89-28.37-4.13-42.67-2.22-25.55-3.66-51.98-6.71-77.41l-5.64-50.53c-1.26-11.22-4.63-17.75,1.44-27.4l2.71-3.37Z"/>
  <path class="st4" d="M1441.83,377.72c2,1.66,3.31,2.43,3.7,5.2,1.22,8.69,1.11,17.88,1.96,26.66,2.41,24.98,5.6,49.87,7.38,74.91.86,12.2.54,24.48,1.56,36.68,2.06,24.61,22.36,194.83,15.12,203.98-.13.17-.28.32-.42.48-1.36-6.26-2.06-20.61-2.83-27.99-2.98-29.59-5.6-59.21-7.85-88.86l-13.48-165.23c-1.71-22.56-4.03-42.82-5.14-65.85Z"/>
  <path class="st4" d="M1447.84,146.16c5.69,5.99,7.09,11.76,6.69,19.88-.59,12.24,2.37,23.49,3.55,35.93l6.82,77.54c7.2,84.32,12.04,168.88,19.19,253.21,1.16,13.57,2.21,27.63,2.71,41.23-.39,4.75-.26,11.94-.32,16.89-5.2-20.93-3.86-51.9-5.57-73.89l-17.13-197.29c-1.34-16.63-6.7-122.48-11.03-131.64-6-12.7,1.48-26.83-5.94-39.56-.17-.3-.36-.6-.54-.9l1.57-1.39Z"/>
  <path class="st4" d="M1487.68,588.95c2.76,14.05,2.65,46.56,3.99,62.46,7.09,83.78,7.94,168.9,7.84,253.02-.96,3.16-1.08,15.13-1.3,19.2.37-12.83-1.87-20.89-2.66-32.28-.21-2.92,1.52-10.18,1.03-18.72-1.01,2.26-.09,7.07-1.16,11.36-2.7-3.61-1.1-112.76-.97-122.99.14-11.22-3.25-41.22-2.75-51.83,1.69-35.16-7.17-70.7-6.09-104.84.53,1.46,1.34,16.2,1.51,18.81,1.17-10.46-1.77-20.51.56-34.2Z"/>
  <path class="st4" d="M1423.79,149.05c.46.73,1.37,2.06,1.39,2.97.5,21.8,4.91,43.08,6.64,64.8,2.9,36.38,5.16,72.64,9.69,108.88.71,5.61,1.93,15.7.96,20.83l-1.28,1.19-2.36-.65c-.76-14.33-2.89-28.37-4.13-42.67-2.22-25.55-3.66-51.98-6.71-77.41l-5.64-50.53c-1.26-11.22-4.63-17.75,1.44-27.4Z"/>
  <path class="st4" d="M1471.06,726.49c6.08,3.06,8.28,11.91,6.62,17.86-2.92,10.49,2.73,22.67,3.06,32.19.7,20.46,20.25,134.16,13.64,144.37-5.25-27.54-9.31-65.51-12.52-93.36-3.68-31.95-8.55-69.13-10.8-101.06Z"/>
  <path class="st0" d="M1798.99,325.28c8.96-.35,54.41.1,58.34-.88-13.96-3.11-26.14-2.73-40.29-3.43-63.7-3.13-127.23-5.55-190.98-8.88-32.12-1.4-64.26-2.3-96.41-2.67,7.39-1.97,16.82-.79,24.5-.93,17.33-.31,34.78-.54,52.09-1.16,47.55-1.68,95.13-5.56,142.69-7.43,15.83-.62,138.78-3.02,145.85,1.71,2.86,1.91,5.32,5.49,5.74,8.92.54,4.49-1.84,9.06-4.66,12.39-2.02,2.38-4.2,4.65-6.35,6.92-.01,5.45-.94,18.25,2.08,21.79l1.3.11c1.34-2.3.87-3.66.57-6.34-.05,3.79,1.07,5.92,1.08,8.84,1.24,4.67,3.56,30.08,4.22,36.37,2.51,23.78,5.9,46.68,9.12,70.32,3.75,22.92,6.6,46,10.31,68.94.27,1.69,2.23,12.08,2.14,13.12l.57,6.36c.71,2.48,2.64,12.92,2.18,15.27l1.03,3.21c.36,3.13,1.96,17.74,3.1,20.09.7,11.91,3.42,26.97,5.12,38.98,2.44,17.58,4.67,35.18,6.68,52.82,1.17,9.84,2.72,18.46,2.83,28.41,6.99,37.26,1.1,84.12,5.17,122.55,1.17,11.02-1.1,23.2,1.94,33.94,1.08,4.63,1.64,16.57-1.16,20.51-3.08-3.01-15.17-95.59-18.41-107.8-1.6-6,.67-15.91-5.37-19.55-1.37,1.73-1.22,1.79-1.76,3.97l-.75-3.63c-3.57-32.54-10.85-66.03-14.49-97.92-1.44-7.06-2.15-13.11-3.01-20.22-1.39-8.58-2.72-17.18-3.99-25.78-2.98-12.39-4.74-35.85-7.44-50.08-1.43-6.66-2.18-14.16-3.09-20.94-5.62-42.07-13.18-83.73-18.46-125.86-1.58-5.95-2.24-11.22-2.76-17.32-3.02-12.2-5.82-43.35-7.27-56.83-.93-4.19-1.71-10.64-2.39-15.05-19.05-1.7-40.1-1.64-59.61-2.89Z"/>
  <path class="st3" d="M1871.02,417.37c.15-2.93.32-5.87.54-8.8,4.17,5.22,24.71,138.27,23.67,153.25-1.06,1.59-.95,1.52-2.66,2.35-1.43-6.66-2.18-14.16-3.09-20.94-5.62-42.07-13.18-83.73-18.46-125.86Z"/>
  <path class="st4" d="M1907.05,641.34c4.08,8.66,18.72,105.49,17.42,115.03-1.22,1.42-1.15,1.3-2.97,1.81-3.57-32.54-10.85-66.03-14.49-97.92.62-6.96.34-12,.04-18.92Z"/>
  <path class="st3" d="M1941.5,718.85c-1.16-3.65-6.9-40.77-6.6-44,1.21-12.74-12.34-79.99-9.59-86.7l1.9-.21c.7,11.91,3.42,26.97,5.12,38.98,2.44,17.58,4.67,35.18,6.68,52.82,1.17,9.84,2.72,18.46,2.83,28.41-.3,3.03-.27,7.53-.34,10.69Z"/>
  <path class="st4" d="M1894.54,354.26c1.24,4.67,3.56,30.08,4.22,36.37,2.51,23.78,5.9,46.68,9.12,70.32-.13,3.27.35,5.66-1.29,7.94-2.86-1.76-16.59-106.27-12.05-114.64Z"/>
  <path class="st4" d="M1860.99,343.22c.32-4.36.24-12.41.63-15.72.5.65,4.74,16.88,6,20.34-2.49,12.4,7.98,45.17.64,52.22-3.02-12.2-5.82-43.35-7.27-56.83Z"/>
  <path class="st3" d="M1900.41,588.94c2.19,10.1,7.69,39.26,6.12,48.43-1.31,1.81-.78,1.41-2.53,2.66-1.39-8.58-2.72-17.18-3.99-25.78.77-8.94-.35-16.47.4-25.31Z"/>
  <path class="st3" d="M1920.9,549.37c-.27,2.94-.11,8-.12,11.11l-.83-.02c-.76-5.65-3.79-12.53-1.64-17.75l2.02.29.57,6.36Z"/>
  <path class="st3" d="M1924.11,567.85c-.3,2.29-.37,6.97-.49,9.46l-.73.17c-1.52-4.34-2.16-8.8.19-12.84l1.03,3.21Z"/>
  <path class="st0" d="M1781.8,427.24c2.85-.07,9.49.12,11.7-1l.41-1.11c-.49-.48-.97-.97-1.45-1.45-12.46-.97-24.92-1.97-37.37-3.1l-91.9-8.48c-22.17-2.26-44.07-5.74-66.34-5.89,3.28.02-26.64-7.09-23.49-5.8,15.94.08,29.45-1.85,45.17-2.67,24.14-1.07,48.3-1.55,72.46-1.47,27.14.23,54.28.8,81.4,1.72,13.12.5,27.57,2.76,40.3,2.12,3.97,4.4,5.12,5.89,10.05,9.09.47,7.49.43,14.88.82,22.3,1.57,29.56,5.42,58.74,7.09,88.41l1.05.46c1.29-7.36-.47-18.94.93-28.23.72,15.32,1.52,30.22,3.79,45.41l-3.7-1.12c-1.65,12.57,1.49,34.64,1.99,48.03,1.97,52.64,7.75,105.16.8,157.78-1.1,8.38,1.26,17.65.08,24.62-3.42-1.86-32.75-264.33-31.25-289.54.34-5.56-6.29-46.68-7.19-48.68-1.11,3.39-.92,9.6-1.12,13.63-1.22-4.48-1.48-8.96-1.95-13.59l-12.28-1.45Z"/>
  <path class="st4" d="M1796.03,442.28c.2-4.03.01-10.24,1.12-13.63.9,2.01,7.53,43.12,7.19,48.68-1.5,25.22,27.83,287.69,31.25,289.54,1.18-6.97-1.18-16.24-.08-24.62,6.95-52.62,1.17-105.14-.8-157.78-.5-13.39-3.64-35.47-1.99-48.03l3.7,1.12c1.47,31.32,3.94,63.42,5.14,94.42,2.36,53.4,1.73,106.89-1.88,160.22,7.19-.08,14.96-.34,22.08.22,5.91,4.03,10.76,7.82,12.12,15.55.77,4.59-.41,9.3-3.27,12.98-1.32,1.75-2.86,3.32-4.57,4.69-25.1-1.41-55.83.31-82.4-.6l-72.42-2.91c-48.6-1.82-96.48-4.62-144.76-10.66-6.69-.84-41.32-2.42-44.74-3.91,2.13.17,1.69.1,3.73-.15,13.54-1.65,29.78-1.58,43.48-1.82,20.05-.36,40.1-1,60.13-1.92l151.16-6.52c17.62-.68,36.98-2.91,54.27-2.68v-1.14c.18-12.15-18.55-155.18-20.18-157.04-2.74-19.14-4.22-38.98-6.1-58.3l-12.18-135.74Z"/>
  <path class="st0" d="M191.8,302.97c2.44-1.35,4.56-1.96,7.39-1.97,80.48-.39,161.02-.34,241.5.5,17.01.18,34.28,2.23,51.32,2.69,42.78,1.33,85.42,3.66,128.15,6.07,5.52.31,10.98.34,16.43,1.33l.93,1.02c-3.65,3.64-118.09,8.98-134.35,10.32-61.66,5.05-124.83,6.84-186.65,8.92-21.26.71-42.53,1.25-63.8,1.61-7.99.16-36.68-.5-41.72,3.07-.44,4.34-1.08,12.88-1.93,16.81-.06,8.71-2.39,24.68-3.51,33.97-2.76,22.8-5.72,45.57-8.89,68.32-2.87,21.25-6.48,60.83-10.94,80.58-1.05,9.82-3.43,27.86-5.71,37.25-1.49,9.92-4.93,41.42-7,48.68-3.6,29.74-9.47,59.51-13.9,89.16-.55,3.68-1.14,8.74-2.09,12.25.03,3.23-6.46,43.66-7.22,48.74-8.05,51.71-16.43,103.37-25.15,154.98-1.15,6.8-3.05,26.31-4.98,31.3-2.35-4.84-.68-33.46-.44-40.56,2.28-70.53,7.5-140.94,15.66-211.04,4.34-39.92,10.16-81.29,14.18-121,.17-4.7,2.77-22.69,3.81-27.35l-.04-.67c-.04-4.61,3.35-29.18,4.16-34.14.46-8.11,2.67-23.22,3.54-31.99,1.4-5.24,2.64-18.29,3.41-24.33-.09-1.26.27-5.19.38-6.66,4.14-25.03,4.59-51.04,8.64-75.99-.06-14.05,2.84-30.19,3.32-44.48.34-10.16.68-21.09,7.2-29.3.98-1.63,2.41-2.83,3.78-4.21l4.54-3.88Z"/>
  <path class="st7" d="M149.07,585.97c3.51,2.08,5.01,8.6,7.6,13.05-1.72,3.98-6.47,3.15-6.51,6.72-.3,26.47-6.77,51.73-7.13,78.26-.08,5.84-2.21,10.03-3.45,15.6-.96,4.72,5.18,11.68.21,15.81-1.47,1.5-2.13,4.06-2.27,6.01-1.64,22.62-3.59,45.71-4.12,68.34-.24,10.35-6.94,37.76-3.94,45.99l1.49.32c2.54-2.84,2.75-3.47,4.2-7.03-1.3-4.9-4.75-3.79-4.22-5.64,3.27-11.49,9.67-18.79,10.59-31.46.6-8.34-4.07-19.22-2.62-23.94,3.74-1.91,5.53,1.83,6.55-3.14,2-9.78,3.39-21.17,4.74-30.98-2.83-4.3-3.58-3.96-2.93-8.25,5.29-3.63,6.19-.53,8.07-10.1.6-3.04.74-6.38.93-9.52l1.04.53c-.69,5.66-1,11.32-.29,17.01.03,3.23-6.46,43.66-7.22,48.74-8.05,51.71-16.43,103.37-25.15,154.98-1.15,6.8-3.05,26.31-4.98,31.3-2.35-4.84-.68-33.46-.44-40.56,2.28-70.53,7.5-140.94,15.66-211.04,4.34-39.92,10.16-81.29,14.18-121Z"/>
  <path class="st1" d="M191.8,302.97c2.44-1.35,4.56-1.96,7.39-1.97,80.48-.39,161.02-.34,241.5.5,17.01.18,34.28,2.23,51.32,2.69,42.78,1.33,85.42,3.66,128.15,6.07,5.52.31,10.98.34,16.43,1.33l.93,1.02c-3.65,3.64-118.09,8.98-134.35,10.32-61.66,5.05-124.83,6.84-186.65,8.92-21.26.71-42.53,1.25-63.8,1.61-7.99.16-36.68-.5-41.72,3.07-.11-1.12.18-1.45.54-2.66,6.47-3.15,56.24-1.27,68.14-2.71,25.55.02,54.8-1.92,80.7-2.85,33.42-1.2,69.49-1.8,102.64-4.43,6.79-.22,15.14-1.15,22.02-1.72-3.9-.19-6.95.06-10.36-1.69,3.13-3.98,29.92-.37,40.13-5.64l-.17-1.28c-7.13-3.89-31.72-3.92-41.57-6.38.93-.97,7.05-1.08,8.98-1.24-6.71-.86-18.01-1.3-24.88-1.61-11.22-1.39-27.69-1.32-39.27-1.46l-64.38-.41c-50.08-.2-112.21-1.52-161.7.51Z"/>
  <path class="st7" d="M482.02,305.94c14.06.26,137.95,4.74,141.42,7.24-45.33,3.12-93.24,7.1-138.43,8.98-3.9-.19-6.95.06-10.36-1.69,3.13-3.98,29.92-.37,40.13-5.64l-.17-1.28c-7.13-3.89-31.72-3.92-41.57-6.38.93-.97,7.05-1.08,8.98-1.24Z"/>
  <path class="st4" d="M191.8,302.97c49.48-2.03,111.62-.71,161.7-.51l64.38.41c11.58.14,28.05.07,39.27,1.46-4.18,2.93-4.96,2.5-10.73,2.6-3.52,4.51,1.48,3.35-3.57,6l-1.52-.5c.05-2.83-.26-1.47,1.26-4.15-10.36-3.87-71.84-1.85-88.16-1.9l-86.21-.27c-15.53-.11-66.06-2.05-78.67,2.07l-2.27-1.33,4.54-3.88Z"/>
  <path class="st3" d="M279.65,331.16c-3.67-.76-16.64-.34-20.93-.33-15.1.02-30.18.9-45.29-.1l.35-.61c20.36-4.05,37.73-1.72,57.98-2.57l141.88-5.36c15.56-.51,37.82.24,52.27-.96l-2.92,2.66c-33.15,2.63-69.23,3.23-102.64,4.43-25.9.93-55.15,2.87-80.7,2.85Z"/>
  <path class="st4" d="M185.71,536.21c-3.08-2-1.98-.69-3.4-4.08,1.11-12.32,11.12-93.51,13.08-96.19,3.19-4.37,5.34-58.68,6.89-69.26.76-5.16,4.96-11.01,4.47-16.16-.32-3.34-.32-6.65-.37-10.01l1.45-.87-.04-.41c.86,2.11,1.09,11.15,1.27,14.11-.06,8.71-2.39,24.68-3.51,33.97-2.76,22.8-5.72,45.57-8.89,68.32-2.87,21.25-6.48,60.83-10.94,80.58Z"/>
  <path class="st4" d="M183.48,311.05l2.15,1.9c.22,4.19-3.34,6.98-3.19,9.13.94,13.53-8.34,75.19-6.41,82.8l-.89,1.57c-3.27-3.77-1.23-15.47-2.17-21.6-.06-14.05,2.84-30.19,3.32-44.48.34-10.16.68-21.09,7.2-29.3Z"/>
  <path class="st4" d="M172.96,591.41c.43-4.54,3.61-24.19,5.34-27.11,1.83,2.21,1.54,6.09,1.7,9.16-1.49,9.92-4.93,41.42-7,48.68l-2.22-1.21c-2.6-4.96.16-13.77,1.4-19.39.63-2.28.67-7.53.78-10.12Z"/>
  <path class="st4" d="M160.54,491.82c2.29,1.71,2.78,1.34,3.18,4.29.85,6.21-3.69,45.05-6.16,48.14-1.26-7.5.48-13.7-.56-20.44.46-8.11,2.67-23.22,3.54-31.99Z"/>
  <path class="st3" d="M164.33,460.83c6.95,4.2,4.25,15.17.71,21.02-.86-4.25-.6-9.82-1.09-14.36-.09-1.26.27-5.19.38-6.66Z"/>
  <path class="st3" d="M152.83,557.95l2.44-.41c2.46,3.92,1.52,11.3-1.32,14.95-1.48-4.01.01-8.77-1.07-13.86l-.04-.67Z"/>
  <path class="st7" d="M172.18,601.53c-2.34.85-3.58,1.22-5.56-.22.36-3.79,3.65-6.7,6.34-9.9-.11,2.59-.15,7.85-.78,10.12Z"/>
  <path class="st9" d="M188.31,426.97c1.81-.09,3.54.03,5.35.1,2.68,2.47,1.82,1.82,2.34,6.57h-2.21c-2.84-1.35-3.8-3.84-5.49-6.66Z"/>
  <path class="st4" d="M179.91,540.27l2.14,1.15c1.29,3.08.6,7.43.39,10.96l-1.78-1.12c-1.48-3.7-.94-6.94-.75-10.99Z"/>
  <path class="st5" d="M297.92,307.3c4.93.73,4.62,1.57,6.29,5.88-2.6.34-2.46.3-5.03-.28-1.9-2.73-1.35-1.67-1.26-5.61Z"/>
  <path class="st3" d="M158.34,688.67c.83.72.97,1.27,1.55,2.3.18,4.86.02,5.57-1.33,10.27-2.04-3.24-.73-8.62-.22-12.56Z"/>
  <path class="st2" d="M284.32,309.36c.59-.8,1.57-1.23,2.56-1.11.99.12,1.84.76,2.23,1.68.39.92.25,1.98-.36,2.77-.93,1.21-2.66,1.44-3.87.52-1.22-.92-1.47-2.64-.56-3.87Z"/>
  <path class="st0" d="M273.45,415.91c.39-6.3,7.48-11.89,13.04-12.29,22.48-1.63,48.15-.55,70.48-.08,69.21.88,138.39,3.82,207.42,8.83,14.11.98,31.75,1.88,45.51,4.25-11.07,2.96-24.77,3.8-36.33,4.93-16.92,1.8-33.87,3.39-50.83,4.76-72.61,6.36-145.39,10.57-218.24,12.64-.8,18.36-4.15,41.64-6.17,60.27-6.16,60.98-15.22,121.62-27.16,181.74-.88,4.65-5.13,28.86-7.05,30.98-2.81,10.11-20.62,91.83-19.45,93.99,4.54-.06,10.31-5.49,12.42-5.93,10.53-2.17,33.07.17,43.86.44,85.06,1.31,170.04,5.58,254.81,12.82,11.35.98,41.21,2.31,50.44,5.77-3.23,2.11-70.28,3.86-80.99,4.63-89.06,6.43-178.61,8.91-267.93,10.27-3.38-1.99-7.14-4.35-9.5-7.1-1.51-2.41-6.76-18.74-6.61-20.49,4.63-53.4,6.59-109.77,13.74-162.72-.28-4.22.4-7.79,1-11.94-.37-5.67,1.39-23.96,1.9-30.19l5.42-64.5c1.64-22.33,3.06-44.68,4.27-67.03.8-16.58-.55-39.3,5.93-54.05Z"/>
  <path class="st5" d="M262.29,687.48l1.16.25c-.53,2.41-.95,3.42-.43,5.86l1.6.54c2.15-2.79.49-10.84,1.5-14.61,5.39-20.05,7.73-41.11,9.27-61.97,7.52-3.85,4.47-19.96,6.68-26.8,2.58-7.99,9.91-98.14,12.89-101.77,1.59,2.5,1.23,8.14,1.29,11.41-2.48,57.09-16.12,117.75-25.12,174.32-1.38,8.66-7.85,29.44-7,37.23-2.81,10.11-20.62,91.83-19.45,93.99,4.54-.06,10.31-5.49,12.42-5.93,10.53-2.17,33.07.17,43.86.44,85.06,1.31,170.04,5.58,254.81,12.82,11.35.98,41.21,2.31,50.44,5.77-3.23,2.11-70.28,3.86-80.99,4.63-89.06,6.43-178.61,8.91-267.93,10.27-3.38-1.99-7.14-4.35-9.5-7.1-1.51-2.41-6.76-18.74-6.61-20.49,4.63-53.4,6.59-109.77,13.74-162.72.9,9.06.68,19.96.74,29.22l.85-2.23c.15,1.65.41,2.25.05,3.76.6,6.74,1.03,8,5.73,13.1Z"/>
  <path class="st9" d="M262.29,687.48c.68,6.61-.4,12.21-3.11,18.4-6.25-5.3-4.45-24.15-2.62-31.5.6,6.74,1.03,8,5.73,13.1Z"/>
  <path class="st0" d="M249.35,806.87c2.26-2.74,5.54-5.29,9.14-5.41,14.97-.51,30.82.41,45.76.88,31.56.88,63.11,1.91,94.66,3.1,11.25.41,58.17,1.22,65.45,2.98,4.35.31,8.7.69,13.04,1.15-2.05.89-2.49.73-4.74.98,4.48,2.12,9.29,3.46,14.22,3.96-1.67,1.57-2.87,2.5-4.66,3.87,1.71,1.76,2.13,1.58,4.57,2.51l.71.96-1.52.49c-3.06-1.59-66.04,3.42-74.12,2.59-.54-.05-4.68,3.14-5.73,3.16-7.22,1.28-16,.37-23.27.42-16.71-.48-120.3,6.03-126.5,2.68-.32-.17-.62-.37-.94-.54-6.04-3.32-7.68-6.02-10.07-12.23.12-6.01-.27-7.4,4.01-11.54Z"/>
  <path class="st3" d="M249.35,806.87c2.26-2.74,5.54-5.29,9.14-5.41,14.97-.51,30.82.41,45.76.88,31.56.88,63.11,1.91,94.66,3.1,11.25.41,58.17,1.22,65.45,2.98-8.77,5.98-122.78-3.71-138.18-2.54-1.55.12-8.17.1-10.16.15-.65-.29-1.39-.29-2.04,0-8.89-.57-52.61-2.77-58.22.22-1.07.57-.52.34-1.73.8-2.43.92-2.34.85-4.67-.19Z"/>
  <path class="st7" d="M245.33,818.42l1.38-3.69c2.33,2.12,7.47,12.27,9.76,12.81,18.71,4.38,115.11-6.81,126.37.97-16.71-.48-120.3,6.03-126.5,2.68-.32-.17-.62-.37-.94-.54-6.04-3.32-7.68-6.02-10.07-12.23Z"/>
  <path class="st2" d="M313.97,806.04c.65-.29,1.39-.3,2.04,0,1.07.48,1.66,1.64,1.42,2.78-.24,1.15-1.25,1.97-2.42,1.97s-2.19-.81-2.44-1.95c-.25-1.15.33-2.31,1.4-2.79Z"/>
  <path class="st2" d="M495.77,815.27c3.98-.3,12.58-1.58,15.47.33l.33,2.19c-7.64,2.58-11.89,5.01-15.79-2.52Z"/>
  <path class="st7" d="M520.2,814.03c2.8-.39,28.1.51,32.98.55l-1.17.43c-10.13-.28-14.06.58-24.07,2.38-3.88.69-4.85-1.04-7.74-3.35Z"/>
  <path class="st4" d="M273.45,415.91c.39-6.3,7.48-11.89,13.04-12.29,22.48-1.63,48.15-.55,70.48-.08,69.21.88,138.39,3.82,207.42,8.83,14.11.98,31.75,1.88,45.51,4.25-11.07,2.96-24.77,3.8-36.33,4.93-16.92,1.8-33.87,3.39-50.83,4.76-72.61,6.36-145.39,10.57-218.24,12.64-.8,18.36-4.15,41.64-6.17,60.27-6.16,60.98-15.22,121.62-27.16,181.74-.88,4.65-5.13,28.86-7.05,30.98-.85-7.79,5.63-28.58,7-37.23,9-56.57,22.64-117.23,25.12-174.32.9-5.93,1.34-11.11,1.83-17.1-4.36-5.63,1.12-40.05,1.99-49.23,12.57-2.97,41.88-1.54,55.31-2.52,48.03-3.5,96.57-3.23,144.23-10.24,5.11-.75,21.41-1.51,24.29-2.6-14.18-7.53-130.47-7.98-152.14-7.95-3.3,0-12.95-2.76-15.43-2.42-7.72,1.05-16.32,2.8-24.06,4.07l-.08-.54,4.41.07.08-.94c-7.7-3.08-47.44-4.71-53.37-.56.3,2.23.57,2.77,1.3,4.86-1.81,3.19-10.56,2.2-10.97,11.43-1.9,42.07-2.5,84.64-6.38,126.6-2.12,22.95-5.76,45.79-6.32,69.02-.2,8.49-2.4,16.95-2.45,25.94-1.36,1.52-1.68,2.13-2.3,4.07.03-5.24.5-16.05-.25-20.67-.37-5.67,1.39-23.96,1.9-30.19l5.42-64.5c1.64-22.33,3.06-44.68,4.27-67.03.8-16.58-.55-39.3,5.93-54.05Z"/>
  <path class="st8" d="M273.45,415.91c.39-6.3,7.48-11.89,13.04-12.29,22.48-1.63,48.15-.55,70.48-.08,69.21.88,138.39,3.82,207.42,8.83,14.11.98,31.75,1.88,45.51,4.25-11.07,2.96-24.77,3.8-36.33,4.93-16.92,1.8-33.87,3.39-50.83,4.76-72.61,6.36-145.39,10.57-218.24,12.64-.8,18.36-4.15,41.64-6.17,60.27-6.16,60.98-15.22,121.62-27.16,181.74-.88,4.65-5.13,28.86-7.05,30.98-.85-7.79,5.63-28.58,7-37.23,9-56.57,22.64-117.23,25.12-174.32.9-5.93,1.34-11.11,1.83-17.1,1.68-6.83,4.64-38.67,5.08-46.17l121.53-5.07c17.4-.68,159.59-10.93,164.32-16.03-1.34-.43-33.92-2.41-37.51-2.69-74.85-5.82-149.88-6.22-224.88-8.62-13.4-.43-27.77-1.01-41.03.65-5.41.69-9.46,6.28-12.14,10.55Z"/>
  <path class="st0" d="M635.9,517.68c-.12-13.06,1.89-26.43,2.01-39.42.27-28.79,3.34-57.61,4.79-86.18,4.07-80.22,9.87-160.32,14.9-240.47.39-6.31,9.84-15.96,16.58-14.73,9.12.96,13.03,6.9,17.39,13.73-.05,12.83-2.14,24.22-3.2,36.9-1.29,15.43-2.25,30.99-3.28,46.45l-14.81,221.05c-6.98,129.08-16.02,258.05-27.12,386.84l-7.96,83.91c-1.29,12.56-2.02,29.02-5.18,40.96l-.93.85c-1.69-10.05-1.55-30.08-1.73-40.75-.52-22.48-.82-44.96-.91-67.45-.26-53.97.42-107.94,2.03-161.88.61-40.12,1.95-80.24,4.02-120.31,1.14-18.55,1.31-41.69,3.41-59.49Z"/>
  <path class="st4" d="M635.9,517.68c-.12-13.06,1.89-26.43,2.01-39.42.27-28.79,3.34-57.61,4.79-86.18,4.07-80.22,9.87-160.32,14.9-240.47.39-6.31,9.84-15.96,16.58-14.73,9.12.96,13.03,6.9,17.39,13.73-.05,12.83-2.14,24.22-3.2,36.9-1.29,15.43-2.25,30.99-3.28,46.45l-14.81,221.05c-6.98,129.08-16.02,258.05-27.12,386.84l-7.96,83.91c-1.29,12.56-2.02,29.02-5.18,40.96l-.93.85c-1.69-10.05-1.55-30.08-1.73-40.75-.52-22.48-.82-44.96-.91-67.45-.26-53.97.42-107.94,2.03-161.88.61-40.12,1.95-80.24,4.02-120.31l3.07-1.49c3.28,3.54-3.86,126.62-3.64,142.23.43,30.5-1.71,64.68-.1,95.53.11,8.52-1.28,35.95.15,43l1.15-3.01,1.73-.3,1.74,2.24-.35-.81c3.22-3.14,5.06-71.06,6.84-82.09.43-2.68-.62-2.91,1.14-6.88.34-3.17.15-5.44,0-8.61,2.89-6.56,6.32-67.14,7.3-79.03.63-7.67,2.34-15.22,2.91-22.92,1.64-22.1,1.5-44.4,3.02-66.54l12.35-177.64c.53-8.2-1.91-21.43-.83-28.3,1.59-10.08,2.71-19.05,3.38-29.52l10.85-161.96c.87-12.02,14.08-57.75-13.09-48.38-2.75,2.96-3.86,2.69-7.21,4.7-1.75,4.77-1.37,8.4-1.3,13.48-.24,5.02-.33,23.78-.7,26.12l-1.11.51.27.45-.11-.96c-1.9,6.39-.61,15.91-1,22.89-1.52,27.67-1.74,54-8.61,81.15-.25.98,3.49,22.09-.56,27.48-1.34,1.79,5.68,15.33,3.14,17.77-4.51,7.21-4.72,37.48-5.12,46.74l.91,1.47.79-.17c2.03-.41,2.96-.82,4.9-.14.26,2.17.57,2.51-.3,4.43-2.64.36-1.46.61-3.68-.62,1.44-1.18.65-.65,2.38-1.56l-.7-1.41c-.99.22-2.89.28-3.08,1.52-7.23,45.42-3.91,92.6-9.54,138.54-.87,7.09.44,21.83-2.21,27.4l-.72-.38c-.12-8.06.38-27.84-.65-34.42Z"/>
  <path class="st2" d="M632.84,865.44c4.53,5.3,1.19,19.34,1.7,29.22l.08,1.43c-2.11.34-1.09.42-3.17-.33-2.32-6.03-1.23-24.1,1.39-30.32Z"/>
  <path class="st9" d="M644.23,765.58l-2.49.6c-3.35-5.75-5.96-8.13-3.51-14.68,2.64-2.15,1.41-1.57,5.09-1.81l.68.96-1.18,4.73,1.42,1.59c.15,3.16.34,5.44,0,8.61Z"/>
  <path class="st7" d="M661.6,160.87c-.07-5.08-.45-8.71,1.3-13.48,2.56,3.8,6.61,8.73,6.29,13.07-2.88,2.24-4.26,1.55-7.59.4Z"/>
  <path class="st9" d="M654.54,533.66c2.1.98,3.01,1.38,4.97,2.74l.78,5.01c-2.14.03-3.12-.3-5.16-.78-1.88-3.06-1.19-2.39-.58-6.97Z"/>
  <path class="st7" d="M634.15,781.46c3.94.17,3.2-.48,5.55,1.57v4.34c-5.75-.73-4.96-.59-5.55-5.91Z"/>
  <path class="st9" d="M649.48,354.35l3.57.81c1.93,2.66,1.21,2.24.79,6.62l-2.24-.36c-2.42-2.77-1.64-2.55-2.12-7.07Z"/>
  <path class="st5" d="M651.14,412.49c1.36-.52,2.89.12,3.47,1.45.58,1.33.02,2.89-1.28,3.54-.9.45-1.97.37-2.79-.22-.82-.58-1.25-1.57-1.13-2.56.13-1,.79-1.84,1.73-2.2Z"/>
  <path class="st2" d="M641.24,706.63c1.03-.53,2.29-.27,3.02.62.74.9.74,2.18.02,3.09-.62.78-1.66,1.11-2.62.82-.96-.28-1.65-1.12-1.74-2.12-.09-1,.43-1.95,1.32-2.41Z"/>
  <path class="st9" d="M640.89,735.59c1.05-.69,2.45-.47,3.22.52.77.99.66,2.41-.27,3.26-.67.61-1.62.8-2.47.48-.85-.32-1.45-1.08-1.55-1.98-.1-.9.31-1.78,1.06-2.28Z"/>
  <path class="st9" d="M635.78,840.81l1.46-.51,1.06.57-1.44,4.39-2.1-2.81,1.01-1.64Z"/>
  <path class="st2" d="M637.86,669.3l.8-.36,1.22.56-.91,3.67-2.21-2.47,1.09-1.4Z"/>
  <path class="st0" d="M706.98,150.5c8.59-2.02,23.51-2.76,32.79-3.38,20.74-1.36,41.49-2.42,62.26-3.18,165.95-6.92,332.16-4.83,497.88,6.24l76.63,4.65c13.84.9,27.55,1.24,41.21,3.64-12.48,2.89-27.6,3.56-40.38,4.27l-25.29,3.27c-95.8,8.29-202.21,14.83-298.17,13.7-56-1.13-111.95-4.04-167.77-8.75-10.22-.81-20.44-1.77-30.63-2.88-4.92.44-32.53-3.36-39.74-4.16-21.96-2.42-43.91-4.97-65.84-7.65-12.92-1.48-30.6-2.91-42.95-5.77Z"/>
  <path class="st4" d="M706.98,150.5c8.59-2.02,23.51-2.76,32.79-3.38,20.74-1.36,41.49-2.42,62.26-3.18,165.95-6.92,332.16-4.83,497.88,6.24l76.63,4.65c13.84.9,27.55,1.24,41.21,3.64-12.48,2.89-27.6,3.56-40.38,4.27-7.06-1.99-7.9-.25-13.66-1.22-4.19-.7-11.49-3.11-16.2-3.56-10.91-1.04-46.2-5.36-55.52-4.13l4.02.44c-8.35-.28-16.7-.7-25.04-1.27-.46,1.47-.59,2.23-.86,3.75l-2.16.58c-5.16-3.19,1.64-3.99-6.96-4.5-34.88-2.06-70.68-4.45-105.57-5.21l.62.1c-11.3-.23-31.41-.56-43.49-1.17-.66.62-1.64,1.55-2.96,2.79-3.2-1.56-6.52-3.81-10.16-3.93-40.02-1.3-86.37-.54-125.88.03-18.39.26-122.98-1.15-134.18,2.5-.65,1.79-.67,1.85-.86,3.74l-.96-2.23c-8.23-2.69-42.76-.76-53.49-.49l14.69.32c-4.11.45-13.05,1.01-16.28,2.69,3.47,2.9,23.83,5.85,28.42,5.47-.45-2.03-.75-1.79-2.38-3.55,1.92-2.56,1.22-1.74,4.43-3.19l3.39.66.54,1.45c-1.1,1.3-1.62,1.92-2.02,3.6,3.38,2.8,16.32,4.95,20.29,3.49-.18-1.31-.4-2.61-.66-3.91,2.42-.49,2.43-.71,4.71.06.01,2.25-.26,2.86-.8,5.02,5.91,5.37,31.74,1.23,43.35,6.2-8.23,2.01-18.23-.35-26.23.84-4.92.44-32.53-3.36-39.74-4.16-21.96-2.42-43.91-4.97-65.84-7.65-12.92-1.48-30.6-2.91-42.95-5.77Z"/>
  <path class="st4" d="M886.15,170.96l-2.44-3.14.81-.5c24.54.82,48.43,3.75,72.46,4.93,55.33,2.34,110.71,3.12,166.08,2.33,30.99-.56,59.65-2.25,94.94-3.58,37.72-1.41,93.16-9.24,132.57-8.38.84.02,1.17,2.23,1.52,3.39-95.8,8.29-202.21,14.83-298.17,13.7-56-1.13-111.95-4.04-167.77-8.75Z"/>
  <path class="st2" d="M877.93,156.54c.67-.6,1.62-.8,2.48-.51.86.29,1.49,1.02,1.66,1.91.17.89-.16,1.8-.85,2.38-1.05.88-2.61.76-3.5-.28-.9-1.03-.8-2.6.22-3.51Z"/>
  <path class="st5" d="M892.49,156.81c.95-.74,2.33-.59,3.09.35.76.94.64,2.31-.28,3.1-.61.53-1.46.68-2.22.4-.76-.28-1.3-.95-1.42-1.75-.12-.8.2-1.6.83-2.1Z"/>
  <path class="st2" d="M1303.49,269.5c7.75-.2,12.66-.96,18.67,4.66,1.8,1.71,3.56,3.47,5.28,5.27,1.56,24.95.7,47.85,1.17,72.63l2.04,170.96c.42,39.61,3.08,79.92,3.77,119.51.6,67.26.64,134.53.14,201.79l-.02,80.39c.03,9.07.71,36.86-1.02,44.56l-.99,1.01c-1.51-2.21-5.33-39.6-5.77-45.02-1.52-8.07-2.54-21.71-3.43-30.28-2.05-11.97-3.18-32.24-4.44-44.98-3.41-34.38-5.17-69.04-7.5-103.48-7.83-127.92-13.31-255.96-16.44-384.08-.3-12.87-2.53-74.05-.46-81.15,2.53-5.95,4.24-7.21,9-11.79Z"/>
  <path class="st4" d="M1303.48,271.51c7.43-.17,21.64.12,22.38,10.97,1.51,22.08.39,44.68.8,66.9l2.79,172.26c.51,21.36-.51,49.53,1.39,70.53-.26,5.45-.44,10.9-.54,16.36-5.47-16.71-3.11-74.58-3.85-96.43-1.21-32.11-2.57-64.36-2.9-96.49-.47-45.12,1.22-90.79-3.28-135.75-.29-2.87-8.75-4.16-11.03-4.23-3.88,1.82-4.52,2.08-7.49,5.14-3.79,11.9-1.92,32.64-2.08,45.12-.78,41.29-.27,82.59,1.53,123.85,1.1,24.55,2.63,49.86,4.79,74.28.81,9.08-2.43,21.67-1.35,31.03,2.11,12.57,1.31,23.34,2.18,35.78,1.51,21.77,3.74,42.72,4.06,64.58l-.15-.84c.56,12.12,1.88,22.14,3.63,34.05,1.09,7.4-3.16,22.12-2.25,29.69,2.79,23.09,5.62,45.93,6.11,69.24.07,3.54-.03,10.57,1,13.64-1.09-1.94,2.29,3.32,1.74,2.39,0-1.87-.28-2.47.47-3.9.82,12.87,8.48,88.04,3.64,93.85-.75.9-.77.82-1.74,1.46-2.05-11.97-3.18-32.24-4.44-44.98-3.41-34.38-5.17-69.04-7.5-103.48-7.83-127.92-13.31-255.96-16.44-384.08-.3-12.87-2.53-74.05-.46-81.15,2.77-3.1,6.08-6.87,8.99-9.78Z"/>
  <path class="st5" d="M1303.49,269.5c7.75-.2,12.66-.96,18.67,4.66,1.8,1.71,3.56,3.47,5.28,5.27,1.56,24.95.7,47.85,1.17,72.63l2.04,170.96c.42,39.61,3.08,79.92,3.77,119.51.6,67.26.64,134.53.14,201.79l-.02,80.39c.03,9.07.71,36.86-1.02,44.56l-.99,1.01c-1.51-2.21-5.33-39.6-5.77-45.02.07-10.93,2.27-20.18,2.3-31.6.08-33.74.91-67.56-.6-101.27-.36-7.98,1.38-16.41.88-23.81,1.48,3.7-.7,31.79.51,36.46l1.03-.05c.95-3.1.39-17.2.46-21.78.6-27.64.64-55.28.11-82.92-.26-12.41-1.28-26.98-1.5-39.65-.28-16.24,4.04-54.47.89-68.48-1.9-21-.88-49.17-1.39-70.53l-2.79-172.26c-.41-22.22.71-44.82-.8-66.9-.74-10.85-14.95-11.15-22.38-10.97-2.91,2.91-6.22,6.68-8.99,9.78,2.53-5.95,4.24-7.21,9-11.79Z"/>
  <path class="st2" d="M805.08,272.17c6.03-1.61,12.47-2.17,17.25,2.8,2.84,2.8,3.8,3.6,5.94,6.89,3.51,6.16.95,43.84.61,53.78l-4.41,104.89c-3.19,104.13-7.73,208.22-13.61,312.24l-4.15,72.73c-.41,6.92-2.2,28.88-1.86,34.22.67,7.91-.06,4.1,5.27,10.91l-1.26.93c-1.75-.54-3-.93-4.72-1.6-.7,14.42-3.48,50.8-2.9,64.01.51,4.81.04,29.46-2.96,32.4l-.75-.79c-1.37-13.13-2.46-65.78-1.36-79.1.88-11.78-.87-38.15-1.31-50.73-.81-26.91-1.42-53.82-1.82-80.73-1.14-104.15-1.35-208.32-.62-312.47l.29-96.12c0-11.88-1.86-58.02,3.46-65.93,2.65-4.23,4.97-5.6,8.93-8.32Z"/>
  <path class="st7" d="M805.08,272.17c2.92.5,4.24.19,6.09,1.84l-4.19,2.62.29,1.4c1.7.76,1.66.72,3.51.94l.5,2.92c-3.77.84-6.13.02-9.62-1.43-3.06,2.93-2.87,12.69-2.97,17.11-1.47,94.96-1.8,189.93-1,284.9.11,11.93-2.26,55.12-.27,63.93.64-5.4.86-10.38,1.12-15.82.79,7-1.01,33.23,1.16,36.18l3.23,1.2.33.91-3.9.72c-2.96,5.1,2.06,23.68-1.31,26.8l-.42-2.69-1.11-.52c-.74,2.42.05,54.27.84,58.41l3.36,3.31c-.31,23.05-1.48,46.21.54,69.1.54,6.18-1.78,8.76-.04,16.5,3.12-24.69-.74-57,2.69-82.62,1.2-8.94,2.97-12.88,3.26-22.92,2.07,4.01,1.21,14.41,1.88,19.05,2.51-21.74,2.84-55.01,4.07-77.96,3.19-51.05,5.47-102.16,6.85-153.29,1.65-51.83,3.75-103.65,6.32-155.45.83-19.43,3.36-67.26,1.98-85.46,3.51,6.16.95,43.84.61,53.78l-4.41,104.89c-3.19,104.13-7.73,208.22-13.61,312.24l-4.15,72.73c-.41,6.92-2.2,28.88-1.86,34.22.67,7.91-.06,4.1,5.27,10.91l-1.26.93c-1.75-.54-3-.93-4.72-1.6-.7,14.42-3.48,50.8-2.9,64.01.51,4.81.04,29.46-2.96,32.4l-.75-.79c-1.37-13.13-2.46-65.78-1.36-79.1.88-11.78-.87-38.15-1.31-50.73-.81-26.91-1.42-53.82-1.82-80.73-1.14-104.15-1.35-208.32-.62-312.47l.29-96.12c0-11.88-1.86-58.02,3.46-65.93,2.65-4.23,4.97-5.6,8.93-8.32Z"/>
  <path class="st1" d="M796.16,886.47c.88-11.78-.87-38.15-1.31-50.73-.81-26.91-1.42-53.82-1.82-80.73-1.14-104.15-1.35-208.32-.62-312.47l.29-96.12c0-11.88-1.86-58.02,3.46-65.93-3.31,14.18-1.92,52.13-1.84,68.82l-.29,81.54c-1.06,121.39-.58,242.78,1.43,364.16l2.03,74.54c.33,17.9-.11,39.22,1.73,56.76,5.3-49.11,4.67-100.77,8.74-150.22.56-6.76,1.08-15.28,1.1-22.05,2.51-21.74,2.84-55.01,4.07-77.96,3.19-51.05,5.47-102.16,6.85-153.29,1.65-51.83,3.75-103.65,6.32-155.45.83-19.43,3.36-67.26,1.98-85.46,3.51,6.16.95,43.84.61,53.78l-4.41,104.89c-3.19,104.13-7.73,208.22-13.61,312.24l-4.15,72.73c-.41,6.92-2.2,28.88-1.86,34.22.67,7.91-.06,4.1,5.27,10.91l-1.26.93c-1.75-.54-3-.93-4.72-1.6-.7,14.42-3.48,50.8-2.9,64.01.51,4.81.04,29.46-2.96,32.4l-.75-.79c-1.37-13.13-2.46-65.78-1.36-79.1Z"/>
  <path class="st10" d="M796.16,886.47c1.53,11.08-.54,42.04,2.78,48.91,1.86-.24,1.07.13,2.28-1.41.51,4.81.04,29.46-2.96,32.4l-.75-.79c-1.37-13.13-2.46-65.78-1.36-79.1Z"/>
  <path class="st10" d="M804.12,869.96c.14-3.3.48-6.91.72-10.24.67,7.91-.06,4.1,5.27,10.91l-1.26.93c-1.75-.54-3-.93-4.72-1.6Z"/>
  <path class="st4" d="M822.33,274.97c2.84,2.8,3.8,3.6,5.94,6.89,1.38,18.2-1.15,66.04-1.98,85.46-2.56,51.8-4.67,103.62-6.32,155.45l-1.66,2.57c-2.03-12.48-1.44-47.24-1.66-60.9-.1-6.2,4.89-22.61,3.87-30.15l-.87,2.88c-.19-16.92.67-33.27,2.36-50.2,3.07-30.65,1.05-62,2.68-92.73.63-11.86-4.84-14.71-4.9-17.54l2.54-1.71Z"/>
  <path class="st9" d="M811.29,281.89c.3-1.35,1.61-2.24,2.98-2.02,1.37.22,2.33,1.48,2.18,2.86-.1.97-.73,1.8-1.63,2.16-.9.36-1.93.2-2.67-.43-.74-.63-1.07-1.61-.86-2.56Z"/>
  <path class="st5" d="M810.84,434.93c4.48,4.27,3.39,1.41,4.57,7.23-3.43-1-3.27-.36-5.18-2.61l.61-4.62Z"/>
  <path class="st5" d="M811.55,380.5c.93-.7,2.25-.57,3.03.3.78.87.77,2.19-.02,3.04-.58.63-1.47.87-2.29.63-.82-.24-1.44-.92-1.59-1.77-.15-.84.19-1.7.87-2.21Z"/>
  <path class="st2" d="M1935.56,1067.57c23.07,26.92,22.83,66.71-.55,93.37-23.39,26.65-62.81,32.06-92.51,12.69-29.7-19.38-40.64-57.64-25.67-89.78,14.97-32.14,51.29-48.4,85.23-38.13l-1.97,3.03c-6.57-.99-11.37-2.46-18.2-2.29-86.68,2.16-90.59,123.89-4.86,134.67,36,4.53,67.12-26.87,71.36-60.87,1.87-16.52-4.8-34.65-13.32-48.55-1.04-1.68-1.39-1.9.49-4.14Z"/>
  <path class="st2" d="M1935.56,1067.57c-8.85-10.34-20.48-17.92-33.5-21.85-33.94-10.27-70.26,5.99-85.23,38.13-14.97,32.14-4.03,70.4,25.67,89.78,29.7,19.37,69.12,13.96,92.51-12.69,23.38-26.66,23.62-66.45.55-93.37ZM1913.77,1133.26c-8.29,13.59-24.25,20.48-39.82,17.17l-1.36,2.46c-2.95,1.37-7.23-.16-10.65-.92-13.2-14.01-22.69-15.98-22.09-37.29.82-29.56,27.51-53.28,56.24-40.92,8.59,3.7,15.71,4.46,14.67,16.25,10.08,12.31,11.29,29.66,3.01,43.25Z"/>
  <path class="st2" d="M1861.94,1151.97c-13.2-14.01-22.69-15.98-22.09-37.29.82-29.56,27.51-53.28,56.24-40.92,8.59,3.7,15.71,4.46,14.67,16.25-10.43-12.74-27.94-17.18-43.18-10.97-15.24,6.22-24.64,21.65-23.17,38.05,1.46,16.39,13.44,29.91,29.54,33.34l-1.36,2.46c-2.95,1.37-7.23-.16-10.65-.92Z"/>
  <path class="st4" d="M236.07,1094.8l2.67,1.59c1.25,6.21-1.23,20.17-.32,26.19,3.6,14.54,11.31,29.76,20.38,41.6,3.1,1.98,11.38-.94,12.81,2.84,6.66,17.61,32.03,14.93,46.84,11.9,5.13-1.05,8.38-3.61,12.66-.34-37.83,22.99-90.29-9.6-96.65-50.34-2.01-12.84-1.35-20.98,1.61-33.44Z"/>
  <path class="st7" d="M300.34,1161.83c1.97.59,1.52.5,3.32,1.63l.09,1.63c-1.72,1.52-3.45,3.01-5.21,4.48-.95-.09-1.78-.34-2.72-.55l2.91.44-2.76-1.85,1.56,1.65-1.19-2.87c.2-1.48,2.58-3.2,3.99-4.56Z"/>
  <path class="st2" d="M371.23,1093.36c-5.26-18.1-17.41-33.43-33.84-42.69-17.34-9.55-35.61-10.61-54.44-5.26-22.98,9.72-40.87,23.91-46.89,49.39-2.96,12.46-3.62,20.6-1.61,33.44,6.37,40.74,58.82,73.33,96.65,50.34,4.25-1.77,5.23-2.2,8.93-4.9l4.61-2.62,7.61-6.26c4.83-5.44,9.02-10.53,12.59-16.91,9.26-16.61,11.55-36.22,6.39-54.53ZM275.16,1089.77c10.23-12.26,27.13-16.64,42.02-10.88,14.89,5.75,24.46,20.35,23.8,36.3-.68,16.39-12.01,30.4-27.88,34.51-15.88,4.11-32.58-2.64-41.13-16.64-8.32-13.62-7.04-31.04,3.19-43.29Z"/>
  <path class="st5" d="M324.16,1070.16l.74-2.43,2.33.43c-1.5,1.18-1.36,1.28-3.07,2Z"/>
  <path class="st2" d="M1192.55,1089.02c13.73,37.15-3.9,76.17-41.44,89.46-1.3.46-2.59.91-3.9,1.34-3.38-.31-8.59-.11-12.12-.07,1.96-3.52,25.44-6.14,30.74-15.17l-.53-2.03c2.46-1.15,1.67-.79,5.01.11,4.09-3.19,4.22-7.83,5.68-8.85,21.59-15.09,16.42-41.91,14.37-62.73l2.19-2.06Z"/>
  <path class="st2" d="M1136.54,1045.96c21.03,1.31,42.39,16.44,52.17,34.87l-1.61,1.12c-4.01-1.03-13.62-14.51-18.09-18.43-9.71-8.5-20.02-8.33-30.76-14.22-1.56-.86-12.2-1.83-14.79-2.21,1.87-.77,10.38-.94,13.08-1.13Z"/>
  <path class="st2" d="M1192.55,1089.02c-1.37-3.86-1.57-4.88-3.84-8.19-9.78-18.43-31.14-33.56-52.17-34.87-12.86-2.81-44.26-2.16-58.71-2.02.3,32.11.3,64.22.03,96.32-.07,12.46-1.02,32.03-.39,43.72,20.53.51,51.01,2.47,69.74-4.16,1.31-.43,2.6-.88,3.9-1.34,37.54-13.29,55.17-52.31,41.44-89.46ZM1158.37,1131.96c-5.99,8.01-7.74,9.93-16.38,14.8,2,.25,2.47.04,3.97,1.26l-1.29,1.76c-8.56,4.29-28.36,7.68-35.67.42-4.45-10.74-.24-37.42-1.1-49.61-.33-4.61-1.78-22.97,1.87-25.65,2.06,4.59-.75,24.46,2.19,28.75.57-4.76.33-21.43.37-26.97,14.45-.48,20.02-.77,33.29,4.76,18.9,14.45,22.44,28.71,12.75,50.48Z"/>
  <path class="st2" d="M1141.99,1146.76c2,.25,2.47.04,3.97,1.26l-1.29,1.76c-8.56,4.29-28.36,7.68-35.67.42-4.45-10.74-.24-37.42-1.1-49.61-.33-4.61-1.78-22.97,1.87-25.65,2.06,4.59-.75,24.46,2.19,28.75.38,15.35-.2,31.37.29,46.36,12.16-.05,18.15.6,29.74-3.29Z"/>
  <path class="st2" d="M1131.4,1066.19c4.94.02,8.5,3.22,12.9,6.13l.22,1.91-1.92.62c-5.85-2.93-12.44-3.06-16.35-5.95l.35-1.4,4.8-1.31Z"/>
  <path class="st2" d="M1153.2,1063.2c.93.36,1.07.85,1.85,1.8-1.64,2.61-3.03,5.04-4.53,7.73-2.04-1.74-2.27-1.69-3.16-4.29,1.61-3.26,2.48-3.07,5.84-5.24Z"/>
  <path class="st2" d="M1181.84,1092.25l1.59-.21-.66,1.72c-1.2.44-1.17.3-2.49.38l1.56-1.89Z"/>
  <path class="st2" d="M1110.1,1163.61l1.95-.69.78.98-1.56,1.81-1.78-.18.61-1.92Z"/>
  <path class="st2" d="M396.68,1044.11c25.33-.17,67.68-3.45,87.56,12.41l-.9,2.72c-8.18-.66-16.39-7.07-24.64-7.88-5.76-.56-10.49-.06-16.23.94-.42-.46-.83-.91-1.25-1.36-.43-.62-.86-1.24-1.29-1.86-12.98-1.4-21.95,3.62-35.24.98-4.94,4.5-2.08,115.69-2.17,128.41.43.63.85,1.26,1.28,1.89l4.07.69.29.43-10.72,2.18c-.41-46.79.6-92.49-.77-139.55Z"/>
  <path class="st2" d="M466.11,1179.81c-3.51,0-5.09.3-8.22-1.07.3-.17,2.71-1.53,2.98-1.75,6.43-5.29,15.45-5.56,22.55-10.28-.44-1.45-.23-.92-.82-2.25l-.41-.9,1.08-1.37c2.34.09,3.43.29,5.68.7,4.85-1.86,4.83-5.25,8.34-8.66,9.78-9.52,11.46-21.7,13.79-34.66,1.5-8.35-5.41-24.63-.42-31.57,14.67,39.3-4.25,79.28-44.56,91.81Z"/>
  <path class="st2" d="M485.26,1057.14c1.17.77,3.17,1.93,4.05,2.88-2.4,2.51-.27,3.17-2.73,5.72-3.7-.93-2.91-.21-5.43-2.54,2.25-6.66,1.58.49,4.11-6.06Z"/>
  <path class="st2" d="M510.66,1088c-3.31-10.68-12.92-21.03-21.36-27.98-.87-.95-2.87-2.11-4.05-2.88l-1.02-.62c-19.88-15.86-62.23-12.58-87.56-12.41,1.36,47.06.35,92.76.77,139.55,12,3.31,54.64.72,68.66-3.85,40.31-12.53,59.23-52.51,44.56-91.81ZM462.84,1146.32l2.21.58-.08,1.39c-7.19,5.67-32.77,11.18-38.28,2.54-.8-10.52-1.59-69.07.97-77.88,7.94-2.96,31.48-1.58,36.38,5.5l-1.24,2.25c2.16,1.84,5.73,4.23,7.54,6.1,19.23,19.89,12.73,44.22-7.52,59.52Z"/>
  <path class="st2" d="M462.84,1146.32l2.21.58-.08,1.39c-7.19,5.67-32.77,11.18-38.28,2.54-.8-10.52-1.59-69.07.97-77.88,7.94-2.96,31.48-1.58,36.38,5.5l-1.24,2.25c-12.25-4.56-18.72-4.71-31.93-3.84l-.48,72.94c13.78.17,19.25.9,32.44-3.48Z"/>
  <path class="st2" d="M484.58,1077.03l1.74.6.62,1.73c-1.83,2.42-3.6,4.88-5.3,7.39-2.16-1.44-2.08-1.46-3.74-3.5l.5-1.49c3.14-1.46,4.09-1.96,6.19-4.73Z"/>
  <path class="st2" d="M468.43,1059.71c2.48,2.47,4.61,2.86,5.54,6.02l-1.96,2.62c-2.73-.92-1.46-.22-3.66-2.65-.84-3.02-.97-3.17.08-5.99Z"/>
  <path class="st2" d="M465.46,1166.55c.71-.65,1.73-.85,2.63-.52.91.32,1.57,1.11,1.71,2.06.15.96-.24,1.91-1.01,2.49-1.12.85-2.71.67-3.61-.41-.9-1.08-.78-2.68.26-3.62Z"/>
  <path class="st2" d="M497.99,1091.66c.79-.84,2.08-.93,2.99-.22.9.71,1.12,1.99.5,2.95-.46.71-1.28,1.1-2.12,1.01-.84-.09-1.55-.65-1.84-1.45-.29-.79-.11-1.68.47-2.29Z"/>
  <path class="st2" d="M1693.27,1046.03c32.16,5.01,45.9,38.8,30.62,66.34-4.47,8.06-10.02,12.23-17.4,17.46,9.66,17.47,20.61,36.49,29.53,54.28-12.09.24-24.64.7-36.67.09-8.25-14.28-16.76-28.92-23.9-43.79.42-1.75.65-2.23,1.37-3.89h1.68c3.75,4.63,3.98,9.2,6.58,13.81,1.71,2.91,6.32,6.67,7.24,9.81,7.29,24.78,11.94,17.73,34.44,19.14-2.65-14.11-33.53-47.12-17.22-57.96,21.83-14.51,21.12-44.22,3.95-61.5-8.65-8.7-35.05-12.55-47.12-12.67,6.44-.95,19.36-.62,26.9-1.12Z"/>
  <path class="st2" d="M1622.42,1044.14l16.56-.05,2.78,2.59c-4.58,1.62-6.32-.42-11.24,2.38-2.12,2.34-4.34,6-4.14,9.09.94,14.83-1.13,115.46,2.93,120.58,6.16.82,14.97.54,21.15-.83,3.89-4.54-.15-34.7,3.61-39.77,2.45,2.93,1.77,5.71,2.74,9.47.89,9.26.14,27.1-.07,36.54l-34.08.32-.24-140.32Z"/>
  <path class="st2" d="M1706.49,1129.83c7.38-5.23,12.93-9.4,17.4-17.46,15.28-27.54,1.54-61.33-30.62-66.34-12.87-3.04-40.08-2.01-54.29-1.94l-16.56.05.24,140.32,34.08-.32c.21-9.44.96-27.28.07-36.54.02-4.99-.82-5.6,1.68-9.18,6.14-3.53,12.04-3.12,16.96,1.99,7.14,14.87,15.65,29.51,23.9,43.79,12.03.61,24.58.15,36.67-.09-8.92-17.79-19.87-36.81-29.53-54.28ZM1697.77,1102.06c-2.82,3-5.7,6.72-9.35,8.22-2.86-.83-1.69-.01-3.37-2.89-9.61,1.42-18.35,1.46-27.99,1,.03-9.92.5-25.33-.63-34.74-1.26,8.06.79,32.56-1.76,35.61-4.5-3.56-1.09-25.79-2.29-32.01-.3-1.55-4.02-4.6-1.21-6.05,25.45-13.14,55.15-1.37,46.6,30.86Z"/>
  <path class="st2" d="M1656.43,1073.65c-1.26,8.06.79,32.56-1.76,35.61-4.5-3.56-1.09-25.79-2.29-32.01-.3-1.55-4.02-4.6-1.21-6.05,25.45-13.14,55.15-1.37,46.6,30.86-2.82,3-5.7,6.72-9.35,8.22-2.86-.83-1.69-.01-3.37-2.89,21.03-14.56,8.1-36.37-13.71-36.7-4.46-.07-11.65-.18-14.91,2.96Z"/>
  <path class="st2" d="M1653.71,1110.37c11.98.61,16.14,1.25,28.48.79l-.07.71c-8.98,1.6-20.53,6.13-28.41-1.5Z"/>
  <path class="st2" d="M666.52,1044.18c15.36-.09,61.34-1.84,73.74,2.94l-1.92,3.4c-3.75.97-4.41-.05-7.41-2.39-8.37-.81-24.36-.81-32.64.24l1.43,2.71c-17.38-5.02-14.24.27-26.35-.99-3.81,6.55-.92,111.09.18,124.42,4.55,3.16,5.03,2.29,10.35.09l1.32.67.28,2.69c-1.12,1.13-.69.85-2.1,1.6,4.32-.17,8.84-.03,12.82-1.63l.57-1.31-2.06-.69c-.5-7.26,1.71-29.52,3.17-36.77l.47-.44c.64,10.24-.72,38.12,1.22,45.57-11.05.24-22.11.27-33.16.09-.74-14.04.05-35.28.11-49.77v-90.43Z"/>
  <path class="st2" d="M734.2,1171.17l.98-.71c17.14-1.97,5.43,2.86,16.1,7,.86-.56,1.49-.99,2.32-1.62l.76-.57c3.07,1.86,4.85,2.77,8.13,4.25,15.72-2-21.03-43.79-16.76-49.76,5.97-8.35,15.24-14.2,20.87-23.82,4.78-8.17.17-26.62,4-31.97,8.21,22.67-.84,43-21.03,55.11,7.51,14.39,23.26,41.25,27.85,55.1-12.04.36-24.09.48-36.13.37-1.85-3.37-5.79-10.12-7.11-13.38Z"/>
  <path class="st2" d="M749.59,1129.08c20.19-12.11,29.23-32.44,21.03-55.11-.23-1.18-1.47-3.74-2.09-4.86-6.12-10.8-16.3-18.72-28.28-21.99-12.39-4.78-58.37-3.03-73.74-2.94v90.43c-.05,14.49-.84,35.73-.1,49.77,11.05.18,22.11.15,33.16-.09,1.88-3.76,1.33-41.08,1.39-47.36l14.38.19c5.73,10.56,12.58,24.25,18.86,34.05,1.32,3.26,5.25,10.01,7.11,13.38,12.04.11,24.09-.01,36.13-.37-4.58-13.85-20.34-40.71-27.85-55.1ZM743.65,1091.87c-7.55,22.58-20.19,21.25-40,20.53,3.29-1.9,8.89-.23,15.71-3.57l-18.83-.35c.03-5.8.09-10.34-.51-16.1-3.33,4.08-.07,10.24-2.69,13.92-2.61-2.41-2.67-2.07-2.2-5.64.79-5.98-.33-12.23-.87-18.19-6.14-25.11,33.41-15.31,43.24-6.87,1.17,1.01,6.75,14.5,6.16,16.27Z"/>
  <path class="st2" d="M700.01,1092.38c-3.33,4.08-.07,10.24-2.69,13.92-2.61-2.41-2.67-2.07-2.2-5.64.79-5.98-.33-12.23-.87-18.19-6.14-25.11,33.41-15.31,43.24-6.87,1.17,1.01,6.75,14.5,6.16,16.27-7.55,22.58-20.19,21.25-40,20.53,3.29-1.9,8.89-.23,15.71-3.57,16.4-2.06,28.31-17,13.98-30.71-8.33-7.98-21.96-6.68-32.7-6.14-.07,6.8-.27,13.6-.61,20.4Z"/>
  <path class="st2" d="M711.19,1132.22l2.16.38.78,1.23c-3.47,1.59-5.56,1.26-9.38,1.26l-2.18-.91c2.77-1.68,5.35-1.61,8.62-1.96Z"/>
  <path class="st2" d="M754.64,1076.63c.95-.57,2.16-.53,3.07.12.91.65,1.34,1.77,1.11,2.86s-1.1,1.94-2.2,2.15c-1.33.26-2.65-.47-3.14-1.73-.49-1.27,0-2.69,1.16-3.4Z"/>
  <path class="st4" d="M112.63,1184.6c1.1-45.23.5-94.82,0-140.16,4.53,2.39,9.58,2.05,14.62,2.22v.93s-1.29.23-1.29.23c-3.58.63-5.12.58-7.7,3.07-4.05,8.27,3.89,99.88-1.67,121.42l.44-2.88c-.85,5.1-1.15,2.96,1.99,8.26,4.06,2.68,11.16-.51,15.38,1.39-2.62,2.28-9.36-.31-12.29,1.54,3.84-.06,17.3.36,19.7-.97,1.93-10.58-1.6-38.73,2.4-43.54,4.32,5.13,1.38,36.9,3,48-11.52.39-23.04.55-34.57.49Z"/>
  <path class="st4" d="M184.23,1046.01c12.23,3.27,22.09,9.44,28.64,20.54,6.16,10.51,7.93,23.02,4.93,34.82-2.89,11.29-10.23,20.94-20.34,26.73-3.15,1.8-10.62,5.41-14.13,5.77-6.57-.35-13.22-.07-19.8.1l-.61-.95c3.09-1.96,10.71-1.82,14.55-2.13,19.83-1.63,37.02-21.07,37.43-40.69.13-6.13-2.4-18.31-6.76-22.73-3.67-.7-6.39-.7-8.79-3.34-1.23-3.64-.9-2.39.6-6.84-12.93-6.97-43.47-10.33-57.52-7.68l-1.39.28,2.74-.7c-2.83.81-7.46.05-9.33-2.2,7.79-1.57,37.29.08,48.65-.88l1.14-.1Z"/>
  <path class="st4" d="M145.5,1105.76c-1.97-7.83-2.26-12.24-3.12-19.87-2.7-23.87,16.45-18.98,32.84-16.52,3.31,3.3,7.76,7.47,10.82,10.84,1.64,8.67,2.64,14.69-3.09,22.22-5.4,7.09-12.83,12.59-21.46,7.72l-1.45-2.61c5.3-.23,9.57-.11,14.41-2.72,15.36-8.29,9.27-28.45-6.32-31.77-4.83-1.03-16.53-.71-20.75,1.76-3.01,4.89-1.33,23.46-1.88,30.95Z"/>
  <path class="st4" d="M212.87,1066.55c-6.55-11.1-16.4-17.27-28.64-20.54-10.7-2.74-59.01-2.19-71.6-1.57.5,45.34,1.1,94.93,0,140.16,11.53.06,23.05-.1,34.57-.49,1.54-7.81.81-38.05.67-47.54,11.83,0,24.19.7,35.45-2.7,3.51-.36,10.98-3.97,14.13-5.77,10.11-5.79,17.45-15.44,20.34-26.73,3-11.8,1.23-24.31-4.93-34.82ZM182.96,1102.43c-5.4,7.09-12.83,12.59-21.46,7.72l-1.45-2.61-11.92-.43c-.93-10.04-.03-21.57-.75-32.3-3.01,4.89-1.33,23.46-1.88,30.95-1.97-7.83-2.26-12.24-3.12-19.87-2.7-23.87,16.45-18.98,32.84-16.52,3.31,3.3,7.76,7.47,10.82,10.84,1.64,8.67,2.64,14.69-3.09,22.22Z"/>
  <path class="st1" d="M1037.51,284.5c45.65-1.08,98.57,4.61,143.88,10.3,31.46,3.95,71.57,7.34,102.06,14.24-10.01,2.23-27.67,4.13-38.19,5.49-51.71,6.78-103.86,9.74-156.01,8.83-15.05.05-31.07-1.44-46.18-2.54-29.52-2.16-59.07-4.07-88.44-7.82-35.79-4.57-79.56-6.65-114.42-13.68,12.46-2.09,37.75-3.87,51.12-5.14,47.21-4.49,98.71-9.25,146.19-9.68Z"/>
  <path class="st4" d="M1012.76,287.42c60.13-2.52,116.53,2.48,176.01,10.27,24.92,3.26,57.29,5.15,81.41,11.37-46.58,7.86-107.14,12.19-154.35,12.92-55.06.22-118.6-6.29-173.68-12-27.52-2.85-61.45-5.84-88.14-10.05,9.61-1.88,28.03-2.85,38.98-3.97,39.82-4.18,79.77-7.03,119.78-8.53Z"/>
  <path class="st0" d="M921.28,296.73l-2.52-.33c3.67-.43,6.97-.71,10.6-1.63,4.03-.92,8.52.15,12.66-.17,42.66-3.31,85.83-4.75,128.61-3.52,29.19.84,57.28,2.48,86.29,6.06,8.72,1.08,17.42,2.79,26.14,3.87,16.51,1.51,37.13-.12,52.32,7.23,1.95.95,2.29.94,4.41,1.35-2.06,1.41-20.09,2.48-23.66,2.78-1.89-1.01-3.62-1.94-5.58-2.83-5.69,4.6,2.23,5.69-13.73,4.83-13.12-.71-27.19.23-39.98,3.12-2.32.53-4.84-2.77-5.83-4.42l-2.81.25-.38,1.23,2.49,3.02c-18.93,3.19-220.37-8.02-225.75-12.71.1-4.38.68-5.95-3.28-8.11Z"/>
  <path class="st2" d="M966.38,294.74c.46-.94,1.41-1.54,2.46-1.53,1.04,0,1.99.61,2.44,1.55.45.94.31,2.06-.35,2.87-.87,1.07-2.4,1.32-3.57.58-1.16-.74-1.59-2.23-.99-3.47Z"/>
  <path class="st5" d="M1038.67,295.64c.76-.95,2.14-1.14,3.13-.43,1,.71,1.27,2.07.62,3.11-.46.73-1.28,1.14-2.13,1.07-.86-.07-1.61-.6-1.95-1.39-.34-.79-.21-1.7.33-2.36Z"/>
  <path class="st5" d="M921.28,296.73c3.96,2.16,3.38,3.73,3.28,8.11-5.15-.77-28.31-3.88-32.02-5.06,3.39-3.04,22.08-1.14,28.74-3.05Z"/>
  <path class="st2" d="M1522.97,1044.37c9.92-.51,20.29-.41,30.27-.46,12.67,32.74,23.85,66.39,36.9,99.04,5.39,13.49,10.61,27.8,15.16,41.59l-33.87-.46c-2.24-6.65-4.57-13.26-6.99-19.85l1.4-3.31,1.36.03c14.24,21.47-.69,15.77,28.64,16.57l.27-2.53c-3.05-3.47-7.52-22.22-9.83-28.65-7.16-19.77-14.47-39.49-21.92-59.16-4.38-11.64-10.26-25.87-13.45-37.67-5.44.02-19.97-.2-24.21,1.93-11.8,21.43-24.36,61.69-33.04,85.62-3.56,9.8-12.27,32.09-14.65,41.36l1.02,1.38c1.58.04,20.78.2,21,.11,3.69-1.67,6.17-16.58,9.25-18.79.91,3.18.75,3.64.53,7.01-1.78,5.6-3.46,11.34-5.85,16.68l-33.13-.37c5.98-20.42,14.64-39.56,21.71-59.51,9.49-26.8,20.92-53.52,29.43-80.56Z"/>
  <path class="st2" d="M1590.14,1142.95c-13.05-32.65-24.23-66.3-36.9-99.04-9.98.05-20.35-.05-30.27.46-8.51,27.04-19.94,53.76-29.43,80.56-7.07,19.95-15.73,39.09-21.71,59.51l33.13.37c2.39-5.34,4.07-11.08,5.85-16.68.81-2.33,2.38-7.96,4.76-8.18,13.65-1.26,31.97-1.81,45.52.13,2.11.3,2.63,2.56,3.35,4.15,2.42,6.59,4.75,13.2,6.99,19.85l33.87.46c-4.55-13.79-9.77-28.1-15.16-41.59ZM1555.85,1130.03l-2.6.05c-3.23,2.36-25.69,2.59-29.76-.98-.49.12-2.19,1.31-2.69,1.63l-1.06-.3c-.03-5.47,10.9-38.68,14.51-40.89l1.31,2.15,1.59-3.27,1.67-.4c2.15,2.96,2.18,3.72,3.25,7.32-.12-2.62-.68-6.41.54-8.51l1.01.42c4.71,12.92,11.98,28.13,13.22,41.21l-.99,1.57Z"/>
  <path class="st2" d="M1542.07,1095.34c-.12-2.62-.68-6.41.54-8.51l1.01.42c4.71,12.92,11.98,28.13,13.22,41.21l-.99,1.57-2.6.05c-2.45-7.84-4.62-15.11-7.8-22.71-1.17-4-2.29-8.01-3.38-12.03Z"/>
  <path class="st2" d="M1523.49,1129.1c-.49.12-2.19,1.31-2.69,1.63l-1.06-.3c-.03-5.47,10.9-38.68,14.51-40.89l1.31,2.15-.98,4.27c-2.75,7.99-7.97,27.27-11.09,33.14Z"/>
  <path class="st2" d="M1512.35,1155.52c6.92-.96,43.62-1.78,50.08-.27l.2,1.73c-11.83-.26-40.41,1.19-49.94.24l-.34-1.7Z"/>
  <path class="st2" d="M1528.53,1133.45c5.8-.1,19.14-.71,24.16,1.04l.03,1.21-2.48.71c-4.42-.44-23.69-.9-25.93-2.06l4.22-.9Z"/>
  <path class="st2" d="M936.37,1043.88c11.34.23,22.68.2,34.02-.11,1.21,20.1-.05,40.22.24,60.28.69,12.75-2.76,34.54,6.77,44.28,13.91,14.22,36.67,5.48,39.43-13.97,1.69-11.88,1.04-23.11,1.02-34.52-.08-18.57-.04-37.13.12-55.69,10.47.52,21.82.26,32.37.21l-.27,30.05c.09,17.81,1.56,62.5-3.02,77.42-2.13,6.91-5.94,13.18-11.07,18.27-22.04,22.08-64.43,21.01-86.22-1.08-18.2-18.45-13.78-50.05-13.65-74.34-.05-16.93.04-33.87.26-50.8Z"/>
  <path class="st2" d="M1001.78,1158.38c3.31-1.17,4.95-2.4,7.91-1.68,1.28,3.05,1,4.04.92,7.45l-2.19,1.88-1.09-.34c-2.78-.85-4.01-1.54-6.8-1l-6.7-4.77c3.67-.16,4.37-.46,7.95-1.54Z"/>
  <path class="st2" d="M1001.78,1158.38c3.31-1.17,4.95-2.4,7.91-1.68,1.28,3.05,1,4.04.92,7.45-4.27-1.48-5.51-2.86-8.83-5.77Z"/>
  <path class="st2" d="M1023.51,1048.76l1.47,2.25,1.76-.17-.22-.75c2.2-.66,2.07-.64,4.37-.49-.05,3.1-.06,2.14-2.53,5.17-.6,3.32-.52,3.68-2.45,6.31l-1.66.15c-2.46-4.5-1.94-7.55-.74-12.47Z"/>
  <path class="st2" d="M1038.67,1061.72c.96-.71,2.23-.83,3.31-.32,1.08.51,1.79,1.56,1.86,2.75.06,1.19-.52,2.32-1.54,2.95-1.48.92-3.43.5-4.4-.94-.98-1.45-.64-3.41.77-4.44Z"/>
  <path class="st2" d="M1000.53,1164.69l-3.09,1.31c-3.53-1.24-3.8-1.21-6.05-4.03l.25-2,2.18-.05,6.7,4.77Z"/>
  <path class="st2" d="M1034.61,1150.64c1.31.34,3.09,1.02,4.41,1.48,1.75,3.28,1.23,2.17.75,6.54-3.5-2.04-4.65-4.08-5.16-8.02Z"/>
  <path class="st2" d="M970.8,1176.9c1.8-1.14.87-.77,2.89-.9l-.37,2.06-1.79.74-.73-1.9Z"/>
  <path class="st2" d="M541.68,1044.02l31.7.28c8.5-.11,59.62-1.3,64.43.81.88,8.06.86,21.11.41,29.4-20.73,1.03-42.66-.29-62.31.86l-.17,25.63c11.19-.13,34.62-.94,44.93.22l2.29-.2c3.25,3.56,3.65,21.14,1.09,24.38l-1.55-.07c-13.99,1.34-32.71,1.12-47.09,1.34-.07,8.75-.02,17.5.15,26.25,9-.05,60.35-1.28,64.3,1.06,1.22,6.6.5,22.93.28,30.28-10.41.17-23.42.67-33.54-.16-5.53.82-59.12.54-64.45-.46.22-46.54.06-93.09-.47-139.62Z"/>
  <path class="st2" d="M541.68,1044.02l31.7.28c3.92,2.77,15.75.01,19.71,2.31-6.56,2.17-44.01,1.27-45.74,4.65-2.71,5.28-1.77,118.98.91,124.83.9,1.97,2.19,3.42,4.34,3.98,4.28,1.12,8.78-1.7,13.01-1.84,4.23-.14,9.55,1.65,13.99,2.02-1.9,2.94-29.86,1.24-37.46,3.39.22-46.54.06-93.09-.47-139.62Z"/>
  <path class="st2" d="M606.61,1184.1c-3.32-2.96-15.86-1.27-23.81-4.02,3.66-.95,4.28-.63,8,.05l1.11.21c-.35-1.36-.54-1.56-1.38-2.63,5.18-.24,43.47,2.99,45.45,1.95,1.8-4.64-.73-16.46.82-24.07l3.07-1.61c1.22,6.6.5,22.93.28,30.28-10.41.17-23.42.67-33.54-.16Z"/>
  <path class="st2" d="M620.67,1101.22l2.29-.2c3.25,3.56,3.65,21.14,1.09,24.38l-1.55-.07c-8.46-5.14-38.62,1.09-45.66-2.91l1.16-1.22c4.06-.12,7.36.45,11.56.35,9.14-.21,18.55-1.36,27.63-.74,1.97.31,2.67-.3,4.53-1.16.49-3.95-.3-10.05-2.28-13.5l-2.75-.53c-8.63.88-28.8-.86-38.45-1.4,11.54-3.64,32.12.59,42.45-3Z"/>
  <path class="st2" d="M637.82,1045.11c.88,8.06.86,21.11.41,29.4-12.12-5.9-53.91,1.88-61.73-3.97,2.1-1.3,51.51-.06,57.87-.04-.21-7.56-2.34-16.93.29-24.02l3.16-1.37Z"/>
  <path class="st2" d="M616.68,1105.62l2.75.53c1.98,3.45,2.78,9.55,2.28,13.5-4.41-1.38-4.85-7.66-6.57-12l1.53-2.03Z"/>
  <path class="st2" d="M571.52,1125.49c1.04.5.99.66,1.86,1.53.79,7.76.28,16.82.08,24.72h-1.26s-1.21-1.27-1.21-1.27c-.69-8.3.05-16.65.53-24.98Z"/>
  <path class="st2" d="M572.07,1075.67c3.36,2.87,1.65,17.76,1.42,22.49-3.3-6.12-2-15.67-1.42-22.49Z"/>
  <path class="st4" d="M1042.75,398.5c32.29-.09,53.92,2.36,85.83,4.29,50.94,2.87,101.8,6.99,152.54,12.33l.95,1.7c-11.65,5.84-177.74,15.8-198.66,16.01-15.3.23-30.61.1-45.91-.39-21.77-.91-189.62-11.37-196.89-18.05,7.32-3.89,124.84-11.8,141.8-12.76,12.43-.68,24.86-1.25,37.3-1.72,7.19-.26,16.14.05,23.04-1.42Z"/>
  <path class="st0" d="M1070.29,400.49c11.26-.29,31.79,2.71,45.51,3.04l-8.18,1.01.05-.06.93,1.47c19.46,3.57,53.14,3.2,74.02,5.18,14.03,1.33,29.89,3.08,43.73,4.11l.9,1.83,1.86-.98.03.06-.72.88c-15.35,5.23-54.52,5.28-71.58,6.18-19.2,1.02-97.19,7.9-112.81,2.82-16.34,5.38-78.8-6.36-99.96-3.94-4.28.49-51.54-5.3-53.5-6.6,5.79-3.73,69.35-8.71,73.51-5.87-1.87,1.79-2.86,2.02-2.99,3.93,3.68.16,4.37.03,7.3,2.24.18-2.41.85-8.75,4.48-8.88,26.56-.96,53.11-2.92,79.73-3.02,5.31-.02,15.32.32,20.19-.92l-2.5-2.47Z"/>
  <path class="st9" d="M1108.5,408.77c.8-1.45,2.61-1.98,4.06-1.19,1.45.79,1.99,2.61,1.2,4.06-.79,1.45-2.61,1.99-4.07,1.2-1.45-.79-1.98-2.62-1.19-4.07Z"/>
  <path class="st9" d="M1123.38,409.7c.39-.79,1.21-1.28,2.09-1.26.89.02,1.68.54,2.04,1.35.37.81.24,1.75-.33,2.42-.75.89-2.05,1.08-3.02.44-.97-.64-1.31-1.91-.78-2.95Z"/>
  <path class="st4" d="M225.43,924.49c25.37-.32,57.07,1.22,82.84,1.98,33.31,1.05,66.62,2.31,99.91,3.79,51.92,2.99,103.79,6.83,155.58,11.51,8.78.84,44.41,2.17,47.56,5.51-3.27,3.19-18.07,1.58-24.16,3.23-42.17-.66-85.63,5.2-127.9,5.68-77.42.88-155.22,2.28-232.65,3.44-14.9.22-29.02-29.44-1.17-35.15Z"/>
  <path class="st0" d="M226.75,929.46c32.27-1.11,70.54.86,102.7,4.42,10.37.33,26.59-2.09,36.76-.08,31.92,6.32,87.06-2.09,115.68,8.67-.3.05-.6.1-.9.15l-1.51.22c-7.83,1.2-6.57-.15-13.52-.9l.35.71c8,1.84,17.03,4.12,25.12,5.11,4.78.59,9.81.08,14.96.65l-8.15.04c-17.26-.05-28.49,1.97-45.23,3.03l4.74-.9c-25.38-.1-51.74,2.11-77.33,1.82-47.91-.53-95.77,1.42-143.61,2.59-5.7.14-12.76,8.16-19.36-.72-1.22-11.79-9.63-21.78,9.31-24.82Z"/>
  <path class="st4" d="M1515.81,927.64c10.67-2.4,27.24-3.74,38.41-4.95,25.37-2.91,50.8-5.2,76.28-6.87,64.1-4.49,127.79-9.3,192.06-11.63,11.85-.43,38.96-6.76,46.59,2.61l3.46,3.78c4.5,2.53,5.28,11.02,4.43,15.57-1.61,8.66-13.89,13.4-21.81,13.6-25.13.61-50.44.04-75.61-.2-65.82-.31-131.61-2.53-197.3-6.66-18.87-1.17-48.95-1.27-66.51-5.26Z"/>
  <path class="st0" d="M1544.98,925.77c69.63,2.48,142.92-12.31,213.08-11.13,20.58.35,92.11-10.53,107.48-4.13,2.83,3.06,4.01,4.08,5.97,7.84-1.67.96-1.86,1.27-2.76,2.97.01,4.9.76,7.28-2.51,10.55-.91.91-1.84,1.79-2.8,2.65-37.08-.1-73.4-.27-110.41-3.04-16.44-.02-31.99,1.7-48.45.13-27.2-2.59-55.97-.56-83.14-2.64-29.42-2.24-56.11-.99-85.25-.8l-.41-.6c2.33-1.85,5.7-1.49,9.2-1.81Z"/>
  <path class="st8" d="M1515.81,927.64c10.67-2.4,27.24-3.74,38.41-4.95,25.37-2.91,50.8-5.2,76.28-6.87,64.1-4.49,127.79-9.3,192.06-11.63,11.85-.43,38.96-6.76,46.59,2.61-2.91-1.28-7.08-3.13-10.2-2.91-26.83,1.87-53.82,3.24-80.65,4.66-77.28,4.09-156.48,7.69-233.32,17.2-3.5.32-6.87-.04-9.2,1.81l.41.6c31.03,4.4,311.9,14.82,328.95,8.15,3.85-1.51,7.89-4.86,9.37-8.79,2.33-6.17.42-11.23-1.9-16.94,4.5,2.53,5.28,11.02,4.43,15.57-1.61,8.66-13.89,13.4-21.81,13.6-25.13.61-50.44.04-75.61-.2-65.82-.31-131.61-2.53-197.3-6.66-18.87-1.17-48.95-1.27-66.51-5.26Z"/>
  <path class="st2" d="M952.16,1225.88l-1.03-2.01c-5.01-9.5-14.34-15.94-24.86-17.78-5.14-1.73-6.22-1.75-11.54-2.06-24.13-1.66-45.91,4.66-54.07,29.8-1.38,5.11-2.87,9.94-3.36,15.21-2.14,30.46,10.22,54.41,42.78,58.57,29.54,3.77,55.82-12.22,58.45-43.15.88-10.43.59-30.04-6.37-38.58ZM903.65,1291.4l-3.26-.21c-3.71-1.16-6.27-2.55-9.72-4.26-3.96-3.91-5.03-5.99-7.89-10.73-.34-1.23-.66-2.46-.97-3.7-7.01-28.32,3.37-66.69,42.71-47.71,10.08,4.85,11.29,20.11,12.93,30.52-3.05,23.36-6.71,36.36-33.8,36.09Z"/>
  <path class="st2" d="M860.66,1233.83c8.15-25.14,29.93-31.46,54.07-29.8,5.32.31,6.4.33,11.54,2.06,10.52,1.84,19.85,8.28,24.86,17.78-7.6,1-3.72-5.83-11.84.24-4.12,10,4.67,34.98.26,38.11l.32,1.32c-2.48-3.23-1.24-4.61-2.43-8.23-1.64-10.41-2.85-25.67-12.93-30.52-39.34-18.98-49.71,19.39-42.71,47.71.3,1.24.63,2.47.97,3.7l-1.31,2.75c-8.43-5.78-7.21-26.11-5.64-34.87.82-4.6,2.21-1.89-.18-7.08-5.18.44-4.88-4.36-14.98-3.17Z"/>
  <path class="st2" d="M860.66,1233.83c8.15-25.14,29.93-31.46,54.07-29.8-1.78,2.85-2.38,3.55-5.43,4.98l2.19,2.47,3.85.21,1.11,1.48c-5.5,1.28-33.41,2.28-34.23,2.87-1.04,3.4-.28,4.54.85,8.14l-1.91,3.01-1.43,4.15c-3.24,3.03-3.06,1.98-4.08,5.66-5.18.44-4.88-4.36-14.98-3.17Z"/>
  <path class="st2" d="M879.73,1231.34c-2.74.78-5.03-.83-6.89-2.67-.92-3.5-.98-1.79.42-5.3,2.9-1.77,1.36-1.43,4.76-1,2.32,1.91,2.15,1.9,3.14,4.82l-1.43,4.15Z"/>
  <path class="st2" d="M914.73,1204.03c5.32.31,6.4.33,11.54,2.06-3.74.23-5.98-.31-8.48,1.68,3.76,3.82,16.14,4.97,18.24,9.84-1.13,3.11-1.15,3.95-3.58,5.96-5.24-2.28-9.24-7.95-15.99-10.4l-1.11-1.48-3.85-.21-2.19-2.47c3.05-1.43,3.65-2.13,5.43-4.98Z"/>
  <path class="st2" d="M937.44,1255.31c1.18,3.62-.05,5,2.43,8.23l-.32-1.32c4.4-3.13-4.38-28.11-.26-38.11,8.11-6.07,4.24.76,11.84-.24l1.03,2.01-1.77,1.48c2.44,15.25,5.66,31.34,1.79,46.72-3.26,12.94-15.59,24.49-28.77,26.94-2.75.51-5.81.65-8.53,1.2l2.31-2.08c4.32-.35,5.29-.27,8.94-2.49l-.04-1.07c-6.99-.36-9.38,2.25-17.04.81.57-.99.42-1.02.62-2.22-2.22-1.57-3.66-2.43-6.03-3.77,27.08.27,30.75-12.73,33.8-36.09Z"/>
  <path class="st2" d="M860.66,1233.83c10.11-1.19,9.8,3.61,14.98,3.17,2.39,5.19,1,2.48.18,7.08-1.57,8.76-2.79,29.09,5.64,34.87l1.31-2.75c2.86,4.74,3.93,6.82,7.89,10.73l-.6,2.38c-5.73.19-10.21,1.05-15.4,3.46-11.83-12.62-11.54-27.68-12.26-44l-1.39-1.01-3.73,1.28c.49-5.27,1.98-10.1,3.36-15.21Z"/>
  <path class="st2" d="M890.67,1286.93c3.45,1.71,6.01,3.1,9.72,4.26l3.26.21c2.37,1.34,3.81,2.2,6.03,3.77-.2,1.2-.05,1.23-.62,2.22,7.66,1.44,10.05-1.17,17.04-.81l.04,1.07c-3.66,2.22-4.62,2.14-8.94,2.49l-2.31,2.08c-11.03,1.84-32.17-1.34-40.21-9.45,5.18-2.41,9.67-3.27,15.4-3.46l.6-2.38Z"/>
  <path class="st2" d="M900.39,1291.19l3.26.21c2.37,1.34,3.81,2.2,6.03,3.77-.2,1.2-.05,1.23-.62,2.22-4.03-.9-13.83-2.1-16.49-4.87,2.27-1.76,4.42-1.21,7.82-1.33Z"/>
  <path class="st2" d="M329.96,1245.36c-5.65-28.52-33.34-47.06-61.86-41.43-28.55,5.64-47.12,33.36-41.46,61.91,5.66,28.55,33.4,47.09,61.94,41.41,28.51-5.68,47.03-33.38,41.38-61.89ZM276.46,1291.92c-1.28,0-2.57-.05-3.85-.16-.62-.53-6.88-3.15-8.23-3.79-9.81-4.63-10.81-10.43-13.49-20.31-1.05-9.56-1.21-31.31,6.67-38.73,21.72-20.42,49.83-6.46,49.67,23.66-.11,20.12-6.09,39.24-30.77,39.33Z"/>
  <path class="st2" d="M236.03,1232.11c4.32-4.94,4.44-5.07,9.17-9.2,6.81-5.94,9.77-11.77,20.37-12.47,4.94-.54,13.33-1.58,18.31-1.22l.96,2.31c-1.56,1.75-3.28,2.6-5.87,2.42-5.61-.39-11.05,2.12-16.31,2.48-3.58.24-1.69-3.37-6.04-.97-4.88,8.7-3.37,17.36-10.17,26.07-2.88,3.69-1.09,30.35,2.03,35.14l1.61.07c1.5-2.82.95-5.75.81-9.08,2.68,9.88,3.68,15.68,13.49,20.31,1.35.64,7.61,3.26,8.23,3.79.92,3.78.02,2.44,3.25,4.75,6.98,1.41,15.19-1.51,21.24-5.13,5.46-3.27,5.5-9.77,11.08-12.12l1.26,1.2-.39,3.61.45.53c1.82,2.24,1.92,2.37,2.94,5.01-.94,2.19-1.22,2.36-2.71,4.15-.39,1.1-1.41,1.84-2.57,1.85-1.16.02-2.21-.69-2.62-1.77-.42-1.09-.11-2.32.76-3.08-1.41.29-2.59,1.04-3.6,2.02-2.61,2.53-.54-.9-5.5.16,1.76,2.73,1.75,1.84,1.61,4.54-1.51.39-3.01.81-4.5,1.26,2.54-.27,4.04-.66,6.53-.27-13.13,3.86-35.16,4.9-48.03-1.48-17.01-8.43-26.16-47.21-16.69-62.48l.91-2.4Z"/>
  <path class="st2" d="M305.3,1290.76c.95-.83,2.34-.92,3.38-.21,1.04.7,1.48,2.03,1.06,3.21-.39,1.1-1.41,1.84-2.57,1.85-1.16.02-2.21-.69-2.62-1.77-.42-1.09-.11-2.32.76-3.08Z"/>
  <path class="st2" d="M236.03,1232.11l.34.72c1.38,2.87,1.42,3.04,3.64,5.19l.51,2.67c-4.17-.78-2.9-3.48-5.41-6.18l.91-2.4Z"/>
  <path class="st2" d="M307.85,1233.02c-1.48-4.28-3.12-6.86.34-10.39,3.03-.27,3.15-.08,5.9,1.5,14.4,4.69,11.35,45.53,5.28,57.36l-2.49,3.46c-1.21.02-1.44.16-2.54-.17-5.44-7.65.86-8.56-.91-13.82-1.03-.2-2-.4-3.04-.56l-.64-.09c2.18-14.59,5.07-23.76-1.89-37.29Z"/>
  <path class="st2" d="M307.85,1233.02c-1.48-4.28-3.12-6.86.34-10.39,3.03-.27,3.15-.08,5.9,1.5-1.54,4.71-2.78,5.57-6.24,8.89Z"/>
  <path class="st2" d="M314.34,1284.78c.25-2.7.54-3.31,1.4-5.78l1.56-.08,2.07,2.57-2.49,3.46c-1.21.02-1.44.16-2.54-.17Z"/>
  <path class="st2" d="M295.73,1211.15c4.13-.86,11.29,1.11,13.36,5.02-1.33,3.72-3.44,2.35-6.33,6.27-.72.48-1.63.59-2.44.29-.81-.3-1.43-.98-1.67-1.82-1.73-3.89-3.6-3.59-7.3-4.55l3.66-1.14c-1.05.32-2.18-.14-2.71-1.1-.53-.96-.32-2.16.51-2.88.83-.72,2.05-.76,2.92-.09Z"/>
  <path class="st2" d="M298.64,1220.91c-.37-1.33.33-2.73,1.61-3.24,1.29-.51,2.75.04,3.39,1.26.64,1.23.26,2.74-.9,3.51-.72.48-1.63.59-2.44.29-.81-.3-1.43-.98-1.67-1.82Z"/>
  <path class="st2" d="M295,1215.22c-1.05.32-2.18-.14-2.71-1.1-.53-.96-.32-2.16.51-2.88.83-.72,2.05-.76,2.92-.09.69.53,1.04,1.4.88,2.25-.15.86-.77,1.56-1.61,1.82Z"/>
  <path class="st2" d="M1377.98,1207.5c13.34-4.59,28.87-4.38,42.56-1.49-6.93.52-17.02-.11-22.47.8,4.5,1.88,10.51,1.67,18.18,4.46,3.67,3.72,6.23.39,11.15,4.88l-.29,1.74-2.01.71-1.2-.82c-2.41-1.62-2.87-1.85-5.35-1.35-8.27-1.44-14.66-2.02-23.04-.31-5.01,1.02-13.2,4.54-17.77,4.16-1.62-2.01-2.35-2.23-2.74-4.44,2.91-2.18,5.85-4.31,8.83-6.39l-.03-1.07-5.82-.88Z"/>
  <path class="st2" d="M1420.54,1206.01c-13.69-2.89-29.22-3.1-42.56,1.49-.61.31-1.21.63-1.81.96-36.77,20.67-34.04,88.6,10.13,97.69,29.49,6.07,58.39-3.64,64.94-35.7,4.98-24.4-2.09-59.1-30.7-64.44ZM1422.97,1282.79l-3.92,3.5c-6,3.2-9.77,4.24-16.32,6.3-11.38-2.8-23.59-6.77-27.04-19.84-4.68-16.46-2.87-47,18.21-51.49,38.95-8.28,43.94,36.95,29.07,61.53Z"/>
  <path class="st2" d="M1390.6,1301.33c-4.55.54-8.04-1.38-12.07-3.43-1.95-.99-1.68-3.16-2.11-5.81l1.47-1.09-1.42.95c5.38-2.51,15.58,3.36,22.5,5.62l-.76,2.53c-2.99,1.34-4.25,1.13-7.61,1.23Z"/>
  <path class="st2" d="M1334.92,1044.47c16.01-3.69,32.3-4.08,47.24,3.89l2.71.86c5.85,2.15,7.12,3.58,11.95,7.54-2.99,3.44-17,23.51-17.92,24-4.66.17-16.01-4.12-23.4-5.28-11.74.25-12.51,1.48-22.78,6.71-26.11,24.88-19.62,61.44,16.49,69.33l6.35-.02c9.42-1.58,13.45-2.7,21.87-7.14,5.29,5.79,14.86,20.27,18.95,27.13-16.65,9.02-28.68,16.37-48.48,13.96-40.78-4.96-68.9-40-64.48-80.63.53-2.82,1.29-5.72,1.96-8.52,4.03-23.72,25.56-43.27,47.43-51.13l2.11-.7Z"/>
  <path class="st2" d="M1283.42,1104.82l2.45-.08c3.35,4.68,1.98,18.08,2.97,23.9.36,2.11,3.44,8.4,4.22,10.74,8.26,24.77,31.4,35.88,55.69,40.8,16.48,3.35,27.8-3.39,42.97-10.28-4.32-4.89-12.82-18.75-17.49-18.73-4.16.01-13.16,4.02-17.15,3.1l-1.52-2.77c9.42-1.58,13.45-2.7,21.87-7.14,5.29,5.79,14.86,20.27,18.95,27.13-16.65,9.02-28.68,16.37-48.48,13.96-40.78-4.96-68.9-40-64.48-80.63Z"/>
  <path class="st2" d="M1349.21,1151.52c1.95,2.19,1.94,1.52,2.31,3.96l-1.7,1.06c-26.94-2.23-48.75-38.17-32.23-61.68,3.31-4.71,7.8-12.91,13.72-14.52l1.41,1.85c-26.11,24.88-19.62,61.44,16.49,69.33Z"/>
  <path class="st2" d="M1285.38,1096.3c4.03-23.72,25.56-43.27,47.43-51.13l1.09,3.7c-2.7,3.47-25.19,11.1-32.71,23.95-3.96,6.77-9.59,15.31-12.61,25.66-.55.32-1.11.64-1.66.96-1.8-1.69-1.29-.67-1.54-3.14Z"/>
  <path class="st2" d="M1334.92,1044.47c16.01-3.69,32.3-4.08,47.24,3.89l-1.07,1.24c-2.21,1.05-29.38-3.99-34.84-2.36-3.36,1.01-8.72.36-11.33-2.77Z"/>
  <path class="st2" d="M1076.84,1208.32c-9.4-3.11-21.21-3.1-31.12-2.82-8,.01-17.06.21-24.98-.02.53,33.6.65,67.2.37,100.8,19.78.38,43.41,2.59,61.44-5.21,38.74-19.72,36.16-78.9-5.71-92.75ZM1078.9,1281.5c-12.34,8.83-22.3,8.24-36.95,8.41.35-22.64-.04-46.12.02-68.84,11.79.15,26.32-1.1,35.69,7.35,6.58,5.92,9.5,14.74,10.08,23.37.72,10.8-1.66,21.44-8.84,29.71Z"/>
  <path class="st2" d="M1090.9,1242.2c1,.23,1.21.23,2.24.78,2.91,1.54,6.61,5.36,7.31,8.48l-1.08,1.34-3.17.23c-1,1.28-2.01,2.02-3.35,2.92-1.49-2.4-.88-9.36-1.68-12.7-.09-.35-.18-.7-.27-1.05Z"/>
  <path class="st2" d="M1045.52,1210.96l5.7,1.71.86,1.74-1.53,2.52c-3.5-1.02-5.28-1.02-6.68-3.46l1.65-2.51Z"/>
  <path class="st2" d="M192.85,1217.29c-17.23-14.28-48.73-13.14-70.19-11.13l-1.99.77c-1.67,5.5-.82,52.64-.51,60.72-.33,12.32.11,26.93-.61,38.71,18.3.04,41.62,1.23,58.66-4.17,7.41-3.63,12.62-6.26,18.01-12.4,16.61-18.69,16.45-56.09-3.37-72.5ZM161.57,1289.12c-3.75.54-8.61.44-11.96,1.17-3.55-.01-4.7.24-7.87-1.1-1.63-2.88-.65-59.22-.76-67.59l9.88-.61c10.86.85,20.57,1.69,27.94,10.46,14.51,17.26,7.58,54.05-17.23,57.67Z"/>
  <path class="st2" d="M120.17,1267.65c-.31-8.08-1.16-55.22.51-60.72l1.99-.77c10.64,1.47,9.08.86,18.93,4.72l-1.42,5.29c4.86.03,4.62-1.21,10.11-.05-2.3.38-5.42.59-7.08,1.98,3.41,1.39,3.62,1.37,7.35,1.55l.31,1.34-9.88.61c.11,8.37-.88,64.71.76,67.59,3.18,1.34,4.32,1.09,7.87,1.1l-.84.19c-3.66.81-4.76.87-8.5.9l-1.18,1.42c5.21,13.17,33.13-4.69,42.08.31-.05,3.01.41,1.68-1.55,4.09-.36,1.17-1.32,3.93-1.41,4.99-17.03,5.4-40.36,4.21-58.66,4.17.72-11.78.29-26.39.61-38.71Z"/>
  <path class="st2" d="M120.17,1267.65c3.57-9.43-.74-26.9,1.96-36.94l1.05-.03c2.96,4.49,3.46,6.36,1.83,11.78-5.62,18.67-.06,37.04-.97,56.66,9.18,6.13,44.57-.26,55.58-1.92-.36,1.17-1.32,3.93-1.41,4.99-17.03,5.4-40.36,4.21-58.66,4.17.72-11.78.29-26.39.61-38.71Z"/>
  <path class="st2" d="M136.88,1246.63c1.06,2.04,1.48,4.04,1.65,6.33.35,4.71,1.39,30.25-1.01,33.08l-.37-1.51c-1.17-6.22-1.9-32.52-.26-37.9Z"/>
  <path class="st2" d="M128.89,1232.76l2.53,2.05-1.35,1.43-1.14.86-.95-.52.9-3.82Z"/>
  <path class="st2" d="M141.59,1210.88c5.13,1.33,15.51-2.32,19.78,3.15l-.44,1.94c-2.86.96-7.69.64-10.65.15-5.49-1.16-5.25.08-10.11.05l1.42-5.29Z"/>
  <path class="st2" d="M833.42,1231.9c-2.48-6.24-5.42-9.57-10.05-14.17-18.16-15.97-49.13-12.21-72.92-12.37.11,10.38-.23,25.73.47,35.68-1,20.9.03,43.9-.77,65.47,36.38-.11,84.35,4.06,87.44-45.9.66-10.7.38-18.79-4.17-28.71ZM773.62,1289.41c-2.05-1.85-1.5-.76-2.09-3.13,1.45-15.62.53-47.84.48-64.39,8.93-.4,15.09-.49,24.04.77l3.13,1.99c5.87,1.5,6.51,3.81,11.18,7.42,17.68,28.71-.61,64.12-36.74,57.34Z"/>
  <path class="st2" d="M799.37,1216.38l-3.04-1.18-.48-1.51c9.48-5.78,17.16,1.55,21.78,9.39,4.4-.32,4.4-1.23,5.74-5.35,4.63,4.6,7.58,7.93,10.05,14.17l-1.71.91c-3.13,5.06.41,19.44-8.36,22.87.04-6.88-5.21-24.18-11.63-25.79l-1.36,2.18c-4.66-3.61-5.31-5.92-11.18-7.42l-3.13-1.99c2.33.03,5.04.54,6.4-.69l-1.9-1.68-1.18-3.91Z"/>
  <path class="st2" d="M772.01,1221.89c-.82.06-2.49-.08-3.38-.13l-.79-1.6,1.05-2.16c8.86-4.11,23.3-2.93,31.66,2.29l1.9,1.68c-1.36,1.23-4.07.72-6.4.69-8.95-1.26-15.11-1.17-24.04-.77Z"/>
  <path class="st2" d="M770.92,1293.68c4.35-.23,9.08-1.18,12.41,2.07-7.19,2.26-6.82,2.99-12.41-2.07Z"/>
  <path class="st2" d="M768.51,1272.48c1.21,2.89,1.51,3.27.86,6.48l-.73-.41c-1.36-2.2-.57-3.57-.13-6.07Z"/>
  <path class="st2" d="M1808.09,1205.37c10.13.14,20.27.36,30.4.64.99,30.81-1.67,71.64.25,100.32-6.39-.03-14.13-.26-20.41.13-5.41-6.09,1.39-57.45-2.24-67.62l-2.84-.93c-6.32,19.6-19.33,50.14-22.87,68.44l-19.1-.31c-4.6-18.55-15.12-45.16-21.54-64.13l-3.21.63c-3.62,9.85,1.43,55.2-2.35,63.14-6.87.38-12.43.54-19.3.43-.55-32.03-.12-68.26.37-100.47l29.53-.08c9.01,26.14,17.57,52.43,25.68,78.86,2.87-8.56,5.14-15.33,8.79-23.61,5.14-18.31,14.12-38.14,18.84-55.44Z"/>
  <path class="st2" d="M1725.25,1205.64l29.53-.08c9.01,26.14,17.57,52.43,25.68,78.86,2.87-8.56,5.14-15.33,8.79-23.61.08,2.18.21,4.36.38,6.53,2.49-.92,3.85-13.29,8.09-18.22l1.39.17c4.32,7.91-9.28,42.32-12.87,51.21-1.86.13-10,.65-10.71-.23-6.7-8.4-21.26-69.35-26.34-72.86-1.32,2-1.13,4.62-1.33,7.25l1.88,7.25-3.21.63c-3.62,9.85,1.43,55.2-2.35,63.14-6.87.38-12.43.54-19.3.43-.55-32.03-.12-68.26.37-100.47Z"/>
  <path class="st2" d="M1742.29,1231.87l1.61-2.17,1.66.5,2.3,4.46,1.88,7.25-3.21.63c-3.62,9.85,1.43,55.2-2.35,63.14-6.87.38-12.43.54-19.3.43,1.53-4.28.63-3.94,3.66-5.93,2.85.93,3.57,1.12,6.52,1.6.78-.36,1.73-.8,2.86-1.33,4.9-10.56-1.77-63.5,2.14-68.91l2.23.33Z"/>
  <path class="st2" d="M1770.83,1278.9l-.27,2.25c-2.41-1.05-8.33-23.04-6.78-26.46,4.68,6.53,5.49,9.94,8.38,17.45.06,4.48.64,3.23-1.33,6.76Z"/>
  <path class="st2" d="M1770.83,1278.9c-2.01-2.4-1.75-2.75-1.18-5.34l2.51-1.42c.06,4.48.64,3.23-1.33,6.76Z"/>
  <path class="st2" d="M1814.65,1232.73c.55-2.74.63-1.4-.45-4.14l-.78.29c.75-.98,1.02-1.57,1.23-2.79l-.09-.29-.82,1.55-1.73.48-2.99-2.05c1.92-4,.97-6.03-.03-10.09,2.82-4.55,19.48-5.56,24.17-3.61,3.55,18.79.7,47.58,2.07,67.29.47,6.76-.88,14.46-.72,21.57-7.48.96-8.44,1.03-16.02-.73l-.16,6.25c-5.41-6.09,1.39-57.45-2.24-67.62l-2.84-.93,1.4-5.18Z"/>
  <path class="st7" d="M1134.2,947.01c-64.55,8.49-119.59,3.62-183.54-6.09-5.43-.83-29.62-1.72-33.17-3.7l.67-.99c.56-.23,46.15-6.84,49.35-7.23,35.19-4.29,73.72-12.73,109.15-11.4,28.57,1.08,61.76,8.69,90.92,11.49,11.31,1.09,23.54,3.37,35.03,4.45,6.6.62,16.91,1.13,22.93,2.6l.17.84c-2.06,2.43-72.67,7.82-82.09,8.94,2.15,2.98,3.52,3.71,3.36,6.76-4.45.16-7.1-3.66-12.79-5.68Z"/>
  <path class="st10" d="M1134.2,947.01c3.14-.39,6.28-.75,9.43-1.07,2.15,2.98,3.52,3.71,3.36,6.76-4.45.16-7.1-3.66-12.79-5.68Z"/>
  <path class="st2" d="M981.81,933c5.24-1.07,26.97-4.16,30.49-5.75l-.05-1.23-3.76-1.52c8.5-2.86,11.22,1.28,17.54.87,18.28-1.2,34.68-2.16,53.03-2.24,1.41,1.46,1.25,1.45,1.65,3.47l1.26.7c.38-.25,5.48-3.68,5.48-3.68,20.72-.05,42.99,6.58,63.36,8.09-1.39.45-3.56,1.37-4.84,1.24l3.99-.63.89.94c-4.8,2.25-5.22-1.59-6.98,1.78,2.8.67,4.63,1.1,7.33,2.08l.21,1.42-1.33.93c-6.4-1.82-7.88-1.37-13.73,1.67-4.89,2.54-62.57,6.32-70.64,5.84-9.3-.55-18.75-1.73-27.99-2.94-2.36-.31-4.63-1.42-6.95-1.57-6.04-.38-14.75,2.47-20.35.62-1.35-.45-2.46-1.34-3.63-2.1-.57-.36-1.15-.68-1.72-1.03l-1.27-.76c-2.7,1.98-3.17,2.29-6.51,2.38-5.22-5.21-6.55-.35-9.43-3.59l1.96-2.24-1.27-1.62c-5.37-.4-4.85.29-9.13.78l-.48-.32,2.87-1.59Z"/>
  <path class="st5" d="M1065.51,939.25l1.39.3-1.44,1.12c-1.11.05-1.02-.07-2.15-.42l2.2-1Z"/>
  <path class="st0" d="M979.42,934.91c.09,2.45,1.13.6.36,3.43-4.66,2.34-10.26,1.69-13.13-2.95l.7-1.68c3.46-1.83,10.15-.92,14.46-.7l-2.87,1.59.48.32Z"/>
  <path class="st2" d="M1290.17,1261.28c3.73,1.75,6.69,3.44,8.45,7.3,1.45-.89,2.93-1.65,4.48-2.36l.06-.76c.17-2.07.06-2.94,1.2-4.7,2.43.88,2.27.79,3.75,2.93l.46.14c4.49,4.41,12.97,16.31,16.48,21.77l2.01,2.7c4.75,6.24,8.43,11.21,12.72,17.87-7.75.11-15.99-.12-23.79-.21-6.85-9.13-21.13-34.56-28.44-40.43-1.74-.84-6.77-1.32-9.55-2.21l2.48-.82-1.55.67,1.57.13-.08-1.03c2.39-.68,7.1-.82,9.75-.99Z"/>
  <path class="st2" d="M1290.17,1261.28c3.73,1.75,6.69,3.44,8.45,7.3,1.45-.89,2.93-1.65,4.48-2.36l.06-.76c.17-2.07.06-2.94,1.2-4.7,2.43.88,2.27.79,3.75,2.93l.46.14c4.49,4.41,12.97,16.31,16.48,21.77-2.7,2.16-3.87,2.85-5.78,5.66-4.11-1.34-5.19-1.5-9.48-.99.02-1.31-2.65-8.03-3.32-10.38-2.5-.32-3.61-1.53-5.63-3.08-1.09-4.61-7.45-11.17-10.67-15.53Z"/>
  <path class="st2" d="M1300.84,1276.81c4.28-.61,8.18-2.1,11.85-1.06-.66,2.93-3.5,3.35-6.22,4.14-2.5-.32-3.61-1.53-5.63-3.08Z"/>
  <path class="st2" d="M1325.05,1285.6l2.01,2.7-2.27,1.39c-1.12,5.22,5.11,5.73,6.23,10.81-4,3.66-11.22.42-15.23-2.02-3.9-6.23-2.32-3.44-6-8.21,4.29-.51,5.37-.35,9.48.99,1.91-2.81,3.08-3.5,5.78-5.66Z"/>
  <path class="st2" d="M1327.06,1288.3l-2.01-2.7c-3.51-5.46-11.99-17.36-16.48-21.77l2.71-2.94c13.8-7.37,17.62-13.87,18.28-29.16-1.02-5-1.18-6.64-3.61-11.16-4.24-6.37-6.93-8.25-13.64-11.53-13.09-4.72-37.75-4.11-51.92-2.68l-2.38-.29c-2.78,2.83-.84,88.79-1.48,100.03,6.15-.02,15.44.22,21.32-.48,4.16-6.55-3.73-28.68,2.95-38.37,2.81-1.24,3.66-1.25,6.75-1.72,7.31,5.87,21.59,31.3,28.44,40.43,7.8.09,16.04.32,23.79.21-4.29-6.66-7.97-11.63-12.72-17.87ZM1278.56,1251.25c-.53-8.9-.33-20.58-.54-29.8l13.47.35c5.93,1.17,9.83,1.57,14.41,5.74,7.47,23.17-10.91,23.54-27.34,23.71Z"/>
  <path class="st2" d="M1256.53,1306.1c.64-11.24-1.3-97.2,1.48-100.03l2.38.29c4.84,3.57,7.71,1.39,12.06,3.37l-2.43-.38,2.34.54c-3.5.69-1.51-.2-3.97-.43l-.96,1.17-5.57.17c-.95,6.44-1.43,32.8-1.06,40.23l.14,4.31c-.43,14.79-.59,31.18.43,45.94,4.73-.26,11.26-1.3,15.17.44,1.1,1.87,1.25,1.78,1.31,3.9-5.88.7-15.17.46-21.32.48Z"/>
  <path class="st2" d="M1312.31,1209.04c6.71,3.28,9.4,5.16,13.64,11.53l-.65,2.91-1.2.52c-2.86-3.78-3.26-6.13-6.81-7.69-2.38.77-2.95,2.14-4.41,4.23-2.75-.13-2.88-.37-5.32-1.5l-4.04,1.2c-.81-.59-10.42-3.82-12.06-4.39.82-1.05.48-.77.73-2.42-5.78-3.74-8.97-.27-13.66-3.17,2.27-2.47,26.4-.65,32.62-1.12l1.16-.1Z"/>
  <path class="st2" d="M1311.28,1260.89c-2.18-.98-1.42-.22-2.5-2.19,2.17-4.31,8.42-5.97,10.99-9.29,3.13-4.06,4.75-13.95,6.95-17.44l2.84-.24c-.66,15.29-4.48,21.79-18.28,29.16Z"/>
  <path class="st2" d="M1291.46,1215.85c1.64.57,11.25,3.8,12.06,4.39,2.79,2.77,3.99,2.96,4.47,6.27l-2.09,1.03c-4.58-4.17-8.48-4.57-14.41-5.74-3.09-2.75-8.05-1.75-14.21-3.92l.2-.82c4.66-1.2,9.16-1.09,13.98-1.21Z"/>
  <path class="st2" d="M902.43,1155.61c-15.35,34.53-53.41,41.16-77.7,11.55,2.15-2.48,4.73-5.65,7.02-7.9l12.3-13.83c6.76,6.08,8.89,6.69,17.34,9.81,9.33-7.72,10.13-10.02,10.29-22.33.39-29.7.24-59.39.06-89.09,11.22.24,21.87.02,33.1-.23,3.07,8.68-.66,65.59,1.03,79.18"/>
  <path class="st2" d="M871.73,1043.82c11.22.24,21.87.02,33.1-.23-.2,6.14-.03,12.75-2.09,18.48-1.33-12.51-4.7-14.37-15.6-14.01-2.98,4.79-3.24,4.2-9.16,3.14l-1.49.78c-5.49,20.58,9.79,88.1-9.43,104.09-.92.77-5.38,1.24-6.88,1.4l-1.23-.93,2.43-1.3c9.33-7.72,10.13-10.02,10.29-22.33.39-29.7.24-59.39.06-89.09Z"/>
  <path class="st2" d="M831.74,1159.26c2.19,3.19.71,3.92-1.08,7.1.2,1.03.39,1.56,1.11,2.36,13.36,14.76,37.7,16.92,52.78,3.77,14.46-12.61,14.95-25.32,16.44-42.6l-.02,6.22c3.17-15-.38-48.11,2.1-54.62,1.71,6.04.04,54.51.84,65.56l.08,1.05c-.38,2.16-.87,5.58-1.56,7.51-15.35,34.53-53.41,41.16-77.7,11.55,2.15-2.48,4.73-5.65,7.02-7.9Z"/>
  <path class="st2" d="M1945.06,1278.58c-8.12-23.96-19.51-48.83-27-72.79l-26.92-.33c-5.67,7.46-31.95,85.98-37.7,100.64l22.88.3c2.22-8.96,4.22-14.83,7.31-23.49,12.18-.38,24.36-.61,36.55-.69,8.4,1.95,9.94,16.38,11.92,24.27,7.93-.06,16.45.03,24.32-.29-4-8.04-8.45-19.05-11.36-27.62ZM1888,1263.61c4.1-5.19,13.28-34.8,16.07-43.24,4.94,11.98,11.15,33.83,15.82,43.39-4.73,2.41-27.51,2.95-31.89-.15Z"/>
  <path class="st2" d="M1891.1,1217.4c2.18.76,2.03.72,3.67,2.36.47,5.68.1,14.52-.94,20.09-1.44.51-1.55.32-3.18.33l-1.91-2.07c-2.29-6.55.53-14.08,2.36-20.71Z"/>
  <path class="st2" d="M657.69,1240.13l2.81-7.75.78,4.68,1.04-.45c.94,5.8.48,9.11,4.49,13.57l2.06.8c-3.65,5.11-4.41,7.38-4.19,13.68-.65,1.91-.99,2.97-1.86,4.81l-1.71.1c-1.04-1.84-.96-1.88-2.52-3.26l-2.07,2.33-.09-4.98-1.19-.06c-1.22,1.33-1.64,1.52-3.18,2.42-1.57,6.93-10.52,29.53-9.56,33.99,2.99.4,4.49.65,7.26,1.81,4.58-2.3,4.27-12.47,6.39-16.25,9.1-16.27,33.78-2.65,47.32-7.83,2.02-.77.72-.58,3.06.05,2.5,3.46,7.62,18.37,9.81,23.83,4.55.23,8.73,1.15,11.8-1.35-2-6.04-12.76-33.34-16.72-37.24-1.15.36-2.21.69-3.35,1.11l-.72.27c-.49-2.02-1.02-4.03-1.58-6.03l.55-.05c3.98-5.05,3.03-2.8,3.05-9.65l-.19-3.26,2.42-1.47c4.39,10.38,19.49,50.51,21.79,60.17-3.5,3.42-16.22,2.3-21.68,2.25-1.85-7.33-4.66-16.14-6.81-23.5-13.55-.64-27.12-.72-40.68-.23-3.42,6.46-5.98,16.22-8.16,23.42-7.28.28-15.4.14-22.75.17,6.46-13.81,18.42-49.83,24.37-66.1Z"/>
  <path class="st2" d="M657.69,1240.13l2.81-7.75.78,4.68,1.04-.45c.94,5.8.48,9.11,4.49,13.57l2.06.8c-3.65,5.11-4.41,7.38-4.19,13.68-.5-2.32-.61-4.43-.84-6.8-.7,2.46-.58,2.32-2.54,3.97l-2.19-.82c-7.4-9.52,5.99-13.7-1.42-20.88Z"/>
  <path class="st2" d="M711.61,1243.95c-.29-3.42-12.01-33.06-14.03-38.28-9.11-.26-18.23-.34-27.35-.26l-9.72,26.97-2.81,7.75c-5.95,16.27-17.91,52.29-24.37,66.1,7.35-.03,15.47.11,22.75-.17,2.18-7.2,4.74-16.96,8.16-23.42,13.56-.49,27.13-.41,40.68.23,2.15,7.36,4.96,16.17,6.81,23.5,5.46.05,18.18,1.17,21.68-2.25-2.31-9.66-17.4-49.79-21.79-60.17ZM669.1,1262.89c2.29-4,3.29-8.22,4.63-12.66,1.96-5.02,2.79-7.72,4.12-12.96,1.48-3.7,2.77-10.01,5.31-12.44,5.08,1.56,13.04,31.63,16.17,38.5-2.99,3.1-26.02,3.72-30.23-.44Z"/>
  <path class="st2" d="M662.33,1236.61c.59-.69,1.55-1.72,2.31-1.99,5.46-1.93,2.78-6.94,5.49-10.18,3.22-3.84,3.59-1.64,4.86-6.84,1.68.26,2.14,1.27,3.67,2.74.62,5.51-3.6,3.01-5.07,10.94,1.18,3.11,1.62,3.97,4.28,5.99-1.32,5.24-2.16,7.94-4.12,12.96-1.34,4.44-2.34,8.66-4.63,12.66-1.43.7-2.96,1.66-4.43,1.77-.22-6.3.54-8.57,4.19-13.68l-2.06-.8c-4-4.46-3.54-7.77-4.49-13.57Z"/>
  <path class="st2" d="M668.87,1250.98c1.99-3.59,1.08-9.58,4.35-11.34,1.46,3.67.82,6.58.52,10.59-1.34,4.44-2.34,8.66-4.63,12.66-1.43.7-2.96,1.66-4.43,1.77-.22-6.3.54-8.57,4.19-13.68Z"/>
  <path class="st2" d="M677.42,1215.83c5.12.37,4.82.61,5.7,5.13-4.06-1.22-3.83-1.91-5.7-5.13Z"/>
  <path class="st2" d="M1597.42,1206.14c9.46-.3,17.75-.46,27.22-.22l23.25,63.66c3.08,8.52,9.9,29.23,13.66,36.53l-22.81.12c-1.82-6.69-3.54-12.71-5.68-19.31,1.25-2.58.3-1.92,2.38-2.76,3.93,3.19,2.89,11.02,8.49,15.46,1.65,1.32,3.78,1.87,5.86,1.53,2.84-.46,2.42-.37,3.77-2.2-2.12-7.46-6.68-17.07-8.96-25.46-2.84-10.51-10.4-23.07-14.6-33.5-4.37-8.54-3.95-18.65-9.15-26.98-2.65-4.24-16.64-1.8-19.01-.24l-1.68,1.6c-3.35,11.8-.96,3.99-.09,14.45,3.73-6.23-.76-4.73,5.27-8.28l1.87.06c.61,2.84.64,3.6.71,6.53-1.28,6.88-8.72,29.31-12.05,35.53-.75-.08-.29-.08-1.46.26l-1.02.31-1.8-1.49c-.55-6.87,10.83-15.46,3.57-21.83l-1.37-.81c-1.14-2.38,1.47-9.22,2.38-13.04l-1-.15c-2.97,8.69-12.52,43.19-19.29,47.54-1.02-1.58-1.15-1.59-1.59-3.39,6.68-18.84,15.57-46.24,23.13-63.92Z"/>
  <path class="st2" d="M1596.17,1226.06l2.32-.24c2.78,4.08-1.36,9.77-3.33,14.09l-1.37-.81c-1.14-2.38,1.47-9.22,2.38-13.04Z"/>
  <path class="st2" d="M1581.59,1306.9l2.15-2.02c2.61-7.21,4.91-19.76,10.62-22.92,7.23.31,12.69.28,19.92-.01,4.93.08,12.55-.46,16.62,1.15,1.46,1.95,1.45,1.57,2.16,3.82,2.14,6.6,3.86,12.62,5.68,19.31l22.81-.12c-3.76-7.3-10.58-28.01-13.66-36.53l-23.25-63.66c-9.47-.24-17.76-.08-27.22.22-7.56,17.68-16.45,45.08-23.13,63.92l-.95,2.15c-1.84,5.3-8.74,26.04-11.35,29.96l-1.07-.25M1555.42,1305.51,1595.87,1262.66c3.33-6.22,10.77-28.65,12.05-35.53l2.17-3.19,1.85-.17c.64.89,1.73,2.29,2.23,3.18.75,4.54,9.69,31.58,11.94,35.81-4.05,3.95-25.93,3.74-30.24-.1Z"/>
  <path class="st2" d="M1614.17,1226.95l.3-4.88,1.04-.71c5.47,7.43,16.27,34.45,16.2,41.92l-1.84,1.38-.88-.5c-1.1-.61-1.75-.91-2.88-1.4-2.25-4.23-11.19-31.27-11.94-35.81Z"/>
  <path class="st2" d="M1594.36,1281.96l-4.28-.16-1.06-1.58c4.92-7.36,38.27-4.36,43.74-1.04-6.84,3.49-15.38.3-18.48,2.77-7.23.29-12.69.32-19.92.01Z"/>
  <path class="st2" d="M1600.16,1214.37l1.68-1.6,2.49,1.39.19,1.83-1.91.79c-1.63-1.23-1.45-.79-2.45-2.41Z"/>
  <path class="st2" d="M1475.43,1205.99c25.54-.59,75.08-7.75,72.07,32.09-.76,10.11-6.85,15.74-14.13,21.63l-5.76-.88c1.57-4.88,23.68-16.71,12.97-35.11-9.37-16.09-22.15-11.09-36.89-12.57-9.03-.91-7.97-5.26-18.95-1.54-10.46,8.38-4.73,75.41-3.09,89.69,6.51,4.38,9.4-.11,13.52,1.16l.92,1.38c-.12,1.08-.43,2.27-.67,3.36-4.39,2.01-15.29,1.05-20.39.86.54-33.35-.06-66.71.4-100.07Z"/>
  <path class="st2" d="M1500.88,1267.16c1.88-1,1.99-.83,2.89-2.71-3.53-3.16-3.12-3.19-1.92-6.98,6.11-1.42,18.37-4.69,24.01-3.4.78,1.77.55,2.62.42,4.55l-.05.72c2.18.87,2.92.57,5.38.55l-3.85,4.54h-2.27c-.47,5.47,2.33,2.66,1.61,8.17-5.13,3.35-9.33-.63-14.11-3.89l-3.01.37c-2.42-1.28-6.27-1.53-9.1-1.92Z"/>
  <path class="st2" d="M1475.43,1205.99c-.46,33.36.14,66.72-.4,100.07,5.1.19,16,1.15,20.39-.86.24-1.09.55-2.28.67-3.36.77-9.7-.99-21.35.99-31.06.48-2.4,1.56-2.38,3.8-3.62,2.83.39,6.68.64,9.1,1.92l3.01-.37c4.78,3.26,8.98,7.24,14.11,3.89.72-5.51-2.08-2.7-1.61-8.16h2.27s3.85-4.55,3.85-4.55l1.76-.18c7.28-5.89,13.37-11.52,14.13-21.63,3.01-39.84-46.53-32.68-72.07-32.09ZM1522.45,1247.46c-7.56,5.04-17.01,4.13-25.69,4.04-.64-9.87-.48-19.78-.49-29.67,8.82-.45,18.55-1.34,26.2,4.1,2.68,1.9,4.53,4.34,4.97,7.66.65,4.89-2.09,10.16-4.99,13.87Z"/>
  <path class="st2" d="M1223.79,1044.26l33.38-.05c.78,35.82-.41,99.12-.04,138.29-.48.69-.96,1.37-1.44,2.06l-31.93-.33c-.52-41.97.35-83.94-.36-125.9-.08-4.71-.14-9.39.39-14.07Z"/>
  <path class="st2" d="M1251.3,1048.84c.48-.11.97-.23,1.46-.35-.91,39.13.88,79.89.1,119.16-.29,14.46-5.82,13.85-17.88,13.27l-.42-.68c2.35-1.2,6.37-.4,9.77-.54-5.29-3.63-4.93-2.34-12.25-3.44-4.83-7.65-3.6-123.56-.48-126.87,4.81-1.29,14.33-.63,19.7-.55Z"/>
  <path class="st2" d="M1234.38,1139.29c1.04-1.1.37-.62,2.14-1.23l-.84,2.56-1.6.72.3-2.05Z"/>
  <path class="st2" d="M1752.9,1044.22l32.29-.25.38,93.74c.02,9.82.57,38.14-.67,46.53-6.9.19-26.53,1.04-32.44-.91l.44-139.11Z"/>
  <path class="st2" d="M1752.9,1044.22l32.29-.25.38,93.74c.02,9.82.57,38.14-.67,46.53-1.55-.61-3.66-1.24-4.79-2.5-1.89-2.1.29-122.06.45-134.87-7.15.18-16.95-.67-22.3,3.56-3.27,12.37-.89,71.98-.95,87.71-.05,11.85-.89,26.29-.76,38.37.02,2.62.5,2.52,1.93,3.62,4.82-1.07,12.7-2.2,16.72.84-1.77,2.39-18.03,1.35-22.74,2.36l.44-139.11Z"/>
  <path class="st2" d="M1419.88,1043.92c11.05.51,20.89.29,31.97.04.77,37.01-.34,74.35.02,111.38.09,9.5.13,19.51-.37,28.98l-31.85-.3c-.98-36.07.15-72.64-.26-108.74-.12-10.28-.11-21.12.49-31.36Z"/>
  <path class="st2" d="M1440.07,1047.51c2.43,1.15,3.23.31,6.61-.42,2.66,4.76-1.63,102.54.39,116.2.3,2.04-.11,13.2-.6,15.32-3.81,1.6-10.27.5-14.46-.1-3.23.15-4.84.64-7.33-1.07-1.76-12.89-1.4-121.06,1.11-128.94,4.39-1.21,9.63-.94,14.28-.99Z"/>
  <path class="st2" d="M392.87,1205.85c19.14-.68,43.1-.74,62.06-.35,1.01,4.73.49,10.78.3,15.74-6.9-.02-36.19-.45-41.8.66,1.31,8.37.57,16.18,1,24.41,8.44-.28,29.06-2.23,35.78,1.65,1.36,2.69,1.17,3.28,1.22,6.4-.02,4.05.68,3.86-1.32,6.18l-.74.04c-9.77,1.37-24.55,1.16-34.79,1.3l-.76,27.63c13.7.12,27.58-.05,41.3-.1l-.05,17.25c-20.77-.43-41.89-.25-62.72-.46,1.87-27,.6-71.99.52-100.35Z"/>
  <path class="st2" d="M454.93,1205.5c1.01,4.73.49,10.78.3,15.74-6.9-.02-36.19-.45-41.8.66-2.03,6.9.67,10.66-1.84,17.94l-.66-.23c-1.17-4.92-2.66-13.49-1.37-18.3,2.24-3.28,2.85-3.36,6.36-5.23l1.02-.52c-.68-1.61-1-2.75-1.5-4.41l4.1-.43c-1.89-.35-3.82-.8-5.7-1.22l-.44-.8c9.06-.69,35.3-.39,41.52-3.2Z"/>
  <path class="st2" d="M449.37,1260.58c-4.19-1.41-22.6-.71-31.7-2.28,1.95-1.97,26.26-1.06,30.17-2.7,2-.84.74-.63,3.6-1.24-.02,4.05.68,3.86-1.32,6.18l-.74.04Z"/>
  <path class="st2" d="M411.54,1247.88c2.32.18,3.88.34,5.96,1.55l.14,2.61c-1.57,0-2.87.14-4.32-.56-1.16-.56-1.38-2.42-1.78-3.6Z"/>
  <path class="st2" d="M1132.25,1205.72c19.69-.71,40.46-.32,60.21-.19l.42,15.82c-13.03-.1-27.08-.46-40.02.16-.01,8.3.11,16.61.36,24.91,8.2-.02,18.58-.32,26.57.48,3.52-.41,6.06-1.21,8.95.53,2.5,3.33,1.74,9.26,1.87,14.05-11.5.04-26.76-.28-37.88.82,1,6.68.42,19.91.18,27.13,8.49.05,26.04-.31,33.79.62,3.78-.33,2.66-.8,5.13,1.06,1.56,4.4,1.12,10.19,1.09,15.02-18.06.29-42.84-.56-59.76.37-2-3.94-.96-90.15-.91-100.78Z"/>
  <path class="st2" d="M1179.79,1246.9c3.52-.41,6.06-1.21,8.95.53,2.5,3.33,1.74,9.26,1.87,14.05-11.5.04-26.76-.28-37.88.82-3.53,3.79-.21,16.41-3.41,26.81l-1.16-2.18.74,2.39.71-1.77-1.57-.83c-5.45-43.69,9.57-25.58,32.74-31.16-2.63-4.2-15.67-3.8-21.02-5.98,5.09-.19,16.69.03,20.03-2.68Z"/>
  <path class="st2" d="M1186.7,1290.05c3.78-.33,2.66-.8,5.13,1.06,1.56,4.4,1.12,10.19,1.09,15.02-18.06.29-42.84-.56-59.76.37.51-2.47.47-2.76,1.62-5.09,4.24-.83,12.43-1.58,16.57-.58,8.3,2.02,26.26-2.4,32.09,1.2,3.31-.28,1.84.35,4.33-2.41.75-3.71,1.13-2.14-.6-4.96-2.49-1.09-5.85.7-7.99.61-3.4-.15-25.17-1.73-26.99-3.27,9.16.14,26.02,1.17,34.51-1.95Z"/>
  <path class="st2" d="M1182.49,1296.48c.71-.79,1.79-1.12,2.82-.86,1.03.26,1.83,1.07,2.08,2.1.26,1.03-.08,2.11-.87,2.82-1.13,1.02-2.87.97-3.94-.11-1.08-1.09-1.12-2.82-.09-3.95Z"/>
  <path class="st2" d="M500.42,1204.48c14.78-.66,23.97,1.26,37.92,4.63-1.53,5.43-4.14,11.7-6.19,17.05-7.48-2.69-40.39-14.75-38.68,6.96,1.76,7.6,13.25,12.77,20.12,15.64,20.8,8.73,36.33,24.46,19.96,46.83-6.59,9-18.61,10.79-29.31,11.88-11.92.45-21.97-1.42-33.01-5.76-.3-5.27.16-12.71.34-18.15,10.48,3.75,23.23,9.4,34.53,8.15,5.34-.59,15.25-7.84,12.78-13.74-4.56-10.92-21.62-15.24-31.13-21.28-14.82-9.42-19.98-24.5-11.02-40.02,4.68-7.88,14.93-10.71,23.7-12.19Z"/>
  <path class="st2" d="M516.56,1266.96c-1.97-1.77-1.56-3.77-1.99-4.19-1.48-1.45-13.5-5.32-15.45-5.72l-1.2-1.45c1.03-3.59-.02-2.34,3.03-4.07,8.41-.53,29.8,10.57,31.06,17.24.51,3.73,2.36,13.14,1.73,17.06-2.72,16.82-49.98,19.27-58.21,9.87-.68-3.33-.96-1.86.42-4.6,5.46-.1,17.12,5.57,23.68,6.05,10.13.74,22.07,5.05,22.81-9.8.63-12.57,2.48-10.48-5.87-20.39Z"/>
  <path class="st2" d="M516.56,1266.96c-1.97-1.77-1.56-3.77-1.99-4.19-1.48-1.45-13.5-5.32-15.45-5.72l-1.2-1.45c1.03-3.59-.02-2.34,3.03-4.07,8.41-.53,29.8,10.57,31.06,17.24.12,3.83.49,7.45-1.74,10.54-4.62-2.35-3.82-10.35-13.7-12.35Z"/>
  <path class="st2" d="M508.58,1209.16c.62.31.29.05.7,1.06-2.4,5.91-4.73,4.32-10.52,4.2-1.66-.48-.87-.15-2.24-1.5l.97-1.32c4.75-1.62,6.2-1.8,11.09-2.44Z"/>
  <path class="st2" d="M551.16,1205.33c24.55-.92,52.61.58,78.09-.03-.04,4.67.32,10.52-1.26,14.69-4.91,2.96-19.67,1.9-26.47,2.21-.5,26.45-.92,56.45-.28,82.95-5.45,1.08-15,.74-20.85.73-.05-5.51.28-11.65.47-17.21-1.45-4.67-.42-57.66-.53-66.92l-29.62.13c.45-5.28.38-11.2.44-16.55Z"/>
  <path class="st2" d="M580.86,1288.67c3.49-16.16-.69-39.9,3.22-57.24,1.55,12.28-1.08,63.27,3.66,69.29,5.24,1.02,8.07-.77,11.67,1.06l1.83,3.37c-5.45,1.08-15,.74-20.85.73-.05-5.51.28-11.65.47-17.21Z"/>
  <path class="st2" d="M597.98,1230.67c3.15,8.25,1.92,52.78.4,62.57l-2.46-3.88c4.25-16.67-3.33-42.27,2.06-58.69Z"/>
  <path class="st0" d="M1886.08,943.1c8.33-3.91,17.09-5.65,25.79-2.02,7.3,2.75,39.04,13.58,43.15,17.76-4.14.9-10.17,2.02-13.99,3.44-11.46,4.09-30.23,11.26-41.6,13.44-17.74-5.88-33.51-12.63-52.71-18.55,13.03-4.08,26.49-9.32,39.36-14.08Z"/>
  <path class="st7" d="M1846.72,957.18c13.03-4.08,26.49-9.32,39.36-14.08l2.2,1.6-.5,1.72c-4.41,2.13-14.9,5.51-16.85,8.01,2.5.48,2.55.09,4.29,1.52-.54,1.79-1,2.93-1.18,4.79,1.51.7,14.46,6.11,15.16,6.66,13.74,10.74,39.7-11.2,50.73-7.18l1.1,2.08c-11.46,4.09-30.23,11.26-41.6,13.44-17.74-5.88-33.51-12.63-52.71-18.55Z"/>
  <path class="st7" d="M1911.87,941.09c7.3,2.75,39.04,13.58,43.15,17.76-3.66-.27-8.24.31-11.55-1-11.5-4.53-22.46-9.07-33.66-14.3l-.25-1.37,2.31-1.1Z"/>
  <path class="st2" d="M1676.74,1205.65c6.56-.04,13.11-.14,19.67-.32,2.46,6.19,1.24,37.15,1.18,45.39l.33,55.4-20.5.09c-.89-32.76-.24-67.49-.68-100.56Z"/>
  <path class="st2" d="M1676.74,1205.65c6.56-.04,13.11-.14,19.67-.32-.3,3.09-.44,8.28-1.9,10.74l.25-4.14c-3.45-3.42-9.63-1.58-12.86,1.33.05,5.75,1.05,16.26.41,21.59-2.66,22.29-.53,43.57-.82,65.73,4.03.24,7.61.9,11.2-.66,2.09-15.03.1-32.41,1.56-47.69.47-4.91.73-9.76.98-14.69l.34-.02c.1,3.19.14,10.97,2.02,13.2l.33,55.4-20.5.09c-.89-32.76-.24-67.49-.68-100.56Z"/>
  <path class="st3" d="M127.43,980.66c18.16-2.25,34.13-2.76,52.3-1.02l2.95.45c12.94,1.86,25.85,3.92,38.72,6.21-12.8,2.68-20.32,4.54-32.68,9.73l-6.73,2.59c-7.55,2.72-43.83-14.17-54.57-17.96Z"/>
  <path class="st7" d="M127.43,980.66c18.16-2.25,34.13-2.76,52.3-1.02-4.65-.13-6.72-.41-10.72,2.22-3.62,2.37-8.49.97-11.15,4,2.78,4.14,18.68,9.85,23.72,11.22l.41,1.54c-7.55,2.72-43.83-14.17-54.57-17.96Z"/>
  <path class="st5" d="M182.69,980.09c12.94,1.86,25.85,3.92,38.72,6.21-12.8,2.68-20.32,4.54-32.68,9.73.82-3.08,1.42-4.71,2.63-7.67-1.1-4.29-5.23-4.13-8.67-8.27Z"/>
  <path class="st2" d="M1509.98,1269.08l3.01-.37c4.78,3.26,8.98,7.24,14.11,3.89.72-5.51-2.08-2.7-1.61-8.16h2.27c4.08,4.76,23.37,33.52,25.64,34.59,2.05,3.76,2.49,3.1,2.02,6.48-3.2,1.68-7.35,1.1-11.15,1.02-3.02-.01-4.24-.11-7.23-.52-7.46-4.84-21.5-28.44-27.06-36.93Z"/>
  <path class="st2" d="M1534.09,1286.68c2.11.36,3.25.66,5.08,1.88l.36,2.8-1.49.82c-1.99-1.05-2.86-3.54-3.95-5.5Z"/>
  <path class="st2" d="M1525.66,1273.56c2.01.78,3.08,1.2,4.55,2.86l-.6,1.71c-1.72.26-1.75.11-3.26-.8l-.69-3.77Z"/>
  <path class="st2" d="M1535.68,1001.58c5.34-.31,23.36-1.29,27.66.68-1.14,4.93-12.39,22.65-15.48,27.75-7.6.41-16.19.18-23.86.14,2.09-5.62,7.77-26.63,11.68-28.57Z"/>
  <path class="st2" d="M1524,1030.15c2.09-5.62,7.77-26.63,11.68-28.57,6.38,1.53,17.99.23,20.29,2.05-1.6,2.45-2.81,2.64-5.5,3.8-4.13-.39-9.94-1.9-13.23-.53-4.02,4.58-.73,8.54-7.14,16.07l.05,1.99c3.71,2.76,14.63,1.54,17.97-3.06,5.11-7.03,7.09-16.97,15.22-19.64-1.14,4.93-12.39,22.65-15.48,27.75-7.6.41-16.19.18-23.86.14Z"/>
  <path class="st10" d="M981.93,322.54c.71-.65,1.71-.86,2.62-.56.91.3,1.59,1.07,1.77,2.01.18.94-.16,1.91-.89,2.53-1.1.93-2.75.81-3.7-.27-.95-1.08-.86-2.73.2-3.71Z"/>
  <path class="st10" d="M57.26,394.45c1.04-.88,2.59-.77,3.51.24.92,1.01.87,2.56-.1,3.52-.66.65-1.63.88-2.52.61-.89-.27-1.56-1.01-1.74-1.92s.14-1.85.85-2.45Z"/>
  <path class="st10" d="M1081.32,436.44c.66-.59,1.58-.77,2.41-.48.84.29,1.44,1.02,1.58,1.89.14.87-.2,1.75-.9,2.29-1.02.8-2.49.64-3.32-.36-.83-.99-.73-2.47.23-3.33Z"/>
  <path class="st10" d="M313.62,962.74c1-.75,2.41-.6,3.23.34.82.94.78,2.36-.1,3.25-.63.64-1.56.87-2.42.6-.86-.27-1.49-.99-1.64-1.88-.15-.88.21-1.78.92-2.32Z"/>
  <path class="st10" d="M427.77,962.57c1.07-.57,2.4-.21,3.03.83.63,1.04.34,2.38-.66,3.07-.7.48-1.6.53-2.35.14-.75-.39-1.22-1.17-1.22-2.01,0-.85.46-1.62,1.21-2.02Z"/>
  <path class="st10" d="M1181.45,950.14c1.3-.94.53-.66,2.41-.59l-.28,1.84c-1.16,1.06-.59.6-2.36,1.03l.23-2.28Z"/>
  <path class="st10" d="M783.02,165.88c1.91.81,1.52.73,3.18,2.11l-.02,3.36c-3.1-.85-1.93-.01-3.83-2.27l.67-3.2Z"/>
  <path class="st10" d="M314.43,338.32c.99-1,.36-.59,1.98-1.07l-.88,2.19-1.59,1.09.49-2.21Z"/>
  <path class="st10" d="M153.43,783.45c1.13-.57,1.1-.41,2.41-.58l-1.16,1.75-1.99.42.74-1.59Z"/>
  <path class="st10" d="M570.21,253.21l1.57-.57-.19,1.82-1.83,1.05.45-2.29Z"/>
  <path class="st10" d="M399.34,338.48l1.76-.28-.34,1.62-2.17.48.74-1.82Z"/>
</svg>