<?xml version="1.0" encoding="UTF-8"?>
<svg id="Camada_1" xmlns="http://www.w3.org/2000/svg" version="1.1" viewBox="0 0 2048 1536">
  <!-- Generator: Adobe Illustrator 30.3.0, SVG Export Plug-In . SVG Version: 2.1.3 Build 182)  -->
  <defs>
    <style>
      .st0 {
        fill: #fefefd;
      }

      .st1 {
        fill: #19984e;
      }

      .st2 {
        fill: #000101;
      }

      .st3 {
        fill: #fff;
      }

      .st4 {
        fill: #e8efea;
      }

      .st5 {
        fill: #eb272d;
      }
    </style>
  </defs>
  <path class="st2" d="M835.87,7.18c16.38-1.17,16.26,4.62,29.77,9.86,17.8,6.67,38.98,7.08,53.14,21.14,16.21,16.09,37.11,27.21,57.95,36.02,18.16-7.37,31.91-4.24,47.47-9.17,37-11.73,50.63-33.69,73.21,12.01,12.82-2.16,16.92-3.42,28.61-9.09,9.83-17.86,27.28-35.23,43.55-47.69,49.96-38.25,32.26,47.59,28.64,67.62-7.37,8.84-25.44,20.24-35.31,29.18,24.72,9.4,62.49,9.33,88.73,13.86,10.62,1.83,30.88.94,38.45,9.58,5.51,6.29-4.08,13.45-8.63,16.53,1.12,7.4,2.13,12.78,3.88,20.05,15.44.37,40.68-8.19,50.31,7.74,13.37,22.12-32.78,24.89-21.48,41.98,2.97,1.87,30.15,4.68,34.45,4.49,27.51-1.23,30.28.21,45.28,23.89,18.47,6.05,39.51,12.85,56.63,22.41,7.07,3.94,16.14,14.52,23.66,17.19,10.62,3.77,24.04,5.71,35.03,8.81,21.98,6.19,47.17,16.18,67.04,27.24,13.13,8.16,25.53,18.52,29.44,33.96,4.76,18.85-9.76,23.92-17.88,37.87,1.89,6.49,3.24,13.12,4.02,19.83,2.44,19.95,1.59,46.72-11.57,63.24-10.23,12.84-22.43,12.94-37.38,14.64-11.98,10.32-37.84,43.97-38.32,57.17-1.35,37.35-15.74,36.24-37.89,62.58.13,3.14.23,6.29.29,9.44.43,21.96-16.59,34-31.95,50,1.2,6.52,2.01,15.02-1.63,20.81-9.53,15.14-25.04,28.57-36.65,42.03-17.92,20.79-31.65,42.64-53.38,59.86-14.84,11.76-37.31,16.82-50.25,27.39-14.04,11.46-24.55,28.23-40.14,39.73-8.76,6.99-25.33,9.62-32.92,17.44-5.89,6.06-8.07,18.75-10.4,26.84-3.12,10.8-6.79,21.81-11.28,32.11-5.82,13.35-13.57,13.22-25.72,17.45-6.59,2.3-9.17,6.95-11.87,13.08-9.21,23.45-20.19,71.58-44.16,85.18-23.05,13.09-27.8-19.75-40.83-27.57-3.36-2.02-9.17-1.73-13.09-1.54-23.02,1.08-38.7,14.49-59.07,21.46-7.68,2.62-21.46.15-29.67.54-5.55.27-12.03,4.49-18.07,2-17.14-7.73-16.06-35.97-21.42-49.62-10.63-27.11-17.32-25.6-6.77-54.26-2.35-6.44-9.61-20.4-10.84-25.32-4.22-16.94-10.08-40.67-11.15-58.04-.1-1.64,4.11-15.43,4.62-18.81,1.92-12.68-12.73-14.29-16.59-25.21-1.57-4.45-.04-14.69-2.86-17.78-9.03-9.87-35.66-8.58-48.75-10.64-24.22-3.82-28.47-6.74-42.44-24.77-9.76,23.34-13.6,22.73-37.47,22.4-11.4,7.22-21.97,8.08-36.19,6.94-27.2-2.18-63.4-2.44-88.49-13.33-3.3-1.43-7.18-5.74-9.54-8.3-14.9-1.14-32.08,1.22-46.21-3.85-21.77-7.81-6.29-37.88-.64-51.98l-4.79-8.97c2.24-8.62,3.47-12.72,4-21.6-16.89-14.61-3.54-21.59,1.59-37.19,1.36-4.12-.71-6.51-2.85-10.03,5.63-15.85,6.7-31.44,9.77-48.11-11.31-8.16-5.44-7.48-10.66-16.25-6.52-10.94-11.82-6.55-4.54-21.38-24.4-14.96-4.43-20.46-11.9-36.42-5.08-10.85-9.77-11.25-15.79-27.8-30.09-20.46,17.67-39.02,31.89-49.87l1.02-.78c-7.73-6.15-17.06-10.4-25.39-15.69-4.35-2.77-10.7-7.34-11.66-12.71-1.55-8.73,28.43-90.78,34.91-102.12,3.98-6.97,11.52-12.11,15.23-18.98,1.79-3.32-2.22-7.94-2.58-11.56-.85-8.61,17.54-75.67,21.58-85.8,3.23-8.09,6.79-14.65,12.38-21.32-9.02-11.31-31.47-41.31-30.72-56.38.6-13.6-22.28-34.44-10.3-47.87,4.76-5.34,17.66-5.54,22.49-.53,9.43,11.91,11.75,24.12,21.48,36.79,10.06,13.09,43.63-6.96,57.42-11.29,16.63-5.21,25.93-44.17,40.98-57.74,21.46-19.34,32.78-9.91,59.08-10.12,18.23-11.27,30.84-18.12,52.09-22.92Z"/>
  <path class="st3" d="M613.9,117.01c22.51,24.58,33.97,7.19,57.34,1.12,35.38-9.18,40.3-28.31,55.63-57.11,15.14-28.46,33.81-13.83,57.66-16.31,20.33-7.08,30.84-18.24,56.16-24.38,9.21,4.69,11.7,6.93,22.29,10.65,9.66,4.36,30.22,7.33,38.44,13.14,26.15,18.49,43.18,34.69,74.61,45,6.36-1.66,11.01-3.68,17.98-4.78,11.56-1.84,22.7-2.04,34.14-5.05,13.26-3.49,28.1-16.27,42.41-14.18,4.73.69,8.67,9.09,10.95,13.16,3.1,5.55,6.64,10.71,13.81,12.26,12.19,2.63,32.35-6.15,42.22-12.88,2.49-1.7,4.45-10.07,7.38-13.71,10.53-13.09,28.45-29.42,42.57-38.11l1.2-.73c3.03,19.39-.36,38.11-3.88,57.08-9.76,6.74-36.73,23.87-36.01,35.37,1.78,28.12,112.62,22.9,120.99,31.45-3.6,7.1-2.72,11.46-1.35,18.99,1.05,5.79,3.7,18.26,8.34,22.11,8.7,7.24,37.28-4.17,44.51.78l-.11,1.56c-3.14,5.07-11.06,9.08-15.8,12.76-14.91,11.58-8.57,34.74,10.36,37.21,16.53,2.16,31.73,4.57,48.44,3.79,13.06-.61,13.89,17.89,24.84,21.97,17.21,6.87,35.65,11.73,52.25,20.24,9.34,4.8,16,15.05,25.99,19.31,11.65,4.97,25.79,6.03,37.6,9.55,24.01,7.16,62.72,20.15,79.78,38.58,21.11,22.81-10.4,26.18-10.94,45.47-.07,6.31,1.94,12.66,2.87,18.88,2.59,17.48,3.52,33.82-4.06,50.12-10.69,23-25.61,7.26-43.11,22.56-24.14,21.38-39.04,51.3-41.57,83.45-10.49,14.33-27.08,25.42-35.82,40.11-.27,6.91.27,15.68.51,22.73-7.65,7.8-24.55,29.9-34.96,36.36-4.03,2.49,8.9,13.56,2.01,20.36-30.02,29.67-52.69,65.87-83.68,93.82-19.13,16.89-47.27,18.22-63.83,40.63-6.82,9.22-18.32,19.05-26.78,26.44-7.78,7.23-30.72,11.6-36.28,19.98-12.04,18.14-17.31,47.48-25.92,68.09-40.75,7.53-37.06,37.51-50.85,68.81-5.34,12.13-11.07,30.3-23.83,35.68-12.15-3.49-13.46-32.95-41.92-31.74-29.97,1.27-41.41,12.63-67.67,22.17-5.4,1.96-28.02-.02-37.97,2.16l-1.44.33c-5.2-12.71-7.61-27.34-12.09-40.79-2.34-7.03-9.37-22.62-10.45-28.73-1.15-6.56,6.42-15.72,3.9-26.49-1.6-6.88-8.19-16.6-9.35-21.27-3.87-15.53-7.96-34.45-10.89-50.14-.71-10.47,5.49-20.25,4.71-30.75-.71-9.6-10.75-15.79-17.56-21.72.26-7.9,1.07-15.96-4.01-22.9-15.05-20.55-54.68-11.6-76.51-20.97-11.34-4.86-12.98-19.29-25.85-22.28-14.36-4.25-15.83,18.96-21.65,21.75-12.75,6.11-17.82-1.75-32.01,8.8-21.86,1.52-46.36-1.39-68.08-3.78-17.05-1.88-30.77-2.43-42.68-15.74-13.77-3.82-43.26,1.26-51.09-7.4-3.04-6.98,7.72-24.65,10.31-35.84l.32-1.41c-1.16-3.2-2.81-6.54-4.25-9.66,4.05-15.5,6.21-20.64-5.18-33.53,5.22-13.96,16.15-19.68,7.81-35.68,5.19-15.67,3.75-29.79,10.46-47.09-2.06-3.24-6.73-7.9-8.45-10.71-.41-.68,1.93-8.98,1.76-11.66-.31-4.86-2.7-4.91-3.55-8.56-1.21-5.26-.27-9.44-2.92-14.56-2.11-1.95-13.57-4.21-17.71-5.46,9.78-20.74.72-30.04-11.98-45.3-.81-11.93-1.37-12.33-11.61-18.66,11.75-11,29.04-16.88,39.89-27.24,17.24-16.47-23.62-32.18-34.01-39.6l-1-.73c10.81-28.91,18.71-58.92,31.46-87.14,3.45-7.3,9.51-13.45,14.63-19.56,9.86-11.75,10.51-13.2,1.99-24.98,8.15-23.01,11.67-55.51,20.94-80.03-.17-4.68,16.31-19.23,16.1-21.37-1.72-17.15-40.4-47.02-32.86-65.23l5.96,1.16Z"/>
  <path class="st2" d="M990.55,248c11.21-18.78,19.13-37.27,29.42-55.74,9.29,19.62,19.51,38.79,30.62,57.44-1.64,26.51-1.04,53.58-2.67,79.77,51.07,4.33,94.06,18.42,140.87,38.49,17.08,7.32,37.62,17.42,55.25,22.01,12.77,3.32,40.14-4.88,40.98-21.34-2.82-6.13-9.77-19.04.3-22.26,16.21-5.17,28.35,15.7,10.73,22.87-.4.24-.81.48-1.22.72-11.19,20.53-19.42,29.54-43.54,32.66,9.34,17.37,19.9,43.55,27.95,62.03l41.75,94.99c3.43,7.84,19.36,45.19,22.43,49.43.92,1.87,1.01,2.41,1.55,4.45-2.73,11.2-9.72,20.51-17.28,28.93-42.15,46.95-114.05,53.68-161.1,9.94-9.76-9.07-22.57-25.17-26.88-38.25-.4-1.2,1.45-2.5,2.3-3.35,5.1-8.62,18.73-42.26,23.78-53.88l46.26-106.08c7.33-16.44,14.21-33.46,22.55-49.38-23.59-5.49-41.59-13.49-64.16-21.89-40.67-15.13-79.03-26.79-122.57-30.29-.07,41.58-1.44,84.1-2.31,125.73l-3.59,182.06c10.23-.2,20.46-.75,30.66-1.63,11.71-1.07,23.21-3.02,34.85-4.52,5.79-.74,12.69-1.69,15.98,4.24-3.42,11.13-52.73,16.03-63.75,14.64-13.28-1.67-25.17-6.6-39.64-6.12-13.31.44-24.29,3.11-37.28,5.77-14.87,2.39-42.88-2.36-57.72-6.46-5.11-1.41-7.76-3.33-10.04-7.94.42-5.14,5.97-6.15,10.3-5.36,24.47,4.45,47.21,6.65,72.13,7.08-1.6-102.38-4.82-206.02-5.39-308.26-38.65,2.41-84.37,16.24-120.49,29.98-22.65,8.62-40.35,16.57-64.02,22.6,2.24,7.41,8.14,19.51,11.55,27.15l20.43,46.27,39.95,91.36c3.69,8.5,16.88,40.2,21.37,46.48.13,1.54.18,2.73-.53,4.21-41.71,86.53-161.22,87.7-204.18,1.8-1.7-3.4-1.11-4.36.23-7.36,3.37-4.13,15.47-34.28,18.46-41.13l50.9-117.02c6.41-14.75,17.26-36.19,22.43-50.33-22.2-4.2-31.4-11.27-41.41-31.69-10.33-5.8-18.67-16.17-.88-24.68,4.94-2.37,16.26,2.16,14.5,8.68.27,6.6-5.61,12.33-2.92,18.69,7.51,17.74,35,20.37,50.79,13.03,61.88-28.76,115.37-50.55,183.83-57.71-.12-25.63-.08-55.39-1.55-80.84Z"/>
  <path class="st0" d="M805.59,403.3l1.98-2.21c2.24,7.41,8.14,19.51,11.55,27.15l20.43,46.27,39.95,91.36c3.69,8.5,16.88,40.2,21.37,46.48l-4.61-.16c-32.27-.23-64.54-.14-96.8.26,1.52-49.65-.13-100.97.56-150.72.15-10.62-.9-51.83.62-59.02l1.87-.82,3.09,1.38Z"/>
  <path class="st2" d="M805.59,403.3l1.98-2.21c2.24,7.41,8.14,19.51,11.55,27.15l20.43,46.27,39.95,91.36c3.69,8.5,16.88,40.2,21.37,46.48l-4.61-.16c-1.52-5.58-14.64-32.82-18.03-40.88-16.85-40.09-35.21-79.98-52.19-120.04-4.02-9.48-19.13-39.69-20.45-47.99Z"/>
  <path class="st0" d="M1234.6,401.44l3.32-.18c1.95,1.38,2.6,1.18,2.68,3.35.74,18.87.3,40.12.23,58.93l-.61,148.44c-31.86.17-63.72.17-95.58,0l-2.63-1.21c5.1-8.62,18.73-42.26,23.78-53.88l46.26-106.08c7.33-16.44,14.21-33.46,22.55-49.38Z"/>
  <path class="st2" d="M1234.6,401.44l3.32-.18c-7.31,13.69-16.04,34.96-22.53,49.55l-47.89,110.28c-6.37,14.68-15.46,37.33-22.86,50.89l-2.63-1.21c5.1-8.62,18.73-42.26,23.78-53.88l46.26-106.08c7.33-16.44,14.21-33.46,22.55-49.38Z"/>
  <path class="st0" d="M788.18,402.52l4.73-.6c2.55,2.48,2.38,4.21,2.33,7.88-.89,67.35.63,135.01-.51,202.33-31.69.02-63.99.41-95.64.09l-2.7-1.21c3.37-4.13,15.47-34.28,18.46-41.13l50.9-117.02c6.41-14.75,17.26-36.19,22.43-50.33Z"/>
  <path class="st2" d="M788.18,402.52l4.73-.6c-3.87,4.35-17.12,36.17-20.24,43.25-15.12,34.3-30.05,68.69-44.79,103.16-8.53,19.73-18.95,44.96-28.78,63.89l-2.7-1.21c3.37-4.13,15.47-34.28,18.46-41.13l50.9-117.02c6.41-14.75,17.26-36.19,22.43-50.33Z"/>
  <path class="st0" d="M1245.57,611.99l.37-141.94c-.06-14.21-.29-28.43-.39-42.64-.03-4.89-1.1-21.75,1.39-24.86l3.06.76,1.29-.68c9.34,17.37,19.9,43.55,27.95,62.03l41.75,94.99c3.43,7.84,19.36,45.19,22.43,49.43l-3.23,2.78c-31.45-.3-63.05.43-94.62.13Z"/>
  <path class="st2" d="M1250,403.31l1.29-.68c9.34,17.37,19.9,43.55,27.95,62.03l41.75,94.99c3.43,7.84,19.36,45.19,22.43,49.43l-3.23,2.78c-2.21-7.49-17.33-39.67-21.04-48.1l-44.58-102.1c-6.97-16-19.37-42.44-24.57-58.35Z"/>
  <path class="st0" d="M1018.04,215.61c1.85,1.15,17.1,30,20.23,35.09-3.11,59.22-3.04,123.41-3.83,182.93l-4.3,217.62c-.43,3.9.3,2.61-2.44,4.82-4,.62-2.35.75-6.29-.71-1.81-2.09-3.21-4.22-3.13-7.08.39-13.07.31-26.47.3-39.49l-.21-89.23c-.04-100.92.85-203.14-.33-303.96Z"/>
  <path class="st2" d="M994.46,686.11c-9.27,1.02-13.44,8.67-22.48,3.23-2.69-7.44,10.4-14.9,16.52-16.95,21.19-7.05,47.34-7.09,67.95,1.99,5.25,2.32,10.84,8.98,7.4,14.89-5.78,2.86-18.72-3.65-29.02-4.88-11.31-1.48-29.62-1.5-40.36,1.72Z"/>
  <path class="st4" d="M994.46,686.11c10.74-3.21,29.05-3.2,40.36-1.72l-2.18,1.33c.02,2.05.06,3,.32,5.04-3.54,2.82-4.22,1.06-7.77-1.72l-3.04-.2-2.24,2.57c4.52,3.97,9.57,7.95,12.45,13.22-.12,4.24-.84,6.3-4.99,8.49,2.72,2.92,6.22,6.06,4.71,10.03-7.23-1.21-23.3-18.23-26.24-24.87-.79-6.36,2.8-7.18,1.45-11.48-3.42-1.55-8.59-.76-12.83-.69Z"/>
  <path class="st2" d="M1005.84,698.28l1.81-2.6c6.88.72,12.38,12.36,19.72,17.44,2.72,2.92,6.22,6.06,4.71,10.03-7.23-1.21-23.3-18.23-26.24-24.87Z"/>
  <path class="st2" d="M1032.36,704.63c-.66,1.89-.61,1.75-2.09,3.13-5.03-.53-18.33-14.6-18.99-19.81l1.25-.8c3.93.68,4.29,1.43,7.38,4.27,4.52,3.97,9.57,7.95,12.45,13.22Z"/>
  <path class="st2" d="M1018.26,763.99c5.82-5.22,22.68-19.62,32.47-10.75,1.9,1.72,1.76,3.83,1.77,6.22-5.44,11.27-15.64,2.12-24.31,3.22l-2.48,1.86.05,1.64c-2.65,5.73-8.14,9.36-13.16,3.77-1.14-2.59-.46-1.71-3.62-3.16l.08-.55c1.15-1.49,1.02-1.52,1.82-3.26-1.98-2.86-1.89-1.92-2.19-4.99,3.58.94,6.48,3.74,9.57,6.02Z"/>
  <path class="st4" d="M1010.88,762.96c7.18.65,10.04.39,17.31-.29l-2.48,1.86.05,1.64c-2.65,5.73-8.14,9.36-13.16,3.77-1.14-2.59-.46-1.71-3.62-3.16l.08-.55c1.15-1.49,1.02-1.52,1.82-3.26Z"/>
  <path class="st2" d="M1012.6,769.94c4.71-3.03,7.62-3.93,13.16-3.77-2.65,5.73-8.14,9.36-13.16,3.77Z"/>
  <path class="st2" d="M1008.98,766.78c-7.62,5.8-23.5,10.8-24.35-2.99,5.18-10.53,17.57-1.54,24.43,2.43l-.08.55Z"/>
  <path class="st2" d="M1013.29,776.93c2.73-1.66,6.15-1.71,8.93-.13,2.77,1.58,4.47,4.55,4.43,7.75-.04,3.2-1.81,6.12-4.63,7.63-4.2,2.25-9.42.75-11.79-3.38-2.36-4.13-1.01-9.4,3.06-11.87Z"/>
  <path class="st2" d="M1007.02,710.4c3.04,1.54,11.27,8.8,13.94,11.74,6.05,6.64,10.21,9.59,10.31,18.57-7.09-5.32-15.03-13.63-20.93-20.34-3.13-3.56-3.55-5.26-3.32-9.96Z"/>
  <path class="st2" d="M1006.3,725.5c6.34,1.44,22.41,19.44,24.42,25.52-5.32.26-6.24-.61-10.22-4.46-6.31-6.11-13.72-11.85-14.2-21.06Z"/>
  <path class="st2" d="M1007.65,739.78c4.66,3.45,13.21,11.52,14.2,17.48-8.92.52-15.88-8.43-14.2-17.48Z"/>
  <path class="st4" d="M607.94,115.85c-3.06-10.07-9.91-19.79-13.4-30.3,2.57,1.87,15.57,25.89,19.36,31.46l-5.96-1.16Z"/>
  <path class="st2" d="M389.62,1234.28c-54.48,8.26-43.85,49.19-45.17,89.93-1.28,39.65,20.63,61.89,60.18,57.67,40.82-7.72,43.81-27.7,44.59-63.78,1.03-47.62,1.65-87.28-59.6-83.82ZM423.13,1318.1c.74,20,.16,36.51-22.94,41.04-41.74.67-27.42-39.23-29.63-67.51-1.46-18.74,3.52-32.07,23.43-35.29,37.33.44,28.16,35.11,29.14,61.76Z"/>
  <path class="st2" d="M1758.09,1234.22c-37.91,6.47-44.22,29.95-42.82,64.93,1.03,25.84-5.42,56.17,19.55,73.83,11.74,8.31,28.44,10.18,42.46,8.6,14.65-3.33,26.25-7.71,34.69-21.16,3.2-5.12,5.4-10.8,6.46-16.75,1.42-7.68.9-14.26,1.34-21.81,2.72-46.96.97-92.81-61.68-87.64ZM1775.15,1358.7c-34.4,2.44-35.19-17.64-33.93-45.9.98-22.03-6.87-45.93,18.99-55.49,37.47-3.86,33.39,24.86,33.41,51.64.01,20.36,5.2,40.95-18.47,49.75Z"/>
  <path class="st2" d="M560.07,1250.41c-18.2-17.8-44.58-13.48-67.59-13.89-4.85-.09-14.26.15-19.09.53-2.6,5.53-2.47,127.66-1.27,139.18,3.76,5.14,20.48,3.6,26.87,3.55,20.88-.15,40.04,1.21,57.77-11.8,12.26-12.35,16.38-26.5,14.94-43.64-1.95-23.1,6.53-56.16-11.64-73.93ZM538.1,1350.31c-10.89,8.95-26.54,6.52-40.23,6.03-.38-11.71-1.22-91.75.78-96.88,52.93-1.87,46.81,9.88,47.34,57.31.14,12.91.59,23.18-7.88,33.54Z"/>
  <path class="st2" d="M1189.25,1272.91c-.87-5.46-2.69-10.73-5.38-15.56-14.31-25.39-46.35-21.33-71.17-20.87-4.78-.03-17.08-1.31-20.58,2.1-1.97,1.92-1.96,114.5-1.13,128.3.22,3.57.52,7.14,1.64,10.55,10.38,6.11,60.57,1.82,73.01-3.24,9.42-5.08,19.75-13.05,22.3-23.7,3.56-14.83,3.57-64.13,1.31-77.58ZM1156.76,1350.61c-12.04,8.31-25.76,6.18-40.41,5.94-.13-32.58-.03-65.16.28-97.74,30.32-.43,49.81-2.34,48.01,36.4-.82,17.65,3.92,41.31-7.88,55.4Z"/>
  <path class="st2" d="M1646.22,1372.86c-7.19-16.67-21.39-35.04-29.33-51.11,11.05-3.74,19-8.09,24.3-19.02,9.81-20.26,4.87-51.15-17.82-60.58-20.45-8.48-50.12-5.62-72.46-5.31-2.02,5.7-2.11,128.81-.65,140.62,4.92,3.73,18.62,1.88,25.04,1.25.78-16.52.46-37.09.05-53.75l15.82-.07,29.28,52.75c5.02,3.06,19.19,1.83,25.3,1.04,1.16-1.95,1.58-3.25.47-5.82ZM1575.36,1303c-.23-14.32.15-29.56.27-43.95,17.31-.29,42.88-3.59,43.51,20.59.22,8.62-1.1,11.77-6.64,17.86-9.39,7.34-25.19,5.54-37.14,5.5Z"/>
  <path class="st2" d="M773.85,1322.69c10.86-5.47,21.64-12.55,24.45-24.93,15.74-69.19-50.8-62.85-91.88-60.65-2.47,6.08-2.14,130.15-1.06,142.02,5.59.15,19.27,1.14,23.55-1.31,3.28-7.15,1.97-42.74,2.03-52.78,5.33-.07,10.93-.24,16.23-.2,9.91,16.85,19.78,36.28,28.93,53.72,4.75,1.47,21.37,1.71,25.89-.5,2.4-6.32-23.48-46.56-28.14-55.37ZM768.11,1297.95c-9.96,7.33-24.69,5.2-37.04,4.89-.3-14.51-.3-29.02,0-43.52,21.12-.57,47.1-3.64,42.74,27.76-.65,4.7-2.8,7.39-5.71,10.87Z"/>
  <path class="st2" d="M319.59,1248.15c-13.05-11.77-29.46-12.03-46.21-11.66-7.82.03-31.23-.76-36.86,2.2-2.48,20.68-.44,58.14-1.08,80.74-.29,10.43-.69,48.64.22,57.62,3.74,3.21,21.3,3.45,23.49-.01,4.4-6.96,2.15-24.27,2.26-32.29l-.28-16.14c19.25-.59,45.26,1.29,59.52-13.55,16.27-16.93,16.83-50.84-1.05-66.91ZM304.45,1291.19c-.93,4.32-4.19,7.5-7.23,10.51-10.26,5.04-24.71,3.85-36.16,3.75-.08-7.11-1.21-41.27,1.12-45.41l2.69-.51c22.7-.45,46.83-1.87,39.57,31.66Z"/>
  <path class="st2" d="M1516.59,1322.53c-5.79-18.24-11.75-36.43-17.86-54.56-2.92-8.63-7.27-22.39-11.22-30.36l-24.94.32c-4.35,7.02-45.77,133.81-44.93,138.77,4.34,3.85,14.73,2.5,20.52,2.17,1.26-.07,2.52-.16,3.78-.25,2.86-7.76,5.85-18.75,8.78-25.65l38.58.09h11.76c2.12,8.54,4.36,18.12,7.62,26.24,7.36.22,17.07,1.06,23.77-1.47l1.35-1.49c-2.48-12.88-12.68-39.97-17.21-53.81ZM1475.49,1330.67l-18.87.21c5.6-20.04,12.42-40.04,17.87-60.06,2,2.25,16.87,52.48,19.01,59.48l-18.01.37Z"/>
  <path class="st2" d="M968.22,1237.1c36.53-1.19,22.25,1.89,25.4,28.52,2.53,21.43-10.77,87.65,16.01,92.67,30.92,5.81,32.18-19.86,31.7-41.89-.49-22.55.21-44.49-.46-67.06-.05-3.07-.07-10.73,3.49-11.56,4.81-1.12,14.85-1.93,19.19.2,4.69,5.07,3.21,14.74,3.11,22.15.14,23.63.17,47.58.05,71.55.64,40.5-31.15,56.66-67.26,47.86-17.44-4.25-33.26-22.63-31.94-39.56,1.71-22.02-4.39-85.88.7-102.88Z"/>
  <path class="st2" d="M669.08,1236.52c3.13-.13,9.19-.66,11.76.84,4.75,2.77,4,15.89,1.31,19.86-4.37,3.48-53.42,1.97-62.18,1.97-.42,12.2-.17,24.5-.03,36.71,11.75.15,40-1.3,52.5.95,3.37.61,3.3,14.88-.23,19.47-6.04,3.03-43.29,1.95-52.22,1.94l.07,38.72,47.18-.43c4.86-.12,10.65-.69,15.07.91,3.97,3.89,3.95,17.58.45,21.3-19.91,2.55-61.22-.02-82.85.43-3.25.07-3.87-1.38-5.43-3.38-1.62-13.14-1.31-127.01.87-136.68,4.61-3.55,63.21-2.56,73.72-2.61Z"/>
  <path class="st2" d="M1301.55,1234.3c22.84-2.02,41.44,2.19,54.65,22.55.46.7,1.8,3.67,1.22,4.43-3.67,4.89-12.44,9.12-17.71,12.16-11.01-12.92-28.04-26.84-44.62-10.22-11.82,11.86-8,34.57-8.78,49.68-.24,4.59.23,10.17.19,14.83.03,4.12.64,8.48,1.5,12.48,2.84,13.31,14.64,20.06,27.62,18.74,10.58-1.06,15.17-5.69,21.66-13.39l2.05-2.14c5.65-.84,22.97,8.03,16.57,16.85-23.6,32.76-84.47,29.21-93.54-14.35-3.33-18.08-1.44-37.43-1.68-55.7-.42-31.21,10.02-49.28,40.87-55.92Z"/>
  <path class="st2" d="M920.19,1237.5c17.37-.88,24.3-4.63,23.3,15.67-1.44,28.97,1.76,58.65-.23,87.64-2.78,40.42-43.16,50.73-75.45,34.09-8.93-6.42-11.51-8.54-17.23-17.79,4.75-6.1,9.46-9.56,15.77-13.84,12.65,12.41,34.96,29.45,47.6,5.75,9.51-17.83-.89-101.47,6.24-111.52Z"/>
  <path class="st2" d="M1669.77,1237.47c5.97-.31,16.77-1.47,21.8.89,1.67,4.75,1.86,40.93,1.42,45.14-1.31,12.45,2.95,89.08-2.31,95.6-5.81.17-17.5,1.22-22.08-1.56-1.92-5.89-1.27-24.22-1.25-31.23.08-34.17-.57-68.37.19-102.53.08-3.62.32-3.59,2.23-6.31Z"/>
  <path class="st2" d="M1228.91,1237.45c4.58-.22,6.33-.79,8.9,3.18,1.11,13.54,1.32,133.32-1.95,137.65-4.45,1.84-8.88,1.29-13.8,1.22-3.71-.03-5.29.38-8.17-1.62-2.2-5.22-1.62-126.09-.81-139.55,4.92-.46,10.82-.61,15.83-.88Z"/>
  <path class="st2" d="M1376.82,1237.31c8.34-.15,14.12-.11,22.53.48.75,6.44,1.21,33.39.69,39.7-1.16,14.02,2.74,95.27-2.41,101.83-6.09.3-14.31,1.06-19.91-.68-4.18-3.83-3.84-33.67-3.1-39.48,1.72-13.61-2.75-94.72,2.2-101.85Z"/>
  <path class="st2" d="M1013.45,1446.25c-8.73-6.19-27.95-4.44-38.61-4.18-.2,22.7-.12,45.41.21,68.11,15.13.35,28.02,2.51,40.86-5.37,8.21-12.12,11.13-48.92-2.46-58.56ZM1015.22,1477.65c-.43,9.85,1.21,13.5-4.58,22.46-8.38,5.8-19.03,4.29-29.19,4.12.18-18.71.26-37.42.23-56.13,26.7-.89,34.84-.89,33.53,29.55Z"/>
  <path class="st2" d="M1318.47,1440.31c-18.34,2.12-24.39,11.63-25.07,29.42-.76,20.09-.45,40.31,25.03,42.46,14.23-1.64,23.46-7.08,23.62-23.23.2-20.31,5.58-47.79-23.58-48.65ZM1336.09,1477.89c-.41,13.05.18,20.9-12.18,27.82-21.33,1.18-24.17-11.34-23.72-29.92.31-12.75-.17-21.49,11.8-28.55,21.97-3.38,24.65,12.9,24.1,30.65Z"/>
  <path class="st2" d="M1678.92,1440.29c-8.33,2.78-10.89,4.41-15.66,12.54-4.98,8.51-4.61,34.18-1.83,42.99,1.8,5.82,5.84,10.69,11.23,13.53,4.86,2.5,10.61,2.65,15.96,2.23,19.93-4.14,19.6-14.69,19.86-31.65.36-24.3-.33-40.24-29.56-39.64ZM1698.68,1498.57c-2.14,4.78-6.91,6.15-11.55,7.34-20.47-.05-20.96-13.77-20.73-30.75.2-13.68.83-24.32,15.65-29.01,2.21.13,7.42.59,9.33,1.51,14.26,6.88,12.88,38.46,7.3,50.91Z"/>
  <path class="st2" d="M1824.6,1440.24c-21.86,4.2-20.95,16.62-20.98,35.18-.04,20.9,1.25,37.9,27.92,36.26,19.03-3.76,20.04-15.84,20.93-32.51,1.07-20.17-2.76-39.96-27.87-38.93ZM1845.53,1483.88c-.35,9.82-2.68,17.22-12.01,21.44-24.24,1.48-23.86-12.4-23.45-32.71.23-11.61.53-19.96,11.84-25.49,25.92-2.57,24.33,17.1,23.62,36.76Z"/>
  <path class="st2" d="M498.66,1447.45c-8.78-7.83-29.99-5.69-40.55-5.49l.73,68.48c14.85.25,27.96,2.5,39.94-6.07,2.18-2.58,5.37-6.45,5.65-9.64,1.15-12.83,4.9-37.76-5.77-47.28ZM498.71,1479.09c-.36,8.07.16,14.55-4.94,21.37-9.06,5.46-18.26,4.4-28.81,4.49l.19-56.96c27.27-1.09,34.98-.77,33.56,31.1Z"/>
  <path class="st2" d="M1783.44,1446.21c-9.11-6.38-28.11-4.4-38.21-4.15.24,22.68.32,45.37.23,68.05,13.68.23,28.49,2.21,40.16-4.85,2.34-3,5.48-7.48,5.65-11.16.64-13.19,4.64-39.15-7.83-47.89ZM1780.06,1500.88c-8.72,4.51-18.04,3.56-28,3.73-.21-18.73,0-37.81.04-56.56,6.63-.18,21.92-1.35,26.69,3,9.71,8.85,9.04,40.28,1.27,49.83Z"/>
  <path class="st2" d="M1511.06,1441.2c-17.07,6.36-16.48,19.15-17.08,34.8-.86,22.39,5.43,38.95,31.48,35.15,17.13-6.51,16.39-18.15,16.95-33.98.83-23.36-3.72-39.47-31.35-35.97ZM1535.88,1478.85c-.26,12.69-.61,20.77-12.83,27.04-21.27.48-22.82-11.96-22.33-30.71.33-12.56.37-21.24,12.06-28.1,22.98-.93,23.51,11.91,23.1,31.77Z"/>
  <path class="st2" d="M177.33,1474.79c5.61-8.53,16.38-19.71,3.09-27.73-11.02-6.65-26.3-4.94-38.75-4.72.53,21.21.74,47.11-.05,68.24,11.3.13,33.51,2.16,41.26-5.64,1.39-1.4,2.62-2.93,3.7-4.57,4.8-21.49-5.25-15.58-9.25-25.58ZM175.83,1468.49c-7.19,5.46-17.88,3.84-26.99,3.58l-.04-24.02c13.8-.42,39.39-2.15,27.03,20.44ZM176.64,1502.3c-7.92,3.3-19.13,2.73-27.88,2.86-.17-8.98-.07-17.95.28-26.92,16.25-.34,41.55-.75,27.6,24.06Z"/>
  <path class="st2" d="M103.16,1468.27c3.9-11.69-2.73-22.56-14.54-25.29-7.91-1.83-18.19-.76-26.37-.41l-2.03.58c-1.42,5.01-1.4,60.42.28,65.92l2.17,1.74,1.95-.27c2.68-4.52,1.56-21.48,1.47-27.56l15.08-.04,11.76,19.71c1.93,3.16,3.07,6.04,6.3,7.4l2.67-.24c2.41-5.34-10.32-21.09-13.57-26.83,7.69-3.87,11.89-5.88,14.83-14.71ZM92.71,1474.33c-8.36,4.15-17.13,3.31-26.57,3.47-.14-9.89-.11-19.78.08-29.66,9.46-.32,18.12-1.45,26.45,4.16,7.93,5.33,5.21,15.76.03,22.03Z"/>
  <path class="st2" d="M1467.71,1482.77c7.47-3.48,10.39-4.58,13.59-12.78,4.47-11.4.79-23.38-11.85-26.63-9.44-2.43-20.53-1.48-30.27-1.29-.09,10.1-1.38,61.43,1.42,67.54l2.25.7c5.21-3.78,2.89-21.44,2.59-27.93l14.66-.38c4.84,8.77,10.36,16.59,15.03,25.05,2.52,3.33,3.55,3.67,7.68,2.99l.65-1.44c-4.13-8.75-10.4-17.66-15.75-25.83ZM1445.68,1476.92c-.1-9.43.23-19.52.38-28.99,9.04-.21,17.42-1.12,25.46,4.04,7.69,4.93,5.55,15.64.9,21.96-8.53,4.24-17.15,3.11-26.74,2.99Z"/>
  <path class="st2" d="M1146.24,1500.69c6.11-15.24,12.21-30.54,18.4-45.75,2.03-4.98,5.08-12.53,10.75-13.66l2.17,1.72c1.26,2.55,2.78,8.18,2.4,10.85-1.16,8.14,1.67,51.89-2.08,55.88-3.53.42-2.11.91-4.57-.92-1.01-4.67-.3-43.52-.28-50.06.06-1.4-.23-2.06-.53-3.47-5.24,3.12-19.35,53.45-26.42,54.83-5.97-5.62-21.73-47.65-25.97-58.06-.03,8.41,1.6,53.23-1.55,57.75-3.08.1-1.78.56-4.09-1.25-2.06-11.8.37-45.33-.51-59.16-.22-3.54.01-5.24,2.25-7.41,6.52.24,8.15,3.88,10.54,9.53,6.81,16.12,13.16,32.89,19.49,49.18Z"/>
  <path class="st2" d="M1221.67,1443.37c-1.72-2.04-4.5-1.56-6.97-1.74-3.57,9.48-23.43,62.32-22.7,68.01,2.72,1.24,1.23,1.01,4.69-.08,2.39-2.43,4.88-11.2,6.15-14.95l18.91.26c4.01-.09,8.22-.6,11.83.83,4.96,7.15,2.2,12.72,9.5,15.72,1.41-.76,1.76-.51,2.19-2.22.86-3.46-21.12-62.92-23.6-65.83ZM1218.85,1489.09l-14.09-.31c4.47-12.39,8.53-25.46,12.62-38.03,4.46,4.75,11.95,30.87,14.3,38.62l-12.83-.28Z"/>
  <path class="st2" d="M367.05,1487.68c-5.37-13.98-10.23-28.02-14.89-42.26-1.32-4.06-4.62-3.65-8.18-3.59-3.18,8.56-24.22,64.48-22.88,67.92,3.39.76,1.7.81,5.21-.48,2.35-3.3,4.16-10.34,5.45-14.48l19.74.23,11.81.16c1.31,4.64,2.54,10.52,5.31,14.24,3,1.23,1.52,1.19,4.59.09,1.35-3.58-4.57-17.68-6.16-21.83ZM349.25,1489.33l-15.4.05c2.82-9.74,9.27-28.88,13.19-37.82,1.87,1.54,12.11,32.73,13.78,37.55l-11.57.22Z"/>
  <path class="st2" d="M918.28,1444.84c-.96-3.2-4.46-3.12-7.25-3.15-3.51,7.74-22.18,58.88-23.61,66.52l.9,1.83,2.08.59c4.38-2.47,6.3-11.2,7.76-16.04l21.09.1,10.58.24c1.46,4.76,2.8,10.66,5.82,14.36,2.87,1.15,1.49,1.17,4.29.01,1.52-5.2-18.89-55.28-21.66-64.46ZM915.25,1489.24c-4.87.25-10.32.2-15.25.26,4.37-12.95,8.9-25.84,13.58-38.67,1.8,1.99,12.27,32.88,14.19,38.11l-12.52.3Z"/>
  <path class="st1" d="M1418.85,1011.74c7.57-2,18.29-5.16,25.78-6.27-9.99,27.12-20.42,26.7-46.6,34.29-6.48,1.88-15.57,5.32-21.75,8.08,2.73-5.33,7.79-19.97,9.34-21.86-.26-3.03.26-1.64-2.04-4.11.25-14.4,21.34-16.82,32.5-13.61.7.94,1.96,2.79,2.77,3.48Z"/>
  <path class="st1" d="M1383.58,1021.87c.25-14.4,21.34-16.82,32.5-13.61-4.3,2.32-12.79,4.77-17.98,6.79-3.2,1.25-13.15,6.41-14.52,6.82Z"/>
  <path class="st4" d="M1416.08,1008.26c.7.94,1.96,2.79,2.77,3.48-8.48,2.54-15.61,4.76-23.56,8.76-2.96,1.49-7.25,4.55-9.67,5.48-.26-3.03.26-1.64-2.04-4.11,1.37-.41,11.32-5.57,14.52-6.82,5.19-2.02,13.68-4.47,17.98-6.79Z"/>
  <path class="st1" d="M1639.31,689.82c1.06.34.6.23,1.47,1.57-.25,14.61,2.74,34.68-2.9,47.87-4.5,10.52-13.74,18.39-25.24,12-2.69-.57-3.16-.61-5.72-1.93-8.28-15.31,19.39-50.97,32.39-59.51Z"/>
  <path class="st1" d="M1605.73,682.9c4.61-7.14,11.22-17.22,16.75-23.58,1.23,6.7,4.05,19.75,4.47,25.66-2.08,4.86-26.13,44.3-29.58,48.01-2.25-7.28-2.45-10.39-6.78-16.66l-1.09-1.9-1.83.27-1.28-1.47c-9.81-10.88,4.55-31.18,15.89-31.43l3.45,1.1Z"/>
  <path class="st1" d="M1586.39,713.23c-9.81-10.88,4.55-31.18,15.89-31.43-7.22,11.78-12.76,16.6-15.89,31.43Z"/>
  <path class="st4" d="M1602.28,681.8l3.45,1.1c-7.39,10.52-12.88,20.68-15.14,33.43l-1.09-1.9-1.83.27-1.28-1.47c3.13-14.83,8.67-19.65,15.89-31.43Z"/>
  <path class="st1" d="M1418.63,1041.32c7.79-.6,13.2-.54,20.94-.39-20,13.99-18.62,36.75-44.88,38.8-17.95-1.44-13.48-3.71-20.39-17.72,14.48-13.48,24.7-17.54,44.33-20.69Z"/>
  <path class="st1" d="M1595.7,825.02l1.91.52c-9.8,21.41-4.05,50.82-34.13,55.38-2.86.43-5.11-2.65-6.87-4.43-2.75-2-6.85-4.54-9.77-6.47,10.52-23.18,25.34-35.3,48.86-45Z"/>
  <path class="st1" d="M1526.06,941.11c1.9-.01,1.03-.28,2.61.83-2.99,4.3-5.4,6.43-7.95,11.4-5.01,9.75-6.51,21.76-14.87,29.36-5.38,4.89-15.3,7.73-22.58,7.58-2.3-.04-2.76-1.29-4.19-2.97-2.7-3.41-6.9-7.64-9.96-10.89,17.45-22.01,30.32-27.85,56.94-35.31Z"/>
  <path class="st1" d="M1149.77,1157.38c23.45-.3,32.93,3.75,53.63,13.55-11.78,2.03-16.25,3.74-26.94,9.15-11.24,6.73-22.81,10.78-36.18,4.36-9.08-4.36-4.96-13.3-7.34-22.57l-.36-1.36c7.04-1.9,9.93-2.42,17.19-3.13Z"/>
  <path class="st1" d="M1289.44,1114.42c14.67-.27,23.54,1.33,37.83,3.76-14.03,9.13-22.07,17.13-34.38,25.43-11.32,4.78-19.6,1.2-31.16-1.96-.46-8.02-1.03-9.16-4.28-16.24,11.78-6.89,18.55-9.43,31.99-10.99Z"/>
  <path class="st2" d="M264.07,1441.45c1,.21.99.19,2.08.53,7.63,2.4,31.13,47.27,36.01,56.46.04-6.48-.5-51.37.77-54.68,2.59-1.32,1.23-1.1,4.26-.4,3.58,4.65,1.03,55.04,1.48,64.06.11,2.13-2.9,3.02-5.09,4.15-5.24-5.78-29.85-50.2-35.47-59.79.08,6.72.48,52.71-.38,56.46-2.24,2.11-.94,1.6-4.04,1.52l-1.47-1.68c-1.58-10.72-.35-50.79.14-64.08.57-.85,1.14-1.7,1.71-2.55Z"/>
  <path class="st1" d="M1335.5,1084.43c3.12-.05,2.72-.5,5.11.79-.43,1.77-.34,1.29-1.27,2.55-19.37,26.07-34.46,18.75-65.14,21.98-2.37.42-4.42,1.1-6.61.34-.14-2.49,3.82-6.96,5.39-12.79l.31-1.16c20.72-11.76,38.71-10.46,62.21-11.71Z"/>
  <path class="st1" d="M1166.67,1133.43c19.04-1.42,37.97,3.07,56.64,6.39-8.95,6.52-14.41,10.49-24.48,15.13-9.84,2.77-20.33-1.33-30.32-3.12-8.93-1.6-16.65-2.24-25.71-2.78,6.69-4.77,7.46-6.35,11.25-13.35,4.14-1.05,8.39-1.61,12.62-2.27Z"/>
  <path class="st2" d="M1398.08,1440.29c8.68-.18,23.77,3.92,27.41,12.4-1.18,3.27-.53,2.13-3.92,4.38-7.52-6.07-19.87-15.28-30.08-8.63-9.38,6.12-7.49,23.12-7.46,32.79.05,11.54,1.28,23.37,15.65,24.59,12.63.94,20.21-8.85,18.96-20.89-.39-3.73,1.17-2.15-1.66-5.02-4.38.19-8.92.88-12.8-.76-1.53-2.62-1.34-1.27-.69-4.15,2.92-1.35,17.28-.51,21.43-.49.14,7.41,1.16,20.33-2.24,26.64-5.98,10.82-24.01,13.63-34.3,7.54-15.52-9.18-13.92-41.04-8.44-55.57,2.93-7.76,10.09-11.33,18.14-12.83Z"/>
  <path class="st1" d="M1526.65,905.09c2.14,2.86-2,10.38-2.97,13.67-7.16,24.34-31.73,23.69-49.32,39.4l-.98.88-.68-.67c.67-5.98.92-12.84,1.28-18.91,11.2-14.7,36-26.74,52.67-34.38Z"/>
  <path class="st1" d="M1587.31,790.81l1.41.76.03,1.46c.4,25.95-5.7,29.34-25.08,43.33-6.34,4.58-12.84,11.1-18.39,16.75-.3-6.7-1.73-10.18-3.95-16.47,12.91-18.72,27.61-32.75,45.98-45.82Z"/>
  <path class="st1" d="M477.73,767.33c21.64,7.2,30.05,40.21,21.68,59.59-21.73-16.05-31.32-33.07-21.68-59.59Z"/>
  <path class="st2" d="M1036.06,1442.21c7.83-.05,35.5-1.33,41.11.81l.73,1.82-1.33,2.27c-2.92,1.64-28.2,1.17-33.49,1.28l-.6,24.53c7.1-.14,20.9-.9,28.13.12,1.72.25,2.34,2.11,2.9,3.36-3.53,4.21-20.98,1.36-29.5,2.87l-1.15,1.67-.49,23.68c5.34-.22,30.53-.62,34.69.5l.93,1.96-.92,1.2c-6.95,3.16-31.83,1.9-40.83,1.8-.83-19.39-.64-48.54-.18-67.87Z"/>
  <path class="st2" d="M850.93,1441.33c9-1.26,23.82-.26,28.47,9.95,1.03,2.26,1.05,2.45.1,4.5-3.22-.06-7.43-3.49-10.34-4.96-26.57-13.37-29.88,9.58-28.25,29.7.94,10.5-.98,21.51,11.79,24.98,12.42,3.38,15.34-3.63,24.91-9.02l1.76.52c.39,3.19-.71,4.61-2.15,7.67-7.46,5.97-11.5,6-20.95,7.57,4.81,3.05,7.59,4.37,9.72,9.59-1.23,10.74-16.76,11.26-16.8,4.17l1.72-.96c4.47.2,7.44,1.34,9.22-3.07-2.23-4.38-2.05-1.35-6.76-5.21,1.55-9.55-14.49-4.81-16.99-16.86-4.23-20.36-7.64-49.16,14.56-58.57Z"/>
  <path class="st1" d="M676.28,1079.21c14.83-1.96,27.7,2.71,40.64,9.6-8.1,5.84-15.19,9.04-24.42,12.65-16.05,3.59-27.34,2.43-39.89-8.69,8.2-7.37,13.41-9.83,23.66-13.56Z"/>
  <path class="st1" d="M535.66,771.72c4.61,3.74,5.89,16.02,4.74,21.77-3.06,15.37-11.23,27.52-23.86,36.63-.87-.14-1.77-.67-2.63-1.08-2.58-3.72-2.1-7.97-2.28-12.31-.82-20.42,8.64-32.97,24.02-45.01Z"/>
  <path class="st1" d="M587.08,1003.39c15.13-.25,27.78,6.58,38.79,16.46-8.52,3.95-17.3,5.64-26.45,7.25-17.19,1.45-26.13-3.33-39.21-13.86,9.64-6.28,15.63-8.51,26.87-9.85Z"/>
  <path class="st1" d="M582.79,862.54c4.69,1.97,8.28,14.1,8.35,19.16.21,15.73-7.07,30.39-17.78,41.56-17.64-18.08-5.55-45.36,9.43-60.71Z"/>
  <path class="st2" d="M200.47,1441.38c2.15.43,2.01.43,3.84,1.67,7.45,18.88-11.69,64.41,20.65,62.63,26.59-1.46,7.43-53.36,16.18-63.93l2.07.33c3.05,2.57,2.21,1.14,2.74,5.67-.12,12.87,1.68,37.82-1.02,49.34-5.4,23.06-49.65,18.74-45.9-10.92,1.51-11.88-2.38-33.31,1.42-44.79Z"/>
  <path class="st1" d="M770.08,1093.23c21.92-1.71,33.33,4.56,47,22.43,1.63,2.14,3.93,5,3.53,7.58l-2.36.63c-1.77.24-3.54.43-5.32.56-14.79.95-41.41-8.4-46.15-26.78-.54-2.07,1.68-3.21,3.29-4.42Z"/>
  <path class="st2" d="M1626.47,1440.29c8.42.28,20.44,2.37,22.48,12.4-4.79,3.92-11.15-8.5-22.49-5.85-8.23.2-15.84,8.76-13.06,17.33,4.25,13.1,35.82,7.29,37.74,23.67,2.09,17.93-8.55,22.13-23.18,24.12-5.8-.8-22.75-4.38-23.07-11.56,2.56-2.32,1.14-1.78,4.21-2.12,10.38,9.07,35.34,13.99,35.82-7.97.24-10.94-38.29-9.48-38.77-25.45-.5-16.51,6.38-21.88,20.32-24.57Z"/>
  <path class="st1" d="M500.01,911.27c22.28-1.44,33.66,6.11,48.31,22.71-4.61,1.27-9.38,2.01-14.09,2.85-15.57,1.32-35.67-3-45.92-17.54-1.02-1.45,0-3.08.6-4.6,3.25-2.74,6.76-2.75,11.11-3.41Z"/>
  <path class="st1" d="M910.93,1167.36c5.73-.39,14.43.4,20.38.76-12.36,15.15-19.08,23.91-38.65,29.84-7.88,1.24-12.4-.03-20.01-1.83,8.41-17.91,18.8-26.09,38.28-28.77Z"/>
  <path class="st2" d="M1905.99,1440.36c2.77-.01,5.55.24,8.27.77,5.27.98,12.05,4.7,15.19,9.27l-1.15,2.45c-8.6.63-12.77-9.08-23.49-6.44-3.12.53-8.96,2.7-10.46,5.98-9.92,21.7,18.64,18.96,29.81,26.23,2.83,1.68,6.52,5.45,6.63,9.12.54,17.85-7.87,22.41-22.85,23.93-6.83-.56-22.32-3.07-23.36-11.4l1.14-1.45c5.98-.15,16.93,7.97,24.21,7.23,2.86-.07,10.44-2.83,11.67-5.58,13.89-28.93-33.66-14.91-36.18-35.31-1.91-15.45,6.86-22.67,20.57-24.8Z"/>
  <path class="st2" d="M519.97,1442.19c8.56-.1,36.19-1.62,42.41,1.44l.06,1.59c-4.82,4.78-28.1,2.84-35.82,2.74-.15,8.25-.11,16.68-.15,24.95,8.39-.22,23.18-1.36,30.55,2.16l-.11,1.27c-7.88,3.34-21.83,2.19-30.64,1.98v25.95c5.72-.03,33.46-1.1,35.87,2.43l-.38,1.52c-6.6,3.06-33.51,1.93-42.34,1.88l.55-67.91Z"/>
  <path class="st1" d="M809.58,1058.68c22.78,10.33,31.62,34.35,24.36,57.74-22.64-14.33-31.26-31.87-24.36-57.74Z"/>
  <path class="st1" d="M524.7,868.33c27.49,6.66,33.97,27.71,32.3,53.75-24.32-12.43-34.2-26.51-32.3-53.75Z"/>
  <path class="st2" d="M1568,1441.14c7.8-.71,21.93.85,27.18,7.13.13,3.03.49,1.6-1.55,4.31-4.7,1.57-12.58-7.13-21.12-5.99-6.56-.48-15.72,9.94-13.45,16.21,5.39,14.91,35.94,7.72,38.75,26.6,2.06,13.84-6.19,20.1-18.69,22.1-6.6.44-27.73-2.5-27.29-10.81,2.89-3.15,5.55-2.19,9.43.58,12.46,8.88,32.9,5,28.43-13.59-3.57-8.7-20.35-7.96-26.88-11.37-17.75-9.28-10.79-28.71,5.19-35.17Z"/>
  <path class="st1" d="M432.07,805.27c14.19-1.32,22.1-.67,34.96,6.91,7.64,4.5,17.91,16.05,19.74,24.63-22.16.8-50.16-6.17-54.7-31.54Z"/>
  <path class="st2" d="M1942.46,1441.34c1.12.14,3.89.39,4.34,1.29,6.01,14.8-.57,34.5,2.45,50.67,2.28,12.24,13.98,14.9,23.75,11.16,17.37-6.66,4.14-50.11,10.09-61.98,2.95-.7,1.48-.8,4.5.83l.61,2.44c.19,13.43,3.2,54.28-5.78,59.57-51.98,30.64-41.01-49.47-39.96-63.98Z"/>
  <path class="st1" d="M398.28,687.95c24.95-.24,43.11,15.96,49.57,39.62-25.71-1.74-44.96-13.1-49.57-39.62Z"/>
  <path class="st1" d="M673.22,1035.37c12.63-.13,22.91,1.8,31.91,11.26,4,4.2,16.43,22.45,16.28,27.22-16.71-.93-30.73-6.27-42.11-19.1-4.25-4.79-8.74-13.09-6.09-19.38Z"/>
  <path class="st1" d="M644.62,942.36c3.87,1.16,9.53,9.96,10.84,13.79,5.93,17.43-.71,31.88-8.01,47.55-5.65-2.98-10.52-13.33-12.02-19.58-3.92-16.29.4-28.3,9.2-41.76Z"/>
  <path class="st1" d="M591.48,957.57c24.69,3.11,37.45,25.22,40.81,47.84-25.81-7.96-42.43-18.65-40.81-47.84Z"/>
  <path class="st2" d="M722.2,1441.3c9.01-.59,21.22.32,26.95,8.61l-1.99,2.62.04-.04c-7.04.48-17.64-9.38-24.1-5.3-27.89,17.6,2.66,25,17.51,29.89,4.88,1.61,9.65,7.65,10.33,10.79,3.35,15.31-3.69,20.97-17.18,24.17-10.46.13-20.8-.99-27.4-10.18l.27-1.31c4.48-.12,43.73,18.17,36.74-12.19-2.42-10.52-32.37-7.36-35.3-20.87-3.16-14.61.46-21.57,14.14-26.19Z"/>
  <path class="st2" d="M649.43,1441.25c15.66,2.84-4.99,54.09,13.79,62.25,41.49,18.01,15.16-57.82,28.91-61.44l1.95,1.48.42,3.37c.15,14.32,4.01,48.11-6.36,58.84-7.71,8.51-28.73,7.86-34.43-2.1-7.62-13.33-5.88-48.04-4.27-62.4Z"/>
  <path class="st1" d="M451.83,659.28c.53.16,1.04.27,1.5.62,18.24,13.67,17.92,41.84,8.37,60.37-6.61-4.5-12.61-14.53-15.05-22.02-4.88-14.99-1.56-25.6,5.18-38.97Z"/>
  <path class="st1" d="M787.49,1135.23c13.58-.86,19.05.85,32.32,3.57-11.37,11-15.79,14.29-30.52,19.98-12.83,3.91-19.57,1.76-31.72-3.03,8.39-11.76,15.96-16.94,29.93-20.52Z"/>
  <path class="st1" d="M722.02,1008.34c14.97,8.75,20.23,26.74,18.1,43.13-.54,4.15-2.42,13.94-4.9,16.97-20.56-16.77-23.8-36.56-13.2-60.1Z"/>
  <path class="st1" d="M905.41,1090.78c25.86,7.19,34.27,26.86,34.94,51.9-25.91-8.52-35.35-25.86-34.94-51.9Z"/>
  <path class="st1" d="M506.14,674.03c.72.42,1.28.55,1.5,1.42,5.82,23.01-11.67,41.68-30.31,50.67l-2.34-.3-.99-1.69c.58-24.78,10.56-38.54,32.14-50.1Z"/>
  <path class="st1" d="M884.48,1130.29c18.4-.76,32.6,8.65,44.6,21.76-5.58,1.84-8.67,2.41-14.5,3.43-14.64,1.41-35.09-1.5-42.63-16.11-.32-7.66,6.35-7.9,12.54-9.08Z"/>
  <path class="st1" d="M1445.75,920.15c3.69,4.01,14.33,28.32,16.71,34.33,3.2,8.09-3.54,11.84-9.63,16.27-28.45-4.14-19.8-34.62-7.08-50.6Z"/>
  <path class="st1" d="M1148.02,1101.21c.56,1.59-1.72,10.54-2.22,13.01-3.07,15.09-4.15,37.39-25.46,31.37-13.56-24.48,7.14-37.75,27.68-44.38Z"/>
  <path class="st1" d="M1258.94,1064.03l.87,1.44c-.97,15.19,8.12,55.16-20.33,45.52-.62-.8-1.21-1.58-1.77-2.43-3.61-5.45-4.77-12.17-3.19-18.52,3.19-12.41,14.34-19.72,24.42-26.01Z"/>
  <path class="st1" d="M1512.3,820.71c10.76,16.45,35.67,29.96,17.75,48.53-9.28,2.2-16.57-2.03-20.29-10.92-5.64-13.48-2.75-24.59,2.54-37.6Z"/>
  <path class="st1" d="M1359.77,1002.75l.9.9c2.8,16.01,20.83,47.15-6.86,49.25-1.38-1-3.7-2.68-4.88-3.85-4.38-4.35-6.71-10.36-6.39-16.54.56-12.57,8.7-21.63,17.23-29.76Z"/>
  <path class="st1" d="M1556.72,712.29c13.56,10.68,42.37,17.77,31.75,39.47-14.22,7.18-26.46-3.06-30.78-16.35-2.76-8.49-1.94-14.43-.97-23.11Z"/>
  <path class="st2" d="M1481.05,1190.99c7.82-.43,16.19.01,24.06.24-6.77,11.11-14.31,21.72-22.57,31.78-3.97,2.62-15.26,5-17.92-.14.34-7.32,11.97-24.54,16.43-31.88Z"/>
  <path class="st2" d="M.72,1441.97c8.21-.08,43.73-2.23,48.06,3.18l-1.4,1.99c-5.11,1.45-13.14.89-18.68.79.1,14.5.11,29,.02,43.51.25,6.21,2.71,17.6-4.56,18.55l-1.74-1.57c-1.25-15.35-.36-43.66-.59-60.4-6.15-.08-13.01,1.24-18.71-.44-2.62-2.21-1.8-1.27-2.41-5.61Z"/>
  <path class="st2" d="M1241.94,1442.29c8.09-.14,42.71-2.83,46.46,3.34l-.95,1.3c-5.63,1.65-12.75,1.21-18.74,1.17l.16,43.19c.14,5.63,1.23,15.2-2.05,19.18l-3.1-.47c-3.13-3.82-1.8-53.07-1.76-61.96-5.34-.15-14.15,1.4-18.57-1.04-1.4-.77-1.15-2.58-1.45-4.71Z"/>
  <path class="st2" d="M757.09,1442.37c7.9-.12,40.7-2.29,44.57,2.99l-1.42,1.85c-4.9,1.55-12.45.97-17.83.86l.02,42.43c.12,5.18,1.15,16.09-1.89,19.62l-2.85-.11c-.48-.52-.96-1.04-1.44-1.56-.91-12.65-.38-49.75-.33-60.34-6.61-.04-13.98,2.19-18.84-1.64v-4.1Z"/>
  <path class="st2" d="M386.63,1441.6l3.7,1.01c3.57,3.95,1.51,53.9,1.4,62.2,7.06.03,30.21-2.31,33.7,2.63l-.55,2.89c-13.1.38-26.67.2-39.8.2.03-10.9-.42-60.02,1.56-68.93Z"/>
  <path class="st2" d="M628.3,1441.26c2.72.58,2.99.43,5.24,2.18.74,5.26.37,12.98.22,18.71-.47,13.55,3.25,29.15-4,41.48-8.32,14.16-24.75,9.4-35.84,1.78-1.89-2.74-1.97-2.83-2.4-6.08l.99-.86c4.03-.32,12.79,5.54,16.99,7.87,28.23,1.58,15.19-45.01,18.8-65.08Z"/>
  <path class="st2" d="M2006.42,1441.41c5.13,1.85,4.86,5.26,4.93,10.26.22,17.51-.08,35.29-.24,52.78,7.83.02,28.99-2.52,33.78,1.58l-.19,4.01h-40.01c-.06-10.26-1.6-63.25,1.73-68.63Z"/>
  <path class="st2" d="M813.72,1441.47c3.97.61,2.96-.08,5.76,2.18,1.56,13.04.68,52.23.47,67.23-3.21-.2-3.76-.02-6.29-1.75-1.77-6.91-.55-58.68.05-67.66Z"/>
  <path class="st2" d="M119.28,1441.51c2.56.65,2.54.78,4.63,2.21,1.92,6.32.79,58,.36,67.04-4.16-.36-3.86.39-5.95-1.88-.72-8.91-1.01-60.53.97-67.37Z"/>
  <path class="st5" d="M1240.41,1136.97c14.2.46,14.5,13.82,3.88,20.82-14.58-1.19-14.41-13-3.88-20.82Z"/>
  <path class="st5" d="M1359.32,1075.92c3.94.13,6.77.82,9.58,3.92,1.88,2.06,2.83,4.81,2.65,7.6-.27,4.55-2.13,6.46-5.32,9.32-15.91.08-16.14-10.82-6.91-20.84Z"/>
  <path class="st5" d="M1104.92,1140.97c14.8,1.48,14.69,13.19,3.61,20.89-13.69-.71-14.12-13.92-3.61-20.89Z"/>
  <path class="st5" d="M1442.08,974.77c13.37.86,14.38,12.19,5.65,21.23-12.18-3.78-19.16-12.94-5.65-21.23Z"/>
  <path class="st5" d="M1607.25,766.72c2.98-1.68,6.63-1.64,9.56.12,2.93,1.76,4.69,4.96,4.6,8.37-.08,3.42-2,6.52-5.02,8.13-4.58,2.44-10.27.75-12.77-3.8-2.5-4.55-.88-10.26,3.63-12.82Z"/>
  <path class="st5" d="M1519.52,875.88c4.76-2.13,10.34-.02,12.5,4.73,2.15,4.74.07,10.34-4.66,12.52-4.77,2.2-10.42.09-12.59-4.69-2.17-4.78-.04-10.41,4.75-12.56Z"/>
  <path class="st5" d="M1110.04,1169.66c3.35-.7,6.81.47,9.06,3.06,2.24,2.58,2.91,6.18,1.75,9.4s-3.97,5.56-7.35,6.12c-5.07.84-9.89-2.54-10.83-7.59-.94-5.06,2.33-9.94,7.37-10.99Z"/>
  <path class="st5" d="M1463.34,994.86c4.78-1.43,9.84,1.18,11.45,5.9,1.62,4.73-.78,9.88-5.44,11.68-3.18,1.24-6.78.63-9.38-1.58-2.59-2.21-3.78-5.66-3.07-9,.7-3.34,3.17-6.02,6.44-7Z"/>
  <path class="st5" d="M1228.37,1111.75c4.75-1.94,10.16.32,12.11,5.06,1.95,4.74-.3,10.17-5.04,12.12-4.75,1.97-10.19-.3-12.14-5.05-1.95-4.75.32-10.18,5.07-12.13Z"/>
  <path class="st5" d="M1343.12,1053.91c11.93.23,16.81,10.38,8.21,19.6-13.53-.04-17.92-9.62-8.21-19.6Z"/>
  <path class="st5" d="M1543.45,889.92c4.39-2.4,9.89-.81,12.32,3.56,2.43,4.37.89,9.88-3.46,12.35-4.39,2.5-9.99.93-12.45-3.48s-.85-10,3.59-12.42Z"/>
  <path class="st5" d="M1581.11,760.76c4.49-2.24,9.95-.4,12.17,4.1,2.23,4.5.38,9.95-4.12,12.16-4.49,2.21-9.92.37-12.14-4.11s-.39-9.92,4.09-12.15Z"/>
  <path class="st5" d="M834.51,1123.61c.53.04,1.05.09,1.58.15,3.65.44,4.53,1.06,6.55,3.68-.15,3.27-.65,5.34,1.05,7.95,9.46,3.98,8.61,6.38,1.98,13.72-3.49-1.14-5.53-1.78-7.62-4.64.11-3.3.49-4.85,1.17-8.11-4.34-1.84-5.8-2.2-7.67-6.12.6-4.36.05-2.68,2.97-6.63Z"/>
  <path class="st5" d="M642.28,1013.6c15.18.48,2.87,8.3,7.88,16.09,1.02,1.58,1.35,2.73,1.41,4.54-1.9,3.25-3.63,3.77-6.95,5.58-11.7-8.45-1.87-8.42-.23-14.8-2.85-1.6-3.27-1.65-4.99-4.29.02-3.59.69-4.01,2.88-7.12Z"/>
  <path class="st5" d="M564.55,931.93c3.84.74,4.47.63,7.47,2.91,1.64,6.35-5.09,3.59-.26,16.15-.58,3.23-2.68,4.94-4.95,7.49-4.91-2.33-6.03-2.85-7.28-7.88.81-2.99,1.99-3.5,4.48-5.52l.9-.71c.29-2.41-1.88-2.69-4.1-6.54.98-3.99.5-2.64,3.74-5.89Z"/>
  <path class="st5" d="M733.52,1077.92c3.83.21,5.77.29,8.38,2.86.21,3.64-1.53,4.48-3.81,8.54,3.87,3.66,3.48-.15,6.88,5.31.15,3.75-.64,4.46-2.57,7.9-2.77.42-3.41.16-6.08-.36-6.01-5.08.74-6.92-1.01-12.89-2.78-1.71-4.02-2.08-5.36-4.86.8-4.19.51-2.86,3.58-6.5Z"/>
  <path class="st1" d="M1560.21,803.75l2.55.98.16,1.54c-4.86,6.1-14.76,14.68-21.15,21.98-.88,1.04-.58.62-2.12,1.22-5.92-11.48,13.08-21.68,20.56-25.72Z"/>
  <path class="st1" d="M1169.54,1121.2c11.91.08,16.88,3.73,26.55,10.17l-13.06-1.44c-6.65-.78-19.62.19-23.74-1.96l.59-1.74c4.09-2.64,5.22-3.18,9.66-5.03Z"/>
  <path class="st1" d="M1290.14,1077.26c5.45-.27,13.24-.04,17.89,3.03l-.38,1.4c-3.98,2.16-10.14,2.23-14.87,2.65-4.67.96-12.79,3.7-16.32.49,2.59-3.92,9.33-6.09,13.68-7.57Z"/>
  <path class="st1" d="M1491.84,913.11c2.56-.18,2.54-.37,4.83.66-1.06,3.87-15.82,12.47-20.72,16.58l-1.06.9c-1.53,1.39-.69.92-2.68,1.21-1.07-9.48,12.57-16.44,19.63-19.34Z"/>
  <path class="st5" d="M500.49,850.51c3.3-1.16,6.92.52,8.16,3.79,1.23,3.27-.38,6.93-3.62,8.23-2.16.87-4.62.5-6.43-.97-1.81-1.46-2.69-3.79-2.3-6.09.39-2.29,2-4.2,4.2-4.97Z"/>
  <path class="st5" d="M518.47,842.63c3.51.91,5.52.98,7.71,3.77.65,2.53.81,2.72.74,5.42-5.37,4.18-12.35,5.1-13.61-3.14.96-3.28,2.29-3.81,5.16-6.05Z"/>
  <path class="st5" d="M577.22,935.3c1.97-1.14,4.4-1.12,6.35.04,1.95,1.16,3.12,3.29,3.06,5.57-.06,2.27-1.35,4.34-3.36,5.39-3.03,1.59-6.77.47-8.42-2.53-1.65-3-.6-6.76,2.36-8.47Z"/>
  <path class="st5" d="M951.92,1160.68c5.09.26,6.78-.15,9.53,4.32.16,3.98-.39,4.41-2.41,8.06-5.55-.28-7.51-.35-10.1-5.51.4-4.56-.18-2.78,2.98-6.87Z"/>
  <path class="st5" d="M944.04,1150.41c2.16-.91,4.65-.54,6.45.96,1.8,1.51,2.61,3.89,2.1,6.17-.51,2.29-2.25,4.1-4.52,4.7-3.18.84-6.46-.93-7.52-4.04-1.06-3.11.47-6.51,3.5-7.79Z"/>
  <path class="st5" d="M456.09,744.31c3.39.77,6.65,2.73,8.33,5.82.03,4.38.24,2.74-2.63,7.26-9.7.77-10.61-6.1-5.71-13.08Z"/>
</svg>